%TF.GenerationSoftware,KiCad,Pcbnew,7.0.8*%
%TF.CreationDate,2023-10-22T22:03:38+02:00*%
%TF.ProjectId,Doodle Drive,446f6f64-6c65-4204-9472-6976652e6b69,1.0V*%
%TF.SameCoordinates,Original*%
%TF.FileFunction,Legend,Top*%
%TF.FilePolarity,Positive*%
%FSLAX46Y46*%
G04 Gerber Fmt 4.6, Leading zero omitted, Abs format (unit mm)*
G04 Created by KiCad (PCBNEW 7.0.8) date 2023-10-22 22:03:38*
%MOMM*%
%LPD*%
G01*
G04 APERTURE LIST*
%ADD10C,0.150000*%
%ADD11C,0.120000*%
%ADD12C,0.127000*%
%ADD13C,0.200000*%
G04 APERTURE END LIST*
D10*
X102789642Y-70719580D02*
X102742023Y-70767200D01*
X102742023Y-70767200D02*
X102599166Y-70814819D01*
X102599166Y-70814819D02*
X102503928Y-70814819D01*
X102503928Y-70814819D02*
X102361071Y-70767200D01*
X102361071Y-70767200D02*
X102265833Y-70671961D01*
X102265833Y-70671961D02*
X102218214Y-70576723D01*
X102218214Y-70576723D02*
X102170595Y-70386247D01*
X102170595Y-70386247D02*
X102170595Y-70243390D01*
X102170595Y-70243390D02*
X102218214Y-70052914D01*
X102218214Y-70052914D02*
X102265833Y-69957676D01*
X102265833Y-69957676D02*
X102361071Y-69862438D01*
X102361071Y-69862438D02*
X102503928Y-69814819D01*
X102503928Y-69814819D02*
X102599166Y-69814819D01*
X102599166Y-69814819D02*
X102742023Y-69862438D01*
X102742023Y-69862438D02*
X102789642Y-69910057D01*
X103742023Y-70814819D02*
X103170595Y-70814819D01*
X103456309Y-70814819D02*
X103456309Y-69814819D01*
X103456309Y-69814819D02*
X103361071Y-69957676D01*
X103361071Y-69957676D02*
X103265833Y-70052914D01*
X103265833Y-70052914D02*
X103170595Y-70100533D01*
X104361071Y-69814819D02*
X104456309Y-69814819D01*
X104456309Y-69814819D02*
X104551547Y-69862438D01*
X104551547Y-69862438D02*
X104599166Y-69910057D01*
X104599166Y-69910057D02*
X104646785Y-70005295D01*
X104646785Y-70005295D02*
X104694404Y-70195771D01*
X104694404Y-70195771D02*
X104694404Y-70433866D01*
X104694404Y-70433866D02*
X104646785Y-70624342D01*
X104646785Y-70624342D02*
X104599166Y-70719580D01*
X104599166Y-70719580D02*
X104551547Y-70767200D01*
X104551547Y-70767200D02*
X104456309Y-70814819D01*
X104456309Y-70814819D02*
X104361071Y-70814819D01*
X104361071Y-70814819D02*
X104265833Y-70767200D01*
X104265833Y-70767200D02*
X104218214Y-70719580D01*
X104218214Y-70719580D02*
X104170595Y-70624342D01*
X104170595Y-70624342D02*
X104122976Y-70433866D01*
X104122976Y-70433866D02*
X104122976Y-70195771D01*
X104122976Y-70195771D02*
X104170595Y-70005295D01*
X104170595Y-70005295D02*
X104218214Y-69910057D01*
X104218214Y-69910057D02*
X104265833Y-69862438D01*
X104265833Y-69862438D02*
X104361071Y-69814819D01*
X98815833Y-76739580D02*
X98768214Y-76787200D01*
X98768214Y-76787200D02*
X98625357Y-76834819D01*
X98625357Y-76834819D02*
X98530119Y-76834819D01*
X98530119Y-76834819D02*
X98387262Y-76787200D01*
X98387262Y-76787200D02*
X98292024Y-76691961D01*
X98292024Y-76691961D02*
X98244405Y-76596723D01*
X98244405Y-76596723D02*
X98196786Y-76406247D01*
X98196786Y-76406247D02*
X98196786Y-76263390D01*
X98196786Y-76263390D02*
X98244405Y-76072914D01*
X98244405Y-76072914D02*
X98292024Y-75977676D01*
X98292024Y-75977676D02*
X98387262Y-75882438D01*
X98387262Y-75882438D02*
X98530119Y-75834819D01*
X98530119Y-75834819D02*
X98625357Y-75834819D01*
X98625357Y-75834819D02*
X98768214Y-75882438D01*
X98768214Y-75882438D02*
X98815833Y-75930057D01*
X99387262Y-76263390D02*
X99292024Y-76215771D01*
X99292024Y-76215771D02*
X99244405Y-76168152D01*
X99244405Y-76168152D02*
X99196786Y-76072914D01*
X99196786Y-76072914D02*
X99196786Y-76025295D01*
X99196786Y-76025295D02*
X99244405Y-75930057D01*
X99244405Y-75930057D02*
X99292024Y-75882438D01*
X99292024Y-75882438D02*
X99387262Y-75834819D01*
X99387262Y-75834819D02*
X99577738Y-75834819D01*
X99577738Y-75834819D02*
X99672976Y-75882438D01*
X99672976Y-75882438D02*
X99720595Y-75930057D01*
X99720595Y-75930057D02*
X99768214Y-76025295D01*
X99768214Y-76025295D02*
X99768214Y-76072914D01*
X99768214Y-76072914D02*
X99720595Y-76168152D01*
X99720595Y-76168152D02*
X99672976Y-76215771D01*
X99672976Y-76215771D02*
X99577738Y-76263390D01*
X99577738Y-76263390D02*
X99387262Y-76263390D01*
X99387262Y-76263390D02*
X99292024Y-76311009D01*
X99292024Y-76311009D02*
X99244405Y-76358628D01*
X99244405Y-76358628D02*
X99196786Y-76453866D01*
X99196786Y-76453866D02*
X99196786Y-76644342D01*
X99196786Y-76644342D02*
X99244405Y-76739580D01*
X99244405Y-76739580D02*
X99292024Y-76787200D01*
X99292024Y-76787200D02*
X99387262Y-76834819D01*
X99387262Y-76834819D02*
X99577738Y-76834819D01*
X99577738Y-76834819D02*
X99672976Y-76787200D01*
X99672976Y-76787200D02*
X99720595Y-76739580D01*
X99720595Y-76739580D02*
X99768214Y-76644342D01*
X99768214Y-76644342D02*
X99768214Y-76453866D01*
X99768214Y-76453866D02*
X99720595Y-76358628D01*
X99720595Y-76358628D02*
X99672976Y-76311009D01*
X99672976Y-76311009D02*
X99577738Y-76263390D01*
X84085833Y-88454819D02*
X83752500Y-87978628D01*
X83514405Y-88454819D02*
X83514405Y-87454819D01*
X83514405Y-87454819D02*
X83895357Y-87454819D01*
X83895357Y-87454819D02*
X83990595Y-87502438D01*
X83990595Y-87502438D02*
X84038214Y-87550057D01*
X84038214Y-87550057D02*
X84085833Y-87645295D01*
X84085833Y-87645295D02*
X84085833Y-87788152D01*
X84085833Y-87788152D02*
X84038214Y-87883390D01*
X84038214Y-87883390D02*
X83990595Y-87931009D01*
X83990595Y-87931009D02*
X83895357Y-87978628D01*
X83895357Y-87978628D02*
X83514405Y-87978628D01*
X84657262Y-87883390D02*
X84562024Y-87835771D01*
X84562024Y-87835771D02*
X84514405Y-87788152D01*
X84514405Y-87788152D02*
X84466786Y-87692914D01*
X84466786Y-87692914D02*
X84466786Y-87645295D01*
X84466786Y-87645295D02*
X84514405Y-87550057D01*
X84514405Y-87550057D02*
X84562024Y-87502438D01*
X84562024Y-87502438D02*
X84657262Y-87454819D01*
X84657262Y-87454819D02*
X84847738Y-87454819D01*
X84847738Y-87454819D02*
X84942976Y-87502438D01*
X84942976Y-87502438D02*
X84990595Y-87550057D01*
X84990595Y-87550057D02*
X85038214Y-87645295D01*
X85038214Y-87645295D02*
X85038214Y-87692914D01*
X85038214Y-87692914D02*
X84990595Y-87788152D01*
X84990595Y-87788152D02*
X84942976Y-87835771D01*
X84942976Y-87835771D02*
X84847738Y-87883390D01*
X84847738Y-87883390D02*
X84657262Y-87883390D01*
X84657262Y-87883390D02*
X84562024Y-87931009D01*
X84562024Y-87931009D02*
X84514405Y-87978628D01*
X84514405Y-87978628D02*
X84466786Y-88073866D01*
X84466786Y-88073866D02*
X84466786Y-88264342D01*
X84466786Y-88264342D02*
X84514405Y-88359580D01*
X84514405Y-88359580D02*
X84562024Y-88407200D01*
X84562024Y-88407200D02*
X84657262Y-88454819D01*
X84657262Y-88454819D02*
X84847738Y-88454819D01*
X84847738Y-88454819D02*
X84942976Y-88407200D01*
X84942976Y-88407200D02*
X84990595Y-88359580D01*
X84990595Y-88359580D02*
X85038214Y-88264342D01*
X85038214Y-88264342D02*
X85038214Y-88073866D01*
X85038214Y-88073866D02*
X84990595Y-87978628D01*
X84990595Y-87978628D02*
X84942976Y-87931009D01*
X84942976Y-87931009D02*
X84847738Y-87883390D01*
X110090895Y-88608881D02*
X110090895Y-89256966D01*
X110090895Y-89256966D02*
X110129017Y-89333211D01*
X110129017Y-89333211D02*
X110167140Y-89371334D01*
X110167140Y-89371334D02*
X110243385Y-89409456D01*
X110243385Y-89409456D02*
X110395876Y-89409456D01*
X110395876Y-89409456D02*
X110472121Y-89371334D01*
X110472121Y-89371334D02*
X110510243Y-89333211D01*
X110510243Y-89333211D02*
X110548366Y-89256966D01*
X110548366Y-89256966D02*
X110548366Y-88608881D01*
X111272696Y-88608881D02*
X111120206Y-88608881D01*
X111120206Y-88608881D02*
X111043960Y-88647004D01*
X111043960Y-88647004D02*
X111005838Y-88685126D01*
X111005838Y-88685126D02*
X110929593Y-88799494D01*
X110929593Y-88799494D02*
X110891470Y-88951985D01*
X110891470Y-88951985D02*
X110891470Y-89256966D01*
X110891470Y-89256966D02*
X110929593Y-89333211D01*
X110929593Y-89333211D02*
X110967715Y-89371334D01*
X110967715Y-89371334D02*
X111043960Y-89409456D01*
X111043960Y-89409456D02*
X111196451Y-89409456D01*
X111196451Y-89409456D02*
X111272696Y-89371334D01*
X111272696Y-89371334D02*
X111310819Y-89333211D01*
X111310819Y-89333211D02*
X111348941Y-89256966D01*
X111348941Y-89256966D02*
X111348941Y-89066353D01*
X111348941Y-89066353D02*
X111310819Y-88990107D01*
X111310819Y-88990107D02*
X111272696Y-88951985D01*
X111272696Y-88951985D02*
X111196451Y-88913862D01*
X111196451Y-88913862D02*
X111043960Y-88913862D01*
X111043960Y-88913862D02*
X110967715Y-88951985D01*
X110967715Y-88951985D02*
X110929593Y-88990107D01*
X110929593Y-88990107D02*
X110891470Y-89066353D01*
X84085833Y-70754819D02*
X83752500Y-70278628D01*
X83514405Y-70754819D02*
X83514405Y-69754819D01*
X83514405Y-69754819D02*
X83895357Y-69754819D01*
X83895357Y-69754819D02*
X83990595Y-69802438D01*
X83990595Y-69802438D02*
X84038214Y-69850057D01*
X84038214Y-69850057D02*
X84085833Y-69945295D01*
X84085833Y-69945295D02*
X84085833Y-70088152D01*
X84085833Y-70088152D02*
X84038214Y-70183390D01*
X84038214Y-70183390D02*
X83990595Y-70231009D01*
X83990595Y-70231009D02*
X83895357Y-70278628D01*
X83895357Y-70278628D02*
X83514405Y-70278628D01*
X84466786Y-69850057D02*
X84514405Y-69802438D01*
X84514405Y-69802438D02*
X84609643Y-69754819D01*
X84609643Y-69754819D02*
X84847738Y-69754819D01*
X84847738Y-69754819D02*
X84942976Y-69802438D01*
X84942976Y-69802438D02*
X84990595Y-69850057D01*
X84990595Y-69850057D02*
X85038214Y-69945295D01*
X85038214Y-69945295D02*
X85038214Y-70040533D01*
X85038214Y-70040533D02*
X84990595Y-70183390D01*
X84990595Y-70183390D02*
X84419167Y-70754819D01*
X84419167Y-70754819D02*
X85038214Y-70754819D01*
X84085833Y-67804819D02*
X83752500Y-67328628D01*
X83514405Y-67804819D02*
X83514405Y-66804819D01*
X83514405Y-66804819D02*
X83895357Y-66804819D01*
X83895357Y-66804819D02*
X83990595Y-66852438D01*
X83990595Y-66852438D02*
X84038214Y-66900057D01*
X84038214Y-66900057D02*
X84085833Y-66995295D01*
X84085833Y-66995295D02*
X84085833Y-67138152D01*
X84085833Y-67138152D02*
X84038214Y-67233390D01*
X84038214Y-67233390D02*
X83990595Y-67281009D01*
X83990595Y-67281009D02*
X83895357Y-67328628D01*
X83895357Y-67328628D02*
X83514405Y-67328628D01*
X85038214Y-67804819D02*
X84466786Y-67804819D01*
X84752500Y-67804819D02*
X84752500Y-66804819D01*
X84752500Y-66804819D02*
X84657262Y-66947676D01*
X84657262Y-66947676D02*
X84562024Y-67042914D01*
X84562024Y-67042914D02*
X84466786Y-67090533D01*
X98815833Y-70719580D02*
X98768214Y-70767200D01*
X98768214Y-70767200D02*
X98625357Y-70814819D01*
X98625357Y-70814819D02*
X98530119Y-70814819D01*
X98530119Y-70814819D02*
X98387262Y-70767200D01*
X98387262Y-70767200D02*
X98292024Y-70671961D01*
X98292024Y-70671961D02*
X98244405Y-70576723D01*
X98244405Y-70576723D02*
X98196786Y-70386247D01*
X98196786Y-70386247D02*
X98196786Y-70243390D01*
X98196786Y-70243390D02*
X98244405Y-70052914D01*
X98244405Y-70052914D02*
X98292024Y-69957676D01*
X98292024Y-69957676D02*
X98387262Y-69862438D01*
X98387262Y-69862438D02*
X98530119Y-69814819D01*
X98530119Y-69814819D02*
X98625357Y-69814819D01*
X98625357Y-69814819D02*
X98768214Y-69862438D01*
X98768214Y-69862438D02*
X98815833Y-69910057D01*
X99672976Y-69814819D02*
X99482500Y-69814819D01*
X99482500Y-69814819D02*
X99387262Y-69862438D01*
X99387262Y-69862438D02*
X99339643Y-69910057D01*
X99339643Y-69910057D02*
X99244405Y-70052914D01*
X99244405Y-70052914D02*
X99196786Y-70243390D01*
X99196786Y-70243390D02*
X99196786Y-70624342D01*
X99196786Y-70624342D02*
X99244405Y-70719580D01*
X99244405Y-70719580D02*
X99292024Y-70767200D01*
X99292024Y-70767200D02*
X99387262Y-70814819D01*
X99387262Y-70814819D02*
X99577738Y-70814819D01*
X99577738Y-70814819D02*
X99672976Y-70767200D01*
X99672976Y-70767200D02*
X99720595Y-70719580D01*
X99720595Y-70719580D02*
X99768214Y-70624342D01*
X99768214Y-70624342D02*
X99768214Y-70386247D01*
X99768214Y-70386247D02*
X99720595Y-70291009D01*
X99720595Y-70291009D02*
X99672976Y-70243390D01*
X99672976Y-70243390D02*
X99577738Y-70195771D01*
X99577738Y-70195771D02*
X99387262Y-70195771D01*
X99387262Y-70195771D02*
X99292024Y-70243390D01*
X99292024Y-70243390D02*
X99244405Y-70291009D01*
X99244405Y-70291009D02*
X99196786Y-70386247D01*
X94356309Y-96068628D02*
X94356309Y-96544819D01*
X94022976Y-95544819D02*
X94356309Y-96068628D01*
X94356309Y-96068628D02*
X94689642Y-95544819D01*
X95546785Y-96544819D02*
X94975357Y-96544819D01*
X95261071Y-96544819D02*
X95261071Y-95544819D01*
X95261071Y-95544819D02*
X95165833Y-95687676D01*
X95165833Y-95687676D02*
X95070595Y-95782914D01*
X95070595Y-95782914D02*
X94975357Y-95830533D01*
X104164405Y-89969819D02*
X104164405Y-88969819D01*
X104164405Y-88969819D02*
X104402500Y-88969819D01*
X104402500Y-88969819D02*
X104545357Y-89017438D01*
X104545357Y-89017438D02*
X104640595Y-89112676D01*
X104640595Y-89112676D02*
X104688214Y-89207914D01*
X104688214Y-89207914D02*
X104735833Y-89398390D01*
X104735833Y-89398390D02*
X104735833Y-89541247D01*
X104735833Y-89541247D02*
X104688214Y-89731723D01*
X104688214Y-89731723D02*
X104640595Y-89826961D01*
X104640595Y-89826961D02*
X104545357Y-89922200D01*
X104545357Y-89922200D02*
X104402500Y-89969819D01*
X104402500Y-89969819D02*
X104164405Y-89969819D01*
X105688214Y-89969819D02*
X105116786Y-89969819D01*
X105402500Y-89969819D02*
X105402500Y-88969819D01*
X105402500Y-88969819D02*
X105307262Y-89112676D01*
X105307262Y-89112676D02*
X105212024Y-89207914D01*
X105212024Y-89207914D02*
X105116786Y-89255533D01*
X94365833Y-76739580D02*
X94318214Y-76787200D01*
X94318214Y-76787200D02*
X94175357Y-76834819D01*
X94175357Y-76834819D02*
X94080119Y-76834819D01*
X94080119Y-76834819D02*
X93937262Y-76787200D01*
X93937262Y-76787200D02*
X93842024Y-76691961D01*
X93842024Y-76691961D02*
X93794405Y-76596723D01*
X93794405Y-76596723D02*
X93746786Y-76406247D01*
X93746786Y-76406247D02*
X93746786Y-76263390D01*
X93746786Y-76263390D02*
X93794405Y-76072914D01*
X93794405Y-76072914D02*
X93842024Y-75977676D01*
X93842024Y-75977676D02*
X93937262Y-75882438D01*
X93937262Y-75882438D02*
X94080119Y-75834819D01*
X94080119Y-75834819D02*
X94175357Y-75834819D01*
X94175357Y-75834819D02*
X94318214Y-75882438D01*
X94318214Y-75882438D02*
X94365833Y-75930057D01*
X95222976Y-76168152D02*
X95222976Y-76834819D01*
X94984881Y-75787200D02*
X94746786Y-76501485D01*
X94746786Y-76501485D02*
X95365833Y-76501485D01*
X107239642Y-73729580D02*
X107192023Y-73777200D01*
X107192023Y-73777200D02*
X107049166Y-73824819D01*
X107049166Y-73824819D02*
X106953928Y-73824819D01*
X106953928Y-73824819D02*
X106811071Y-73777200D01*
X106811071Y-73777200D02*
X106715833Y-73681961D01*
X106715833Y-73681961D02*
X106668214Y-73586723D01*
X106668214Y-73586723D02*
X106620595Y-73396247D01*
X106620595Y-73396247D02*
X106620595Y-73253390D01*
X106620595Y-73253390D02*
X106668214Y-73062914D01*
X106668214Y-73062914D02*
X106715833Y-72967676D01*
X106715833Y-72967676D02*
X106811071Y-72872438D01*
X106811071Y-72872438D02*
X106953928Y-72824819D01*
X106953928Y-72824819D02*
X107049166Y-72824819D01*
X107049166Y-72824819D02*
X107192023Y-72872438D01*
X107192023Y-72872438D02*
X107239642Y-72920057D01*
X108192023Y-73824819D02*
X107620595Y-73824819D01*
X107906309Y-73824819D02*
X107906309Y-72824819D01*
X107906309Y-72824819D02*
X107811071Y-72967676D01*
X107811071Y-72967676D02*
X107715833Y-73062914D01*
X107715833Y-73062914D02*
X107620595Y-73110533D01*
X108525357Y-72824819D02*
X109192023Y-72824819D01*
X109192023Y-72824819D02*
X108763452Y-73824819D01*
X103265833Y-67709580D02*
X103218214Y-67757200D01*
X103218214Y-67757200D02*
X103075357Y-67804819D01*
X103075357Y-67804819D02*
X102980119Y-67804819D01*
X102980119Y-67804819D02*
X102837262Y-67757200D01*
X102837262Y-67757200D02*
X102742024Y-67661961D01*
X102742024Y-67661961D02*
X102694405Y-67566723D01*
X102694405Y-67566723D02*
X102646786Y-67376247D01*
X102646786Y-67376247D02*
X102646786Y-67233390D01*
X102646786Y-67233390D02*
X102694405Y-67042914D01*
X102694405Y-67042914D02*
X102742024Y-66947676D01*
X102742024Y-66947676D02*
X102837262Y-66852438D01*
X102837262Y-66852438D02*
X102980119Y-66804819D01*
X102980119Y-66804819D02*
X103075357Y-66804819D01*
X103075357Y-66804819D02*
X103218214Y-66852438D01*
X103218214Y-66852438D02*
X103265833Y-66900057D01*
X103742024Y-67804819D02*
X103932500Y-67804819D01*
X103932500Y-67804819D02*
X104027738Y-67757200D01*
X104027738Y-67757200D02*
X104075357Y-67709580D01*
X104075357Y-67709580D02*
X104170595Y-67566723D01*
X104170595Y-67566723D02*
X104218214Y-67376247D01*
X104218214Y-67376247D02*
X104218214Y-66995295D01*
X104218214Y-66995295D02*
X104170595Y-66900057D01*
X104170595Y-66900057D02*
X104122976Y-66852438D01*
X104122976Y-66852438D02*
X104027738Y-66804819D01*
X104027738Y-66804819D02*
X103837262Y-66804819D01*
X103837262Y-66804819D02*
X103742024Y-66852438D01*
X103742024Y-66852438D02*
X103694405Y-66900057D01*
X103694405Y-66900057D02*
X103646786Y-66995295D01*
X103646786Y-66995295D02*
X103646786Y-67233390D01*
X103646786Y-67233390D02*
X103694405Y-67328628D01*
X103694405Y-67328628D02*
X103742024Y-67376247D01*
X103742024Y-67376247D02*
X103837262Y-67423866D01*
X103837262Y-67423866D02*
X104027738Y-67423866D01*
X104027738Y-67423866D02*
X104122976Y-67376247D01*
X104122976Y-67376247D02*
X104170595Y-67328628D01*
X104170595Y-67328628D02*
X104218214Y-67233390D01*
X84085833Y-82554819D02*
X83752500Y-82078628D01*
X83514405Y-82554819D02*
X83514405Y-81554819D01*
X83514405Y-81554819D02*
X83895357Y-81554819D01*
X83895357Y-81554819D02*
X83990595Y-81602438D01*
X83990595Y-81602438D02*
X84038214Y-81650057D01*
X84038214Y-81650057D02*
X84085833Y-81745295D01*
X84085833Y-81745295D02*
X84085833Y-81888152D01*
X84085833Y-81888152D02*
X84038214Y-81983390D01*
X84038214Y-81983390D02*
X83990595Y-82031009D01*
X83990595Y-82031009D02*
X83895357Y-82078628D01*
X83895357Y-82078628D02*
X83514405Y-82078628D01*
X84942976Y-81554819D02*
X84752500Y-81554819D01*
X84752500Y-81554819D02*
X84657262Y-81602438D01*
X84657262Y-81602438D02*
X84609643Y-81650057D01*
X84609643Y-81650057D02*
X84514405Y-81792914D01*
X84514405Y-81792914D02*
X84466786Y-81983390D01*
X84466786Y-81983390D02*
X84466786Y-82364342D01*
X84466786Y-82364342D02*
X84514405Y-82459580D01*
X84514405Y-82459580D02*
X84562024Y-82507200D01*
X84562024Y-82507200D02*
X84657262Y-82554819D01*
X84657262Y-82554819D02*
X84847738Y-82554819D01*
X84847738Y-82554819D02*
X84942976Y-82507200D01*
X84942976Y-82507200D02*
X84990595Y-82459580D01*
X84990595Y-82459580D02*
X85038214Y-82364342D01*
X85038214Y-82364342D02*
X85038214Y-82126247D01*
X85038214Y-82126247D02*
X84990595Y-82031009D01*
X84990595Y-82031009D02*
X84942976Y-81983390D01*
X84942976Y-81983390D02*
X84847738Y-81935771D01*
X84847738Y-81935771D02*
X84657262Y-81935771D01*
X84657262Y-81935771D02*
X84562024Y-81983390D01*
X84562024Y-81983390D02*
X84514405Y-82031009D01*
X84514405Y-82031009D02*
X84466786Y-82126247D01*
X102789642Y-76739580D02*
X102742023Y-76787200D01*
X102742023Y-76787200D02*
X102599166Y-76834819D01*
X102599166Y-76834819D02*
X102503928Y-76834819D01*
X102503928Y-76834819D02*
X102361071Y-76787200D01*
X102361071Y-76787200D02*
X102265833Y-76691961D01*
X102265833Y-76691961D02*
X102218214Y-76596723D01*
X102218214Y-76596723D02*
X102170595Y-76406247D01*
X102170595Y-76406247D02*
X102170595Y-76263390D01*
X102170595Y-76263390D02*
X102218214Y-76072914D01*
X102218214Y-76072914D02*
X102265833Y-75977676D01*
X102265833Y-75977676D02*
X102361071Y-75882438D01*
X102361071Y-75882438D02*
X102503928Y-75834819D01*
X102503928Y-75834819D02*
X102599166Y-75834819D01*
X102599166Y-75834819D02*
X102742023Y-75882438D01*
X102742023Y-75882438D02*
X102789642Y-75930057D01*
X103742023Y-76834819D02*
X103170595Y-76834819D01*
X103456309Y-76834819D02*
X103456309Y-75834819D01*
X103456309Y-75834819D02*
X103361071Y-75977676D01*
X103361071Y-75977676D02*
X103265833Y-76072914D01*
X103265833Y-76072914D02*
X103170595Y-76120533D01*
X104122976Y-75930057D02*
X104170595Y-75882438D01*
X104170595Y-75882438D02*
X104265833Y-75834819D01*
X104265833Y-75834819D02*
X104503928Y-75834819D01*
X104503928Y-75834819D02*
X104599166Y-75882438D01*
X104599166Y-75882438D02*
X104646785Y-75930057D01*
X104646785Y-75930057D02*
X104694404Y-76025295D01*
X104694404Y-76025295D02*
X104694404Y-76120533D01*
X104694404Y-76120533D02*
X104646785Y-76263390D01*
X104646785Y-76263390D02*
X104075357Y-76834819D01*
X104075357Y-76834819D02*
X104694404Y-76834819D01*
X97819166Y-78894819D02*
X97819166Y-79609104D01*
X97819166Y-79609104D02*
X97771547Y-79751961D01*
X97771547Y-79751961D02*
X97676309Y-79847200D01*
X97676309Y-79847200D02*
X97533452Y-79894819D01*
X97533452Y-79894819D02*
X97438214Y-79894819D01*
X98819166Y-79894819D02*
X98247738Y-79894819D01*
X98533452Y-79894819D02*
X98533452Y-78894819D01*
X98533452Y-78894819D02*
X98438214Y-79037676D01*
X98438214Y-79037676D02*
X98342976Y-79132914D01*
X98342976Y-79132914D02*
X98247738Y-79180533D01*
X107239642Y-67709580D02*
X107192023Y-67757200D01*
X107192023Y-67757200D02*
X107049166Y-67804819D01*
X107049166Y-67804819D02*
X106953928Y-67804819D01*
X106953928Y-67804819D02*
X106811071Y-67757200D01*
X106811071Y-67757200D02*
X106715833Y-67661961D01*
X106715833Y-67661961D02*
X106668214Y-67566723D01*
X106668214Y-67566723D02*
X106620595Y-67376247D01*
X106620595Y-67376247D02*
X106620595Y-67233390D01*
X106620595Y-67233390D02*
X106668214Y-67042914D01*
X106668214Y-67042914D02*
X106715833Y-66947676D01*
X106715833Y-66947676D02*
X106811071Y-66852438D01*
X106811071Y-66852438D02*
X106953928Y-66804819D01*
X106953928Y-66804819D02*
X107049166Y-66804819D01*
X107049166Y-66804819D02*
X107192023Y-66852438D01*
X107192023Y-66852438D02*
X107239642Y-66900057D01*
X108192023Y-67804819D02*
X107620595Y-67804819D01*
X107906309Y-67804819D02*
X107906309Y-66804819D01*
X107906309Y-66804819D02*
X107811071Y-66947676D01*
X107811071Y-66947676D02*
X107715833Y-67042914D01*
X107715833Y-67042914D02*
X107620595Y-67090533D01*
X108525357Y-66804819D02*
X109144404Y-66804819D01*
X109144404Y-66804819D02*
X108811071Y-67185771D01*
X108811071Y-67185771D02*
X108953928Y-67185771D01*
X108953928Y-67185771D02*
X109049166Y-67233390D01*
X109049166Y-67233390D02*
X109096785Y-67281009D01*
X109096785Y-67281009D02*
X109144404Y-67376247D01*
X109144404Y-67376247D02*
X109144404Y-67614342D01*
X109144404Y-67614342D02*
X109096785Y-67709580D01*
X109096785Y-67709580D02*
X109049166Y-67757200D01*
X109049166Y-67757200D02*
X108953928Y-67804819D01*
X108953928Y-67804819D02*
X108668214Y-67804819D01*
X108668214Y-67804819D02*
X108572976Y-67757200D01*
X108572976Y-67757200D02*
X108525357Y-67709580D01*
X99465833Y-96694819D02*
X98989643Y-96694819D01*
X98989643Y-96694819D02*
X98989643Y-95694819D01*
X100322976Y-96694819D02*
X99751548Y-96694819D01*
X100037262Y-96694819D02*
X100037262Y-95694819D01*
X100037262Y-95694819D02*
X99942024Y-95837676D01*
X99942024Y-95837676D02*
X99846786Y-95932914D01*
X99846786Y-95932914D02*
X99751548Y-95980533D01*
X102789642Y-73729580D02*
X102742023Y-73777200D01*
X102742023Y-73777200D02*
X102599166Y-73824819D01*
X102599166Y-73824819D02*
X102503928Y-73824819D01*
X102503928Y-73824819D02*
X102361071Y-73777200D01*
X102361071Y-73777200D02*
X102265833Y-73681961D01*
X102265833Y-73681961D02*
X102218214Y-73586723D01*
X102218214Y-73586723D02*
X102170595Y-73396247D01*
X102170595Y-73396247D02*
X102170595Y-73253390D01*
X102170595Y-73253390D02*
X102218214Y-73062914D01*
X102218214Y-73062914D02*
X102265833Y-72967676D01*
X102265833Y-72967676D02*
X102361071Y-72872438D01*
X102361071Y-72872438D02*
X102503928Y-72824819D01*
X102503928Y-72824819D02*
X102599166Y-72824819D01*
X102599166Y-72824819D02*
X102742023Y-72872438D01*
X102742023Y-72872438D02*
X102789642Y-72920057D01*
X103742023Y-73824819D02*
X103170595Y-73824819D01*
X103456309Y-73824819D02*
X103456309Y-72824819D01*
X103456309Y-72824819D02*
X103361071Y-72967676D01*
X103361071Y-72967676D02*
X103265833Y-73062914D01*
X103265833Y-73062914D02*
X103170595Y-73110533D01*
X104694404Y-73824819D02*
X104122976Y-73824819D01*
X104408690Y-73824819D02*
X104408690Y-72824819D01*
X104408690Y-72824819D02*
X104313452Y-72967676D01*
X104313452Y-72967676D02*
X104218214Y-73062914D01*
X104218214Y-73062914D02*
X104122976Y-73110533D01*
X98815833Y-73729580D02*
X98768214Y-73777200D01*
X98768214Y-73777200D02*
X98625357Y-73824819D01*
X98625357Y-73824819D02*
X98530119Y-73824819D01*
X98530119Y-73824819D02*
X98387262Y-73777200D01*
X98387262Y-73777200D02*
X98292024Y-73681961D01*
X98292024Y-73681961D02*
X98244405Y-73586723D01*
X98244405Y-73586723D02*
X98196786Y-73396247D01*
X98196786Y-73396247D02*
X98196786Y-73253390D01*
X98196786Y-73253390D02*
X98244405Y-73062914D01*
X98244405Y-73062914D02*
X98292024Y-72967676D01*
X98292024Y-72967676D02*
X98387262Y-72872438D01*
X98387262Y-72872438D02*
X98530119Y-72824819D01*
X98530119Y-72824819D02*
X98625357Y-72824819D01*
X98625357Y-72824819D02*
X98768214Y-72872438D01*
X98768214Y-72872438D02*
X98815833Y-72920057D01*
X99149167Y-72824819D02*
X99815833Y-72824819D01*
X99815833Y-72824819D02*
X99387262Y-73824819D01*
X104164405Y-93009819D02*
X104164405Y-92009819D01*
X104164405Y-92009819D02*
X104402500Y-92009819D01*
X104402500Y-92009819D02*
X104545357Y-92057438D01*
X104545357Y-92057438D02*
X104640595Y-92152676D01*
X104640595Y-92152676D02*
X104688214Y-92247914D01*
X104688214Y-92247914D02*
X104735833Y-92438390D01*
X104735833Y-92438390D02*
X104735833Y-92581247D01*
X104735833Y-92581247D02*
X104688214Y-92771723D01*
X104688214Y-92771723D02*
X104640595Y-92866961D01*
X104640595Y-92866961D02*
X104545357Y-92962200D01*
X104545357Y-92962200D02*
X104402500Y-93009819D01*
X104402500Y-93009819D02*
X104164405Y-93009819D01*
X105116786Y-92105057D02*
X105164405Y-92057438D01*
X105164405Y-92057438D02*
X105259643Y-92009819D01*
X105259643Y-92009819D02*
X105497738Y-92009819D01*
X105497738Y-92009819D02*
X105592976Y-92057438D01*
X105592976Y-92057438D02*
X105640595Y-92105057D01*
X105640595Y-92105057D02*
X105688214Y-92200295D01*
X105688214Y-92200295D02*
X105688214Y-92295533D01*
X105688214Y-92295533D02*
X105640595Y-92438390D01*
X105640595Y-92438390D02*
X105069167Y-93009819D01*
X105069167Y-93009819D02*
X105688214Y-93009819D01*
X84085833Y-79604819D02*
X83752500Y-79128628D01*
X83514405Y-79604819D02*
X83514405Y-78604819D01*
X83514405Y-78604819D02*
X83895357Y-78604819D01*
X83895357Y-78604819D02*
X83990595Y-78652438D01*
X83990595Y-78652438D02*
X84038214Y-78700057D01*
X84038214Y-78700057D02*
X84085833Y-78795295D01*
X84085833Y-78795295D02*
X84085833Y-78938152D01*
X84085833Y-78938152D02*
X84038214Y-79033390D01*
X84038214Y-79033390D02*
X83990595Y-79081009D01*
X83990595Y-79081009D02*
X83895357Y-79128628D01*
X83895357Y-79128628D02*
X83514405Y-79128628D01*
X84990595Y-78604819D02*
X84514405Y-78604819D01*
X84514405Y-78604819D02*
X84466786Y-79081009D01*
X84466786Y-79081009D02*
X84514405Y-79033390D01*
X84514405Y-79033390D02*
X84609643Y-78985771D01*
X84609643Y-78985771D02*
X84847738Y-78985771D01*
X84847738Y-78985771D02*
X84942976Y-79033390D01*
X84942976Y-79033390D02*
X84990595Y-79081009D01*
X84990595Y-79081009D02*
X85038214Y-79176247D01*
X85038214Y-79176247D02*
X85038214Y-79414342D01*
X85038214Y-79414342D02*
X84990595Y-79509580D01*
X84990595Y-79509580D02*
X84942976Y-79557200D01*
X84942976Y-79557200D02*
X84847738Y-79604819D01*
X84847738Y-79604819D02*
X84609643Y-79604819D01*
X84609643Y-79604819D02*
X84514405Y-79557200D01*
X84514405Y-79557200D02*
X84466786Y-79509580D01*
X94365833Y-67709580D02*
X94318214Y-67757200D01*
X94318214Y-67757200D02*
X94175357Y-67804819D01*
X94175357Y-67804819D02*
X94080119Y-67804819D01*
X94080119Y-67804819D02*
X93937262Y-67757200D01*
X93937262Y-67757200D02*
X93842024Y-67661961D01*
X93842024Y-67661961D02*
X93794405Y-67566723D01*
X93794405Y-67566723D02*
X93746786Y-67376247D01*
X93746786Y-67376247D02*
X93746786Y-67233390D01*
X93746786Y-67233390D02*
X93794405Y-67042914D01*
X93794405Y-67042914D02*
X93842024Y-66947676D01*
X93842024Y-66947676D02*
X93937262Y-66852438D01*
X93937262Y-66852438D02*
X94080119Y-66804819D01*
X94080119Y-66804819D02*
X94175357Y-66804819D01*
X94175357Y-66804819D02*
X94318214Y-66852438D01*
X94318214Y-66852438D02*
X94365833Y-66900057D01*
X95318214Y-67804819D02*
X94746786Y-67804819D01*
X95032500Y-67804819D02*
X95032500Y-66804819D01*
X95032500Y-66804819D02*
X94937262Y-66947676D01*
X94937262Y-66947676D02*
X94842024Y-67042914D01*
X94842024Y-67042914D02*
X94746786Y-67090533D01*
X107239642Y-70719580D02*
X107192023Y-70767200D01*
X107192023Y-70767200D02*
X107049166Y-70814819D01*
X107049166Y-70814819D02*
X106953928Y-70814819D01*
X106953928Y-70814819D02*
X106811071Y-70767200D01*
X106811071Y-70767200D02*
X106715833Y-70671961D01*
X106715833Y-70671961D02*
X106668214Y-70576723D01*
X106668214Y-70576723D02*
X106620595Y-70386247D01*
X106620595Y-70386247D02*
X106620595Y-70243390D01*
X106620595Y-70243390D02*
X106668214Y-70052914D01*
X106668214Y-70052914D02*
X106715833Y-69957676D01*
X106715833Y-69957676D02*
X106811071Y-69862438D01*
X106811071Y-69862438D02*
X106953928Y-69814819D01*
X106953928Y-69814819D02*
X107049166Y-69814819D01*
X107049166Y-69814819D02*
X107192023Y-69862438D01*
X107192023Y-69862438D02*
X107239642Y-69910057D01*
X108192023Y-70814819D02*
X107620595Y-70814819D01*
X107906309Y-70814819D02*
X107906309Y-69814819D01*
X107906309Y-69814819D02*
X107811071Y-69957676D01*
X107811071Y-69957676D02*
X107715833Y-70052914D01*
X107715833Y-70052914D02*
X107620595Y-70100533D01*
X109049166Y-70148152D02*
X109049166Y-70814819D01*
X108811071Y-69767200D02*
X108572976Y-70481485D01*
X108572976Y-70481485D02*
X109192023Y-70481485D01*
X88049167Y-71957200D02*
X88192024Y-72004819D01*
X88192024Y-72004819D02*
X88430119Y-72004819D01*
X88430119Y-72004819D02*
X88525357Y-71957200D01*
X88525357Y-71957200D02*
X88572976Y-71909580D01*
X88572976Y-71909580D02*
X88620595Y-71814342D01*
X88620595Y-71814342D02*
X88620595Y-71719104D01*
X88620595Y-71719104D02*
X88572976Y-71623866D01*
X88572976Y-71623866D02*
X88525357Y-71576247D01*
X88525357Y-71576247D02*
X88430119Y-71528628D01*
X88430119Y-71528628D02*
X88239643Y-71481009D01*
X88239643Y-71481009D02*
X88144405Y-71433390D01*
X88144405Y-71433390D02*
X88096786Y-71385771D01*
X88096786Y-71385771D02*
X88049167Y-71290533D01*
X88049167Y-71290533D02*
X88049167Y-71195295D01*
X88049167Y-71195295D02*
X88096786Y-71100057D01*
X88096786Y-71100057D02*
X88144405Y-71052438D01*
X88144405Y-71052438D02*
X88239643Y-71004819D01*
X88239643Y-71004819D02*
X88477738Y-71004819D01*
X88477738Y-71004819D02*
X88620595Y-71052438D01*
X88953929Y-71004819D02*
X89192024Y-72004819D01*
X89192024Y-72004819D02*
X89382500Y-71290533D01*
X89382500Y-71290533D02*
X89572976Y-72004819D01*
X89572976Y-72004819D02*
X89811072Y-71004819D01*
X90144405Y-71100057D02*
X90192024Y-71052438D01*
X90192024Y-71052438D02*
X90287262Y-71004819D01*
X90287262Y-71004819D02*
X90525357Y-71004819D01*
X90525357Y-71004819D02*
X90620595Y-71052438D01*
X90620595Y-71052438D02*
X90668214Y-71100057D01*
X90668214Y-71100057D02*
X90715833Y-71195295D01*
X90715833Y-71195295D02*
X90715833Y-71290533D01*
X90715833Y-71290533D02*
X90668214Y-71433390D01*
X90668214Y-71433390D02*
X90096786Y-72004819D01*
X90096786Y-72004819D02*
X90715833Y-72004819D01*
X94365833Y-73729580D02*
X94318214Y-73777200D01*
X94318214Y-73777200D02*
X94175357Y-73824819D01*
X94175357Y-73824819D02*
X94080119Y-73824819D01*
X94080119Y-73824819D02*
X93937262Y-73777200D01*
X93937262Y-73777200D02*
X93842024Y-73681961D01*
X93842024Y-73681961D02*
X93794405Y-73586723D01*
X93794405Y-73586723D02*
X93746786Y-73396247D01*
X93746786Y-73396247D02*
X93746786Y-73253390D01*
X93746786Y-73253390D02*
X93794405Y-73062914D01*
X93794405Y-73062914D02*
X93842024Y-72967676D01*
X93842024Y-72967676D02*
X93937262Y-72872438D01*
X93937262Y-72872438D02*
X94080119Y-72824819D01*
X94080119Y-72824819D02*
X94175357Y-72824819D01*
X94175357Y-72824819D02*
X94318214Y-72872438D01*
X94318214Y-72872438D02*
X94365833Y-72920057D01*
X94699167Y-72824819D02*
X95318214Y-72824819D01*
X95318214Y-72824819D02*
X94984881Y-73205771D01*
X94984881Y-73205771D02*
X95127738Y-73205771D01*
X95127738Y-73205771D02*
X95222976Y-73253390D01*
X95222976Y-73253390D02*
X95270595Y-73301009D01*
X95270595Y-73301009D02*
X95318214Y-73396247D01*
X95318214Y-73396247D02*
X95318214Y-73634342D01*
X95318214Y-73634342D02*
X95270595Y-73729580D01*
X95270595Y-73729580D02*
X95222976Y-73777200D01*
X95222976Y-73777200D02*
X95127738Y-73824819D01*
X95127738Y-73824819D02*
X94842024Y-73824819D01*
X94842024Y-73824819D02*
X94746786Y-73777200D01*
X94746786Y-73777200D02*
X94699167Y-73729580D01*
X98815833Y-67709580D02*
X98768214Y-67757200D01*
X98768214Y-67757200D02*
X98625357Y-67804819D01*
X98625357Y-67804819D02*
X98530119Y-67804819D01*
X98530119Y-67804819D02*
X98387262Y-67757200D01*
X98387262Y-67757200D02*
X98292024Y-67661961D01*
X98292024Y-67661961D02*
X98244405Y-67566723D01*
X98244405Y-67566723D02*
X98196786Y-67376247D01*
X98196786Y-67376247D02*
X98196786Y-67233390D01*
X98196786Y-67233390D02*
X98244405Y-67042914D01*
X98244405Y-67042914D02*
X98292024Y-66947676D01*
X98292024Y-66947676D02*
X98387262Y-66852438D01*
X98387262Y-66852438D02*
X98530119Y-66804819D01*
X98530119Y-66804819D02*
X98625357Y-66804819D01*
X98625357Y-66804819D02*
X98768214Y-66852438D01*
X98768214Y-66852438D02*
X98815833Y-66900057D01*
X99720595Y-66804819D02*
X99244405Y-66804819D01*
X99244405Y-66804819D02*
X99196786Y-67281009D01*
X99196786Y-67281009D02*
X99244405Y-67233390D01*
X99244405Y-67233390D02*
X99339643Y-67185771D01*
X99339643Y-67185771D02*
X99577738Y-67185771D01*
X99577738Y-67185771D02*
X99672976Y-67233390D01*
X99672976Y-67233390D02*
X99720595Y-67281009D01*
X99720595Y-67281009D02*
X99768214Y-67376247D01*
X99768214Y-67376247D02*
X99768214Y-67614342D01*
X99768214Y-67614342D02*
X99720595Y-67709580D01*
X99720595Y-67709580D02*
X99672976Y-67757200D01*
X99672976Y-67757200D02*
X99577738Y-67804819D01*
X99577738Y-67804819D02*
X99339643Y-67804819D01*
X99339643Y-67804819D02*
X99244405Y-67757200D01*
X99244405Y-67757200D02*
X99196786Y-67709580D01*
X94365833Y-70719580D02*
X94318214Y-70767200D01*
X94318214Y-70767200D02*
X94175357Y-70814819D01*
X94175357Y-70814819D02*
X94080119Y-70814819D01*
X94080119Y-70814819D02*
X93937262Y-70767200D01*
X93937262Y-70767200D02*
X93842024Y-70671961D01*
X93842024Y-70671961D02*
X93794405Y-70576723D01*
X93794405Y-70576723D02*
X93746786Y-70386247D01*
X93746786Y-70386247D02*
X93746786Y-70243390D01*
X93746786Y-70243390D02*
X93794405Y-70052914D01*
X93794405Y-70052914D02*
X93842024Y-69957676D01*
X93842024Y-69957676D02*
X93937262Y-69862438D01*
X93937262Y-69862438D02*
X94080119Y-69814819D01*
X94080119Y-69814819D02*
X94175357Y-69814819D01*
X94175357Y-69814819D02*
X94318214Y-69862438D01*
X94318214Y-69862438D02*
X94365833Y-69910057D01*
X94746786Y-69910057D02*
X94794405Y-69862438D01*
X94794405Y-69862438D02*
X94889643Y-69814819D01*
X94889643Y-69814819D02*
X95127738Y-69814819D01*
X95127738Y-69814819D02*
X95222976Y-69862438D01*
X95222976Y-69862438D02*
X95270595Y-69910057D01*
X95270595Y-69910057D02*
X95318214Y-70005295D01*
X95318214Y-70005295D02*
X95318214Y-70100533D01*
X95318214Y-70100533D02*
X95270595Y-70243390D01*
X95270595Y-70243390D02*
X94699167Y-70814819D01*
X94699167Y-70814819D02*
X95318214Y-70814819D01*
X107880595Y-78844819D02*
X107880595Y-79654342D01*
X107880595Y-79654342D02*
X107928214Y-79749580D01*
X107928214Y-79749580D02*
X107975833Y-79797200D01*
X107975833Y-79797200D02*
X108071071Y-79844819D01*
X108071071Y-79844819D02*
X108261547Y-79844819D01*
X108261547Y-79844819D02*
X108356785Y-79797200D01*
X108356785Y-79797200D02*
X108404404Y-79749580D01*
X108404404Y-79749580D02*
X108452023Y-79654342D01*
X108452023Y-79654342D02*
X108452023Y-78844819D01*
X109452023Y-79844819D02*
X108880595Y-79844819D01*
X109166309Y-79844819D02*
X109166309Y-78844819D01*
X109166309Y-78844819D02*
X109071071Y-78987676D01*
X109071071Y-78987676D02*
X108975833Y-79082914D01*
X108975833Y-79082914D02*
X108880595Y-79130533D01*
X88049167Y-67607200D02*
X88192024Y-67654819D01*
X88192024Y-67654819D02*
X88430119Y-67654819D01*
X88430119Y-67654819D02*
X88525357Y-67607200D01*
X88525357Y-67607200D02*
X88572976Y-67559580D01*
X88572976Y-67559580D02*
X88620595Y-67464342D01*
X88620595Y-67464342D02*
X88620595Y-67369104D01*
X88620595Y-67369104D02*
X88572976Y-67273866D01*
X88572976Y-67273866D02*
X88525357Y-67226247D01*
X88525357Y-67226247D02*
X88430119Y-67178628D01*
X88430119Y-67178628D02*
X88239643Y-67131009D01*
X88239643Y-67131009D02*
X88144405Y-67083390D01*
X88144405Y-67083390D02*
X88096786Y-67035771D01*
X88096786Y-67035771D02*
X88049167Y-66940533D01*
X88049167Y-66940533D02*
X88049167Y-66845295D01*
X88049167Y-66845295D02*
X88096786Y-66750057D01*
X88096786Y-66750057D02*
X88144405Y-66702438D01*
X88144405Y-66702438D02*
X88239643Y-66654819D01*
X88239643Y-66654819D02*
X88477738Y-66654819D01*
X88477738Y-66654819D02*
X88620595Y-66702438D01*
X88953929Y-66654819D02*
X89192024Y-67654819D01*
X89192024Y-67654819D02*
X89382500Y-66940533D01*
X89382500Y-66940533D02*
X89572976Y-67654819D01*
X89572976Y-67654819D02*
X89811072Y-66654819D01*
X90715833Y-67654819D02*
X90144405Y-67654819D01*
X90430119Y-67654819D02*
X90430119Y-66654819D01*
X90430119Y-66654819D02*
X90334881Y-66797676D01*
X90334881Y-66797676D02*
X90239643Y-66892914D01*
X90239643Y-66892914D02*
X90144405Y-66940533D01*
X84085833Y-76654819D02*
X83752500Y-76178628D01*
X83514405Y-76654819D02*
X83514405Y-75654819D01*
X83514405Y-75654819D02*
X83895357Y-75654819D01*
X83895357Y-75654819D02*
X83990595Y-75702438D01*
X83990595Y-75702438D02*
X84038214Y-75750057D01*
X84038214Y-75750057D02*
X84085833Y-75845295D01*
X84085833Y-75845295D02*
X84085833Y-75988152D01*
X84085833Y-75988152D02*
X84038214Y-76083390D01*
X84038214Y-76083390D02*
X83990595Y-76131009D01*
X83990595Y-76131009D02*
X83895357Y-76178628D01*
X83895357Y-76178628D02*
X83514405Y-76178628D01*
X84942976Y-75988152D02*
X84942976Y-76654819D01*
X84704881Y-75607200D02*
X84466786Y-76321485D01*
X84466786Y-76321485D02*
X85085833Y-76321485D01*
X96720595Y-88924819D02*
X96720595Y-89734342D01*
X96720595Y-89734342D02*
X96768214Y-89829580D01*
X96768214Y-89829580D02*
X96815833Y-89877200D01*
X96815833Y-89877200D02*
X96911071Y-89924819D01*
X96911071Y-89924819D02*
X97101547Y-89924819D01*
X97101547Y-89924819D02*
X97196785Y-89877200D01*
X97196785Y-89877200D02*
X97244404Y-89829580D01*
X97244404Y-89829580D02*
X97292023Y-89734342D01*
X97292023Y-89734342D02*
X97292023Y-88924819D01*
X97911071Y-89353390D02*
X97815833Y-89305771D01*
X97815833Y-89305771D02*
X97768214Y-89258152D01*
X97768214Y-89258152D02*
X97720595Y-89162914D01*
X97720595Y-89162914D02*
X97720595Y-89115295D01*
X97720595Y-89115295D02*
X97768214Y-89020057D01*
X97768214Y-89020057D02*
X97815833Y-88972438D01*
X97815833Y-88972438D02*
X97911071Y-88924819D01*
X97911071Y-88924819D02*
X98101547Y-88924819D01*
X98101547Y-88924819D02*
X98196785Y-88972438D01*
X98196785Y-88972438D02*
X98244404Y-89020057D01*
X98244404Y-89020057D02*
X98292023Y-89115295D01*
X98292023Y-89115295D02*
X98292023Y-89162914D01*
X98292023Y-89162914D02*
X98244404Y-89258152D01*
X98244404Y-89258152D02*
X98196785Y-89305771D01*
X98196785Y-89305771D02*
X98101547Y-89353390D01*
X98101547Y-89353390D02*
X97911071Y-89353390D01*
X97911071Y-89353390D02*
X97815833Y-89401009D01*
X97815833Y-89401009D02*
X97768214Y-89448628D01*
X97768214Y-89448628D02*
X97720595Y-89543866D01*
X97720595Y-89543866D02*
X97720595Y-89734342D01*
X97720595Y-89734342D02*
X97768214Y-89829580D01*
X97768214Y-89829580D02*
X97815833Y-89877200D01*
X97815833Y-89877200D02*
X97911071Y-89924819D01*
X97911071Y-89924819D02*
X98101547Y-89924819D01*
X98101547Y-89924819D02*
X98196785Y-89877200D01*
X98196785Y-89877200D02*
X98244404Y-89829580D01*
X98244404Y-89829580D02*
X98292023Y-89734342D01*
X98292023Y-89734342D02*
X98292023Y-89543866D01*
X98292023Y-89543866D02*
X98244404Y-89448628D01*
X98244404Y-89448628D02*
X98196785Y-89401009D01*
X98196785Y-89401009D02*
X98101547Y-89353390D01*
X88606309Y-92578628D02*
X88606309Y-93054819D01*
X88272976Y-92054819D02*
X88606309Y-92578628D01*
X88606309Y-92578628D02*
X88939642Y-92054819D01*
X89177738Y-92054819D02*
X89796785Y-92054819D01*
X89796785Y-92054819D02*
X89463452Y-92435771D01*
X89463452Y-92435771D02*
X89606309Y-92435771D01*
X89606309Y-92435771D02*
X89701547Y-92483390D01*
X89701547Y-92483390D02*
X89749166Y-92531009D01*
X89749166Y-92531009D02*
X89796785Y-92626247D01*
X89796785Y-92626247D02*
X89796785Y-92864342D01*
X89796785Y-92864342D02*
X89749166Y-92959580D01*
X89749166Y-92959580D02*
X89701547Y-93007200D01*
X89701547Y-93007200D02*
X89606309Y-93054819D01*
X89606309Y-93054819D02*
X89320595Y-93054819D01*
X89320595Y-93054819D02*
X89225357Y-93007200D01*
X89225357Y-93007200D02*
X89177738Y-92959580D01*
X108814405Y-94574819D02*
X108814405Y-93574819D01*
X108814405Y-93574819D02*
X109052500Y-93574819D01*
X109052500Y-93574819D02*
X109195357Y-93622438D01*
X109195357Y-93622438D02*
X109290595Y-93717676D01*
X109290595Y-93717676D02*
X109338214Y-93812914D01*
X109338214Y-93812914D02*
X109385833Y-94003390D01*
X109385833Y-94003390D02*
X109385833Y-94146247D01*
X109385833Y-94146247D02*
X109338214Y-94336723D01*
X109338214Y-94336723D02*
X109290595Y-94431961D01*
X109290595Y-94431961D02*
X109195357Y-94527200D01*
X109195357Y-94527200D02*
X109052500Y-94574819D01*
X109052500Y-94574819D02*
X108814405Y-94574819D01*
X109719167Y-93574819D02*
X110338214Y-93574819D01*
X110338214Y-93574819D02*
X110004881Y-93955771D01*
X110004881Y-93955771D02*
X110147738Y-93955771D01*
X110147738Y-93955771D02*
X110242976Y-94003390D01*
X110242976Y-94003390D02*
X110290595Y-94051009D01*
X110290595Y-94051009D02*
X110338214Y-94146247D01*
X110338214Y-94146247D02*
X110338214Y-94384342D01*
X110338214Y-94384342D02*
X110290595Y-94479580D01*
X110290595Y-94479580D02*
X110242976Y-94527200D01*
X110242976Y-94527200D02*
X110147738Y-94574819D01*
X110147738Y-94574819D02*
X109862024Y-94574819D01*
X109862024Y-94574819D02*
X109766786Y-94527200D01*
X109766786Y-94527200D02*
X109719167Y-94479580D01*
X88449166Y-80024819D02*
X88449166Y-80739104D01*
X88449166Y-80739104D02*
X88401547Y-80881961D01*
X88401547Y-80881961D02*
X88306309Y-80977200D01*
X88306309Y-80977200D02*
X88163452Y-81024819D01*
X88163452Y-81024819D02*
X88068214Y-81024819D01*
X88877738Y-80120057D02*
X88925357Y-80072438D01*
X88925357Y-80072438D02*
X89020595Y-80024819D01*
X89020595Y-80024819D02*
X89258690Y-80024819D01*
X89258690Y-80024819D02*
X89353928Y-80072438D01*
X89353928Y-80072438D02*
X89401547Y-80120057D01*
X89401547Y-80120057D02*
X89449166Y-80215295D01*
X89449166Y-80215295D02*
X89449166Y-80310533D01*
X89449166Y-80310533D02*
X89401547Y-80453390D01*
X89401547Y-80453390D02*
X88830119Y-81024819D01*
X88830119Y-81024819D02*
X89449166Y-81024819D01*
X88049167Y-76307200D02*
X88192024Y-76354819D01*
X88192024Y-76354819D02*
X88430119Y-76354819D01*
X88430119Y-76354819D02*
X88525357Y-76307200D01*
X88525357Y-76307200D02*
X88572976Y-76259580D01*
X88572976Y-76259580D02*
X88620595Y-76164342D01*
X88620595Y-76164342D02*
X88620595Y-76069104D01*
X88620595Y-76069104D02*
X88572976Y-75973866D01*
X88572976Y-75973866D02*
X88525357Y-75926247D01*
X88525357Y-75926247D02*
X88430119Y-75878628D01*
X88430119Y-75878628D02*
X88239643Y-75831009D01*
X88239643Y-75831009D02*
X88144405Y-75783390D01*
X88144405Y-75783390D02*
X88096786Y-75735771D01*
X88096786Y-75735771D02*
X88049167Y-75640533D01*
X88049167Y-75640533D02*
X88049167Y-75545295D01*
X88049167Y-75545295D02*
X88096786Y-75450057D01*
X88096786Y-75450057D02*
X88144405Y-75402438D01*
X88144405Y-75402438D02*
X88239643Y-75354819D01*
X88239643Y-75354819D02*
X88477738Y-75354819D01*
X88477738Y-75354819D02*
X88620595Y-75402438D01*
X88953929Y-75354819D02*
X89192024Y-76354819D01*
X89192024Y-76354819D02*
X89382500Y-75640533D01*
X89382500Y-75640533D02*
X89572976Y-76354819D01*
X89572976Y-76354819D02*
X89811072Y-75354819D01*
X90096786Y-75354819D02*
X90715833Y-75354819D01*
X90715833Y-75354819D02*
X90382500Y-75735771D01*
X90382500Y-75735771D02*
X90525357Y-75735771D01*
X90525357Y-75735771D02*
X90620595Y-75783390D01*
X90620595Y-75783390D02*
X90668214Y-75831009D01*
X90668214Y-75831009D02*
X90715833Y-75926247D01*
X90715833Y-75926247D02*
X90715833Y-76164342D01*
X90715833Y-76164342D02*
X90668214Y-76259580D01*
X90668214Y-76259580D02*
X90620595Y-76307200D01*
X90620595Y-76307200D02*
X90525357Y-76354819D01*
X90525357Y-76354819D02*
X90239643Y-76354819D01*
X90239643Y-76354819D02*
X90144405Y-76307200D01*
X90144405Y-76307200D02*
X90096786Y-76259580D01*
X84085833Y-73704819D02*
X83752500Y-73228628D01*
X83514405Y-73704819D02*
X83514405Y-72704819D01*
X83514405Y-72704819D02*
X83895357Y-72704819D01*
X83895357Y-72704819D02*
X83990595Y-72752438D01*
X83990595Y-72752438D02*
X84038214Y-72800057D01*
X84038214Y-72800057D02*
X84085833Y-72895295D01*
X84085833Y-72895295D02*
X84085833Y-73038152D01*
X84085833Y-73038152D02*
X84038214Y-73133390D01*
X84038214Y-73133390D02*
X83990595Y-73181009D01*
X83990595Y-73181009D02*
X83895357Y-73228628D01*
X83895357Y-73228628D02*
X83514405Y-73228628D01*
X84419167Y-72704819D02*
X85038214Y-72704819D01*
X85038214Y-72704819D02*
X84704881Y-73085771D01*
X84704881Y-73085771D02*
X84847738Y-73085771D01*
X84847738Y-73085771D02*
X84942976Y-73133390D01*
X84942976Y-73133390D02*
X84990595Y-73181009D01*
X84990595Y-73181009D02*
X85038214Y-73276247D01*
X85038214Y-73276247D02*
X85038214Y-73514342D01*
X85038214Y-73514342D02*
X84990595Y-73609580D01*
X84990595Y-73609580D02*
X84942976Y-73657200D01*
X84942976Y-73657200D02*
X84847738Y-73704819D01*
X84847738Y-73704819D02*
X84562024Y-73704819D01*
X84562024Y-73704819D02*
X84466786Y-73657200D01*
X84466786Y-73657200D02*
X84419167Y-73609580D01*
X107239642Y-76739580D02*
X107192023Y-76787200D01*
X107192023Y-76787200D02*
X107049166Y-76834819D01*
X107049166Y-76834819D02*
X106953928Y-76834819D01*
X106953928Y-76834819D02*
X106811071Y-76787200D01*
X106811071Y-76787200D02*
X106715833Y-76691961D01*
X106715833Y-76691961D02*
X106668214Y-76596723D01*
X106668214Y-76596723D02*
X106620595Y-76406247D01*
X106620595Y-76406247D02*
X106620595Y-76263390D01*
X106620595Y-76263390D02*
X106668214Y-76072914D01*
X106668214Y-76072914D02*
X106715833Y-75977676D01*
X106715833Y-75977676D02*
X106811071Y-75882438D01*
X106811071Y-75882438D02*
X106953928Y-75834819D01*
X106953928Y-75834819D02*
X107049166Y-75834819D01*
X107049166Y-75834819D02*
X107192023Y-75882438D01*
X107192023Y-75882438D02*
X107239642Y-75930057D01*
X108192023Y-76834819D02*
X107620595Y-76834819D01*
X107906309Y-76834819D02*
X107906309Y-75834819D01*
X107906309Y-75834819D02*
X107811071Y-75977676D01*
X107811071Y-75977676D02*
X107715833Y-76072914D01*
X107715833Y-76072914D02*
X107620595Y-76120533D01*
X108668214Y-76834819D02*
X108858690Y-76834819D01*
X108858690Y-76834819D02*
X108953928Y-76787200D01*
X108953928Y-76787200D02*
X109001547Y-76739580D01*
X109001547Y-76739580D02*
X109096785Y-76596723D01*
X109096785Y-76596723D02*
X109144404Y-76406247D01*
X109144404Y-76406247D02*
X109144404Y-76025295D01*
X109144404Y-76025295D02*
X109096785Y-75930057D01*
X109096785Y-75930057D02*
X109049166Y-75882438D01*
X109049166Y-75882438D02*
X108953928Y-75834819D01*
X108953928Y-75834819D02*
X108763452Y-75834819D01*
X108763452Y-75834819D02*
X108668214Y-75882438D01*
X108668214Y-75882438D02*
X108620595Y-75930057D01*
X108620595Y-75930057D02*
X108572976Y-76025295D01*
X108572976Y-76025295D02*
X108572976Y-76263390D01*
X108572976Y-76263390D02*
X108620595Y-76358628D01*
X108620595Y-76358628D02*
X108668214Y-76406247D01*
X108668214Y-76406247D02*
X108763452Y-76453866D01*
X108763452Y-76453866D02*
X108953928Y-76453866D01*
X108953928Y-76453866D02*
X109049166Y-76406247D01*
X109049166Y-76406247D02*
X109096785Y-76358628D01*
X109096785Y-76358628D02*
X109144404Y-76263390D01*
X84085833Y-85504819D02*
X83752500Y-85028628D01*
X83514405Y-85504819D02*
X83514405Y-84504819D01*
X83514405Y-84504819D02*
X83895357Y-84504819D01*
X83895357Y-84504819D02*
X83990595Y-84552438D01*
X83990595Y-84552438D02*
X84038214Y-84600057D01*
X84038214Y-84600057D02*
X84085833Y-84695295D01*
X84085833Y-84695295D02*
X84085833Y-84838152D01*
X84085833Y-84838152D02*
X84038214Y-84933390D01*
X84038214Y-84933390D02*
X83990595Y-84981009D01*
X83990595Y-84981009D02*
X83895357Y-85028628D01*
X83895357Y-85028628D02*
X83514405Y-85028628D01*
X84419167Y-84504819D02*
X85085833Y-84504819D01*
X85085833Y-84504819D02*
X84657262Y-85504819D01*
D11*
%TO.C,C10*%
X103171248Y-71305000D02*
X103693752Y-71305000D01*
X103171248Y-72775000D02*
X103693752Y-72775000D01*
%TO.C,C8*%
X98721248Y-77325000D02*
X99243752Y-77325000D01*
X98721248Y-78795000D02*
X99243752Y-78795000D01*
%TO.C,R8*%
X84025436Y-88915000D02*
X84479564Y-88915000D01*
X84025436Y-90385000D02*
X84479564Y-90385000D01*
D12*
%TO.C,U6*%
X109088312Y-90420000D02*
X109088312Y-90520000D01*
X109088312Y-93520000D02*
X109088312Y-93420000D01*
X110788312Y-90420000D02*
X109088312Y-90420000D01*
X110788312Y-90420000D02*
X110788312Y-90520000D01*
X110788312Y-93520000D02*
X109088312Y-93520000D01*
X110788312Y-93520000D02*
X110788312Y-93420000D01*
D13*
X107831124Y-91020000D02*
G75*
G03*
X107831124Y-91020000I-61812J0D01*
G01*
D11*
%TO.C,R2*%
X84025436Y-71215000D02*
X84479564Y-71215000D01*
X84025436Y-72685000D02*
X84479564Y-72685000D01*
%TO.C,R1*%
X84025436Y-68265000D02*
X84479564Y-68265000D01*
X84025436Y-69735000D02*
X84479564Y-69735000D01*
%TO.C,C6*%
X98721248Y-71305000D02*
X99243752Y-71305000D01*
X98721248Y-72775000D02*
X99243752Y-72775000D01*
%TO.C,Y1*%
X94157500Y-97215000D02*
X95507500Y-97215000D01*
X94157500Y-98965000D02*
X95507500Y-98965000D01*
%TO.C,D1*%
X103217500Y-90205000D02*
X103217500Y-92125000D01*
X103217500Y-92125000D02*
X105902500Y-92125000D01*
X105902500Y-90205000D02*
X103217500Y-90205000D01*
%TO.C,C4*%
X94271248Y-77325000D02*
X94793752Y-77325000D01*
X94271248Y-78795000D02*
X94793752Y-78795000D01*
%TO.C,C17*%
X107621248Y-74315000D02*
X108143752Y-74315000D01*
X107621248Y-75785000D02*
X108143752Y-75785000D01*
%TO.C,C9*%
X103171248Y-68295000D02*
X103693752Y-68295000D01*
X103171248Y-69765000D02*
X103693752Y-69765000D01*
%TO.C,R6*%
X84025436Y-83015000D02*
X84479564Y-83015000D01*
X84025436Y-84485000D02*
X84479564Y-84485000D01*
%TO.C,C12*%
X103171248Y-77325000D02*
X103693752Y-77325000D01*
X103171248Y-78795000D02*
X103693752Y-78795000D01*
%TO.C,J1*%
X93572500Y-83090000D02*
X93572500Y-85010000D01*
X93572500Y-88725000D02*
X93572500Y-87020000D01*
X102732500Y-85010000D02*
X102732500Y-83090000D01*
X102732500Y-87020000D02*
X102732500Y-88725000D01*
X102732500Y-88725000D02*
X93572500Y-88725000D01*
%TO.C,C13*%
X107621248Y-68295000D02*
X108143752Y-68295000D01*
X107621248Y-69765000D02*
X108143752Y-69765000D01*
%TO.C,L1*%
X99232878Y-97230000D02*
X100032122Y-97230000D01*
X99232878Y-98350000D02*
X100032122Y-98350000D01*
%TO.C,C11*%
X103171248Y-74315000D02*
X103693752Y-74315000D01*
X103171248Y-75785000D02*
X103693752Y-75785000D01*
%TO.C,C7*%
X98721248Y-74315000D02*
X99243752Y-74315000D01*
X98721248Y-75785000D02*
X99243752Y-75785000D01*
%TO.C,D2*%
X103217500Y-93245000D02*
X103217500Y-95165000D01*
X103217500Y-95165000D02*
X105902500Y-95165000D01*
X105902500Y-93245000D02*
X103217500Y-93245000D01*
%TO.C,R5*%
X84025436Y-80065000D02*
X84479564Y-80065000D01*
X84025436Y-81535000D02*
X84479564Y-81535000D01*
%TO.C,C1*%
X94271248Y-68295000D02*
X94793752Y-68295000D01*
X94271248Y-69765000D02*
X94793752Y-69765000D01*
%TO.C,C14*%
X107621248Y-71305000D02*
X108143752Y-71305000D01*
X107621248Y-72775000D02*
X108143752Y-72775000D01*
%TO.C,SW2*%
X87732500Y-72650000D02*
X91032500Y-72650000D01*
X87732500Y-72950000D02*
X87732500Y-72650000D01*
X87732500Y-75150000D02*
X87732500Y-75450000D01*
X87732500Y-75450000D02*
X91032500Y-75450000D01*
X91032500Y-72650000D02*
X91032500Y-72950000D01*
X91032500Y-75450000D02*
X91032500Y-75150000D01*
%TO.C,C3*%
X94271248Y-74315000D02*
X94793752Y-74315000D01*
X94271248Y-75785000D02*
X94793752Y-75785000D01*
%TO.C,C5*%
X98721248Y-68295000D02*
X99243752Y-68295000D01*
X98721248Y-69765000D02*
X99243752Y-69765000D01*
%TO.C,C2*%
X94271248Y-71305000D02*
X94793752Y-71305000D01*
X94271248Y-72775000D02*
X94793752Y-72775000D01*
%TO.C,U1*%
X105032500Y-87820000D02*
X105032500Y-87345000D01*
X105507500Y-80600000D02*
X105032500Y-80600000D01*
X105507500Y-87820000D02*
X105032500Y-87820000D01*
X111777500Y-80600000D02*
X112252500Y-80600000D01*
X111777500Y-87820000D02*
X112252500Y-87820000D01*
X112252500Y-80600000D02*
X112252500Y-81075000D01*
X112252500Y-87820000D02*
X112252500Y-87345000D01*
%TO.C,SW1*%
X87732500Y-68300000D02*
X91032500Y-68300000D01*
X87732500Y-68600000D02*
X87732500Y-68300000D01*
X87732500Y-70800000D02*
X87732500Y-71100000D01*
X87732500Y-71100000D02*
X91032500Y-71100000D01*
X91032500Y-68300000D02*
X91032500Y-68600000D01*
X91032500Y-71100000D02*
X91032500Y-70800000D01*
%TO.C,R4*%
X84025436Y-77115000D02*
X84479564Y-77115000D01*
X84025436Y-78585000D02*
X84479564Y-78585000D01*
%TO.C,U8*%
X94757500Y-90305000D02*
X94757500Y-90565000D01*
X94757500Y-90565000D02*
X93082500Y-90565000D01*
X94757500Y-95755000D02*
X94757500Y-95495000D01*
X97482500Y-90305000D02*
X94757500Y-90305000D01*
X97482500Y-90305000D02*
X100207500Y-90305000D01*
X97482500Y-95755000D02*
X94757500Y-95755000D01*
X97482500Y-95755000D02*
X100207500Y-95755000D01*
X100207500Y-90305000D02*
X100207500Y-90565000D01*
X100207500Y-95755000D02*
X100207500Y-95495000D01*
%TO.C,Y3*%
X87082500Y-93400000D02*
X87082500Y-96700000D01*
X87082500Y-96700000D02*
X91082500Y-96700000D01*
%TO.C,D3*%
X109552500Y-94960000D02*
X107877500Y-94960000D01*
X109552500Y-94960000D02*
X110202500Y-94960000D01*
X109552500Y-98080000D02*
X108902500Y-98080000D01*
X109552500Y-98080000D02*
X110202500Y-98080000D01*
%TO.C,J2*%
X87452500Y-81570000D02*
X88782500Y-81570000D01*
X87452500Y-82900000D02*
X87452500Y-81570000D01*
X87452500Y-84170000D02*
X87452500Y-91850000D01*
X87452500Y-84170000D02*
X90112500Y-84170000D01*
X87452500Y-91850000D02*
X90112500Y-91850000D01*
X90112500Y-84170000D02*
X90112500Y-91850000D01*
%TO.C,SW3*%
X87732500Y-77000000D02*
X91032500Y-77000000D01*
X87732500Y-77300000D02*
X87732500Y-77000000D01*
X87732500Y-79500000D02*
X87732500Y-79800000D01*
X87732500Y-79800000D02*
X91032500Y-79800000D01*
X91032500Y-77000000D02*
X91032500Y-77300000D01*
X91032500Y-79800000D02*
X91032500Y-79500000D01*
%TO.C,R3*%
X84025436Y-74165000D02*
X84479564Y-74165000D01*
X84025436Y-75635000D02*
X84479564Y-75635000D01*
%TO.C,C19*%
X107621248Y-77325000D02*
X108143752Y-77325000D01*
X107621248Y-78795000D02*
X108143752Y-78795000D01*
%TO.C,R7*%
X84025436Y-85965000D02*
X84479564Y-85965000D01*
X84025436Y-87435000D02*
X84479564Y-87435000D01*
%TD*%
M02*
