%TF.GenerationSoftware,KiCad,Pcbnew,7.0.8*%
%TF.CreationDate,2023-10-22T22:03:38+02:00*%
%TF.ProjectId,Doodle Drive,446f6f64-6c65-4204-9472-6976652e6b69,1.0V*%
%TF.SameCoordinates,Original*%
%TF.FileFunction,Paste,Top*%
%TF.FilePolarity,Positive*%
%FSLAX46Y46*%
G04 Gerber Fmt 4.6, Leading zero omitted, Abs format (unit mm)*
G04 Created by KiCad (PCBNEW 7.0.8) date 2023-10-22 22:03:38*
%MOMM*%
%LPD*%
G01*
G04 APERTURE LIST*
G04 Aperture macros list*
%AMRoundRect*
0 Rectangle with rounded corners*
0 $1 Rounding radius*
0 $2 $3 $4 $5 $6 $7 $8 $9 X,Y pos of 4 corners*
0 Add a 4 corners polygon primitive as box body*
4,1,4,$2,$3,$4,$5,$6,$7,$8,$9,$2,$3,0*
0 Add four circle primitives for the rounded corners*
1,1,$1+$1,$2,$3*
1,1,$1+$1,$4,$5*
1,1,$1+$1,$6,$7*
1,1,$1+$1,$8,$9*
0 Add four rect primitives between the rounded corners*
20,1,$1+$1,$2,$3,$4,$5,0*
20,1,$1+$1,$4,$5,$6,$7,0*
20,1,$1+$1,$6,$7,$8,$9,0*
20,1,$1+$1,$8,$9,$2,$3,0*%
G04 Aperture macros list end*
%ADD10RoundRect,0.250000X-0.250000X-0.475000X0.250000X-0.475000X0.250000X0.475000X-0.250000X0.475000X0*%
%ADD11RoundRect,0.250000X-0.262500X-0.450000X0.262500X-0.450000X0.262500X0.450000X-0.262500X0.450000X0*%
%ADD12RoundRect,0.059000X-0.626000X0.236000X-0.626000X-0.236000X0.626000X-0.236000X0.626000X0.236000X0*%
%ADD13R,1.000000X1.800000*%
%ADD14RoundRect,0.243750X-0.243750X-0.456250X0.243750X-0.456250X0.243750X0.456250X-0.243750X0.456250X0*%
%ADD15R,0.600000X1.240000*%
%ADD16R,0.300000X1.240000*%
%ADD17RoundRect,0.218750X-0.218750X-0.381250X0.218750X-0.381250X0.218750X0.381250X-0.218750X0.381250X0*%
%ADD18R,0.900000X1.700000*%
%ADD19RoundRect,0.250000X-0.315000X-0.315000X0.315000X-0.315000X0.315000X0.315000X-0.315000X0.315000X0*%
%ADD20RoundRect,0.062500X-0.375000X-0.062500X0.375000X-0.062500X0.375000X0.062500X-0.375000X0.062500X0*%
%ADD21RoundRect,0.062500X-0.062500X-0.375000X0.062500X-0.375000X0.062500X0.375000X-0.062500X0.375000X0*%
%ADD22RoundRect,0.150000X-0.650000X-0.150000X0.650000X-0.150000X0.650000X0.150000X-0.650000X0.150000X0*%
%ADD23R,1.400000X1.200000*%
%ADD24RoundRect,0.150000X-0.587500X-0.150000X0.587500X-0.150000X0.587500X0.150000X-0.587500X0.150000X0*%
G04 APERTURE END LIST*
D10*
%TO.C,C10*%
X102482500Y-72040000D03*
X104382500Y-72040000D03*
%TD*%
%TO.C,C8*%
X98032500Y-78060000D03*
X99932500Y-78060000D03*
%TD*%
D11*
%TO.C,R8*%
X83340000Y-89650000D03*
X85165000Y-89650000D03*
%TD*%
D12*
%TO.C,U6*%
X108763312Y-91020000D03*
X108763312Y-91970000D03*
X108763312Y-92920000D03*
X111113312Y-92920000D03*
X111113312Y-91020000D03*
%TD*%
D11*
%TO.C,R2*%
X83340000Y-71950000D03*
X85165000Y-71950000D03*
%TD*%
%TO.C,R1*%
X83340000Y-69000000D03*
X85165000Y-69000000D03*
%TD*%
D10*
%TO.C,C6*%
X98032500Y-72040000D03*
X99932500Y-72040000D03*
%TD*%
D13*
%TO.C,Y1*%
X96082500Y-98090000D03*
X93582500Y-98090000D03*
%TD*%
D14*
%TO.C,D1*%
X103965000Y-91165000D03*
X105840000Y-91165000D03*
%TD*%
D10*
%TO.C,C4*%
X93582500Y-78060000D03*
X95482500Y-78060000D03*
%TD*%
%TO.C,C17*%
X106932500Y-75050000D03*
X108832500Y-75050000D03*
%TD*%
%TO.C,C9*%
X102482500Y-69030000D03*
X104382500Y-69030000D03*
%TD*%
D11*
%TO.C,R6*%
X83340000Y-83750000D03*
X85165000Y-83750000D03*
%TD*%
D10*
%TO.C,C12*%
X102482500Y-78060000D03*
X104382500Y-78060000D03*
%TD*%
D15*
%TO.C,J1*%
X94952500Y-81215000D03*
X95752500Y-81215000D03*
D16*
X96902500Y-81215000D03*
X97902500Y-81215000D03*
X98402500Y-81215000D03*
X99402500Y-81215000D03*
D15*
X100552500Y-81215000D03*
X101352500Y-81215000D03*
X101352500Y-81215000D03*
X100552500Y-81215000D03*
D16*
X99902500Y-81215000D03*
X98902500Y-81215000D03*
X97402500Y-81215000D03*
X96402500Y-81215000D03*
D15*
X95752500Y-81215000D03*
X94952500Y-81215000D03*
%TD*%
D10*
%TO.C,C13*%
X106932500Y-69030000D03*
X108832500Y-69030000D03*
%TD*%
D17*
%TO.C,L1*%
X98570000Y-97790000D03*
X100695000Y-97790000D03*
%TD*%
D10*
%TO.C,C11*%
X102482500Y-75050000D03*
X104382500Y-75050000D03*
%TD*%
%TO.C,C7*%
X98032500Y-75050000D03*
X99932500Y-75050000D03*
%TD*%
D14*
%TO.C,D2*%
X103965000Y-94205000D03*
X105840000Y-94205000D03*
%TD*%
D11*
%TO.C,R5*%
X83340000Y-80800000D03*
X85165000Y-80800000D03*
%TD*%
D10*
%TO.C,C1*%
X93582500Y-69030000D03*
X95482500Y-69030000D03*
%TD*%
%TO.C,C14*%
X106932500Y-72040000D03*
X108832500Y-72040000D03*
%TD*%
D18*
%TO.C,SW2*%
X87682500Y-74050000D03*
X91082500Y-74050000D03*
%TD*%
D10*
%TO.C,C3*%
X93582500Y-75050000D03*
X95482500Y-75050000D03*
%TD*%
%TO.C,C5*%
X98032500Y-69030000D03*
X99932500Y-69030000D03*
%TD*%
%TO.C,C2*%
X93582500Y-72040000D03*
X95482500Y-72040000D03*
%TD*%
D19*
%TO.C,U1*%
X106542500Y-82110000D03*
X106542500Y-83510000D03*
X106542500Y-84910000D03*
X106542500Y-86310000D03*
X107942500Y-82110000D03*
X107942500Y-83510000D03*
X107942500Y-84910000D03*
X107942500Y-86310000D03*
X109342500Y-82110000D03*
X109342500Y-83510000D03*
X109342500Y-84910000D03*
X109342500Y-86310000D03*
X110742500Y-82110000D03*
X110742500Y-83510000D03*
X110742500Y-84910000D03*
X110742500Y-86310000D03*
D20*
X105205000Y-81460000D03*
X105205000Y-81960000D03*
X105205000Y-82460000D03*
X105205000Y-82960000D03*
X105205000Y-83460000D03*
X105205000Y-83960000D03*
X105205000Y-84460000D03*
X105205000Y-84960000D03*
X105205000Y-85460000D03*
X105205000Y-85960000D03*
X105205000Y-86460000D03*
X105205000Y-86960000D03*
D21*
X105892500Y-87647500D03*
X106392500Y-87647500D03*
X106892500Y-87647500D03*
X107392500Y-87647500D03*
X107892500Y-87647500D03*
X108392500Y-87647500D03*
X108892500Y-87647500D03*
X109392500Y-87647500D03*
X109892500Y-87647500D03*
X110392500Y-87647500D03*
X110892500Y-87647500D03*
X111392500Y-87647500D03*
D20*
X112080000Y-86960000D03*
X112080000Y-86460000D03*
X112080000Y-85960000D03*
X112080000Y-85460000D03*
X112080000Y-84960000D03*
X112080000Y-84460000D03*
X112080000Y-83960000D03*
X112080000Y-83460000D03*
X112080000Y-82960000D03*
X112080000Y-82460000D03*
X112080000Y-81960000D03*
X112080000Y-81460000D03*
D21*
X111392500Y-80772500D03*
X110892500Y-80772500D03*
X110392500Y-80772500D03*
X109892500Y-80772500D03*
X109392500Y-80772500D03*
X108892500Y-80772500D03*
X108392500Y-80772500D03*
X107892500Y-80772500D03*
X107392500Y-80772500D03*
X106892500Y-80772500D03*
X106392500Y-80772500D03*
X105892500Y-80772500D03*
%TD*%
D18*
%TO.C,SW1*%
X87682500Y-69700000D03*
X91082500Y-69700000D03*
%TD*%
D11*
%TO.C,R4*%
X83340000Y-77850000D03*
X85165000Y-77850000D03*
%TD*%
D22*
%TO.C,U8*%
X93882500Y-91125000D03*
X93882500Y-92395000D03*
X93882500Y-93665000D03*
X93882500Y-94935000D03*
X101082500Y-94935000D03*
X101082500Y-93665000D03*
X101082500Y-92395000D03*
X101082500Y-91125000D03*
%TD*%
D23*
%TO.C,Y3*%
X87982500Y-95900000D03*
X90182500Y-95900000D03*
X90182500Y-94200000D03*
X87982500Y-94200000D03*
%TD*%
D24*
%TO.C,D3*%
X108615000Y-95570000D03*
X108615000Y-97470000D03*
X110490000Y-96520000D03*
%TD*%
D18*
%TO.C,SW3*%
X87682500Y-78400000D03*
X91082500Y-78400000D03*
%TD*%
D11*
%TO.C,R3*%
X83340000Y-74900000D03*
X85165000Y-74900000D03*
%TD*%
D10*
%TO.C,C19*%
X106932500Y-78060000D03*
X108832500Y-78060000D03*
%TD*%
D11*
%TO.C,R7*%
X83340000Y-86700000D03*
X85165000Y-86700000D03*
%TD*%
M02*
