%TF.GenerationSoftware,KiCad,Pcbnew,7.0.8*%
%TF.CreationDate,2023-10-22T22:03:38+02:00*%
%TF.ProjectId,Doodle Drive,446f6f64-6c65-4204-9472-6976652e6b69,1.0V*%
%TF.SameCoordinates,Original*%
%TF.FileFunction,Copper,L1,Top*%
%TF.FilePolarity,Positive*%
%FSLAX46Y46*%
G04 Gerber Fmt 4.6, Leading zero omitted, Abs format (unit mm)*
G04 Created by KiCad (PCBNEW 7.0.8) date 2023-10-22 22:03:38*
%MOMM*%
%LPD*%
G01*
G04 APERTURE LIST*
G04 Aperture macros list*
%AMRoundRect*
0 Rectangle with rounded corners*
0 $1 Rounding radius*
0 $2 $3 $4 $5 $6 $7 $8 $9 X,Y pos of 4 corners*
0 Add a 4 corners polygon primitive as box body*
4,1,4,$2,$3,$4,$5,$6,$7,$8,$9,$2,$3,0*
0 Add four circle primitives for the rounded corners*
1,1,$1+$1,$2,$3*
1,1,$1+$1,$4,$5*
1,1,$1+$1,$6,$7*
1,1,$1+$1,$8,$9*
0 Add four rect primitives between the rounded corners*
20,1,$1+$1,$2,$3,$4,$5,0*
20,1,$1+$1,$4,$5,$6,$7,0*
20,1,$1+$1,$6,$7,$8,$9,0*
20,1,$1+$1,$8,$9,$2,$3,0*%
G04 Aperture macros list end*
%TA.AperFunction,SMDPad,CuDef*%
%ADD10RoundRect,0.250000X-0.250000X-0.475000X0.250000X-0.475000X0.250000X0.475000X-0.250000X0.475000X0*%
%TD*%
%TA.AperFunction,SMDPad,CuDef*%
%ADD11RoundRect,0.250000X-0.262500X-0.450000X0.262500X-0.450000X0.262500X0.450000X-0.262500X0.450000X0*%
%TD*%
%TA.AperFunction,SMDPad,CuDef*%
%ADD12RoundRect,0.059000X-0.626000X0.236000X-0.626000X-0.236000X0.626000X-0.236000X0.626000X0.236000X0*%
%TD*%
%TA.AperFunction,SMDPad,CuDef*%
%ADD13R,1.000000X1.800000*%
%TD*%
%TA.AperFunction,SMDPad,CuDef*%
%ADD14RoundRect,0.243750X-0.243750X-0.456250X0.243750X-0.456250X0.243750X0.456250X-0.243750X0.456250X0*%
%TD*%
%TA.AperFunction,SMDPad,CuDef*%
%ADD15R,0.600000X1.240000*%
%TD*%
%TA.AperFunction,SMDPad,CuDef*%
%ADD16R,0.300000X1.240000*%
%TD*%
%TA.AperFunction,ComponentPad*%
%ADD17O,1.000000X2.100000*%
%TD*%
%TA.AperFunction,ComponentPad*%
%ADD18O,1.000000X1.800000*%
%TD*%
%TA.AperFunction,SMDPad,CuDef*%
%ADD19RoundRect,0.218750X-0.218750X-0.381250X0.218750X-0.381250X0.218750X0.381250X-0.218750X0.381250X0*%
%TD*%
%TA.AperFunction,SMDPad,CuDef*%
%ADD20R,0.900000X1.700000*%
%TD*%
%TA.AperFunction,SMDPad,CuDef*%
%ADD21RoundRect,0.062500X-0.375000X-0.062500X0.375000X-0.062500X0.375000X0.062500X-0.375000X0.062500X0*%
%TD*%
%TA.AperFunction,SMDPad,CuDef*%
%ADD22RoundRect,0.062500X-0.062500X-0.375000X0.062500X-0.375000X0.062500X0.375000X-0.062500X0.375000X0*%
%TD*%
%TA.AperFunction,SMDPad,CuDef*%
%ADD23R,5.600000X5.600000*%
%TD*%
%TA.AperFunction,SMDPad,CuDef*%
%ADD24RoundRect,0.150000X-0.650000X-0.150000X0.650000X-0.150000X0.650000X0.150000X-0.650000X0.150000X0*%
%TD*%
%TA.AperFunction,SMDPad,CuDef*%
%ADD25R,1.400000X1.200000*%
%TD*%
%TA.AperFunction,SMDPad,CuDef*%
%ADD26RoundRect,0.150000X-0.587500X-0.150000X0.587500X-0.150000X0.587500X0.150000X-0.587500X0.150000X0*%
%TD*%
%TA.AperFunction,ComponentPad*%
%ADD27R,1.700000X1.700000*%
%TD*%
%TA.AperFunction,ComponentPad*%
%ADD28O,1.700000X1.700000*%
%TD*%
G04 APERTURE END LIST*
D10*
%TO.P,C10,1*%
%TO.N,Net-(U1-PC15)*%
X102482500Y-72040000D03*
%TO.P,C10,2*%
%TO.N,GND*%
X104382500Y-72040000D03*
%TD*%
%TO.P,C8,1*%
%TO.N,GND*%
X98032500Y-78060000D03*
%TO.P,C8,2*%
%TO.N,+3V3*%
X99932500Y-78060000D03*
%TD*%
D11*
%TO.P,R8,1*%
%TO.N,Net-(D1-A)*%
X83340000Y-89650000D03*
%TO.P,R8,2*%
%TO.N,+3V3*%
X85165000Y-89650000D03*
%TD*%
D12*
%TO.P,U6,1,VIN*%
%TO.N,+5V*%
X108763312Y-91020000D03*
%TO.P,U6,2,GND*%
%TO.N,GND*%
X108763312Y-91970000D03*
%TO.P,U6,3,EN*%
%TO.N,+5V*%
X108763312Y-92920000D03*
%TO.P,U6,4,NC*%
%TO.N,GND*%
X111113312Y-92920000D03*
%TO.P,U6,5,VOUT*%
%TO.N,+3V3*%
X111113312Y-91020000D03*
%TD*%
D11*
%TO.P,R2,1*%
%TO.N,BOOT0*%
X83340000Y-71950000D03*
%TO.P,R2,2*%
%TO.N,GND*%
X85165000Y-71950000D03*
%TD*%
%TO.P,R1,1*%
%TO.N,GND*%
X83340000Y-69000000D03*
%TO.P,R1,2*%
%TO.N,PB2*%
X85165000Y-69000000D03*
%TD*%
D10*
%TO.P,C6,1*%
%TO.N,GND*%
X98032500Y-72040000D03*
%TO.P,C6,2*%
%TO.N,Net-(U1-PH0)*%
X99932500Y-72040000D03*
%TD*%
D13*
%TO.P,Y1,1,1*%
%TO.N,Net-(U1-PC15)*%
X96082500Y-98090000D03*
%TO.P,Y1,2,2*%
%TO.N,Net-(U1-PC14)*%
X93582500Y-98090000D03*
%TD*%
D14*
%TO.P,D1,1,K*%
%TO.N,PC13*%
X103965000Y-91165000D03*
%TO.P,D1,2,A*%
%TO.N,Net-(D1-A)*%
X105840000Y-91165000D03*
%TD*%
D10*
%TO.P,C4,1*%
%TO.N,GND*%
X93582500Y-78060000D03*
%TO.P,C4,2*%
%TO.N,VREF+*%
X95482500Y-78060000D03*
%TD*%
%TO.P,C17,1*%
%TO.N,+5V*%
X106932500Y-75050000D03*
%TO.P,C17,2*%
%TO.N,GND*%
X108832500Y-75050000D03*
%TD*%
%TO.P,C9,1*%
%TO.N,GND*%
X102482500Y-69030000D03*
%TO.P,C9,2*%
%TO.N,Net-(U1-PC14)*%
X104382500Y-69030000D03*
%TD*%
D11*
%TO.P,R6,1*%
%TO.N,PA11*%
X83340000Y-83750000D03*
%TO.P,R6,2*%
%TO.N,Net-(J1-D--PadA7)*%
X85165000Y-83750000D03*
%TD*%
D10*
%TO.P,C12,1*%
%TO.N,GND*%
X102482500Y-78060000D03*
%TO.P,C12,2*%
%TO.N,+3V3*%
X104382500Y-78060000D03*
%TD*%
D15*
%TO.P,J1,A1,GND*%
%TO.N,GND*%
X94952500Y-81215000D03*
%TO.P,J1,A4,VBUS*%
%TO.N,+5V*%
X95752500Y-81215000D03*
D16*
%TO.P,J1,A5,CC1*%
%TO.N,Net-(J1-CC1)*%
X96902500Y-81215000D03*
%TO.P,J1,A6,D+*%
%TO.N,Net-(J1-D+-PadA6)*%
X97902500Y-81215000D03*
%TO.P,J1,A7,D-*%
%TO.N,Net-(J1-D--PadA7)*%
X98402500Y-81215000D03*
%TO.P,J1,A8,SBU1*%
%TO.N,Net-(J1-SBU1)*%
X99402500Y-81215000D03*
D15*
%TO.P,J1,A9,VBUS*%
%TO.N,+5V*%
X100552500Y-81215000D03*
%TO.P,J1,A12,GND*%
%TO.N,GND*%
X101352500Y-81215000D03*
%TO.P,J1,B1,GND*%
X101352500Y-81215000D03*
%TO.P,J1,B4,VBUS*%
%TO.N,+5V*%
X100552500Y-81215000D03*
D16*
%TO.P,J1,B5,CC2*%
%TO.N,Net-(J1-CC1)*%
X99902500Y-81215000D03*
%TO.P,J1,B6,D+*%
%TO.N,Net-(J1-D+-PadA6)*%
X98902500Y-81215000D03*
%TO.P,J1,B7,D-*%
%TO.N,Net-(J1-D--PadA7)*%
X97402500Y-81215000D03*
%TO.P,J1,B8,SBU2*%
%TO.N,Net-(J1-SBU1)*%
X96402500Y-81215000D03*
D15*
%TO.P,J1,B9,VBUS*%
%TO.N,+5V*%
X95752500Y-81215000D03*
%TO.P,J1,B12,GND*%
%TO.N,GND*%
X94952500Y-81215000D03*
D17*
%TO.P,J1,S1,SHIELD*%
X93832500Y-81815000D03*
D18*
X93832500Y-86015000D03*
D17*
X102472500Y-81815000D03*
D18*
X102472500Y-86015000D03*
%TD*%
D10*
%TO.P,C13,1*%
%TO.N,GND*%
X106932500Y-69030000D03*
%TO.P,C13,2*%
%TO.N,+3V3*%
X108832500Y-69030000D03*
%TD*%
D19*
%TO.P,L1,1,1*%
%TO.N,+3V3*%
X98570000Y-97790000D03*
%TO.P,L1,2,2*%
%TO.N,VREF+*%
X100695000Y-97790000D03*
%TD*%
D10*
%TO.P,C11,1*%
%TO.N,+3V3*%
X102482500Y-75050000D03*
%TO.P,C11,2*%
%TO.N,GND*%
X104382500Y-75050000D03*
%TD*%
%TO.P,C7,1*%
%TO.N,GND*%
X98032500Y-75050000D03*
%TO.P,C7,2*%
%TO.N,Net-(U1-PH1)*%
X99932500Y-75050000D03*
%TD*%
D14*
%TO.P,D2,1,K*%
%TO.N,GND*%
X103965000Y-94205000D03*
%TO.P,D2,2,A*%
%TO.N,Net-(D2-A)*%
X105840000Y-94205000D03*
%TD*%
D11*
%TO.P,R5,1*%
%TO.N,Net-(J1-CC1)*%
X83340000Y-80800000D03*
%TO.P,R5,2*%
%TO.N,GND*%
X85165000Y-80800000D03*
%TD*%
D10*
%TO.P,C1,1*%
%TO.N,GND*%
X93582500Y-69030000D03*
%TO.P,C1,2*%
%TO.N,+3V3*%
X95482500Y-69030000D03*
%TD*%
%TO.P,C14,1*%
%TO.N,GND*%
X106932500Y-72040000D03*
%TO.P,C14,2*%
%TO.N,NRST*%
X108832500Y-72040000D03*
%TD*%
D20*
%TO.P,SW2,1*%
%TO.N,PA0*%
X87682500Y-74050000D03*
%TO.P,SW2,2*%
%TO.N,GND*%
X91082500Y-74050000D03*
%TD*%
D10*
%TO.P,C3,1*%
%TO.N,GND*%
X93582500Y-75050000D03*
%TO.P,C3,2*%
%TO.N,+3V3*%
X95482500Y-75050000D03*
%TD*%
%TO.P,C5,1*%
%TO.N,GND*%
X98032500Y-69030000D03*
%TO.P,C5,2*%
%TO.N,VBAT*%
X99932500Y-69030000D03*
%TD*%
%TO.P,C2,1*%
%TO.N,GND*%
X93582500Y-72040000D03*
%TO.P,C2,2*%
%TO.N,+5V*%
X95482500Y-72040000D03*
%TD*%
D21*
%TO.P,U1,1,VBAT*%
%TO.N,VBAT*%
X105205000Y-81460000D03*
%TO.P,U1,2,PC13*%
%TO.N,PC13*%
X105205000Y-81960000D03*
%TO.P,U1,3,PC14*%
%TO.N,Net-(U1-PC14)*%
X105205000Y-82460000D03*
%TO.P,U1,4,PC15*%
%TO.N,Net-(U1-PC15)*%
X105205000Y-82960000D03*
%TO.P,U1,5,PH0*%
%TO.N,Net-(U1-PH0)*%
X105205000Y-83460000D03*
%TO.P,U1,6,PH1*%
%TO.N,Net-(U1-PH1)*%
X105205000Y-83960000D03*
%TO.P,U1,7,NRST*%
%TO.N,NRST*%
X105205000Y-84460000D03*
%TO.P,U1,8,VSSA*%
%TO.N,GND*%
X105205000Y-84960000D03*
%TO.P,U1,9,VREF+*%
%TO.N,VREF+*%
X105205000Y-85460000D03*
%TO.P,U1,10,PA0*%
%TO.N,PA0*%
X105205000Y-85960000D03*
%TO.P,U1,11,PA1*%
%TO.N,PA1*%
X105205000Y-86460000D03*
%TO.P,U1,12,PA2*%
%TO.N,PA2*%
X105205000Y-86960000D03*
D22*
%TO.P,U1,13,PA3*%
%TO.N,PA3*%
X105892500Y-87647500D03*
%TO.P,U1,14,PA4*%
%TO.N,PA4*%
X106392500Y-87647500D03*
%TO.P,U1,15,PA5*%
%TO.N,PA5*%
X106892500Y-87647500D03*
%TO.P,U1,16,PA6*%
%TO.N,PA6*%
X107392500Y-87647500D03*
%TO.P,U1,17,PA7*%
%TO.N,PA7*%
X107892500Y-87647500D03*
%TO.P,U1,18,PB0*%
%TO.N,PB0*%
X108392500Y-87647500D03*
%TO.P,U1,19,PB1*%
%TO.N,PB1*%
X108892500Y-87647500D03*
%TO.P,U1,20,PB2*%
%TO.N,PB2*%
X109392500Y-87647500D03*
%TO.P,U1,21,PB10*%
%TO.N,PB10*%
X109892500Y-87647500D03*
%TO.P,U1,22,VCAP1*%
%TO.N,Net-(U1-VCAP1)*%
X110392500Y-87647500D03*
%TO.P,U1,23,VSS*%
%TO.N,GND*%
X110892500Y-87647500D03*
%TO.P,U1,24,VDD*%
%TO.N,+3V3*%
X111392500Y-87647500D03*
D21*
%TO.P,U1,25,PB12*%
%TO.N,PB11*%
X112080000Y-86960000D03*
%TO.P,U1,26,PB13*%
%TO.N,PB12*%
X112080000Y-86460000D03*
%TO.P,U1,27,PB14*%
%TO.N,PB13*%
X112080000Y-85960000D03*
%TO.P,U1,28,PB15*%
%TO.N,PB14*%
X112080000Y-85460000D03*
%TO.P,U1,29,PA8*%
%TO.N,PA8*%
X112080000Y-84960000D03*
%TO.P,U1,30,PA9*%
%TO.N,PA9*%
X112080000Y-84460000D03*
%TO.P,U1,31,PA10*%
%TO.N,PA10*%
X112080000Y-83960000D03*
%TO.P,U1,32,PA11*%
%TO.N,PA11*%
X112080000Y-83460000D03*
%TO.P,U1,33,PA12*%
%TO.N,PA12*%
X112080000Y-82960000D03*
%TO.P,U1,34,PA13*%
%TO.N,PA13*%
X112080000Y-82460000D03*
%TO.P,U1,35,VSS*%
%TO.N,GND*%
X112080000Y-81960000D03*
%TO.P,U1,36,VDD*%
%TO.N,+3V3*%
X112080000Y-81460000D03*
D22*
%TO.P,U1,37,PA14*%
%TO.N,PA14*%
X111392500Y-80772500D03*
%TO.P,U1,38,PA15*%
%TO.N,PA15*%
X110892500Y-80772500D03*
%TO.P,U1,39,PB3*%
%TO.N,PB3*%
X110392500Y-80772500D03*
%TO.P,U1,40,PB4*%
%TO.N,PB4*%
X109892500Y-80772500D03*
%TO.P,U1,41,PB5*%
%TO.N,PB5*%
X109392500Y-80772500D03*
%TO.P,U1,42,PB6*%
%TO.N,PB6*%
X108892500Y-80772500D03*
%TO.P,U1,43,PB7*%
%TO.N,PB7*%
X108392500Y-80772500D03*
%TO.P,U1,44,BOOT0*%
%TO.N,BOOT0*%
X107892500Y-80772500D03*
%TO.P,U1,45,PB8*%
%TO.N,PB8*%
X107392500Y-80772500D03*
%TO.P,U1,46,PB9*%
%TO.N,PB9*%
X106892500Y-80772500D03*
%TO.P,U1,47,VSS*%
%TO.N,GND*%
X106392500Y-80772500D03*
%TO.P,U1,48,VDD*%
%TO.N,+3V3*%
X105892500Y-80772500D03*
D23*
%TO.P,U1,49,VSS*%
%TO.N,GND*%
X108642500Y-84210000D03*
%TD*%
D20*
%TO.P,SW1,1*%
%TO.N,+3.3V*%
X87682500Y-69700000D03*
%TO.P,SW1,2*%
%TO.N,BOOT0*%
X91082500Y-69700000D03*
%TD*%
D11*
%TO.P,R4,1*%
%TO.N,NRST*%
X83340000Y-77850000D03*
%TO.P,R4,2*%
%TO.N,+3.3V*%
X85165000Y-77850000D03*
%TD*%
D24*
%TO.P,U8,1,~{CS}*%
%TO.N,PA4*%
X93882500Y-91125000D03*
%TO.P,U8,2,DO(IO1)*%
%TO.N,PB4*%
X93882500Y-92395000D03*
%TO.P,U8,3,IO2*%
%TO.N,+3V3*%
X93882500Y-93665000D03*
%TO.P,U8,4,GND*%
%TO.N,GND*%
X93882500Y-94935000D03*
%TO.P,U8,5,DI(IO0)*%
%TO.N,PA7*%
X101082500Y-94935000D03*
%TO.P,U8,6,CLK*%
%TO.N,PA5*%
X101082500Y-93665000D03*
%TO.P,U8,7,IO3*%
%TO.N,+3V3*%
X101082500Y-92395000D03*
%TO.P,U8,8,VCC*%
X101082500Y-91125000D03*
%TD*%
D25*
%TO.P,Y3,1,1*%
%TO.N,Net-(U1-PH1)*%
X87982500Y-95900000D03*
%TO.P,Y3,2,2*%
%TO.N,GND*%
X90182500Y-95900000D03*
%TO.P,Y3,3,3*%
%TO.N,Net-(U1-PH0)*%
X90182500Y-94200000D03*
%TO.P,Y3,4,4*%
%TO.N,GND*%
X87982500Y-94200000D03*
%TD*%
D26*
%TO.P,D3,1*%
%TO.N,VB*%
X108615000Y-95570000D03*
%TO.P,D3,2*%
%TO.N,+3V3*%
X108615000Y-97470000D03*
%TO.P,D3,3*%
%TO.N,VBAT*%
X110490000Y-96520000D03*
%TD*%
D27*
%TO.P,J2,1*%
%TO.N,+3V3*%
X88782500Y-82900000D03*
D28*
%TO.P,J2,2*%
%TO.N,PA13*%
X88782500Y-85440000D03*
%TO.P,J2,3*%
%TO.N,PA14*%
X88782500Y-87980000D03*
%TO.P,J2,4*%
%TO.N,GND*%
X88782500Y-90520000D03*
%TD*%
D20*
%TO.P,SW3,1*%
%TO.N,NRST*%
X87682500Y-78400000D03*
%TO.P,SW3,2*%
%TO.N,GND*%
X91082500Y-78400000D03*
%TD*%
D11*
%TO.P,R3,1*%
%TO.N,Net-(D2-A)*%
X83340000Y-74900000D03*
%TO.P,R3,2*%
%TO.N,+3V3*%
X85165000Y-74900000D03*
%TD*%
D10*
%TO.P,C19,1*%
%TO.N,Net-(U1-VCAP1)*%
X106932500Y-78060000D03*
%TO.P,C19,2*%
%TO.N,GND*%
X108832500Y-78060000D03*
%TD*%
D11*
%TO.P,R7,1*%
%TO.N,Net-(J1-D+-PadA6)*%
X83340000Y-86700000D03*
%TO.P,R7,2*%
%TO.N,PA12*%
X85165000Y-86700000D03*
%TD*%
M02*
