%TF.GenerationSoftware,KiCad,Pcbnew,7.0.8*%
%TF.CreationDate,2023-10-22T22:03:32+02:00*%
%TF.ProjectId,Doodle Drive,446f6f64-6c65-4204-9472-6976652e6b69,1.0V*%
%TF.SameCoordinates,Original*%
%TF.FileFunction,Drillmap*%
%TF.FilePolarity,Positive*%
%FSLAX45Y45*%
G04 Gerber Fmt 4.5, Leading zero omitted, Abs format (unit mm)*
G04 Created by KiCad (PCBNEW 7.0.8) date 2023-10-22 22:03:32*
%MOMM*%
%LPD*%
G01*
G04 APERTURE LIST*
%ADD10C,0.100000*%
%ADD11C,0.200000*%
%ADD12C,0.060000*%
G04 APERTURE END LIST*
D10*
X4572000Y-3429000D02*
X14478000Y-3429000D01*
X14478000Y-13335000D01*
X4572000Y-13335000D01*
X4572000Y-3429000D01*
D11*
D12*
X9353250Y-8151500D02*
X9413250Y-8211500D01*
X9413250Y-8151500D02*
X9353250Y-8211500D01*
D11*
X9353250Y-8126500D02*
X9353250Y-8236500D01*
X9353250Y-8236500D02*
G75*
G03*
X9413250Y-8236500I30000J0D01*
G01*
X9413250Y-8236500D02*
X9413250Y-8126500D01*
X9413250Y-8126500D02*
G75*
G03*
X9353250Y-8126500I-30000J0D01*
G01*
D12*
X9353250Y-8571500D02*
X9413250Y-8631500D01*
X9413250Y-8571500D02*
X9353250Y-8631500D01*
D11*
X9353250Y-8561500D02*
X9353250Y-8641500D01*
X9353250Y-8641500D02*
G75*
G03*
X9413250Y-8641500I30000J0D01*
G01*
X9413250Y-8641500D02*
X9413250Y-8561500D01*
X9413250Y-8561500D02*
G75*
G03*
X9353250Y-8561500I-30000J0D01*
G01*
D12*
X10217250Y-8151500D02*
X10277250Y-8211500D01*
X10277250Y-8151500D02*
X10217250Y-8211500D01*
D11*
X10217250Y-8126500D02*
X10217250Y-8236500D01*
X10217250Y-8236500D02*
G75*
G03*
X10277250Y-8236500I30000J0D01*
G01*
X10277250Y-8236500D02*
X10277250Y-8126500D01*
X10277250Y-8126500D02*
G75*
G03*
X10217250Y-8126500I-30000J0D01*
G01*
D12*
X10217250Y-8571500D02*
X10277250Y-8631500D01*
X10277250Y-8571500D02*
X10217250Y-8631500D01*
D11*
X10217250Y-8561500D02*
X10217250Y-8641500D01*
X10217250Y-8641500D02*
G75*
G03*
X10277250Y-8641500I30000J0D01*
G01*
X10277250Y-8641500D02*
X10277250Y-8561500D01*
X10277250Y-8561500D02*
G75*
G03*
X10217250Y-8561500I-30000J0D01*
G01*
D10*
X8928250Y-8290000D02*
G75*
G03*
X8928250Y-8290000I-50000J0D01*
G01*
X8928250Y-8544000D02*
G75*
G03*
X8928250Y-8544000I-50000J0D01*
G01*
X8928250Y-8798000D02*
G75*
G03*
X8928250Y-8798000I-50000J0D01*
G01*
X8928250Y-9052000D02*
G75*
G03*
X8928250Y-9052000I-50000J0D01*
G01*
D11*
X4827777Y-13651484D02*
X4827777Y-13451484D01*
X4827777Y-13451484D02*
X4875396Y-13451484D01*
X4875396Y-13451484D02*
X4903967Y-13461008D01*
X4903967Y-13461008D02*
X4923015Y-13480055D01*
X4923015Y-13480055D02*
X4932539Y-13499103D01*
X4932539Y-13499103D02*
X4942063Y-13537198D01*
X4942063Y-13537198D02*
X4942063Y-13565769D01*
X4942063Y-13565769D02*
X4932539Y-13603865D01*
X4932539Y-13603865D02*
X4923015Y-13622912D01*
X4923015Y-13622912D02*
X4903967Y-13641960D01*
X4903967Y-13641960D02*
X4875396Y-13651484D01*
X4875396Y-13651484D02*
X4827777Y-13651484D01*
X5027777Y-13651484D02*
X5027777Y-13518150D01*
X5027777Y-13556246D02*
X5037301Y-13537198D01*
X5037301Y-13537198D02*
X5046824Y-13527674D01*
X5046824Y-13527674D02*
X5065872Y-13518150D01*
X5065872Y-13518150D02*
X5084920Y-13518150D01*
X5151586Y-13651484D02*
X5151586Y-13518150D01*
X5151586Y-13451484D02*
X5142063Y-13461008D01*
X5142063Y-13461008D02*
X5151586Y-13470531D01*
X5151586Y-13470531D02*
X5161110Y-13461008D01*
X5161110Y-13461008D02*
X5151586Y-13451484D01*
X5151586Y-13451484D02*
X5151586Y-13470531D01*
X5275396Y-13651484D02*
X5256348Y-13641960D01*
X5256348Y-13641960D02*
X5246824Y-13622912D01*
X5246824Y-13622912D02*
X5246824Y-13451484D01*
X5380158Y-13651484D02*
X5361110Y-13641960D01*
X5361110Y-13641960D02*
X5351586Y-13622912D01*
X5351586Y-13622912D02*
X5351586Y-13451484D01*
X5608729Y-13651484D02*
X5608729Y-13451484D01*
X5608729Y-13451484D02*
X5675396Y-13594341D01*
X5675396Y-13594341D02*
X5742062Y-13451484D01*
X5742062Y-13451484D02*
X5742062Y-13651484D01*
X5923015Y-13651484D02*
X5923015Y-13546722D01*
X5923015Y-13546722D02*
X5913491Y-13527674D01*
X5913491Y-13527674D02*
X5894443Y-13518150D01*
X5894443Y-13518150D02*
X5856348Y-13518150D01*
X5856348Y-13518150D02*
X5837301Y-13527674D01*
X5923015Y-13641960D02*
X5903967Y-13651484D01*
X5903967Y-13651484D02*
X5856348Y-13651484D01*
X5856348Y-13651484D02*
X5837301Y-13641960D01*
X5837301Y-13641960D02*
X5827777Y-13622912D01*
X5827777Y-13622912D02*
X5827777Y-13603865D01*
X5827777Y-13603865D02*
X5837301Y-13584817D01*
X5837301Y-13584817D02*
X5856348Y-13575293D01*
X5856348Y-13575293D02*
X5903967Y-13575293D01*
X5903967Y-13575293D02*
X5923015Y-13565769D01*
X6018253Y-13518150D02*
X6018253Y-13718150D01*
X6018253Y-13527674D02*
X6037301Y-13518150D01*
X6037301Y-13518150D02*
X6075396Y-13518150D01*
X6075396Y-13518150D02*
X6094443Y-13527674D01*
X6094443Y-13527674D02*
X6103967Y-13537198D01*
X6103967Y-13537198D02*
X6113491Y-13556246D01*
X6113491Y-13556246D02*
X6113491Y-13613388D01*
X6113491Y-13613388D02*
X6103967Y-13632436D01*
X6103967Y-13632436D02*
X6094443Y-13641960D01*
X6094443Y-13641960D02*
X6075396Y-13651484D01*
X6075396Y-13651484D02*
X6037301Y-13651484D01*
X6037301Y-13651484D02*
X6018253Y-13641960D01*
X6199205Y-13632436D02*
X6208729Y-13641960D01*
X6208729Y-13641960D02*
X6199205Y-13651484D01*
X6199205Y-13651484D02*
X6189682Y-13641960D01*
X6189682Y-13641960D02*
X6199205Y-13632436D01*
X6199205Y-13632436D02*
X6199205Y-13651484D01*
X6199205Y-13527674D02*
X6208729Y-13537198D01*
X6208729Y-13537198D02*
X6199205Y-13546722D01*
X6199205Y-13546722D02*
X6189682Y-13537198D01*
X6189682Y-13537198D02*
X6199205Y-13527674D01*
X6199205Y-13527674D02*
X6199205Y-13546722D01*
D12*
X4507000Y-13950000D02*
X4567000Y-14010000D01*
X4567000Y-13950000D02*
X4507000Y-14010000D01*
D11*
X4865872Y-13871484D02*
X4884920Y-13871484D01*
X4884920Y-13871484D02*
X4903967Y-13881008D01*
X4903967Y-13881008D02*
X4913491Y-13890531D01*
X4913491Y-13890531D02*
X4923015Y-13909579D01*
X4923015Y-13909579D02*
X4932539Y-13947674D01*
X4932539Y-13947674D02*
X4932539Y-13995293D01*
X4932539Y-13995293D02*
X4923015Y-14033388D01*
X4923015Y-14033388D02*
X4913491Y-14052436D01*
X4913491Y-14052436D02*
X4903967Y-14061960D01*
X4903967Y-14061960D02*
X4884920Y-14071484D01*
X4884920Y-14071484D02*
X4865872Y-14071484D01*
X4865872Y-14071484D02*
X4846824Y-14061960D01*
X4846824Y-14061960D02*
X4837301Y-14052436D01*
X4837301Y-14052436D02*
X4827777Y-14033388D01*
X4827777Y-14033388D02*
X4818253Y-13995293D01*
X4818253Y-13995293D02*
X4818253Y-13947674D01*
X4818253Y-13947674D02*
X4827777Y-13909579D01*
X4827777Y-13909579D02*
X4837301Y-13890531D01*
X4837301Y-13890531D02*
X4846824Y-13881008D01*
X4846824Y-13881008D02*
X4865872Y-13871484D01*
X5018253Y-14052436D02*
X5027777Y-14061960D01*
X5027777Y-14061960D02*
X5018253Y-14071484D01*
X5018253Y-14071484D02*
X5008729Y-14061960D01*
X5008729Y-14061960D02*
X5018253Y-14052436D01*
X5018253Y-14052436D02*
X5018253Y-14071484D01*
X5199205Y-13871484D02*
X5161110Y-13871484D01*
X5161110Y-13871484D02*
X5142063Y-13881008D01*
X5142063Y-13881008D02*
X5132539Y-13890531D01*
X5132539Y-13890531D02*
X5113491Y-13919103D01*
X5113491Y-13919103D02*
X5103967Y-13957198D01*
X5103967Y-13957198D02*
X5103967Y-14033388D01*
X5103967Y-14033388D02*
X5113491Y-14052436D01*
X5113491Y-14052436D02*
X5123015Y-14061960D01*
X5123015Y-14061960D02*
X5142063Y-14071484D01*
X5142063Y-14071484D02*
X5180158Y-14071484D01*
X5180158Y-14071484D02*
X5199205Y-14061960D01*
X5199205Y-14061960D02*
X5208729Y-14052436D01*
X5208729Y-14052436D02*
X5218253Y-14033388D01*
X5218253Y-14033388D02*
X5218253Y-13985769D01*
X5218253Y-13985769D02*
X5208729Y-13966722D01*
X5208729Y-13966722D02*
X5199205Y-13957198D01*
X5199205Y-13957198D02*
X5180158Y-13947674D01*
X5180158Y-13947674D02*
X5142063Y-13947674D01*
X5142063Y-13947674D02*
X5123015Y-13957198D01*
X5123015Y-13957198D02*
X5113491Y-13966722D01*
X5113491Y-13966722D02*
X5103967Y-13985769D01*
X5342063Y-13871484D02*
X5361110Y-13871484D01*
X5361110Y-13871484D02*
X5380158Y-13881008D01*
X5380158Y-13881008D02*
X5389682Y-13890531D01*
X5389682Y-13890531D02*
X5399205Y-13909579D01*
X5399205Y-13909579D02*
X5408729Y-13947674D01*
X5408729Y-13947674D02*
X5408729Y-13995293D01*
X5408729Y-13995293D02*
X5399205Y-14033388D01*
X5399205Y-14033388D02*
X5389682Y-14052436D01*
X5389682Y-14052436D02*
X5380158Y-14061960D01*
X5380158Y-14061960D02*
X5361110Y-14071484D01*
X5361110Y-14071484D02*
X5342063Y-14071484D01*
X5342063Y-14071484D02*
X5323015Y-14061960D01*
X5323015Y-14061960D02*
X5313491Y-14052436D01*
X5313491Y-14052436D02*
X5303967Y-14033388D01*
X5303967Y-14033388D02*
X5294444Y-13995293D01*
X5294444Y-13995293D02*
X5294444Y-13947674D01*
X5294444Y-13947674D02*
X5303967Y-13909579D01*
X5303967Y-13909579D02*
X5313491Y-13890531D01*
X5313491Y-13890531D02*
X5323015Y-13881008D01*
X5323015Y-13881008D02*
X5342063Y-13871484D01*
X5532539Y-13871484D02*
X5551586Y-13871484D01*
X5551586Y-13871484D02*
X5570634Y-13881008D01*
X5570634Y-13881008D02*
X5580158Y-13890531D01*
X5580158Y-13890531D02*
X5589682Y-13909579D01*
X5589682Y-13909579D02*
X5599205Y-13947674D01*
X5599205Y-13947674D02*
X5599205Y-13995293D01*
X5599205Y-13995293D02*
X5589682Y-14033388D01*
X5589682Y-14033388D02*
X5580158Y-14052436D01*
X5580158Y-14052436D02*
X5570634Y-14061960D01*
X5570634Y-14061960D02*
X5551586Y-14071484D01*
X5551586Y-14071484D02*
X5532539Y-14071484D01*
X5532539Y-14071484D02*
X5513491Y-14061960D01*
X5513491Y-14061960D02*
X5503967Y-14052436D01*
X5503967Y-14052436D02*
X5494444Y-14033388D01*
X5494444Y-14033388D02*
X5484920Y-13995293D01*
X5484920Y-13995293D02*
X5484920Y-13947674D01*
X5484920Y-13947674D02*
X5494444Y-13909579D01*
X5494444Y-13909579D02*
X5503967Y-13890531D01*
X5503967Y-13890531D02*
X5513491Y-13881008D01*
X5513491Y-13881008D02*
X5532539Y-13871484D01*
X5684920Y-14071484D02*
X5684920Y-13938150D01*
X5684920Y-13957198D02*
X5694443Y-13947674D01*
X5694443Y-13947674D02*
X5713491Y-13938150D01*
X5713491Y-13938150D02*
X5742063Y-13938150D01*
X5742063Y-13938150D02*
X5761110Y-13947674D01*
X5761110Y-13947674D02*
X5770634Y-13966722D01*
X5770634Y-13966722D02*
X5770634Y-14071484D01*
X5770634Y-13966722D02*
X5780158Y-13947674D01*
X5780158Y-13947674D02*
X5799205Y-13938150D01*
X5799205Y-13938150D02*
X5827777Y-13938150D01*
X5827777Y-13938150D02*
X5846824Y-13947674D01*
X5846824Y-13947674D02*
X5856348Y-13966722D01*
X5856348Y-13966722D02*
X5856348Y-14071484D01*
X5951586Y-14071484D02*
X5951586Y-13938150D01*
X5951586Y-13957198D02*
X5961110Y-13947674D01*
X5961110Y-13947674D02*
X5980158Y-13938150D01*
X5980158Y-13938150D02*
X6008729Y-13938150D01*
X6008729Y-13938150D02*
X6027777Y-13947674D01*
X6027777Y-13947674D02*
X6037301Y-13966722D01*
X6037301Y-13966722D02*
X6037301Y-14071484D01*
X6037301Y-13966722D02*
X6046824Y-13947674D01*
X6046824Y-13947674D02*
X6065872Y-13938150D01*
X6065872Y-13938150D02*
X6094443Y-13938150D01*
X6094443Y-13938150D02*
X6113491Y-13947674D01*
X6113491Y-13947674D02*
X6123015Y-13966722D01*
X6123015Y-13966722D02*
X6123015Y-14071484D01*
X6513491Y-13861960D02*
X6342063Y-14119103D01*
X6770634Y-13871484D02*
X6789682Y-13871484D01*
X6789682Y-13871484D02*
X6808729Y-13881008D01*
X6808729Y-13881008D02*
X6818253Y-13890531D01*
X6818253Y-13890531D02*
X6827777Y-13909579D01*
X6827777Y-13909579D02*
X6837301Y-13947674D01*
X6837301Y-13947674D02*
X6837301Y-13995293D01*
X6837301Y-13995293D02*
X6827777Y-14033388D01*
X6827777Y-14033388D02*
X6818253Y-14052436D01*
X6818253Y-14052436D02*
X6808729Y-14061960D01*
X6808729Y-14061960D02*
X6789682Y-14071484D01*
X6789682Y-14071484D02*
X6770634Y-14071484D01*
X6770634Y-14071484D02*
X6751586Y-14061960D01*
X6751586Y-14061960D02*
X6742063Y-14052436D01*
X6742063Y-14052436D02*
X6732539Y-14033388D01*
X6732539Y-14033388D02*
X6723015Y-13995293D01*
X6723015Y-13995293D02*
X6723015Y-13947674D01*
X6723015Y-13947674D02*
X6732539Y-13909579D01*
X6732539Y-13909579D02*
X6742063Y-13890531D01*
X6742063Y-13890531D02*
X6751586Y-13881008D01*
X6751586Y-13881008D02*
X6770634Y-13871484D01*
X6923015Y-14052436D02*
X6932539Y-14061960D01*
X6932539Y-14061960D02*
X6923015Y-14071484D01*
X6923015Y-14071484D02*
X6913491Y-14061960D01*
X6913491Y-14061960D02*
X6923015Y-14052436D01*
X6923015Y-14052436D02*
X6923015Y-14071484D01*
X7056348Y-13871484D02*
X7075396Y-13871484D01*
X7075396Y-13871484D02*
X7094444Y-13881008D01*
X7094444Y-13881008D02*
X7103967Y-13890531D01*
X7103967Y-13890531D02*
X7113491Y-13909579D01*
X7113491Y-13909579D02*
X7123015Y-13947674D01*
X7123015Y-13947674D02*
X7123015Y-13995293D01*
X7123015Y-13995293D02*
X7113491Y-14033388D01*
X7113491Y-14033388D02*
X7103967Y-14052436D01*
X7103967Y-14052436D02*
X7094444Y-14061960D01*
X7094444Y-14061960D02*
X7075396Y-14071484D01*
X7075396Y-14071484D02*
X7056348Y-14071484D01*
X7056348Y-14071484D02*
X7037301Y-14061960D01*
X7037301Y-14061960D02*
X7027777Y-14052436D01*
X7027777Y-14052436D02*
X7018253Y-14033388D01*
X7018253Y-14033388D02*
X7008729Y-13995293D01*
X7008729Y-13995293D02*
X7008729Y-13947674D01*
X7008729Y-13947674D02*
X7018253Y-13909579D01*
X7018253Y-13909579D02*
X7027777Y-13890531D01*
X7027777Y-13890531D02*
X7037301Y-13881008D01*
X7037301Y-13881008D02*
X7056348Y-13871484D01*
X7199206Y-13890531D02*
X7208729Y-13881008D01*
X7208729Y-13881008D02*
X7227777Y-13871484D01*
X7227777Y-13871484D02*
X7275396Y-13871484D01*
X7275396Y-13871484D02*
X7294444Y-13881008D01*
X7294444Y-13881008D02*
X7303967Y-13890531D01*
X7303967Y-13890531D02*
X7313491Y-13909579D01*
X7313491Y-13909579D02*
X7313491Y-13928627D01*
X7313491Y-13928627D02*
X7303967Y-13957198D01*
X7303967Y-13957198D02*
X7189682Y-14071484D01*
X7189682Y-14071484D02*
X7313491Y-14071484D01*
X7380158Y-13871484D02*
X7503967Y-13871484D01*
X7503967Y-13871484D02*
X7437301Y-13947674D01*
X7437301Y-13947674D02*
X7465872Y-13947674D01*
X7465872Y-13947674D02*
X7484920Y-13957198D01*
X7484920Y-13957198D02*
X7494444Y-13966722D01*
X7494444Y-13966722D02*
X7503967Y-13985769D01*
X7503967Y-13985769D02*
X7503967Y-14033388D01*
X7503967Y-14033388D02*
X7494444Y-14052436D01*
X7494444Y-14052436D02*
X7484920Y-14061960D01*
X7484920Y-14061960D02*
X7465872Y-14071484D01*
X7465872Y-14071484D02*
X7408729Y-14071484D01*
X7408729Y-14071484D02*
X7389682Y-14061960D01*
X7389682Y-14061960D02*
X7380158Y-14052436D01*
X7675396Y-13871484D02*
X7637301Y-13871484D01*
X7637301Y-13871484D02*
X7618253Y-13881008D01*
X7618253Y-13881008D02*
X7608729Y-13890531D01*
X7608729Y-13890531D02*
X7589682Y-13919103D01*
X7589682Y-13919103D02*
X7580158Y-13957198D01*
X7580158Y-13957198D02*
X7580158Y-14033388D01*
X7580158Y-14033388D02*
X7589682Y-14052436D01*
X7589682Y-14052436D02*
X7599206Y-14061960D01*
X7599206Y-14061960D02*
X7618253Y-14071484D01*
X7618253Y-14071484D02*
X7656348Y-14071484D01*
X7656348Y-14071484D02*
X7675396Y-14061960D01*
X7675396Y-14061960D02*
X7684920Y-14052436D01*
X7684920Y-14052436D02*
X7694444Y-14033388D01*
X7694444Y-14033388D02*
X7694444Y-13985769D01*
X7694444Y-13985769D02*
X7684920Y-13966722D01*
X7684920Y-13966722D02*
X7675396Y-13957198D01*
X7675396Y-13957198D02*
X7656348Y-13947674D01*
X7656348Y-13947674D02*
X7618253Y-13947674D01*
X7618253Y-13947674D02*
X7599206Y-13957198D01*
X7599206Y-13957198D02*
X7589682Y-13966722D01*
X7589682Y-13966722D02*
X7580158Y-13985769D01*
X7770634Y-13871484D02*
X7770634Y-13909579D01*
X7846825Y-13871484D02*
X7846825Y-13909579D01*
X8142063Y-14147674D02*
X8132539Y-14138150D01*
X8132539Y-14138150D02*
X8113491Y-14109579D01*
X8113491Y-14109579D02*
X8103968Y-14090531D01*
X8103968Y-14090531D02*
X8094444Y-14061960D01*
X8094444Y-14061960D02*
X8084920Y-14014341D01*
X8084920Y-14014341D02*
X8084920Y-13976246D01*
X8084920Y-13976246D02*
X8094444Y-13928627D01*
X8094444Y-13928627D02*
X8103968Y-13900055D01*
X8103968Y-13900055D02*
X8113491Y-13881008D01*
X8113491Y-13881008D02*
X8132539Y-13852436D01*
X8132539Y-13852436D02*
X8142063Y-13842912D01*
X8256348Y-13871484D02*
X8275396Y-13871484D01*
X8275396Y-13871484D02*
X8294444Y-13881008D01*
X8294444Y-13881008D02*
X8303968Y-13890531D01*
X8303968Y-13890531D02*
X8313491Y-13909579D01*
X8313491Y-13909579D02*
X8323015Y-13947674D01*
X8323015Y-13947674D02*
X8323015Y-13995293D01*
X8323015Y-13995293D02*
X8313491Y-14033388D01*
X8313491Y-14033388D02*
X8303968Y-14052436D01*
X8303968Y-14052436D02*
X8294444Y-14061960D01*
X8294444Y-14061960D02*
X8275396Y-14071484D01*
X8275396Y-14071484D02*
X8256348Y-14071484D01*
X8256348Y-14071484D02*
X8237301Y-14061960D01*
X8237301Y-14061960D02*
X8227777Y-14052436D01*
X8227777Y-14052436D02*
X8218253Y-14033388D01*
X8218253Y-14033388D02*
X8208729Y-13995293D01*
X8208729Y-13995293D02*
X8208729Y-13947674D01*
X8208729Y-13947674D02*
X8218253Y-13909579D01*
X8218253Y-13909579D02*
X8227777Y-13890531D01*
X8227777Y-13890531D02*
X8237301Y-13881008D01*
X8237301Y-13881008D02*
X8256348Y-13871484D01*
X8561111Y-14071484D02*
X8561111Y-13871484D01*
X8646825Y-14071484D02*
X8646825Y-13966722D01*
X8646825Y-13966722D02*
X8637301Y-13947674D01*
X8637301Y-13947674D02*
X8618253Y-13938150D01*
X8618253Y-13938150D02*
X8589682Y-13938150D01*
X8589682Y-13938150D02*
X8570634Y-13947674D01*
X8570634Y-13947674D02*
X8561111Y-13957198D01*
X8770634Y-14071484D02*
X8751587Y-14061960D01*
X8751587Y-14061960D02*
X8742063Y-14052436D01*
X8742063Y-14052436D02*
X8732539Y-14033388D01*
X8732539Y-14033388D02*
X8732539Y-13976246D01*
X8732539Y-13976246D02*
X8742063Y-13957198D01*
X8742063Y-13957198D02*
X8751587Y-13947674D01*
X8751587Y-13947674D02*
X8770634Y-13938150D01*
X8770634Y-13938150D02*
X8799206Y-13938150D01*
X8799206Y-13938150D02*
X8818253Y-13947674D01*
X8818253Y-13947674D02*
X8827777Y-13957198D01*
X8827777Y-13957198D02*
X8837301Y-13976246D01*
X8837301Y-13976246D02*
X8837301Y-14033388D01*
X8837301Y-14033388D02*
X8827777Y-14052436D01*
X8827777Y-14052436D02*
X8818253Y-14061960D01*
X8818253Y-14061960D02*
X8799206Y-14071484D01*
X8799206Y-14071484D02*
X8770634Y-14071484D01*
X8951587Y-14071484D02*
X8932539Y-14061960D01*
X8932539Y-14061960D02*
X8923015Y-14042912D01*
X8923015Y-14042912D02*
X8923015Y-13871484D01*
X9103968Y-14061960D02*
X9084920Y-14071484D01*
X9084920Y-14071484D02*
X9046825Y-14071484D01*
X9046825Y-14071484D02*
X9027777Y-14061960D01*
X9027777Y-14061960D02*
X9018253Y-14042912D01*
X9018253Y-14042912D02*
X9018253Y-13966722D01*
X9018253Y-13966722D02*
X9027777Y-13947674D01*
X9027777Y-13947674D02*
X9046825Y-13938150D01*
X9046825Y-13938150D02*
X9084920Y-13938150D01*
X9084920Y-13938150D02*
X9103968Y-13947674D01*
X9103968Y-13947674D02*
X9113492Y-13966722D01*
X9113492Y-13966722D02*
X9113492Y-13985769D01*
X9113492Y-13985769D02*
X9018253Y-14004817D01*
X9189682Y-14061960D02*
X9208730Y-14071484D01*
X9208730Y-14071484D02*
X9246825Y-14071484D01*
X9246825Y-14071484D02*
X9265873Y-14061960D01*
X9265873Y-14061960D02*
X9275396Y-14042912D01*
X9275396Y-14042912D02*
X9275396Y-14033388D01*
X9275396Y-14033388D02*
X9265873Y-14014341D01*
X9265873Y-14014341D02*
X9246825Y-14004817D01*
X9246825Y-14004817D02*
X9218253Y-14004817D01*
X9218253Y-14004817D02*
X9199206Y-13995293D01*
X9199206Y-13995293D02*
X9189682Y-13976246D01*
X9189682Y-13976246D02*
X9189682Y-13966722D01*
X9189682Y-13966722D02*
X9199206Y-13947674D01*
X9199206Y-13947674D02*
X9218253Y-13938150D01*
X9218253Y-13938150D02*
X9246825Y-13938150D01*
X9246825Y-13938150D02*
X9265873Y-13947674D01*
X9513492Y-13995293D02*
X9665873Y-13995293D01*
X9589682Y-14071484D02*
X9589682Y-13919103D01*
X9999206Y-13938150D02*
X9999206Y-14071484D01*
X9951587Y-13861960D02*
X9903968Y-14004817D01*
X9903968Y-14004817D02*
X10027777Y-14004817D01*
X10246825Y-14061960D02*
X10265873Y-14071484D01*
X10265873Y-14071484D02*
X10303968Y-14071484D01*
X10303968Y-14071484D02*
X10323016Y-14061960D01*
X10323016Y-14061960D02*
X10332539Y-14042912D01*
X10332539Y-14042912D02*
X10332539Y-14033388D01*
X10332539Y-14033388D02*
X10323016Y-14014341D01*
X10323016Y-14014341D02*
X10303968Y-14004817D01*
X10303968Y-14004817D02*
X10275396Y-14004817D01*
X10275396Y-14004817D02*
X10256349Y-13995293D01*
X10256349Y-13995293D02*
X10246825Y-13976246D01*
X10246825Y-13976246D02*
X10246825Y-13966722D01*
X10246825Y-13966722D02*
X10256349Y-13947674D01*
X10256349Y-13947674D02*
X10275396Y-13938150D01*
X10275396Y-13938150D02*
X10303968Y-13938150D01*
X10303968Y-13938150D02*
X10323016Y-13947674D01*
X10446825Y-14071484D02*
X10427777Y-14061960D01*
X10427777Y-14061960D02*
X10418254Y-14042912D01*
X10418254Y-14042912D02*
X10418254Y-13871484D01*
X10551587Y-14071484D02*
X10532539Y-14061960D01*
X10532539Y-14061960D02*
X10523016Y-14052436D01*
X10523016Y-14052436D02*
X10513492Y-14033388D01*
X10513492Y-14033388D02*
X10513492Y-13976246D01*
X10513492Y-13976246D02*
X10523016Y-13957198D01*
X10523016Y-13957198D02*
X10532539Y-13947674D01*
X10532539Y-13947674D02*
X10551587Y-13938150D01*
X10551587Y-13938150D02*
X10580158Y-13938150D01*
X10580158Y-13938150D02*
X10599206Y-13947674D01*
X10599206Y-13947674D02*
X10608730Y-13957198D01*
X10608730Y-13957198D02*
X10618254Y-13976246D01*
X10618254Y-13976246D02*
X10618254Y-14033388D01*
X10618254Y-14033388D02*
X10608730Y-14052436D01*
X10608730Y-14052436D02*
X10599206Y-14061960D01*
X10599206Y-14061960D02*
X10580158Y-14071484D01*
X10580158Y-14071484D02*
X10551587Y-14071484D01*
X10675397Y-13938150D02*
X10751587Y-13938150D01*
X10703968Y-13871484D02*
X10703968Y-14042912D01*
X10703968Y-14042912D02*
X10713492Y-14061960D01*
X10713492Y-14061960D02*
X10732539Y-14071484D01*
X10732539Y-14071484D02*
X10751587Y-14071484D01*
X10808730Y-14061960D02*
X10827777Y-14071484D01*
X10827777Y-14071484D02*
X10865873Y-14071484D01*
X10865873Y-14071484D02*
X10884920Y-14061960D01*
X10884920Y-14061960D02*
X10894444Y-14042912D01*
X10894444Y-14042912D02*
X10894444Y-14033388D01*
X10894444Y-14033388D02*
X10884920Y-14014341D01*
X10884920Y-14014341D02*
X10865873Y-14004817D01*
X10865873Y-14004817D02*
X10837301Y-14004817D01*
X10837301Y-14004817D02*
X10818254Y-13995293D01*
X10818254Y-13995293D02*
X10808730Y-13976246D01*
X10808730Y-13976246D02*
X10808730Y-13966722D01*
X10808730Y-13966722D02*
X10818254Y-13947674D01*
X10818254Y-13947674D02*
X10837301Y-13938150D01*
X10837301Y-13938150D02*
X10865873Y-13938150D01*
X10865873Y-13938150D02*
X10884920Y-13947674D01*
X10961111Y-14147674D02*
X10970635Y-14138150D01*
X10970635Y-14138150D02*
X10989682Y-14109579D01*
X10989682Y-14109579D02*
X10999206Y-14090531D01*
X10999206Y-14090531D02*
X11008730Y-14061960D01*
X11008730Y-14061960D02*
X11018254Y-14014341D01*
X11018254Y-14014341D02*
X11018254Y-13976246D01*
X11018254Y-13976246D02*
X11008730Y-13928627D01*
X11008730Y-13928627D02*
X10999206Y-13900055D01*
X10999206Y-13900055D02*
X10989682Y-13881008D01*
X10989682Y-13881008D02*
X10970635Y-13852436D01*
X10970635Y-13852436D02*
X10961111Y-13842912D01*
D10*
X4567000Y-14244000D02*
G75*
G03*
X4567000Y-14244000I-50000J0D01*
G01*
D11*
X4932539Y-14335484D02*
X4818253Y-14335484D01*
X4875396Y-14335484D02*
X4875396Y-14135484D01*
X4875396Y-14135484D02*
X4856348Y-14164055D01*
X4856348Y-14164055D02*
X4837301Y-14183103D01*
X4837301Y-14183103D02*
X4818253Y-14192627D01*
X5018253Y-14316436D02*
X5027777Y-14325960D01*
X5027777Y-14325960D02*
X5018253Y-14335484D01*
X5018253Y-14335484D02*
X5008729Y-14325960D01*
X5008729Y-14325960D02*
X5018253Y-14316436D01*
X5018253Y-14316436D02*
X5018253Y-14335484D01*
X5151586Y-14135484D02*
X5170634Y-14135484D01*
X5170634Y-14135484D02*
X5189682Y-14145008D01*
X5189682Y-14145008D02*
X5199205Y-14154531D01*
X5199205Y-14154531D02*
X5208729Y-14173579D01*
X5208729Y-14173579D02*
X5218253Y-14211674D01*
X5218253Y-14211674D02*
X5218253Y-14259293D01*
X5218253Y-14259293D02*
X5208729Y-14297388D01*
X5208729Y-14297388D02*
X5199205Y-14316436D01*
X5199205Y-14316436D02*
X5189682Y-14325960D01*
X5189682Y-14325960D02*
X5170634Y-14335484D01*
X5170634Y-14335484D02*
X5151586Y-14335484D01*
X5151586Y-14335484D02*
X5132539Y-14325960D01*
X5132539Y-14325960D02*
X5123015Y-14316436D01*
X5123015Y-14316436D02*
X5113491Y-14297388D01*
X5113491Y-14297388D02*
X5103967Y-14259293D01*
X5103967Y-14259293D02*
X5103967Y-14211674D01*
X5103967Y-14211674D02*
X5113491Y-14173579D01*
X5113491Y-14173579D02*
X5123015Y-14154531D01*
X5123015Y-14154531D02*
X5132539Y-14145008D01*
X5132539Y-14145008D02*
X5151586Y-14135484D01*
X5342063Y-14135484D02*
X5361110Y-14135484D01*
X5361110Y-14135484D02*
X5380158Y-14145008D01*
X5380158Y-14145008D02*
X5389682Y-14154531D01*
X5389682Y-14154531D02*
X5399205Y-14173579D01*
X5399205Y-14173579D02*
X5408729Y-14211674D01*
X5408729Y-14211674D02*
X5408729Y-14259293D01*
X5408729Y-14259293D02*
X5399205Y-14297388D01*
X5399205Y-14297388D02*
X5389682Y-14316436D01*
X5389682Y-14316436D02*
X5380158Y-14325960D01*
X5380158Y-14325960D02*
X5361110Y-14335484D01*
X5361110Y-14335484D02*
X5342063Y-14335484D01*
X5342063Y-14335484D02*
X5323015Y-14325960D01*
X5323015Y-14325960D02*
X5313491Y-14316436D01*
X5313491Y-14316436D02*
X5303967Y-14297388D01*
X5303967Y-14297388D02*
X5294444Y-14259293D01*
X5294444Y-14259293D02*
X5294444Y-14211674D01*
X5294444Y-14211674D02*
X5303967Y-14173579D01*
X5303967Y-14173579D02*
X5313491Y-14154531D01*
X5313491Y-14154531D02*
X5323015Y-14145008D01*
X5323015Y-14145008D02*
X5342063Y-14135484D01*
X5532539Y-14135484D02*
X5551586Y-14135484D01*
X5551586Y-14135484D02*
X5570634Y-14145008D01*
X5570634Y-14145008D02*
X5580158Y-14154531D01*
X5580158Y-14154531D02*
X5589682Y-14173579D01*
X5589682Y-14173579D02*
X5599205Y-14211674D01*
X5599205Y-14211674D02*
X5599205Y-14259293D01*
X5599205Y-14259293D02*
X5589682Y-14297388D01*
X5589682Y-14297388D02*
X5580158Y-14316436D01*
X5580158Y-14316436D02*
X5570634Y-14325960D01*
X5570634Y-14325960D02*
X5551586Y-14335484D01*
X5551586Y-14335484D02*
X5532539Y-14335484D01*
X5532539Y-14335484D02*
X5513491Y-14325960D01*
X5513491Y-14325960D02*
X5503967Y-14316436D01*
X5503967Y-14316436D02*
X5494444Y-14297388D01*
X5494444Y-14297388D02*
X5484920Y-14259293D01*
X5484920Y-14259293D02*
X5484920Y-14211674D01*
X5484920Y-14211674D02*
X5494444Y-14173579D01*
X5494444Y-14173579D02*
X5503967Y-14154531D01*
X5503967Y-14154531D02*
X5513491Y-14145008D01*
X5513491Y-14145008D02*
X5532539Y-14135484D01*
X5684920Y-14335484D02*
X5684920Y-14202150D01*
X5684920Y-14221198D02*
X5694443Y-14211674D01*
X5694443Y-14211674D02*
X5713491Y-14202150D01*
X5713491Y-14202150D02*
X5742063Y-14202150D01*
X5742063Y-14202150D02*
X5761110Y-14211674D01*
X5761110Y-14211674D02*
X5770634Y-14230722D01*
X5770634Y-14230722D02*
X5770634Y-14335484D01*
X5770634Y-14230722D02*
X5780158Y-14211674D01*
X5780158Y-14211674D02*
X5799205Y-14202150D01*
X5799205Y-14202150D02*
X5827777Y-14202150D01*
X5827777Y-14202150D02*
X5846824Y-14211674D01*
X5846824Y-14211674D02*
X5856348Y-14230722D01*
X5856348Y-14230722D02*
X5856348Y-14335484D01*
X5951586Y-14335484D02*
X5951586Y-14202150D01*
X5951586Y-14221198D02*
X5961110Y-14211674D01*
X5961110Y-14211674D02*
X5980158Y-14202150D01*
X5980158Y-14202150D02*
X6008729Y-14202150D01*
X6008729Y-14202150D02*
X6027777Y-14211674D01*
X6027777Y-14211674D02*
X6037301Y-14230722D01*
X6037301Y-14230722D02*
X6037301Y-14335484D01*
X6037301Y-14230722D02*
X6046824Y-14211674D01*
X6046824Y-14211674D02*
X6065872Y-14202150D01*
X6065872Y-14202150D02*
X6094443Y-14202150D01*
X6094443Y-14202150D02*
X6113491Y-14211674D01*
X6113491Y-14211674D02*
X6123015Y-14230722D01*
X6123015Y-14230722D02*
X6123015Y-14335484D01*
X6513491Y-14125960D02*
X6342063Y-14383103D01*
X6770634Y-14135484D02*
X6789682Y-14135484D01*
X6789682Y-14135484D02*
X6808729Y-14145008D01*
X6808729Y-14145008D02*
X6818253Y-14154531D01*
X6818253Y-14154531D02*
X6827777Y-14173579D01*
X6827777Y-14173579D02*
X6837301Y-14211674D01*
X6837301Y-14211674D02*
X6837301Y-14259293D01*
X6837301Y-14259293D02*
X6827777Y-14297388D01*
X6827777Y-14297388D02*
X6818253Y-14316436D01*
X6818253Y-14316436D02*
X6808729Y-14325960D01*
X6808729Y-14325960D02*
X6789682Y-14335484D01*
X6789682Y-14335484D02*
X6770634Y-14335484D01*
X6770634Y-14335484D02*
X6751586Y-14325960D01*
X6751586Y-14325960D02*
X6742063Y-14316436D01*
X6742063Y-14316436D02*
X6732539Y-14297388D01*
X6732539Y-14297388D02*
X6723015Y-14259293D01*
X6723015Y-14259293D02*
X6723015Y-14211674D01*
X6723015Y-14211674D02*
X6732539Y-14173579D01*
X6732539Y-14173579D02*
X6742063Y-14154531D01*
X6742063Y-14154531D02*
X6751586Y-14145008D01*
X6751586Y-14145008D02*
X6770634Y-14135484D01*
X6923015Y-14316436D02*
X6932539Y-14325960D01*
X6932539Y-14325960D02*
X6923015Y-14335484D01*
X6923015Y-14335484D02*
X6913491Y-14325960D01*
X6913491Y-14325960D02*
X6923015Y-14316436D01*
X6923015Y-14316436D02*
X6923015Y-14335484D01*
X7056348Y-14135484D02*
X7075396Y-14135484D01*
X7075396Y-14135484D02*
X7094444Y-14145008D01*
X7094444Y-14145008D02*
X7103967Y-14154531D01*
X7103967Y-14154531D02*
X7113491Y-14173579D01*
X7113491Y-14173579D02*
X7123015Y-14211674D01*
X7123015Y-14211674D02*
X7123015Y-14259293D01*
X7123015Y-14259293D02*
X7113491Y-14297388D01*
X7113491Y-14297388D02*
X7103967Y-14316436D01*
X7103967Y-14316436D02*
X7094444Y-14325960D01*
X7094444Y-14325960D02*
X7075396Y-14335484D01*
X7075396Y-14335484D02*
X7056348Y-14335484D01*
X7056348Y-14335484D02*
X7037301Y-14325960D01*
X7037301Y-14325960D02*
X7027777Y-14316436D01*
X7027777Y-14316436D02*
X7018253Y-14297388D01*
X7018253Y-14297388D02*
X7008729Y-14259293D01*
X7008729Y-14259293D02*
X7008729Y-14211674D01*
X7008729Y-14211674D02*
X7018253Y-14173579D01*
X7018253Y-14173579D02*
X7027777Y-14154531D01*
X7027777Y-14154531D02*
X7037301Y-14145008D01*
X7037301Y-14145008D02*
X7056348Y-14135484D01*
X7189682Y-14135484D02*
X7313491Y-14135484D01*
X7313491Y-14135484D02*
X7246825Y-14211674D01*
X7246825Y-14211674D02*
X7275396Y-14211674D01*
X7275396Y-14211674D02*
X7294444Y-14221198D01*
X7294444Y-14221198D02*
X7303967Y-14230722D01*
X7303967Y-14230722D02*
X7313491Y-14249769D01*
X7313491Y-14249769D02*
X7313491Y-14297388D01*
X7313491Y-14297388D02*
X7303967Y-14316436D01*
X7303967Y-14316436D02*
X7294444Y-14325960D01*
X7294444Y-14325960D02*
X7275396Y-14335484D01*
X7275396Y-14335484D02*
X7218253Y-14335484D01*
X7218253Y-14335484D02*
X7199206Y-14325960D01*
X7199206Y-14325960D02*
X7189682Y-14316436D01*
X7408729Y-14335484D02*
X7446825Y-14335484D01*
X7446825Y-14335484D02*
X7465872Y-14325960D01*
X7465872Y-14325960D02*
X7475396Y-14316436D01*
X7475396Y-14316436D02*
X7494444Y-14287865D01*
X7494444Y-14287865D02*
X7503967Y-14249769D01*
X7503967Y-14249769D02*
X7503967Y-14173579D01*
X7503967Y-14173579D02*
X7494444Y-14154531D01*
X7494444Y-14154531D02*
X7484920Y-14145008D01*
X7484920Y-14145008D02*
X7465872Y-14135484D01*
X7465872Y-14135484D02*
X7427777Y-14135484D01*
X7427777Y-14135484D02*
X7408729Y-14145008D01*
X7408729Y-14145008D02*
X7399206Y-14154531D01*
X7399206Y-14154531D02*
X7389682Y-14173579D01*
X7389682Y-14173579D02*
X7389682Y-14221198D01*
X7389682Y-14221198D02*
X7399206Y-14240246D01*
X7399206Y-14240246D02*
X7408729Y-14249769D01*
X7408729Y-14249769D02*
X7427777Y-14259293D01*
X7427777Y-14259293D02*
X7465872Y-14259293D01*
X7465872Y-14259293D02*
X7484920Y-14249769D01*
X7484920Y-14249769D02*
X7494444Y-14240246D01*
X7494444Y-14240246D02*
X7503967Y-14221198D01*
X7675396Y-14202150D02*
X7675396Y-14335484D01*
X7627777Y-14125960D02*
X7580158Y-14268817D01*
X7580158Y-14268817D02*
X7703967Y-14268817D01*
X7770634Y-14135484D02*
X7770634Y-14173579D01*
X7846825Y-14135484D02*
X7846825Y-14173579D01*
X8142063Y-14411674D02*
X8132539Y-14402150D01*
X8132539Y-14402150D02*
X8113491Y-14373579D01*
X8113491Y-14373579D02*
X8103968Y-14354531D01*
X8103968Y-14354531D02*
X8094444Y-14325960D01*
X8094444Y-14325960D02*
X8084920Y-14278341D01*
X8084920Y-14278341D02*
X8084920Y-14240246D01*
X8084920Y-14240246D02*
X8094444Y-14192627D01*
X8094444Y-14192627D02*
X8103968Y-14164055D01*
X8103968Y-14164055D02*
X8113491Y-14145008D01*
X8113491Y-14145008D02*
X8132539Y-14116436D01*
X8132539Y-14116436D02*
X8142063Y-14106912D01*
X8303968Y-14202150D02*
X8303968Y-14335484D01*
X8256348Y-14125960D02*
X8208729Y-14268817D01*
X8208729Y-14268817D02*
X8332539Y-14268817D01*
X8561111Y-14335484D02*
X8561111Y-14135484D01*
X8646825Y-14335484D02*
X8646825Y-14230722D01*
X8646825Y-14230722D02*
X8637301Y-14211674D01*
X8637301Y-14211674D02*
X8618253Y-14202150D01*
X8618253Y-14202150D02*
X8589682Y-14202150D01*
X8589682Y-14202150D02*
X8570634Y-14211674D01*
X8570634Y-14211674D02*
X8561111Y-14221198D01*
X8770634Y-14335484D02*
X8751587Y-14325960D01*
X8751587Y-14325960D02*
X8742063Y-14316436D01*
X8742063Y-14316436D02*
X8732539Y-14297388D01*
X8732539Y-14297388D02*
X8732539Y-14240246D01*
X8732539Y-14240246D02*
X8742063Y-14221198D01*
X8742063Y-14221198D02*
X8751587Y-14211674D01*
X8751587Y-14211674D02*
X8770634Y-14202150D01*
X8770634Y-14202150D02*
X8799206Y-14202150D01*
X8799206Y-14202150D02*
X8818253Y-14211674D01*
X8818253Y-14211674D02*
X8827777Y-14221198D01*
X8827777Y-14221198D02*
X8837301Y-14240246D01*
X8837301Y-14240246D02*
X8837301Y-14297388D01*
X8837301Y-14297388D02*
X8827777Y-14316436D01*
X8827777Y-14316436D02*
X8818253Y-14325960D01*
X8818253Y-14325960D02*
X8799206Y-14335484D01*
X8799206Y-14335484D02*
X8770634Y-14335484D01*
X8951587Y-14335484D02*
X8932539Y-14325960D01*
X8932539Y-14325960D02*
X8923015Y-14306912D01*
X8923015Y-14306912D02*
X8923015Y-14135484D01*
X9103968Y-14325960D02*
X9084920Y-14335484D01*
X9084920Y-14335484D02*
X9046825Y-14335484D01*
X9046825Y-14335484D02*
X9027777Y-14325960D01*
X9027777Y-14325960D02*
X9018253Y-14306912D01*
X9018253Y-14306912D02*
X9018253Y-14230722D01*
X9018253Y-14230722D02*
X9027777Y-14211674D01*
X9027777Y-14211674D02*
X9046825Y-14202150D01*
X9046825Y-14202150D02*
X9084920Y-14202150D01*
X9084920Y-14202150D02*
X9103968Y-14211674D01*
X9103968Y-14211674D02*
X9113492Y-14230722D01*
X9113492Y-14230722D02*
X9113492Y-14249769D01*
X9113492Y-14249769D02*
X9018253Y-14268817D01*
X9189682Y-14325960D02*
X9208730Y-14335484D01*
X9208730Y-14335484D02*
X9246825Y-14335484D01*
X9246825Y-14335484D02*
X9265873Y-14325960D01*
X9265873Y-14325960D02*
X9275396Y-14306912D01*
X9275396Y-14306912D02*
X9275396Y-14297388D01*
X9275396Y-14297388D02*
X9265873Y-14278341D01*
X9265873Y-14278341D02*
X9246825Y-14268817D01*
X9246825Y-14268817D02*
X9218253Y-14268817D01*
X9218253Y-14268817D02*
X9199206Y-14259293D01*
X9199206Y-14259293D02*
X9189682Y-14240246D01*
X9189682Y-14240246D02*
X9189682Y-14230722D01*
X9189682Y-14230722D02*
X9199206Y-14211674D01*
X9199206Y-14211674D02*
X9218253Y-14202150D01*
X9218253Y-14202150D02*
X9246825Y-14202150D01*
X9246825Y-14202150D02*
X9265873Y-14211674D01*
X9342063Y-14411674D02*
X9351587Y-14402150D01*
X9351587Y-14402150D02*
X9370634Y-14373579D01*
X9370634Y-14373579D02*
X9380158Y-14354531D01*
X9380158Y-14354531D02*
X9389682Y-14325960D01*
X9389682Y-14325960D02*
X9399206Y-14278341D01*
X9399206Y-14278341D02*
X9399206Y-14240246D01*
X9399206Y-14240246D02*
X9389682Y-14192627D01*
X9389682Y-14192627D02*
X9380158Y-14164055D01*
X9380158Y-14164055D02*
X9370634Y-14145008D01*
X9370634Y-14145008D02*
X9351587Y-14116436D01*
X9351587Y-14116436D02*
X9342063Y-14106912D01*
M02*
