%TF.GenerationSoftware,KiCad,Pcbnew,7.0.9*%
%TF.CreationDate,2023-12-05T19:57:25+01:00*%
%TF.ProjectId,Doodle Drive,446f6f64-6c65-4204-9472-6976652e6b69,1.0V*%
%TF.SameCoordinates,Original*%
%TF.FileFunction,Soldermask,Bot*%
%TF.FilePolarity,Negative*%
%FSLAX46Y46*%
G04 Gerber Fmt 4.6, Leading zero omitted, Abs format (unit mm)*
G04 Created by KiCad (PCBNEW 7.0.9) date 2023-12-05 19:57:25*
%MOMM*%
%LPD*%
G01*
G04 APERTURE LIST*
G04 APERTURE END LIST*
G36*
X140273664Y-128363602D02*
G01*
X140436000Y-128435878D01*
X140579761Y-128540327D01*
X140698664Y-128672383D01*
X140787514Y-128826274D01*
X140842425Y-128995275D01*
X140861000Y-129172000D01*
X140842425Y-129348725D01*
X140787514Y-129517726D01*
X140698664Y-129671617D01*
X140579761Y-129803673D01*
X140436000Y-129908122D01*
X140273664Y-129980398D01*
X140099849Y-130017344D01*
X139922151Y-130017344D01*
X139748336Y-129980398D01*
X139586000Y-129908122D01*
X139442239Y-129803673D01*
X139323336Y-129671617D01*
X139234486Y-129517726D01*
X139179575Y-129348725D01*
X139161000Y-129172000D01*
X139179575Y-128995275D01*
X139234486Y-128826274D01*
X139323336Y-128672383D01*
X139442239Y-128540327D01*
X139586000Y-128435878D01*
X139748336Y-128363602D01*
X139922151Y-128326656D01*
X140099849Y-128326656D01*
X140273664Y-128363602D01*
G37*
G36*
X105216000Y-128915000D02*
G01*
X103236000Y-128915000D01*
X103236000Y-124955000D01*
X105216000Y-124955000D01*
X105216000Y-128915000D01*
G37*
G36*
X109299758Y-124962554D02*
G01*
X109375913Y-124966416D01*
X109398591Y-124972287D01*
X109419084Y-124974306D01*
X109493079Y-124996752D01*
X109569832Y-125016625D01*
X109588051Y-125025561D01*
X109604745Y-125030626D01*
X109675778Y-125068594D01*
X109749674Y-125104842D01*
X109763243Y-125115345D01*
X109775850Y-125122084D01*
X109840607Y-125175230D01*
X109908077Y-125227455D01*
X109917218Y-125238103D01*
X109925829Y-125245170D01*
X109981081Y-125312494D01*
X110038556Y-125379444D01*
X110043841Y-125388967D01*
X110048915Y-125395149D01*
X110091675Y-125475147D01*
X110135768Y-125554588D01*
X110138085Y-125561974D01*
X110140373Y-125566254D01*
X110167908Y-125657024D01*
X110195735Y-125745714D01*
X110196200Y-125750291D01*
X110196693Y-125751915D01*
X110206775Y-125854285D01*
X110216000Y-125945000D01*
X110216000Y-127925000D01*
X110210921Y-128025157D01*
X110201174Y-128072585D01*
X110196693Y-128118084D01*
X110181596Y-128167850D01*
X110170598Y-128221369D01*
X110152733Y-128262998D01*
X110140373Y-128303745D01*
X110114375Y-128352381D01*
X110091603Y-128405449D01*
X110067502Y-128440075D01*
X110048915Y-128474850D01*
X110011944Y-128519897D01*
X109977171Y-128569859D01*
X109948843Y-128596786D01*
X109925829Y-128624829D01*
X109878353Y-128663791D01*
X109831985Y-128707868D01*
X109801474Y-128726885D01*
X109775850Y-128747915D01*
X109718881Y-128778365D01*
X109661990Y-128813826D01*
X109631218Y-128825222D01*
X109604745Y-128839373D01*
X109539895Y-128859045D01*
X109474146Y-128883396D01*
X109444802Y-128887891D01*
X109419084Y-128895693D01*
X109348496Y-128902644D01*
X109276143Y-128913729D01*
X109249611Y-128912383D01*
X109226000Y-128914709D01*
X109152261Y-128907446D01*
X109076087Y-128903584D01*
X109053403Y-128897710D01*
X109032915Y-128895693D01*
X108958935Y-128873251D01*
X108882168Y-128853375D01*
X108863945Y-128844436D01*
X108847254Y-128839373D01*
X108776231Y-128801410D01*
X108702326Y-128765158D01*
X108688754Y-128754652D01*
X108676149Y-128747915D01*
X108611395Y-128694772D01*
X108543923Y-128642545D01*
X108534781Y-128631896D01*
X108526170Y-128624829D01*
X108470914Y-128557500D01*
X108413444Y-128490556D01*
X108408158Y-128481033D01*
X108403084Y-128474850D01*
X108360312Y-128394829D01*
X108316232Y-128315412D01*
X108313915Y-128308027D01*
X108311626Y-128303745D01*
X108284070Y-128212908D01*
X108256265Y-128124286D01*
X108255799Y-128119712D01*
X108255306Y-128118084D01*
X108245212Y-128015595D01*
X108236000Y-127925000D01*
X108236000Y-125945000D01*
X108241079Y-125844843D01*
X108250824Y-125797422D01*
X108255306Y-125751915D01*
X108270406Y-125702136D01*
X108281402Y-125648631D01*
X108299262Y-125607012D01*
X108311626Y-125566254D01*
X108337630Y-125517603D01*
X108360397Y-125464551D01*
X108384490Y-125429934D01*
X108403084Y-125395149D01*
X108440065Y-125350087D01*
X108474829Y-125300141D01*
X108503148Y-125273221D01*
X108526170Y-125245170D01*
X108573660Y-125206195D01*
X108620015Y-125162132D01*
X108650515Y-125143120D01*
X108676149Y-125122084D01*
X108733135Y-125091623D01*
X108790010Y-125056174D01*
X108820772Y-125044780D01*
X108847254Y-125030626D01*
X108912124Y-125010947D01*
X108977854Y-124986604D01*
X109007188Y-124982110D01*
X109032915Y-124974306D01*
X109103523Y-124967352D01*
X109175857Y-124956271D01*
X109202381Y-124957616D01*
X109226000Y-124955290D01*
X109299758Y-124962554D01*
G37*
G36*
X121633022Y-127171374D02*
G01*
X121669296Y-127171374D01*
X121710885Y-127181624D01*
X121753491Y-127187234D01*
X121782656Y-127199314D01*
X121811617Y-127206453D01*
X121855530Y-127229500D01*
X121900250Y-127248024D01*
X121920650Y-127263678D01*
X121941417Y-127274577D01*
X121983879Y-127312195D01*
X122026274Y-127344726D01*
X122038322Y-127360427D01*
X122051140Y-127371783D01*
X122087889Y-127425025D01*
X122122976Y-127470750D01*
X122128265Y-127483520D01*
X122134408Y-127492419D01*
X122161053Y-127562676D01*
X122183766Y-127617509D01*
X122184785Y-127625251D01*
X122186389Y-127629480D01*
X122198813Y-127731803D01*
X122204500Y-127775000D01*
X122198812Y-127818200D01*
X122186389Y-127920519D01*
X122184785Y-127924746D01*
X122183766Y-127932491D01*
X122161048Y-127987334D01*
X122134408Y-128057580D01*
X122128266Y-128066477D01*
X122122976Y-128079250D01*
X122087883Y-128124983D01*
X122051140Y-128178216D01*
X122038324Y-128189569D01*
X122026274Y-128205274D01*
X121983870Y-128237811D01*
X121941417Y-128275422D01*
X121920654Y-128286318D01*
X121900250Y-128301976D01*
X121855521Y-128320503D01*
X121811617Y-128343546D01*
X121782661Y-128350683D01*
X121753491Y-128362766D01*
X121710882Y-128368375D01*
X121669296Y-128378626D01*
X121633022Y-128378626D01*
X121596000Y-128383500D01*
X121558978Y-128378626D01*
X121522704Y-128378626D01*
X121481116Y-128368375D01*
X121438509Y-128362766D01*
X121409339Y-128350683D01*
X121380382Y-128343546D01*
X121336474Y-128320501D01*
X121291750Y-128301976D01*
X121271347Y-128286320D01*
X121250582Y-128275422D01*
X121208121Y-128237805D01*
X121165726Y-128205274D01*
X121153677Y-128189572D01*
X121140859Y-128178216D01*
X121104106Y-128124970D01*
X121069024Y-128079250D01*
X121063734Y-128066481D01*
X121057591Y-128057580D01*
X121030939Y-127987305D01*
X121008234Y-127932491D01*
X121007215Y-127924751D01*
X121005610Y-127920519D01*
X120993174Y-127818102D01*
X120987500Y-127775000D01*
X120993174Y-127731900D01*
X121005610Y-127629480D01*
X121007215Y-127625247D01*
X121008234Y-127617509D01*
X121030934Y-127562705D01*
X121057591Y-127492419D01*
X121063735Y-127483516D01*
X121069024Y-127470750D01*
X121104100Y-127425038D01*
X121140859Y-127371783D01*
X121153679Y-127360424D01*
X121165726Y-127344726D01*
X121208113Y-127312200D01*
X121250582Y-127274577D01*
X121271351Y-127263676D01*
X121291750Y-127248024D01*
X121336465Y-127229502D01*
X121380382Y-127206453D01*
X121409344Y-127199314D01*
X121438509Y-127187234D01*
X121481113Y-127181624D01*
X121522704Y-127171374D01*
X121558978Y-127171374D01*
X121596000Y-127166500D01*
X121633022Y-127171374D01*
G37*
G36*
X90570641Y-124286802D02*
G01*
X90639976Y-124286802D01*
X90715193Y-124297140D01*
X90788130Y-124302357D01*
X90848169Y-124315417D01*
X90910383Y-124323969D01*
X90989919Y-124346253D01*
X91066965Y-124363014D01*
X91118976Y-124382413D01*
X91173208Y-124397608D01*
X91255196Y-124433220D01*
X91334330Y-124462736D01*
X91377824Y-124486485D01*
X91423568Y-124506355D01*
X91505865Y-124556401D01*
X91584782Y-124599493D01*
X91619653Y-124625597D01*
X91656777Y-124648173D01*
X91737050Y-124713480D01*
X91813221Y-124770501D01*
X91839762Y-124797042D01*
X91868512Y-124820432D01*
X91944282Y-124901562D01*
X92014999Y-124972279D01*
X92033869Y-124997486D01*
X92054815Y-125019914D01*
X92123507Y-125117228D01*
X92186007Y-125200718D01*
X92198189Y-125223029D01*
X92212219Y-125242904D01*
X92271253Y-125356836D01*
X92322764Y-125451170D01*
X92329521Y-125469287D01*
X92337791Y-125485247D01*
X92384625Y-125617028D01*
X92422486Y-125718535D01*
X92425302Y-125731480D01*
X92429200Y-125742448D01*
X92461480Y-125897787D01*
X92483143Y-125997370D01*
X92483651Y-126004482D01*
X92484733Y-126009686D01*
X92500269Y-126236835D01*
X92503500Y-126282000D01*
X92500269Y-126327167D01*
X92484733Y-126554313D01*
X92483651Y-126559515D01*
X92483143Y-126566630D01*
X92461475Y-126666233D01*
X92429200Y-126821551D01*
X92425302Y-126832517D01*
X92422486Y-126845465D01*
X92384618Y-126946991D01*
X92337791Y-127078752D01*
X92329522Y-127094708D01*
X92322764Y-127112830D01*
X92271243Y-127207182D01*
X92212219Y-127321095D01*
X92198192Y-127340966D01*
X92186007Y-127363282D01*
X92123494Y-127446788D01*
X92054815Y-127544085D01*
X92033872Y-127566508D01*
X92014999Y-127591721D01*
X91944268Y-127662451D01*
X91868512Y-127743567D01*
X91839768Y-127766951D01*
X91813221Y-127793499D01*
X91737034Y-127850531D01*
X91656777Y-127915826D01*
X91619660Y-127938396D01*
X91584782Y-127964507D01*
X91505849Y-128007607D01*
X91423568Y-128057644D01*
X91377833Y-128077509D01*
X91334330Y-128101264D01*
X91255180Y-128130785D01*
X91173208Y-128166391D01*
X91118987Y-128181582D01*
X91066965Y-128200986D01*
X90989903Y-128217749D01*
X90910383Y-128240030D01*
X90848179Y-128248580D01*
X90788130Y-128261643D01*
X90715189Y-128266859D01*
X90639976Y-128277198D01*
X90570641Y-128277198D01*
X90503500Y-128282000D01*
X90436359Y-128277198D01*
X90367024Y-128277198D01*
X90291810Y-128266859D01*
X90218870Y-128261643D01*
X90158821Y-128248580D01*
X90096616Y-128240030D01*
X90017092Y-128217748D01*
X89940035Y-128200986D01*
X89888015Y-128181583D01*
X89833791Y-128166391D01*
X89751812Y-128130782D01*
X89672670Y-128101264D01*
X89629170Y-128077511D01*
X89583431Y-128057644D01*
X89501140Y-128007602D01*
X89422218Y-127964507D01*
X89387343Y-127938400D01*
X89350222Y-127915826D01*
X89269952Y-127850522D01*
X89193779Y-127793499D01*
X89167236Y-127766956D01*
X89138487Y-127743567D01*
X89062716Y-127662436D01*
X88992001Y-127591721D01*
X88973131Y-127566513D01*
X88952184Y-127544085D01*
X88883487Y-127446764D01*
X88820993Y-127363282D01*
X88808811Y-127340972D01*
X88794780Y-127321095D01*
X88735736Y-127207146D01*
X88684236Y-127112830D01*
X88677479Y-127094715D01*
X88669208Y-127078752D01*
X88622360Y-126946935D01*
X88584514Y-126845465D01*
X88581698Y-126832524D01*
X88577799Y-126821551D01*
X88545502Y-126666131D01*
X88523857Y-126566630D01*
X88523348Y-126559523D01*
X88522266Y-126554313D01*
X88506707Y-126326847D01*
X88503500Y-126282000D01*
X88506707Y-126237156D01*
X88522266Y-126009686D01*
X88523348Y-126004475D01*
X88523857Y-125997370D01*
X88545497Y-125897890D01*
X88577799Y-125742448D01*
X88581699Y-125731473D01*
X88584514Y-125718535D01*
X88622352Y-125617085D01*
X88669208Y-125485247D01*
X88677481Y-125469280D01*
X88684236Y-125451170D01*
X88735726Y-125356871D01*
X88794780Y-125242904D01*
X88808813Y-125223023D01*
X88820993Y-125200718D01*
X88883475Y-125117251D01*
X88952184Y-125019914D01*
X88973134Y-124997480D01*
X88992001Y-124972279D01*
X89062702Y-124901577D01*
X89138487Y-124820432D01*
X89167241Y-124797038D01*
X89193779Y-124770501D01*
X89269937Y-124713489D01*
X89350222Y-124648173D01*
X89387350Y-124625594D01*
X89422218Y-124599493D01*
X89501124Y-124556406D01*
X89583431Y-124506355D01*
X89629179Y-124486483D01*
X89672670Y-124462736D01*
X89751796Y-124433223D01*
X89833791Y-124397608D01*
X89888026Y-124382412D01*
X89940035Y-124363014D01*
X90017076Y-124346254D01*
X90096616Y-124323969D01*
X90158831Y-124315417D01*
X90218870Y-124302357D01*
X90291806Y-124297140D01*
X90367024Y-124286802D01*
X90436359Y-124286802D01*
X90503500Y-124282000D01*
X90570641Y-124286802D01*
G37*
G36*
X140273664Y-125823602D02*
G01*
X140436000Y-125895878D01*
X140579761Y-126000327D01*
X140698664Y-126132383D01*
X140787514Y-126286274D01*
X140842425Y-126455275D01*
X140861000Y-126632000D01*
X140842425Y-126808725D01*
X140787514Y-126977726D01*
X140698664Y-127131617D01*
X140579761Y-127263673D01*
X140436000Y-127368122D01*
X140273664Y-127440398D01*
X140099849Y-127477344D01*
X139922151Y-127477344D01*
X139748336Y-127440398D01*
X139586000Y-127368122D01*
X139442239Y-127263673D01*
X139323336Y-127131617D01*
X139234486Y-126977726D01*
X139179575Y-126808725D01*
X139161000Y-126632000D01*
X139179575Y-126455275D01*
X139234486Y-126286274D01*
X139323336Y-126132383D01*
X139442239Y-126000327D01*
X139586000Y-125895878D01*
X139748336Y-125823602D01*
X139922151Y-125786656D01*
X140099849Y-125786656D01*
X140273664Y-125823602D01*
G37*
G36*
X119093022Y-124631374D02*
G01*
X119129296Y-124631374D01*
X119170885Y-124641624D01*
X119213491Y-124647234D01*
X119242656Y-124659314D01*
X119271617Y-124666453D01*
X119315530Y-124689500D01*
X119360250Y-124708024D01*
X119380650Y-124723678D01*
X119401417Y-124734577D01*
X119443879Y-124772195D01*
X119486274Y-124804726D01*
X119498322Y-124820427D01*
X119511140Y-124831783D01*
X119547889Y-124885025D01*
X119582976Y-124930750D01*
X119588265Y-124943520D01*
X119594408Y-124952419D01*
X119621053Y-125022676D01*
X119643766Y-125077509D01*
X119644785Y-125085251D01*
X119646389Y-125089480D01*
X119658813Y-125191803D01*
X119664500Y-125235000D01*
X119658812Y-125278200D01*
X119646389Y-125380519D01*
X119644785Y-125384746D01*
X119643766Y-125392491D01*
X119621048Y-125447334D01*
X119594408Y-125517580D01*
X119588266Y-125526477D01*
X119582976Y-125539250D01*
X119547883Y-125584983D01*
X119511140Y-125638216D01*
X119498324Y-125649569D01*
X119486274Y-125665274D01*
X119443870Y-125697811D01*
X119401417Y-125735422D01*
X119380654Y-125746318D01*
X119360250Y-125761976D01*
X119315521Y-125780503D01*
X119271617Y-125803546D01*
X119242661Y-125810683D01*
X119213491Y-125822766D01*
X119170882Y-125828375D01*
X119129296Y-125838626D01*
X119093022Y-125838626D01*
X119056000Y-125843500D01*
X119018978Y-125838626D01*
X118982704Y-125838626D01*
X118941116Y-125828375D01*
X118898509Y-125822766D01*
X118869339Y-125810683D01*
X118840382Y-125803546D01*
X118796474Y-125780501D01*
X118751750Y-125761976D01*
X118731347Y-125746320D01*
X118710582Y-125735422D01*
X118668121Y-125697805D01*
X118625726Y-125665274D01*
X118613677Y-125649572D01*
X118600859Y-125638216D01*
X118564106Y-125584970D01*
X118529024Y-125539250D01*
X118523734Y-125526481D01*
X118517591Y-125517580D01*
X118490939Y-125447305D01*
X118468234Y-125392491D01*
X118467215Y-125384751D01*
X118465610Y-125380519D01*
X118453174Y-125278102D01*
X118447500Y-125235000D01*
X118453174Y-125191900D01*
X118465610Y-125089480D01*
X118467215Y-125085247D01*
X118468234Y-125077509D01*
X118490934Y-125022705D01*
X118517591Y-124952419D01*
X118523735Y-124943516D01*
X118529024Y-124930750D01*
X118564100Y-124885038D01*
X118600859Y-124831783D01*
X118613679Y-124820424D01*
X118625726Y-124804726D01*
X118668113Y-124772200D01*
X118710582Y-124734577D01*
X118731351Y-124723676D01*
X118751750Y-124708024D01*
X118796465Y-124689502D01*
X118840382Y-124666453D01*
X118869344Y-124659314D01*
X118898509Y-124647234D01*
X118941113Y-124641624D01*
X118982704Y-124631374D01*
X119018978Y-124631374D01*
X119056000Y-124626500D01*
X119093022Y-124631374D01*
G37*
G36*
X140273664Y-123283602D02*
G01*
X140436000Y-123355878D01*
X140579761Y-123460327D01*
X140698664Y-123592383D01*
X140787514Y-123746274D01*
X140842425Y-123915275D01*
X140861000Y-124092000D01*
X140842425Y-124268725D01*
X140787514Y-124437726D01*
X140698664Y-124591617D01*
X140579761Y-124723673D01*
X140436000Y-124828122D01*
X140273664Y-124900398D01*
X140099849Y-124937344D01*
X139922151Y-124937344D01*
X139748336Y-124900398D01*
X139586000Y-124828122D01*
X139442239Y-124723673D01*
X139323336Y-124591617D01*
X139234486Y-124437726D01*
X139179575Y-124268725D01*
X139161000Y-124092000D01*
X139179575Y-123915275D01*
X139234486Y-123746274D01*
X139323336Y-123592383D01*
X139442239Y-123460327D01*
X139586000Y-123355878D01*
X139748336Y-123283602D01*
X139922151Y-123246656D01*
X140099849Y-123246656D01*
X140273664Y-123283602D01*
G37*
G36*
X122204500Y-123303500D02*
G01*
X120987500Y-123303500D01*
X120987500Y-122086500D01*
X122204500Y-122086500D01*
X122204500Y-123303500D01*
G37*
G36*
X140861000Y-122402000D02*
G01*
X139161000Y-122402000D01*
X139161000Y-120702000D01*
X140861000Y-120702000D01*
X140861000Y-122402000D01*
G37*
G36*
X93405311Y-120736711D02*
G01*
X93447088Y-120736711D01*
X93494218Y-120746728D01*
X93541517Y-120752058D01*
X93575908Y-120764092D01*
X93610610Y-120771468D01*
X93660617Y-120793733D01*
X93710607Y-120811225D01*
X93736628Y-120827575D01*
X93763335Y-120839466D01*
X93813133Y-120875646D01*
X93862292Y-120906535D01*
X93879944Y-120924187D01*
X93898584Y-120937730D01*
X93944665Y-120988908D01*
X93988965Y-121033208D01*
X93999154Y-121049424D01*
X94010446Y-121061965D01*
X94049073Y-121128870D01*
X94084275Y-121184893D01*
X94088670Y-121197453D01*
X94094035Y-121206746D01*
X94121510Y-121291305D01*
X94143442Y-121353983D01*
X94144273Y-121361363D01*
X94145695Y-121365738D01*
X94158576Y-121488306D01*
X94163500Y-121532000D01*
X94158576Y-121575697D01*
X94145695Y-121698261D01*
X94144273Y-121702635D01*
X94143442Y-121710017D01*
X94121505Y-121772707D01*
X94094035Y-121857253D01*
X94088671Y-121866543D01*
X94084275Y-121879107D01*
X94049066Y-121935140D01*
X94010446Y-122002034D01*
X93999156Y-122014572D01*
X93988965Y-122030792D01*
X93944655Y-122075101D01*
X93898584Y-122126269D01*
X93879948Y-122139808D01*
X93862292Y-122157465D01*
X93813123Y-122188359D01*
X93763335Y-122224533D01*
X93736634Y-122236421D01*
X93710607Y-122252775D01*
X93660607Y-122270270D01*
X93610610Y-122292531D01*
X93575914Y-122299905D01*
X93541517Y-122311942D01*
X93494215Y-122317271D01*
X93447088Y-122327289D01*
X93405311Y-122327289D01*
X93363500Y-122332000D01*
X93321689Y-122327289D01*
X93279912Y-122327289D01*
X93232784Y-122317271D01*
X93185483Y-122311942D01*
X93151086Y-122299906D01*
X93116389Y-122292531D01*
X93066387Y-122270268D01*
X93016393Y-122252775D01*
X92990368Y-122236422D01*
X92963664Y-122224533D01*
X92913869Y-122188355D01*
X92864708Y-122157465D01*
X92847054Y-122139811D01*
X92828415Y-122126269D01*
X92782333Y-122075090D01*
X92738035Y-122030792D01*
X92727845Y-122014575D01*
X92716553Y-122002034D01*
X92677920Y-121935120D01*
X92642725Y-121879107D01*
X92638330Y-121866547D01*
X92632964Y-121857253D01*
X92605480Y-121772667D01*
X92583558Y-121710017D01*
X92582726Y-121702639D01*
X92581304Y-121698261D01*
X92568408Y-121575565D01*
X92563500Y-121532000D01*
X92568408Y-121488438D01*
X92581304Y-121365738D01*
X92582726Y-121361358D01*
X92583558Y-121353983D01*
X92605475Y-121291345D01*
X92632964Y-121206746D01*
X92638331Y-121197449D01*
X92642725Y-121184893D01*
X92677913Y-121128890D01*
X92716553Y-121061965D01*
X92727847Y-121049421D01*
X92738035Y-121033208D01*
X92782326Y-120988916D01*
X92828417Y-120937728D01*
X92847059Y-120924183D01*
X92864708Y-120906535D01*
X92913854Y-120875654D01*
X92963662Y-120839467D01*
X92990373Y-120827574D01*
X93016393Y-120811225D01*
X93066377Y-120793734D01*
X93116389Y-120771468D01*
X93151092Y-120764091D01*
X93185483Y-120752058D01*
X93232781Y-120746728D01*
X93279912Y-120736711D01*
X93321689Y-120736711D01*
X93363500Y-120732000D01*
X93405311Y-120736711D01*
G37*
G36*
X96163500Y-122332000D02*
G01*
X94563500Y-122332000D01*
X94563500Y-120732000D01*
X96163500Y-120732000D01*
X96163500Y-122332000D01*
G37*
G36*
X93405311Y-118236711D02*
G01*
X93447088Y-118236711D01*
X93494218Y-118246728D01*
X93541517Y-118252058D01*
X93575908Y-118264092D01*
X93610610Y-118271468D01*
X93660617Y-118293733D01*
X93710607Y-118311225D01*
X93736628Y-118327575D01*
X93763335Y-118339466D01*
X93813133Y-118375646D01*
X93862292Y-118406535D01*
X93879944Y-118424187D01*
X93898584Y-118437730D01*
X93944665Y-118488908D01*
X93988965Y-118533208D01*
X93999154Y-118549424D01*
X94010446Y-118561965D01*
X94049073Y-118628870D01*
X94084275Y-118684893D01*
X94088670Y-118697453D01*
X94094035Y-118706746D01*
X94121510Y-118791305D01*
X94143442Y-118853983D01*
X94144273Y-118861363D01*
X94145695Y-118865738D01*
X94158576Y-118988306D01*
X94163500Y-119032000D01*
X94158576Y-119075697D01*
X94145695Y-119198261D01*
X94144273Y-119202635D01*
X94143442Y-119210017D01*
X94121505Y-119272707D01*
X94094035Y-119357253D01*
X94088671Y-119366543D01*
X94084275Y-119379107D01*
X94049066Y-119435140D01*
X94010446Y-119502034D01*
X93999156Y-119514572D01*
X93988965Y-119530792D01*
X93944655Y-119575101D01*
X93898584Y-119626269D01*
X93879948Y-119639808D01*
X93862292Y-119657465D01*
X93813123Y-119688359D01*
X93763335Y-119724533D01*
X93736634Y-119736421D01*
X93710607Y-119752775D01*
X93660607Y-119770270D01*
X93610610Y-119792531D01*
X93575914Y-119799905D01*
X93541517Y-119811942D01*
X93494215Y-119817271D01*
X93447088Y-119827289D01*
X93405311Y-119827289D01*
X93363500Y-119832000D01*
X93321689Y-119827289D01*
X93279912Y-119827289D01*
X93232784Y-119817271D01*
X93185483Y-119811942D01*
X93151086Y-119799906D01*
X93116389Y-119792531D01*
X93066387Y-119770268D01*
X93016393Y-119752775D01*
X92990368Y-119736422D01*
X92963664Y-119724533D01*
X92913869Y-119688355D01*
X92864708Y-119657465D01*
X92847054Y-119639811D01*
X92828415Y-119626269D01*
X92782333Y-119575090D01*
X92738035Y-119530792D01*
X92727845Y-119514575D01*
X92716553Y-119502034D01*
X92677920Y-119435120D01*
X92642725Y-119379107D01*
X92638330Y-119366547D01*
X92632964Y-119357253D01*
X92605480Y-119272667D01*
X92583558Y-119210017D01*
X92582726Y-119202639D01*
X92581304Y-119198261D01*
X92568408Y-119075565D01*
X92563500Y-119032000D01*
X92568408Y-118988438D01*
X92581304Y-118865738D01*
X92582726Y-118861358D01*
X92583558Y-118853983D01*
X92605475Y-118791345D01*
X92632964Y-118706746D01*
X92638331Y-118697449D01*
X92642725Y-118684893D01*
X92677913Y-118628890D01*
X92716553Y-118561965D01*
X92727847Y-118549421D01*
X92738035Y-118533208D01*
X92782326Y-118488916D01*
X92828417Y-118437728D01*
X92847059Y-118424183D01*
X92864708Y-118406535D01*
X92913854Y-118375654D01*
X92963662Y-118339467D01*
X92990373Y-118327574D01*
X93016393Y-118311225D01*
X93066377Y-118293734D01*
X93116389Y-118271468D01*
X93151092Y-118264091D01*
X93185483Y-118252058D01*
X93232781Y-118246728D01*
X93279912Y-118236711D01*
X93321689Y-118236711D01*
X93363500Y-118232000D01*
X93405311Y-118236711D01*
G37*
G36*
X95405311Y-118236711D02*
G01*
X95447088Y-118236711D01*
X95494218Y-118246728D01*
X95541517Y-118252058D01*
X95575908Y-118264092D01*
X95610610Y-118271468D01*
X95660617Y-118293733D01*
X95710607Y-118311225D01*
X95736628Y-118327575D01*
X95763335Y-118339466D01*
X95813133Y-118375646D01*
X95862292Y-118406535D01*
X95879944Y-118424187D01*
X95898584Y-118437730D01*
X95944665Y-118488908D01*
X95988965Y-118533208D01*
X95999154Y-118549424D01*
X96010446Y-118561965D01*
X96049073Y-118628870D01*
X96084275Y-118684893D01*
X96088670Y-118697453D01*
X96094035Y-118706746D01*
X96121510Y-118791305D01*
X96143442Y-118853983D01*
X96144273Y-118861363D01*
X96145695Y-118865738D01*
X96158576Y-118988306D01*
X96163500Y-119032000D01*
X96158576Y-119075697D01*
X96145695Y-119198261D01*
X96144273Y-119202635D01*
X96143442Y-119210017D01*
X96121505Y-119272707D01*
X96094035Y-119357253D01*
X96088671Y-119366543D01*
X96084275Y-119379107D01*
X96049066Y-119435140D01*
X96010446Y-119502034D01*
X95999156Y-119514572D01*
X95988965Y-119530792D01*
X95944655Y-119575101D01*
X95898584Y-119626269D01*
X95879948Y-119639808D01*
X95862292Y-119657465D01*
X95813123Y-119688359D01*
X95763335Y-119724533D01*
X95736634Y-119736421D01*
X95710607Y-119752775D01*
X95660607Y-119770270D01*
X95610610Y-119792531D01*
X95575914Y-119799905D01*
X95541517Y-119811942D01*
X95494215Y-119817271D01*
X95447088Y-119827289D01*
X95405311Y-119827289D01*
X95363500Y-119832000D01*
X95321689Y-119827289D01*
X95279912Y-119827289D01*
X95232784Y-119817271D01*
X95185483Y-119811942D01*
X95151086Y-119799906D01*
X95116389Y-119792531D01*
X95066387Y-119770268D01*
X95016393Y-119752775D01*
X94990368Y-119736422D01*
X94963664Y-119724533D01*
X94913869Y-119688355D01*
X94864708Y-119657465D01*
X94847054Y-119639811D01*
X94828415Y-119626269D01*
X94782333Y-119575090D01*
X94738035Y-119530792D01*
X94727845Y-119514575D01*
X94716553Y-119502034D01*
X94677920Y-119435120D01*
X94642725Y-119379107D01*
X94638330Y-119366547D01*
X94632964Y-119357253D01*
X94605480Y-119272667D01*
X94583558Y-119210017D01*
X94582726Y-119202639D01*
X94581304Y-119198261D01*
X94568408Y-119075565D01*
X94563500Y-119032000D01*
X94568408Y-118988438D01*
X94581304Y-118865738D01*
X94582726Y-118861358D01*
X94583558Y-118853983D01*
X94605475Y-118791345D01*
X94632964Y-118706746D01*
X94638331Y-118697449D01*
X94642725Y-118684893D01*
X94677913Y-118628890D01*
X94716553Y-118561965D01*
X94727847Y-118549421D01*
X94738035Y-118533208D01*
X94782326Y-118488916D01*
X94828417Y-118437728D01*
X94847059Y-118424183D01*
X94864708Y-118406535D01*
X94913854Y-118375654D01*
X94963662Y-118339467D01*
X94990373Y-118327574D01*
X95016393Y-118311225D01*
X95066377Y-118293734D01*
X95116389Y-118271468D01*
X95151092Y-118264091D01*
X95185483Y-118252058D01*
X95232781Y-118246728D01*
X95279912Y-118236711D01*
X95321689Y-118236711D01*
X95363500Y-118232000D01*
X95405311Y-118236711D01*
G37*
G36*
X119346550Y-116876812D02*
G01*
X119382267Y-116876812D01*
X119423221Y-116886906D01*
X119465291Y-116892445D01*
X119494088Y-116904373D01*
X119522610Y-116911403D01*
X119565854Y-116934099D01*
X119610000Y-116952385D01*
X119630140Y-116967839D01*
X119650586Y-116978570D01*
X119692388Y-117015603D01*
X119734264Y-117047736D01*
X119746165Y-117063246D01*
X119758778Y-117074420D01*
X119794943Y-117126815D01*
X119829615Y-117172000D01*
X119834841Y-117184617D01*
X119840882Y-117193369D01*
X119867089Y-117262471D01*
X119889555Y-117316709D01*
X119890563Y-117324366D01*
X119892136Y-117328514D01*
X119904315Y-117428821D01*
X119910000Y-117472000D01*
X119904314Y-117515182D01*
X119892136Y-117615485D01*
X119890563Y-117619631D01*
X119889555Y-117627291D01*
X119867084Y-117681539D01*
X119840882Y-117750630D01*
X119834842Y-117759380D01*
X119829615Y-117772000D01*
X119794936Y-117817193D01*
X119758778Y-117869579D01*
X119746167Y-117880750D01*
X119734264Y-117896264D01*
X119692379Y-117928402D01*
X119650586Y-117965429D01*
X119630144Y-117976157D01*
X119610000Y-117991615D01*
X119565845Y-118009904D01*
X119522610Y-118032596D01*
X119494092Y-118039624D01*
X119465291Y-118051555D01*
X119423219Y-118057093D01*
X119382267Y-118067188D01*
X119346550Y-118067188D01*
X119310000Y-118072000D01*
X119273450Y-118067188D01*
X119237733Y-118067188D01*
X119196780Y-118057093D01*
X119154709Y-118051555D01*
X119125908Y-118039625D01*
X119097389Y-118032596D01*
X119054149Y-118009902D01*
X119010000Y-117991615D01*
X118989857Y-117976159D01*
X118969413Y-117965429D01*
X118927612Y-117928397D01*
X118885736Y-117896264D01*
X118873834Y-117880753D01*
X118861221Y-117869579D01*
X118825053Y-117817180D01*
X118790385Y-117772000D01*
X118785159Y-117759383D01*
X118779117Y-117750630D01*
X118752903Y-117681510D01*
X118730445Y-117627291D01*
X118729437Y-117619635D01*
X118727863Y-117615485D01*
X118715672Y-117515084D01*
X118710000Y-117472000D01*
X118715671Y-117428919D01*
X118727863Y-117328514D01*
X118729437Y-117324362D01*
X118730445Y-117316709D01*
X118752898Y-117262500D01*
X118779117Y-117193369D01*
X118785160Y-117184613D01*
X118790385Y-117172000D01*
X118825046Y-117126828D01*
X118861221Y-117074420D01*
X118873836Y-117063243D01*
X118885736Y-117047736D01*
X118927604Y-117015609D01*
X118969413Y-116978570D01*
X118989861Y-116967837D01*
X119010000Y-116952385D01*
X119054140Y-116934101D01*
X119097389Y-116911403D01*
X119125913Y-116904372D01*
X119154709Y-116892445D01*
X119196777Y-116886906D01*
X119237733Y-116876812D01*
X119273450Y-116876812D01*
X119310000Y-116872000D01*
X119346550Y-116876812D01*
G37*
G36*
X90570641Y-112286802D02*
G01*
X90639976Y-112286802D01*
X90715193Y-112297140D01*
X90788130Y-112302357D01*
X90848169Y-112315417D01*
X90910383Y-112323969D01*
X90989919Y-112346253D01*
X91066965Y-112363014D01*
X91118976Y-112382413D01*
X91173208Y-112397608D01*
X91255196Y-112433220D01*
X91334330Y-112462736D01*
X91377824Y-112486485D01*
X91423568Y-112506355D01*
X91505865Y-112556401D01*
X91584782Y-112599493D01*
X91619653Y-112625597D01*
X91656777Y-112648173D01*
X91737050Y-112713480D01*
X91813221Y-112770501D01*
X91839762Y-112797042D01*
X91868512Y-112820432D01*
X91944282Y-112901562D01*
X92014999Y-112972279D01*
X92033869Y-112997486D01*
X92054815Y-113019914D01*
X92123507Y-113117228D01*
X92186007Y-113200718D01*
X92198189Y-113223029D01*
X92212219Y-113242904D01*
X92271253Y-113356836D01*
X92322764Y-113451170D01*
X92329521Y-113469287D01*
X92337791Y-113485247D01*
X92384625Y-113617028D01*
X92422486Y-113718535D01*
X92425302Y-113731480D01*
X92429200Y-113742448D01*
X92461480Y-113897787D01*
X92483143Y-113997370D01*
X92483651Y-114004482D01*
X92484733Y-114009686D01*
X92500269Y-114236835D01*
X92503500Y-114282000D01*
X92500269Y-114327167D01*
X92484733Y-114554313D01*
X92483651Y-114559515D01*
X92483143Y-114566630D01*
X92461475Y-114666233D01*
X92429200Y-114821551D01*
X92425302Y-114832517D01*
X92422486Y-114845465D01*
X92384618Y-114946991D01*
X92337791Y-115078752D01*
X92329522Y-115094708D01*
X92322764Y-115112830D01*
X92271243Y-115207182D01*
X92212219Y-115321095D01*
X92198192Y-115340966D01*
X92186007Y-115363282D01*
X92123494Y-115446788D01*
X92054815Y-115544085D01*
X92033872Y-115566508D01*
X92014999Y-115591721D01*
X91944268Y-115662451D01*
X91868512Y-115743567D01*
X91839768Y-115766951D01*
X91813221Y-115793499D01*
X91737034Y-115850531D01*
X91656777Y-115915826D01*
X91619660Y-115938396D01*
X91584782Y-115964507D01*
X91505849Y-116007607D01*
X91423568Y-116057644D01*
X91377833Y-116077509D01*
X91334330Y-116101264D01*
X91255180Y-116130785D01*
X91173208Y-116166391D01*
X91118987Y-116181582D01*
X91066965Y-116200986D01*
X90989903Y-116217749D01*
X90910383Y-116240030D01*
X90848179Y-116248580D01*
X90788130Y-116261643D01*
X90715189Y-116266859D01*
X90639976Y-116277198D01*
X90570641Y-116277198D01*
X90503500Y-116282000D01*
X90436359Y-116277198D01*
X90367024Y-116277198D01*
X90291810Y-116266859D01*
X90218870Y-116261643D01*
X90158821Y-116248580D01*
X90096616Y-116240030D01*
X90017092Y-116217748D01*
X89940035Y-116200986D01*
X89888015Y-116181583D01*
X89833791Y-116166391D01*
X89751812Y-116130782D01*
X89672670Y-116101264D01*
X89629170Y-116077511D01*
X89583431Y-116057644D01*
X89501140Y-116007602D01*
X89422218Y-115964507D01*
X89387343Y-115938400D01*
X89350222Y-115915826D01*
X89269952Y-115850522D01*
X89193779Y-115793499D01*
X89167236Y-115766956D01*
X89138487Y-115743567D01*
X89062716Y-115662436D01*
X88992001Y-115591721D01*
X88973131Y-115566513D01*
X88952184Y-115544085D01*
X88883487Y-115446764D01*
X88820993Y-115363282D01*
X88808811Y-115340972D01*
X88794780Y-115321095D01*
X88735736Y-115207146D01*
X88684236Y-115112830D01*
X88677479Y-115094715D01*
X88669208Y-115078752D01*
X88622360Y-114946935D01*
X88584514Y-114845465D01*
X88581698Y-114832524D01*
X88577799Y-114821551D01*
X88545502Y-114666131D01*
X88523857Y-114566630D01*
X88523348Y-114559523D01*
X88522266Y-114554313D01*
X88506707Y-114326847D01*
X88503500Y-114282000D01*
X88506707Y-114237156D01*
X88522266Y-114009686D01*
X88523348Y-114004475D01*
X88523857Y-113997370D01*
X88545497Y-113897890D01*
X88577799Y-113742448D01*
X88581699Y-113731473D01*
X88584514Y-113718535D01*
X88622352Y-113617085D01*
X88669208Y-113485247D01*
X88677481Y-113469280D01*
X88684236Y-113451170D01*
X88735726Y-113356871D01*
X88794780Y-113242904D01*
X88808813Y-113223023D01*
X88820993Y-113200718D01*
X88883475Y-113117251D01*
X88952184Y-113019914D01*
X88973134Y-112997480D01*
X88992001Y-112972279D01*
X89062702Y-112901577D01*
X89138487Y-112820432D01*
X89167241Y-112797038D01*
X89193779Y-112770501D01*
X89269937Y-112713489D01*
X89350222Y-112648173D01*
X89387350Y-112625594D01*
X89422218Y-112599493D01*
X89501124Y-112556406D01*
X89583431Y-112506355D01*
X89629179Y-112486483D01*
X89672670Y-112462736D01*
X89751796Y-112433223D01*
X89833791Y-112397608D01*
X89888026Y-112382412D01*
X89940035Y-112363014D01*
X90017076Y-112346254D01*
X90096616Y-112323969D01*
X90158831Y-112315417D01*
X90218870Y-112302357D01*
X90291806Y-112297140D01*
X90367024Y-112286802D01*
X90436359Y-112286802D01*
X90503500Y-112282000D01*
X90570641Y-112286802D01*
G37*
G36*
X119346550Y-114876812D02*
G01*
X119382267Y-114876812D01*
X119423221Y-114886906D01*
X119465291Y-114892445D01*
X119494088Y-114904373D01*
X119522610Y-114911403D01*
X119565854Y-114934099D01*
X119610000Y-114952385D01*
X119630140Y-114967839D01*
X119650586Y-114978570D01*
X119692388Y-115015603D01*
X119734264Y-115047736D01*
X119746165Y-115063246D01*
X119758778Y-115074420D01*
X119794943Y-115126815D01*
X119829615Y-115172000D01*
X119834841Y-115184617D01*
X119840882Y-115193369D01*
X119867089Y-115262471D01*
X119889555Y-115316709D01*
X119890563Y-115324366D01*
X119892136Y-115328514D01*
X119904315Y-115428821D01*
X119910000Y-115472000D01*
X119904314Y-115515182D01*
X119892136Y-115615485D01*
X119890563Y-115619631D01*
X119889555Y-115627291D01*
X119867084Y-115681539D01*
X119840882Y-115750630D01*
X119834842Y-115759380D01*
X119829615Y-115772000D01*
X119794936Y-115817193D01*
X119758778Y-115869579D01*
X119746167Y-115880750D01*
X119734264Y-115896264D01*
X119692379Y-115928402D01*
X119650586Y-115965429D01*
X119630144Y-115976157D01*
X119610000Y-115991615D01*
X119565845Y-116009904D01*
X119522610Y-116032596D01*
X119494092Y-116039624D01*
X119465291Y-116051555D01*
X119423219Y-116057093D01*
X119382267Y-116067188D01*
X119346550Y-116067188D01*
X119310000Y-116072000D01*
X119273450Y-116067188D01*
X119237733Y-116067188D01*
X119196780Y-116057093D01*
X119154709Y-116051555D01*
X119125908Y-116039625D01*
X119097389Y-116032596D01*
X119054149Y-116009902D01*
X119010000Y-115991615D01*
X118989857Y-115976159D01*
X118969413Y-115965429D01*
X118927612Y-115928397D01*
X118885736Y-115896264D01*
X118873834Y-115880753D01*
X118861221Y-115869579D01*
X118825053Y-115817180D01*
X118790385Y-115772000D01*
X118785159Y-115759383D01*
X118779117Y-115750630D01*
X118752903Y-115681510D01*
X118730445Y-115627291D01*
X118729437Y-115619635D01*
X118727863Y-115615485D01*
X118715672Y-115515084D01*
X118710000Y-115472000D01*
X118715671Y-115428919D01*
X118727863Y-115328514D01*
X118729437Y-115324362D01*
X118730445Y-115316709D01*
X118752898Y-115262500D01*
X118779117Y-115193369D01*
X118785160Y-115184613D01*
X118790385Y-115172000D01*
X118825046Y-115126828D01*
X118861221Y-115074420D01*
X118873836Y-115063243D01*
X118885736Y-115047736D01*
X118927604Y-115015609D01*
X118969413Y-114978570D01*
X118989861Y-114967837D01*
X119010000Y-114952385D01*
X119054140Y-114934101D01*
X119097389Y-114911403D01*
X119125913Y-114904372D01*
X119154709Y-114892445D01*
X119196777Y-114886906D01*
X119237733Y-114876812D01*
X119273450Y-114876812D01*
X119310000Y-114872000D01*
X119346550Y-114876812D01*
G37*
G36*
X140258664Y-108678602D02*
G01*
X140421000Y-108750878D01*
X140564761Y-108855327D01*
X140683664Y-108987383D01*
X140772514Y-109141274D01*
X140827425Y-109310275D01*
X140846000Y-109487000D01*
X140827425Y-109663725D01*
X140772514Y-109832726D01*
X140683664Y-109986617D01*
X140564761Y-110118673D01*
X140421000Y-110223122D01*
X140258664Y-110295398D01*
X140084849Y-110332344D01*
X139907151Y-110332344D01*
X139733336Y-110295398D01*
X139571000Y-110223122D01*
X139427239Y-110118673D01*
X139308336Y-109986617D01*
X139219486Y-109832726D01*
X139164575Y-109663725D01*
X139146000Y-109487000D01*
X139164575Y-109310275D01*
X139219486Y-109141274D01*
X139308336Y-108987383D01*
X139427239Y-108855327D01*
X139571000Y-108750878D01*
X139733336Y-108678602D01*
X139907151Y-108641656D01*
X140084849Y-108641656D01*
X140258664Y-108678602D01*
G37*
G36*
X100091500Y-108444500D02*
G01*
X98874500Y-108444500D01*
X98874500Y-107227500D01*
X100091500Y-107227500D01*
X100091500Y-108444500D01*
G37*
G36*
X121618022Y-106906341D02*
G01*
X121654296Y-106906341D01*
X121695885Y-106916591D01*
X121738491Y-106922201D01*
X121767656Y-106934281D01*
X121796617Y-106941420D01*
X121840530Y-106964467D01*
X121885250Y-106982991D01*
X121905650Y-106998645D01*
X121926417Y-107009544D01*
X121968879Y-107047162D01*
X122011274Y-107079693D01*
X122023322Y-107095394D01*
X122036140Y-107106750D01*
X122072889Y-107159992D01*
X122107976Y-107205717D01*
X122113265Y-107218487D01*
X122119408Y-107227386D01*
X122146053Y-107297643D01*
X122168766Y-107352476D01*
X122169785Y-107360218D01*
X122171389Y-107364447D01*
X122183813Y-107466770D01*
X122189500Y-107509967D01*
X122183812Y-107553167D01*
X122171389Y-107655486D01*
X122169785Y-107659713D01*
X122168766Y-107667458D01*
X122146048Y-107722301D01*
X122119408Y-107792547D01*
X122113266Y-107801444D01*
X122107976Y-107814217D01*
X122072883Y-107859950D01*
X122036140Y-107913183D01*
X122023324Y-107924536D01*
X122011274Y-107940241D01*
X121968870Y-107972778D01*
X121926417Y-108010389D01*
X121905654Y-108021285D01*
X121885250Y-108036943D01*
X121840521Y-108055470D01*
X121796617Y-108078513D01*
X121767661Y-108085650D01*
X121738491Y-108097733D01*
X121695882Y-108103342D01*
X121654296Y-108113593D01*
X121618022Y-108113593D01*
X121581000Y-108118467D01*
X121543978Y-108113593D01*
X121507704Y-108113593D01*
X121466116Y-108103342D01*
X121423509Y-108097733D01*
X121394339Y-108085650D01*
X121365382Y-108078513D01*
X121321474Y-108055468D01*
X121276750Y-108036943D01*
X121256347Y-108021287D01*
X121235582Y-108010389D01*
X121193121Y-107972772D01*
X121150726Y-107940241D01*
X121138677Y-107924539D01*
X121125859Y-107913183D01*
X121089106Y-107859937D01*
X121054024Y-107814217D01*
X121048734Y-107801448D01*
X121042591Y-107792547D01*
X121015939Y-107722272D01*
X120993234Y-107667458D01*
X120992215Y-107659718D01*
X120990610Y-107655486D01*
X120978174Y-107553069D01*
X120972500Y-107509967D01*
X120978174Y-107466867D01*
X120990610Y-107364447D01*
X120992215Y-107360214D01*
X120993234Y-107352476D01*
X121015934Y-107297672D01*
X121042591Y-107227386D01*
X121048735Y-107218483D01*
X121054024Y-107205717D01*
X121089100Y-107160005D01*
X121125859Y-107106750D01*
X121138679Y-107095391D01*
X121150726Y-107079693D01*
X121193113Y-107047167D01*
X121235582Y-107009544D01*
X121256351Y-106998643D01*
X121276750Y-106982991D01*
X121321465Y-106964469D01*
X121365382Y-106941420D01*
X121394344Y-106934281D01*
X121423509Y-106922201D01*
X121466113Y-106916591D01*
X121507704Y-106906341D01*
X121543978Y-106906341D01*
X121581000Y-106901467D01*
X121618022Y-106906341D01*
G37*
G36*
X140258664Y-106138602D02*
G01*
X140421000Y-106210878D01*
X140564761Y-106315327D01*
X140683664Y-106447383D01*
X140772514Y-106601274D01*
X140827425Y-106770275D01*
X140846000Y-106947000D01*
X140827425Y-107123725D01*
X140772514Y-107292726D01*
X140683664Y-107446617D01*
X140564761Y-107578673D01*
X140421000Y-107683122D01*
X140258664Y-107755398D01*
X140084849Y-107792344D01*
X139907151Y-107792344D01*
X139733336Y-107755398D01*
X139571000Y-107683122D01*
X139427239Y-107578673D01*
X139308336Y-107446617D01*
X139219486Y-107292726D01*
X139164575Y-107123725D01*
X139146000Y-106947000D01*
X139164575Y-106770275D01*
X139219486Y-106601274D01*
X139308336Y-106447383D01*
X139427239Y-106315327D01*
X139571000Y-106210878D01*
X139733336Y-106138602D01*
X139907151Y-106101656D01*
X140084849Y-106101656D01*
X140258664Y-106138602D01*
G37*
G36*
X102060022Y-104692374D02*
G01*
X102096296Y-104692374D01*
X102137885Y-104702624D01*
X102180491Y-104708234D01*
X102209656Y-104720314D01*
X102238617Y-104727453D01*
X102282530Y-104750500D01*
X102327250Y-104769024D01*
X102347650Y-104784678D01*
X102368417Y-104795577D01*
X102410879Y-104833195D01*
X102453274Y-104865726D01*
X102465322Y-104881427D01*
X102478140Y-104892783D01*
X102514889Y-104946025D01*
X102549976Y-104991750D01*
X102555265Y-105004520D01*
X102561408Y-105013419D01*
X102588053Y-105083676D01*
X102610766Y-105138509D01*
X102611785Y-105146251D01*
X102613389Y-105150480D01*
X102625813Y-105252803D01*
X102631500Y-105296000D01*
X102625812Y-105339200D01*
X102613389Y-105441519D01*
X102611785Y-105445746D01*
X102610766Y-105453491D01*
X102588048Y-105508334D01*
X102561408Y-105578580D01*
X102555266Y-105587477D01*
X102549976Y-105600250D01*
X102514883Y-105645983D01*
X102478140Y-105699216D01*
X102465324Y-105710569D01*
X102453274Y-105726274D01*
X102410870Y-105758811D01*
X102368417Y-105796422D01*
X102347654Y-105807318D01*
X102327250Y-105822976D01*
X102282521Y-105841503D01*
X102238617Y-105864546D01*
X102209661Y-105871683D01*
X102180491Y-105883766D01*
X102137882Y-105889375D01*
X102096296Y-105899626D01*
X102060022Y-105899626D01*
X102023000Y-105904500D01*
X101985978Y-105899626D01*
X101949704Y-105899626D01*
X101908116Y-105889375D01*
X101865509Y-105883766D01*
X101836339Y-105871683D01*
X101807382Y-105864546D01*
X101763474Y-105841501D01*
X101718750Y-105822976D01*
X101698347Y-105807320D01*
X101677582Y-105796422D01*
X101635121Y-105758805D01*
X101592726Y-105726274D01*
X101580677Y-105710572D01*
X101567859Y-105699216D01*
X101531106Y-105645970D01*
X101496024Y-105600250D01*
X101490734Y-105587481D01*
X101484591Y-105578580D01*
X101457939Y-105508305D01*
X101435234Y-105453491D01*
X101434215Y-105445751D01*
X101432610Y-105441519D01*
X101420174Y-105339102D01*
X101414500Y-105296000D01*
X101420174Y-105252900D01*
X101432610Y-105150480D01*
X101434215Y-105146247D01*
X101435234Y-105138509D01*
X101457934Y-105083705D01*
X101484591Y-105013419D01*
X101490735Y-105004516D01*
X101496024Y-104991750D01*
X101531100Y-104946038D01*
X101567859Y-104892783D01*
X101580679Y-104881424D01*
X101592726Y-104865726D01*
X101635113Y-104833200D01*
X101677582Y-104795577D01*
X101698351Y-104784676D01*
X101718750Y-104769024D01*
X101763465Y-104750502D01*
X101807382Y-104727453D01*
X101836344Y-104720314D01*
X101865509Y-104708234D01*
X101908113Y-104702624D01*
X101949704Y-104692374D01*
X101985978Y-104692374D01*
X102023000Y-104687500D01*
X102060022Y-104692374D01*
G37*
G36*
X119078022Y-104366341D02*
G01*
X119114296Y-104366341D01*
X119155885Y-104376591D01*
X119198491Y-104382201D01*
X119227656Y-104394281D01*
X119256617Y-104401420D01*
X119300530Y-104424467D01*
X119345250Y-104442991D01*
X119365650Y-104458645D01*
X119386417Y-104469544D01*
X119428879Y-104507162D01*
X119471274Y-104539693D01*
X119483322Y-104555394D01*
X119496140Y-104566750D01*
X119532889Y-104619992D01*
X119567976Y-104665717D01*
X119573265Y-104678487D01*
X119579408Y-104687386D01*
X119606053Y-104757643D01*
X119628766Y-104812476D01*
X119629785Y-104820218D01*
X119631389Y-104824447D01*
X119643813Y-104926770D01*
X119649500Y-104969967D01*
X119643812Y-105013167D01*
X119631389Y-105115486D01*
X119629785Y-105119713D01*
X119628766Y-105127458D01*
X119606048Y-105182301D01*
X119579408Y-105252547D01*
X119573266Y-105261444D01*
X119567976Y-105274217D01*
X119532883Y-105319950D01*
X119496140Y-105373183D01*
X119483324Y-105384536D01*
X119471274Y-105400241D01*
X119428870Y-105432778D01*
X119386417Y-105470389D01*
X119365654Y-105481285D01*
X119345250Y-105496943D01*
X119300521Y-105515470D01*
X119256617Y-105538513D01*
X119227661Y-105545650D01*
X119198491Y-105557733D01*
X119155882Y-105563342D01*
X119114296Y-105573593D01*
X119078022Y-105573593D01*
X119041000Y-105578467D01*
X119003978Y-105573593D01*
X118967704Y-105573593D01*
X118926116Y-105563342D01*
X118883509Y-105557733D01*
X118854339Y-105545650D01*
X118825382Y-105538513D01*
X118781474Y-105515468D01*
X118736750Y-105496943D01*
X118716347Y-105481287D01*
X118695582Y-105470389D01*
X118653121Y-105432772D01*
X118610726Y-105400241D01*
X118598677Y-105384539D01*
X118585859Y-105373183D01*
X118549106Y-105319937D01*
X118514024Y-105274217D01*
X118508734Y-105261448D01*
X118502591Y-105252547D01*
X118475939Y-105182272D01*
X118453234Y-105127458D01*
X118452215Y-105119718D01*
X118450610Y-105115486D01*
X118438174Y-105013069D01*
X118432500Y-104969967D01*
X118438174Y-104926867D01*
X118450610Y-104824447D01*
X118452215Y-104820214D01*
X118453234Y-104812476D01*
X118475934Y-104757672D01*
X118502591Y-104687386D01*
X118508735Y-104678483D01*
X118514024Y-104665717D01*
X118549100Y-104620005D01*
X118585859Y-104566750D01*
X118598679Y-104555391D01*
X118610726Y-104539693D01*
X118653113Y-104507167D01*
X118695582Y-104469544D01*
X118716351Y-104458643D01*
X118736750Y-104442991D01*
X118781465Y-104424469D01*
X118825382Y-104401420D01*
X118854344Y-104394281D01*
X118883509Y-104382201D01*
X118926113Y-104376591D01*
X118967704Y-104366341D01*
X119003978Y-104366341D01*
X119041000Y-104361467D01*
X119078022Y-104366341D01*
G37*
G36*
X140258664Y-103598602D02*
G01*
X140421000Y-103670878D01*
X140564761Y-103775327D01*
X140683664Y-103907383D01*
X140772514Y-104061274D01*
X140827425Y-104230275D01*
X140846000Y-104407000D01*
X140827425Y-104583725D01*
X140772514Y-104752726D01*
X140683664Y-104906617D01*
X140564761Y-105038673D01*
X140421000Y-105143122D01*
X140258664Y-105215398D01*
X140084849Y-105252344D01*
X139907151Y-105252344D01*
X139733336Y-105215398D01*
X139571000Y-105143122D01*
X139427239Y-105038673D01*
X139308336Y-104906617D01*
X139219486Y-104752726D01*
X139164575Y-104583725D01*
X139146000Y-104407000D01*
X139164575Y-104230275D01*
X139219486Y-104061274D01*
X139308336Y-103907383D01*
X139427239Y-103775327D01*
X139571000Y-103670878D01*
X139733336Y-103598602D01*
X139907151Y-103561656D01*
X140084849Y-103561656D01*
X140258664Y-103598602D01*
G37*
G36*
X99520022Y-102152374D02*
G01*
X99556296Y-102152374D01*
X99597885Y-102162624D01*
X99640491Y-102168234D01*
X99669656Y-102180314D01*
X99698617Y-102187453D01*
X99742530Y-102210500D01*
X99787250Y-102229024D01*
X99807650Y-102244678D01*
X99828417Y-102255577D01*
X99870879Y-102293195D01*
X99913274Y-102325726D01*
X99925322Y-102341427D01*
X99938140Y-102352783D01*
X99974889Y-102406025D01*
X100009976Y-102451750D01*
X100015265Y-102464520D01*
X100021408Y-102473419D01*
X100048053Y-102543676D01*
X100070766Y-102598509D01*
X100071785Y-102606251D01*
X100073389Y-102610480D01*
X100085813Y-102712803D01*
X100091500Y-102756000D01*
X100085812Y-102799200D01*
X100073389Y-102901519D01*
X100071785Y-102905746D01*
X100070766Y-102913491D01*
X100048048Y-102968334D01*
X100021408Y-103038580D01*
X100015266Y-103047477D01*
X100009976Y-103060250D01*
X99974883Y-103105983D01*
X99938140Y-103159216D01*
X99925324Y-103170569D01*
X99913274Y-103186274D01*
X99870870Y-103218811D01*
X99828417Y-103256422D01*
X99807654Y-103267318D01*
X99787250Y-103282976D01*
X99742521Y-103301503D01*
X99698617Y-103324546D01*
X99669661Y-103331683D01*
X99640491Y-103343766D01*
X99597882Y-103349375D01*
X99556296Y-103359626D01*
X99520022Y-103359626D01*
X99483000Y-103364500D01*
X99445978Y-103359626D01*
X99409704Y-103359626D01*
X99368116Y-103349375D01*
X99325509Y-103343766D01*
X99296339Y-103331683D01*
X99267382Y-103324546D01*
X99223474Y-103301501D01*
X99178750Y-103282976D01*
X99158347Y-103267320D01*
X99137582Y-103256422D01*
X99095121Y-103218805D01*
X99052726Y-103186274D01*
X99040677Y-103170572D01*
X99027859Y-103159216D01*
X98991106Y-103105970D01*
X98956024Y-103060250D01*
X98950734Y-103047481D01*
X98944591Y-103038580D01*
X98917939Y-102968305D01*
X98895234Y-102913491D01*
X98894215Y-102905751D01*
X98892610Y-102901519D01*
X98880174Y-102799102D01*
X98874500Y-102756000D01*
X98880174Y-102712900D01*
X98892610Y-102610480D01*
X98894215Y-102606247D01*
X98895234Y-102598509D01*
X98917934Y-102543705D01*
X98944591Y-102473419D01*
X98950735Y-102464516D01*
X98956024Y-102451750D01*
X98991100Y-102406038D01*
X99027859Y-102352783D01*
X99040679Y-102341424D01*
X99052726Y-102325726D01*
X99095113Y-102293200D01*
X99137582Y-102255577D01*
X99158351Y-102244676D01*
X99178750Y-102229024D01*
X99223465Y-102210502D01*
X99267382Y-102187453D01*
X99296344Y-102180314D01*
X99325509Y-102168234D01*
X99368113Y-102162624D01*
X99409704Y-102152374D01*
X99445978Y-102152374D01*
X99483000Y-102147500D01*
X99520022Y-102152374D01*
G37*
G36*
X122189500Y-103038467D02*
G01*
X120972500Y-103038467D01*
X120972500Y-101821467D01*
X122189500Y-101821467D01*
X122189500Y-103038467D01*
G37*
G36*
X140846000Y-102717000D02*
G01*
X139146000Y-102717000D01*
X139146000Y-101017000D01*
X140846000Y-101017000D01*
X140846000Y-102717000D01*
G37*
G36*
X116806550Y-96540812D02*
G01*
X116842267Y-96540812D01*
X116883221Y-96550906D01*
X116925291Y-96556445D01*
X116954088Y-96568373D01*
X116982610Y-96575403D01*
X117025854Y-96598099D01*
X117070000Y-96616385D01*
X117090140Y-96631839D01*
X117110586Y-96642570D01*
X117152388Y-96679603D01*
X117194264Y-96711736D01*
X117206165Y-96727246D01*
X117218778Y-96738420D01*
X117254943Y-96790815D01*
X117289615Y-96836000D01*
X117294841Y-96848617D01*
X117300882Y-96857369D01*
X117327089Y-96926471D01*
X117349555Y-96980709D01*
X117350563Y-96988366D01*
X117352136Y-96992514D01*
X117364315Y-97092821D01*
X117370000Y-97136000D01*
X117364314Y-97179182D01*
X117352136Y-97279485D01*
X117350563Y-97283631D01*
X117349555Y-97291291D01*
X117327084Y-97345539D01*
X117300882Y-97414630D01*
X117294842Y-97423380D01*
X117289615Y-97436000D01*
X117254936Y-97481193D01*
X117218778Y-97533579D01*
X117206167Y-97544750D01*
X117194264Y-97560264D01*
X117152379Y-97592402D01*
X117110586Y-97629429D01*
X117090144Y-97640157D01*
X117070000Y-97655615D01*
X117025845Y-97673904D01*
X116982610Y-97696596D01*
X116954092Y-97703624D01*
X116925291Y-97715555D01*
X116883219Y-97721093D01*
X116842267Y-97731188D01*
X116806550Y-97731188D01*
X116770000Y-97736000D01*
X116733450Y-97731188D01*
X116697733Y-97731188D01*
X116656780Y-97721093D01*
X116614709Y-97715555D01*
X116585908Y-97703625D01*
X116557389Y-97696596D01*
X116514149Y-97673902D01*
X116470000Y-97655615D01*
X116449857Y-97640159D01*
X116429413Y-97629429D01*
X116387612Y-97592397D01*
X116345736Y-97560264D01*
X116333834Y-97544753D01*
X116321221Y-97533579D01*
X116285053Y-97481180D01*
X116250385Y-97436000D01*
X116245159Y-97423383D01*
X116239117Y-97414630D01*
X116212903Y-97345510D01*
X116190445Y-97291291D01*
X116189437Y-97283635D01*
X116187863Y-97279485D01*
X116175672Y-97179084D01*
X116170000Y-97136000D01*
X116175671Y-97092919D01*
X116187863Y-96992514D01*
X116189437Y-96988362D01*
X116190445Y-96980709D01*
X116212898Y-96926500D01*
X116239117Y-96857369D01*
X116245160Y-96848613D01*
X116250385Y-96836000D01*
X116285046Y-96790828D01*
X116321221Y-96738420D01*
X116333836Y-96727243D01*
X116345736Y-96711736D01*
X116387604Y-96679609D01*
X116429413Y-96642570D01*
X116449861Y-96631837D01*
X116470000Y-96616385D01*
X116514140Y-96598101D01*
X116557389Y-96575403D01*
X116585913Y-96568372D01*
X116614709Y-96556445D01*
X116656777Y-96550906D01*
X116697733Y-96540812D01*
X116733450Y-96540812D01*
X116770000Y-96536000D01*
X116806550Y-96540812D01*
G37*
G36*
X91326000Y-97637000D02*
G01*
X89626000Y-97637000D01*
X89626000Y-95937000D01*
X91326000Y-95937000D01*
X91326000Y-97637000D01*
G37*
G36*
X93278664Y-95978602D02*
G01*
X93441000Y-96050878D01*
X93584761Y-96155327D01*
X93703664Y-96287383D01*
X93792514Y-96441274D01*
X93847425Y-96610275D01*
X93866000Y-96787000D01*
X93847425Y-96963725D01*
X93792514Y-97132726D01*
X93703664Y-97286617D01*
X93584761Y-97418673D01*
X93441000Y-97523122D01*
X93278664Y-97595398D01*
X93104849Y-97632344D01*
X92927151Y-97632344D01*
X92753336Y-97595398D01*
X92591000Y-97523122D01*
X92447239Y-97418673D01*
X92328336Y-97286617D01*
X92239486Y-97132726D01*
X92184575Y-96963725D01*
X92166000Y-96787000D01*
X92184575Y-96610275D01*
X92239486Y-96441274D01*
X92328336Y-96287383D01*
X92447239Y-96155327D01*
X92591000Y-96050878D01*
X92753336Y-95978602D01*
X92927151Y-95941656D01*
X93104849Y-95941656D01*
X93278664Y-95978602D01*
G37*
G36*
X116806550Y-94540812D02*
G01*
X116842267Y-94540812D01*
X116883221Y-94550906D01*
X116925291Y-94556445D01*
X116954088Y-94568373D01*
X116982610Y-94575403D01*
X117025854Y-94598099D01*
X117070000Y-94616385D01*
X117090140Y-94631839D01*
X117110586Y-94642570D01*
X117152388Y-94679603D01*
X117194264Y-94711736D01*
X117206165Y-94727246D01*
X117218778Y-94738420D01*
X117254943Y-94790815D01*
X117289615Y-94836000D01*
X117294841Y-94848617D01*
X117300882Y-94857369D01*
X117327089Y-94926471D01*
X117349555Y-94980709D01*
X117350563Y-94988366D01*
X117352136Y-94992514D01*
X117364315Y-95092821D01*
X117370000Y-95136000D01*
X117364314Y-95179182D01*
X117352136Y-95279485D01*
X117350563Y-95283631D01*
X117349555Y-95291291D01*
X117327084Y-95345539D01*
X117300882Y-95414630D01*
X117294842Y-95423380D01*
X117289615Y-95436000D01*
X117254936Y-95481193D01*
X117218778Y-95533579D01*
X117206167Y-95544750D01*
X117194264Y-95560264D01*
X117152379Y-95592402D01*
X117110586Y-95629429D01*
X117090144Y-95640157D01*
X117070000Y-95655615D01*
X117025845Y-95673904D01*
X116982610Y-95696596D01*
X116954092Y-95703624D01*
X116925291Y-95715555D01*
X116883219Y-95721093D01*
X116842267Y-95731188D01*
X116806550Y-95731188D01*
X116770000Y-95736000D01*
X116733450Y-95731188D01*
X116697733Y-95731188D01*
X116656780Y-95721093D01*
X116614709Y-95715555D01*
X116585908Y-95703625D01*
X116557389Y-95696596D01*
X116514149Y-95673902D01*
X116470000Y-95655615D01*
X116449857Y-95640159D01*
X116429413Y-95629429D01*
X116387612Y-95592397D01*
X116345736Y-95560264D01*
X116333834Y-95544753D01*
X116321221Y-95533579D01*
X116285053Y-95481180D01*
X116250385Y-95436000D01*
X116245159Y-95423383D01*
X116239117Y-95414630D01*
X116212903Y-95345510D01*
X116190445Y-95291291D01*
X116189437Y-95283635D01*
X116187863Y-95279485D01*
X116175672Y-95179084D01*
X116170000Y-95136000D01*
X116175671Y-95092919D01*
X116187863Y-94992514D01*
X116189437Y-94988362D01*
X116190445Y-94980709D01*
X116212898Y-94926500D01*
X116239117Y-94857369D01*
X116245160Y-94848613D01*
X116250385Y-94836000D01*
X116285046Y-94790828D01*
X116321221Y-94738420D01*
X116333836Y-94727243D01*
X116345736Y-94711736D01*
X116387604Y-94679609D01*
X116429413Y-94642570D01*
X116449861Y-94631837D01*
X116470000Y-94616385D01*
X116514140Y-94598101D01*
X116557389Y-94575403D01*
X116585913Y-94568372D01*
X116614709Y-94556445D01*
X116656777Y-94550906D01*
X116697733Y-94540812D01*
X116733450Y-94540812D01*
X116770000Y-94536000D01*
X116806550Y-94540812D01*
G37*
G36*
X140908664Y-87723602D02*
G01*
X141071000Y-87795878D01*
X141214761Y-87900327D01*
X141333664Y-88032383D01*
X141422514Y-88186274D01*
X141477425Y-88355275D01*
X141496000Y-88532000D01*
X141477425Y-88708725D01*
X141422514Y-88877726D01*
X141333664Y-89031617D01*
X141214761Y-89163673D01*
X141071000Y-89268122D01*
X140908664Y-89340398D01*
X140734849Y-89377344D01*
X140557151Y-89377344D01*
X140383336Y-89340398D01*
X140221000Y-89268122D01*
X140077239Y-89163673D01*
X139958336Y-89031617D01*
X139869486Y-88877726D01*
X139814575Y-88708725D01*
X139796000Y-88532000D01*
X139814575Y-88355275D01*
X139869486Y-88186274D01*
X139958336Y-88032383D01*
X140077239Y-87900327D01*
X140221000Y-87795878D01*
X140383336Y-87723602D01*
X140557151Y-87686656D01*
X140734849Y-87686656D01*
X140908664Y-87723602D01*
G37*
G36*
X122268022Y-86531374D02*
G01*
X122304296Y-86531374D01*
X122345885Y-86541624D01*
X122388491Y-86547234D01*
X122417656Y-86559314D01*
X122446617Y-86566453D01*
X122490530Y-86589500D01*
X122535250Y-86608024D01*
X122555650Y-86623678D01*
X122576417Y-86634577D01*
X122618879Y-86672195D01*
X122661274Y-86704726D01*
X122673322Y-86720427D01*
X122686140Y-86731783D01*
X122722889Y-86785025D01*
X122757976Y-86830750D01*
X122763265Y-86843520D01*
X122769408Y-86852419D01*
X122796053Y-86922676D01*
X122818766Y-86977509D01*
X122819785Y-86985251D01*
X122821389Y-86989480D01*
X122833813Y-87091803D01*
X122839500Y-87135000D01*
X122833812Y-87178200D01*
X122821389Y-87280519D01*
X122819785Y-87284746D01*
X122818766Y-87292491D01*
X122796048Y-87347334D01*
X122769408Y-87417580D01*
X122763266Y-87426477D01*
X122757976Y-87439250D01*
X122722883Y-87484983D01*
X122686140Y-87538216D01*
X122673324Y-87549569D01*
X122661274Y-87565274D01*
X122618870Y-87597811D01*
X122576417Y-87635422D01*
X122555654Y-87646318D01*
X122535250Y-87661976D01*
X122490521Y-87680503D01*
X122446617Y-87703546D01*
X122417661Y-87710683D01*
X122388491Y-87722766D01*
X122345882Y-87728375D01*
X122304296Y-87738626D01*
X122268022Y-87738626D01*
X122231000Y-87743500D01*
X122193978Y-87738626D01*
X122157704Y-87738626D01*
X122116116Y-87728375D01*
X122073509Y-87722766D01*
X122044339Y-87710683D01*
X122015382Y-87703546D01*
X121971474Y-87680501D01*
X121926750Y-87661976D01*
X121906347Y-87646320D01*
X121885582Y-87635422D01*
X121843121Y-87597805D01*
X121800726Y-87565274D01*
X121788677Y-87549572D01*
X121775859Y-87538216D01*
X121739106Y-87484970D01*
X121704024Y-87439250D01*
X121698734Y-87426481D01*
X121692591Y-87417580D01*
X121665939Y-87347305D01*
X121643234Y-87292491D01*
X121642215Y-87284751D01*
X121640610Y-87280519D01*
X121628174Y-87178102D01*
X121622500Y-87135000D01*
X121628174Y-87091900D01*
X121640610Y-86989480D01*
X121642215Y-86985247D01*
X121643234Y-86977509D01*
X121665934Y-86922705D01*
X121692591Y-86852419D01*
X121698735Y-86843516D01*
X121704024Y-86830750D01*
X121739100Y-86785038D01*
X121775859Y-86731783D01*
X121788679Y-86720424D01*
X121800726Y-86704726D01*
X121843113Y-86672200D01*
X121885582Y-86634577D01*
X121906351Y-86623676D01*
X121926750Y-86608024D01*
X121971465Y-86589502D01*
X122015382Y-86566453D01*
X122044344Y-86559314D01*
X122073509Y-86547234D01*
X122116113Y-86541624D01*
X122157704Y-86531374D01*
X122193978Y-86531374D01*
X122231000Y-86526500D01*
X122268022Y-86531374D01*
G37*
G36*
X140908664Y-85183602D02*
G01*
X141071000Y-85255878D01*
X141214761Y-85360327D01*
X141333664Y-85492383D01*
X141422514Y-85646274D01*
X141477425Y-85815275D01*
X141496000Y-85992000D01*
X141477425Y-86168725D01*
X141422514Y-86337726D01*
X141333664Y-86491617D01*
X141214761Y-86623673D01*
X141071000Y-86728122D01*
X140908664Y-86800398D01*
X140734849Y-86837344D01*
X140557151Y-86837344D01*
X140383336Y-86800398D01*
X140221000Y-86728122D01*
X140077239Y-86623673D01*
X139958336Y-86491617D01*
X139869486Y-86337726D01*
X139814575Y-86168725D01*
X139796000Y-85992000D01*
X139814575Y-85815275D01*
X139869486Y-85646274D01*
X139958336Y-85492383D01*
X140077239Y-85360327D01*
X140221000Y-85255878D01*
X140383336Y-85183602D01*
X140557151Y-85146656D01*
X140734849Y-85146656D01*
X140908664Y-85183602D01*
G37*
G36*
X119728022Y-83991374D02*
G01*
X119764296Y-83991374D01*
X119805885Y-84001624D01*
X119848491Y-84007234D01*
X119877656Y-84019314D01*
X119906617Y-84026453D01*
X119950530Y-84049500D01*
X119995250Y-84068024D01*
X120015650Y-84083678D01*
X120036417Y-84094577D01*
X120078879Y-84132195D01*
X120121274Y-84164726D01*
X120133322Y-84180427D01*
X120146140Y-84191783D01*
X120182889Y-84245025D01*
X120217976Y-84290750D01*
X120223265Y-84303520D01*
X120229408Y-84312419D01*
X120256053Y-84382676D01*
X120278766Y-84437509D01*
X120279785Y-84445251D01*
X120281389Y-84449480D01*
X120293813Y-84551803D01*
X120299500Y-84595000D01*
X120293812Y-84638200D01*
X120281389Y-84740519D01*
X120279785Y-84744746D01*
X120278766Y-84752491D01*
X120256048Y-84807334D01*
X120229408Y-84877580D01*
X120223266Y-84886477D01*
X120217976Y-84899250D01*
X120182883Y-84944983D01*
X120146140Y-84998216D01*
X120133324Y-85009569D01*
X120121274Y-85025274D01*
X120078870Y-85057811D01*
X120036417Y-85095422D01*
X120015654Y-85106318D01*
X119995250Y-85121976D01*
X119950521Y-85140503D01*
X119906617Y-85163546D01*
X119877661Y-85170683D01*
X119848491Y-85182766D01*
X119805882Y-85188375D01*
X119764296Y-85198626D01*
X119728022Y-85198626D01*
X119691000Y-85203500D01*
X119653978Y-85198626D01*
X119617704Y-85198626D01*
X119576116Y-85188375D01*
X119533509Y-85182766D01*
X119504339Y-85170683D01*
X119475382Y-85163546D01*
X119431474Y-85140501D01*
X119386750Y-85121976D01*
X119366347Y-85106320D01*
X119345582Y-85095422D01*
X119303121Y-85057805D01*
X119260726Y-85025274D01*
X119248677Y-85009572D01*
X119235859Y-84998216D01*
X119199106Y-84944970D01*
X119164024Y-84899250D01*
X119158734Y-84886481D01*
X119152591Y-84877580D01*
X119125939Y-84807305D01*
X119103234Y-84752491D01*
X119102215Y-84744751D01*
X119100610Y-84740519D01*
X119088174Y-84638102D01*
X119082500Y-84595000D01*
X119088174Y-84551900D01*
X119100610Y-84449480D01*
X119102215Y-84445247D01*
X119103234Y-84437509D01*
X119125934Y-84382705D01*
X119152591Y-84312419D01*
X119158735Y-84303516D01*
X119164024Y-84290750D01*
X119199100Y-84245038D01*
X119235859Y-84191783D01*
X119248679Y-84180424D01*
X119260726Y-84164726D01*
X119303113Y-84132200D01*
X119345582Y-84094577D01*
X119366351Y-84083676D01*
X119386750Y-84068024D01*
X119431465Y-84049502D01*
X119475382Y-84026453D01*
X119504344Y-84019314D01*
X119533509Y-84007234D01*
X119576113Y-84001624D01*
X119617704Y-83991374D01*
X119653978Y-83991374D01*
X119691000Y-83986500D01*
X119728022Y-83991374D01*
G37*
G36*
X140908664Y-82643602D02*
G01*
X141071000Y-82715878D01*
X141214761Y-82820327D01*
X141333664Y-82952383D01*
X141422514Y-83106274D01*
X141477425Y-83275275D01*
X141496000Y-83452000D01*
X141477425Y-83628725D01*
X141422514Y-83797726D01*
X141333664Y-83951617D01*
X141214761Y-84083673D01*
X141071000Y-84188122D01*
X140908664Y-84260398D01*
X140734849Y-84297344D01*
X140557151Y-84297344D01*
X140383336Y-84260398D01*
X140221000Y-84188122D01*
X140077239Y-84083673D01*
X139958336Y-83951617D01*
X139869486Y-83797726D01*
X139814575Y-83628725D01*
X139796000Y-83452000D01*
X139814575Y-83275275D01*
X139869486Y-83106274D01*
X139958336Y-82952383D01*
X140077239Y-82820327D01*
X140221000Y-82715878D01*
X140383336Y-82643602D01*
X140557151Y-82606656D01*
X140734849Y-82606656D01*
X140908664Y-82643602D01*
G37*
G36*
X122839500Y-82663500D02*
G01*
X121622500Y-82663500D01*
X121622500Y-81446500D01*
X122839500Y-81446500D01*
X122839500Y-82663500D01*
G37*
G36*
X141496000Y-81762000D02*
G01*
X139796000Y-81762000D01*
X139796000Y-80062000D01*
X141496000Y-80062000D01*
X141496000Y-81762000D01*
G37*
G36*
X119854550Y-76252812D02*
G01*
X119890267Y-76252812D01*
X119931221Y-76262906D01*
X119973291Y-76268445D01*
X120002088Y-76280373D01*
X120030610Y-76287403D01*
X120073854Y-76310099D01*
X120118000Y-76328385D01*
X120138140Y-76343839D01*
X120158586Y-76354570D01*
X120200388Y-76391603D01*
X120242264Y-76423736D01*
X120254165Y-76439246D01*
X120266778Y-76450420D01*
X120302943Y-76502815D01*
X120337615Y-76548000D01*
X120342841Y-76560617D01*
X120348882Y-76569369D01*
X120375089Y-76638471D01*
X120397555Y-76692709D01*
X120398563Y-76700366D01*
X120400136Y-76704514D01*
X120412315Y-76804821D01*
X120418000Y-76848000D01*
X120412314Y-76891182D01*
X120400136Y-76991485D01*
X120398563Y-76995631D01*
X120397555Y-77003291D01*
X120375084Y-77057539D01*
X120348882Y-77126630D01*
X120342842Y-77135380D01*
X120337615Y-77148000D01*
X120302936Y-77193193D01*
X120266778Y-77245579D01*
X120254167Y-77256750D01*
X120242264Y-77272264D01*
X120200379Y-77304402D01*
X120158586Y-77341429D01*
X120138144Y-77352157D01*
X120118000Y-77367615D01*
X120073845Y-77385904D01*
X120030610Y-77408596D01*
X120002092Y-77415624D01*
X119973291Y-77427555D01*
X119931219Y-77433093D01*
X119890267Y-77443188D01*
X119854550Y-77443188D01*
X119818000Y-77448000D01*
X119781450Y-77443188D01*
X119745733Y-77443188D01*
X119704780Y-77433093D01*
X119662709Y-77427555D01*
X119633908Y-77415625D01*
X119605389Y-77408596D01*
X119562149Y-77385902D01*
X119518000Y-77367615D01*
X119497857Y-77352159D01*
X119477413Y-77341429D01*
X119435612Y-77304397D01*
X119393736Y-77272264D01*
X119381834Y-77256753D01*
X119369221Y-77245579D01*
X119333053Y-77193180D01*
X119298385Y-77148000D01*
X119293159Y-77135383D01*
X119287117Y-77126630D01*
X119260903Y-77057510D01*
X119238445Y-77003291D01*
X119237437Y-76995635D01*
X119235863Y-76991485D01*
X119223672Y-76891084D01*
X119218000Y-76848000D01*
X119223671Y-76804919D01*
X119235863Y-76704514D01*
X119237437Y-76700362D01*
X119238445Y-76692709D01*
X119260898Y-76638500D01*
X119287117Y-76569369D01*
X119293160Y-76560613D01*
X119298385Y-76548000D01*
X119333046Y-76502828D01*
X119369221Y-76450420D01*
X119381836Y-76439243D01*
X119393736Y-76423736D01*
X119435604Y-76391609D01*
X119477413Y-76354570D01*
X119497861Y-76343837D01*
X119518000Y-76328385D01*
X119562140Y-76310101D01*
X119605389Y-76287403D01*
X119633913Y-76280372D01*
X119662709Y-76268445D01*
X119704777Y-76262906D01*
X119745733Y-76252812D01*
X119781450Y-76252812D01*
X119818000Y-76248000D01*
X119854550Y-76252812D01*
G37*
G36*
X83076000Y-76672000D02*
G01*
X81376000Y-76672000D01*
X81376000Y-74972000D01*
X83076000Y-74972000D01*
X83076000Y-76672000D01*
G37*
G36*
X119854550Y-74252812D02*
G01*
X119890267Y-74252812D01*
X119931221Y-74262906D01*
X119973291Y-74268445D01*
X120002088Y-74280373D01*
X120030610Y-74287403D01*
X120073854Y-74310099D01*
X120118000Y-74328385D01*
X120138140Y-74343839D01*
X120158586Y-74354570D01*
X120200388Y-74391603D01*
X120242264Y-74423736D01*
X120254165Y-74439246D01*
X120266778Y-74450420D01*
X120302943Y-74502815D01*
X120337615Y-74548000D01*
X120342841Y-74560617D01*
X120348882Y-74569369D01*
X120375089Y-74638471D01*
X120397555Y-74692709D01*
X120398563Y-74700366D01*
X120400136Y-74704514D01*
X120412315Y-74804821D01*
X120418000Y-74848000D01*
X120412314Y-74891182D01*
X120400136Y-74991485D01*
X120398563Y-74995631D01*
X120397555Y-75003291D01*
X120375084Y-75057539D01*
X120348882Y-75126630D01*
X120342842Y-75135380D01*
X120337615Y-75148000D01*
X120302936Y-75193193D01*
X120266778Y-75245579D01*
X120254167Y-75256750D01*
X120242264Y-75272264D01*
X120200379Y-75304402D01*
X120158586Y-75341429D01*
X120138144Y-75352157D01*
X120118000Y-75367615D01*
X120073845Y-75385904D01*
X120030610Y-75408596D01*
X120002092Y-75415624D01*
X119973291Y-75427555D01*
X119931219Y-75433093D01*
X119890267Y-75443188D01*
X119854550Y-75443188D01*
X119818000Y-75448000D01*
X119781450Y-75443188D01*
X119745733Y-75443188D01*
X119704780Y-75433093D01*
X119662709Y-75427555D01*
X119633908Y-75415625D01*
X119605389Y-75408596D01*
X119562149Y-75385902D01*
X119518000Y-75367615D01*
X119497857Y-75352159D01*
X119477413Y-75341429D01*
X119435612Y-75304397D01*
X119393736Y-75272264D01*
X119381834Y-75256753D01*
X119369221Y-75245579D01*
X119333053Y-75193180D01*
X119298385Y-75148000D01*
X119293159Y-75135383D01*
X119287117Y-75126630D01*
X119260903Y-75057510D01*
X119238445Y-75003291D01*
X119237437Y-74995635D01*
X119235863Y-74991485D01*
X119223672Y-74891084D01*
X119218000Y-74848000D01*
X119223671Y-74804919D01*
X119235863Y-74704514D01*
X119237437Y-74700362D01*
X119238445Y-74692709D01*
X119260898Y-74638500D01*
X119287117Y-74569369D01*
X119293160Y-74560613D01*
X119298385Y-74548000D01*
X119333046Y-74502828D01*
X119369221Y-74450420D01*
X119381836Y-74439243D01*
X119393736Y-74423736D01*
X119435604Y-74391609D01*
X119477413Y-74354570D01*
X119497861Y-74343837D01*
X119518000Y-74328385D01*
X119562140Y-74310101D01*
X119605389Y-74287403D01*
X119633913Y-74280372D01*
X119662709Y-74268445D01*
X119704777Y-74262906D01*
X119745733Y-74252812D01*
X119781450Y-74252812D01*
X119818000Y-74248000D01*
X119854550Y-74252812D01*
G37*
G36*
X82488664Y-72473602D02*
G01*
X82651000Y-72545878D01*
X82794761Y-72650327D01*
X82913664Y-72782383D01*
X83002514Y-72936274D01*
X83057425Y-73105275D01*
X83076000Y-73282000D01*
X83057425Y-73458725D01*
X83002514Y-73627726D01*
X82913664Y-73781617D01*
X82794761Y-73913673D01*
X82651000Y-74018122D01*
X82488664Y-74090398D01*
X82314849Y-74127344D01*
X82137151Y-74127344D01*
X81963336Y-74090398D01*
X81801000Y-74018122D01*
X81657239Y-73913673D01*
X81538336Y-73781617D01*
X81449486Y-73627726D01*
X81394575Y-73458725D01*
X81376000Y-73282000D01*
X81394575Y-73105275D01*
X81449486Y-72936274D01*
X81538336Y-72782383D01*
X81657239Y-72650327D01*
X81801000Y-72545878D01*
X81963336Y-72473602D01*
X82137151Y-72436656D01*
X82314849Y-72436656D01*
X82488664Y-72473602D01*
G37*
G36*
X82488664Y-69933602D02*
G01*
X82651000Y-70005878D01*
X82794761Y-70110327D01*
X82913664Y-70242383D01*
X83002514Y-70396274D01*
X83057425Y-70565275D01*
X83076000Y-70742000D01*
X83057425Y-70918725D01*
X83002514Y-71087726D01*
X82913664Y-71241617D01*
X82794761Y-71373673D01*
X82651000Y-71478122D01*
X82488664Y-71550398D01*
X82314849Y-71587344D01*
X82137151Y-71587344D01*
X81963336Y-71550398D01*
X81801000Y-71478122D01*
X81657239Y-71373673D01*
X81538336Y-71241617D01*
X81449486Y-71087726D01*
X81394575Y-70918725D01*
X81376000Y-70742000D01*
X81394575Y-70565275D01*
X81449486Y-70396274D01*
X81538336Y-70242383D01*
X81657239Y-70110327D01*
X81801000Y-70005878D01*
X81963336Y-69933602D01*
X82137151Y-69896656D01*
X82314849Y-69896656D01*
X82488664Y-69933602D01*
G37*
G36*
X140908664Y-68038602D02*
G01*
X141071000Y-68110878D01*
X141214761Y-68215327D01*
X141333664Y-68347383D01*
X141422514Y-68501274D01*
X141477425Y-68670275D01*
X141496000Y-68847000D01*
X141477425Y-69023725D01*
X141422514Y-69192726D01*
X141333664Y-69346617D01*
X141214761Y-69478673D01*
X141071000Y-69583122D01*
X140908664Y-69655398D01*
X140734849Y-69692344D01*
X140557151Y-69692344D01*
X140383336Y-69655398D01*
X140221000Y-69583122D01*
X140077239Y-69478673D01*
X139958336Y-69346617D01*
X139869486Y-69192726D01*
X139814575Y-69023725D01*
X139796000Y-68847000D01*
X139814575Y-68670275D01*
X139869486Y-68501274D01*
X139958336Y-68347383D01*
X140077239Y-68215327D01*
X140221000Y-68110878D01*
X140383336Y-68038602D01*
X140557151Y-68001656D01*
X140734849Y-68001656D01*
X140908664Y-68038602D01*
G37*
G36*
X82488664Y-67393602D02*
G01*
X82651000Y-67465878D01*
X82794761Y-67570327D01*
X82913664Y-67702383D01*
X83002514Y-67856274D01*
X83057425Y-68025275D01*
X83076000Y-68202000D01*
X83057425Y-68378725D01*
X83002514Y-68547726D01*
X82913664Y-68701617D01*
X82794761Y-68833673D01*
X82651000Y-68938122D01*
X82488664Y-69010398D01*
X82314849Y-69047344D01*
X82137151Y-69047344D01*
X81963336Y-69010398D01*
X81801000Y-68938122D01*
X81657239Y-68833673D01*
X81538336Y-68701617D01*
X81449486Y-68547726D01*
X81394575Y-68378725D01*
X81376000Y-68202000D01*
X81394575Y-68025275D01*
X81449486Y-67856274D01*
X81538336Y-67702383D01*
X81657239Y-67570327D01*
X81801000Y-67465878D01*
X81963336Y-67393602D01*
X82137151Y-67356656D01*
X82314849Y-67356656D01*
X82488664Y-67393602D01*
G37*
G36*
X122268022Y-66211374D02*
G01*
X122304296Y-66211374D01*
X122345885Y-66221624D01*
X122388491Y-66227234D01*
X122417656Y-66239314D01*
X122446617Y-66246453D01*
X122490530Y-66269500D01*
X122535250Y-66288024D01*
X122555650Y-66303678D01*
X122576417Y-66314577D01*
X122618879Y-66352195D01*
X122661274Y-66384726D01*
X122673322Y-66400427D01*
X122686140Y-66411783D01*
X122722889Y-66465025D01*
X122757976Y-66510750D01*
X122763265Y-66523520D01*
X122769408Y-66532419D01*
X122796053Y-66602676D01*
X122818766Y-66657509D01*
X122819785Y-66665251D01*
X122821389Y-66669480D01*
X122833813Y-66771803D01*
X122839500Y-66815000D01*
X122833812Y-66858200D01*
X122821389Y-66960519D01*
X122819785Y-66964746D01*
X122818766Y-66972491D01*
X122796048Y-67027334D01*
X122769408Y-67097580D01*
X122763266Y-67106477D01*
X122757976Y-67119250D01*
X122722883Y-67164983D01*
X122686140Y-67218216D01*
X122673324Y-67229569D01*
X122661274Y-67245274D01*
X122618870Y-67277811D01*
X122576417Y-67315422D01*
X122555654Y-67326318D01*
X122535250Y-67341976D01*
X122490521Y-67360503D01*
X122446617Y-67383546D01*
X122417661Y-67390683D01*
X122388491Y-67402766D01*
X122345882Y-67408375D01*
X122304296Y-67418626D01*
X122268022Y-67418626D01*
X122231000Y-67423500D01*
X122193978Y-67418626D01*
X122157704Y-67418626D01*
X122116116Y-67408375D01*
X122073509Y-67402766D01*
X122044339Y-67390683D01*
X122015382Y-67383546D01*
X121971474Y-67360501D01*
X121926750Y-67341976D01*
X121906347Y-67326320D01*
X121885582Y-67315422D01*
X121843121Y-67277805D01*
X121800726Y-67245274D01*
X121788677Y-67229572D01*
X121775859Y-67218216D01*
X121739106Y-67164970D01*
X121704024Y-67119250D01*
X121698734Y-67106481D01*
X121692591Y-67097580D01*
X121665939Y-67027305D01*
X121643234Y-66972491D01*
X121642215Y-66964751D01*
X121640610Y-66960519D01*
X121628174Y-66858102D01*
X121622500Y-66815000D01*
X121628174Y-66771900D01*
X121640610Y-66669480D01*
X121642215Y-66665247D01*
X121643234Y-66657509D01*
X121665934Y-66602705D01*
X121692591Y-66532419D01*
X121698735Y-66523516D01*
X121704024Y-66510750D01*
X121739100Y-66465038D01*
X121775859Y-66411783D01*
X121788679Y-66400424D01*
X121800726Y-66384726D01*
X121843113Y-66352200D01*
X121885582Y-66314577D01*
X121906351Y-66303676D01*
X121926750Y-66288024D01*
X121971465Y-66269502D01*
X122015382Y-66246453D01*
X122044344Y-66239314D01*
X122073509Y-66227234D01*
X122116113Y-66221624D01*
X122157704Y-66211374D01*
X122193978Y-66211374D01*
X122231000Y-66206500D01*
X122268022Y-66211374D01*
G37*
G36*
X140908664Y-65498602D02*
G01*
X141071000Y-65570878D01*
X141214761Y-65675327D01*
X141333664Y-65807383D01*
X141422514Y-65961274D01*
X141477425Y-66130275D01*
X141496000Y-66307000D01*
X141477425Y-66483725D01*
X141422514Y-66652726D01*
X141333664Y-66806617D01*
X141214761Y-66938673D01*
X141071000Y-67043122D01*
X140908664Y-67115398D01*
X140734849Y-67152344D01*
X140557151Y-67152344D01*
X140383336Y-67115398D01*
X140221000Y-67043122D01*
X140077239Y-66938673D01*
X139958336Y-66806617D01*
X139869486Y-66652726D01*
X139814575Y-66483725D01*
X139796000Y-66307000D01*
X139814575Y-66130275D01*
X139869486Y-65961274D01*
X139958336Y-65807383D01*
X140077239Y-65675327D01*
X140221000Y-65570878D01*
X140383336Y-65498602D01*
X140557151Y-65461656D01*
X140734849Y-65461656D01*
X140908664Y-65498602D01*
G37*
G36*
X119728022Y-63671374D02*
G01*
X119764296Y-63671374D01*
X119805885Y-63681624D01*
X119848491Y-63687234D01*
X119877656Y-63699314D01*
X119906617Y-63706453D01*
X119950530Y-63729500D01*
X119995250Y-63748024D01*
X120015650Y-63763678D01*
X120036417Y-63774577D01*
X120078879Y-63812195D01*
X120121274Y-63844726D01*
X120133322Y-63860427D01*
X120146140Y-63871783D01*
X120182889Y-63925025D01*
X120217976Y-63970750D01*
X120223265Y-63983520D01*
X120229408Y-63992419D01*
X120256053Y-64062676D01*
X120278766Y-64117509D01*
X120279785Y-64125251D01*
X120281389Y-64129480D01*
X120293813Y-64231803D01*
X120299500Y-64275000D01*
X120293812Y-64318200D01*
X120281389Y-64420519D01*
X120279785Y-64424746D01*
X120278766Y-64432491D01*
X120256048Y-64487334D01*
X120229408Y-64557580D01*
X120223266Y-64566477D01*
X120217976Y-64579250D01*
X120182883Y-64624983D01*
X120146140Y-64678216D01*
X120133324Y-64689569D01*
X120121274Y-64705274D01*
X120078870Y-64737811D01*
X120036417Y-64775422D01*
X120015654Y-64786318D01*
X119995250Y-64801976D01*
X119950521Y-64820503D01*
X119906617Y-64843546D01*
X119877661Y-64850683D01*
X119848491Y-64862766D01*
X119805882Y-64868375D01*
X119764296Y-64878626D01*
X119728022Y-64878626D01*
X119691000Y-64883500D01*
X119653978Y-64878626D01*
X119617704Y-64878626D01*
X119576116Y-64868375D01*
X119533509Y-64862766D01*
X119504339Y-64850683D01*
X119475382Y-64843546D01*
X119431474Y-64820501D01*
X119386750Y-64801976D01*
X119366347Y-64786320D01*
X119345582Y-64775422D01*
X119303121Y-64737805D01*
X119260726Y-64705274D01*
X119248677Y-64689572D01*
X119235859Y-64678216D01*
X119199106Y-64624970D01*
X119164024Y-64579250D01*
X119158734Y-64566481D01*
X119152591Y-64557580D01*
X119125939Y-64487305D01*
X119103234Y-64432491D01*
X119102215Y-64424751D01*
X119100610Y-64420519D01*
X119088174Y-64318102D01*
X119082500Y-64275000D01*
X119088174Y-64231900D01*
X119100610Y-64129480D01*
X119102215Y-64125247D01*
X119103234Y-64117509D01*
X119125934Y-64062705D01*
X119152591Y-63992419D01*
X119158735Y-63983516D01*
X119164024Y-63970750D01*
X119199100Y-63925038D01*
X119235859Y-63871783D01*
X119248679Y-63860424D01*
X119260726Y-63844726D01*
X119303113Y-63812200D01*
X119345582Y-63774577D01*
X119366351Y-63763676D01*
X119386750Y-63748024D01*
X119431465Y-63729502D01*
X119475382Y-63706453D01*
X119504344Y-63699314D01*
X119533509Y-63687234D01*
X119576113Y-63681624D01*
X119617704Y-63671374D01*
X119653978Y-63671374D01*
X119691000Y-63666500D01*
X119728022Y-63671374D01*
G37*
G36*
X140908664Y-62958602D02*
G01*
X141071000Y-63030878D01*
X141214761Y-63135327D01*
X141333664Y-63267383D01*
X141422514Y-63421274D01*
X141477425Y-63590275D01*
X141496000Y-63767000D01*
X141477425Y-63943725D01*
X141422514Y-64112726D01*
X141333664Y-64266617D01*
X141214761Y-64398673D01*
X141071000Y-64503122D01*
X140908664Y-64575398D01*
X140734849Y-64612344D01*
X140557151Y-64612344D01*
X140383336Y-64575398D01*
X140221000Y-64503122D01*
X140077239Y-64398673D01*
X139958336Y-64266617D01*
X139869486Y-64112726D01*
X139814575Y-63943725D01*
X139796000Y-63767000D01*
X139814575Y-63590275D01*
X139869486Y-63421274D01*
X139958336Y-63267383D01*
X140077239Y-63135327D01*
X140221000Y-63030878D01*
X140383336Y-62958602D01*
X140557151Y-62921656D01*
X140734849Y-62921656D01*
X140908664Y-62958602D01*
G37*
G36*
X122839500Y-62343500D02*
G01*
X121622500Y-62343500D01*
X121622500Y-61126500D01*
X122839500Y-61126500D01*
X122839500Y-62343500D01*
G37*
G36*
X141496000Y-62077000D02*
G01*
X139796000Y-62077000D01*
X139796000Y-60377000D01*
X141496000Y-60377000D01*
X141496000Y-62077000D01*
G37*
G36*
X112742550Y-56916812D02*
G01*
X112778267Y-56916812D01*
X112819221Y-56926906D01*
X112861291Y-56932445D01*
X112890088Y-56944373D01*
X112918610Y-56951403D01*
X112961854Y-56974099D01*
X113006000Y-56992385D01*
X113026140Y-57007839D01*
X113046586Y-57018570D01*
X113088388Y-57055603D01*
X113130264Y-57087736D01*
X113142165Y-57103246D01*
X113154778Y-57114420D01*
X113190943Y-57166815D01*
X113225615Y-57212000D01*
X113230841Y-57224617D01*
X113236882Y-57233369D01*
X113263089Y-57302471D01*
X113285555Y-57356709D01*
X113286563Y-57364366D01*
X113288136Y-57368514D01*
X113300315Y-57468821D01*
X113306000Y-57512000D01*
X113300314Y-57555182D01*
X113288136Y-57655485D01*
X113286563Y-57659631D01*
X113285555Y-57667291D01*
X113263084Y-57721539D01*
X113236882Y-57790630D01*
X113230842Y-57799380D01*
X113225615Y-57812000D01*
X113190936Y-57857193D01*
X113154778Y-57909579D01*
X113142167Y-57920750D01*
X113130264Y-57936264D01*
X113088379Y-57968402D01*
X113046586Y-58005429D01*
X113026144Y-58016157D01*
X113006000Y-58031615D01*
X112961845Y-58049904D01*
X112918610Y-58072596D01*
X112890092Y-58079624D01*
X112861291Y-58091555D01*
X112819219Y-58097093D01*
X112778267Y-58107188D01*
X112742550Y-58107188D01*
X112706000Y-58112000D01*
X112669450Y-58107188D01*
X112633733Y-58107188D01*
X112592780Y-58097093D01*
X112550709Y-58091555D01*
X112521908Y-58079625D01*
X112493389Y-58072596D01*
X112450149Y-58049902D01*
X112406000Y-58031615D01*
X112385857Y-58016159D01*
X112365413Y-58005429D01*
X112323612Y-57968397D01*
X112281736Y-57936264D01*
X112269834Y-57920753D01*
X112257221Y-57909579D01*
X112221053Y-57857180D01*
X112186385Y-57812000D01*
X112181159Y-57799383D01*
X112175117Y-57790630D01*
X112148903Y-57721510D01*
X112126445Y-57667291D01*
X112125437Y-57659635D01*
X112123863Y-57655485D01*
X112111672Y-57555084D01*
X112106000Y-57512000D01*
X112111671Y-57468919D01*
X112123863Y-57368514D01*
X112125437Y-57364362D01*
X112126445Y-57356709D01*
X112148898Y-57302500D01*
X112175117Y-57233369D01*
X112181160Y-57224613D01*
X112186385Y-57212000D01*
X112221046Y-57166828D01*
X112257221Y-57114420D01*
X112269836Y-57103243D01*
X112281736Y-57087736D01*
X112323604Y-57055609D01*
X112365413Y-57018570D01*
X112385861Y-57007837D01*
X112406000Y-56992385D01*
X112450140Y-56974101D01*
X112493389Y-56951403D01*
X112521913Y-56944372D01*
X112550709Y-56932445D01*
X112592777Y-56926906D01*
X112633733Y-56916812D01*
X112669450Y-56916812D01*
X112706000Y-56912000D01*
X112742550Y-56916812D01*
G37*
G36*
X112742550Y-54916812D02*
G01*
X112778267Y-54916812D01*
X112819221Y-54926906D01*
X112861291Y-54932445D01*
X112890088Y-54944373D01*
X112918610Y-54951403D01*
X112961854Y-54974099D01*
X113006000Y-54992385D01*
X113026140Y-55007839D01*
X113046586Y-55018570D01*
X113088388Y-55055603D01*
X113130264Y-55087736D01*
X113142165Y-55103246D01*
X113154778Y-55114420D01*
X113190943Y-55166815D01*
X113225615Y-55212000D01*
X113230841Y-55224617D01*
X113236882Y-55233369D01*
X113263089Y-55302471D01*
X113285555Y-55356709D01*
X113286563Y-55364366D01*
X113288136Y-55368514D01*
X113300315Y-55468821D01*
X113306000Y-55512000D01*
X113300314Y-55555182D01*
X113288136Y-55655485D01*
X113286563Y-55659631D01*
X113285555Y-55667291D01*
X113263084Y-55721539D01*
X113236882Y-55790630D01*
X113230842Y-55799380D01*
X113225615Y-55812000D01*
X113190936Y-55857193D01*
X113154778Y-55909579D01*
X113142167Y-55920750D01*
X113130264Y-55936264D01*
X113088379Y-55968402D01*
X113046586Y-56005429D01*
X113026144Y-56016157D01*
X113006000Y-56031615D01*
X112961845Y-56049904D01*
X112918610Y-56072596D01*
X112890092Y-56079624D01*
X112861291Y-56091555D01*
X112819219Y-56097093D01*
X112778267Y-56107188D01*
X112742550Y-56107188D01*
X112706000Y-56112000D01*
X112669450Y-56107188D01*
X112633733Y-56107188D01*
X112592780Y-56097093D01*
X112550709Y-56091555D01*
X112521908Y-56079625D01*
X112493389Y-56072596D01*
X112450149Y-56049902D01*
X112406000Y-56031615D01*
X112385857Y-56016159D01*
X112365413Y-56005429D01*
X112323612Y-55968397D01*
X112281736Y-55936264D01*
X112269834Y-55920753D01*
X112257221Y-55909579D01*
X112221053Y-55857180D01*
X112186385Y-55812000D01*
X112181159Y-55799383D01*
X112175117Y-55790630D01*
X112148903Y-55721510D01*
X112126445Y-55667291D01*
X112125437Y-55659635D01*
X112123863Y-55655485D01*
X112111672Y-55555084D01*
X112106000Y-55512000D01*
X112111671Y-55468919D01*
X112123863Y-55368514D01*
X112125437Y-55364362D01*
X112126445Y-55356709D01*
X112148898Y-55302500D01*
X112175117Y-55233369D01*
X112181160Y-55224613D01*
X112186385Y-55212000D01*
X112221046Y-55166828D01*
X112257221Y-55114420D01*
X112269836Y-55103243D01*
X112281736Y-55087736D01*
X112323604Y-55055609D01*
X112365413Y-55018570D01*
X112385861Y-55007837D01*
X112406000Y-54992385D01*
X112450140Y-54974101D01*
X112493389Y-54951403D01*
X112521913Y-54944372D01*
X112550709Y-54932445D01*
X112592777Y-54926906D01*
X112633733Y-54916812D01*
X112669450Y-54916812D01*
X112706000Y-54912000D01*
X112742550Y-54916812D01*
G37*
M02*
