M48
; DRILL file {KiCad 7.0.10} date Fri Jan 19 17:56:23 2024
; FORMAT={-:-/ absolute / inch / decimal}
; #@! TF.CreationDate,2024-01-19T17:56:23+01:00
; #@! TF.GenerationSoftware,Kicad,Pcbnew,7.0.10
; #@! TF.FileFunction,Plated,1,2,PTH
FMAT,2
INCH
; #@! TA.AperFunction,Plated,PTH,ViaDrill
T1C0.0118
; #@! TA.AperFunction,Plated,PTH,ComponentDrill
T2C0.0118
; #@! TA.AperFunction,Plated,PTH,ViaDrill
T3C0.0197
; #@! TA.AperFunction,Plated,PTH,ComponentDrill
T4C0.0236
; #@! TA.AperFunction,Plated,PTH,ComponentDrill
T5C0.0280
; #@! TA.AperFunction,Plated,PTH,ComponentDrill
T6C0.0362
; #@! TA.AperFunction,Plated,PTH,ComponentDrill
T7C0.0374
; #@! TA.AperFunction,Plated,PTH,ComponentDrill
T8C0.0394
; #@! TA.AperFunction,Plated,PTH,ComponentDrill
T9C0.0520
; #@! TA.AperFunction,Plated,PTH,ComponentDrill
T10C0.0906
%
G90
G05
T1
X2.4606Y-4.2815
X2.463Y-4.0209
X2.5098Y-4.1437
X2.5272Y-4.2403
X2.5295Y-4.1142
X2.5295Y-4.1732
X2.552Y-3.8414
X2.6083Y-3.9537
X2.7461Y-2.9626
X2.8533Y-4.0844
X2.8539Y-4.1683
X2.8545Y-4.1312
X2.8847Y-4.2166
X2.9209Y-3.7766
X3.1085Y-3.1299
X3.1102Y-2.4213
X3.1226Y-2.4508
X3.127Y-2.2952
X3.127Y-2.3735
X3.152Y-3.9427
X3.152Y-4.2872
X3.1558Y-4.023
X3.2012Y-4.1494
X3.216Y-4.2416
X3.2209Y-4.1199
X3.2209Y-4.1789
X3.2493Y-2.2712
X3.2579Y-2.5591
X3.2807Y-2.2767
X3.2972Y-3.9567
X3.3071Y-2.8937
X3.3162Y-2.2656
X3.3465Y-2.3031
X3.3536Y-2.724
X3.3661Y-2.2736
X3.3661Y-2.3327
X3.3725Y-2.525
X3.375Y-2.7
X3.3799Y-2.6199
X3.3805Y-2.7823
X3.3808Y-2.8431
X3.381Y-2.5833
X3.3831Y-2.654
X3.3925Y-2.4705
X3.3957Y-2.362
X3.3959Y-2.3943
X3.4154Y-2.4233
X3.4371Y-2.4508
X3.4582Y-3.2446
X3.4587Y-2.9508
X3.4701Y-2.6705
X3.4714Y-2.5128
X3.4815Y-2.7908
X3.4838Y-2.704
X3.4838Y-2.754
X3.4843Y-2.8228
X3.4941Y-2.8662
X3.5236Y-2.6025
X3.5422Y-4.0857
X3.5427Y-4.1697
X3.5433Y-2.63
X3.5433Y-2.8621
X3.5434Y-4.1326
X3.5692Y-2.9126
X3.5736Y-4.218
X3.6025Y-2.9123
X3.6081Y-3.3657
X3.6097Y-3.778
X3.6124Y-2.4114
X3.6176Y-2.4655
X3.622Y-2.5808
X3.6417Y-2.4409
X3.6417Y-2.9134
X3.6516Y-3.015
X3.6602Y-2.5603
X3.6713Y-2.4606
X3.6882Y-3.0172
X3.6987Y-2.9154
X3.7002Y-3.2972
X3.7017Y-2.5719
X3.7035Y-2.4655
X3.7205Y-3.007
X3.7402Y-3.1054
X3.7402Y-3.2962
X3.7494Y-2.46
X3.7619Y-3.1972
X3.7782Y-2.4409
X3.7894Y-2.8346
X3.7999Y-2.4655
X3.8091Y-3.0118
X3.8222Y-2.8362
X3.826Y-2.5098
X3.8277Y-2.6672
X3.8277Y-2.7065
X3.8279Y-2.76
X3.8292Y-2.7995
X3.839Y-3.9388
X3.839Y-4.2833
X3.8607Y-4.0234
X3.8824Y-3.0512
X3.8843Y-2.9134
X3.8861Y-4.1434
X3.9042Y-4.2379
X3.9079Y-4.1159
X3.9079Y-4.175
X3.9173Y-2.8445
X3.9244Y-2.6891
X3.931Y-2.8001
X3.933Y-2.7213
X3.9339Y-2.7654
X3.937Y-2.63
X3.9665Y-2.6083
X3.9746Y-2.6742
X3.9938Y-3.9449
X3.9948Y-3.061
X4.0531Y-2.9429
X4.0531Y-3.061
X4.1758Y-2.6051
X4.1831Y-2.6777
X4.2303Y-4.082
X4.2309Y-4.1659
X4.2315Y-4.1288
X4.2618Y-4.2142
X4.2979Y-3.7742
X4.498Y-3.9272
X4.5374Y-4.2727
X4.5788Y-4.1333
X4.5854Y-3.8669
X4.594Y-4.2323
X4.5965Y-4.1634
X4.6006Y-4.1043
X4.6752Y-3.9457
X4.9201Y-4.0764
X4.9207Y-4.1603
X4.9213Y-4.1232
X4.9515Y-4.2086
X4.9877Y-3.7686
T2
X2.6453Y-3.9933
X2.6453Y-4.0445
X2.6453Y-4.0957
X2.6453Y-4.1469
X2.6453Y-4.198
X2.6453Y-4.2492
X2.6453Y-4.3004
X2.6965Y-3.9933
X2.6965Y-4.0445
X2.6965Y-4.0957
X2.6965Y-4.1469
X2.6965Y-4.198
X2.6965Y-4.2492
X2.6965Y-4.3004
X2.7476Y-3.9933
X2.7476Y-4.0445
X2.7476Y-4.0957
X2.7476Y-4.1469
X2.7476Y-4.198
X2.7476Y-4.2492
X2.7476Y-4.3004
X3.3342Y-3.997
X3.3342Y-4.0482
X3.3342Y-4.0994
X3.3342Y-4.1506
X3.3342Y-4.2018
X3.3342Y-4.253
X3.3342Y-4.3041
X3.3853Y-3.997
X3.3853Y-4.0482
X3.3853Y-4.0994
X3.3853Y-4.1506
X3.3853Y-4.2018
X3.3853Y-4.253
X3.3853Y-4.3041
X3.4365Y-3.997
X3.4365Y-4.0482
X3.4365Y-4.0994
X3.4365Y-4.1506
X3.4365Y-4.2018
X3.4365Y-4.253
X3.4365Y-4.3041
X4.0223Y-3.9933
X4.0223Y-4.0445
X4.0223Y-4.0957
X4.0223Y-4.1469
X4.0223Y-4.198
X4.0223Y-4.2492
X4.0223Y-4.3004
X4.0735Y-3.9933
X4.0735Y-4.0445
X4.0735Y-4.0957
X4.0735Y-4.1469
X4.0735Y-4.198
X4.0735Y-4.2492
X4.0735Y-4.3004
X4.1247Y-3.9933
X4.1247Y-4.0445
X4.1247Y-4.0957
X4.1247Y-4.1469
X4.1247Y-4.198
X4.1247Y-4.2492
X4.1247Y-4.3004
X4.7121Y-3.9862
X4.7121Y-4.0374
X4.7121Y-4.0886
X4.7121Y-4.1398
X4.7121Y-4.1909
X4.7121Y-4.2421
X4.7121Y-4.2933
X4.7633Y-3.9862
X4.7633Y-4.0374
X4.7633Y-4.0886
X4.7633Y-4.1398
X4.7633Y-4.1909
X4.7633Y-4.2421
X4.7633Y-4.2933
X4.8145Y-3.9862
X4.8145Y-4.0374
X4.8145Y-4.0886
X4.8145Y-4.1398
X4.8145Y-4.1909
X4.8145Y-4.2421
X4.8145Y-4.2933
T3
X3.0315Y-3.8583
X3.3366Y-3.4941
X3.7205Y-3.8583
X4.0256Y-3.4941
X4.4094Y-3.8484
X4.7096Y-3.499
X5.0954Y-3.8484
T4
X2.9898Y-3.5433
X2.9898Y-3.622
X3.6811Y-3.5433
X3.6811Y-3.622
X4.3668Y-3.5433
X4.3668Y-3.622
X5.0591Y-3.5433
X5.0591Y-3.622
T5
X2.5433Y-3.7063
X2.6433Y-3.6063
X2.7433Y-3.7063
X3.2342Y-3.7083
X3.2382Y-3.0776
X3.2382Y-3.2776
X3.3342Y-3.6083
X3.3382Y-3.1776
X3.4342Y-3.7083
X3.922Y-3.7067
X4.022Y-3.6067
X4.122Y-3.7067
X4.6121Y-3.7002
X4.7121Y-3.6002
X4.8121Y-3.7002
T6
X2.6079Y-1.4764
X2.6079Y-1.5748
X2.6079Y-1.6535
X2.6079Y-1.752
T7
X2.9483Y-2.5335
X2.9483Y-2.6319
X3.0271Y-2.5335
X3.0271Y-2.6319
X4.2308Y-2.5507
X4.2308Y-2.6294
X4.3292Y-2.5507
X4.3292Y-2.6294
T8
X2.548Y-4.4252
X2.648Y-4.4252
X2.748Y-4.4252
X2.7553Y-2.1555
X2.7949Y-1.4748
X2.7949Y-1.5748
X2.7949Y-1.6748
X2.7949Y-1.7748
X2.848Y-4.4252
X2.8553Y-2.1555
X3.2408Y-4.4252
X3.3408Y-4.4252
X3.4408Y-4.4252
X3.5408Y-4.4252
X3.929Y-4.4215
X4.029Y-4.4215
X4.129Y-4.4215
X4.229Y-4.4215
X4.6188Y-4.4193
X4.7188Y-4.4193
X4.8188Y-4.4193
X4.9188Y-4.4193
T9
X2.6654Y-3.0841
X2.6654Y-3.2809
T10
X2.5012Y-1.3555
X2.5012Y-1.8728
X2.8357Y-2.3465
X2.8357Y-2.8189
X4.0438Y-2.4381
X4.5162Y-2.4381
M30
