%TF.GenerationSoftware,KiCad,Pcbnew,7.0.9*%
%TF.CreationDate,2023-12-05T19:57:25+01:00*%
%TF.ProjectId,Doodle Drive,446f6f64-6c65-4204-9472-6976652e6b69,1.0V*%
%TF.SameCoordinates,Original*%
%TF.FileFunction,Paste,Top*%
%TF.FilePolarity,Positive*%
%FSLAX46Y46*%
G04 Gerber Fmt 4.6, Leading zero omitted, Abs format (unit mm)*
G04 Created by KiCad (PCBNEW 7.0.9) date 2023-12-05 19:57:25*
%MOMM*%
%LPD*%
G01*
G04 APERTURE LIST*
G04 Aperture macros list*
%AMRoundRect*
0 Rectangle with rounded corners*
0 $1 Rounding radius*
0 $2 $3 $4 $5 $6 $7 $8 $9 X,Y pos of 4 corners*
0 Add a 4 corners polygon primitive as box body*
4,1,4,$2,$3,$4,$5,$6,$7,$8,$9,$2,$3,0*
0 Add four circle primitives for the rounded corners*
1,1,$1+$1,$2,$3*
1,1,$1+$1,$4,$5*
1,1,$1+$1,$6,$7*
1,1,$1+$1,$8,$9*
0 Add four rect primitives between the rounded corners*
20,1,$1+$1,$2,$3,$4,$5,0*
20,1,$1+$1,$4,$5,$6,$7,0*
20,1,$1+$1,$6,$7,$8,$9,0*
20,1,$1+$1,$8,$9,$2,$3,0*%
G04 Aperture macros list end*
%ADD10C,0.010000*%
%ADD11RoundRect,0.059000X-0.236000X-0.626000X0.236000X-0.626000X0.236000X0.626000X-0.236000X0.626000X0*%
%ADD12RoundRect,0.250000X-0.625000X0.312500X-0.625000X-0.312500X0.625000X-0.312500X0.625000X0.312500X0*%
%ADD13RoundRect,0.218750X0.218750X0.381250X-0.218750X0.381250X-0.218750X-0.381250X0.218750X-0.381250X0*%
%ADD14RoundRect,0.243750X-0.243750X-0.456250X0.243750X-0.456250X0.243750X0.456250X-0.243750X0.456250X0*%
%ADD15RoundRect,0.250000X0.450000X-0.262500X0.450000X0.262500X-0.450000X0.262500X-0.450000X-0.262500X0*%
%ADD16RoundRect,0.250000X-0.475000X0.250000X-0.475000X-0.250000X0.475000X-0.250000X0.475000X0.250000X0*%
%ADD17RoundRect,0.250000X0.475000X-0.250000X0.475000X0.250000X-0.475000X0.250000X-0.475000X-0.250000X0*%
%ADD18RoundRect,0.250000X0.250000X0.475000X-0.250000X0.475000X-0.250000X-0.475000X0.250000X-0.475000X0*%
%ADD19RoundRect,0.250000X0.262500X0.450000X-0.262500X0.450000X-0.262500X-0.450000X0.262500X-0.450000X0*%
%ADD20RoundRect,0.250000X-0.450000X0.262500X-0.450000X-0.262500X0.450000X-0.262500X0.450000X0.262500X0*%
%ADD21RoundRect,0.250000X0.625000X-0.312500X0.625000X0.312500X-0.625000X0.312500X-0.625000X-0.312500X0*%
%ADD22R,1.700000X0.900000*%
%ADD23RoundRect,0.140000X-0.140000X-0.170000X0.140000X-0.170000X0.140000X0.170000X-0.140000X0.170000X0*%
%ADD24R,1.800000X1.000000*%
%ADD25RoundRect,0.140000X0.170000X-0.140000X0.170000X0.140000X-0.170000X0.140000X-0.170000X-0.140000X0*%
%ADD26RoundRect,0.075000X0.700000X0.075000X-0.700000X0.075000X-0.700000X-0.075000X0.700000X-0.075000X0*%
%ADD27RoundRect,0.075000X0.075000X0.700000X-0.075000X0.700000X-0.075000X-0.700000X0.075000X-0.700000X0*%
%ADD28R,1.400000X1.200000*%
%ADD29RoundRect,0.140000X-0.170000X0.140000X-0.170000X-0.140000X0.170000X-0.140000X0.170000X0.140000X0*%
%ADD30R,1.000000X0.300000*%
%ADD31R,0.300000X1.000000*%
%ADD32R,3.400000X3.400000*%
G04 APERTURE END LIST*
%TO.C,U3*%
D10*
X137746000Y-82310000D02*
X137496000Y-82310000D01*
X137496000Y-80760000D01*
X137746000Y-80760000D01*
X137746000Y-82310000D01*
G36*
X137746000Y-82310000D02*
G01*
X137496000Y-82310000D01*
X137496000Y-80760000D01*
X137746000Y-80760000D01*
X137746000Y-82310000D01*
G37*
X137096000Y-82310000D02*
X136846000Y-82310000D01*
X136846000Y-80760000D01*
X137096000Y-80760000D01*
X137096000Y-82310000D01*
G36*
X137096000Y-82310000D02*
G01*
X136846000Y-82310000D01*
X136846000Y-80760000D01*
X137096000Y-80760000D01*
X137096000Y-82310000D01*
G37*
X136446000Y-82310000D02*
X136196000Y-82310000D01*
X136196000Y-80760000D01*
X136446000Y-80760000D01*
X136446000Y-82310000D01*
G36*
X136446000Y-82310000D02*
G01*
X136196000Y-82310000D01*
X136196000Y-80760000D01*
X136446000Y-80760000D01*
X136446000Y-82310000D01*
G37*
X135796000Y-82310000D02*
X135546000Y-82310000D01*
X135546000Y-80760000D01*
X135796000Y-80760000D01*
X135796000Y-82310000D01*
G36*
X135796000Y-82310000D02*
G01*
X135546000Y-82310000D01*
X135546000Y-80760000D01*
X135796000Y-80760000D01*
X135796000Y-82310000D01*
G37*
X135146000Y-82310000D02*
X134896000Y-82310000D01*
X134896000Y-80760000D01*
X135146000Y-80760000D01*
X135146000Y-82310000D01*
G36*
X135146000Y-82310000D02*
G01*
X134896000Y-82310000D01*
X134896000Y-80760000D01*
X135146000Y-80760000D01*
X135146000Y-82310000D01*
G37*
X134496000Y-82310000D02*
X134246000Y-82310000D01*
X134246000Y-80760000D01*
X134496000Y-80760000D01*
X134496000Y-82310000D01*
G36*
X134496000Y-82310000D02*
G01*
X134246000Y-82310000D01*
X134246000Y-80760000D01*
X134496000Y-80760000D01*
X134496000Y-82310000D01*
G37*
X133846000Y-82310000D02*
X133596000Y-82310000D01*
X133596000Y-80760000D01*
X133846000Y-80760000D01*
X133846000Y-82310000D01*
G36*
X133846000Y-82310000D02*
G01*
X133596000Y-82310000D01*
X133596000Y-80760000D01*
X133846000Y-80760000D01*
X133846000Y-82310000D01*
G37*
X133196000Y-82310000D02*
X132946000Y-82310000D01*
X132946000Y-80760000D01*
X133196000Y-80760000D01*
X133196000Y-82310000D01*
G36*
X133196000Y-82310000D02*
G01*
X132946000Y-82310000D01*
X132946000Y-80760000D01*
X133196000Y-80760000D01*
X133196000Y-82310000D01*
G37*
X132546000Y-82310000D02*
X132296000Y-82310000D01*
X132296000Y-80760000D01*
X132546000Y-80760000D01*
X132546000Y-82310000D01*
G36*
X132546000Y-82310000D02*
G01*
X132296000Y-82310000D01*
X132296000Y-80760000D01*
X132546000Y-80760000D01*
X132546000Y-82310000D01*
G37*
X131896000Y-82310000D02*
X131646000Y-82310000D01*
X131646000Y-80760000D01*
X131896000Y-80760000D01*
X131896000Y-82310000D01*
G36*
X131896000Y-82310000D02*
G01*
X131646000Y-82310000D01*
X131646000Y-80760000D01*
X131896000Y-80760000D01*
X131896000Y-82310000D01*
G37*
X131246000Y-82310000D02*
X130996000Y-82310000D01*
X130996000Y-80760000D01*
X131246000Y-80760000D01*
X131246000Y-82310000D01*
G36*
X131246000Y-82310000D02*
G01*
X130996000Y-82310000D01*
X130996000Y-80760000D01*
X131246000Y-80760000D01*
X131246000Y-82310000D01*
G37*
X130596000Y-82310000D02*
X130346000Y-82310000D01*
X130346000Y-80760000D01*
X130596000Y-80760000D01*
X130596000Y-82310000D01*
G36*
X130596000Y-82310000D02*
G01*
X130346000Y-82310000D01*
X130346000Y-80760000D01*
X130596000Y-80760000D01*
X130596000Y-82310000D01*
G37*
X129946000Y-82310000D02*
X129696000Y-82310000D01*
X129696000Y-80760000D01*
X129946000Y-80760000D01*
X129946000Y-82310000D01*
G36*
X129946000Y-82310000D02*
G01*
X129696000Y-82310000D01*
X129696000Y-80760000D01*
X129946000Y-80760000D01*
X129946000Y-82310000D01*
G37*
X129296000Y-82310000D02*
X129046000Y-82310000D01*
X129046000Y-80760000D01*
X129296000Y-80760000D01*
X129296000Y-82310000D01*
G36*
X129296000Y-82310000D02*
G01*
X129046000Y-82310000D01*
X129046000Y-80760000D01*
X129296000Y-80760000D01*
X129296000Y-82310000D01*
G37*
X136626000Y-85535000D02*
X130166000Y-85535000D01*
X130166000Y-83135000D01*
X136626000Y-83135000D01*
X136626000Y-85535000D01*
G36*
X136626000Y-85535000D02*
G01*
X130166000Y-85535000D01*
X130166000Y-83135000D01*
X136626000Y-83135000D01*
X136626000Y-85535000D01*
G37*
X137746000Y-87910000D02*
X137496000Y-87910000D01*
X137496000Y-86360000D01*
X137746000Y-86360000D01*
X137746000Y-87910000D01*
G36*
X137746000Y-87910000D02*
G01*
X137496000Y-87910000D01*
X137496000Y-86360000D01*
X137746000Y-86360000D01*
X137746000Y-87910000D01*
G37*
X137096000Y-87910000D02*
X136846000Y-87910000D01*
X136846000Y-86360000D01*
X137096000Y-86360000D01*
X137096000Y-87910000D01*
G36*
X137096000Y-87910000D02*
G01*
X136846000Y-87910000D01*
X136846000Y-86360000D01*
X137096000Y-86360000D01*
X137096000Y-87910000D01*
G37*
X136446000Y-87910000D02*
X136196000Y-87910000D01*
X136196000Y-86360000D01*
X136446000Y-86360000D01*
X136446000Y-87910000D01*
G36*
X136446000Y-87910000D02*
G01*
X136196000Y-87910000D01*
X136196000Y-86360000D01*
X136446000Y-86360000D01*
X136446000Y-87910000D01*
G37*
X135796000Y-87910000D02*
X135546000Y-87910000D01*
X135546000Y-86360000D01*
X135796000Y-86360000D01*
X135796000Y-87910000D01*
G36*
X135796000Y-87910000D02*
G01*
X135546000Y-87910000D01*
X135546000Y-86360000D01*
X135796000Y-86360000D01*
X135796000Y-87910000D01*
G37*
X135146000Y-87910000D02*
X134896000Y-87910000D01*
X134896000Y-86360000D01*
X135146000Y-86360000D01*
X135146000Y-87910000D01*
G36*
X135146000Y-87910000D02*
G01*
X134896000Y-87910000D01*
X134896000Y-86360000D01*
X135146000Y-86360000D01*
X135146000Y-87910000D01*
G37*
X134496000Y-87910000D02*
X134246000Y-87910000D01*
X134246000Y-86360000D01*
X134496000Y-86360000D01*
X134496000Y-87910000D01*
G36*
X134496000Y-87910000D02*
G01*
X134246000Y-87910000D01*
X134246000Y-86360000D01*
X134496000Y-86360000D01*
X134496000Y-87910000D01*
G37*
X133846000Y-87910000D02*
X133596000Y-87910000D01*
X133596000Y-86360000D01*
X133846000Y-86360000D01*
X133846000Y-87910000D01*
G36*
X133846000Y-87910000D02*
G01*
X133596000Y-87910000D01*
X133596000Y-86360000D01*
X133846000Y-86360000D01*
X133846000Y-87910000D01*
G37*
X133196000Y-87910000D02*
X132946000Y-87910000D01*
X132946000Y-86360000D01*
X133196000Y-86360000D01*
X133196000Y-87910000D01*
G36*
X133196000Y-87910000D02*
G01*
X132946000Y-87910000D01*
X132946000Y-86360000D01*
X133196000Y-86360000D01*
X133196000Y-87910000D01*
G37*
X132546000Y-87910000D02*
X132296000Y-87910000D01*
X132296000Y-86360000D01*
X132546000Y-86360000D01*
X132546000Y-87910000D01*
G36*
X132546000Y-87910000D02*
G01*
X132296000Y-87910000D01*
X132296000Y-86360000D01*
X132546000Y-86360000D01*
X132546000Y-87910000D01*
G37*
X131896000Y-87910000D02*
X131646000Y-87910000D01*
X131646000Y-86360000D01*
X131896000Y-86360000D01*
X131896000Y-87910000D01*
G36*
X131896000Y-87910000D02*
G01*
X131646000Y-87910000D01*
X131646000Y-86360000D01*
X131896000Y-86360000D01*
X131896000Y-87910000D01*
G37*
X131246000Y-87910000D02*
X130996000Y-87910000D01*
X130996000Y-86360000D01*
X131246000Y-86360000D01*
X131246000Y-87910000D01*
G36*
X131246000Y-87910000D02*
G01*
X130996000Y-87910000D01*
X130996000Y-86360000D01*
X131246000Y-86360000D01*
X131246000Y-87910000D01*
G37*
X130596000Y-87910000D02*
X130346000Y-87910000D01*
X130346000Y-86360000D01*
X130596000Y-86360000D01*
X130596000Y-87910000D01*
G36*
X130596000Y-87910000D02*
G01*
X130346000Y-87910000D01*
X130346000Y-86360000D01*
X130596000Y-86360000D01*
X130596000Y-87910000D01*
G37*
X129946000Y-87910000D02*
X129696000Y-87910000D01*
X129696000Y-86360000D01*
X129946000Y-86360000D01*
X129946000Y-87910000D01*
G36*
X129946000Y-87910000D02*
G01*
X129696000Y-87910000D01*
X129696000Y-86360000D01*
X129946000Y-86360000D01*
X129946000Y-87910000D01*
G37*
X129296000Y-87910000D02*
X129046000Y-87910000D01*
X129046000Y-86360000D01*
X129296000Y-86360000D01*
X129296000Y-87910000D01*
G36*
X129296000Y-87910000D02*
G01*
X129046000Y-87910000D01*
X129046000Y-86360000D01*
X129296000Y-86360000D01*
X129296000Y-87910000D01*
G37*
%TO.C,U2*%
X137791000Y-61875000D02*
X137541000Y-61875000D01*
X137541000Y-60325000D01*
X137791000Y-60325000D01*
X137791000Y-61875000D01*
G36*
X137791000Y-61875000D02*
G01*
X137541000Y-61875000D01*
X137541000Y-60325000D01*
X137791000Y-60325000D01*
X137791000Y-61875000D01*
G37*
X137141000Y-61875000D02*
X136891000Y-61875000D01*
X136891000Y-60325000D01*
X137141000Y-60325000D01*
X137141000Y-61875000D01*
G36*
X137141000Y-61875000D02*
G01*
X136891000Y-61875000D01*
X136891000Y-60325000D01*
X137141000Y-60325000D01*
X137141000Y-61875000D01*
G37*
X136491000Y-61875000D02*
X136241000Y-61875000D01*
X136241000Y-60325000D01*
X136491000Y-60325000D01*
X136491000Y-61875000D01*
G36*
X136491000Y-61875000D02*
G01*
X136241000Y-61875000D01*
X136241000Y-60325000D01*
X136491000Y-60325000D01*
X136491000Y-61875000D01*
G37*
X135841000Y-61875000D02*
X135591000Y-61875000D01*
X135591000Y-60325000D01*
X135841000Y-60325000D01*
X135841000Y-61875000D01*
G36*
X135841000Y-61875000D02*
G01*
X135591000Y-61875000D01*
X135591000Y-60325000D01*
X135841000Y-60325000D01*
X135841000Y-61875000D01*
G37*
X135191000Y-61875000D02*
X134941000Y-61875000D01*
X134941000Y-60325000D01*
X135191000Y-60325000D01*
X135191000Y-61875000D01*
G36*
X135191000Y-61875000D02*
G01*
X134941000Y-61875000D01*
X134941000Y-60325000D01*
X135191000Y-60325000D01*
X135191000Y-61875000D01*
G37*
X134541000Y-61875000D02*
X134291000Y-61875000D01*
X134291000Y-60325000D01*
X134541000Y-60325000D01*
X134541000Y-61875000D01*
G36*
X134541000Y-61875000D02*
G01*
X134291000Y-61875000D01*
X134291000Y-60325000D01*
X134541000Y-60325000D01*
X134541000Y-61875000D01*
G37*
X133891000Y-61875000D02*
X133641000Y-61875000D01*
X133641000Y-60325000D01*
X133891000Y-60325000D01*
X133891000Y-61875000D01*
G36*
X133891000Y-61875000D02*
G01*
X133641000Y-61875000D01*
X133641000Y-60325000D01*
X133891000Y-60325000D01*
X133891000Y-61875000D01*
G37*
X133241000Y-61875000D02*
X132991000Y-61875000D01*
X132991000Y-60325000D01*
X133241000Y-60325000D01*
X133241000Y-61875000D01*
G36*
X133241000Y-61875000D02*
G01*
X132991000Y-61875000D01*
X132991000Y-60325000D01*
X133241000Y-60325000D01*
X133241000Y-61875000D01*
G37*
X132591000Y-61875000D02*
X132341000Y-61875000D01*
X132341000Y-60325000D01*
X132591000Y-60325000D01*
X132591000Y-61875000D01*
G36*
X132591000Y-61875000D02*
G01*
X132341000Y-61875000D01*
X132341000Y-60325000D01*
X132591000Y-60325000D01*
X132591000Y-61875000D01*
G37*
X131941000Y-61875000D02*
X131691000Y-61875000D01*
X131691000Y-60325000D01*
X131941000Y-60325000D01*
X131941000Y-61875000D01*
G36*
X131941000Y-61875000D02*
G01*
X131691000Y-61875000D01*
X131691000Y-60325000D01*
X131941000Y-60325000D01*
X131941000Y-61875000D01*
G37*
X131291000Y-61875000D02*
X131041000Y-61875000D01*
X131041000Y-60325000D01*
X131291000Y-60325000D01*
X131291000Y-61875000D01*
G36*
X131291000Y-61875000D02*
G01*
X131041000Y-61875000D01*
X131041000Y-60325000D01*
X131291000Y-60325000D01*
X131291000Y-61875000D01*
G37*
X130641000Y-61875000D02*
X130391000Y-61875000D01*
X130391000Y-60325000D01*
X130641000Y-60325000D01*
X130641000Y-61875000D01*
G36*
X130641000Y-61875000D02*
G01*
X130391000Y-61875000D01*
X130391000Y-60325000D01*
X130641000Y-60325000D01*
X130641000Y-61875000D01*
G37*
X129991000Y-61875000D02*
X129741000Y-61875000D01*
X129741000Y-60325000D01*
X129991000Y-60325000D01*
X129991000Y-61875000D01*
G36*
X129991000Y-61875000D02*
G01*
X129741000Y-61875000D01*
X129741000Y-60325000D01*
X129991000Y-60325000D01*
X129991000Y-61875000D01*
G37*
X129341000Y-61875000D02*
X129091000Y-61875000D01*
X129091000Y-60325000D01*
X129341000Y-60325000D01*
X129341000Y-61875000D01*
G36*
X129341000Y-61875000D02*
G01*
X129091000Y-61875000D01*
X129091000Y-60325000D01*
X129341000Y-60325000D01*
X129341000Y-61875000D01*
G37*
X136671000Y-65100000D02*
X130211000Y-65100000D01*
X130211000Y-62700000D01*
X136671000Y-62700000D01*
X136671000Y-65100000D01*
G36*
X136671000Y-65100000D02*
G01*
X130211000Y-65100000D01*
X130211000Y-62700000D01*
X136671000Y-62700000D01*
X136671000Y-65100000D01*
G37*
X137791000Y-67475000D02*
X137541000Y-67475000D01*
X137541000Y-65925000D01*
X137791000Y-65925000D01*
X137791000Y-67475000D01*
G36*
X137791000Y-67475000D02*
G01*
X137541000Y-67475000D01*
X137541000Y-65925000D01*
X137791000Y-65925000D01*
X137791000Y-67475000D01*
G37*
X137141000Y-67475000D02*
X136891000Y-67475000D01*
X136891000Y-65925000D01*
X137141000Y-65925000D01*
X137141000Y-67475000D01*
G36*
X137141000Y-67475000D02*
G01*
X136891000Y-67475000D01*
X136891000Y-65925000D01*
X137141000Y-65925000D01*
X137141000Y-67475000D01*
G37*
X136491000Y-67475000D02*
X136241000Y-67475000D01*
X136241000Y-65925000D01*
X136491000Y-65925000D01*
X136491000Y-67475000D01*
G36*
X136491000Y-67475000D02*
G01*
X136241000Y-67475000D01*
X136241000Y-65925000D01*
X136491000Y-65925000D01*
X136491000Y-67475000D01*
G37*
X135841000Y-67475000D02*
X135591000Y-67475000D01*
X135591000Y-65925000D01*
X135841000Y-65925000D01*
X135841000Y-67475000D01*
G36*
X135841000Y-67475000D02*
G01*
X135591000Y-67475000D01*
X135591000Y-65925000D01*
X135841000Y-65925000D01*
X135841000Y-67475000D01*
G37*
X135191000Y-67475000D02*
X134941000Y-67475000D01*
X134941000Y-65925000D01*
X135191000Y-65925000D01*
X135191000Y-67475000D01*
G36*
X135191000Y-67475000D02*
G01*
X134941000Y-67475000D01*
X134941000Y-65925000D01*
X135191000Y-65925000D01*
X135191000Y-67475000D01*
G37*
X134541000Y-67475000D02*
X134291000Y-67475000D01*
X134291000Y-65925000D01*
X134541000Y-65925000D01*
X134541000Y-67475000D01*
G36*
X134541000Y-67475000D02*
G01*
X134291000Y-67475000D01*
X134291000Y-65925000D01*
X134541000Y-65925000D01*
X134541000Y-67475000D01*
G37*
X133891000Y-67475000D02*
X133641000Y-67475000D01*
X133641000Y-65925000D01*
X133891000Y-65925000D01*
X133891000Y-67475000D01*
G36*
X133891000Y-67475000D02*
G01*
X133641000Y-67475000D01*
X133641000Y-65925000D01*
X133891000Y-65925000D01*
X133891000Y-67475000D01*
G37*
X133241000Y-67475000D02*
X132991000Y-67475000D01*
X132991000Y-65925000D01*
X133241000Y-65925000D01*
X133241000Y-67475000D01*
G36*
X133241000Y-67475000D02*
G01*
X132991000Y-67475000D01*
X132991000Y-65925000D01*
X133241000Y-65925000D01*
X133241000Y-67475000D01*
G37*
X132591000Y-67475000D02*
X132341000Y-67475000D01*
X132341000Y-65925000D01*
X132591000Y-65925000D01*
X132591000Y-67475000D01*
G36*
X132591000Y-67475000D02*
G01*
X132341000Y-67475000D01*
X132341000Y-65925000D01*
X132591000Y-65925000D01*
X132591000Y-67475000D01*
G37*
X131941000Y-67475000D02*
X131691000Y-67475000D01*
X131691000Y-65925000D01*
X131941000Y-65925000D01*
X131941000Y-67475000D01*
G36*
X131941000Y-67475000D02*
G01*
X131691000Y-67475000D01*
X131691000Y-65925000D01*
X131941000Y-65925000D01*
X131941000Y-67475000D01*
G37*
X131291000Y-67475000D02*
X131041000Y-67475000D01*
X131041000Y-65925000D01*
X131291000Y-65925000D01*
X131291000Y-67475000D01*
G36*
X131291000Y-67475000D02*
G01*
X131041000Y-67475000D01*
X131041000Y-65925000D01*
X131291000Y-65925000D01*
X131291000Y-67475000D01*
G37*
X130641000Y-67475000D02*
X130391000Y-67475000D01*
X130391000Y-65925000D01*
X130641000Y-65925000D01*
X130641000Y-67475000D01*
G36*
X130641000Y-67475000D02*
G01*
X130391000Y-67475000D01*
X130391000Y-65925000D01*
X130641000Y-65925000D01*
X130641000Y-67475000D01*
G37*
X129991000Y-67475000D02*
X129741000Y-67475000D01*
X129741000Y-65925000D01*
X129991000Y-65925000D01*
X129991000Y-67475000D01*
G36*
X129991000Y-67475000D02*
G01*
X129741000Y-67475000D01*
X129741000Y-65925000D01*
X129991000Y-65925000D01*
X129991000Y-67475000D01*
G37*
X129341000Y-67475000D02*
X129091000Y-67475000D01*
X129091000Y-65925000D01*
X129341000Y-65925000D01*
X129341000Y-67475000D01*
G36*
X129341000Y-67475000D02*
G01*
X129091000Y-67475000D01*
X129091000Y-65925000D01*
X129341000Y-65925000D01*
X129341000Y-67475000D01*
G37*
%TO.C,U4*%
X137141000Y-102515000D02*
X136891000Y-102515000D01*
X136891000Y-100965000D01*
X137141000Y-100965000D01*
X137141000Y-102515000D01*
G36*
X137141000Y-102515000D02*
G01*
X136891000Y-102515000D01*
X136891000Y-100965000D01*
X137141000Y-100965000D01*
X137141000Y-102515000D01*
G37*
X136491000Y-102515000D02*
X136241000Y-102515000D01*
X136241000Y-100965000D01*
X136491000Y-100965000D01*
X136491000Y-102515000D01*
G36*
X136491000Y-102515000D02*
G01*
X136241000Y-102515000D01*
X136241000Y-100965000D01*
X136491000Y-100965000D01*
X136491000Y-102515000D01*
G37*
X135841000Y-102515000D02*
X135591000Y-102515000D01*
X135591000Y-100965000D01*
X135841000Y-100965000D01*
X135841000Y-102515000D01*
G36*
X135841000Y-102515000D02*
G01*
X135591000Y-102515000D01*
X135591000Y-100965000D01*
X135841000Y-100965000D01*
X135841000Y-102515000D01*
G37*
X135191000Y-102515000D02*
X134941000Y-102515000D01*
X134941000Y-100965000D01*
X135191000Y-100965000D01*
X135191000Y-102515000D01*
G36*
X135191000Y-102515000D02*
G01*
X134941000Y-102515000D01*
X134941000Y-100965000D01*
X135191000Y-100965000D01*
X135191000Y-102515000D01*
G37*
X134541000Y-102515000D02*
X134291000Y-102515000D01*
X134291000Y-100965000D01*
X134541000Y-100965000D01*
X134541000Y-102515000D01*
G36*
X134541000Y-102515000D02*
G01*
X134291000Y-102515000D01*
X134291000Y-100965000D01*
X134541000Y-100965000D01*
X134541000Y-102515000D01*
G37*
X133891000Y-102515000D02*
X133641000Y-102515000D01*
X133641000Y-100965000D01*
X133891000Y-100965000D01*
X133891000Y-102515000D01*
G36*
X133891000Y-102515000D02*
G01*
X133641000Y-102515000D01*
X133641000Y-100965000D01*
X133891000Y-100965000D01*
X133891000Y-102515000D01*
G37*
X133241000Y-102515000D02*
X132991000Y-102515000D01*
X132991000Y-100965000D01*
X133241000Y-100965000D01*
X133241000Y-102515000D01*
G36*
X133241000Y-102515000D02*
G01*
X132991000Y-102515000D01*
X132991000Y-100965000D01*
X133241000Y-100965000D01*
X133241000Y-102515000D01*
G37*
X132591000Y-102515000D02*
X132341000Y-102515000D01*
X132341000Y-100965000D01*
X132591000Y-100965000D01*
X132591000Y-102515000D01*
G36*
X132591000Y-102515000D02*
G01*
X132341000Y-102515000D01*
X132341000Y-100965000D01*
X132591000Y-100965000D01*
X132591000Y-102515000D01*
G37*
X131941000Y-102515000D02*
X131691000Y-102515000D01*
X131691000Y-100965000D01*
X131941000Y-100965000D01*
X131941000Y-102515000D01*
G36*
X131941000Y-102515000D02*
G01*
X131691000Y-102515000D01*
X131691000Y-100965000D01*
X131941000Y-100965000D01*
X131941000Y-102515000D01*
G37*
X131291000Y-102515000D02*
X131041000Y-102515000D01*
X131041000Y-100965000D01*
X131291000Y-100965000D01*
X131291000Y-102515000D01*
G36*
X131291000Y-102515000D02*
G01*
X131041000Y-102515000D01*
X131041000Y-100965000D01*
X131291000Y-100965000D01*
X131291000Y-102515000D01*
G37*
X130641000Y-102515000D02*
X130391000Y-102515000D01*
X130391000Y-100965000D01*
X130641000Y-100965000D01*
X130641000Y-102515000D01*
G36*
X130641000Y-102515000D02*
G01*
X130391000Y-102515000D01*
X130391000Y-100965000D01*
X130641000Y-100965000D01*
X130641000Y-102515000D01*
G37*
X129991000Y-102515000D02*
X129741000Y-102515000D01*
X129741000Y-100965000D01*
X129991000Y-100965000D01*
X129991000Y-102515000D01*
G36*
X129991000Y-102515000D02*
G01*
X129741000Y-102515000D01*
X129741000Y-100965000D01*
X129991000Y-100965000D01*
X129991000Y-102515000D01*
G37*
X129341000Y-102515000D02*
X129091000Y-102515000D01*
X129091000Y-100965000D01*
X129341000Y-100965000D01*
X129341000Y-102515000D01*
G36*
X129341000Y-102515000D02*
G01*
X129091000Y-102515000D01*
X129091000Y-100965000D01*
X129341000Y-100965000D01*
X129341000Y-102515000D01*
G37*
X128691000Y-102515000D02*
X128441000Y-102515000D01*
X128441000Y-100965000D01*
X128691000Y-100965000D01*
X128691000Y-102515000D01*
G36*
X128691000Y-102515000D02*
G01*
X128441000Y-102515000D01*
X128441000Y-100965000D01*
X128691000Y-100965000D01*
X128691000Y-102515000D01*
G37*
X136021000Y-105740000D02*
X129561000Y-105740000D01*
X129561000Y-103340000D01*
X136021000Y-103340000D01*
X136021000Y-105740000D01*
G36*
X136021000Y-105740000D02*
G01*
X129561000Y-105740000D01*
X129561000Y-103340000D01*
X136021000Y-103340000D01*
X136021000Y-105740000D01*
G37*
X137141000Y-108115000D02*
X136891000Y-108115000D01*
X136891000Y-106565000D01*
X137141000Y-106565000D01*
X137141000Y-108115000D01*
G36*
X137141000Y-108115000D02*
G01*
X136891000Y-108115000D01*
X136891000Y-106565000D01*
X137141000Y-106565000D01*
X137141000Y-108115000D01*
G37*
X136491000Y-108115000D02*
X136241000Y-108115000D01*
X136241000Y-106565000D01*
X136491000Y-106565000D01*
X136491000Y-108115000D01*
G36*
X136491000Y-108115000D02*
G01*
X136241000Y-108115000D01*
X136241000Y-106565000D01*
X136491000Y-106565000D01*
X136491000Y-108115000D01*
G37*
X135841000Y-108115000D02*
X135591000Y-108115000D01*
X135591000Y-106565000D01*
X135841000Y-106565000D01*
X135841000Y-108115000D01*
G36*
X135841000Y-108115000D02*
G01*
X135591000Y-108115000D01*
X135591000Y-106565000D01*
X135841000Y-106565000D01*
X135841000Y-108115000D01*
G37*
X135191000Y-108115000D02*
X134941000Y-108115000D01*
X134941000Y-106565000D01*
X135191000Y-106565000D01*
X135191000Y-108115000D01*
G36*
X135191000Y-108115000D02*
G01*
X134941000Y-108115000D01*
X134941000Y-106565000D01*
X135191000Y-106565000D01*
X135191000Y-108115000D01*
G37*
X134541000Y-108115000D02*
X134291000Y-108115000D01*
X134291000Y-106565000D01*
X134541000Y-106565000D01*
X134541000Y-108115000D01*
G36*
X134541000Y-108115000D02*
G01*
X134291000Y-108115000D01*
X134291000Y-106565000D01*
X134541000Y-106565000D01*
X134541000Y-108115000D01*
G37*
X133891000Y-108115000D02*
X133641000Y-108115000D01*
X133641000Y-106565000D01*
X133891000Y-106565000D01*
X133891000Y-108115000D01*
G36*
X133891000Y-108115000D02*
G01*
X133641000Y-108115000D01*
X133641000Y-106565000D01*
X133891000Y-106565000D01*
X133891000Y-108115000D01*
G37*
X133241000Y-108115000D02*
X132991000Y-108115000D01*
X132991000Y-106565000D01*
X133241000Y-106565000D01*
X133241000Y-108115000D01*
G36*
X133241000Y-108115000D02*
G01*
X132991000Y-108115000D01*
X132991000Y-106565000D01*
X133241000Y-106565000D01*
X133241000Y-108115000D01*
G37*
X132591000Y-108115000D02*
X132341000Y-108115000D01*
X132341000Y-106565000D01*
X132591000Y-106565000D01*
X132591000Y-108115000D01*
G36*
X132591000Y-108115000D02*
G01*
X132341000Y-108115000D01*
X132341000Y-106565000D01*
X132591000Y-106565000D01*
X132591000Y-108115000D01*
G37*
X131941000Y-108115000D02*
X131691000Y-108115000D01*
X131691000Y-106565000D01*
X131941000Y-106565000D01*
X131941000Y-108115000D01*
G36*
X131941000Y-108115000D02*
G01*
X131691000Y-108115000D01*
X131691000Y-106565000D01*
X131941000Y-106565000D01*
X131941000Y-108115000D01*
G37*
X131291000Y-108115000D02*
X131041000Y-108115000D01*
X131041000Y-106565000D01*
X131291000Y-106565000D01*
X131291000Y-108115000D01*
G36*
X131291000Y-108115000D02*
G01*
X131041000Y-108115000D01*
X131041000Y-106565000D01*
X131291000Y-106565000D01*
X131291000Y-108115000D01*
G37*
X130641000Y-108115000D02*
X130391000Y-108115000D01*
X130391000Y-106565000D01*
X130641000Y-106565000D01*
X130641000Y-108115000D01*
G36*
X130641000Y-108115000D02*
G01*
X130391000Y-108115000D01*
X130391000Y-106565000D01*
X130641000Y-106565000D01*
X130641000Y-108115000D01*
G37*
X129991000Y-108115000D02*
X129741000Y-108115000D01*
X129741000Y-106565000D01*
X129991000Y-106565000D01*
X129991000Y-108115000D01*
G36*
X129991000Y-108115000D02*
G01*
X129741000Y-108115000D01*
X129741000Y-106565000D01*
X129991000Y-106565000D01*
X129991000Y-108115000D01*
G37*
X129341000Y-108115000D02*
X129091000Y-108115000D01*
X129091000Y-106565000D01*
X129341000Y-106565000D01*
X129341000Y-108115000D01*
G36*
X129341000Y-108115000D02*
G01*
X129091000Y-108115000D01*
X129091000Y-106565000D01*
X129341000Y-106565000D01*
X129341000Y-108115000D01*
G37*
X128691000Y-108115000D02*
X128441000Y-108115000D01*
X128441000Y-106565000D01*
X128691000Y-106565000D01*
X128691000Y-108115000D01*
G36*
X128691000Y-108115000D02*
G01*
X128441000Y-108115000D01*
X128441000Y-106565000D01*
X128691000Y-106565000D01*
X128691000Y-108115000D01*
G37*
%TO.C,U5*%
X137088000Y-122823000D02*
X136838000Y-122823000D01*
X136838000Y-121273000D01*
X137088000Y-121273000D01*
X137088000Y-122823000D01*
G36*
X137088000Y-122823000D02*
G01*
X136838000Y-122823000D01*
X136838000Y-121273000D01*
X137088000Y-121273000D01*
X137088000Y-122823000D01*
G37*
X136438000Y-122823000D02*
X136188000Y-122823000D01*
X136188000Y-121273000D01*
X136438000Y-121273000D01*
X136438000Y-122823000D01*
G36*
X136438000Y-122823000D02*
G01*
X136188000Y-122823000D01*
X136188000Y-121273000D01*
X136438000Y-121273000D01*
X136438000Y-122823000D01*
G37*
X135788000Y-122823000D02*
X135538000Y-122823000D01*
X135538000Y-121273000D01*
X135788000Y-121273000D01*
X135788000Y-122823000D01*
G36*
X135788000Y-122823000D02*
G01*
X135538000Y-122823000D01*
X135538000Y-121273000D01*
X135788000Y-121273000D01*
X135788000Y-122823000D01*
G37*
X135138000Y-122823000D02*
X134888000Y-122823000D01*
X134888000Y-121273000D01*
X135138000Y-121273000D01*
X135138000Y-122823000D01*
G36*
X135138000Y-122823000D02*
G01*
X134888000Y-122823000D01*
X134888000Y-121273000D01*
X135138000Y-121273000D01*
X135138000Y-122823000D01*
G37*
X134488000Y-122823000D02*
X134238000Y-122823000D01*
X134238000Y-121273000D01*
X134488000Y-121273000D01*
X134488000Y-122823000D01*
G36*
X134488000Y-122823000D02*
G01*
X134238000Y-122823000D01*
X134238000Y-121273000D01*
X134488000Y-121273000D01*
X134488000Y-122823000D01*
G37*
X133838000Y-122823000D02*
X133588000Y-122823000D01*
X133588000Y-121273000D01*
X133838000Y-121273000D01*
X133838000Y-122823000D01*
G36*
X133838000Y-122823000D02*
G01*
X133588000Y-122823000D01*
X133588000Y-121273000D01*
X133838000Y-121273000D01*
X133838000Y-122823000D01*
G37*
X133188000Y-122823000D02*
X132938000Y-122823000D01*
X132938000Y-121273000D01*
X133188000Y-121273000D01*
X133188000Y-122823000D01*
G36*
X133188000Y-122823000D02*
G01*
X132938000Y-122823000D01*
X132938000Y-121273000D01*
X133188000Y-121273000D01*
X133188000Y-122823000D01*
G37*
X132538000Y-122823000D02*
X132288000Y-122823000D01*
X132288000Y-121273000D01*
X132538000Y-121273000D01*
X132538000Y-122823000D01*
G36*
X132538000Y-122823000D02*
G01*
X132288000Y-122823000D01*
X132288000Y-121273000D01*
X132538000Y-121273000D01*
X132538000Y-122823000D01*
G37*
X131888000Y-122823000D02*
X131638000Y-122823000D01*
X131638000Y-121273000D01*
X131888000Y-121273000D01*
X131888000Y-122823000D01*
G36*
X131888000Y-122823000D02*
G01*
X131638000Y-122823000D01*
X131638000Y-121273000D01*
X131888000Y-121273000D01*
X131888000Y-122823000D01*
G37*
X131238000Y-122823000D02*
X130988000Y-122823000D01*
X130988000Y-121273000D01*
X131238000Y-121273000D01*
X131238000Y-122823000D01*
G36*
X131238000Y-122823000D02*
G01*
X130988000Y-122823000D01*
X130988000Y-121273000D01*
X131238000Y-121273000D01*
X131238000Y-122823000D01*
G37*
X130588000Y-122823000D02*
X130338000Y-122823000D01*
X130338000Y-121273000D01*
X130588000Y-121273000D01*
X130588000Y-122823000D01*
G36*
X130588000Y-122823000D02*
G01*
X130338000Y-122823000D01*
X130338000Y-121273000D01*
X130588000Y-121273000D01*
X130588000Y-122823000D01*
G37*
X129938000Y-122823000D02*
X129688000Y-122823000D01*
X129688000Y-121273000D01*
X129938000Y-121273000D01*
X129938000Y-122823000D01*
G36*
X129938000Y-122823000D02*
G01*
X129688000Y-122823000D01*
X129688000Y-121273000D01*
X129938000Y-121273000D01*
X129938000Y-122823000D01*
G37*
X129288000Y-122823000D02*
X129038000Y-122823000D01*
X129038000Y-121273000D01*
X129288000Y-121273000D01*
X129288000Y-122823000D01*
G36*
X129288000Y-122823000D02*
G01*
X129038000Y-122823000D01*
X129038000Y-121273000D01*
X129288000Y-121273000D01*
X129288000Y-122823000D01*
G37*
X128638000Y-122823000D02*
X128388000Y-122823000D01*
X128388000Y-121273000D01*
X128638000Y-121273000D01*
X128638000Y-122823000D01*
G36*
X128638000Y-122823000D02*
G01*
X128388000Y-122823000D01*
X128388000Y-121273000D01*
X128638000Y-121273000D01*
X128638000Y-122823000D01*
G37*
X135968000Y-126048000D02*
X129508000Y-126048000D01*
X129508000Y-123648000D01*
X135968000Y-123648000D01*
X135968000Y-126048000D01*
G36*
X135968000Y-126048000D02*
G01*
X129508000Y-126048000D01*
X129508000Y-123648000D01*
X135968000Y-123648000D01*
X135968000Y-126048000D01*
G37*
X137088000Y-128423000D02*
X136838000Y-128423000D01*
X136838000Y-126873000D01*
X137088000Y-126873000D01*
X137088000Y-128423000D01*
G36*
X137088000Y-128423000D02*
G01*
X136838000Y-128423000D01*
X136838000Y-126873000D01*
X137088000Y-126873000D01*
X137088000Y-128423000D01*
G37*
X136438000Y-128423000D02*
X136188000Y-128423000D01*
X136188000Y-126873000D01*
X136438000Y-126873000D01*
X136438000Y-128423000D01*
G36*
X136438000Y-128423000D02*
G01*
X136188000Y-128423000D01*
X136188000Y-126873000D01*
X136438000Y-126873000D01*
X136438000Y-128423000D01*
G37*
X135788000Y-128423000D02*
X135538000Y-128423000D01*
X135538000Y-126873000D01*
X135788000Y-126873000D01*
X135788000Y-128423000D01*
G36*
X135788000Y-128423000D02*
G01*
X135538000Y-128423000D01*
X135538000Y-126873000D01*
X135788000Y-126873000D01*
X135788000Y-128423000D01*
G37*
X135138000Y-128423000D02*
X134888000Y-128423000D01*
X134888000Y-126873000D01*
X135138000Y-126873000D01*
X135138000Y-128423000D01*
G36*
X135138000Y-128423000D02*
G01*
X134888000Y-128423000D01*
X134888000Y-126873000D01*
X135138000Y-126873000D01*
X135138000Y-128423000D01*
G37*
X134488000Y-128423000D02*
X134238000Y-128423000D01*
X134238000Y-126873000D01*
X134488000Y-126873000D01*
X134488000Y-128423000D01*
G36*
X134488000Y-128423000D02*
G01*
X134238000Y-128423000D01*
X134238000Y-126873000D01*
X134488000Y-126873000D01*
X134488000Y-128423000D01*
G37*
X133838000Y-128423000D02*
X133588000Y-128423000D01*
X133588000Y-126873000D01*
X133838000Y-126873000D01*
X133838000Y-128423000D01*
G36*
X133838000Y-128423000D02*
G01*
X133588000Y-128423000D01*
X133588000Y-126873000D01*
X133838000Y-126873000D01*
X133838000Y-128423000D01*
G37*
X133188000Y-128423000D02*
X132938000Y-128423000D01*
X132938000Y-126873000D01*
X133188000Y-126873000D01*
X133188000Y-128423000D01*
G36*
X133188000Y-128423000D02*
G01*
X132938000Y-128423000D01*
X132938000Y-126873000D01*
X133188000Y-126873000D01*
X133188000Y-128423000D01*
G37*
X132538000Y-128423000D02*
X132288000Y-128423000D01*
X132288000Y-126873000D01*
X132538000Y-126873000D01*
X132538000Y-128423000D01*
G36*
X132538000Y-128423000D02*
G01*
X132288000Y-128423000D01*
X132288000Y-126873000D01*
X132538000Y-126873000D01*
X132538000Y-128423000D01*
G37*
X131888000Y-128423000D02*
X131638000Y-128423000D01*
X131638000Y-126873000D01*
X131888000Y-126873000D01*
X131888000Y-128423000D01*
G36*
X131888000Y-128423000D02*
G01*
X131638000Y-128423000D01*
X131638000Y-126873000D01*
X131888000Y-126873000D01*
X131888000Y-128423000D01*
G37*
X131238000Y-128423000D02*
X130988000Y-128423000D01*
X130988000Y-126873000D01*
X131238000Y-126873000D01*
X131238000Y-128423000D01*
G36*
X131238000Y-128423000D02*
G01*
X130988000Y-128423000D01*
X130988000Y-126873000D01*
X131238000Y-126873000D01*
X131238000Y-128423000D01*
G37*
X130588000Y-128423000D02*
X130338000Y-128423000D01*
X130338000Y-126873000D01*
X130588000Y-126873000D01*
X130588000Y-128423000D01*
G36*
X130588000Y-128423000D02*
G01*
X130338000Y-128423000D01*
X130338000Y-126873000D01*
X130588000Y-126873000D01*
X130588000Y-128423000D01*
G37*
X129938000Y-128423000D02*
X129688000Y-128423000D01*
X129688000Y-126873000D01*
X129938000Y-126873000D01*
X129938000Y-128423000D01*
G36*
X129938000Y-128423000D02*
G01*
X129688000Y-128423000D01*
X129688000Y-126873000D01*
X129938000Y-126873000D01*
X129938000Y-128423000D01*
G37*
X129288000Y-128423000D02*
X129038000Y-128423000D01*
X129038000Y-126873000D01*
X129288000Y-126873000D01*
X129288000Y-128423000D01*
G36*
X129288000Y-128423000D02*
G01*
X129038000Y-128423000D01*
X129038000Y-126873000D01*
X129288000Y-126873000D01*
X129288000Y-128423000D01*
G37*
X128638000Y-128423000D02*
X128388000Y-128423000D01*
X128388000Y-126873000D01*
X128638000Y-126873000D01*
X128638000Y-128423000D01*
G36*
X128638000Y-128423000D02*
G01*
X128388000Y-128423000D01*
X128388000Y-126873000D01*
X128638000Y-126873000D01*
X128638000Y-128423000D01*
G37*
%TD*%
D11*
%TO.C,U6*%
X98289000Y-93475500D03*
X99239000Y-93475500D03*
X100189000Y-93475500D03*
X100189000Y-91125500D03*
X98289000Y-91125500D03*
%TD*%
D12*
%TO.C,R16*%
X132010000Y-74877500D03*
X132010000Y-77802500D03*
%TD*%
D13*
%TO.C,L1*%
X103156500Y-77158000D03*
X101031500Y-77158000D03*
%TD*%
D14*
%TO.C,D1*%
X98949000Y-86683000D03*
X100824000Y-86683000D03*
%TD*%
D15*
%TO.C,R40*%
X130486000Y-131862500D03*
X130486000Y-130037500D03*
%TD*%
D16*
%TO.C,C12*%
X86854000Y-72398000D03*
X86854000Y-74298000D03*
%TD*%
D17*
%TO.C,C2*%
X96379000Y-96203000D03*
X96379000Y-94303000D03*
%TD*%
D18*
%TO.C,C8*%
X97329000Y-72713000D03*
X95429000Y-72713000D03*
%TD*%
D19*
%TO.C,R14*%
X138383500Y-57417000D03*
X136558500Y-57417000D03*
%TD*%
D20*
%TO.C,R4*%
X107809000Y-77515500D03*
X107809000Y-79340500D03*
%TD*%
D21*
%TO.C,R15*%
X134296000Y-77802500D03*
X134296000Y-74877500D03*
%TD*%
D15*
%TO.C,R10*%
X127438000Y-97469000D03*
X127438000Y-95644000D03*
%TD*%
D17*
%TO.C,C28*%
X120946000Y-97930000D03*
X120946000Y-96030000D03*
%TD*%
D15*
%TO.C,R22*%
X131121000Y-91222500D03*
X131121000Y-89397500D03*
%TD*%
D14*
%TO.C,D5*%
X126358500Y-111900000D03*
X128233500Y-111900000D03*
%TD*%
D16*
%TO.C,C15*%
X140646000Y-75390000D03*
X140646000Y-77290000D03*
%TD*%
D22*
%TO.C,SW3*%
X106539000Y-75683000D03*
X106539000Y-72283000D03*
%TD*%
D18*
%TO.C,C6*%
X108759000Y-81603000D03*
X106859000Y-81603000D03*
%TD*%
D15*
%TO.C,R6*%
X83566000Y-109624500D03*
X83566000Y-107799500D03*
%TD*%
D20*
%TO.C,R2*%
X93919000Y-90215500D03*
X93919000Y-92040500D03*
%TD*%
D12*
%TO.C,R13*%
X132010000Y-54557500D03*
X132010000Y-57482500D03*
%TD*%
D16*
%TO.C,C25*%
X140631000Y-95710000D03*
X140631000Y-97610000D03*
%TD*%
D21*
%TO.C,R12*%
X134296000Y-57421000D03*
X134296000Y-54496000D03*
%TD*%
D20*
%TO.C,R3*%
X104648000Y-89003500D03*
X104648000Y-90828500D03*
%TD*%
D21*
%TO.C,R33*%
X133534000Y-118442500D03*
X133534000Y-115517500D03*
%TD*%
D18*
%TO.C,C9*%
X108759000Y-84143000D03*
X106859000Y-84143000D03*
%TD*%
%TO.C,C1*%
X100504000Y-88903000D03*
X98604000Y-88903000D03*
%TD*%
D16*
%TO.C,C5*%
X140646000Y-55832000D03*
X140646000Y-57732000D03*
%TD*%
D17*
%TO.C,C3*%
X96379000Y-91758000D03*
X96379000Y-89858000D03*
%TD*%
%TO.C,C34*%
X126041000Y-117930000D03*
X126041000Y-116030000D03*
%TD*%
D15*
%TO.C,R5*%
X129216000Y-57440500D03*
X129216000Y-55615500D03*
%TD*%
D17*
%TO.C,C21*%
X121596000Y-57285000D03*
X121596000Y-55385000D03*
%TD*%
D22*
%TO.C,SW2*%
X101276000Y-75048000D03*
X101276000Y-71648000D03*
%TD*%
D19*
%TO.C,R35*%
X137748500Y-117615000D03*
X135923500Y-117615000D03*
%TD*%
D23*
%TO.C,C11*%
X137626000Y-55512000D03*
X138586000Y-55512000D03*
%TD*%
D24*
%TO.C,Y1*%
X103364000Y-84798000D03*
X103364000Y-87298000D03*
%TD*%
D23*
%TO.C,C26*%
X136821000Y-95390000D03*
X137781000Y-95390000D03*
%TD*%
D18*
%TO.C,C17*%
X100504000Y-95888000D03*
X98604000Y-95888000D03*
%TD*%
D23*
%TO.C,C16*%
X137626000Y-75070000D03*
X138586000Y-75070000D03*
%TD*%
D21*
%TO.C,R24*%
X133646000Y-98061000D03*
X133646000Y-95136000D03*
%TD*%
D15*
%TO.C,R21*%
X137471000Y-91222500D03*
X137471000Y-89397500D03*
%TD*%
%TO.C,R31*%
X130471000Y-111265000D03*
X130471000Y-109440000D03*
%TD*%
D17*
%TO.C,C33*%
X123491000Y-117930000D03*
X123491000Y-116030000D03*
%TD*%
D15*
%TO.C,R30*%
X136821000Y-111542500D03*
X136821000Y-109717500D03*
%TD*%
D16*
%TO.C,C13*%
X83496000Y-83645000D03*
X83496000Y-85545000D03*
%TD*%
D19*
%TO.C,R26*%
X137733500Y-97295000D03*
X135908500Y-97295000D03*
%TD*%
D23*
%TO.C,C31*%
X136991000Y-115710000D03*
X137951000Y-115710000D03*
%TD*%
D17*
%TO.C,C24*%
X126676000Y-77290000D03*
X126676000Y-75390000D03*
%TD*%
%TO.C,C23*%
X124136000Y-77290000D03*
X124136000Y-75390000D03*
%TD*%
D12*
%TO.C,R34*%
X130994000Y-115517500D03*
X130994000Y-118442500D03*
%TD*%
D15*
%TO.C,R9*%
X85572423Y-109290450D03*
X85572423Y-107465450D03*
%TD*%
D25*
%TO.C,C10*%
X105086000Y-85456000D03*
X105086000Y-84496000D03*
%TD*%
D17*
%TO.C,C19*%
X89394000Y-70305000D03*
X89394000Y-68405000D03*
%TD*%
D14*
%TO.C,D2*%
X102426500Y-93033000D03*
X104301500Y-93033000D03*
%TD*%
D18*
%TO.C,C4*%
X103044000Y-79063000D03*
X101144000Y-79063000D03*
%TD*%
D15*
%TO.C,R11*%
X128454000Y-117892500D03*
X128454000Y-116067500D03*
%TD*%
D20*
%TO.C,R8*%
X102616000Y-89003500D03*
X102616000Y-90828500D03*
%TD*%
D26*
%TO.C,U1*%
X98244000Y-84718000D03*
X98244000Y-84218000D03*
X98244000Y-83718000D03*
X98244000Y-83218000D03*
X98244000Y-82718000D03*
X98244000Y-82218000D03*
X98244000Y-81718000D03*
X98244000Y-81218000D03*
X98244000Y-80718000D03*
X98244000Y-80218000D03*
X98244000Y-79718000D03*
X98244000Y-79218000D03*
X98244000Y-78718000D03*
X98244000Y-78218000D03*
X98244000Y-77718000D03*
X98244000Y-77218000D03*
D27*
X96319000Y-75293000D03*
X95819000Y-75293000D03*
X95319000Y-75293000D03*
X94819000Y-75293000D03*
X94319000Y-75293000D03*
X93819000Y-75293000D03*
X93319000Y-75293000D03*
X92819000Y-75293000D03*
X92319000Y-75293000D03*
X91819000Y-75293000D03*
X91319000Y-75293000D03*
X90819000Y-75293000D03*
X90319000Y-75293000D03*
X89819000Y-75293000D03*
X89319000Y-75293000D03*
X88819000Y-75293000D03*
D26*
X86894000Y-77218000D03*
X86894000Y-77718000D03*
X86894000Y-78218000D03*
X86894000Y-78718000D03*
X86894000Y-79218000D03*
X86894000Y-79718000D03*
X86894000Y-80218000D03*
X86894000Y-80718000D03*
X86894000Y-81218000D03*
X86894000Y-81718000D03*
X86894000Y-82218000D03*
X86894000Y-82718000D03*
X86894000Y-83218000D03*
X86894000Y-83718000D03*
X86894000Y-84218000D03*
X86894000Y-84718000D03*
D27*
X88819000Y-86643000D03*
X89319000Y-86643000D03*
X89819000Y-86643000D03*
X90319000Y-86643000D03*
X90819000Y-86643000D03*
X91319000Y-86643000D03*
X91819000Y-86643000D03*
X92319000Y-86643000D03*
X92819000Y-86643000D03*
X93319000Y-86643000D03*
X93819000Y-86643000D03*
X94319000Y-86643000D03*
X94819000Y-86643000D03*
X95319000Y-86643000D03*
X95819000Y-86643000D03*
X96319000Y-86643000D03*
%TD*%
D14*
%TO.C,D4*%
X127008500Y-91580000D03*
X128883500Y-91580000D03*
%TD*%
D12*
%TO.C,R25*%
X130994000Y-95136000D03*
X130994000Y-98061000D03*
%TD*%
D15*
%TO.C,R39*%
X136836000Y-131862500D03*
X136836000Y-130037500D03*
%TD*%
D14*
%TO.C,D6*%
X126373500Y-132220000D03*
X128248500Y-132220000D03*
%TD*%
D17*
%TO.C,C14*%
X105269000Y-79378000D03*
X105269000Y-77478000D03*
%TD*%
D28*
%TO.C,Y2*%
X102899000Y-83088000D03*
X105099000Y-83088000D03*
X105099000Y-81388000D03*
X102899000Y-81388000D03*
%TD*%
D29*
%TO.C,C7*%
X105086000Y-86500000D03*
X105086000Y-87460000D03*
%TD*%
D16*
%TO.C,C30*%
X140646000Y-116030000D03*
X140646000Y-117930000D03*
%TD*%
D17*
%TO.C,C29*%
X123486000Y-97930000D03*
X123486000Y-96030000D03*
%TD*%
D15*
%TO.C,R18*%
X137471000Y-70902500D03*
X137471000Y-69077500D03*
%TD*%
%TO.C,R7*%
X129470000Y-77149000D03*
X129470000Y-75324000D03*
%TD*%
D22*
%TO.C,SW1*%
X91299000Y-94042000D03*
X91299000Y-90642000D03*
%TD*%
D30*
%TO.C,U7*%
X87306000Y-104685000D03*
X87306000Y-105185000D03*
X87306000Y-105685000D03*
X87306000Y-106185000D03*
X87306000Y-106685000D03*
X87306000Y-107185000D03*
X87306000Y-107685000D03*
D31*
X88306000Y-108685000D03*
X88806000Y-108685000D03*
X89306000Y-108685000D03*
X89806000Y-108685000D03*
X90306000Y-108685000D03*
X90806000Y-108685000D03*
X91306000Y-108685000D03*
D30*
X92306000Y-107685000D03*
X92306000Y-107185000D03*
X92306000Y-106685000D03*
X92306000Y-106185000D03*
X92306000Y-105685000D03*
X92306000Y-105185000D03*
X92306000Y-104685000D03*
D31*
X91306000Y-103685000D03*
X90806000Y-103685000D03*
X90306000Y-103685000D03*
X89806000Y-103685000D03*
X89306000Y-103685000D03*
X88806000Y-103685000D03*
X88306000Y-103685000D03*
D32*
X89806000Y-106185000D03*
%TD*%
D14*
%TO.C,D3*%
X127008500Y-71260000D03*
X128883500Y-71260000D03*
%TD*%
D15*
%TO.C,R19*%
X131121000Y-70545000D03*
X131121000Y-68720000D03*
%TD*%
D20*
%TO.C,R1*%
X91934000Y-68442500D03*
X91934000Y-70267500D03*
%TD*%
D19*
%TO.C,R17*%
X138383500Y-76975000D03*
X136558500Y-76975000D03*
%TD*%
D17*
%TO.C,C20*%
X124136000Y-57285000D03*
X124136000Y-55385000D03*
%TD*%
M02*
