%TF.GenerationSoftware,KiCad,Pcbnew,7.0.9*%
%TF.CreationDate,2023-12-05T19:57:25+01:00*%
%TF.ProjectId,Doodle Drive,446f6f64-6c65-4204-9472-6976652e6b69,1.0V*%
%TF.SameCoordinates,Original*%
%TF.FileFunction,Copper,L2,Bot*%
%TF.FilePolarity,Positive*%
%FSLAX46Y46*%
G04 Gerber Fmt 4.6, Leading zero omitted, Abs format (unit mm)*
G04 Created by KiCad (PCBNEW 7.0.9) date 2023-12-05 19:57:25*
%MOMM*%
%LPD*%
G01*
G04 APERTURE LIST*
%TA.AperFunction,ComponentPad*%
%ADD10R,1.980000X3.960000*%
%TD*%
%TA.AperFunction,ComponentPad*%
%ADD11O,1.980000X3.960000*%
%TD*%
%TA.AperFunction,ComponentPad*%
%ADD12R,1.217000X1.217000*%
%TD*%
%TA.AperFunction,ComponentPad*%
%ADD13C,1.217000*%
%TD*%
%TA.AperFunction,ComponentPad*%
%ADD14C,1.200000*%
%TD*%
%TA.AperFunction,ComponentPad*%
%ADD15R,1.600000X1.600000*%
%TD*%
%TA.AperFunction,ComponentPad*%
%ADD16C,1.600000*%
%TD*%
%TA.AperFunction,ComponentPad*%
%ADD17C,4.000000*%
%TD*%
%TA.AperFunction,ComponentPad*%
%ADD18C,0.500000*%
%TD*%
%TA.AperFunction,ComponentPad*%
%ADD19R,1.700000X1.700000*%
%TD*%
%TA.AperFunction,ComponentPad*%
%ADD20O,1.700000X1.700000*%
%TD*%
%TA.AperFunction,ViaPad*%
%ADD21C,0.600000*%
%TD*%
%TA.AperFunction,Conductor*%
%ADD22C,0.500000*%
%TD*%
%TA.AperFunction,Conductor*%
%ADD23C,0.250000*%
%TD*%
%TA.AperFunction,Conductor*%
%ADD24C,0.550000*%
%TD*%
G04 APERTURE END LIST*
D10*
%TO.P,J3,1,Pin_1*%
%TO.N,GND*%
X104226000Y-126935000D03*
D11*
%TO.P,J3,2,Pin_2*%
%TO.N,+15V*%
X109226000Y-126935000D03*
%TD*%
D12*
%TO.P,RV6,1,1*%
%TO.N,Net-(U3-AVREF)*%
X122231000Y-82055000D03*
D13*
%TO.P,RV6,2,2*%
%TO.N,GND*%
X119691000Y-84595000D03*
%TO.P,RV6,3,3*%
%TO.N,unconnected-(RV6-Pad3)*%
X122231000Y-87135000D03*
%TD*%
D14*
%TO.P,C32,1*%
%TO.N,GND*%
X119310000Y-115472000D03*
%TO.P,C32,2*%
%TO.N,+15V*%
X119310000Y-117472000D03*
%TD*%
D15*
%TO.P,J1,1,VBUS*%
%TO.N,+5V*%
X95363500Y-121532000D03*
D16*
%TO.P,J1,2,D-*%
%TO.N,Net-(J1-D-)*%
X95363500Y-119032000D03*
%TO.P,J1,3,D+*%
%TO.N,Net-(J1-D+)*%
X93363500Y-119032000D03*
%TO.P,J1,4,GND*%
%TO.N,GND*%
X93363500Y-121532000D03*
D17*
%TO.P,J1,5,Shield*%
X90503500Y-126282000D03*
X90503500Y-114282000D03*
%TD*%
D14*
%TO.P,C27,1*%
%TO.N,GND*%
X116770000Y-95136000D03*
%TO.P,C27,2*%
%TO.N,+15V*%
X116770000Y-97136000D03*
%TD*%
D18*
%TO.P,U3,30,EXP*%
%TO.N,GND*%
X133396000Y-84335000D03*
%TO.P,U3,31,EXP*%
X134696000Y-84335000D03*
%TO.P,U3,32,EXP*%
X135996000Y-84335000D03*
%TO.P,U3,33,EXP*%
X137296000Y-84335000D03*
%TO.P,U3,34,EXP*%
X132096000Y-84335000D03*
%TO.P,U3,35,EXP*%
X130796000Y-84335000D03*
%TO.P,U3,36,EXP*%
X129496000Y-84335000D03*
%TO.P,U3,37,EXP*%
X137296000Y-83035000D03*
%TO.P,U3,38,EXP*%
X137296000Y-85635000D03*
%TO.P,U3,39,EXP*%
X135996000Y-83035000D03*
%TO.P,U3,40,EXP*%
X135996000Y-85635000D03*
%TO.P,U3,41,EXP*%
X134696000Y-85635000D03*
%TO.P,U3,42,EXP*%
X134696000Y-83035000D03*
%TO.P,U3,43,EXP*%
X133396000Y-83035000D03*
%TO.P,U3,44,EXP*%
X133396000Y-85635000D03*
%TO.P,U3,45,EXP*%
X132096000Y-83035000D03*
%TO.P,U3,46,EXP*%
X132096000Y-85635000D03*
%TO.P,U3,47,EXP*%
X130796000Y-83035000D03*
%TO.P,U3,48,EXP*%
X130796000Y-85635000D03*
%TO.P,U3,49,EXP*%
X129496000Y-83035000D03*
%TO.P,U3,50,EXP*%
X129496000Y-85635000D03*
%TD*%
D14*
%TO.P,C22,1*%
%TO.N,GND*%
X119818000Y-74848000D03*
%TO.P,C22,2*%
%TO.N,+15V*%
X119818000Y-76848000D03*
%TD*%
D19*
%TO.P,J6,1*%
%TO.N,+5V*%
X90476000Y-96787000D03*
D20*
%TO.P,J6,2*%
%TO.N,PB6*%
X93016000Y-96787000D03*
%TD*%
D19*
%TO.P,J9,1*%
%TO.N,Net-(U3-AOUT1)*%
X140646000Y-80912000D03*
D20*
%TO.P,J9,2*%
%TO.N,Net-(U3-AOUT2)*%
X140646000Y-83452000D03*
%TO.P,J9,3*%
%TO.N,Net-(U3-BOUT1)*%
X140646000Y-85992000D03*
%TO.P,J9,4*%
%TO.N,Net-(U3-BOUT2)*%
X140646000Y-88532000D03*
%TD*%
D19*
%TO.P,J15,1*%
%TO.N,Net-(U5-AOUT1)*%
X140011000Y-121552000D03*
D20*
%TO.P,J15,2*%
%TO.N,Net-(U5-AOUT2)*%
X140011000Y-124092000D03*
%TO.P,J15,3*%
%TO.N,Net-(U5-BOUT1)*%
X140011000Y-126632000D03*
%TO.P,J15,4*%
%TO.N,Net-(U5-BOUT2)*%
X140011000Y-129172000D03*
%TD*%
D12*
%TO.P,RV2,1,1*%
%TO.N,Net-(U4-AVREF)*%
X121581000Y-102429967D03*
D13*
%TO.P,RV2,2,2*%
%TO.N,GND*%
X119041000Y-104969967D03*
%TO.P,RV2,3,3*%
%TO.N,unconnected-(RV2-Pad3)*%
X121581000Y-107509967D03*
%TD*%
D19*
%TO.P,J8,1*%
%TO.N,Net-(U2-AOUT1)*%
X140646000Y-61227000D03*
D20*
%TO.P,J8,2*%
%TO.N,Net-(U2-AOUT2)*%
X140646000Y-63767000D03*
%TO.P,J8,3*%
%TO.N,Net-(U2-BOUT1)*%
X140646000Y-66307000D03*
%TO.P,J8,4*%
%TO.N,Net-(U2-BOUT2)*%
X140646000Y-68847000D03*
%TD*%
D19*
%TO.P,J12,1*%
%TO.N,Net-(U4-AOUT1)*%
X139996000Y-101867000D03*
D20*
%TO.P,J12,2*%
%TO.N,Net-(U4-AOUT2)*%
X139996000Y-104407000D03*
%TO.P,J12,3*%
%TO.N,Net-(U4-BOUT1)*%
X139996000Y-106947000D03*
%TO.P,J12,4*%
%TO.N,Net-(U4-BOUT2)*%
X139996000Y-109487000D03*
%TD*%
D12*
%TO.P,RV1,1,1*%
%TO.N,Net-(U2-AVREF)*%
X122231000Y-61735000D03*
D13*
%TO.P,RV1,2,2*%
%TO.N,GND*%
X119691000Y-64275000D03*
%TO.P,RV1,3,3*%
%TO.N,unconnected-(RV1-Pad3)*%
X122231000Y-66815000D03*
%TD*%
D18*
%TO.P,U2,30,EXP*%
%TO.N,GND*%
X133441000Y-63900000D03*
%TO.P,U2,31,EXP*%
X134741000Y-63900000D03*
%TO.P,U2,32,EXP*%
X136041000Y-63900000D03*
%TO.P,U2,33,EXP*%
X137341000Y-63900000D03*
%TO.P,U2,34,EXP*%
X132141000Y-63900000D03*
%TO.P,U2,35,EXP*%
X130841000Y-63900000D03*
%TO.P,U2,36,EXP*%
X129541000Y-63900000D03*
%TO.P,U2,37,EXP*%
X137341000Y-62600000D03*
%TO.P,U2,38,EXP*%
X137341000Y-65200000D03*
%TO.P,U2,39,EXP*%
X136041000Y-62600000D03*
%TO.P,U2,40,EXP*%
X136041000Y-65200000D03*
%TO.P,U2,41,EXP*%
X134741000Y-65200000D03*
%TO.P,U2,42,EXP*%
X134741000Y-62600000D03*
%TO.P,U2,43,EXP*%
X133441000Y-62600000D03*
%TO.P,U2,44,EXP*%
X133441000Y-65200000D03*
%TO.P,U2,45,EXP*%
X132141000Y-62600000D03*
%TO.P,U2,46,EXP*%
X132141000Y-65200000D03*
%TO.P,U2,47,EXP*%
X130841000Y-62600000D03*
%TO.P,U2,48,EXP*%
X130841000Y-65200000D03*
%TO.P,U2,49,EXP*%
X129541000Y-62600000D03*
%TO.P,U2,50,EXP*%
X129541000Y-65200000D03*
%TD*%
%TO.P,U4,30,EXP*%
%TO.N,GND*%
X132791000Y-104540000D03*
%TO.P,U4,31,EXP*%
X134091000Y-104540000D03*
%TO.P,U4,32,EXP*%
X135391000Y-104540000D03*
%TO.P,U4,33,EXP*%
X136691000Y-104540000D03*
%TO.P,U4,34,EXP*%
X131491000Y-104540000D03*
%TO.P,U4,35,EXP*%
X130191000Y-104540000D03*
%TO.P,U4,36,EXP*%
X128891000Y-104540000D03*
%TO.P,U4,37,EXP*%
X136691000Y-103240000D03*
%TO.P,U4,38,EXP*%
X136691000Y-105840000D03*
%TO.P,U4,39,EXP*%
X135391000Y-103240000D03*
%TO.P,U4,40,EXP*%
X135391000Y-105840000D03*
%TO.P,U4,41,EXP*%
X134091000Y-105840000D03*
%TO.P,U4,42,EXP*%
X134091000Y-103240000D03*
%TO.P,U4,43,EXP*%
X132791000Y-103240000D03*
%TO.P,U4,44,EXP*%
X132791000Y-105840000D03*
%TO.P,U4,45,EXP*%
X131491000Y-103240000D03*
%TO.P,U4,46,EXP*%
X131491000Y-105840000D03*
%TO.P,U4,47,EXP*%
X130191000Y-103240000D03*
%TO.P,U4,48,EXP*%
X130191000Y-105840000D03*
%TO.P,U4,49,EXP*%
X128891000Y-103240000D03*
%TO.P,U4,50,EXP*%
X128891000Y-105840000D03*
%TD*%
D14*
%TO.P,C18,1*%
%TO.N,GND*%
X112706000Y-55512000D03*
%TO.P,C18,2*%
%TO.N,+15V*%
X112706000Y-57512000D03*
%TD*%
D12*
%TO.P,RV3,1,1*%
%TO.N,Net-(U5-AVREF)*%
X121596000Y-122695000D03*
D13*
%TO.P,RV3,2,2*%
%TO.N,GND*%
X119056000Y-125235000D03*
%TO.P,RV3,3,3*%
%TO.N,unconnected-(RV3-Pad3)*%
X121596000Y-127775000D03*
%TD*%
D19*
%TO.P,J2,1*%
%TO.N,+3V3*%
X82226000Y-75822000D03*
D20*
%TO.P,J2,2*%
%TO.N,PA13*%
X82226000Y-73282000D03*
%TO.P,J2,3*%
%TO.N,PA14*%
X82226000Y-70742000D03*
%TO.P,J2,4*%
%TO.N,GND*%
X82226000Y-68202000D03*
%TD*%
D18*
%TO.P,U5,30,EXP*%
%TO.N,GND*%
X132738000Y-124848000D03*
%TO.P,U5,31,EXP*%
X134038000Y-124848000D03*
%TO.P,U5,32,EXP*%
X135338000Y-124848000D03*
%TO.P,U5,33,EXP*%
X136638000Y-124848000D03*
%TO.P,U5,34,EXP*%
X131438000Y-124848000D03*
%TO.P,U5,35,EXP*%
X130138000Y-124848000D03*
%TO.P,U5,36,EXP*%
X128838000Y-124848000D03*
%TO.P,U5,37,EXP*%
X136638000Y-123548000D03*
%TO.P,U5,38,EXP*%
X136638000Y-126148000D03*
%TO.P,U5,39,EXP*%
X135338000Y-123548000D03*
%TO.P,U5,40,EXP*%
X135338000Y-126148000D03*
%TO.P,U5,41,EXP*%
X134038000Y-126148000D03*
%TO.P,U5,42,EXP*%
X134038000Y-123548000D03*
%TO.P,U5,43,EXP*%
X132738000Y-123548000D03*
%TO.P,U5,44,EXP*%
X132738000Y-126148000D03*
%TO.P,U5,45,EXP*%
X131438000Y-123548000D03*
%TO.P,U5,46,EXP*%
X131438000Y-126148000D03*
%TO.P,U5,47,EXP*%
X130138000Y-123548000D03*
%TO.P,U5,48,EXP*%
X130138000Y-126148000D03*
%TO.P,U5,49,EXP*%
X128838000Y-123548000D03*
%TO.P,U5,50,EXP*%
X128838000Y-126148000D03*
%TD*%
D12*
%TO.P,RV4,1,1*%
%TO.N,unconnected-(RV4-Pad1)*%
X99483000Y-107836000D03*
D13*
%TO.P,RV4,2,2*%
%TO.N,GND*%
X102023000Y-105296000D03*
%TO.P,RV4,3,3*%
%TO.N,PB6*%
X99483000Y-102756000D03*
%TD*%
D21*
%TO.N,GND*%
X124898000Y-96152000D03*
X127946000Y-59068000D03*
X117722500Y-126568500D03*
X121850000Y-109868000D03*
X126930000Y-64275000D03*
X116770000Y-124092000D03*
X126168000Y-56020000D03*
X128708000Y-79642000D03*
X111690000Y-119520000D03*
X97466000Y-96152000D03*
X127946000Y-75832000D03*
X114738000Y-80912000D03*
X94581652Y-93116901D03*
X119818000Y-55385000D03*
X126422000Y-99200000D03*
%TO.N,PB1*%
X128581000Y-72657000D03*
X91418720Y-77102000D03*
%TO.N,PA4*%
X128581000Y-89734500D03*
X94418000Y-77864000D03*
%TO.N,PC1*%
X129201000Y-109360000D03*
X100641000Y-80666500D03*
X135551000Y-110630000D03*
%TO.N,+3V3*%
X135566000Y-88405000D03*
X96370500Y-85357000D03*
X89211000Y-92977000D03*
X134916000Y-108725000D03*
X135566000Y-68085000D03*
X88475660Y-73819531D03*
X125914000Y-95644000D03*
X106610000Y-73800000D03*
X127192500Y-115964000D03*
X97197000Y-92850000D03*
X128200000Y-75070000D03*
X85401000Y-74435000D03*
X127739000Y-55512000D03*
X95319000Y-73800000D03*
X87965823Y-87897000D03*
X108028741Y-80407801D03*
X134931000Y-129045000D03*
X101459000Y-90493000D03*
%TO.N,PB3*%
X127946000Y-129723500D03*
X92092500Y-88967530D03*
%TO.N,Net-(U2-AVREF)*%
X129851000Y-59830000D03*
X129851000Y-59830000D03*
%TO.N,Net-(U4-AVREF)*%
X129201000Y-100470000D03*
%TO.N,Net-(U5-AVREF)*%
X129207142Y-120831500D03*
%TO.N,PB5*%
X93021000Y-85230000D03*
X133026000Y-111900000D03*
%TO.N,PB6*%
X96638000Y-99896000D03*
%TO.N,Net-(U3-AVREF)*%
X129842142Y-80191500D03*
%TO.N,Net-(U3-AOUT1)*%
X134931000Y-78880000D03*
%TO.N,+5V*%
X82226000Y-105677000D03*
X82226000Y-108725000D03*
X87941000Y-96787000D03*
%TO.N,Net-(U2-AOUT1)*%
X134931000Y-58560000D03*
%TO.N,Net-(U2-AOUT2)*%
X133661000Y-58560000D03*
%TO.N,Net-(U2-BOUT1)*%
X131756000Y-59195000D03*
%TO.N,Net-(U2-BOUT2)*%
X133026000Y-59830000D03*
%TO.N,Net-(U3-AOUT2)*%
X133661000Y-78880000D03*
%TO.N,Net-(U3-BOUT1)*%
X131756000Y-79515000D03*
%TO.N,Net-(U3-BOUT2)*%
X133026000Y-80150000D03*
%TO.N,DIR1*%
X132421000Y-89802000D03*
X96831000Y-76375500D03*
%TO.N,Net-(U4-AOUT1)*%
X134281000Y-99200000D03*
%TO.N,Net-(U4-AOUT2)*%
X133011000Y-99200000D03*
%TO.N,Net-(U4-BOUT1)*%
X131106000Y-99835000D03*
%TO.N,Net-(U4-BOUT2)*%
X132376000Y-100470000D03*
%TO.N,Net-(U5-AOUT1)*%
X134296000Y-119520000D03*
%TO.N,Net-(U5-AOUT2)*%
X133026000Y-119520000D03*
%TO.N,Net-(U5-BOUT1)*%
X131121000Y-120155000D03*
%TO.N,Net-(U5-BOUT2)*%
X132391000Y-120790000D03*
%TO.N,Net-(U7-RST)*%
X85572423Y-110640450D03*
X87306000Y-110640450D03*
%TO.N,PB10*%
X136201000Y-69990000D03*
X129851000Y-68720000D03*
X89945500Y-71895000D03*
%TO.N,PA7*%
X94291000Y-71442500D03*
X135566000Y-70752000D03*
%TO.N,PA5*%
X136201000Y-90945000D03*
X94291000Y-76991500D03*
X129851000Y-89040000D03*
%TO.N,PC3*%
X100006000Y-79269500D03*
X135566000Y-91639500D03*
%TO.N,PB8*%
X134173295Y-110032235D03*
X94870029Y-87917557D03*
%TO.N,PC10*%
X135566000Y-131585000D03*
X129216000Y-129680000D03*
X89846887Y-89014500D03*
%TO.N,PA15*%
X132391000Y-132281316D03*
X89211000Y-88405000D03*
%TO.N,PC2*%
X128581000Y-108725000D03*
X100006000Y-80150000D03*
%TO.N,DIR2*%
X91870500Y-72530000D03*
X133026000Y-69438500D03*
%TO.N,PA2*%
X99371000Y-76752500D03*
X133579560Y-89883440D03*
%TO.N,PA6*%
X129216000Y-88464500D03*
X93691426Y-76397332D03*
%TO.N,DIR3*%
X95267500Y-85308128D03*
X131816000Y-109995000D03*
%TO.N,PB13*%
X89846000Y-110376000D03*
X84766000Y-77610000D03*
%TO.N,DIR4*%
X91648924Y-87992390D03*
X131756000Y-130315000D03*
%TO.N,PB14*%
X85488613Y-105163199D03*
X85401000Y-78269500D03*
%TO.N,PC6*%
X88704849Y-83408500D03*
X89211000Y-101105000D03*
%TO.N,PC7*%
X88153349Y-82769500D03*
X89846000Y-101740000D03*
%TO.N,PC5*%
X134296000Y-69271500D03*
X92522220Y-71895000D03*
%TO.N,PC11*%
X133906030Y-130704970D03*
X90481000Y-88405000D03*
%TO.N,PB15*%
X84766000Y-79007000D03*
X86397535Y-104736942D03*
%TO.N,PB12*%
X85401000Y-76975000D03*
X88326098Y-110879902D03*
%TO.N,PA1*%
X134917545Y-90441485D03*
X99790500Y-77610000D03*
%TO.N,PC8*%
X85401000Y-79642000D03*
X87306000Y-102375000D03*
%TO.N,PC9*%
X85401000Y-80718179D03*
X88659500Y-102375000D03*
%TO.N,PA8*%
X90481000Y-102375000D03*
X88576000Y-80912000D03*
%TO.N,PA9*%
X88017686Y-81613695D03*
X89846000Y-100470000D03*
%TO.N,PA10*%
X89211000Y-80277000D03*
X129216000Y-68168500D03*
%TO.N,PC12*%
X132926338Y-130487278D03*
X90898469Y-85577552D03*
%TO.N,PB4*%
X91751000Y-85230000D03*
X128581000Y-129172000D03*
%TO.N,PB7*%
X93732142Y-89107331D03*
X131756000Y-111900000D03*
%TO.N,PC4*%
X93294348Y-71533348D03*
X134931000Y-70117000D03*
%TO.N,PC0*%
X128581000Y-109995000D03*
X101241806Y-81385806D03*
%TD*%
D22*
%TO.N,GND*%
X119041000Y-107059000D02*
X121850000Y-109868000D01*
X111641000Y-119520000D02*
X104226000Y-126935000D01*
X111690000Y-119520000D02*
X111641000Y-119520000D01*
D23*
X94581652Y-93183750D02*
X97466000Y-96068098D01*
X104226000Y-126935000D02*
X104226000Y-125945000D01*
D22*
X119691000Y-64275000D02*
X129166000Y-64275000D01*
D23*
X93363500Y-121532000D02*
X98766500Y-126935000D01*
D22*
X119041000Y-104969967D02*
X119041000Y-107059000D01*
X126422000Y-97676000D02*
X124898000Y-96152000D01*
D23*
X93363500Y-121532000D02*
X90501000Y-121532000D01*
D22*
X126168000Y-56020000D02*
X126168000Y-57290000D01*
D23*
X90501000Y-121532000D02*
X90481000Y-121552000D01*
D24*
X129166000Y-64275000D02*
X129541000Y-63900000D01*
D23*
X97466000Y-96068098D02*
X97466000Y-96152000D01*
X98766500Y-126935000D02*
X104226000Y-126935000D01*
D22*
X116008000Y-80912000D02*
X114738000Y-80912000D01*
D23*
X90503500Y-126282000D02*
X90503500Y-114282000D01*
X92563000Y-114282000D02*
X90503500Y-114282000D01*
X104226000Y-125945000D02*
X92563000Y-114282000D01*
D22*
X128708000Y-79642000D02*
X128708000Y-76594000D01*
X126422000Y-99200000D02*
X126422000Y-97676000D01*
X119818000Y-55385000D02*
X119691000Y-55512000D01*
X126168000Y-57290000D02*
X127946000Y-59068000D01*
X116643000Y-81547000D02*
X116008000Y-80912000D01*
X119691000Y-55512000D02*
X119691000Y-64275000D01*
D23*
X94581652Y-93116901D02*
X94581652Y-93183750D01*
D22*
X128708000Y-76594000D02*
X127946000Y-75832000D01*
D23*
X116770000Y-124092000D02*
X116770000Y-125616000D01*
X116770000Y-125616000D02*
X117722500Y-126568500D01*
D22*
X116643000Y-81547000D02*
X119691000Y-84595000D01*
D23*
%TO.N,PB1*%
X91418720Y-77102000D02*
X92386000Y-76134720D01*
X93656000Y-72657000D02*
X128581000Y-72657000D01*
X92386000Y-73927000D02*
X93656000Y-72657000D01*
X92386000Y-76134720D02*
X92386000Y-73927000D01*
%TO.N,PA4*%
X94418000Y-77864000D02*
X94418000Y-77754573D01*
X94418000Y-77754573D02*
X96848573Y-75324000D01*
X122754500Y-89734500D02*
X128581000Y-89734500D01*
X96848573Y-75324000D02*
X108344000Y-75324000D01*
X108344000Y-75324000D02*
X122754500Y-89734500D01*
%TO.N,PC1*%
X129201000Y-109360000D02*
X134281000Y-109360000D01*
X125393421Y-109360000D02*
X101793806Y-85760385D01*
X134281000Y-109360000D02*
X135551000Y-110630000D01*
X129201000Y-109360000D02*
X125393421Y-109360000D01*
X101303146Y-80666500D02*
X100641000Y-80666500D01*
X101793806Y-81157160D02*
X101303146Y-80666500D01*
X101793806Y-85760385D02*
X101793806Y-81157160D01*
%TO.N,+3V3*%
X137471000Y-71260000D02*
X137471000Y-69990000D01*
X128200000Y-75070000D02*
X126930000Y-73800000D01*
X122612000Y-95136000D02*
X108028741Y-80552741D01*
X137471000Y-69990000D02*
X135566000Y-68085000D01*
X87965823Y-91731823D02*
X87965823Y-87897000D01*
X84014000Y-75822000D02*
X82226000Y-75822000D01*
X95319000Y-73800000D02*
X95827000Y-73292000D01*
X125406000Y-95136000D02*
X122612000Y-95136000D01*
X125668500Y-114440000D02*
X118787000Y-114440000D01*
X125914000Y-95644000D02*
X125406000Y-95136000D01*
X95827000Y-73292000D02*
X135439000Y-73292000D01*
X127192500Y-115964000D02*
X125668500Y-114440000D01*
X89211000Y-92977000D02*
X87965823Y-91731823D01*
X118787000Y-114440000D02*
X97197000Y-92850000D01*
X108028741Y-80552741D02*
X108028741Y-80407801D01*
X126930000Y-73800000D02*
X106610000Y-73800000D01*
X135439000Y-73292000D02*
X137471000Y-71260000D01*
X85401000Y-74435000D02*
X84014000Y-75822000D01*
%TO.N,PB3*%
X127946000Y-129723500D02*
X126370342Y-129723500D01*
X126370342Y-129723500D02*
X119949000Y-123302158D01*
X119949000Y-120540000D02*
X102288000Y-102879000D01*
X102288000Y-102879000D02*
X102288000Y-99510151D01*
X119949000Y-123302158D02*
X119949000Y-120540000D01*
X92267000Y-89142030D02*
X92092500Y-88967530D01*
X92267000Y-89489151D02*
X92267000Y-89142030D01*
X102288000Y-99510151D02*
X92267000Y-89489151D01*
%TO.N,Net-(U2-AVREF)*%
X127946000Y-61735000D02*
X129851000Y-59830000D01*
X122231000Y-61735000D02*
X127946000Y-61735000D01*
%TO.N,Net-(U4-AVREF)*%
X121581000Y-102375000D02*
X127296000Y-102375000D01*
X127296000Y-102375000D02*
X129201000Y-100470000D01*
%TO.N,Net-(U5-AVREF)*%
X121596000Y-122695000D02*
X127343642Y-122695000D01*
X127343642Y-122695000D02*
X129207142Y-120831500D01*
%TO.N,PB5*%
X93021000Y-89176835D02*
X93021000Y-85230000D01*
X117786000Y-112535000D02*
X94910331Y-89659331D01*
X133026000Y-111900000D02*
X132391000Y-112535000D01*
X93503496Y-89659331D02*
X93021000Y-89176835D01*
X132391000Y-112535000D02*
X117786000Y-112535000D01*
X94910331Y-89659331D02*
X93503496Y-89659331D01*
%TO.N,PB6*%
X96638000Y-99896000D02*
X93529000Y-96787000D01*
X93529000Y-96787000D02*
X93016000Y-96787000D01*
%TO.N,Net-(U3-AVREF)*%
X122231000Y-82055000D02*
X127978642Y-82055000D01*
X129842142Y-80031858D02*
X129842142Y-80191500D01*
X127978642Y-82055000D02*
X129842142Y-80191500D01*
%TO.N,Net-(U3-AOUT1)*%
X134931000Y-78880000D02*
X138614000Y-78880000D01*
X138614000Y-78880000D02*
X140646000Y-80912000D01*
%TO.N,+5V*%
X82226000Y-105677000D02*
X82226000Y-108725000D01*
X87941000Y-96787000D02*
X90476000Y-96787000D01*
%TO.N,Net-(U2-AOUT1)*%
X140646000Y-61201842D02*
X140646000Y-61227000D01*
X138004158Y-58560000D02*
X140646000Y-61201842D01*
X134931000Y-58560000D02*
X138004158Y-58560000D01*
%TO.N,Net-(U2-AOUT2)*%
X134296000Y-59195000D02*
X133661000Y-58560000D01*
X140646000Y-63767000D02*
X139376000Y-62497000D01*
X139376000Y-60465000D02*
X138106000Y-59195000D01*
X138106000Y-59195000D02*
X134296000Y-59195000D01*
X139376000Y-62497000D02*
X139376000Y-60465000D01*
%TO.N,Net-(U2-BOUT1)*%
X138741000Y-61049079D02*
X137521921Y-59830000D01*
X134397842Y-59830000D02*
X133762842Y-59195000D01*
X137521921Y-59830000D02*
X134397842Y-59830000D01*
X138741000Y-64402000D02*
X138741000Y-61049079D01*
X140646000Y-66307000D02*
X138741000Y-64402000D01*
X133762842Y-59195000D02*
X131756000Y-59195000D01*
%TO.N,Net-(U2-BOUT2)*%
X140646000Y-68847000D02*
X138106000Y-66307000D01*
X136836000Y-60465000D02*
X134397842Y-60465000D01*
X133762842Y-59830000D02*
X133026000Y-59830000D01*
X134397842Y-60465000D02*
X133762842Y-59830000D01*
X138106000Y-61735000D02*
X136836000Y-60465000D01*
X138106000Y-66307000D02*
X138106000Y-61735000D01*
%TO.N,Net-(U3-AOUT2)*%
X138106000Y-79515000D02*
X134296000Y-79515000D01*
X140646000Y-83452000D02*
X139376000Y-82182000D01*
X134296000Y-79515000D02*
X133661000Y-78880000D01*
X139376000Y-82182000D02*
X139376000Y-80785000D01*
X139376000Y-80785000D02*
X138106000Y-79515000D01*
%TO.N,Net-(U3-BOUT1)*%
X137521921Y-80150000D02*
X134397842Y-80150000D01*
X138741000Y-84087000D02*
X138741000Y-81369079D01*
X134397842Y-80150000D02*
X133762842Y-79515000D01*
X138741000Y-81369079D02*
X137521921Y-80150000D01*
X133762842Y-79515000D02*
X131756000Y-79515000D01*
X140646000Y-85992000D02*
X138741000Y-84087000D01*
%TO.N,Net-(U3-BOUT2)*%
X136836000Y-80785000D02*
X134397842Y-80785000D01*
X133762842Y-80150000D02*
X133026000Y-80150000D01*
X134397842Y-80785000D02*
X133762842Y-80150000D01*
X138106000Y-85992000D02*
X138106000Y-82055000D01*
X138106000Y-82055000D02*
X136836000Y-80785000D01*
X140646000Y-88532000D02*
X138106000Y-85992000D01*
%TO.N,DIR1*%
X97374500Y-75832000D02*
X96831000Y-76375500D01*
X107836000Y-75832000D02*
X97374500Y-75832000D01*
X131936500Y-90286500D02*
X122290500Y-90286500D01*
X122290500Y-90286500D02*
X107836000Y-75832000D01*
X132421000Y-89802000D02*
X131936500Y-90286500D01*
%TO.N,Net-(U4-AOUT1)*%
X137354158Y-99200000D02*
X139996000Y-101841842D01*
X134281000Y-99200000D02*
X137354158Y-99200000D01*
X139996000Y-101841842D02*
X139996000Y-101867000D01*
%TO.N,Net-(U4-AOUT2)*%
X138726000Y-103137000D02*
X138726000Y-101105000D01*
X138726000Y-101105000D02*
X137456000Y-99835000D01*
X133646000Y-99835000D02*
X133011000Y-99200000D01*
X137456000Y-99835000D02*
X133646000Y-99835000D01*
X139996000Y-104407000D02*
X138726000Y-103137000D01*
%TO.N,Net-(U4-BOUT1)*%
X133747842Y-100470000D02*
X133112842Y-99835000D01*
X138091000Y-105042000D02*
X138091000Y-101689079D01*
X133112842Y-99835000D02*
X131106000Y-99835000D01*
X139996000Y-106947000D02*
X138091000Y-105042000D01*
X136871921Y-100470000D02*
X133747842Y-100470000D01*
X138091000Y-101689079D02*
X136871921Y-100470000D01*
%TO.N,Net-(U4-BOUT2)*%
X139996000Y-109487000D02*
X138741000Y-108232000D01*
X138741000Y-108232000D02*
X138741000Y-108217000D01*
X133747842Y-101105000D02*
X133112842Y-100470000D01*
X133112842Y-100470000D02*
X132376000Y-100470000D01*
X136186000Y-101105000D02*
X133747842Y-101105000D01*
X137456000Y-102375000D02*
X136186000Y-101105000D01*
X137456000Y-106932000D02*
X137456000Y-102375000D01*
X138741000Y-108217000D02*
X137456000Y-106932000D01*
%TO.N,Net-(U5-AOUT1)*%
X134296000Y-119520000D02*
X137979000Y-119520000D01*
X137979000Y-119520000D02*
X140011000Y-121552000D01*
%TO.N,Net-(U5-AOUT2)*%
X138741000Y-122822000D02*
X138741000Y-121425000D01*
X140011000Y-124092000D02*
X138741000Y-122822000D01*
X133661000Y-120155000D02*
X133026000Y-119520000D01*
X137471000Y-120155000D02*
X133661000Y-120155000D01*
X138741000Y-121425000D02*
X137471000Y-120155000D01*
%TO.N,Net-(U5-BOUT1)*%
X138106000Y-124727000D02*
X138106000Y-122009079D01*
X138106000Y-122009079D02*
X136886921Y-120790000D01*
X133762842Y-120790000D02*
X133127842Y-120155000D01*
X140011000Y-126632000D02*
X138106000Y-124727000D01*
X133127842Y-120155000D02*
X131121000Y-120155000D01*
X136886921Y-120790000D02*
X133762842Y-120790000D01*
%TO.N,Net-(U5-BOUT2)*%
X137471000Y-122695000D02*
X136201000Y-121425000D01*
X136201000Y-121425000D02*
X133762842Y-121425000D01*
X133127842Y-120790000D02*
X132391000Y-120790000D01*
X133762842Y-121425000D02*
X133127842Y-120790000D01*
X140011000Y-129172000D02*
X137471000Y-126632000D01*
X137471000Y-126632000D02*
X137471000Y-122695000D01*
%TO.N,Net-(U7-RST)*%
X87306000Y-110640450D02*
X85572423Y-110640450D01*
%TO.N,PB10*%
X91116000Y-68720000D02*
X129851000Y-68720000D01*
X89945500Y-71895000D02*
X89945500Y-69890500D01*
X134931000Y-68720000D02*
X136201000Y-69990000D01*
X89945500Y-69890500D02*
X91116000Y-68720000D01*
X129851000Y-68720000D02*
X134931000Y-68720000D01*
%TO.N,PA7*%
X134875500Y-71442500D02*
X94291000Y-71442500D01*
X135566000Y-70752000D02*
X134875500Y-71442500D01*
%TO.N,PA5*%
X96466500Y-74816000D02*
X111646000Y-74816000D01*
X111646000Y-74816000D02*
X125870000Y-89040000D01*
X134296000Y-89040000D02*
X129851000Y-89040000D01*
X125870000Y-89040000D02*
X129851000Y-89040000D01*
X136201000Y-90945000D02*
X134296000Y-89040000D01*
X94291000Y-76991500D02*
X96466500Y-74816000D01*
%TO.N,PC3*%
X107671086Y-79269500D02*
X100006000Y-79269500D01*
X120108586Y-91707000D02*
X107671086Y-79269500D01*
X135566000Y-91639500D02*
X135498500Y-91707000D01*
X135498500Y-91707000D02*
X120108586Y-91707000D01*
%TO.N,PB8*%
X133198530Y-111007000D02*
X117959472Y-111007000D01*
X117959472Y-111007000D02*
X94870029Y-87917557D01*
X134173295Y-110032235D02*
X133198530Y-111007000D01*
%TO.N,PC10*%
X89846887Y-91098045D02*
X98478000Y-99729158D01*
X89846887Y-89014500D02*
X89846887Y-91098045D01*
X135548184Y-131729816D02*
X135566000Y-131712000D01*
X118195500Y-123993500D02*
X118195500Y-125591431D01*
X133661000Y-129680000D02*
X129216000Y-129680000D01*
X124333885Y-131729816D02*
X135548184Y-131729816D01*
X118195500Y-125591431D02*
X124333885Y-131729816D01*
X98478000Y-104276000D02*
X118195500Y-123993500D01*
X98478000Y-99729158D02*
X98478000Y-104276000D01*
X135566000Y-131585000D02*
X133661000Y-129680000D01*
%TO.N,PA15*%
X117818500Y-125747589D02*
X117818500Y-124149658D01*
X132391000Y-132281316D02*
X124352227Y-132281316D01*
X93443000Y-95685000D02*
X89211000Y-91453000D01*
X98101000Y-100313536D02*
X93472464Y-95685000D01*
X98101000Y-104432158D02*
X98101000Y-100313536D01*
X124352227Y-132281316D02*
X117818500Y-125747589D01*
X117818500Y-124149658D02*
X98101000Y-104432158D01*
X89211000Y-91453000D02*
X89211000Y-88405000D01*
X93472464Y-95685000D02*
X93443000Y-95685000D01*
%TO.N,PC2*%
X102170806Y-84854806D02*
X102170806Y-81001002D01*
X128581000Y-108725000D02*
X126041000Y-108725000D01*
X102170806Y-81001002D02*
X101284304Y-80114500D01*
X126041000Y-108725000D02*
X102170806Y-84854806D01*
X100412354Y-80114500D02*
X100376854Y-80150000D01*
X100376854Y-80150000D02*
X100006000Y-80150000D01*
X101284304Y-80114500D02*
X100412354Y-80114500D01*
%TO.N,DIR2*%
X91970720Y-72429780D02*
X91870500Y-72530000D01*
X93078299Y-69613000D02*
X91970720Y-70720579D01*
X133026000Y-69438500D02*
X132851500Y-69613000D01*
X91970720Y-70720579D02*
X91970720Y-72429780D01*
X132851500Y-69613000D02*
X93078299Y-69613000D01*
%TO.N,PA2*%
X107312000Y-76578000D02*
X99545500Y-76578000D01*
X121397500Y-90663500D02*
X107312000Y-76578000D01*
X99545500Y-76578000D02*
X99371000Y-76752500D01*
X133579560Y-89883440D02*
X132799500Y-90663500D01*
X132799500Y-90663500D02*
X121397500Y-90663500D01*
%TO.N,PA6*%
X126919500Y-88464500D02*
X129216000Y-88464500D01*
X112807000Y-74352000D02*
X126919500Y-88464500D01*
X95736758Y-74352000D02*
X112807000Y-74352000D01*
X93691426Y-76397332D02*
X95736758Y-74352000D01*
%TO.N,DIR3*%
X131816000Y-109995000D02*
X131181000Y-110630000D01*
X120589372Y-110630000D02*
X95267500Y-85308128D01*
X131181000Y-110630000D02*
X120589372Y-110630000D01*
%TO.N,PB13*%
X80702000Y-101740000D02*
X80702000Y-80937158D01*
X89846000Y-110376000D02*
X89338000Y-110376000D01*
X89338000Y-110376000D02*
X80702000Y-101740000D01*
X80702000Y-80937158D02*
X84029158Y-77610000D01*
X84029158Y-77610000D02*
X84766000Y-77610000D01*
%TO.N,DIR4*%
X101911000Y-99666309D02*
X91540500Y-89295809D01*
X101911000Y-103175069D02*
X101911000Y-99666309D01*
X91540500Y-88100814D02*
X91648924Y-87992390D01*
X91540500Y-89295809D02*
X91540500Y-88100814D01*
X131756000Y-130315000D02*
X126428684Y-130315000D01*
X119572000Y-120836069D02*
X101911000Y-103175069D01*
X126428684Y-130315000D02*
X119572000Y-123458316D01*
X119572000Y-123458316D02*
X119572000Y-120836069D01*
%TO.N,PB14*%
X85488613Y-105163199D02*
X85241832Y-105163199D01*
X84595854Y-78269500D02*
X85401000Y-78269500D01*
X85241832Y-105163199D02*
X81718000Y-101639367D01*
X81718000Y-101639367D02*
X81718000Y-81147354D01*
X81718000Y-81147354D02*
X84595854Y-78269500D01*
%TO.N,PC6*%
X85782000Y-97676000D02*
X89211000Y-101105000D01*
X85782000Y-85992000D02*
X85782000Y-97676000D01*
X88365500Y-83408500D02*
X85782000Y-85992000D01*
X88704849Y-83408500D02*
X88365500Y-83408500D01*
%TO.N,PC7*%
X85274000Y-85484000D02*
X85274000Y-97948646D01*
X89065354Y-101740000D02*
X89846000Y-101740000D01*
X87988500Y-82769500D02*
X85274000Y-85484000D01*
X85274000Y-97948646D02*
X89065354Y-101740000D01*
X88153349Y-82769500D02*
X87988500Y-82769500D01*
%TO.N,PC5*%
X133367000Y-70200500D02*
X93847256Y-70200500D01*
X134296000Y-69271500D02*
X133367000Y-70200500D01*
X93847256Y-70200500D02*
X92522220Y-71525536D01*
X92522220Y-71525536D02*
X92522220Y-71895000D01*
%TO.N,PC11*%
X100645000Y-101363000D02*
X90481000Y-91199000D01*
X126390747Y-131352816D02*
X118875272Y-123837341D01*
X133906030Y-130704970D02*
X133258184Y-131352816D01*
X118875272Y-123837341D02*
X118814252Y-123837341D01*
X118814252Y-123837341D02*
X100645000Y-105668089D01*
X90481000Y-91199000D02*
X90481000Y-88405000D01*
X100645000Y-105668089D02*
X100645000Y-101363000D01*
X133258184Y-131352816D02*
X126390747Y-131352816D01*
%TO.N,PB15*%
X84766000Y-79007000D02*
X82226000Y-81547000D01*
X82226000Y-100565407D02*
X86397535Y-104736942D01*
X82226000Y-81547000D02*
X82226000Y-100565407D01*
%TO.N,PB12*%
X88326098Y-110879902D02*
X87534646Y-110088450D01*
X80194000Y-80404000D02*
X83623000Y-76975000D01*
X80194000Y-102756000D02*
X80194000Y-80404000D01*
X87534646Y-110088450D02*
X87526450Y-110088450D01*
X83623000Y-76975000D02*
X85401000Y-76975000D01*
X87526450Y-110088450D02*
X80194000Y-102756000D01*
%TO.N,PA1*%
X107074000Y-77610000D02*
X99790500Y-77610000D01*
X120536000Y-91072000D02*
X107074000Y-77610000D01*
X134296000Y-91072000D02*
X120536000Y-91072000D01*
X134917545Y-90450455D02*
X134296000Y-91072000D01*
X134917545Y-90441485D02*
X134917545Y-90450455D01*
%TO.N,PC8*%
X83242000Y-81801000D02*
X83242000Y-98311000D01*
X83242000Y-98311000D02*
X87306000Y-102375000D01*
X85401000Y-79642000D02*
X83242000Y-81801000D01*
%TO.N,PC9*%
X85401000Y-80718179D02*
X84258000Y-81861179D01*
X84258000Y-97973500D02*
X88659500Y-102375000D01*
X84258000Y-81861179D02*
X84258000Y-97973500D01*
%TO.N,PA8*%
X89846000Y-84468000D02*
X87316000Y-86998000D01*
X88712323Y-80912000D02*
X89846000Y-82045677D01*
X87316000Y-86998000D02*
X87316000Y-97159354D01*
X89846000Y-82045677D02*
X89846000Y-84468000D01*
X90481000Y-100324354D02*
X90481000Y-102375000D01*
X88576000Y-80912000D02*
X88712323Y-80912000D01*
X87316000Y-97159354D02*
X90481000Y-100324354D01*
%TO.N,PA9*%
X89256849Y-83920701D02*
X86798000Y-86379550D01*
X86798000Y-86379550D02*
X86798000Y-97676000D01*
X88017686Y-81613695D02*
X88233235Y-81613695D01*
X89256849Y-82637309D02*
X89256849Y-83920701D01*
X88233235Y-81613695D02*
X89256849Y-82637309D01*
X89592000Y-100470000D02*
X89846000Y-100470000D01*
X86798000Y-97676000D02*
X89592000Y-100470000D01*
%TO.N,PA10*%
X90524500Y-68168500D02*
X87923660Y-70769340D01*
X87923660Y-78989660D02*
X89211000Y-80277000D01*
X129216000Y-68168500D02*
X90524500Y-68168500D01*
X87923660Y-70769340D02*
X87923660Y-78989660D01*
%TO.N,PC12*%
X90898469Y-88022581D02*
X90898469Y-85577552D01*
X132926338Y-130487278D02*
X132463616Y-130950000D01*
X119031430Y-123460341D02*
X118970410Y-123460341D01*
X101022000Y-105511931D02*
X101022000Y-100711421D01*
X101022000Y-100711421D02*
X91116000Y-90805421D01*
X132463616Y-130950000D02*
X126521089Y-130950000D01*
X91116000Y-88240112D02*
X90898469Y-88022581D01*
X118970410Y-123460341D02*
X101022000Y-105511931D01*
X91116000Y-90805421D02*
X91116000Y-88240112D01*
X126521089Y-130950000D02*
X119031430Y-123460341D01*
%TO.N,PB4*%
X126352000Y-129172000D02*
X120326000Y-123146000D01*
X102665000Y-102621000D02*
X102665000Y-99353993D01*
X92644000Y-86123000D02*
X91751000Y-85230000D01*
X120326000Y-123146000D02*
X120326000Y-120282000D01*
X128581000Y-129172000D02*
X126352000Y-129172000D01*
X92644000Y-89332993D02*
X92644000Y-86123000D01*
X102665000Y-99353993D02*
X92644000Y-89332993D01*
X120326000Y-120282000D02*
X102665000Y-102621000D01*
%TO.N,PB7*%
X118319314Y-111900000D02*
X95526645Y-89107331D01*
X95526645Y-89107331D02*
X93732142Y-89107331D01*
X131756000Y-111900000D02*
X118319314Y-111900000D01*
%TO.N,PC4*%
X134296000Y-70752000D02*
X94075696Y-70752000D01*
X94075696Y-70752000D02*
X93294348Y-71533348D01*
X134931000Y-70117000D02*
X134296000Y-70752000D01*
%TO.N,PC0*%
X128581000Y-109995000D02*
X125279000Y-109995000D01*
X125279000Y-109991036D02*
X101241806Y-85953842D01*
X125279000Y-109995000D02*
X125279000Y-109991036D01*
X101241806Y-85953842D02*
X101241806Y-81385806D01*
%TD*%
%TA.AperFunction,Conductor*%
%TO.N,+3V3*%
G36*
X142193539Y-53927185D02*
G01*
X142239294Y-53979989D01*
X142250500Y-54031500D01*
X142250500Y-72406000D01*
X142230815Y-72473039D01*
X142178011Y-72518794D01*
X142126500Y-72530000D01*
X129472635Y-72530000D01*
X129405596Y-72510315D01*
X129359841Y-72457511D01*
X129355598Y-72446968D01*
X129306789Y-72307478D01*
X129275683Y-72257973D01*
X129256682Y-72190736D01*
X129277049Y-72123901D01*
X129330317Y-72078686D01*
X129380676Y-72068000D01*
X134792757Y-72068000D01*
X134808377Y-72069724D01*
X134808404Y-72069439D01*
X134816160Y-72070171D01*
X134816167Y-72070173D01*
X134885314Y-72068000D01*
X134914850Y-72068000D01*
X134921728Y-72067130D01*
X134927541Y-72066672D01*
X134974127Y-72065209D01*
X134993369Y-72059617D01*
X135012412Y-72055674D01*
X135032292Y-72053164D01*
X135075622Y-72036007D01*
X135081146Y-72034117D01*
X135090154Y-72031500D01*
X135125890Y-72021118D01*
X135143129Y-72010922D01*
X135160603Y-72002362D01*
X135179227Y-71994988D01*
X135179227Y-71994987D01*
X135179232Y-71994986D01*
X135216949Y-71967582D01*
X135221805Y-71964392D01*
X135261920Y-71940670D01*
X135276089Y-71926499D01*
X135290879Y-71913868D01*
X135307087Y-71902094D01*
X135336799Y-71866176D01*
X135340712Y-71861876D01*
X135624379Y-71578209D01*
X135685701Y-71544726D01*
X135698158Y-71542674D01*
X135745255Y-71537368D01*
X135915522Y-71477789D01*
X136068262Y-71381816D01*
X136195816Y-71254262D01*
X136291789Y-71101522D01*
X136351368Y-70931255D01*
X136359743Y-70856916D01*
X136386808Y-70792505D01*
X136442008Y-70753759D01*
X136550522Y-70715789D01*
X136703262Y-70619816D01*
X136830816Y-70492262D01*
X136926789Y-70339522D01*
X136986368Y-70169255D01*
X136991816Y-70120901D01*
X137006565Y-69990003D01*
X137006565Y-69989996D01*
X136986369Y-69810750D01*
X136986368Y-69810745D01*
X136926788Y-69640476D01*
X136830815Y-69487737D01*
X136703262Y-69360184D01*
X136550521Y-69264210D01*
X136380249Y-69204630D01*
X136333174Y-69199326D01*
X136268760Y-69172259D01*
X136259378Y-69163787D01*
X135431803Y-68336212D01*
X135421980Y-68323950D01*
X135421759Y-68324134D01*
X135416786Y-68318123D01*
X135383258Y-68286638D01*
X135366364Y-68270773D01*
X135355919Y-68260328D01*
X135345475Y-68249883D01*
X135339986Y-68245625D01*
X135335561Y-68241847D01*
X135301582Y-68209938D01*
X135301580Y-68209936D01*
X135301577Y-68209935D01*
X135284029Y-68200288D01*
X135267763Y-68189604D01*
X135251933Y-68177325D01*
X135209168Y-68158818D01*
X135203922Y-68156248D01*
X135163093Y-68133803D01*
X135163092Y-68133802D01*
X135143693Y-68128822D01*
X135125281Y-68122518D01*
X135106898Y-68114562D01*
X135106892Y-68114560D01*
X135060874Y-68107272D01*
X135055152Y-68106087D01*
X135010021Y-68094500D01*
X135010019Y-68094500D01*
X134989984Y-68094500D01*
X134970586Y-68092973D01*
X134963162Y-68091797D01*
X134950805Y-68089840D01*
X134950804Y-68089840D01*
X134904416Y-68094225D01*
X134898578Y-68094500D01*
X130395855Y-68094500D01*
X130329883Y-68075494D01*
X130200521Y-67994210D01*
X130084158Y-67953493D01*
X130031925Y-67935216D01*
X129975150Y-67894495D01*
X129955838Y-67859129D01*
X129945882Y-67830677D01*
X129941789Y-67818978D01*
X129935208Y-67808505D01*
X129845815Y-67666237D01*
X129718262Y-67538684D01*
X129565523Y-67442711D01*
X129395254Y-67383131D01*
X129395249Y-67383130D01*
X129216004Y-67362935D01*
X129215996Y-67362935D01*
X129036750Y-67383130D01*
X129036745Y-67383131D01*
X128866476Y-67442711D01*
X128737117Y-67523994D01*
X128671145Y-67543000D01*
X123307646Y-67543000D01*
X123240607Y-67523315D01*
X123194852Y-67470511D01*
X123184908Y-67401353D01*
X123196646Y-67363728D01*
X123225139Y-67306504D01*
X123269542Y-67217333D01*
X123325787Y-67019651D01*
X123344751Y-66815000D01*
X123325787Y-66610349D01*
X123269542Y-66412667D01*
X123177930Y-66228686D01*
X123068841Y-66084228D01*
X123054070Y-66064668D01*
X122902186Y-65926209D01*
X122902185Y-65926208D01*
X122727442Y-65818011D01*
X122727441Y-65818010D01*
X122587308Y-65763723D01*
X122535792Y-65743766D01*
X122333764Y-65706000D01*
X122128236Y-65706000D01*
X121926208Y-65743766D01*
X121926205Y-65743766D01*
X121926205Y-65743767D01*
X121734558Y-65818010D01*
X121734557Y-65818011D01*
X121559813Y-65926209D01*
X121407929Y-66064668D01*
X121284070Y-66228685D01*
X121192459Y-66412663D01*
X121186322Y-66434233D01*
X121141405Y-66592103D01*
X121136212Y-66610353D01*
X121117249Y-66814999D01*
X121117249Y-66815000D01*
X121136212Y-67019646D01*
X121192459Y-67217336D01*
X121265354Y-67363728D01*
X121277615Y-67432514D01*
X121250742Y-67497008D01*
X121193266Y-67536736D01*
X121154354Y-67543000D01*
X115370000Y-67543000D01*
X115302961Y-67523315D01*
X115257206Y-67470511D01*
X115246000Y-67419000D01*
X115246000Y-64275000D01*
X118577249Y-64275000D01*
X118596212Y-64479646D01*
X118596212Y-64479648D01*
X118596213Y-64479651D01*
X118633165Y-64609523D01*
X118652459Y-64677336D01*
X118744070Y-64861314D01*
X118867929Y-65025331D01*
X118947632Y-65097989D01*
X119019815Y-65163792D01*
X119194558Y-65271989D01*
X119386208Y-65346234D01*
X119588236Y-65384000D01*
X119588238Y-65384000D01*
X119793762Y-65384000D01*
X119793764Y-65384000D01*
X119995792Y-65346234D01*
X120187442Y-65271989D01*
X120362185Y-65163792D01*
X120478384Y-65057863D01*
X120541188Y-65027246D01*
X120561922Y-65025500D01*
X126630028Y-65025500D01*
X126670982Y-65032457D01*
X126743586Y-65057863D01*
X126750745Y-65060368D01*
X126750750Y-65060369D01*
X126929996Y-65080565D01*
X126930000Y-65080565D01*
X126930004Y-65080565D01*
X127109249Y-65060369D01*
X127109252Y-65060368D01*
X127109255Y-65060368D01*
X127189017Y-65032457D01*
X127229972Y-65025500D01*
X128666656Y-65025500D01*
X128733695Y-65045185D01*
X128779450Y-65097989D01*
X128789876Y-65163383D01*
X128785751Y-65199995D01*
X128785751Y-65200002D01*
X128804685Y-65368056D01*
X128860545Y-65527694D01*
X128860547Y-65527697D01*
X128950518Y-65670884D01*
X128950523Y-65670890D01*
X129070109Y-65790476D01*
X129070115Y-65790481D01*
X129213302Y-65880452D01*
X129213305Y-65880454D01*
X129213309Y-65880455D01*
X129213310Y-65880456D01*
X129274808Y-65901975D01*
X129372943Y-65936314D01*
X129540997Y-65955249D01*
X129541000Y-65955249D01*
X129541003Y-65955249D01*
X129709056Y-65936314D01*
X129709059Y-65936313D01*
X129868690Y-65880456D01*
X129868692Y-65880454D01*
X129868694Y-65880454D01*
X129868697Y-65880452D01*
X130011884Y-65790481D01*
X130011885Y-65790480D01*
X130011890Y-65790477D01*
X130103319Y-65699048D01*
X130164642Y-65665563D01*
X130234334Y-65670547D01*
X130278681Y-65699048D01*
X130370109Y-65790476D01*
X130370115Y-65790481D01*
X130513302Y-65880452D01*
X130513305Y-65880454D01*
X130513309Y-65880455D01*
X130513310Y-65880456D01*
X130574808Y-65901975D01*
X130672943Y-65936314D01*
X130840997Y-65955249D01*
X130841000Y-65955249D01*
X130841003Y-65955249D01*
X131009056Y-65936314D01*
X131009059Y-65936313D01*
X131168690Y-65880456D01*
X131168692Y-65880454D01*
X131168694Y-65880454D01*
X131168697Y-65880452D01*
X131311884Y-65790481D01*
X131311885Y-65790480D01*
X131311890Y-65790477D01*
X131403319Y-65699048D01*
X131464642Y-65665563D01*
X131534334Y-65670547D01*
X131578681Y-65699048D01*
X131670109Y-65790476D01*
X131670115Y-65790481D01*
X131813302Y-65880452D01*
X131813305Y-65880454D01*
X131813309Y-65880455D01*
X131813310Y-65880456D01*
X131874808Y-65901975D01*
X131972943Y-65936314D01*
X132140997Y-65955249D01*
X132141000Y-65955249D01*
X132141003Y-65955249D01*
X132309056Y-65936314D01*
X132309059Y-65936313D01*
X132468690Y-65880456D01*
X132468692Y-65880454D01*
X132468694Y-65880454D01*
X132468697Y-65880452D01*
X132611884Y-65790481D01*
X132611885Y-65790480D01*
X132611890Y-65790477D01*
X132703319Y-65699048D01*
X132764642Y-65665563D01*
X132834334Y-65670547D01*
X132878681Y-65699048D01*
X132970109Y-65790476D01*
X132970115Y-65790481D01*
X133113302Y-65880452D01*
X133113305Y-65880454D01*
X133113309Y-65880455D01*
X133113310Y-65880456D01*
X133174808Y-65901975D01*
X133272943Y-65936314D01*
X133440997Y-65955249D01*
X133441000Y-65955249D01*
X133441003Y-65955249D01*
X133609056Y-65936314D01*
X133609059Y-65936313D01*
X133768690Y-65880456D01*
X133768692Y-65880454D01*
X133768694Y-65880454D01*
X133768697Y-65880452D01*
X133911884Y-65790481D01*
X133911885Y-65790480D01*
X133911890Y-65790477D01*
X134003319Y-65699048D01*
X134064642Y-65665563D01*
X134134334Y-65670547D01*
X134178681Y-65699048D01*
X134270109Y-65790476D01*
X134270115Y-65790481D01*
X134413302Y-65880452D01*
X134413305Y-65880454D01*
X134413309Y-65880455D01*
X134413310Y-65880456D01*
X134474808Y-65901975D01*
X134572943Y-65936314D01*
X134740997Y-65955249D01*
X134741000Y-65955249D01*
X134741003Y-65955249D01*
X134909056Y-65936314D01*
X134909059Y-65936313D01*
X135068690Y-65880456D01*
X135068692Y-65880454D01*
X135068694Y-65880454D01*
X135068697Y-65880452D01*
X135211884Y-65790481D01*
X135211885Y-65790480D01*
X135211890Y-65790477D01*
X135303319Y-65699048D01*
X135364642Y-65665563D01*
X135434334Y-65670547D01*
X135478681Y-65699048D01*
X135570109Y-65790476D01*
X135570115Y-65790481D01*
X135713302Y-65880452D01*
X135713305Y-65880454D01*
X135713309Y-65880455D01*
X135713310Y-65880456D01*
X135774808Y-65901975D01*
X135872943Y-65936314D01*
X136040997Y-65955249D01*
X136041000Y-65955249D01*
X136041003Y-65955249D01*
X136209056Y-65936314D01*
X136209059Y-65936313D01*
X136368690Y-65880456D01*
X136368692Y-65880454D01*
X136368694Y-65880454D01*
X136368697Y-65880452D01*
X136511884Y-65790481D01*
X136511885Y-65790480D01*
X136511890Y-65790477D01*
X136603319Y-65699048D01*
X136664642Y-65665563D01*
X136734334Y-65670547D01*
X136778681Y-65699048D01*
X136870109Y-65790476D01*
X136870115Y-65790481D01*
X137013302Y-65880452D01*
X137013305Y-65880454D01*
X137013309Y-65880455D01*
X137013310Y-65880456D01*
X137074808Y-65901975D01*
X137172943Y-65936314D01*
X137340997Y-65955249D01*
X137340998Y-65955249D01*
X137340998Y-65955248D01*
X137341000Y-65955249D01*
X137342613Y-65955067D01*
X137343652Y-65955249D01*
X137347964Y-65955249D01*
X137347964Y-65956004D01*
X137411435Y-65967120D01*
X137462816Y-66014468D01*
X137480500Y-66078287D01*
X137480500Y-66224255D01*
X137478775Y-66239872D01*
X137479061Y-66239899D01*
X137478326Y-66247665D01*
X137480500Y-66316814D01*
X137480500Y-66346343D01*
X137480501Y-66346360D01*
X137481368Y-66353231D01*
X137481826Y-66359050D01*
X137483290Y-66405624D01*
X137483291Y-66405627D01*
X137488880Y-66424867D01*
X137492824Y-66443911D01*
X137495336Y-66463791D01*
X137512490Y-66507119D01*
X137514382Y-66512647D01*
X137527381Y-66557388D01*
X137537580Y-66574634D01*
X137546138Y-66592103D01*
X137553514Y-66610732D01*
X137580898Y-66648423D01*
X137584106Y-66653307D01*
X137607827Y-66693416D01*
X137607833Y-66693424D01*
X137621990Y-66707580D01*
X137634628Y-66722376D01*
X137646405Y-66738586D01*
X137646406Y-66738587D01*
X137682309Y-66768288D01*
X137686620Y-66772210D01*
X138530424Y-67616014D01*
X139305762Y-68391352D01*
X139339247Y-68452675D01*
X139337856Y-68511126D01*
X139310938Y-68611586D01*
X139310936Y-68611596D01*
X139290341Y-68846999D01*
X139290341Y-68847000D01*
X139310936Y-69082403D01*
X139310938Y-69082413D01*
X139372094Y-69310655D01*
X139372096Y-69310659D01*
X139372097Y-69310663D01*
X139454668Y-69487737D01*
X139471965Y-69524830D01*
X139471967Y-69524834D01*
X139580281Y-69679521D01*
X139607505Y-69718401D01*
X139774599Y-69885495D01*
X139871384Y-69953265D01*
X139968165Y-70021032D01*
X139968167Y-70021033D01*
X139968170Y-70021035D01*
X140182337Y-70120903D01*
X140182343Y-70120904D01*
X140182344Y-70120905D01*
X140237285Y-70135626D01*
X140410592Y-70182063D01*
X140598918Y-70198539D01*
X140645999Y-70202659D01*
X140646000Y-70202659D01*
X140646001Y-70202659D01*
X140685570Y-70199197D01*
X140881408Y-70182063D01*
X141109663Y-70120903D01*
X141323830Y-70021035D01*
X141517401Y-69885495D01*
X141684495Y-69718401D01*
X141820035Y-69524830D01*
X141919903Y-69310663D01*
X141981063Y-69082408D01*
X142001659Y-68847000D01*
X141981063Y-68611592D01*
X141919903Y-68383337D01*
X141820035Y-68169171D01*
X141810987Y-68156248D01*
X141684494Y-67975597D01*
X141517402Y-67808506D01*
X141517396Y-67808501D01*
X141331842Y-67678575D01*
X141288217Y-67623998D01*
X141281023Y-67554500D01*
X141312546Y-67492145D01*
X141331842Y-67475425D01*
X141412425Y-67419000D01*
X141517401Y-67345495D01*
X141684495Y-67178401D01*
X141820035Y-66984830D01*
X141919903Y-66770663D01*
X141981063Y-66542408D01*
X142001659Y-66307000D01*
X141981063Y-66071592D01*
X141919903Y-65843337D01*
X141820035Y-65629171D01*
X141782917Y-65576160D01*
X141684494Y-65435597D01*
X141517402Y-65268506D01*
X141517396Y-65268501D01*
X141331842Y-65138575D01*
X141288217Y-65083998D01*
X141281023Y-65014500D01*
X141312546Y-64952145D01*
X141331842Y-64935425D01*
X141437683Y-64861314D01*
X141517401Y-64805495D01*
X141684495Y-64638401D01*
X141820035Y-64444830D01*
X141919903Y-64230663D01*
X141981063Y-64002408D01*
X142001659Y-63767000D01*
X141981063Y-63531592D01*
X141919903Y-63303337D01*
X141820035Y-63089171D01*
X141807230Y-63070884D01*
X141684496Y-62895600D01*
X141626487Y-62837591D01*
X141562567Y-62773671D01*
X141529084Y-62712351D01*
X141534068Y-62642659D01*
X141575939Y-62586725D01*
X141606915Y-62569810D01*
X141738331Y-62520796D01*
X141853546Y-62434546D01*
X141939796Y-62319331D01*
X141990091Y-62184483D01*
X141996500Y-62124873D01*
X141996499Y-60329128D01*
X141990091Y-60269517D01*
X141956525Y-60179523D01*
X141939797Y-60134671D01*
X141939793Y-60134664D01*
X141853547Y-60019455D01*
X141853544Y-60019452D01*
X141738335Y-59933206D01*
X141738328Y-59933202D01*
X141603482Y-59882908D01*
X141603483Y-59882908D01*
X141543883Y-59876501D01*
X141543881Y-59876500D01*
X141543873Y-59876500D01*
X141543865Y-59876500D01*
X140256611Y-59876500D01*
X140189572Y-59856815D01*
X140168930Y-59840181D01*
X138504961Y-58176212D01*
X138495138Y-58163950D01*
X138494917Y-58164134D01*
X138489944Y-58158123D01*
X138439522Y-58110773D01*
X138429077Y-58100328D01*
X138418633Y-58089883D01*
X138413144Y-58085625D01*
X138408719Y-58081847D01*
X138374740Y-58049938D01*
X138374738Y-58049936D01*
X138374735Y-58049935D01*
X138357187Y-58040288D01*
X138340921Y-58029604D01*
X138325091Y-58017325D01*
X138282326Y-57998818D01*
X138277080Y-57996248D01*
X138236251Y-57973803D01*
X138236250Y-57973802D01*
X138216851Y-57968822D01*
X138198439Y-57962518D01*
X138180056Y-57954562D01*
X138180050Y-57954560D01*
X138134032Y-57947272D01*
X138128310Y-57946087D01*
X138083179Y-57934500D01*
X138083177Y-57934500D01*
X138063142Y-57934500D01*
X138043744Y-57932973D01*
X138036320Y-57931797D01*
X138023963Y-57929840D01*
X138023962Y-57929840D01*
X137977574Y-57934225D01*
X137971736Y-57934500D01*
X135475855Y-57934500D01*
X135409883Y-57915494D01*
X135280523Y-57834211D01*
X135110254Y-57774631D01*
X135110249Y-57774630D01*
X134931004Y-57754435D01*
X134930996Y-57754435D01*
X134751750Y-57774630D01*
X134751745Y-57774631D01*
X134581476Y-57834211D01*
X134428737Y-57930184D01*
X134383680Y-57975241D01*
X134322357Y-58008725D01*
X134252665Y-58003740D01*
X134208320Y-57975241D01*
X134163263Y-57930185D01*
X134163262Y-57930184D01*
X134010523Y-57834211D01*
X133840254Y-57774631D01*
X133840249Y-57774630D01*
X133661004Y-57754435D01*
X133660996Y-57754435D01*
X133481750Y-57774630D01*
X133481745Y-57774631D01*
X133311476Y-57834211D01*
X133158737Y-57930184D01*
X133031184Y-58057737D01*
X132935211Y-58210476D01*
X132875631Y-58380745D01*
X132875630Y-58380750D01*
X132866771Y-58459383D01*
X132839705Y-58523797D01*
X132782110Y-58563353D01*
X132743551Y-58569500D01*
X132300855Y-58569500D01*
X132234883Y-58550494D01*
X132105523Y-58469211D01*
X131935254Y-58409631D01*
X131935249Y-58409630D01*
X131756004Y-58389435D01*
X131755996Y-58389435D01*
X131576750Y-58409630D01*
X131576745Y-58409631D01*
X131406476Y-58469211D01*
X131253737Y-58565184D01*
X131126184Y-58692737D01*
X131030211Y-58845476D01*
X130970631Y-59015745D01*
X130970630Y-59015750D01*
X130950435Y-59194996D01*
X130950435Y-59195003D01*
X130970630Y-59374249D01*
X130970631Y-59374254D01*
X131030211Y-59544523D01*
X131126184Y-59697262D01*
X131253738Y-59824816D01*
X131406478Y-59920789D01*
X131441964Y-59933206D01*
X131576745Y-59980368D01*
X131576750Y-59980369D01*
X131755996Y-60000565D01*
X131756000Y-60000565D01*
X131756004Y-60000565D01*
X131935249Y-59980369D01*
X131935251Y-59980368D01*
X131935255Y-59980368D01*
X131935258Y-59980366D01*
X131935262Y-59980366D01*
X132081273Y-59929274D01*
X132151051Y-59925711D01*
X132211679Y-59960440D01*
X132239270Y-60005361D01*
X132240631Y-60009252D01*
X132240632Y-60009255D01*
X132267727Y-60086689D01*
X132300210Y-60179521D01*
X132356758Y-60269516D01*
X132396184Y-60332262D01*
X132523738Y-60459816D01*
X132676478Y-60555789D01*
X132846742Y-60615367D01*
X132846745Y-60615368D01*
X132846750Y-60615369D01*
X133025996Y-60635565D01*
X133026000Y-60635565D01*
X133026004Y-60635565D01*
X133205249Y-60615369D01*
X133205252Y-60615368D01*
X133205255Y-60615368D01*
X133375522Y-60555789D01*
X133404578Y-60537532D01*
X133432130Y-60520220D01*
X133499367Y-60501219D01*
X133566202Y-60521586D01*
X133585784Y-60537532D01*
X133897036Y-60848784D01*
X133906861Y-60861048D01*
X133907082Y-60860866D01*
X133912052Y-60866873D01*
X133912055Y-60866876D01*
X133912056Y-60866877D01*
X133962493Y-60914241D01*
X133983372Y-60935120D01*
X133988846Y-60939366D01*
X133993284Y-60943156D01*
X134027260Y-60975062D01*
X134027264Y-60975064D01*
X134044815Y-60984713D01*
X134061073Y-60995392D01*
X134076906Y-61007674D01*
X134098857Y-61017172D01*
X134119679Y-61026183D01*
X134124923Y-61028752D01*
X134165750Y-61051197D01*
X134185154Y-61056179D01*
X134203552Y-61062478D01*
X134221947Y-61070438D01*
X134267971Y-61077726D01*
X134273674Y-61078907D01*
X134318823Y-61090500D01*
X134338858Y-61090500D01*
X134358255Y-61092026D01*
X134378038Y-61095160D01*
X134424426Y-61090775D01*
X134430264Y-61090500D01*
X136525548Y-61090500D01*
X136592587Y-61110185D01*
X136613229Y-61126819D01*
X137164631Y-61678222D01*
X137198116Y-61739545D01*
X137193132Y-61809237D01*
X137151260Y-61865170D01*
X137117905Y-61882944D01*
X137098100Y-61889874D01*
X137013305Y-61919545D01*
X137013302Y-61919547D01*
X136870115Y-62009518D01*
X136870109Y-62009523D01*
X136778681Y-62100952D01*
X136717358Y-62134437D01*
X136647666Y-62129453D01*
X136603319Y-62100952D01*
X136511890Y-62009523D01*
X136511884Y-62009518D01*
X136368697Y-61919547D01*
X136368694Y-61919545D01*
X136209056Y-61863685D01*
X136041003Y-61844751D01*
X136040997Y-61844751D01*
X135872943Y-61863685D01*
X135713305Y-61919545D01*
X135713302Y-61919547D01*
X135570115Y-62009518D01*
X135570109Y-62009523D01*
X135478681Y-62100952D01*
X135417358Y-62134437D01*
X135347666Y-62129453D01*
X135303319Y-62100952D01*
X135211890Y-62009523D01*
X135211884Y-62009518D01*
X135068697Y-61919547D01*
X135068694Y-61919545D01*
X134909056Y-61863685D01*
X134741003Y-61844751D01*
X134740997Y-61844751D01*
X134572943Y-61863685D01*
X134413305Y-61919545D01*
X134413302Y-61919547D01*
X134270115Y-62009518D01*
X134270109Y-62009523D01*
X134178681Y-62100952D01*
X134117358Y-62134437D01*
X134047666Y-62129453D01*
X134003319Y-62100952D01*
X133911890Y-62009523D01*
X133911884Y-62009518D01*
X133768697Y-61919547D01*
X133768694Y-61919545D01*
X133609056Y-61863685D01*
X133441003Y-61844751D01*
X133440997Y-61844751D01*
X133272943Y-61863685D01*
X133113305Y-61919545D01*
X133113302Y-61919547D01*
X132970115Y-62009518D01*
X132970109Y-62009523D01*
X132878681Y-62100952D01*
X132817358Y-62134437D01*
X132747666Y-62129453D01*
X132703319Y-62100952D01*
X132611890Y-62009523D01*
X132611884Y-62009518D01*
X132468697Y-61919547D01*
X132468694Y-61919545D01*
X132309056Y-61863685D01*
X132141003Y-61844751D01*
X132140997Y-61844751D01*
X131972943Y-61863685D01*
X131813305Y-61919545D01*
X131813302Y-61919547D01*
X131670115Y-62009518D01*
X131670109Y-62009523D01*
X131578681Y-62100952D01*
X131517358Y-62134437D01*
X131447666Y-62129453D01*
X131403319Y-62100952D01*
X131311890Y-62009523D01*
X131311884Y-62009518D01*
X131168697Y-61919547D01*
X131168694Y-61919545D01*
X131009056Y-61863685D01*
X130841003Y-61844751D01*
X130840997Y-61844751D01*
X130672943Y-61863685D01*
X130513305Y-61919545D01*
X130513302Y-61919547D01*
X130370115Y-62009518D01*
X130370109Y-62009523D01*
X130278681Y-62100952D01*
X130217358Y-62134437D01*
X130147666Y-62129453D01*
X130103319Y-62100952D01*
X130011890Y-62009523D01*
X130011884Y-62009518D01*
X129868697Y-61919547D01*
X129868694Y-61919545D01*
X129709056Y-61863685D01*
X129541003Y-61844751D01*
X129540997Y-61844751D01*
X129372943Y-61863685D01*
X129213305Y-61919545D01*
X129213302Y-61919547D01*
X129070115Y-62009518D01*
X129070109Y-62009523D01*
X128950523Y-62129109D01*
X128950518Y-62129115D01*
X128860547Y-62272302D01*
X128860545Y-62272305D01*
X128804685Y-62431943D01*
X128785751Y-62599997D01*
X128785751Y-62600002D01*
X128804685Y-62768056D01*
X128860545Y-62927694D01*
X128860547Y-62927697D01*
X128950518Y-63070884D01*
X128950523Y-63070890D01*
X129024274Y-63144641D01*
X129057759Y-63205964D01*
X129052775Y-63275656D01*
X129024275Y-63320003D01*
X129023435Y-63320842D01*
X129023435Y-63320843D01*
X128856095Y-63488182D01*
X128794774Y-63521666D01*
X128768416Y-63524500D01*
X127229972Y-63524500D01*
X127189017Y-63517542D01*
X127109254Y-63489631D01*
X127109249Y-63489630D01*
X126930004Y-63469435D01*
X126929996Y-63469435D01*
X126750750Y-63489630D01*
X126750745Y-63489631D01*
X126670983Y-63517542D01*
X126630028Y-63524500D01*
X120565500Y-63524500D01*
X120498461Y-63504815D01*
X120452706Y-63452011D01*
X120441500Y-63400500D01*
X120441500Y-62391370D01*
X121122000Y-62391370D01*
X121122001Y-62391376D01*
X121128408Y-62450983D01*
X121178702Y-62585828D01*
X121178706Y-62585835D01*
X121264952Y-62701044D01*
X121264955Y-62701047D01*
X121380164Y-62787293D01*
X121380171Y-62787297D01*
X121515017Y-62837591D01*
X121515016Y-62837591D01*
X121521944Y-62838335D01*
X121574627Y-62844000D01*
X122887372Y-62843999D01*
X122946983Y-62837591D01*
X123081831Y-62787296D01*
X123197046Y-62701046D01*
X123283296Y-62585831D01*
X123333591Y-62450983D01*
X123333590Y-62450983D01*
X123336302Y-62443715D01*
X123338854Y-62444666D01*
X123366980Y-62395271D01*
X123428890Y-62362884D01*
X123453086Y-62360500D01*
X127863257Y-62360500D01*
X127878877Y-62362224D01*
X127878904Y-62361939D01*
X127886660Y-62362671D01*
X127886667Y-62362673D01*
X127955814Y-62360500D01*
X127985350Y-62360500D01*
X127992228Y-62359630D01*
X127998041Y-62359172D01*
X128044627Y-62357709D01*
X128063869Y-62352117D01*
X128082912Y-62348174D01*
X128102792Y-62345664D01*
X128146122Y-62328507D01*
X128151646Y-62326617D01*
X128155396Y-62325527D01*
X128196390Y-62313618D01*
X128213629Y-62303422D01*
X128231103Y-62294862D01*
X128249727Y-62287488D01*
X128249727Y-62287487D01*
X128249732Y-62287486D01*
X128287449Y-62260082D01*
X128292305Y-62256892D01*
X128332420Y-62233170D01*
X128346589Y-62218999D01*
X128361379Y-62206368D01*
X128377587Y-62194594D01*
X128407299Y-62158676D01*
X128411212Y-62154376D01*
X129909380Y-60656209D01*
X129970701Y-60622726D01*
X129983158Y-60620674D01*
X130030255Y-60615368D01*
X130200522Y-60555789D01*
X130353262Y-60459816D01*
X130480816Y-60332262D01*
X130576789Y-60179522D01*
X130636368Y-60009255D01*
X130651326Y-59876500D01*
X130656565Y-59830003D01*
X130656565Y-59829996D01*
X130636369Y-59650750D01*
X130636368Y-59650745D01*
X130576788Y-59480476D01*
X130511179Y-59376060D01*
X130480816Y-59327738D01*
X130353262Y-59200184D01*
X130200523Y-59104211D01*
X130030254Y-59044631D01*
X130030249Y-59044630D01*
X129851004Y-59024435D01*
X129850996Y-59024435D01*
X129671750Y-59044630D01*
X129671745Y-59044631D01*
X129501476Y-59104211D01*
X129348737Y-59200184D01*
X129221184Y-59327737D01*
X129125210Y-59480478D01*
X129065630Y-59650750D01*
X129060326Y-59697825D01*
X129033258Y-59762239D01*
X129024787Y-59771621D01*
X127723228Y-61073181D01*
X127661905Y-61106666D01*
X127635547Y-61109500D01*
X123453086Y-61109500D01*
X123386047Y-61089815D01*
X123340292Y-61037011D01*
X123336579Y-61026181D01*
X123336302Y-61026285D01*
X123283297Y-60884171D01*
X123283293Y-60884164D01*
X123197047Y-60768955D01*
X123197044Y-60768952D01*
X123081835Y-60682706D01*
X123081828Y-60682702D01*
X122946982Y-60632408D01*
X122946983Y-60632408D01*
X122887383Y-60626001D01*
X122887381Y-60626000D01*
X122887373Y-60626000D01*
X122887364Y-60626000D01*
X121574629Y-60626000D01*
X121574623Y-60626001D01*
X121515016Y-60632408D01*
X121380171Y-60682702D01*
X121380164Y-60682706D01*
X121264955Y-60768952D01*
X121264952Y-60768955D01*
X121178706Y-60884164D01*
X121178702Y-60884171D01*
X121128408Y-61019017D01*
X121122001Y-61078616D01*
X121122000Y-61078635D01*
X121122000Y-62391370D01*
X120441500Y-62391370D01*
X120441500Y-56020003D01*
X125362435Y-56020003D01*
X125382630Y-56199249D01*
X125382631Y-56199254D01*
X125410542Y-56279017D01*
X125417500Y-56319972D01*
X125417500Y-57226294D01*
X125416191Y-57244263D01*
X125412710Y-57268025D01*
X125417264Y-57320064D01*
X125417500Y-57325470D01*
X125417500Y-57333709D01*
X125421306Y-57366274D01*
X125428000Y-57442791D01*
X125429461Y-57449867D01*
X125429403Y-57449878D01*
X125431034Y-57457237D01*
X125431092Y-57457224D01*
X125432757Y-57464250D01*
X125459025Y-57536424D01*
X125483185Y-57609331D01*
X125486236Y-57615874D01*
X125486182Y-57615898D01*
X125489470Y-57622688D01*
X125489521Y-57622663D01*
X125492761Y-57629113D01*
X125492762Y-57629114D01*
X125492763Y-57629117D01*
X125534965Y-57693283D01*
X125575287Y-57758655D01*
X125579766Y-57764319D01*
X125579719Y-57764356D01*
X125584482Y-57770202D01*
X125584528Y-57770164D01*
X125589173Y-57775700D01*
X125645017Y-57828385D01*
X127192692Y-59376060D01*
X127215356Y-59412129D01*
X127217188Y-59411247D01*
X127220207Y-59417516D01*
X127259768Y-59480476D01*
X127316184Y-59570262D01*
X127443738Y-59697816D01*
X127534080Y-59754582D01*
X127546266Y-59762239D01*
X127596478Y-59793789D01*
X127685148Y-59824816D01*
X127766745Y-59853368D01*
X127766750Y-59853369D01*
X127945996Y-59873565D01*
X127946000Y-59873565D01*
X127946004Y-59873565D01*
X128125249Y-59853369D01*
X128125252Y-59853368D01*
X128125255Y-59853368D01*
X128295522Y-59793789D01*
X128448262Y-59697816D01*
X128575816Y-59570262D01*
X128671789Y-59417522D01*
X128731368Y-59247255D01*
X128736672Y-59200184D01*
X128751565Y-59068003D01*
X128751565Y-59067996D01*
X128731369Y-58888750D01*
X128731368Y-58888745D01*
X128716228Y-58845478D01*
X128671789Y-58718478D01*
X128655615Y-58692738D01*
X128632582Y-58656080D01*
X128575816Y-58565738D01*
X128448262Y-58438184D01*
X128295522Y-58342211D01*
X128295518Y-58342209D01*
X128289244Y-58339188D01*
X128290125Y-58337358D01*
X128254059Y-58314692D01*
X126954819Y-57015451D01*
X126921334Y-56954128D01*
X126918500Y-56927770D01*
X126918500Y-56319972D01*
X126925458Y-56279017D01*
X126953368Y-56199254D01*
X126953369Y-56199249D01*
X126973565Y-56020003D01*
X126973565Y-56019996D01*
X126953369Y-55840750D01*
X126953368Y-55840745D01*
X126893789Y-55670478D01*
X126797816Y-55517738D01*
X126670262Y-55390184D01*
X126517523Y-55294211D01*
X126347254Y-55234631D01*
X126347249Y-55234630D01*
X126168004Y-55214435D01*
X126167996Y-55214435D01*
X125988750Y-55234630D01*
X125988745Y-55234631D01*
X125818476Y-55294211D01*
X125665737Y-55390184D01*
X125538184Y-55517737D01*
X125442211Y-55670476D01*
X125382631Y-55840745D01*
X125382630Y-55840750D01*
X125362435Y-56019996D01*
X125362435Y-56020003D01*
X120441500Y-56020003D01*
X120441500Y-55933037D01*
X120460507Y-55867064D01*
X120477045Y-55840745D01*
X120543789Y-55734522D01*
X120603368Y-55564255D01*
X120608609Y-55517738D01*
X120623565Y-55385003D01*
X120623565Y-55384996D01*
X120603369Y-55205750D01*
X120603368Y-55205745D01*
X120567339Y-55102780D01*
X120543789Y-55035478D01*
X120447816Y-54882738D01*
X120320262Y-54755184D01*
X120167523Y-54659211D01*
X119997254Y-54599631D01*
X119997249Y-54599630D01*
X119818004Y-54579435D01*
X119817996Y-54579435D01*
X119638750Y-54599630D01*
X119638745Y-54599631D01*
X119468476Y-54659211D01*
X119315737Y-54755184D01*
X119188184Y-54882737D01*
X119092211Y-55035478D01*
X119092209Y-55035482D01*
X119086152Y-55052791D01*
X119064107Y-55091531D01*
X119059698Y-55096785D01*
X119055735Y-55102812D01*
X119055687Y-55102780D01*
X119051631Y-55109147D01*
X119051679Y-55109177D01*
X119047889Y-55115321D01*
X119015424Y-55184941D01*
X118980960Y-55253566D01*
X118978488Y-55260357D01*
X118978432Y-55260336D01*
X118975960Y-55267450D01*
X118976015Y-55267469D01*
X118973742Y-55274327D01*
X118969637Y-55294211D01*
X118958207Y-55349565D01*
X118945001Y-55405284D01*
X118940498Y-55424286D01*
X118939661Y-55431454D01*
X118939601Y-55431447D01*
X118938835Y-55438945D01*
X118938895Y-55438951D01*
X118938265Y-55446140D01*
X118940500Y-55522916D01*
X118940500Y-63403761D01*
X118920815Y-63470800D01*
X118900039Y-63495398D01*
X118867927Y-63524671D01*
X118744070Y-63688685D01*
X118652459Y-63872663D01*
X118596212Y-64070353D01*
X118577249Y-64274999D01*
X118577249Y-64275000D01*
X115246000Y-64275000D01*
X115246000Y-54031500D01*
X115265685Y-53964461D01*
X115318489Y-53918706D01*
X115370000Y-53907500D01*
X142126500Y-53907500D01*
X142193539Y-53927185D01*
G37*
%TD.AperFunction*%
%TD*%
%TA.AperFunction,Conductor*%
%TO.N,+3V3*%
G36*
X142193539Y-114459685D02*
G01*
X142239294Y-114512489D01*
X142250500Y-114564000D01*
X142250500Y-133192500D01*
X142230815Y-133259539D01*
X142178011Y-133305294D01*
X142126500Y-133316500D01*
X132561103Y-133316500D01*
X132494064Y-133296815D01*
X132448309Y-133244011D01*
X132438365Y-133174853D01*
X132467390Y-133111297D01*
X132526168Y-133073523D01*
X132547220Y-133069280D01*
X132570249Y-133066685D01*
X132570252Y-133066684D01*
X132570255Y-133066684D01*
X132740522Y-133007105D01*
X132893262Y-132911132D01*
X133020816Y-132783578D01*
X133116789Y-132630838D01*
X133176368Y-132460571D01*
X133176368Y-132460569D01*
X133177917Y-132453784D01*
X133180468Y-132454366D01*
X133202892Y-132401013D01*
X133260489Y-132361461D01*
X133299041Y-132355316D01*
X135322662Y-132355316D01*
X135363616Y-132362274D01*
X135386745Y-132370368D01*
X135386751Y-132370368D01*
X135386753Y-132370369D01*
X135565996Y-132390565D01*
X135566000Y-132390565D01*
X135566004Y-132390565D01*
X135745249Y-132370369D01*
X135745252Y-132370368D01*
X135745255Y-132370368D01*
X135915522Y-132310789D01*
X136068262Y-132214816D01*
X136195816Y-132087262D01*
X136291789Y-131934522D01*
X136351368Y-131764255D01*
X136371565Y-131585000D01*
X136351368Y-131405745D01*
X136291789Y-131235478D01*
X136195816Y-131082738D01*
X136068262Y-130955184D01*
X135968716Y-130892635D01*
X135915521Y-130859210D01*
X135745249Y-130799630D01*
X135698173Y-130794326D01*
X135633759Y-130767259D01*
X135624377Y-130758787D01*
X134161803Y-129296212D01*
X134151980Y-129283950D01*
X134151759Y-129284134D01*
X134146786Y-129278123D01*
X134096364Y-129230773D01*
X134085919Y-129220328D01*
X134075475Y-129209883D01*
X134069986Y-129205625D01*
X134065561Y-129201847D01*
X134031582Y-129169938D01*
X134031580Y-129169936D01*
X134031577Y-129169935D01*
X134014029Y-129160288D01*
X133997763Y-129149604D01*
X133981933Y-129137325D01*
X133939168Y-129118818D01*
X133933922Y-129116248D01*
X133893093Y-129093803D01*
X133893092Y-129093802D01*
X133873693Y-129088822D01*
X133855281Y-129082518D01*
X133836898Y-129074562D01*
X133836892Y-129074560D01*
X133790874Y-129067272D01*
X133785152Y-129066087D01*
X133740021Y-129054500D01*
X133740019Y-129054500D01*
X133719984Y-129054500D01*
X133700586Y-129052973D01*
X133693162Y-129051797D01*
X133680805Y-129049840D01*
X133680804Y-129049840D01*
X133634416Y-129054225D01*
X133628578Y-129054500D01*
X129760855Y-129054500D01*
X129694883Y-129035494D01*
X129565521Y-128954210D01*
X129480388Y-128924421D01*
X129395255Y-128894632D01*
X129395248Y-128894631D01*
X129393118Y-128894145D01*
X129391876Y-128893450D01*
X129388683Y-128892333D01*
X129388878Y-128891773D01*
X129332141Y-128860035D01*
X129308989Y-128827047D01*
X129306790Y-128822481D01*
X129306789Y-128822478D01*
X129210816Y-128669738D01*
X129083262Y-128542184D01*
X129059883Y-128527494D01*
X128930523Y-128446211D01*
X128760254Y-128386631D01*
X128760249Y-128386630D01*
X128581004Y-128366435D01*
X128580996Y-128366435D01*
X128401750Y-128386630D01*
X128401745Y-128386631D01*
X128231476Y-128446211D01*
X128102117Y-128527494D01*
X128036145Y-128546500D01*
X126662452Y-128546500D01*
X126595413Y-128526815D01*
X126574771Y-128510181D01*
X124212593Y-126148002D01*
X128082751Y-126148002D01*
X128101685Y-126316056D01*
X128157545Y-126475694D01*
X128157547Y-126475697D01*
X128247518Y-126618884D01*
X128247523Y-126618890D01*
X128367109Y-126738476D01*
X128367115Y-126738481D01*
X128510302Y-126828452D01*
X128510305Y-126828454D01*
X128510309Y-126828455D01*
X128510310Y-126828456D01*
X128582913Y-126853860D01*
X128669943Y-126884314D01*
X128837997Y-126903249D01*
X128838000Y-126903249D01*
X128838003Y-126903249D01*
X129006056Y-126884314D01*
X129006059Y-126884313D01*
X129165690Y-126828456D01*
X129165692Y-126828454D01*
X129165694Y-126828454D01*
X129165697Y-126828452D01*
X129308884Y-126738481D01*
X129308885Y-126738480D01*
X129308890Y-126738477D01*
X129400319Y-126647048D01*
X129461642Y-126613563D01*
X129531334Y-126618547D01*
X129575681Y-126647048D01*
X129667109Y-126738476D01*
X129667115Y-126738481D01*
X129810302Y-126828452D01*
X129810305Y-126828454D01*
X129810309Y-126828455D01*
X129810310Y-126828456D01*
X129882913Y-126853860D01*
X129969943Y-126884314D01*
X130137997Y-126903249D01*
X130138000Y-126903249D01*
X130138003Y-126903249D01*
X130306056Y-126884314D01*
X130306059Y-126884313D01*
X130465690Y-126828456D01*
X130465692Y-126828454D01*
X130465694Y-126828454D01*
X130465697Y-126828452D01*
X130608884Y-126738481D01*
X130608885Y-126738480D01*
X130608890Y-126738477D01*
X130700319Y-126647048D01*
X130761642Y-126613563D01*
X130831334Y-126618547D01*
X130875681Y-126647048D01*
X130967109Y-126738476D01*
X130967115Y-126738481D01*
X131110302Y-126828452D01*
X131110305Y-126828454D01*
X131110309Y-126828455D01*
X131110310Y-126828456D01*
X131182913Y-126853860D01*
X131269943Y-126884314D01*
X131437997Y-126903249D01*
X131438000Y-126903249D01*
X131438003Y-126903249D01*
X131606056Y-126884314D01*
X131606059Y-126884313D01*
X131765690Y-126828456D01*
X131765692Y-126828454D01*
X131765694Y-126828454D01*
X131765697Y-126828452D01*
X131908884Y-126738481D01*
X131908885Y-126738480D01*
X131908890Y-126738477D01*
X132000319Y-126647048D01*
X132061642Y-126613563D01*
X132131334Y-126618547D01*
X132175681Y-126647048D01*
X132267109Y-126738476D01*
X132267115Y-126738481D01*
X132410302Y-126828452D01*
X132410305Y-126828454D01*
X132410309Y-126828455D01*
X132410310Y-126828456D01*
X132482913Y-126853860D01*
X132569943Y-126884314D01*
X132737997Y-126903249D01*
X132738000Y-126903249D01*
X132738003Y-126903249D01*
X132906056Y-126884314D01*
X132906059Y-126884313D01*
X133065690Y-126828456D01*
X133065692Y-126828454D01*
X133065694Y-126828454D01*
X133065697Y-126828452D01*
X133208884Y-126738481D01*
X133208885Y-126738480D01*
X133208890Y-126738477D01*
X133300319Y-126647048D01*
X133361642Y-126613563D01*
X133431334Y-126618547D01*
X133475681Y-126647048D01*
X133567109Y-126738476D01*
X133567115Y-126738481D01*
X133710302Y-126828452D01*
X133710305Y-126828454D01*
X133710309Y-126828455D01*
X133710310Y-126828456D01*
X133782913Y-126853860D01*
X133869943Y-126884314D01*
X134037997Y-126903249D01*
X134038000Y-126903249D01*
X134038003Y-126903249D01*
X134206056Y-126884314D01*
X134206059Y-126884313D01*
X134365690Y-126828456D01*
X134365692Y-126828454D01*
X134365694Y-126828454D01*
X134365697Y-126828452D01*
X134508884Y-126738481D01*
X134508885Y-126738480D01*
X134508890Y-126738477D01*
X134600319Y-126647048D01*
X134661642Y-126613563D01*
X134731334Y-126618547D01*
X134775681Y-126647048D01*
X134867109Y-126738476D01*
X134867115Y-126738481D01*
X135010302Y-126828452D01*
X135010305Y-126828454D01*
X135010309Y-126828455D01*
X135010310Y-126828456D01*
X135082913Y-126853860D01*
X135169943Y-126884314D01*
X135337997Y-126903249D01*
X135338000Y-126903249D01*
X135338003Y-126903249D01*
X135506056Y-126884314D01*
X135506059Y-126884313D01*
X135665690Y-126828456D01*
X135665692Y-126828454D01*
X135665694Y-126828454D01*
X135665697Y-126828452D01*
X135808884Y-126738481D01*
X135808885Y-126738480D01*
X135808890Y-126738477D01*
X135900319Y-126647048D01*
X135961642Y-126613563D01*
X136031334Y-126618547D01*
X136075681Y-126647048D01*
X136167109Y-126738476D01*
X136167115Y-126738481D01*
X136310302Y-126828452D01*
X136310305Y-126828454D01*
X136310309Y-126828455D01*
X136310310Y-126828456D01*
X136382913Y-126853860D01*
X136469943Y-126884314D01*
X136637997Y-126903249D01*
X136638000Y-126903249D01*
X136638002Y-126903249D01*
X136803716Y-126884577D01*
X136872538Y-126896631D01*
X136917919Y-126934912D01*
X136918513Y-126935729D01*
X136918514Y-126935732D01*
X136945898Y-126973423D01*
X136949106Y-126978306D01*
X136972828Y-127018417D01*
X136972833Y-127018424D01*
X136986990Y-127032580D01*
X136999628Y-127047376D01*
X137011405Y-127063586D01*
X137011406Y-127063587D01*
X137047309Y-127093288D01*
X137051620Y-127097210D01*
X137903408Y-127948998D01*
X138670762Y-128716352D01*
X138704247Y-128777675D01*
X138702856Y-128836126D01*
X138675938Y-128936586D01*
X138675936Y-128936596D01*
X138655341Y-129171999D01*
X138655341Y-129172000D01*
X138675936Y-129407403D01*
X138675938Y-129407413D01*
X138737094Y-129635655D01*
X138737096Y-129635659D01*
X138737097Y-129635663D01*
X138836965Y-129849830D01*
X138836967Y-129849834D01*
X138945281Y-130004521D01*
X138972505Y-130043401D01*
X139139599Y-130210495D01*
X139236384Y-130278265D01*
X139333165Y-130346032D01*
X139333167Y-130346033D01*
X139333170Y-130346035D01*
X139547337Y-130445903D01*
X139775592Y-130507063D01*
X139963918Y-130523539D01*
X140010999Y-130527659D01*
X140011000Y-130527659D01*
X140011001Y-130527659D01*
X140050234Y-130524226D01*
X140246408Y-130507063D01*
X140474663Y-130445903D01*
X140688830Y-130346035D01*
X140882401Y-130210495D01*
X141049495Y-130043401D01*
X141185035Y-129849830D01*
X141284903Y-129635663D01*
X141346063Y-129407408D01*
X141366659Y-129172000D01*
X141366478Y-129169936D01*
X141357456Y-129066814D01*
X141346063Y-128936592D01*
X141284903Y-128708337D01*
X141185035Y-128494171D01*
X141151454Y-128446211D01*
X141049494Y-128300597D01*
X140882402Y-128133506D01*
X140882396Y-128133501D01*
X140696842Y-128003575D01*
X140653217Y-127948998D01*
X140646023Y-127879500D01*
X140677546Y-127817145D01*
X140696842Y-127800425D01*
X140719026Y-127784891D01*
X140882401Y-127670495D01*
X141049495Y-127503401D01*
X141185035Y-127309830D01*
X141284903Y-127095663D01*
X141346063Y-126867408D01*
X141366659Y-126632000D01*
X141365511Y-126618884D01*
X141352984Y-126475697D01*
X141346063Y-126396592D01*
X141284903Y-126168337D01*
X141185035Y-125954171D01*
X141150473Y-125904810D01*
X141049494Y-125760597D01*
X140882402Y-125593506D01*
X140882396Y-125593501D01*
X140696842Y-125463575D01*
X140653217Y-125408998D01*
X140646023Y-125339500D01*
X140677546Y-125277145D01*
X140696842Y-125260425D01*
X140748634Y-125224160D01*
X140882401Y-125130495D01*
X141049495Y-124963401D01*
X141185035Y-124769830D01*
X141284903Y-124555663D01*
X141346063Y-124327408D01*
X141366659Y-124092000D01*
X141346063Y-123856592D01*
X141284903Y-123628337D01*
X141185035Y-123414171D01*
X141164716Y-123385153D01*
X141049496Y-123220600D01*
X140995261Y-123166365D01*
X140927567Y-123098671D01*
X140894084Y-123037351D01*
X140899068Y-122967659D01*
X140940939Y-122911725D01*
X140971915Y-122894810D01*
X141103331Y-122845796D01*
X141218546Y-122759546D01*
X141304796Y-122644331D01*
X141355091Y-122509483D01*
X141361500Y-122449873D01*
X141361499Y-120654128D01*
X141355091Y-120594517D01*
X141321525Y-120504523D01*
X141304797Y-120459671D01*
X141304793Y-120459664D01*
X141218547Y-120344455D01*
X141218544Y-120344452D01*
X141103335Y-120258206D01*
X141103328Y-120258202D01*
X140968482Y-120207908D01*
X140968483Y-120207908D01*
X140908883Y-120201501D01*
X140908881Y-120201500D01*
X140908873Y-120201500D01*
X140908865Y-120201500D01*
X139596453Y-120201500D01*
X139529414Y-120181815D01*
X139508772Y-120165181D01*
X138479803Y-119136212D01*
X138469980Y-119123950D01*
X138469759Y-119124134D01*
X138464786Y-119118123D01*
X138414364Y-119070773D01*
X138403919Y-119060328D01*
X138393475Y-119049883D01*
X138387986Y-119045625D01*
X138383561Y-119041847D01*
X138349582Y-119009938D01*
X138349580Y-119009936D01*
X138349577Y-119009935D01*
X138332029Y-119000288D01*
X138315763Y-118989604D01*
X138299933Y-118977325D01*
X138257168Y-118958818D01*
X138251922Y-118956248D01*
X138211093Y-118933803D01*
X138211092Y-118933802D01*
X138191693Y-118928822D01*
X138173281Y-118922518D01*
X138154898Y-118914562D01*
X138154892Y-118914560D01*
X138108874Y-118907272D01*
X138103152Y-118906087D01*
X138058021Y-118894500D01*
X138058019Y-118894500D01*
X138037984Y-118894500D01*
X138018586Y-118892973D01*
X138011162Y-118891797D01*
X137998805Y-118889840D01*
X137998804Y-118889840D01*
X137952416Y-118894225D01*
X137946578Y-118894500D01*
X134840855Y-118894500D01*
X134774883Y-118875494D01*
X134645523Y-118794211D01*
X134475254Y-118734631D01*
X134475249Y-118734630D01*
X134296004Y-118714435D01*
X134295996Y-118714435D01*
X134116750Y-118734630D01*
X134116745Y-118734631D01*
X133946476Y-118794211D01*
X133793737Y-118890184D01*
X133748680Y-118935241D01*
X133687357Y-118968725D01*
X133617665Y-118963740D01*
X133573320Y-118935241D01*
X133528263Y-118890185D01*
X133528262Y-118890184D01*
X133375523Y-118794211D01*
X133205254Y-118734631D01*
X133205249Y-118734630D01*
X133026004Y-118714435D01*
X133025996Y-118714435D01*
X132846750Y-118734630D01*
X132846745Y-118734631D01*
X132676476Y-118794211D01*
X132523737Y-118890184D01*
X132396184Y-119017737D01*
X132300211Y-119170476D01*
X132240631Y-119340745D01*
X132240630Y-119340750D01*
X132231771Y-119419383D01*
X132204705Y-119483797D01*
X132147110Y-119523353D01*
X132108551Y-119529500D01*
X131665855Y-119529500D01*
X131599883Y-119510494D01*
X131470523Y-119429211D01*
X131300254Y-119369631D01*
X131300249Y-119369630D01*
X131121004Y-119349435D01*
X131120996Y-119349435D01*
X130941750Y-119369630D01*
X130941745Y-119369631D01*
X130771476Y-119429211D01*
X130618737Y-119525184D01*
X130491184Y-119652737D01*
X130395211Y-119805476D01*
X130335631Y-119975745D01*
X130335630Y-119975750D01*
X130315435Y-120154996D01*
X130315435Y-120155003D01*
X130335630Y-120334249D01*
X130335631Y-120334254D01*
X130395211Y-120504523D01*
X130488032Y-120652245D01*
X130491184Y-120657262D01*
X130618738Y-120784816D01*
X130771478Y-120880789D01*
X130795727Y-120889274D01*
X130941745Y-120940368D01*
X130941750Y-120940369D01*
X131120996Y-120960565D01*
X131121000Y-120960565D01*
X131121004Y-120960565D01*
X131300249Y-120940369D01*
X131300251Y-120940368D01*
X131300255Y-120940368D01*
X131300258Y-120940366D01*
X131300262Y-120940366D01*
X131446273Y-120889274D01*
X131516051Y-120885711D01*
X131576679Y-120920440D01*
X131604270Y-120965361D01*
X131605631Y-120969252D01*
X131605632Y-120969255D01*
X131632727Y-121046689D01*
X131665210Y-121139521D01*
X131691287Y-121181022D01*
X131761184Y-121292262D01*
X131888738Y-121419816D01*
X131979080Y-121476582D01*
X132037852Y-121513511D01*
X132041478Y-121515789D01*
X132160078Y-121557289D01*
X132211745Y-121575368D01*
X132211750Y-121575369D01*
X132390996Y-121595565D01*
X132391000Y-121595565D01*
X132391004Y-121595565D01*
X132570249Y-121575369D01*
X132570252Y-121575368D01*
X132570255Y-121575368D01*
X132740522Y-121515789D01*
X132740524Y-121515788D01*
X132797130Y-121480220D01*
X132864367Y-121461219D01*
X132931202Y-121481586D01*
X132950784Y-121497532D01*
X133262036Y-121808784D01*
X133271861Y-121821048D01*
X133272082Y-121820866D01*
X133277052Y-121826873D01*
X133277055Y-121826876D01*
X133277056Y-121826877D01*
X133327493Y-121874241D01*
X133348372Y-121895120D01*
X133353846Y-121899366D01*
X133358284Y-121903156D01*
X133392260Y-121935062D01*
X133392264Y-121935064D01*
X133409815Y-121944713D01*
X133426073Y-121955392D01*
X133441906Y-121967674D01*
X133463857Y-121977172D01*
X133484679Y-121986183D01*
X133489923Y-121988752D01*
X133530750Y-122011197D01*
X133550154Y-122016179D01*
X133568552Y-122022478D01*
X133586947Y-122030438D01*
X133632971Y-122037726D01*
X133638674Y-122038907D01*
X133683823Y-122050500D01*
X133703858Y-122050500D01*
X133723255Y-122052026D01*
X133743038Y-122055160D01*
X133789426Y-122050775D01*
X133795264Y-122050500D01*
X135890548Y-122050500D01*
X135957587Y-122070185D01*
X135978228Y-122086818D01*
X136503115Y-122611706D01*
X136536600Y-122673028D01*
X136531616Y-122742720D01*
X136489744Y-122798653D01*
X136456389Y-122816427D01*
X136310313Y-122867542D01*
X136310302Y-122867547D01*
X136167115Y-122957518D01*
X136167109Y-122957523D01*
X136075681Y-123048952D01*
X136014358Y-123082437D01*
X135944666Y-123077453D01*
X135900319Y-123048952D01*
X135808890Y-122957523D01*
X135808884Y-122957518D01*
X135665697Y-122867547D01*
X135665694Y-122867545D01*
X135506056Y-122811685D01*
X135338003Y-122792751D01*
X135337997Y-122792751D01*
X135169943Y-122811685D01*
X135010305Y-122867545D01*
X135010302Y-122867547D01*
X134867115Y-122957518D01*
X134867109Y-122957523D01*
X134775681Y-123048952D01*
X134714358Y-123082437D01*
X134644666Y-123077453D01*
X134600319Y-123048952D01*
X134508890Y-122957523D01*
X134508884Y-122957518D01*
X134365697Y-122867547D01*
X134365694Y-122867545D01*
X134206056Y-122811685D01*
X134038003Y-122792751D01*
X134037997Y-122792751D01*
X133869943Y-122811685D01*
X133710305Y-122867545D01*
X133710302Y-122867547D01*
X133567115Y-122957518D01*
X133567109Y-122957523D01*
X133475681Y-123048952D01*
X133414358Y-123082437D01*
X133344666Y-123077453D01*
X133300319Y-123048952D01*
X133208890Y-122957523D01*
X133208884Y-122957518D01*
X133065697Y-122867547D01*
X133065694Y-122867545D01*
X132906056Y-122811685D01*
X132738003Y-122792751D01*
X132737997Y-122792751D01*
X132569943Y-122811685D01*
X132410305Y-122867545D01*
X132410302Y-122867547D01*
X132267115Y-122957518D01*
X132267109Y-122957523D01*
X132175681Y-123048952D01*
X132114358Y-123082437D01*
X132044666Y-123077453D01*
X132000319Y-123048952D01*
X131908890Y-122957523D01*
X131908884Y-122957518D01*
X131765697Y-122867547D01*
X131765694Y-122867545D01*
X131606056Y-122811685D01*
X131438003Y-122792751D01*
X131437997Y-122792751D01*
X131269943Y-122811685D01*
X131110305Y-122867545D01*
X131110302Y-122867547D01*
X130967115Y-122957518D01*
X130967109Y-122957523D01*
X130875681Y-123048952D01*
X130814358Y-123082437D01*
X130744666Y-123077453D01*
X130700319Y-123048952D01*
X130608890Y-122957523D01*
X130608884Y-122957518D01*
X130465697Y-122867547D01*
X130465694Y-122867545D01*
X130306056Y-122811685D01*
X130138003Y-122792751D01*
X130137997Y-122792751D01*
X129969943Y-122811685D01*
X129810305Y-122867545D01*
X129810302Y-122867547D01*
X129667115Y-122957518D01*
X129667109Y-122957523D01*
X129575681Y-123048952D01*
X129514358Y-123082437D01*
X129444666Y-123077453D01*
X129400319Y-123048952D01*
X129308890Y-122957523D01*
X129308884Y-122957518D01*
X129165697Y-122867547D01*
X129165694Y-122867545D01*
X129006056Y-122811685D01*
X128838003Y-122792751D01*
X128837997Y-122792751D01*
X128669943Y-122811685D01*
X128510305Y-122867545D01*
X128510302Y-122867547D01*
X128367115Y-122957518D01*
X128367109Y-122957523D01*
X128247523Y-123077109D01*
X128247518Y-123077115D01*
X128157547Y-123220302D01*
X128157545Y-123220305D01*
X128101685Y-123379943D01*
X128082751Y-123547997D01*
X128082751Y-123548002D01*
X128101685Y-123716056D01*
X128157545Y-123875694D01*
X128157547Y-123875697D01*
X128247518Y-124018884D01*
X128247523Y-124018890D01*
X128338952Y-124110319D01*
X128372437Y-124171642D01*
X128367453Y-124241334D01*
X128338952Y-124285681D01*
X128247523Y-124377109D01*
X128247518Y-124377115D01*
X128157547Y-124520302D01*
X128157545Y-124520305D01*
X128101685Y-124679943D01*
X128082751Y-124847997D01*
X128082751Y-124848002D01*
X128101685Y-125016056D01*
X128157545Y-125175694D01*
X128157547Y-125175697D01*
X128247518Y-125318884D01*
X128247523Y-125318890D01*
X128338952Y-125410319D01*
X128372437Y-125471642D01*
X128367453Y-125541334D01*
X128338952Y-125585681D01*
X128247523Y-125677109D01*
X128247518Y-125677115D01*
X128157547Y-125820302D01*
X128157545Y-125820305D01*
X128101685Y-125979943D01*
X128082751Y-126147997D01*
X128082751Y-126148002D01*
X124212593Y-126148002D01*
X122080271Y-124015680D01*
X122046786Y-123954357D01*
X122051770Y-123884665D01*
X122093642Y-123828732D01*
X122159106Y-123804315D01*
X122167952Y-123803999D01*
X122252371Y-123803999D01*
X122252372Y-123803999D01*
X122311983Y-123797591D01*
X122446831Y-123747296D01*
X122562046Y-123661046D01*
X122648296Y-123545831D01*
X122698591Y-123410983D01*
X122698590Y-123410983D01*
X122701302Y-123403715D01*
X122703854Y-123404666D01*
X122731980Y-123355271D01*
X122793890Y-123322884D01*
X122818086Y-123320500D01*
X127260899Y-123320500D01*
X127276519Y-123322224D01*
X127276546Y-123321939D01*
X127284302Y-123322671D01*
X127284309Y-123322673D01*
X127353456Y-123320500D01*
X127382992Y-123320500D01*
X127389870Y-123319630D01*
X127395683Y-123319172D01*
X127442269Y-123317709D01*
X127461511Y-123312117D01*
X127480554Y-123308174D01*
X127500434Y-123305664D01*
X127543764Y-123288507D01*
X127549288Y-123286617D01*
X127553038Y-123285527D01*
X127594032Y-123273618D01*
X127611271Y-123263422D01*
X127628745Y-123254862D01*
X127647369Y-123247488D01*
X127647369Y-123247487D01*
X127647374Y-123247486D01*
X127685091Y-123220082D01*
X127689947Y-123216892D01*
X127730062Y-123193170D01*
X127744231Y-123178999D01*
X127759021Y-123166368D01*
X127775229Y-123154594D01*
X127804941Y-123118676D01*
X127808854Y-123114376D01*
X129265522Y-121657709D01*
X129326843Y-121624226D01*
X129339300Y-121622174D01*
X129386397Y-121616868D01*
X129556664Y-121557289D01*
X129709404Y-121461316D01*
X129836958Y-121333762D01*
X129932931Y-121181022D01*
X129992510Y-121010755D01*
X130002686Y-120920440D01*
X130012707Y-120831503D01*
X130012707Y-120831496D01*
X129992511Y-120652250D01*
X129992510Y-120652245D01*
X129932930Y-120481976D01*
X129893724Y-120419580D01*
X129836958Y-120329238D01*
X129709404Y-120201684D01*
X129619302Y-120145069D01*
X129556665Y-120105711D01*
X129386396Y-120046131D01*
X129386391Y-120046130D01*
X129207146Y-120025935D01*
X129207138Y-120025935D01*
X129027892Y-120046130D01*
X129027887Y-120046131D01*
X128857618Y-120105711D01*
X128704879Y-120201684D01*
X128577326Y-120329237D01*
X128481352Y-120481978D01*
X128421772Y-120652250D01*
X128416468Y-120699325D01*
X128389400Y-120763739D01*
X128380929Y-120773121D01*
X127120870Y-122033181D01*
X127059547Y-122066666D01*
X127033189Y-122069500D01*
X122818086Y-122069500D01*
X122751047Y-122049815D01*
X122705292Y-121997011D01*
X122701579Y-121986181D01*
X122701302Y-121986285D01*
X122648297Y-121844171D01*
X122648293Y-121844164D01*
X122562047Y-121728955D01*
X122562044Y-121728952D01*
X122446835Y-121642706D01*
X122446828Y-121642702D01*
X122311982Y-121592408D01*
X122311983Y-121592408D01*
X122252383Y-121586001D01*
X122252381Y-121586000D01*
X122252373Y-121586000D01*
X122252365Y-121586000D01*
X121075500Y-121586000D01*
X121008461Y-121566315D01*
X120962706Y-121513511D01*
X120951500Y-121462000D01*
X120951500Y-120364742D01*
X120953224Y-120349122D01*
X120952939Y-120349095D01*
X120953673Y-120341333D01*
X120951500Y-120272172D01*
X120951500Y-120242656D01*
X120951500Y-120242650D01*
X120950631Y-120235779D01*
X120950173Y-120229952D01*
X120948710Y-120183373D01*
X120943119Y-120164130D01*
X120939173Y-120145078D01*
X120936664Y-120125208D01*
X120919504Y-120081867D01*
X120917624Y-120076379D01*
X120904618Y-120031610D01*
X120894422Y-120014370D01*
X120885861Y-119996894D01*
X120878487Y-119978270D01*
X120878486Y-119978268D01*
X120851079Y-119940545D01*
X120847888Y-119935686D01*
X120824172Y-119895583D01*
X120824165Y-119895574D01*
X120810006Y-119881415D01*
X120797368Y-119866619D01*
X120785594Y-119850413D01*
X120749688Y-119820709D01*
X120745376Y-119816786D01*
X119639738Y-118711148D01*
X119606253Y-118649825D01*
X119611237Y-118580133D01*
X119653109Y-118524200D01*
X119682621Y-118507841D01*
X119802637Y-118461348D01*
X119976041Y-118353981D01*
X120126764Y-118216579D01*
X120249673Y-118053821D01*
X120340582Y-117871250D01*
X120396397Y-117675083D01*
X120415215Y-117472000D01*
X120396397Y-117268917D01*
X120340582Y-117072750D01*
X120249673Y-116890179D01*
X120126764Y-116727421D01*
X120126762Y-116727418D01*
X119976042Y-116590019D01*
X119964723Y-116583011D01*
X119955704Y-116577426D01*
X119909069Y-116525401D01*
X119897964Y-116456419D01*
X119925916Y-116392385D01*
X119955703Y-116366573D01*
X119976041Y-116353981D01*
X120126764Y-116216579D01*
X120249673Y-116053821D01*
X120340582Y-115871250D01*
X120396397Y-115675083D01*
X120415215Y-115472000D01*
X120396397Y-115268917D01*
X120340582Y-115072750D01*
X120249673Y-114890179D01*
X120126764Y-114727421D01*
X120126762Y-114727418D01*
X120048021Y-114655637D01*
X120011739Y-114595926D01*
X120013500Y-114526079D01*
X120052743Y-114468271D01*
X120117010Y-114440856D01*
X120131559Y-114440000D01*
X142126500Y-114440000D01*
X142193539Y-114459685D01*
G37*
%TD.AperFunction*%
%TD*%
%TA.AperFunction,Conductor*%
%TO.N,+3V3*%
G36*
X92228885Y-69365185D02*
G01*
X92274640Y-69417989D01*
X92284584Y-69487147D01*
X92255559Y-69550703D01*
X92249527Y-69557181D01*
X91586928Y-70219778D01*
X91574671Y-70229599D01*
X91574854Y-70229820D01*
X91568843Y-70234792D01*
X91521492Y-70285215D01*
X91500609Y-70306098D01*
X91500597Y-70306111D01*
X91496341Y-70311596D01*
X91492557Y-70316026D01*
X91460657Y-70349997D01*
X91460656Y-70349999D01*
X91451004Y-70367555D01*
X91440330Y-70383805D01*
X91428049Y-70399640D01*
X91428044Y-70399647D01*
X91409535Y-70442417D01*
X91406965Y-70447663D01*
X91384523Y-70488485D01*
X91379542Y-70507886D01*
X91373241Y-70526289D01*
X91365282Y-70544681D01*
X91365281Y-70544684D01*
X91357991Y-70590706D01*
X91356807Y-70596425D01*
X91345221Y-70641551D01*
X91345220Y-70641561D01*
X91345220Y-70661595D01*
X91343693Y-70680994D01*
X91340560Y-70700773D01*
X91340560Y-70700774D01*
X91344945Y-70747162D01*
X91345220Y-70753000D01*
X91345220Y-71871840D01*
X91325535Y-71938879D01*
X91308901Y-71959521D01*
X91240684Y-72027737D01*
X91144711Y-72180476D01*
X91085131Y-72350745D01*
X91085130Y-72350750D01*
X91064935Y-72529996D01*
X91064935Y-72530003D01*
X91085130Y-72709249D01*
X91085131Y-72709254D01*
X91144711Y-72879523D01*
X91217159Y-72994823D01*
X91240684Y-73032262D01*
X91368238Y-73159816D01*
X91520978Y-73255789D01*
X91554915Y-73267664D01*
X91691245Y-73315368D01*
X91691249Y-73315369D01*
X91791785Y-73326696D01*
X91817054Y-73329543D01*
X91881468Y-73356609D01*
X91921023Y-73414204D01*
X91923161Y-73484040D01*
X91893568Y-73537642D01*
X91875938Y-73556418D01*
X91875936Y-73556420D01*
X91866284Y-73573976D01*
X91855610Y-73590226D01*
X91843329Y-73606061D01*
X91843324Y-73606068D01*
X91824815Y-73648838D01*
X91822245Y-73654084D01*
X91799803Y-73694906D01*
X91794822Y-73714307D01*
X91788521Y-73732710D01*
X91780562Y-73751102D01*
X91780561Y-73751105D01*
X91773271Y-73797127D01*
X91772087Y-73802846D01*
X91760501Y-73847972D01*
X91760500Y-73847982D01*
X91760500Y-73868016D01*
X91758973Y-73887415D01*
X91755840Y-73907194D01*
X91755840Y-73907195D01*
X91760225Y-73953583D01*
X91760500Y-73959421D01*
X91760500Y-75824266D01*
X91740815Y-75891305D01*
X91724181Y-75911947D01*
X91360340Y-76275787D01*
X91299017Y-76309272D01*
X91286545Y-76311326D01*
X91239470Y-76316630D01*
X91069198Y-76376210D01*
X90916457Y-76472184D01*
X90788904Y-76599737D01*
X90692931Y-76752476D01*
X90633351Y-76922745D01*
X90633350Y-76922750D01*
X90613155Y-77101996D01*
X90613155Y-77102003D01*
X90633350Y-77281249D01*
X90633351Y-77281254D01*
X90692931Y-77451523D01*
X90719472Y-77493762D01*
X90788904Y-77604262D01*
X90916458Y-77731816D01*
X90972830Y-77767237D01*
X91038402Y-77808439D01*
X91069198Y-77827789D01*
X91094596Y-77836676D01*
X91239465Y-77887368D01*
X91239470Y-77887369D01*
X91418716Y-77907565D01*
X91418720Y-77907565D01*
X91418724Y-77907565D01*
X91597969Y-77887369D01*
X91597972Y-77887368D01*
X91597975Y-77887368D01*
X91768242Y-77827789D01*
X91920982Y-77731816D01*
X92048536Y-77604262D01*
X92144509Y-77451522D01*
X92204088Y-77281255D01*
X92209392Y-77234173D01*
X92236457Y-77169763D01*
X92244921Y-77160387D01*
X92746469Y-76658840D01*
X92807790Y-76625357D01*
X92877482Y-76630341D01*
X92933415Y-76672213D01*
X92951189Y-76705567D01*
X92965635Y-76746852D01*
X92996357Y-76795745D01*
X93061610Y-76899594D01*
X93189164Y-77027148D01*
X93192414Y-77029190D01*
X93329536Y-77115350D01*
X93341904Y-77123121D01*
X93453119Y-77162036D01*
X93509894Y-77202758D01*
X93529202Y-77238116D01*
X93565211Y-77341022D01*
X93565212Y-77341024D01*
X93565213Y-77341026D01*
X93591157Y-77382315D01*
X93650816Y-77477262D01*
X93653998Y-77482325D01*
X93672998Y-77549561D01*
X93666046Y-77589251D01*
X93632631Y-77684747D01*
X93612435Y-77863996D01*
X93612435Y-77864003D01*
X93632630Y-78043249D01*
X93632631Y-78043254D01*
X93692211Y-78213523D01*
X93788184Y-78366262D01*
X93915738Y-78493816D01*
X94068478Y-78589789D01*
X94169088Y-78624994D01*
X94238745Y-78649368D01*
X94238750Y-78649369D01*
X94417996Y-78669565D01*
X94418000Y-78669565D01*
X94418004Y-78669565D01*
X94597249Y-78649369D01*
X94597252Y-78649368D01*
X94597255Y-78649368D01*
X94767522Y-78589789D01*
X94920262Y-78493816D01*
X95047816Y-78366262D01*
X95143789Y-78213522D01*
X95203368Y-78043255D01*
X95222567Y-77872851D01*
X95249633Y-77808439D01*
X95258096Y-77799065D01*
X96102611Y-76954551D01*
X96163934Y-76921066D01*
X96233626Y-76926050D01*
X96277973Y-76954551D01*
X96328738Y-77005316D01*
X96481478Y-77101289D01*
X96632829Y-77154249D01*
X96651745Y-77160868D01*
X96651750Y-77160869D01*
X96830996Y-77181065D01*
X96831000Y-77181065D01*
X96831004Y-77181065D01*
X97010249Y-77160869D01*
X97010252Y-77160868D01*
X97010255Y-77160868D01*
X97180522Y-77101289D01*
X97333262Y-77005316D01*
X97460816Y-76877762D01*
X97556789Y-76725022D01*
X97616368Y-76554755D01*
X97616368Y-76554751D01*
X97616370Y-76554747D01*
X97616562Y-76553909D01*
X97616834Y-76553421D01*
X97618668Y-76548182D01*
X97619585Y-76548503D01*
X97650670Y-76492930D01*
X97712331Y-76460072D01*
X97737453Y-76457500D01*
X98459917Y-76457500D01*
X98526956Y-76477185D01*
X98572711Y-76529989D01*
X98583137Y-76595383D01*
X98565435Y-76752496D01*
X98565435Y-76752503D01*
X98585630Y-76931749D01*
X98585631Y-76931754D01*
X98645211Y-77102023D01*
X98730729Y-77238123D01*
X98741184Y-77254762D01*
X98868738Y-77382316D01*
X98935238Y-77424100D01*
X98981529Y-77476434D01*
X98992486Y-77542977D01*
X98984935Y-77609996D01*
X98984935Y-77610003D01*
X99005130Y-77789249D01*
X99005131Y-77789254D01*
X99064711Y-77959523D01*
X99117320Y-78043249D01*
X99160684Y-78112262D01*
X99288238Y-78239816D01*
X99358413Y-78283910D01*
X99440978Y-78335789D01*
X99548898Y-78373552D01*
X99605675Y-78414274D01*
X99631422Y-78479227D01*
X99617966Y-78547788D01*
X99573917Y-78595587D01*
X99503739Y-78639682D01*
X99376184Y-78767237D01*
X99280211Y-78919976D01*
X99220631Y-79090245D01*
X99220630Y-79090250D01*
X99200435Y-79269496D01*
X99200435Y-79269503D01*
X99220630Y-79448749D01*
X99220633Y-79448762D01*
X99280209Y-79619018D01*
X99280212Y-79619025D01*
X99295766Y-79643780D01*
X99314765Y-79711017D01*
X99295766Y-79775720D01*
X99280212Y-79800474D01*
X99280209Y-79800481D01*
X99220633Y-79970737D01*
X99220630Y-79970750D01*
X99200435Y-80149996D01*
X99200435Y-80150003D01*
X99220630Y-80329249D01*
X99220631Y-80329254D01*
X99280211Y-80499523D01*
X99343606Y-80600415D01*
X99376184Y-80652262D01*
X99503738Y-80779816D01*
X99528478Y-80795361D01*
X99653261Y-80873768D01*
X99656478Y-80875789D01*
X99745148Y-80906816D01*
X99833318Y-80937668D01*
X99832784Y-80939192D01*
X99886375Y-80969163D01*
X99911733Y-81009975D01*
X99912193Y-81009754D01*
X99914247Y-81014021D01*
X99914849Y-81014989D01*
X99915209Y-81016017D01*
X99915211Y-81016022D01*
X100011184Y-81168762D01*
X100138738Y-81296316D01*
X100195504Y-81331984D01*
X100291477Y-81392289D01*
X100335015Y-81407523D01*
X100369399Y-81419554D01*
X100426176Y-81460275D01*
X100451666Y-81522713D01*
X100456436Y-81565055D01*
X100456437Y-81565060D01*
X100516017Y-81735330D01*
X100597299Y-81864687D01*
X100616306Y-81930660D01*
X100616306Y-85871097D01*
X100614581Y-85886714D01*
X100614867Y-85886741D01*
X100614132Y-85894507D01*
X100616306Y-85963656D01*
X100616306Y-85993185D01*
X100616307Y-85993202D01*
X100617174Y-86000073D01*
X100617632Y-86005892D01*
X100619096Y-86052466D01*
X100619097Y-86052469D01*
X100624686Y-86071709D01*
X100628630Y-86090753D01*
X100631142Y-86110634D01*
X100640527Y-86134339D01*
X100648296Y-86153961D01*
X100650188Y-86159489D01*
X100663187Y-86204230D01*
X100673386Y-86221476D01*
X100681944Y-86238945D01*
X100689320Y-86257574D01*
X100716704Y-86295265D01*
X100719912Y-86300149D01*
X100743633Y-86340258D01*
X100743639Y-86340266D01*
X100757796Y-86354422D01*
X100770434Y-86369218D01*
X100782211Y-86385428D01*
X100782212Y-86385429D01*
X100818115Y-86415130D01*
X100822426Y-86419052D01*
X104351439Y-89948065D01*
X107751028Y-93347654D01*
X107784513Y-93408977D01*
X107779529Y-93478669D01*
X107750756Y-93523287D01*
X106141446Y-95122664D01*
X106080020Y-95155959D01*
X106010344Y-95150759D01*
X105966356Y-95122393D01*
X96093711Y-85249748D01*
X96060226Y-85188425D01*
X96058173Y-85175964D01*
X96052868Y-85128873D01*
X95993289Y-84958606D01*
X95990260Y-84953786D01*
X95897315Y-84805865D01*
X95769762Y-84678312D01*
X95617023Y-84582339D01*
X95446754Y-84522759D01*
X95446749Y-84522758D01*
X95267504Y-84502563D01*
X95267496Y-84502563D01*
X95088250Y-84522758D01*
X95088245Y-84522759D01*
X94917976Y-84582339D01*
X94765237Y-84678312D01*
X94637684Y-84805865D01*
X94541711Y-84958604D01*
X94482131Y-85128873D01*
X94482130Y-85128878D01*
X94461935Y-85308124D01*
X94461935Y-85308131D01*
X94482130Y-85487377D01*
X94482131Y-85487382D01*
X94541711Y-85657651D01*
X94615355Y-85774854D01*
X94637684Y-85810390D01*
X94765238Y-85937944D01*
X94853153Y-85993185D01*
X94873376Y-86005892D01*
X94917978Y-86033917D01*
X95088245Y-86093496D01*
X95135323Y-86098800D01*
X95199736Y-86125865D01*
X95209121Y-86134339D01*
X105078484Y-96003702D01*
X105111969Y-96065025D01*
X105106985Y-96134717D01*
X105078212Y-96179335D01*
X104633342Y-96621460D01*
X104571916Y-96654755D01*
X104502240Y-96649555D01*
X104458252Y-96621189D01*
X95696240Y-87859177D01*
X95662755Y-87797854D01*
X95660702Y-87785393D01*
X95655397Y-87738302D01*
X95595818Y-87568035D01*
X95499845Y-87415295D01*
X95372291Y-87287741D01*
X95338647Y-87266601D01*
X95219552Y-87191768D01*
X95049283Y-87132188D01*
X95049278Y-87132187D01*
X94870033Y-87111992D01*
X94870025Y-87111992D01*
X94690779Y-87132187D01*
X94690774Y-87132188D01*
X94520505Y-87191768D01*
X94367766Y-87287741D01*
X94240213Y-87415294D01*
X94144240Y-87568033D01*
X94084660Y-87738302D01*
X94084659Y-87738307D01*
X94064464Y-87917553D01*
X94064464Y-87917560D01*
X94084659Y-88096806D01*
X94084661Y-88096814D01*
X94113567Y-88179424D01*
X94117128Y-88249203D01*
X94082399Y-88309830D01*
X94020405Y-88342057D01*
X93955570Y-88337419D01*
X93911404Y-88321964D01*
X93911391Y-88321961D01*
X93756617Y-88304523D01*
X93692203Y-88277457D01*
X93652647Y-88219862D01*
X93646500Y-88181303D01*
X93646500Y-85774854D01*
X93665507Y-85708881D01*
X93746788Y-85579524D01*
X93806368Y-85409254D01*
X93806369Y-85409249D01*
X93826565Y-85230003D01*
X93826565Y-85229996D01*
X93806369Y-85050750D01*
X93806368Y-85050745D01*
X93746789Y-84880478D01*
X93650816Y-84727738D01*
X93523262Y-84600184D01*
X93476356Y-84570711D01*
X93370523Y-84504211D01*
X93200254Y-84444631D01*
X93200249Y-84444630D01*
X93021004Y-84424435D01*
X93020996Y-84424435D01*
X92841750Y-84444630D01*
X92841745Y-84444631D01*
X92671476Y-84504211D01*
X92518737Y-84600184D01*
X92473680Y-84645241D01*
X92412357Y-84678725D01*
X92342665Y-84673740D01*
X92298320Y-84645241D01*
X92253263Y-84600185D01*
X92253262Y-84600184D01*
X92100523Y-84504211D01*
X91930254Y-84444631D01*
X91930249Y-84444630D01*
X91751004Y-84424435D01*
X91750996Y-84424435D01*
X91571750Y-84444630D01*
X91571745Y-84444631D01*
X91401476Y-84504211D01*
X91248737Y-84600184D01*
X91121186Y-84727735D01*
X91116843Y-84733182D01*
X91115570Y-84732167D01*
X91069604Y-84772819D01*
X91003070Y-84783772D01*
X90898473Y-84771987D01*
X90898465Y-84771987D01*
X90719219Y-84792182D01*
X90719211Y-84792184D01*
X90596559Y-84835102D01*
X90526780Y-84838663D01*
X90466153Y-84803934D01*
X90433926Y-84741941D01*
X90435499Y-84687227D01*
X90437180Y-84680680D01*
X90443481Y-84662280D01*
X90451437Y-84643896D01*
X90458729Y-84597852D01*
X90459906Y-84592171D01*
X90471500Y-84547019D01*
X90471500Y-84526983D01*
X90473027Y-84507582D01*
X90473822Y-84502563D01*
X90476160Y-84487804D01*
X90471775Y-84441415D01*
X90471500Y-84435577D01*
X90471500Y-82128414D01*
X90473224Y-82112800D01*
X90472938Y-82112773D01*
X90473672Y-82105010D01*
X90471500Y-82035879D01*
X90471500Y-82006328D01*
X90471500Y-82006327D01*
X90470629Y-81999436D01*
X90470172Y-81993622D01*
X90468709Y-81947051D01*
X90468709Y-81947049D01*
X90463120Y-81927814D01*
X90459174Y-81908761D01*
X90456664Y-81888885D01*
X90439501Y-81845536D01*
X90437614Y-81840023D01*
X90424617Y-81795287D01*
X90424616Y-81795285D01*
X90414421Y-81778046D01*
X90405860Y-81760570D01*
X90398486Y-81741946D01*
X90398486Y-81741944D01*
X90388474Y-81728165D01*
X90371083Y-81704227D01*
X90367900Y-81699382D01*
X90344170Y-81659256D01*
X90344165Y-81659250D01*
X90330005Y-81645090D01*
X90317370Y-81630297D01*
X90305593Y-81614089D01*
X90269693Y-81584390D01*
X90265381Y-81580467D01*
X89740177Y-81055263D01*
X89706692Y-80993940D01*
X89711676Y-80924248D01*
X89740177Y-80879901D01*
X89783425Y-80836653D01*
X89840816Y-80779262D01*
X89936789Y-80626522D01*
X89996368Y-80456255D01*
X90001609Y-80409738D01*
X90016565Y-80277003D01*
X90016565Y-80276996D01*
X89996369Y-80097750D01*
X89996368Y-80097745D01*
X89959199Y-79991522D01*
X89936789Y-79927478D01*
X89931922Y-79919733D01*
X89897582Y-79865080D01*
X89840816Y-79774738D01*
X89713262Y-79647184D01*
X89707845Y-79643780D01*
X89560521Y-79551210D01*
X89390249Y-79491630D01*
X89343173Y-79486326D01*
X89278759Y-79459259D01*
X89269377Y-79450787D01*
X88585479Y-78766888D01*
X88551994Y-78705565D01*
X88549160Y-78679207D01*
X88549160Y-71079792D01*
X88568845Y-71012753D01*
X88585479Y-70992111D01*
X89108319Y-70469271D01*
X89169642Y-70435786D01*
X89239334Y-70440770D01*
X89295267Y-70482642D01*
X89319684Y-70548106D01*
X89320000Y-70556952D01*
X89320000Y-71350145D01*
X89300994Y-71416117D01*
X89219711Y-71545476D01*
X89160131Y-71715745D01*
X89160130Y-71715750D01*
X89139935Y-71894996D01*
X89139935Y-71895003D01*
X89160130Y-72074249D01*
X89160131Y-72074254D01*
X89219711Y-72244523D01*
X89310216Y-72388559D01*
X89315684Y-72397262D01*
X89443238Y-72524816D01*
X89533580Y-72581582D01*
X89569530Y-72604171D01*
X89595978Y-72620789D01*
X89766245Y-72680368D01*
X89766250Y-72680369D01*
X89945496Y-72700565D01*
X89945500Y-72700565D01*
X89945504Y-72700565D01*
X90124749Y-72680369D01*
X90124752Y-72680368D01*
X90124755Y-72680368D01*
X90295022Y-72620789D01*
X90447762Y-72524816D01*
X90575316Y-72397262D01*
X90671289Y-72244522D01*
X90730868Y-72074255D01*
X90732587Y-72058998D01*
X90751065Y-71895003D01*
X90751065Y-71894996D01*
X90730869Y-71715750D01*
X90730868Y-71715745D01*
X90703428Y-71637326D01*
X90671289Y-71545478D01*
X90631458Y-71482088D01*
X90590006Y-71416117D01*
X90571000Y-71350145D01*
X90571000Y-70200952D01*
X90590685Y-70133913D01*
X90607319Y-70113271D01*
X91338772Y-69381819D01*
X91400095Y-69348334D01*
X91426453Y-69345500D01*
X92161846Y-69345500D01*
X92228885Y-69365185D01*
G37*
%TD.AperFunction*%
%TA.AperFunction,Conductor*%
G36*
X90033257Y-85267846D02*
G01*
X90089190Y-85309718D01*
X90113607Y-85375182D01*
X90113143Y-85397911D01*
X90092904Y-85577547D01*
X90092904Y-85577555D01*
X90113099Y-85756801D01*
X90113100Y-85756806D01*
X90172680Y-85927076D01*
X90253962Y-86056433D01*
X90272969Y-86122406D01*
X90272969Y-87541718D01*
X90253284Y-87608757D01*
X90200480Y-87654512D01*
X90189923Y-87658760D01*
X90131478Y-87679210D01*
X89978737Y-87775184D01*
X89933680Y-87820241D01*
X89872357Y-87853725D01*
X89802665Y-87848740D01*
X89758320Y-87820241D01*
X89713263Y-87775185D01*
X89713262Y-87775184D01*
X89560523Y-87679211D01*
X89390254Y-87619631D01*
X89390249Y-87619630D01*
X89211004Y-87599435D01*
X89210996Y-87599435D01*
X89031750Y-87619630D01*
X89031745Y-87619631D01*
X88861476Y-87679211D01*
X88708737Y-87775184D01*
X88581184Y-87902737D01*
X88485211Y-88055476D01*
X88425631Y-88225745D01*
X88425630Y-88225750D01*
X88405435Y-88404996D01*
X88405435Y-88405003D01*
X88425630Y-88584249D01*
X88425631Y-88584254D01*
X88485211Y-88754524D01*
X88566493Y-88883881D01*
X88585500Y-88949854D01*
X88585500Y-91370255D01*
X88583775Y-91385872D01*
X88584061Y-91385899D01*
X88583326Y-91393665D01*
X88585500Y-91462814D01*
X88585500Y-91492343D01*
X88585501Y-91492360D01*
X88586368Y-91499231D01*
X88586826Y-91505050D01*
X88588290Y-91551624D01*
X88588291Y-91551627D01*
X88593880Y-91570867D01*
X88597824Y-91589911D01*
X88600336Y-91609791D01*
X88617490Y-91653119D01*
X88619382Y-91658647D01*
X88632381Y-91703388D01*
X88642580Y-91720634D01*
X88651138Y-91738103D01*
X88658514Y-91756732D01*
X88685898Y-91794423D01*
X88689106Y-91799307D01*
X88712827Y-91839416D01*
X88712833Y-91839424D01*
X88726990Y-91853580D01*
X88739628Y-91868376D01*
X88751405Y-91884586D01*
X88751406Y-91884587D01*
X88787309Y-91914288D01*
X88791620Y-91918210D01*
X91995803Y-95122393D01*
X92320844Y-95447434D01*
X92354329Y-95508757D01*
X92349345Y-95578449D01*
X92307473Y-95634382D01*
X92304287Y-95636690D01*
X92144598Y-95748505D01*
X92022673Y-95870430D01*
X91961350Y-95903914D01*
X91891658Y-95898930D01*
X91835725Y-95857058D01*
X91818810Y-95826081D01*
X91769797Y-95694671D01*
X91769793Y-95694664D01*
X91683547Y-95579455D01*
X91683544Y-95579452D01*
X91568335Y-95493206D01*
X91568328Y-95493202D01*
X91433482Y-95442908D01*
X91433483Y-95442908D01*
X91373883Y-95436501D01*
X91373881Y-95436500D01*
X91373873Y-95436500D01*
X91373864Y-95436500D01*
X89578129Y-95436500D01*
X89578123Y-95436501D01*
X89518516Y-95442908D01*
X89383671Y-95493202D01*
X89383664Y-95493206D01*
X89268455Y-95579452D01*
X89268452Y-95579455D01*
X89182206Y-95694664D01*
X89182202Y-95694671D01*
X89131908Y-95829517D01*
X89125501Y-95889116D01*
X89125500Y-95889135D01*
X89125500Y-96037500D01*
X89105815Y-96104539D01*
X89053011Y-96150294D01*
X89001500Y-96161500D01*
X88485855Y-96161500D01*
X88419883Y-96142494D01*
X88290521Y-96061210D01*
X88120249Y-96001630D01*
X88051616Y-95993897D01*
X87987202Y-95966830D01*
X87947647Y-95909235D01*
X87941500Y-95870677D01*
X87941500Y-87308452D01*
X87961185Y-87241413D01*
X87977819Y-87220771D01*
X88903325Y-86295265D01*
X89902244Y-85296345D01*
X89963565Y-85262862D01*
X90033257Y-85267846D01*
G37*
%TD.AperFunction*%
%TA.AperFunction,Conductor*%
G36*
X107427673Y-79914685D02*
G01*
X107448315Y-79931319D01*
X110947681Y-83430685D01*
X110981166Y-83492008D01*
X110984000Y-83518366D01*
X110984000Y-90258413D01*
X110964315Y-90325452D01*
X110947409Y-90346365D01*
X109831146Y-91455737D01*
X109769720Y-91489032D01*
X109700044Y-91483832D01*
X109656058Y-91455467D01*
X102832625Y-84632034D01*
X102799140Y-84570711D01*
X102796306Y-84544353D01*
X102796306Y-81083740D01*
X102798030Y-81068126D01*
X102797744Y-81068099D01*
X102798478Y-81060336D01*
X102796306Y-80991205D01*
X102796306Y-80961653D01*
X102796306Y-80961652D01*
X102795435Y-80954761D01*
X102794978Y-80948947D01*
X102794773Y-80942434D01*
X102793515Y-80902375D01*
X102792079Y-80897434D01*
X102787928Y-80883146D01*
X102783980Y-80864086D01*
X102781470Y-80844210D01*
X102764313Y-80800877D01*
X102762425Y-80795361D01*
X102749425Y-80750614D01*
X102739224Y-80733365D01*
X102730666Y-80715896D01*
X102723292Y-80697270D01*
X102723289Y-80697266D01*
X102723289Y-80697265D01*
X102695904Y-80659573D01*
X102692696Y-80654689D01*
X102668978Y-80614584D01*
X102668969Y-80614573D01*
X102654811Y-80600415D01*
X102642176Y-80585622D01*
X102630399Y-80569414D01*
X102594499Y-80539715D01*
X102590187Y-80535792D01*
X102161076Y-80106681D01*
X102127591Y-80045358D01*
X102132575Y-79975666D01*
X102174447Y-79919733D01*
X102239911Y-79895316D01*
X102248757Y-79895000D01*
X107360634Y-79895000D01*
X107427673Y-79914685D01*
G37*
%TD.AperFunction*%
%TA.AperFunction,Conductor*%
G36*
X110927039Y-67017685D02*
G01*
X110972794Y-67070489D01*
X110984000Y-67122000D01*
X110984000Y-67419000D01*
X110964315Y-67486039D01*
X110911511Y-67531794D01*
X110860000Y-67543000D01*
X90607237Y-67543000D01*
X90591620Y-67541276D01*
X90591593Y-67541562D01*
X90583831Y-67540827D01*
X90514703Y-67543000D01*
X90485150Y-67543000D01*
X90484429Y-67543090D01*
X90478257Y-67543869D01*
X90472445Y-67544326D01*
X90425873Y-67545790D01*
X90425872Y-67545790D01*
X90406629Y-67551381D01*
X90387579Y-67555325D01*
X90367711Y-67557834D01*
X90367709Y-67557835D01*
X90324384Y-67574988D01*
X90318857Y-67576880D01*
X90274110Y-67589881D01*
X90274109Y-67589882D01*
X90256867Y-67600079D01*
X90239399Y-67608637D01*
X90220769Y-67616013D01*
X90220767Y-67616014D01*
X90183076Y-67643398D01*
X90178194Y-67646605D01*
X90138079Y-67670330D01*
X90123908Y-67684500D01*
X90109123Y-67697128D01*
X90092912Y-67708907D01*
X90063209Y-67744810D01*
X90059277Y-67749131D01*
X87539868Y-70268539D01*
X87527611Y-70278360D01*
X87527794Y-70278581D01*
X87521783Y-70283553D01*
X87474432Y-70333976D01*
X87453549Y-70354859D01*
X87453537Y-70354872D01*
X87449281Y-70360357D01*
X87445497Y-70364787D01*
X87413597Y-70398758D01*
X87413596Y-70398760D01*
X87403944Y-70416316D01*
X87393270Y-70432566D01*
X87380989Y-70448401D01*
X87380984Y-70448408D01*
X87362475Y-70491178D01*
X87359905Y-70496424D01*
X87337463Y-70537246D01*
X87332482Y-70556647D01*
X87326181Y-70575050D01*
X87318222Y-70593442D01*
X87318221Y-70593445D01*
X87310931Y-70639467D01*
X87309747Y-70645186D01*
X87298161Y-70690312D01*
X87298160Y-70690322D01*
X87298160Y-70710356D01*
X87296633Y-70729755D01*
X87294694Y-70742000D01*
X87293500Y-70749536D01*
X87297475Y-70791588D01*
X87297885Y-70795923D01*
X87298160Y-70801761D01*
X87298160Y-78906915D01*
X87296435Y-78922532D01*
X87296721Y-78922559D01*
X87295986Y-78930325D01*
X87298160Y-78999474D01*
X87298160Y-79029003D01*
X87298161Y-79029020D01*
X87299028Y-79035891D01*
X87299486Y-79041710D01*
X87300950Y-79088284D01*
X87300951Y-79088287D01*
X87306540Y-79107527D01*
X87310484Y-79126571D01*
X87312148Y-79139737D01*
X87312996Y-79146451D01*
X87330150Y-79189779D01*
X87332042Y-79195307D01*
X87345041Y-79240048D01*
X87355240Y-79257294D01*
X87363798Y-79274763D01*
X87371174Y-79293392D01*
X87398558Y-79331083D01*
X87401766Y-79335967D01*
X87425487Y-79376076D01*
X87425493Y-79376084D01*
X87439650Y-79390240D01*
X87452287Y-79405035D01*
X87464066Y-79421247D01*
X87497326Y-79448762D01*
X87499969Y-79450948D01*
X87504280Y-79454870D01*
X87824147Y-79774737D01*
X88122144Y-80072734D01*
X88155629Y-80134057D01*
X88150645Y-80203749D01*
X88108773Y-80259682D01*
X88100436Y-80265408D01*
X88073740Y-80282182D01*
X88073737Y-80282184D01*
X87946184Y-80409737D01*
X87850210Y-80562478D01*
X87790630Y-80732750D01*
X87786181Y-80772239D01*
X87759114Y-80836653D01*
X87703918Y-80875395D01*
X87668160Y-80887907D01*
X87515423Y-80983879D01*
X87387870Y-81111432D01*
X87291897Y-81264171D01*
X87232317Y-81434440D01*
X87232316Y-81434445D01*
X87212121Y-81613691D01*
X87212121Y-81613698D01*
X87232316Y-81792944D01*
X87232317Y-81792949D01*
X87291897Y-81963218D01*
X87360034Y-82071656D01*
X87387870Y-82115957D01*
X87443544Y-82171631D01*
X87459636Y-82187723D01*
X87493120Y-82249047D01*
X87488135Y-82318738D01*
X87476948Y-82341375D01*
X87427563Y-82419970D01*
X87427561Y-82419975D01*
X87422980Y-82433066D01*
X87393621Y-82479787D01*
X85095181Y-84778228D01*
X85033858Y-84811713D01*
X84964166Y-84806729D01*
X84908233Y-84764857D01*
X84883816Y-84699393D01*
X84883500Y-84690547D01*
X84883500Y-82171631D01*
X84903185Y-82104592D01*
X84919819Y-82083950D01*
X85163746Y-81840023D01*
X85459380Y-81544388D01*
X85520701Y-81510905D01*
X85533158Y-81508853D01*
X85580255Y-81503547D01*
X85750522Y-81443968D01*
X85903262Y-81347995D01*
X86030816Y-81220441D01*
X86126789Y-81067701D01*
X86186368Y-80897434D01*
X86186369Y-80897428D01*
X86206565Y-80718182D01*
X86206565Y-80718175D01*
X86186369Y-80538929D01*
X86186368Y-80538924D01*
X86157441Y-80456255D01*
X86126789Y-80368657D01*
X86102030Y-80329254D01*
X86049757Y-80246061D01*
X86030757Y-80178824D01*
X86049757Y-80114117D01*
X86126789Y-79991522D01*
X86186368Y-79821255D01*
X86188709Y-79800478D01*
X86206565Y-79642003D01*
X86206565Y-79641996D01*
X86186369Y-79462750D01*
X86186368Y-79462745D01*
X86156044Y-79376084D01*
X86126789Y-79292478D01*
X86112348Y-79269496D01*
X86062259Y-79189779D01*
X86030816Y-79139738D01*
X85934509Y-79043431D01*
X85901024Y-78982108D01*
X85906008Y-78912416D01*
X85934509Y-78868069D01*
X86030816Y-78771762D01*
X86126789Y-78619022D01*
X86186368Y-78448755D01*
X86191831Y-78400272D01*
X86206565Y-78269503D01*
X86206565Y-78269496D01*
X86186369Y-78090250D01*
X86186368Y-78090245D01*
X86126788Y-77919976D01*
X86044650Y-77789255D01*
X86030816Y-77767238D01*
X85973509Y-77709931D01*
X85940024Y-77648608D01*
X85945008Y-77578916D01*
X85973509Y-77534569D01*
X85985962Y-77522116D01*
X86030816Y-77477262D01*
X86126789Y-77324522D01*
X86186368Y-77154255D01*
X86190751Y-77115354D01*
X86206565Y-76975003D01*
X86206565Y-76974996D01*
X86186369Y-76795750D01*
X86186368Y-76795745D01*
X86171236Y-76752500D01*
X86126789Y-76625478D01*
X86110615Y-76599738D01*
X86051277Y-76505302D01*
X86030816Y-76472738D01*
X85903262Y-76345184D01*
X85857819Y-76316630D01*
X85750523Y-76249211D01*
X85580254Y-76189631D01*
X85580249Y-76189630D01*
X85401004Y-76169435D01*
X85400996Y-76169435D01*
X85221750Y-76189630D01*
X85221745Y-76189631D01*
X85051476Y-76249211D01*
X84922117Y-76330494D01*
X84856145Y-76349500D01*
X83705737Y-76349500D01*
X83690065Y-76347770D01*
X83690038Y-76348057D01*
X83688270Y-76347889D01*
X83687175Y-76347451D01*
X83678692Y-76346515D01*
X83674723Y-76345628D01*
X83675370Y-76342731D01*
X83623393Y-76321951D01*
X83582839Y-76265056D01*
X83576000Y-76224445D01*
X83576000Y-76072000D01*
X82659686Y-76072000D01*
X82685493Y-76031844D01*
X82726000Y-75893889D01*
X82726000Y-75750111D01*
X82685493Y-75612156D01*
X82659686Y-75572000D01*
X83576000Y-75572000D01*
X83576000Y-74924172D01*
X83575999Y-74924155D01*
X83569598Y-74864627D01*
X83569596Y-74864620D01*
X83519354Y-74729913D01*
X83519350Y-74729906D01*
X83433190Y-74614812D01*
X83433187Y-74614809D01*
X83318093Y-74528649D01*
X83318088Y-74528646D01*
X83186528Y-74479577D01*
X83130595Y-74437705D01*
X83106178Y-74372241D01*
X83121030Y-74303968D01*
X83142175Y-74275720D01*
X83264495Y-74153401D01*
X83400035Y-73959830D01*
X83499903Y-73745663D01*
X83561063Y-73517408D01*
X83581659Y-73282000D01*
X83561063Y-73046592D01*
X83499903Y-72818337D01*
X83400035Y-72604171D01*
X83354306Y-72538862D01*
X83264494Y-72410597D01*
X83097402Y-72243506D01*
X83097396Y-72243501D01*
X82911842Y-72113575D01*
X82868217Y-72058998D01*
X82861023Y-71989500D01*
X82892546Y-71927145D01*
X82911842Y-71910425D01*
X82966947Y-71871840D01*
X83097401Y-71780495D01*
X83264495Y-71613401D01*
X83400035Y-71419830D01*
X83499903Y-71205663D01*
X83561063Y-70977408D01*
X83581659Y-70742000D01*
X83561063Y-70506592D01*
X83507344Y-70306108D01*
X83499905Y-70278344D01*
X83499904Y-70278343D01*
X83499903Y-70278337D01*
X83400035Y-70064171D01*
X83264495Y-69870599D01*
X83264494Y-69870597D01*
X83097402Y-69703506D01*
X83097396Y-69703501D01*
X82911842Y-69573575D01*
X82868217Y-69518998D01*
X82861023Y-69449500D01*
X82892546Y-69387145D01*
X82911842Y-69370425D01*
X82948782Y-69344559D01*
X83097401Y-69240495D01*
X83264495Y-69073401D01*
X83400035Y-68879830D01*
X83499903Y-68665663D01*
X83561063Y-68437408D01*
X83581659Y-68202000D01*
X83561063Y-67966592D01*
X83502795Y-67749131D01*
X83499905Y-67738344D01*
X83499904Y-67738343D01*
X83499903Y-67738337D01*
X83400035Y-67524171D01*
X83264495Y-67330599D01*
X83143575Y-67209679D01*
X83110092Y-67148359D01*
X83115076Y-67078667D01*
X83156947Y-67022733D01*
X83222411Y-66998316D01*
X83231258Y-66998000D01*
X110860000Y-66998000D01*
X110927039Y-67017685D01*
G37*
%TD.AperFunction*%
%TA.AperFunction,Conductor*%
G36*
X81287780Y-67017685D02*
G01*
X81333535Y-67070489D01*
X81343479Y-67139647D01*
X81314454Y-67203203D01*
X81308422Y-67209681D01*
X81187505Y-67330597D01*
X81051965Y-67524169D01*
X81051964Y-67524171D01*
X80952098Y-67738335D01*
X80952094Y-67738344D01*
X80890938Y-67966586D01*
X80890936Y-67966596D01*
X80870341Y-68201999D01*
X80870341Y-68202000D01*
X80890936Y-68437403D01*
X80890938Y-68437413D01*
X80952094Y-68665655D01*
X80952096Y-68665659D01*
X80952097Y-68665663D01*
X80995895Y-68759588D01*
X81051965Y-68879830D01*
X81051967Y-68879834D01*
X81187501Y-69073395D01*
X81187506Y-69073402D01*
X81354597Y-69240493D01*
X81354603Y-69240498D01*
X81540158Y-69370425D01*
X81583783Y-69425002D01*
X81590977Y-69494500D01*
X81559454Y-69556855D01*
X81540158Y-69573575D01*
X81354597Y-69703505D01*
X81187505Y-69870597D01*
X81051965Y-70064169D01*
X81051964Y-70064171D01*
X80972402Y-70234793D01*
X80952153Y-70278218D01*
X80952098Y-70278335D01*
X80952094Y-70278344D01*
X80890938Y-70506586D01*
X80890936Y-70506596D01*
X80870341Y-70741999D01*
X80870341Y-70742000D01*
X80890936Y-70977403D01*
X80890938Y-70977413D01*
X80952094Y-71205655D01*
X80952096Y-71205659D01*
X80952097Y-71205663D01*
X81019470Y-71350145D01*
X81051965Y-71419830D01*
X81051967Y-71419834D01*
X81187501Y-71613395D01*
X81187506Y-71613402D01*
X81354597Y-71780493D01*
X81354603Y-71780498D01*
X81540158Y-71910425D01*
X81583783Y-71965002D01*
X81590977Y-72034500D01*
X81559454Y-72096855D01*
X81540158Y-72113575D01*
X81354597Y-72243505D01*
X81187505Y-72410597D01*
X81051965Y-72604169D01*
X81051964Y-72604171D01*
X80952098Y-72818335D01*
X80952094Y-72818344D01*
X80890938Y-73046586D01*
X80890936Y-73046596D01*
X80870341Y-73281999D01*
X80870341Y-73282000D01*
X80890936Y-73517403D01*
X80890938Y-73517413D01*
X80952094Y-73745655D01*
X80952096Y-73745659D01*
X80952097Y-73745663D01*
X81018197Y-73887415D01*
X81051965Y-73959830D01*
X81051967Y-73959834D01*
X81138601Y-74083559D01*
X81187501Y-74153396D01*
X81187506Y-74153402D01*
X81309818Y-74275714D01*
X81343303Y-74337037D01*
X81338319Y-74406729D01*
X81296447Y-74462662D01*
X81265471Y-74479577D01*
X81133912Y-74528646D01*
X81133906Y-74528649D01*
X81018812Y-74614809D01*
X81018809Y-74614812D01*
X80932649Y-74729906D01*
X80932645Y-74729913D01*
X80882403Y-74864620D01*
X80882401Y-74864627D01*
X80876000Y-74924155D01*
X80876000Y-75572000D01*
X81792314Y-75572000D01*
X81766507Y-75612156D01*
X81726000Y-75750111D01*
X81726000Y-75893889D01*
X81766507Y-76031844D01*
X81792314Y-76072000D01*
X80876000Y-76072000D01*
X80876000Y-76719844D01*
X80882401Y-76779372D01*
X80882403Y-76779379D01*
X80932645Y-76914086D01*
X80932649Y-76914093D01*
X81018809Y-77029187D01*
X81018812Y-77029190D01*
X81133906Y-77115350D01*
X81133913Y-77115354D01*
X81268620Y-77165596D01*
X81268627Y-77165598D01*
X81328155Y-77171999D01*
X81328172Y-77172000D01*
X81976000Y-77172000D01*
X81976000Y-76257501D01*
X82083685Y-76306680D01*
X82190237Y-76322000D01*
X82261763Y-76322000D01*
X82368315Y-76306680D01*
X82476000Y-76257501D01*
X82476000Y-77186046D01*
X82456315Y-77253085D01*
X82439681Y-77273727D01*
X80198181Y-79515227D01*
X80136858Y-79548712D01*
X80067166Y-79543728D01*
X80011233Y-79501856D01*
X79986816Y-79436392D01*
X79986500Y-79427546D01*
X79986500Y-67122000D01*
X80006185Y-67054961D01*
X80058989Y-67009206D01*
X80110500Y-66998000D01*
X81220741Y-66998000D01*
X81287780Y-67017685D01*
G37*
%TD.AperFunction*%
%TA.AperFunction,Conductor*%
G36*
X110927039Y-73302185D02*
G01*
X110972794Y-73354989D01*
X110984000Y-73406500D01*
X110984000Y-73602500D01*
X110964315Y-73669539D01*
X110911511Y-73715294D01*
X110860000Y-73726500D01*
X95819495Y-73726500D01*
X95803878Y-73724776D01*
X95803851Y-73725062D01*
X95796089Y-73724327D01*
X95726961Y-73726500D01*
X95697408Y-73726500D01*
X95696687Y-73726590D01*
X95690515Y-73727369D01*
X95684703Y-73727826D01*
X95638131Y-73729290D01*
X95638130Y-73729290D01*
X95618887Y-73734881D01*
X95599837Y-73738825D01*
X95579969Y-73741334D01*
X95579967Y-73741335D01*
X95536642Y-73758488D01*
X95531115Y-73760380D01*
X95486368Y-73773381D01*
X95486367Y-73773382D01*
X95469125Y-73783579D01*
X95451657Y-73792137D01*
X95433027Y-73799513D01*
X95433025Y-73799514D01*
X95395334Y-73826898D01*
X95390452Y-73830105D01*
X95350337Y-73853830D01*
X95336166Y-73868000D01*
X95321381Y-73880628D01*
X95305170Y-73892407D01*
X95275467Y-73928310D01*
X95271535Y-73932631D01*
X93633046Y-75571119D01*
X93571723Y-75604604D01*
X93559251Y-75606658D01*
X93512176Y-75611962D01*
X93341904Y-75671542D01*
X93201472Y-75759782D01*
X93134235Y-75778782D01*
X93067400Y-75758414D01*
X93022186Y-75705146D01*
X93011500Y-75654788D01*
X93011500Y-74237452D01*
X93031185Y-74170413D01*
X93047819Y-74149771D01*
X93878772Y-73318819D01*
X93940095Y-73285334D01*
X93966453Y-73282500D01*
X110860000Y-73282500D01*
X110927039Y-73302185D01*
G37*
%TD.AperFunction*%
%TD*%
%TA.AperFunction,Conductor*%
%TO.N,+3V3*%
G36*
X115436203Y-111070239D02*
G01*
X115442667Y-111076258D01*
X116445658Y-112079249D01*
X117285197Y-112918788D01*
X117295022Y-112931051D01*
X117295243Y-112930869D01*
X117300211Y-112936874D01*
X117320160Y-112955608D01*
X117355555Y-113015849D01*
X117352762Y-113085663D01*
X117312668Y-113142884D01*
X117248003Y-113169345D01*
X117235276Y-113170000D01*
X115355000Y-113170000D01*
X115287961Y-113150315D01*
X115242206Y-113097511D01*
X115231000Y-113046000D01*
X115231000Y-111163952D01*
X115250685Y-111096913D01*
X115303489Y-111051158D01*
X115372647Y-111041214D01*
X115436203Y-111070239D01*
G37*
%TD.AperFunction*%
%TA.AperFunction,Conductor*%
G36*
X142193539Y-94139685D02*
G01*
X142239294Y-94192489D01*
X142250500Y-94244000D01*
X142250500Y-113046000D01*
X142230815Y-113113039D01*
X142178011Y-113158794D01*
X142126500Y-113170000D01*
X132940991Y-113170000D01*
X132873952Y-113150315D01*
X132828197Y-113097511D01*
X132818253Y-113028353D01*
X132845440Y-112966969D01*
X132847828Y-112964081D01*
X132852294Y-112958682D01*
X132856200Y-112954388D01*
X133084379Y-112726209D01*
X133145700Y-112692726D01*
X133158156Y-112690674D01*
X133205255Y-112685368D01*
X133375522Y-112625789D01*
X133528262Y-112529816D01*
X133655816Y-112402262D01*
X133751789Y-112249522D01*
X133811368Y-112079255D01*
X133831565Y-111900000D01*
X133811368Y-111720745D01*
X133751789Y-111550478D01*
X133751788Y-111550475D01*
X133722537Y-111503924D01*
X133703536Y-111436688D01*
X133723903Y-111369852D01*
X133739844Y-111350275D01*
X134231675Y-110858444D01*
X134292996Y-110824961D01*
X134305453Y-110822909D01*
X134352550Y-110817603D01*
X134522817Y-110758024D01*
X134577091Y-110723920D01*
X134644325Y-110704921D01*
X134711160Y-110725288D01*
X134756375Y-110778555D01*
X134762939Y-110802719D01*
X134764080Y-110802459D01*
X134765629Y-110809246D01*
X134825210Y-110979521D01*
X134870223Y-111051158D01*
X134921184Y-111132262D01*
X135048738Y-111259816D01*
X135139080Y-111316582D01*
X135192694Y-111350270D01*
X135201478Y-111355789D01*
X135241668Y-111369852D01*
X135371745Y-111415368D01*
X135371750Y-111415369D01*
X135550996Y-111435565D01*
X135551000Y-111435565D01*
X135551004Y-111435565D01*
X135730249Y-111415369D01*
X135730252Y-111415368D01*
X135730255Y-111415368D01*
X135900522Y-111355789D01*
X136053262Y-111259816D01*
X136180816Y-111132262D01*
X136276789Y-110979522D01*
X136336368Y-110809255D01*
X136336369Y-110809246D01*
X136356565Y-110630003D01*
X136356565Y-110629996D01*
X136336369Y-110450750D01*
X136336368Y-110450745D01*
X136312138Y-110381500D01*
X136276789Y-110280478D01*
X136180816Y-110127738D01*
X136053262Y-110000184D01*
X136045012Y-109995000D01*
X135900521Y-109904210D01*
X135730249Y-109844630D01*
X135683174Y-109839326D01*
X135618760Y-109812259D01*
X135609378Y-109803787D01*
X134781803Y-108976212D01*
X134771980Y-108963950D01*
X134771759Y-108964134D01*
X134766786Y-108958123D01*
X134716364Y-108910773D01*
X134705919Y-108900328D01*
X134695475Y-108889883D01*
X134689986Y-108885625D01*
X134685561Y-108881847D01*
X134651582Y-108849938D01*
X134651580Y-108849936D01*
X134651577Y-108849935D01*
X134634029Y-108840288D01*
X134617763Y-108829604D01*
X134601933Y-108817325D01*
X134559168Y-108798818D01*
X134553922Y-108796248D01*
X134513093Y-108773803D01*
X134513092Y-108773802D01*
X134493693Y-108768822D01*
X134475281Y-108762518D01*
X134456898Y-108754562D01*
X134456892Y-108754560D01*
X134410874Y-108747272D01*
X134405152Y-108746087D01*
X134360021Y-108734500D01*
X134360019Y-108734500D01*
X134339984Y-108734500D01*
X134320586Y-108732973D01*
X134313162Y-108731797D01*
X134300805Y-108729840D01*
X134300804Y-108729840D01*
X134254416Y-108734225D01*
X134248578Y-108734500D01*
X129745855Y-108734500D01*
X129679883Y-108715494D01*
X129550521Y-108634210D01*
X129450472Y-108599201D01*
X129432312Y-108592847D01*
X129375537Y-108552126D01*
X129356226Y-108516763D01*
X129306789Y-108375478D01*
X129210816Y-108222738D01*
X129083262Y-108095184D01*
X129059883Y-108080494D01*
X128930523Y-107999211D01*
X128760254Y-107939631D01*
X128760249Y-107939630D01*
X128581004Y-107919435D01*
X128580996Y-107919435D01*
X128401750Y-107939630D01*
X128401745Y-107939631D01*
X128231476Y-107999211D01*
X128102117Y-108080494D01*
X128036145Y-108099500D01*
X126351452Y-108099500D01*
X126284413Y-108079815D01*
X126263771Y-108063181D01*
X124040592Y-105840002D01*
X128135751Y-105840002D01*
X128154685Y-106008056D01*
X128210545Y-106167694D01*
X128210547Y-106167697D01*
X128300518Y-106310884D01*
X128300523Y-106310890D01*
X128420109Y-106430476D01*
X128420115Y-106430481D01*
X128563302Y-106520452D01*
X128563305Y-106520454D01*
X128563309Y-106520455D01*
X128563310Y-106520456D01*
X128607601Y-106535954D01*
X128722943Y-106576314D01*
X128890997Y-106595249D01*
X128891000Y-106595249D01*
X128891003Y-106595249D01*
X129059056Y-106576314D01*
X129059059Y-106576313D01*
X129218690Y-106520456D01*
X129218692Y-106520454D01*
X129218694Y-106520454D01*
X129218697Y-106520452D01*
X129361884Y-106430481D01*
X129361885Y-106430480D01*
X129361890Y-106430477D01*
X129453319Y-106339048D01*
X129514642Y-106305563D01*
X129584334Y-106310547D01*
X129628681Y-106339048D01*
X129720109Y-106430476D01*
X129720115Y-106430481D01*
X129863302Y-106520452D01*
X129863305Y-106520454D01*
X129863309Y-106520455D01*
X129863310Y-106520456D01*
X129907601Y-106535954D01*
X130022943Y-106576314D01*
X130190997Y-106595249D01*
X130191000Y-106595249D01*
X130191003Y-106595249D01*
X130359056Y-106576314D01*
X130359059Y-106576313D01*
X130518690Y-106520456D01*
X130518692Y-106520454D01*
X130518694Y-106520454D01*
X130518697Y-106520452D01*
X130661884Y-106430481D01*
X130661885Y-106430480D01*
X130661890Y-106430477D01*
X130753319Y-106339048D01*
X130814642Y-106305563D01*
X130884334Y-106310547D01*
X130928681Y-106339048D01*
X131020109Y-106430476D01*
X131020115Y-106430481D01*
X131163302Y-106520452D01*
X131163305Y-106520454D01*
X131163309Y-106520455D01*
X131163310Y-106520456D01*
X131207601Y-106535954D01*
X131322943Y-106576314D01*
X131490997Y-106595249D01*
X131491000Y-106595249D01*
X131491003Y-106595249D01*
X131659056Y-106576314D01*
X131659059Y-106576313D01*
X131818690Y-106520456D01*
X131818692Y-106520454D01*
X131818694Y-106520454D01*
X131818697Y-106520452D01*
X131961884Y-106430481D01*
X131961885Y-106430480D01*
X131961890Y-106430477D01*
X132053319Y-106339048D01*
X132114642Y-106305563D01*
X132184334Y-106310547D01*
X132228681Y-106339048D01*
X132320109Y-106430476D01*
X132320115Y-106430481D01*
X132463302Y-106520452D01*
X132463305Y-106520454D01*
X132463309Y-106520455D01*
X132463310Y-106520456D01*
X132507601Y-106535954D01*
X132622943Y-106576314D01*
X132790997Y-106595249D01*
X132791000Y-106595249D01*
X132791003Y-106595249D01*
X132959056Y-106576314D01*
X132959059Y-106576313D01*
X133118690Y-106520456D01*
X133118692Y-106520454D01*
X133118694Y-106520454D01*
X133118697Y-106520452D01*
X133261884Y-106430481D01*
X133261885Y-106430480D01*
X133261890Y-106430477D01*
X133353319Y-106339048D01*
X133414642Y-106305563D01*
X133484334Y-106310547D01*
X133528681Y-106339048D01*
X133620109Y-106430476D01*
X133620115Y-106430481D01*
X133763302Y-106520452D01*
X133763305Y-106520454D01*
X133763309Y-106520455D01*
X133763310Y-106520456D01*
X133807601Y-106535954D01*
X133922943Y-106576314D01*
X134090997Y-106595249D01*
X134091000Y-106595249D01*
X134091003Y-106595249D01*
X134259056Y-106576314D01*
X134259059Y-106576313D01*
X134418690Y-106520456D01*
X134418692Y-106520454D01*
X134418694Y-106520454D01*
X134418697Y-106520452D01*
X134561884Y-106430481D01*
X134561885Y-106430480D01*
X134561890Y-106430477D01*
X134653319Y-106339048D01*
X134714642Y-106305563D01*
X134784334Y-106310547D01*
X134828681Y-106339048D01*
X134920109Y-106430476D01*
X134920115Y-106430481D01*
X135063302Y-106520452D01*
X135063305Y-106520454D01*
X135063309Y-106520455D01*
X135063310Y-106520456D01*
X135107601Y-106535954D01*
X135222943Y-106576314D01*
X135390997Y-106595249D01*
X135391000Y-106595249D01*
X135391003Y-106595249D01*
X135559056Y-106576314D01*
X135559059Y-106576313D01*
X135718690Y-106520456D01*
X135718692Y-106520454D01*
X135718694Y-106520454D01*
X135718697Y-106520452D01*
X135861884Y-106430481D01*
X135861885Y-106430480D01*
X135861890Y-106430477D01*
X135953319Y-106339048D01*
X136014642Y-106305563D01*
X136084334Y-106310547D01*
X136128681Y-106339048D01*
X136220109Y-106430476D01*
X136220115Y-106430481D01*
X136363302Y-106520452D01*
X136363305Y-106520454D01*
X136363309Y-106520455D01*
X136363310Y-106520456D01*
X136407601Y-106535954D01*
X136522943Y-106576314D01*
X136690997Y-106595249D01*
X136690998Y-106595249D01*
X136690998Y-106595248D01*
X136691000Y-106595249D01*
X136692613Y-106595067D01*
X136693652Y-106595249D01*
X136697964Y-106595249D01*
X136697964Y-106596004D01*
X136761435Y-106607120D01*
X136812816Y-106654468D01*
X136830500Y-106718287D01*
X136830500Y-106849255D01*
X136828775Y-106864872D01*
X136829061Y-106864899D01*
X136828326Y-106872665D01*
X136830500Y-106941814D01*
X136830500Y-106971343D01*
X136830501Y-106971360D01*
X136831368Y-106978231D01*
X136831826Y-106984050D01*
X136833290Y-107030624D01*
X136833291Y-107030627D01*
X136838880Y-107049867D01*
X136842824Y-107068911D01*
X136845336Y-107088791D01*
X136862490Y-107132119D01*
X136864382Y-107137647D01*
X136877381Y-107182388D01*
X136887580Y-107199634D01*
X136896136Y-107217100D01*
X136903514Y-107235732D01*
X136915614Y-107252387D01*
X136930898Y-107273423D01*
X136934106Y-107278307D01*
X136957827Y-107318416D01*
X136957833Y-107318424D01*
X136971990Y-107332580D01*
X136984628Y-107347376D01*
X136996405Y-107363586D01*
X136996406Y-107363587D01*
X137032309Y-107393288D01*
X137036620Y-107397210D01*
X137952374Y-108312965D01*
X138210041Y-108570632D01*
X138229090Y-108595189D01*
X138242829Y-108618420D01*
X138242831Y-108618421D01*
X138256990Y-108632580D01*
X138269628Y-108647376D01*
X138281405Y-108663586D01*
X138281406Y-108663587D01*
X138317309Y-108693288D01*
X138321620Y-108697210D01*
X138506240Y-108881830D01*
X138655762Y-109031352D01*
X138689247Y-109092675D01*
X138687856Y-109151126D01*
X138660938Y-109251586D01*
X138660936Y-109251596D01*
X138640341Y-109486999D01*
X138640341Y-109487000D01*
X138660936Y-109722403D01*
X138660938Y-109722413D01*
X138722094Y-109950655D01*
X138722096Y-109950659D01*
X138722097Y-109950663D01*
X138804393Y-110127147D01*
X138821965Y-110164830D01*
X138821967Y-110164834D01*
X138917196Y-110300834D01*
X138957505Y-110358401D01*
X139124599Y-110525495D01*
X139221384Y-110593265D01*
X139318165Y-110661032D01*
X139318167Y-110661033D01*
X139318170Y-110661035D01*
X139532337Y-110760903D01*
X139760592Y-110822063D01*
X139948918Y-110838539D01*
X139995999Y-110842659D01*
X139996000Y-110842659D01*
X139996001Y-110842659D01*
X140035234Y-110839226D01*
X140231408Y-110822063D01*
X140459663Y-110760903D01*
X140673830Y-110661035D01*
X140867401Y-110525495D01*
X141034495Y-110358401D01*
X141170035Y-110164830D01*
X141269903Y-109950663D01*
X141331063Y-109722408D01*
X141351659Y-109487000D01*
X141331063Y-109251592D01*
X141269903Y-109023337D01*
X141170035Y-108809171D01*
X141160987Y-108796248D01*
X141034494Y-108615597D01*
X140867402Y-108448506D01*
X140867396Y-108448501D01*
X140681842Y-108318575D01*
X140638217Y-108263998D01*
X140631023Y-108194500D01*
X140662546Y-108132145D01*
X140681842Y-108115425D01*
X140756454Y-108063181D01*
X140867401Y-107985495D01*
X141034495Y-107818401D01*
X141170035Y-107624830D01*
X141269903Y-107410663D01*
X141331063Y-107182408D01*
X141351659Y-106947000D01*
X141331063Y-106711592D01*
X141269903Y-106483337D01*
X141170035Y-106269171D01*
X141132917Y-106216160D01*
X141034494Y-106075597D01*
X140867402Y-105908506D01*
X140867396Y-105908501D01*
X140681842Y-105778575D01*
X140638217Y-105723998D01*
X140631023Y-105654500D01*
X140662546Y-105592145D01*
X140681842Y-105575425D01*
X140771979Y-105512310D01*
X140867401Y-105445495D01*
X141034495Y-105278401D01*
X141170035Y-105084830D01*
X141269903Y-104870663D01*
X141331063Y-104642408D01*
X141351659Y-104407000D01*
X141331063Y-104171592D01*
X141269903Y-103943337D01*
X141170035Y-103729171D01*
X141159584Y-103714246D01*
X141034496Y-103535600D01*
X140981156Y-103482260D01*
X140912567Y-103413671D01*
X140879084Y-103352351D01*
X140884068Y-103282659D01*
X140925939Y-103226725D01*
X140956915Y-103209810D01*
X141088331Y-103160796D01*
X141203546Y-103074546D01*
X141289796Y-102959331D01*
X141340091Y-102824483D01*
X141346500Y-102764873D01*
X141346499Y-100969128D01*
X141340091Y-100909517D01*
X141306525Y-100819523D01*
X141289797Y-100774671D01*
X141289793Y-100774664D01*
X141203547Y-100659455D01*
X141203544Y-100659452D01*
X141088335Y-100573206D01*
X141088328Y-100573202D01*
X140953482Y-100522908D01*
X140953483Y-100522908D01*
X140893883Y-100516501D01*
X140893881Y-100516500D01*
X140893873Y-100516500D01*
X140893865Y-100516500D01*
X139606611Y-100516500D01*
X139539572Y-100496815D01*
X139518930Y-100480181D01*
X137854961Y-98816212D01*
X137845138Y-98803950D01*
X137844917Y-98804134D01*
X137839944Y-98798123D01*
X137789522Y-98750773D01*
X137779077Y-98740328D01*
X137768633Y-98729883D01*
X137763144Y-98725625D01*
X137758719Y-98721847D01*
X137724740Y-98689938D01*
X137724738Y-98689936D01*
X137724735Y-98689935D01*
X137707187Y-98680288D01*
X137690921Y-98669604D01*
X137675091Y-98657325D01*
X137632326Y-98638818D01*
X137627080Y-98636248D01*
X137586251Y-98613803D01*
X137586250Y-98613802D01*
X137566851Y-98608822D01*
X137548439Y-98602518D01*
X137530056Y-98594562D01*
X137530050Y-98594560D01*
X137484032Y-98587272D01*
X137478310Y-98586087D01*
X137433179Y-98574500D01*
X137433177Y-98574500D01*
X137413142Y-98574500D01*
X137393744Y-98572973D01*
X137386320Y-98571797D01*
X137373963Y-98569840D01*
X137373962Y-98569840D01*
X137327574Y-98574225D01*
X137321736Y-98574500D01*
X134825855Y-98574500D01*
X134759883Y-98555494D01*
X134630523Y-98474211D01*
X134460254Y-98414631D01*
X134460249Y-98414630D01*
X134281004Y-98394435D01*
X134280996Y-98394435D01*
X134101750Y-98414630D01*
X134101745Y-98414631D01*
X133931476Y-98474211D01*
X133778737Y-98570184D01*
X133733680Y-98615241D01*
X133672357Y-98648725D01*
X133602665Y-98643740D01*
X133558320Y-98615241D01*
X133513263Y-98570185D01*
X133513262Y-98570184D01*
X133360523Y-98474211D01*
X133190254Y-98414631D01*
X133190249Y-98414630D01*
X133011004Y-98394435D01*
X133010996Y-98394435D01*
X132831750Y-98414630D01*
X132831745Y-98414631D01*
X132661476Y-98474211D01*
X132508737Y-98570184D01*
X132381184Y-98697737D01*
X132285211Y-98850476D01*
X132225631Y-99020745D01*
X132225630Y-99020750D01*
X132216771Y-99099383D01*
X132189705Y-99163797D01*
X132132110Y-99203353D01*
X132093551Y-99209500D01*
X131650855Y-99209500D01*
X131584883Y-99190494D01*
X131455523Y-99109211D01*
X131285254Y-99049631D01*
X131285249Y-99049630D01*
X131106004Y-99029435D01*
X131105996Y-99029435D01*
X130926750Y-99049630D01*
X130926745Y-99049631D01*
X130756476Y-99109211D01*
X130603737Y-99205184D01*
X130476184Y-99332737D01*
X130380211Y-99485476D01*
X130320631Y-99655745D01*
X130320630Y-99655750D01*
X130300435Y-99834996D01*
X130300435Y-99835003D01*
X130320630Y-100014249D01*
X130320631Y-100014254D01*
X130380211Y-100184523D01*
X130476184Y-100337262D01*
X130603738Y-100464816D01*
X130756478Y-100560789D01*
X130791964Y-100573206D01*
X130926745Y-100620368D01*
X130926750Y-100620369D01*
X131105996Y-100640565D01*
X131106000Y-100640565D01*
X131106004Y-100640565D01*
X131285249Y-100620369D01*
X131285251Y-100620368D01*
X131285255Y-100620368D01*
X131285258Y-100620366D01*
X131285262Y-100620366D01*
X131431273Y-100569274D01*
X131501051Y-100565711D01*
X131561679Y-100600440D01*
X131589270Y-100645361D01*
X131590631Y-100649252D01*
X131590632Y-100649255D01*
X131617727Y-100726689D01*
X131650210Y-100819521D01*
X131706758Y-100909516D01*
X131746184Y-100972262D01*
X131873738Y-101099816D01*
X132026478Y-101195789D01*
X132196742Y-101255367D01*
X132196745Y-101255368D01*
X132196750Y-101255369D01*
X132375996Y-101275565D01*
X132376000Y-101275565D01*
X132376004Y-101275565D01*
X132555249Y-101255369D01*
X132555252Y-101255368D01*
X132555255Y-101255368D01*
X132725522Y-101195789D01*
X132754578Y-101177532D01*
X132782130Y-101160220D01*
X132849367Y-101141219D01*
X132916202Y-101161586D01*
X132935784Y-101177532D01*
X133247036Y-101488784D01*
X133256861Y-101501048D01*
X133257082Y-101500866D01*
X133262052Y-101506873D01*
X133262055Y-101506876D01*
X133262056Y-101506877D01*
X133312493Y-101554241D01*
X133333372Y-101575120D01*
X133338846Y-101579366D01*
X133343284Y-101583156D01*
X133377260Y-101615062D01*
X133377264Y-101615064D01*
X133394815Y-101624713D01*
X133411073Y-101635392D01*
X133426906Y-101647674D01*
X133448857Y-101657172D01*
X133469679Y-101666183D01*
X133474923Y-101668752D01*
X133515750Y-101691197D01*
X133535154Y-101696179D01*
X133553552Y-101702478D01*
X133571947Y-101710438D01*
X133617971Y-101717726D01*
X133623674Y-101718907D01*
X133668823Y-101730500D01*
X133688858Y-101730500D01*
X133708255Y-101732026D01*
X133728038Y-101735160D01*
X133774426Y-101730775D01*
X133780264Y-101730500D01*
X135875548Y-101730500D01*
X135942587Y-101750185D01*
X135963229Y-101766819D01*
X136514631Y-102318222D01*
X136548116Y-102379545D01*
X136543132Y-102449237D01*
X136501260Y-102505170D01*
X136467905Y-102522944D01*
X136463112Y-102524622D01*
X136363305Y-102559545D01*
X136363302Y-102559547D01*
X136220115Y-102649518D01*
X136220109Y-102649523D01*
X136128681Y-102740952D01*
X136067358Y-102774437D01*
X135997666Y-102769453D01*
X135953319Y-102740952D01*
X135861890Y-102649523D01*
X135861884Y-102649518D01*
X135718697Y-102559547D01*
X135718694Y-102559545D01*
X135559056Y-102503685D01*
X135391003Y-102484751D01*
X135390997Y-102484751D01*
X135222943Y-102503685D01*
X135063305Y-102559545D01*
X135063302Y-102559547D01*
X134920115Y-102649518D01*
X134920109Y-102649523D01*
X134828681Y-102740952D01*
X134767358Y-102774437D01*
X134697666Y-102769453D01*
X134653319Y-102740952D01*
X134561890Y-102649523D01*
X134561884Y-102649518D01*
X134418697Y-102559547D01*
X134418694Y-102559545D01*
X134259056Y-102503685D01*
X134091003Y-102484751D01*
X134090997Y-102484751D01*
X133922943Y-102503685D01*
X133763305Y-102559545D01*
X133763302Y-102559547D01*
X133620115Y-102649518D01*
X133620109Y-102649523D01*
X133528681Y-102740952D01*
X133467358Y-102774437D01*
X133397666Y-102769453D01*
X133353319Y-102740952D01*
X133261890Y-102649523D01*
X133261884Y-102649518D01*
X133118697Y-102559547D01*
X133118694Y-102559545D01*
X132959056Y-102503685D01*
X132791003Y-102484751D01*
X132790997Y-102484751D01*
X132622943Y-102503685D01*
X132463305Y-102559545D01*
X132463302Y-102559547D01*
X132320115Y-102649518D01*
X132320109Y-102649523D01*
X132228681Y-102740952D01*
X132167358Y-102774437D01*
X132097666Y-102769453D01*
X132053319Y-102740952D01*
X131961890Y-102649523D01*
X131961884Y-102649518D01*
X131818697Y-102559547D01*
X131818694Y-102559545D01*
X131659056Y-102503685D01*
X131491003Y-102484751D01*
X131490997Y-102484751D01*
X131322943Y-102503685D01*
X131163305Y-102559545D01*
X131163302Y-102559547D01*
X131020115Y-102649518D01*
X131020109Y-102649523D01*
X130928681Y-102740952D01*
X130867358Y-102774437D01*
X130797666Y-102769453D01*
X130753319Y-102740952D01*
X130661890Y-102649523D01*
X130661884Y-102649518D01*
X130518697Y-102559547D01*
X130518694Y-102559545D01*
X130359056Y-102503685D01*
X130191003Y-102484751D01*
X130190997Y-102484751D01*
X130022943Y-102503685D01*
X129863305Y-102559545D01*
X129863302Y-102559547D01*
X129720115Y-102649518D01*
X129720109Y-102649523D01*
X129628681Y-102740952D01*
X129567358Y-102774437D01*
X129497666Y-102769453D01*
X129453319Y-102740952D01*
X129361890Y-102649523D01*
X129361884Y-102649518D01*
X129218697Y-102559547D01*
X129218694Y-102559545D01*
X129059056Y-102503685D01*
X128891003Y-102484751D01*
X128890997Y-102484751D01*
X128722943Y-102503685D01*
X128563305Y-102559545D01*
X128563302Y-102559547D01*
X128420115Y-102649518D01*
X128420109Y-102649523D01*
X128300523Y-102769109D01*
X128300518Y-102769115D01*
X128210547Y-102912302D01*
X128210545Y-102912305D01*
X128154685Y-103071943D01*
X128135751Y-103239997D01*
X128135751Y-103240002D01*
X128154685Y-103408056D01*
X128210545Y-103567694D01*
X128210547Y-103567697D01*
X128300518Y-103710884D01*
X128300523Y-103710890D01*
X128391952Y-103802319D01*
X128425437Y-103863642D01*
X128420453Y-103933334D01*
X128391952Y-103977681D01*
X128300523Y-104069109D01*
X128300518Y-104069115D01*
X128210547Y-104212302D01*
X128210545Y-104212305D01*
X128154685Y-104371943D01*
X128135751Y-104539997D01*
X128135751Y-104540002D01*
X128154685Y-104708056D01*
X128210545Y-104867694D01*
X128210547Y-104867697D01*
X128300518Y-105010884D01*
X128300523Y-105010890D01*
X128391952Y-105102319D01*
X128425437Y-105163642D01*
X128420453Y-105233334D01*
X128391952Y-105277681D01*
X128300523Y-105369109D01*
X128300518Y-105369115D01*
X128210547Y-105512302D01*
X128210545Y-105512305D01*
X128154685Y-105671943D01*
X128135751Y-105839997D01*
X128135751Y-105840002D01*
X124040592Y-105840002D01*
X121951237Y-103750647D01*
X121917752Y-103689324D01*
X121922736Y-103619632D01*
X121964608Y-103563699D01*
X122030072Y-103539282D01*
X122038918Y-103538966D01*
X122237371Y-103538966D01*
X122237372Y-103538966D01*
X122296983Y-103532558D01*
X122431831Y-103482263D01*
X122547046Y-103396013D01*
X122633296Y-103280798D01*
X122683591Y-103145950D01*
X122687322Y-103111242D01*
X122714059Y-103046695D01*
X122771451Y-103006846D01*
X122810611Y-103000500D01*
X127213257Y-103000500D01*
X127228877Y-103002224D01*
X127228904Y-103001939D01*
X127236660Y-103002671D01*
X127236667Y-103002673D01*
X127305814Y-103000500D01*
X127335350Y-103000500D01*
X127342228Y-102999630D01*
X127348041Y-102999172D01*
X127394627Y-102997709D01*
X127413869Y-102992117D01*
X127432912Y-102988174D01*
X127452792Y-102985664D01*
X127496122Y-102968507D01*
X127501646Y-102966617D01*
X127519245Y-102961504D01*
X127546390Y-102953618D01*
X127563629Y-102943422D01*
X127581103Y-102934862D01*
X127599727Y-102927488D01*
X127599727Y-102927487D01*
X127599732Y-102927486D01*
X127637449Y-102900082D01*
X127642305Y-102896892D01*
X127682420Y-102873170D01*
X127696589Y-102858999D01*
X127711379Y-102846368D01*
X127727587Y-102834594D01*
X127757299Y-102798676D01*
X127761212Y-102794376D01*
X129259380Y-101296209D01*
X129320701Y-101262726D01*
X129333158Y-101260674D01*
X129380255Y-101255368D01*
X129550522Y-101195789D01*
X129703262Y-101099816D01*
X129830816Y-100972262D01*
X129926789Y-100819522D01*
X129986368Y-100649255D01*
X130006565Y-100470000D01*
X129999987Y-100411621D01*
X129986369Y-100290750D01*
X129986368Y-100290745D01*
X129926788Y-100120476D01*
X129887582Y-100058080D01*
X129830816Y-99967738D01*
X129703262Y-99840184D01*
X129550523Y-99744211D01*
X129380254Y-99684631D01*
X129380249Y-99684630D01*
X129201004Y-99664435D01*
X129200996Y-99664435D01*
X129021750Y-99684630D01*
X129021745Y-99684631D01*
X128851476Y-99744211D01*
X128698737Y-99840184D01*
X128571184Y-99967737D01*
X128475210Y-100120478D01*
X128415630Y-100290750D01*
X128410326Y-100337825D01*
X128383258Y-100402239D01*
X128374787Y-100411621D01*
X127073228Y-101713181D01*
X127011905Y-101746666D01*
X126985547Y-101749500D01*
X122782933Y-101749500D01*
X122715894Y-101729815D01*
X122670139Y-101677011D01*
X122666751Y-101668833D01*
X122633297Y-101579138D01*
X122633293Y-101579131D01*
X122547047Y-101463922D01*
X122547044Y-101463919D01*
X122431835Y-101377673D01*
X122431828Y-101377669D01*
X122296982Y-101327375D01*
X122296983Y-101327375D01*
X122237383Y-101320968D01*
X122237381Y-101320967D01*
X122237373Y-101320967D01*
X122237364Y-101320967D01*
X120924629Y-101320967D01*
X120924623Y-101320968D01*
X120865016Y-101327375D01*
X120730171Y-101377669D01*
X120730164Y-101377673D01*
X120614955Y-101463919D01*
X120614952Y-101463922D01*
X120528706Y-101579131D01*
X120528702Y-101579138D01*
X120478408Y-101713984D01*
X120472001Y-101773583D01*
X120472000Y-101773602D01*
X120472000Y-101972048D01*
X120452315Y-102039087D01*
X120399511Y-102084842D01*
X120330353Y-102094786D01*
X120266797Y-102065761D01*
X120260319Y-102059729D01*
X116648771Y-98448181D01*
X116615286Y-98386858D01*
X116620270Y-98317166D01*
X116662142Y-98261233D01*
X116727606Y-98236816D01*
X116736452Y-98236500D01*
X116871974Y-98236500D01*
X116871976Y-98236500D01*
X117072456Y-98199024D01*
X117262637Y-98125348D01*
X117436041Y-98017981D01*
X117586764Y-97880579D01*
X117709673Y-97717821D01*
X117800582Y-97535250D01*
X117856397Y-97339083D01*
X117875215Y-97136000D01*
X117860671Y-96979047D01*
X117856397Y-96932917D01*
X117840712Y-96877792D01*
X117800582Y-96736750D01*
X117709673Y-96554179D01*
X117586764Y-96391421D01*
X117586762Y-96391418D01*
X117436042Y-96254019D01*
X117424723Y-96247011D01*
X117415704Y-96241426D01*
X117369069Y-96189401D01*
X117363049Y-96152003D01*
X124092435Y-96152003D01*
X124112630Y-96331249D01*
X124112631Y-96331254D01*
X124172211Y-96501523D01*
X124268184Y-96654262D01*
X124395738Y-96781816D01*
X124548478Y-96877789D01*
X124548483Y-96877792D01*
X124554753Y-96880812D01*
X124553864Y-96882656D01*
X124589937Y-96905305D01*
X125186377Y-97501744D01*
X125635181Y-97950548D01*
X125668666Y-98011871D01*
X125671500Y-98038229D01*
X125671500Y-98900028D01*
X125664542Y-98940982D01*
X125636631Y-99020747D01*
X125616435Y-99199996D01*
X125616435Y-99200003D01*
X125636630Y-99379249D01*
X125636631Y-99379254D01*
X125696211Y-99549523D01*
X125768416Y-99664435D01*
X125792184Y-99702262D01*
X125919738Y-99829816D01*
X126072478Y-99925789D01*
X126242745Y-99985368D01*
X126242750Y-99985369D01*
X126421996Y-100005565D01*
X126422000Y-100005565D01*
X126422004Y-100005565D01*
X126601249Y-99985369D01*
X126601252Y-99985368D01*
X126601255Y-99985368D01*
X126771522Y-99925789D01*
X126924262Y-99829816D01*
X127051816Y-99702262D01*
X127147789Y-99549522D01*
X127207368Y-99379255D01*
X127212609Y-99332738D01*
X127227565Y-99200003D01*
X127227565Y-99199996D01*
X127210623Y-99049631D01*
X127207368Y-99020745D01*
X127179458Y-98940982D01*
X127172500Y-98900028D01*
X127172500Y-97739705D01*
X127173809Y-97721735D01*
X127177289Y-97697974D01*
X127172736Y-97645939D01*
X127172500Y-97640532D01*
X127172500Y-97632297D01*
X127172500Y-97632291D01*
X127168691Y-97599707D01*
X127161998Y-97523202D01*
X127161996Y-97523197D01*
X127160538Y-97516133D01*
X127160597Y-97516120D01*
X127158967Y-97508764D01*
X127158908Y-97508779D01*
X127157241Y-97501751D01*
X127157241Y-97501745D01*
X127130966Y-97429556D01*
X127106813Y-97356665D01*
X127106808Y-97356658D01*
X127103760Y-97350119D01*
X127103815Y-97350092D01*
X127100529Y-97343305D01*
X127100476Y-97343332D01*
X127097238Y-97336883D01*
X127055023Y-97272700D01*
X127014709Y-97207341D01*
X127010233Y-97201681D01*
X127010280Y-97201643D01*
X127005519Y-97195799D01*
X127005474Y-97195838D01*
X127000834Y-97190309D01*
X127000832Y-97190307D01*
X127000830Y-97190304D01*
X126964208Y-97155753D01*
X126944965Y-97137597D01*
X125651307Y-95843939D01*
X125628652Y-95807866D01*
X125626812Y-95808753D01*
X125623792Y-95802483D01*
X125527815Y-95649737D01*
X125400262Y-95522184D01*
X125247523Y-95426211D01*
X125077254Y-95366631D01*
X125077249Y-95366630D01*
X124898004Y-95346435D01*
X124897996Y-95346435D01*
X124718750Y-95366630D01*
X124718745Y-95366631D01*
X124548476Y-95426211D01*
X124395737Y-95522184D01*
X124268184Y-95649737D01*
X124172211Y-95802476D01*
X124112631Y-95972745D01*
X124112630Y-95972750D01*
X124092435Y-96151996D01*
X124092435Y-96152003D01*
X117363049Y-96152003D01*
X117357964Y-96120419D01*
X117385916Y-96056385D01*
X117415703Y-96030573D01*
X117436041Y-96017981D01*
X117586764Y-95880579D01*
X117709673Y-95717821D01*
X117800582Y-95535250D01*
X117856397Y-95339083D01*
X117875215Y-95136000D01*
X117856397Y-94932917D01*
X117800582Y-94736750D01*
X117709673Y-94554179D01*
X117586764Y-94391421D01*
X117525572Y-94335637D01*
X117489290Y-94275926D01*
X117491051Y-94206079D01*
X117530294Y-94148271D01*
X117594561Y-94120857D01*
X117609110Y-94120000D01*
X142126500Y-94120000D01*
X142193539Y-94139685D01*
G37*
%TD.AperFunction*%
%TD*%
%TA.AperFunction,Conductor*%
%TO.N,+3V3*%
G36*
X119081031Y-73819685D02*
G01*
X119126786Y-73872489D01*
X119136730Y-73941647D01*
X119107705Y-74005203D01*
X119097530Y-74015637D01*
X119001237Y-74103418D01*
X118878327Y-74266178D01*
X118787422Y-74448739D01*
X118787417Y-74448752D01*
X118731602Y-74644917D01*
X118712785Y-74847999D01*
X118712785Y-74848000D01*
X118731602Y-75051082D01*
X118787417Y-75247247D01*
X118787422Y-75247260D01*
X118878327Y-75429821D01*
X119001237Y-75592581D01*
X119130898Y-75710782D01*
X119151959Y-75729981D01*
X119172294Y-75742572D01*
X119172296Y-75742573D01*
X119218931Y-75794601D01*
X119230035Y-75863583D01*
X119202082Y-75927617D01*
X119172296Y-75953427D01*
X119151957Y-75966020D01*
X119001237Y-76103418D01*
X118878327Y-76266178D01*
X118787422Y-76448739D01*
X118787417Y-76448752D01*
X118731602Y-76644917D01*
X118712785Y-76847999D01*
X118712785Y-76848000D01*
X118731602Y-77051082D01*
X118787417Y-77247247D01*
X118787422Y-77247260D01*
X118878327Y-77429821D01*
X119001237Y-77592581D01*
X119151958Y-77729980D01*
X119151960Y-77729982D01*
X119251141Y-77791392D01*
X119325363Y-77837348D01*
X119515544Y-77911024D01*
X119716024Y-77948500D01*
X119716026Y-77948500D01*
X119919974Y-77948500D01*
X119919976Y-77948500D01*
X120120456Y-77911024D01*
X120310637Y-77837348D01*
X120484041Y-77729981D01*
X120634764Y-77592579D01*
X120757673Y-77429821D01*
X120848582Y-77247250D01*
X120904397Y-77051083D01*
X120923215Y-76848000D01*
X120904397Y-76644917D01*
X120848582Y-76448750D01*
X120844824Y-76441203D01*
X120761899Y-76274666D01*
X120757673Y-76266179D01*
X120638455Y-76108309D01*
X120634762Y-76103418D01*
X120484042Y-75966019D01*
X120471547Y-75958283D01*
X120463704Y-75953426D01*
X120417069Y-75901401D01*
X120405964Y-75832419D01*
X120433916Y-75768385D01*
X120463703Y-75742573D01*
X120484041Y-75729981D01*
X120534282Y-75684180D01*
X120634762Y-75592581D01*
X120686598Y-75523939D01*
X120757673Y-75429821D01*
X120848582Y-75247250D01*
X120904397Y-75051083D01*
X120923215Y-74848000D01*
X120904397Y-74644917D01*
X120848582Y-74448750D01*
X120757673Y-74266179D01*
X120634764Y-74103421D01*
X120634762Y-74103418D01*
X120538470Y-74015637D01*
X120502188Y-73955926D01*
X120503949Y-73886078D01*
X120543192Y-73828271D01*
X120607459Y-73800856D01*
X120622008Y-73800000D01*
X142126500Y-73800000D01*
X142193539Y-73819685D01*
X142239294Y-73872489D01*
X142250500Y-73924000D01*
X142250500Y-92726000D01*
X142230815Y-92793039D01*
X142178011Y-92838794D01*
X142126500Y-92850000D01*
X115370000Y-92850000D01*
X115302961Y-92830315D01*
X115257206Y-92777511D01*
X115246000Y-92726000D01*
X115246000Y-88028366D01*
X115265685Y-87961327D01*
X115318489Y-87915572D01*
X115387647Y-87905628D01*
X115451203Y-87934653D01*
X115457671Y-87940675D01*
X117562746Y-90045751D01*
X119607783Y-92090788D01*
X119617608Y-92103051D01*
X119617829Y-92102869D01*
X119622800Y-92108878D01*
X119648803Y-92133295D01*
X119673221Y-92156226D01*
X119694115Y-92177120D01*
X119699597Y-92181373D01*
X119704029Y-92185157D01*
X119738004Y-92217062D01*
X119755562Y-92226714D01*
X119771821Y-92237395D01*
X119787650Y-92249673D01*
X119830424Y-92268182D01*
X119835642Y-92270738D01*
X119876494Y-92293197D01*
X119895902Y-92298180D01*
X119914303Y-92304480D01*
X119932690Y-92312437D01*
X119976074Y-92319308D01*
X119978705Y-92319725D01*
X119984425Y-92320909D01*
X120029567Y-92332500D01*
X120049602Y-92332500D01*
X120069000Y-92334026D01*
X120088780Y-92337159D01*
X120088781Y-92337160D01*
X120088781Y-92337159D01*
X120088782Y-92337160D01*
X120135170Y-92332775D01*
X120141008Y-92332500D01*
X135128570Y-92332500D01*
X135194542Y-92351506D01*
X135216476Y-92365288D01*
X135216478Y-92365289D01*
X135386745Y-92424868D01*
X135386750Y-92424869D01*
X135565996Y-92445065D01*
X135566000Y-92445065D01*
X135566004Y-92445065D01*
X135745249Y-92424869D01*
X135745252Y-92424868D01*
X135745255Y-92424868D01*
X135915522Y-92365289D01*
X136068262Y-92269316D01*
X136195816Y-92141762D01*
X136291789Y-91989022D01*
X136351368Y-91818755D01*
X136351825Y-91814697D01*
X136352851Y-91812253D01*
X136352917Y-91811968D01*
X136352967Y-91811979D01*
X136378886Y-91750282D01*
X136434090Y-91711530D01*
X136550522Y-91670789D01*
X136703262Y-91574816D01*
X136830816Y-91447262D01*
X136926789Y-91294522D01*
X136986368Y-91124255D01*
X137006565Y-90945000D01*
X136986368Y-90765745D01*
X136926789Y-90595478D01*
X136830816Y-90442738D01*
X136703262Y-90315184D01*
X136550521Y-90219210D01*
X136380249Y-90159630D01*
X136333173Y-90154326D01*
X136268759Y-90127259D01*
X136259377Y-90118787D01*
X134796803Y-88656212D01*
X134786980Y-88643950D01*
X134786759Y-88644134D01*
X134781786Y-88638123D01*
X134731364Y-88590773D01*
X134720919Y-88580328D01*
X134710475Y-88569883D01*
X134704986Y-88565625D01*
X134700561Y-88561847D01*
X134666582Y-88529938D01*
X134666580Y-88529936D01*
X134666577Y-88529935D01*
X134649029Y-88520288D01*
X134632763Y-88509604D01*
X134616933Y-88497325D01*
X134574168Y-88478818D01*
X134568922Y-88476248D01*
X134528093Y-88453803D01*
X134528092Y-88453802D01*
X134508693Y-88448822D01*
X134490281Y-88442518D01*
X134471898Y-88434562D01*
X134471892Y-88434560D01*
X134425874Y-88427272D01*
X134420152Y-88426087D01*
X134375021Y-88414500D01*
X134375019Y-88414500D01*
X134354984Y-88414500D01*
X134335586Y-88412973D01*
X134328162Y-88411797D01*
X134315805Y-88409840D01*
X134315804Y-88409840D01*
X134269416Y-88414225D01*
X134263578Y-88414500D01*
X130395855Y-88414500D01*
X130329883Y-88395494D01*
X130200521Y-88314210D01*
X130041495Y-88258565D01*
X129984718Y-88217843D01*
X129965407Y-88182476D01*
X129941789Y-88114978D01*
X129941789Y-88114977D01*
X129845815Y-87962237D01*
X129718262Y-87834684D01*
X129565523Y-87738711D01*
X129395254Y-87679131D01*
X129395249Y-87679130D01*
X129216004Y-87658935D01*
X129215996Y-87658935D01*
X129036750Y-87679130D01*
X129036745Y-87679131D01*
X128866476Y-87738711D01*
X128737117Y-87819994D01*
X128671145Y-87839000D01*
X127229952Y-87839000D01*
X127162913Y-87819315D01*
X127142271Y-87802681D01*
X124974592Y-85635002D01*
X128740751Y-85635002D01*
X128759685Y-85803056D01*
X128815545Y-85962694D01*
X128815547Y-85962697D01*
X128905518Y-86105884D01*
X128905523Y-86105890D01*
X129025109Y-86225476D01*
X129025115Y-86225481D01*
X129168302Y-86315452D01*
X129168305Y-86315454D01*
X129168309Y-86315455D01*
X129168310Y-86315456D01*
X129226439Y-86335796D01*
X129327943Y-86371314D01*
X129495997Y-86390249D01*
X129496000Y-86390249D01*
X129496003Y-86390249D01*
X129664056Y-86371314D01*
X129691757Y-86361621D01*
X129823690Y-86315456D01*
X129823692Y-86315454D01*
X129823694Y-86315454D01*
X129823697Y-86315452D01*
X129966884Y-86225481D01*
X129966885Y-86225480D01*
X129966890Y-86225477D01*
X130058319Y-86134048D01*
X130119642Y-86100563D01*
X130189334Y-86105547D01*
X130233681Y-86134048D01*
X130325109Y-86225476D01*
X130325115Y-86225481D01*
X130468302Y-86315452D01*
X130468305Y-86315454D01*
X130468309Y-86315455D01*
X130468310Y-86315456D01*
X130526439Y-86335796D01*
X130627943Y-86371314D01*
X130795997Y-86390249D01*
X130796000Y-86390249D01*
X130796003Y-86390249D01*
X130964056Y-86371314D01*
X130991757Y-86361621D01*
X131123690Y-86315456D01*
X131123692Y-86315454D01*
X131123694Y-86315454D01*
X131123697Y-86315452D01*
X131266884Y-86225481D01*
X131266885Y-86225480D01*
X131266890Y-86225477D01*
X131358319Y-86134048D01*
X131419642Y-86100563D01*
X131489334Y-86105547D01*
X131533681Y-86134048D01*
X131625109Y-86225476D01*
X131625115Y-86225481D01*
X131768302Y-86315452D01*
X131768305Y-86315454D01*
X131768309Y-86315455D01*
X131768310Y-86315456D01*
X131826439Y-86335796D01*
X131927943Y-86371314D01*
X132095997Y-86390249D01*
X132096000Y-86390249D01*
X132096003Y-86390249D01*
X132264056Y-86371314D01*
X132291757Y-86361621D01*
X132423690Y-86315456D01*
X132423692Y-86315454D01*
X132423694Y-86315454D01*
X132423697Y-86315452D01*
X132566884Y-86225481D01*
X132566885Y-86225480D01*
X132566890Y-86225477D01*
X132658319Y-86134048D01*
X132719642Y-86100563D01*
X132789334Y-86105547D01*
X132833681Y-86134048D01*
X132925109Y-86225476D01*
X132925115Y-86225481D01*
X133068302Y-86315452D01*
X133068305Y-86315454D01*
X133068309Y-86315455D01*
X133068310Y-86315456D01*
X133126439Y-86335796D01*
X133227943Y-86371314D01*
X133395997Y-86390249D01*
X133396000Y-86390249D01*
X133396003Y-86390249D01*
X133564056Y-86371314D01*
X133591757Y-86361621D01*
X133723690Y-86315456D01*
X133723692Y-86315454D01*
X133723694Y-86315454D01*
X133723697Y-86315452D01*
X133866884Y-86225481D01*
X133866885Y-86225480D01*
X133866890Y-86225477D01*
X133958319Y-86134048D01*
X134019642Y-86100563D01*
X134089334Y-86105547D01*
X134133681Y-86134048D01*
X134225109Y-86225476D01*
X134225115Y-86225481D01*
X134368302Y-86315452D01*
X134368305Y-86315454D01*
X134368309Y-86315455D01*
X134368310Y-86315456D01*
X134426439Y-86335796D01*
X134527943Y-86371314D01*
X134695997Y-86390249D01*
X134696000Y-86390249D01*
X134696003Y-86390249D01*
X134864056Y-86371314D01*
X134891757Y-86361621D01*
X135023690Y-86315456D01*
X135023692Y-86315454D01*
X135023694Y-86315454D01*
X135023697Y-86315452D01*
X135166884Y-86225481D01*
X135166885Y-86225480D01*
X135166890Y-86225477D01*
X135258319Y-86134048D01*
X135319642Y-86100563D01*
X135389334Y-86105547D01*
X135433681Y-86134048D01*
X135525109Y-86225476D01*
X135525115Y-86225481D01*
X135668302Y-86315452D01*
X135668305Y-86315454D01*
X135668309Y-86315455D01*
X135668310Y-86315456D01*
X135726439Y-86335796D01*
X135827943Y-86371314D01*
X135995997Y-86390249D01*
X135996000Y-86390249D01*
X135996003Y-86390249D01*
X136164056Y-86371314D01*
X136191757Y-86361621D01*
X136323690Y-86315456D01*
X136323692Y-86315454D01*
X136323694Y-86315454D01*
X136323697Y-86315452D01*
X136466884Y-86225481D01*
X136466885Y-86225480D01*
X136466890Y-86225477D01*
X136558319Y-86134048D01*
X136619642Y-86100563D01*
X136689334Y-86105547D01*
X136733681Y-86134048D01*
X136825109Y-86225476D01*
X136825115Y-86225481D01*
X136968302Y-86315452D01*
X136968305Y-86315454D01*
X136968309Y-86315455D01*
X136968310Y-86315456D01*
X137026439Y-86335796D01*
X137127943Y-86371314D01*
X137295997Y-86390249D01*
X137296000Y-86390249D01*
X137296003Y-86390249D01*
X137464052Y-86371314D01*
X137464052Y-86371313D01*
X137464059Y-86371313D01*
X137491757Y-86361620D01*
X137561532Y-86358058D01*
X137620391Y-86390981D01*
X137621992Y-86392582D01*
X137634628Y-86407376D01*
X137646405Y-86423586D01*
X137646406Y-86423587D01*
X137682309Y-86453288D01*
X137686620Y-86457210D01*
X138516807Y-87287397D01*
X139305762Y-88076352D01*
X139339247Y-88137675D01*
X139337856Y-88196126D01*
X139310938Y-88296586D01*
X139310936Y-88296596D01*
X139290341Y-88531999D01*
X139290341Y-88532000D01*
X139310936Y-88767403D01*
X139310938Y-88767413D01*
X139372094Y-88995655D01*
X139372096Y-88995659D01*
X139372097Y-88995663D01*
X139424800Y-89108684D01*
X139471965Y-89209830D01*
X139471967Y-89209834D01*
X139538571Y-89304953D01*
X139607505Y-89403401D01*
X139774599Y-89570495D01*
X139816734Y-89599998D01*
X139968165Y-89706032D01*
X139968167Y-89706033D01*
X139968170Y-89706035D01*
X140182337Y-89805903D01*
X140410592Y-89867063D01*
X140598918Y-89883539D01*
X140645999Y-89887659D01*
X140646000Y-89887659D01*
X140646001Y-89887659D01*
X140685234Y-89884226D01*
X140881408Y-89867063D01*
X141109663Y-89805903D01*
X141323830Y-89706035D01*
X141517401Y-89570495D01*
X141684495Y-89403401D01*
X141820035Y-89209830D01*
X141919903Y-88995663D01*
X141981063Y-88767408D01*
X142001659Y-88532000D01*
X142001478Y-88529936D01*
X141992456Y-88426814D01*
X141981063Y-88296592D01*
X141919903Y-88068337D01*
X141820035Y-87854171D01*
X141809413Y-87839000D01*
X141684494Y-87660597D01*
X141517402Y-87493506D01*
X141517396Y-87493501D01*
X141331842Y-87363575D01*
X141288217Y-87308998D01*
X141281023Y-87239500D01*
X141312546Y-87177145D01*
X141331842Y-87160425D01*
X141354026Y-87144891D01*
X141517401Y-87030495D01*
X141684495Y-86863401D01*
X141820035Y-86669830D01*
X141919903Y-86455663D01*
X141981063Y-86227408D01*
X142001659Y-85992000D01*
X141981063Y-85756592D01*
X141919903Y-85528337D01*
X141820035Y-85314171D01*
X141815228Y-85307305D01*
X141684494Y-85120597D01*
X141517402Y-84953506D01*
X141517396Y-84953501D01*
X141331842Y-84823575D01*
X141288217Y-84768998D01*
X141281023Y-84699500D01*
X141312546Y-84637145D01*
X141331842Y-84620425D01*
X141354026Y-84604891D01*
X141517401Y-84490495D01*
X141684495Y-84323401D01*
X141820035Y-84129830D01*
X141919903Y-83915663D01*
X141981063Y-83687408D01*
X142001659Y-83452000D01*
X141981063Y-83216592D01*
X141919903Y-82988337D01*
X141820035Y-82774171D01*
X141756115Y-82682884D01*
X141684496Y-82580600D01*
X141630261Y-82526365D01*
X141562567Y-82458671D01*
X141529084Y-82397351D01*
X141534068Y-82327659D01*
X141575939Y-82271725D01*
X141606915Y-82254810D01*
X141738331Y-82205796D01*
X141853546Y-82119546D01*
X141939796Y-82004331D01*
X141990091Y-81869483D01*
X141996500Y-81809873D01*
X141996499Y-80014128D01*
X141990091Y-79954517D01*
X141956525Y-79864523D01*
X141939797Y-79819671D01*
X141939793Y-79819664D01*
X141853547Y-79704455D01*
X141853544Y-79704452D01*
X141738335Y-79618206D01*
X141738328Y-79618202D01*
X141603482Y-79567908D01*
X141603483Y-79567908D01*
X141543883Y-79561501D01*
X141543881Y-79561500D01*
X141543873Y-79561500D01*
X141543865Y-79561500D01*
X140231453Y-79561500D01*
X140164414Y-79541815D01*
X140143772Y-79525181D01*
X139114803Y-78496212D01*
X139104980Y-78483950D01*
X139104759Y-78484134D01*
X139099786Y-78478123D01*
X139049364Y-78430773D01*
X139038919Y-78420328D01*
X139028475Y-78409883D01*
X139022986Y-78405625D01*
X139018561Y-78401847D01*
X138984582Y-78369938D01*
X138984580Y-78369936D01*
X138984577Y-78369935D01*
X138967029Y-78360288D01*
X138950763Y-78349604D01*
X138934933Y-78337325D01*
X138892168Y-78318818D01*
X138886922Y-78316248D01*
X138846093Y-78293803D01*
X138846092Y-78293802D01*
X138826693Y-78288822D01*
X138808281Y-78282518D01*
X138789898Y-78274562D01*
X138789892Y-78274560D01*
X138743874Y-78267272D01*
X138738152Y-78266087D01*
X138693021Y-78254500D01*
X138693019Y-78254500D01*
X138672984Y-78254500D01*
X138653586Y-78252973D01*
X138646162Y-78251797D01*
X138633805Y-78249840D01*
X138633804Y-78249840D01*
X138587416Y-78254225D01*
X138581578Y-78254500D01*
X135475855Y-78254500D01*
X135409883Y-78235494D01*
X135280523Y-78154211D01*
X135110254Y-78094631D01*
X135110249Y-78094630D01*
X134931004Y-78074435D01*
X134930996Y-78074435D01*
X134751750Y-78094630D01*
X134751745Y-78094631D01*
X134581476Y-78154211D01*
X134428737Y-78250184D01*
X134383680Y-78295241D01*
X134322357Y-78328725D01*
X134252665Y-78323740D01*
X134208320Y-78295241D01*
X134163263Y-78250185D01*
X134163262Y-78250184D01*
X134010523Y-78154211D01*
X133840254Y-78094631D01*
X133840249Y-78094630D01*
X133661004Y-78074435D01*
X133660996Y-78074435D01*
X133481750Y-78094630D01*
X133481745Y-78094631D01*
X133311476Y-78154211D01*
X133158737Y-78250184D01*
X133031184Y-78377737D01*
X132935211Y-78530476D01*
X132875631Y-78700745D01*
X132875630Y-78700750D01*
X132866771Y-78779383D01*
X132839705Y-78843797D01*
X132782110Y-78883353D01*
X132743551Y-78889500D01*
X132300855Y-78889500D01*
X132234883Y-78870494D01*
X132105523Y-78789211D01*
X131935254Y-78729631D01*
X131935249Y-78729630D01*
X131756004Y-78709435D01*
X131755996Y-78709435D01*
X131576750Y-78729630D01*
X131576745Y-78729631D01*
X131406476Y-78789211D01*
X131253737Y-78885184D01*
X131126184Y-79012737D01*
X131030211Y-79165476D01*
X130970631Y-79335745D01*
X130970630Y-79335750D01*
X130950435Y-79514996D01*
X130950435Y-79515003D01*
X130970630Y-79694249D01*
X130970631Y-79694254D01*
X131030211Y-79864523D01*
X131110010Y-79991522D01*
X131126184Y-80017262D01*
X131253738Y-80144816D01*
X131406478Y-80240789D01*
X131495148Y-80271816D01*
X131576745Y-80300368D01*
X131576750Y-80300369D01*
X131755996Y-80320565D01*
X131756000Y-80320565D01*
X131756004Y-80320565D01*
X131935249Y-80300369D01*
X131935251Y-80300368D01*
X131935255Y-80300368D01*
X131935258Y-80300366D01*
X131935262Y-80300366D01*
X132081273Y-80249274D01*
X132151051Y-80245711D01*
X132211679Y-80280440D01*
X132239270Y-80325361D01*
X132240631Y-80329252D01*
X132240632Y-80329255D01*
X132267727Y-80406689D01*
X132300210Y-80499521D01*
X132326287Y-80541022D01*
X132396184Y-80652262D01*
X132523738Y-80779816D01*
X132676478Y-80875789D01*
X132795078Y-80917289D01*
X132846745Y-80935368D01*
X132846750Y-80935369D01*
X133025996Y-80955565D01*
X133026000Y-80955565D01*
X133026004Y-80955565D01*
X133205249Y-80935369D01*
X133205252Y-80935368D01*
X133205255Y-80935368D01*
X133375522Y-80875789D01*
X133404578Y-80857532D01*
X133432130Y-80840220D01*
X133499367Y-80821219D01*
X133566202Y-80841586D01*
X133585784Y-80857532D01*
X133897036Y-81168784D01*
X133906861Y-81181048D01*
X133907082Y-81180866D01*
X133912052Y-81186873D01*
X133912055Y-81186876D01*
X133912056Y-81186877D01*
X133962493Y-81234241D01*
X133983372Y-81255120D01*
X133988846Y-81259366D01*
X133993284Y-81263156D01*
X134027260Y-81295062D01*
X134027264Y-81295064D01*
X134044815Y-81304713D01*
X134061073Y-81315392D01*
X134076906Y-81327674D01*
X134098857Y-81337172D01*
X134119679Y-81346183D01*
X134124923Y-81348752D01*
X134165750Y-81371197D01*
X134185154Y-81376179D01*
X134203552Y-81382478D01*
X134221947Y-81390438D01*
X134267971Y-81397726D01*
X134273674Y-81398907D01*
X134318823Y-81410500D01*
X134338858Y-81410500D01*
X134358255Y-81412026D01*
X134378038Y-81415160D01*
X134424426Y-81410775D01*
X134430264Y-81410500D01*
X136525548Y-81410500D01*
X136592587Y-81430185D01*
X136613229Y-81446819D01*
X137248882Y-82082473D01*
X137282367Y-82143796D01*
X137277383Y-82213488D01*
X137235511Y-82269421D01*
X137175086Y-82293374D01*
X137127943Y-82298686D01*
X136968305Y-82354545D01*
X136968302Y-82354547D01*
X136825115Y-82444518D01*
X136825109Y-82444523D01*
X136733681Y-82535952D01*
X136672358Y-82569437D01*
X136602666Y-82564453D01*
X136558319Y-82535952D01*
X136466890Y-82444523D01*
X136466884Y-82444518D01*
X136323697Y-82354547D01*
X136323694Y-82354545D01*
X136164056Y-82298685D01*
X135996003Y-82279751D01*
X135995997Y-82279751D01*
X135827943Y-82298685D01*
X135668305Y-82354545D01*
X135668302Y-82354547D01*
X135525115Y-82444518D01*
X135525109Y-82444523D01*
X135433681Y-82535952D01*
X135372358Y-82569437D01*
X135302666Y-82564453D01*
X135258319Y-82535952D01*
X135166890Y-82444523D01*
X135166884Y-82444518D01*
X135023697Y-82354547D01*
X135023694Y-82354545D01*
X134864056Y-82298685D01*
X134696003Y-82279751D01*
X134695997Y-82279751D01*
X134527943Y-82298685D01*
X134368305Y-82354545D01*
X134368302Y-82354547D01*
X134225115Y-82444518D01*
X134225109Y-82444523D01*
X134133681Y-82535952D01*
X134072358Y-82569437D01*
X134002666Y-82564453D01*
X133958319Y-82535952D01*
X133866890Y-82444523D01*
X133866884Y-82444518D01*
X133723697Y-82354547D01*
X133723694Y-82354545D01*
X133564056Y-82298685D01*
X133396003Y-82279751D01*
X133395997Y-82279751D01*
X133227943Y-82298685D01*
X133068305Y-82354545D01*
X133068302Y-82354547D01*
X132925115Y-82444518D01*
X132925109Y-82444523D01*
X132833681Y-82535952D01*
X132772358Y-82569437D01*
X132702666Y-82564453D01*
X132658319Y-82535952D01*
X132566890Y-82444523D01*
X132566884Y-82444518D01*
X132423697Y-82354547D01*
X132423694Y-82354545D01*
X132264056Y-82298685D01*
X132096003Y-82279751D01*
X132095997Y-82279751D01*
X131927943Y-82298685D01*
X131768305Y-82354545D01*
X131768302Y-82354547D01*
X131625115Y-82444518D01*
X131625109Y-82444523D01*
X131533681Y-82535952D01*
X131472358Y-82569437D01*
X131402666Y-82564453D01*
X131358319Y-82535952D01*
X131266890Y-82444523D01*
X131266884Y-82444518D01*
X131123697Y-82354547D01*
X131123694Y-82354545D01*
X130964056Y-82298685D01*
X130796003Y-82279751D01*
X130795997Y-82279751D01*
X130627943Y-82298685D01*
X130468305Y-82354545D01*
X130468302Y-82354547D01*
X130325115Y-82444518D01*
X130325109Y-82444523D01*
X130233681Y-82535952D01*
X130172358Y-82569437D01*
X130102666Y-82564453D01*
X130058319Y-82535952D01*
X129966890Y-82444523D01*
X129966884Y-82444518D01*
X129823697Y-82354547D01*
X129823694Y-82354545D01*
X129664056Y-82298685D01*
X129496003Y-82279751D01*
X129495997Y-82279751D01*
X129327943Y-82298685D01*
X129168305Y-82354545D01*
X129168302Y-82354547D01*
X129025115Y-82444518D01*
X129025109Y-82444523D01*
X128905523Y-82564109D01*
X128905518Y-82564115D01*
X128815547Y-82707302D01*
X128815545Y-82707305D01*
X128759685Y-82866943D01*
X128740751Y-83034997D01*
X128740751Y-83035002D01*
X128759685Y-83203056D01*
X128815545Y-83362694D01*
X128815547Y-83362697D01*
X128905518Y-83505884D01*
X128905523Y-83505890D01*
X128996952Y-83597319D01*
X129030437Y-83658642D01*
X129025453Y-83728334D01*
X128996952Y-83772681D01*
X128905523Y-83864109D01*
X128905518Y-83864115D01*
X128815547Y-84007302D01*
X128815545Y-84007305D01*
X128759685Y-84166943D01*
X128740751Y-84334997D01*
X128740751Y-84335002D01*
X128759685Y-84503056D01*
X128815545Y-84662694D01*
X128815547Y-84662697D01*
X128905518Y-84805884D01*
X128905523Y-84805890D01*
X128996952Y-84897319D01*
X129030437Y-84958642D01*
X129025453Y-85028334D01*
X128996952Y-85072681D01*
X128905523Y-85164109D01*
X128905518Y-85164115D01*
X128815547Y-85307302D01*
X128815545Y-85307305D01*
X128759685Y-85466943D01*
X128740751Y-85634997D01*
X128740751Y-85635002D01*
X124974592Y-85635002D01*
X122715270Y-83375680D01*
X122681785Y-83314357D01*
X122686769Y-83244665D01*
X122728641Y-83188732D01*
X122794105Y-83164315D01*
X122802951Y-83163999D01*
X122887371Y-83163999D01*
X122887372Y-83163999D01*
X122946983Y-83157591D01*
X123081831Y-83107296D01*
X123197046Y-83021046D01*
X123283296Y-82905831D01*
X123333591Y-82770983D01*
X123333590Y-82770983D01*
X123336302Y-82763715D01*
X123338854Y-82764666D01*
X123366980Y-82715271D01*
X123428890Y-82682884D01*
X123453086Y-82680500D01*
X127895899Y-82680500D01*
X127911519Y-82682224D01*
X127911546Y-82681939D01*
X127919302Y-82682671D01*
X127919309Y-82682673D01*
X127988456Y-82680500D01*
X128017992Y-82680500D01*
X128024870Y-82679630D01*
X128030683Y-82679172D01*
X128077269Y-82677709D01*
X128096511Y-82672117D01*
X128115554Y-82668174D01*
X128135434Y-82665664D01*
X128178764Y-82648507D01*
X128184288Y-82646617D01*
X128188038Y-82645527D01*
X128229032Y-82633618D01*
X128246271Y-82623422D01*
X128263745Y-82614862D01*
X128282369Y-82607488D01*
X128282369Y-82607487D01*
X128282374Y-82607486D01*
X128320091Y-82580082D01*
X128324947Y-82576892D01*
X128365062Y-82553170D01*
X128379231Y-82538999D01*
X128394021Y-82526368D01*
X128410229Y-82514594D01*
X128439941Y-82478676D01*
X128443854Y-82474376D01*
X129900522Y-81017709D01*
X129961843Y-80984226D01*
X129974300Y-80982174D01*
X130021397Y-80976868D01*
X130191664Y-80917289D01*
X130344404Y-80821316D01*
X130471958Y-80693762D01*
X130567931Y-80541022D01*
X130627510Y-80370755D01*
X130627511Y-80370749D01*
X130647707Y-80191503D01*
X130647707Y-80191496D01*
X130627511Y-80012250D01*
X130627510Y-80012245D01*
X130567930Y-79841976D01*
X130481519Y-79704454D01*
X130471958Y-79689238D01*
X130344404Y-79561684D01*
X130312783Y-79541815D01*
X130191665Y-79465711D01*
X130021396Y-79406131D01*
X130021391Y-79406130D01*
X129842146Y-79385935D01*
X129842138Y-79385935D01*
X129662889Y-79406131D01*
X129623454Y-79419930D01*
X129553675Y-79423491D01*
X129493048Y-79388762D01*
X129460821Y-79326769D01*
X129458500Y-79302888D01*
X129458500Y-76657705D01*
X129459809Y-76639735D01*
X129460129Y-76637547D01*
X129463289Y-76615977D01*
X129458735Y-76563931D01*
X129458500Y-76558528D01*
X129458500Y-76550297D01*
X129458500Y-76550291D01*
X129454693Y-76517724D01*
X129449802Y-76461815D01*
X129447999Y-76441201D01*
X129446539Y-76434129D01*
X129446597Y-76434116D01*
X129444965Y-76426757D01*
X129444906Y-76426772D01*
X129443242Y-76419753D01*
X129443241Y-76419745D01*
X129416974Y-76347576D01*
X129392814Y-76274666D01*
X129392809Y-76274659D01*
X129389760Y-76268118D01*
X129389815Y-76268091D01*
X129386533Y-76261313D01*
X129386480Y-76261340D01*
X129383235Y-76254880D01*
X129341028Y-76190708D01*
X129300710Y-76125342D01*
X129296234Y-76119682D01*
X129296281Y-76119644D01*
X129291519Y-76113799D01*
X129291474Y-76113838D01*
X129286834Y-76108309D01*
X129286832Y-76108307D01*
X129286830Y-76108304D01*
X129256061Y-76079275D01*
X129230965Y-76055597D01*
X128699307Y-75523939D01*
X128676652Y-75487866D01*
X128674812Y-75488753D01*
X128671792Y-75482483D01*
X128575815Y-75329737D01*
X128448262Y-75202184D01*
X128295523Y-75106211D01*
X128125254Y-75046631D01*
X128125249Y-75046630D01*
X127946004Y-75026435D01*
X127945996Y-75026435D01*
X127766750Y-75046630D01*
X127766745Y-75046631D01*
X127596476Y-75106211D01*
X127443737Y-75202184D01*
X127316184Y-75329737D01*
X127220211Y-75482476D01*
X127160631Y-75652745D01*
X127160630Y-75652750D01*
X127140435Y-75831996D01*
X127140435Y-75832003D01*
X127160630Y-76011249D01*
X127160631Y-76011254D01*
X127220211Y-76181523D01*
X127274606Y-76268091D01*
X127316184Y-76334262D01*
X127443738Y-76461816D01*
X127596478Y-76557789D01*
X127596480Y-76557789D01*
X127596484Y-76557792D01*
X127602756Y-76560813D01*
X127601869Y-76562653D01*
X127637939Y-76585307D01*
X127921181Y-76868549D01*
X127954666Y-76929872D01*
X127957500Y-76956230D01*
X127957500Y-79342028D01*
X127950542Y-79382982D01*
X127922631Y-79462747D01*
X127902435Y-79641996D01*
X127902435Y-79642003D01*
X127922630Y-79821249D01*
X127922631Y-79821254D01*
X127982211Y-79991523D01*
X128043467Y-80089011D01*
X128078184Y-80144262D01*
X128205738Y-80271816D01*
X128358478Y-80367789D01*
X128472831Y-80407802D01*
X128485400Y-80412201D01*
X128542176Y-80452923D01*
X128567923Y-80517876D01*
X128554467Y-80586438D01*
X128532126Y-80616924D01*
X127755870Y-81393181D01*
X127694547Y-81426666D01*
X127668189Y-81429500D01*
X123453086Y-81429500D01*
X123386047Y-81409815D01*
X123340292Y-81357011D01*
X123336579Y-81346181D01*
X123336302Y-81346285D01*
X123283297Y-81204171D01*
X123283293Y-81204164D01*
X123197047Y-81088955D01*
X123197044Y-81088952D01*
X123081835Y-81002706D01*
X123081828Y-81002702D01*
X122946982Y-80952408D01*
X122946983Y-80952408D01*
X122887383Y-80946001D01*
X122887381Y-80946000D01*
X122887373Y-80946000D01*
X122887364Y-80946000D01*
X121574629Y-80946000D01*
X121574623Y-80946001D01*
X121515016Y-80952408D01*
X121380171Y-81002702D01*
X121380164Y-81002706D01*
X121264955Y-81088952D01*
X121264952Y-81088955D01*
X121178706Y-81204164D01*
X121178702Y-81204171D01*
X121128408Y-81339017D01*
X121122001Y-81398616D01*
X121122000Y-81398635D01*
X121122000Y-81483047D01*
X121102315Y-81550086D01*
X121049511Y-81595841D01*
X120980353Y-81605785D01*
X120916797Y-81576760D01*
X120910319Y-81570728D01*
X115282319Y-75942728D01*
X115248834Y-75881405D01*
X115246000Y-75855047D01*
X115246000Y-73924000D01*
X115265685Y-73856961D01*
X115318489Y-73811206D01*
X115370000Y-73800000D01*
X119013992Y-73800000D01*
X119081031Y-73819685D01*
G37*
%TD.AperFunction*%
%TD*%
M02*
