%TF.GenerationSoftware,KiCad,Pcbnew,7.0.9*%
%TF.CreationDate,2023-12-05T19:57:25+01:00*%
%TF.ProjectId,Doodle Drive,446f6f64-6c65-4204-9472-6976652e6b69,1.0V*%
%TF.SameCoordinates,Original*%
%TF.FileFunction,Legend,Bot*%
%TF.FilePolarity,Positive*%
%FSLAX46Y46*%
G04 Gerber Fmt 4.6, Leading zero omitted, Abs format (unit mm)*
G04 Created by KiCad (PCBNEW 7.0.9) date 2023-12-05 19:57:25*
%MOMM*%
%LPD*%
G01*
G04 APERTURE LIST*
%ADD10R,1.980000X3.960000*%
%ADD11O,1.980000X3.960000*%
%ADD12R,1.217000X1.217000*%
%ADD13C,1.217000*%
%ADD14C,1.200000*%
%ADD15R,1.600000X1.600000*%
%ADD16C,1.600000*%
%ADD17C,4.000000*%
%ADD18R,1.700000X1.700000*%
%ADD19O,1.700000X1.700000*%
G04 APERTURE END LIST*
%LPC*%
D10*
%TO.C,J3*%
X104226000Y-126935000D03*
D11*
X109226000Y-126935000D03*
%TD*%
D12*
%TO.C,RV6*%
X122231000Y-82055000D03*
D13*
X119691000Y-84595000D03*
X122231000Y-87135000D03*
%TD*%
D14*
%TO.C,C32*%
X119310000Y-115472000D03*
X119310000Y-117472000D03*
%TD*%
D15*
%TO.C,J1*%
X95363500Y-121532000D03*
D16*
X95363500Y-119032000D03*
X93363500Y-119032000D03*
X93363500Y-121532000D03*
D17*
X90503500Y-126282000D03*
X90503500Y-114282000D03*
%TD*%
D14*
%TO.C,C27*%
X116770000Y-95136000D03*
X116770000Y-97136000D03*
%TD*%
%TO.C,C22*%
X119818000Y-74848000D03*
X119818000Y-76848000D03*
%TD*%
D18*
%TO.C,J6*%
X90476000Y-96787000D03*
D19*
X93016000Y-96787000D03*
%TD*%
D18*
%TO.C,J9*%
X140646000Y-80912000D03*
D19*
X140646000Y-83452000D03*
X140646000Y-85992000D03*
X140646000Y-88532000D03*
%TD*%
D18*
%TO.C,J15*%
X140011000Y-121552000D03*
D19*
X140011000Y-124092000D03*
X140011000Y-126632000D03*
X140011000Y-129172000D03*
%TD*%
D12*
%TO.C,RV2*%
X121581000Y-102429967D03*
D13*
X119041000Y-104969967D03*
X121581000Y-107509967D03*
%TD*%
D18*
%TO.C,J8*%
X140646000Y-61227000D03*
D19*
X140646000Y-63767000D03*
X140646000Y-66307000D03*
X140646000Y-68847000D03*
%TD*%
D18*
%TO.C,J12*%
X139996000Y-101867000D03*
D19*
X139996000Y-104407000D03*
X139996000Y-106947000D03*
X139996000Y-109487000D03*
%TD*%
D12*
%TO.C,RV1*%
X122231000Y-61735000D03*
D13*
X119691000Y-64275000D03*
X122231000Y-66815000D03*
%TD*%
D14*
%TO.C,C18*%
X112706000Y-55512000D03*
X112706000Y-57512000D03*
%TD*%
D12*
%TO.C,RV3*%
X121596000Y-122695000D03*
D13*
X119056000Y-125235000D03*
X121596000Y-127775000D03*
%TD*%
D18*
%TO.C,J2*%
X82226000Y-75822000D03*
D19*
X82226000Y-73282000D03*
X82226000Y-70742000D03*
X82226000Y-68202000D03*
%TD*%
D12*
%TO.C,RV4*%
X99483000Y-107836000D03*
D13*
X102023000Y-105296000D03*
X99483000Y-102756000D03*
%TD*%
%LPD*%
M02*
