%TF.GenerationSoftware,KiCad,Pcbnew,8.0.2*%
%TF.CreationDate,2024-05-24T16:25:43+02:00*%
%TF.ProjectId,Doodle Drive,446f6f64-6c65-4204-9472-6976652e6b69,1.0V*%
%TF.SameCoordinates,Original*%
%TF.FileFunction,Paste,Top*%
%TF.FilePolarity,Positive*%
%FSLAX46Y46*%
G04 Gerber Fmt 4.6, Leading zero omitted, Abs format (unit mm)*
G04 Created by KiCad (PCBNEW 8.0.2) date 2024-05-24 16:25:43*
%MOMM*%
%LPD*%
G01*
G04 APERTURE LIST*
G04 Aperture macros list*
%AMRoundRect*
0 Rectangle with rounded corners*
0 $1 Rounding radius*
0 $2 $3 $4 $5 $6 $7 $8 $9 X,Y pos of 4 corners*
0 Add a 4 corners polygon primitive as box body*
4,1,4,$2,$3,$4,$5,$6,$7,$8,$9,$2,$3,0*
0 Add four circle primitives for the rounded corners*
1,1,$1+$1,$2,$3*
1,1,$1+$1,$4,$5*
1,1,$1+$1,$6,$7*
1,1,$1+$1,$8,$9*
0 Add four rect primitives between the rounded corners*
20,1,$1+$1,$2,$3,$4,$5,0*
20,1,$1+$1,$4,$5,$6,$7,0*
20,1,$1+$1,$6,$7,$8,$9,0*
20,1,$1+$1,$8,$9,$2,$3,0*%
G04 Aperture macros list end*
%ADD10C,0.010000*%
%ADD11RoundRect,0.250000X-0.250000X-0.475000X0.250000X-0.475000X0.250000X0.475000X-0.250000X0.475000X0*%
%ADD12RoundRect,0.059000X0.236000X0.626000X-0.236000X0.626000X-0.236000X-0.626000X0.236000X-0.626000X0*%
%ADD13RoundRect,0.250000X0.450000X-0.262500X0.450000X0.262500X-0.450000X0.262500X-0.450000X-0.262500X0*%
%ADD14RoundRect,0.218750X0.218750X0.381250X-0.218750X0.381250X-0.218750X-0.381250X0.218750X-0.381250X0*%
%ADD15RoundRect,0.250000X0.262500X0.450000X-0.262500X0.450000X-0.262500X-0.450000X0.262500X-0.450000X0*%
%ADD16RoundRect,0.243750X-0.456250X0.243750X-0.456250X-0.243750X0.456250X-0.243750X0.456250X0.243750X0*%
%ADD17RoundRect,0.250000X0.475000X-0.250000X0.475000X0.250000X-0.475000X0.250000X-0.475000X-0.250000X0*%
%ADD18RoundRect,0.250000X0.250000X0.475000X-0.250000X0.475000X-0.250000X-0.475000X0.250000X-0.475000X0*%
%ADD19RoundRect,0.250000X-0.312500X-0.625000X0.312500X-0.625000X0.312500X0.625000X-0.312500X0.625000X0*%
%ADD20RoundRect,0.250000X-0.450000X0.262500X-0.450000X-0.262500X0.450000X-0.262500X0.450000X0.262500X0*%
%ADD21RoundRect,0.140000X0.140000X0.170000X-0.140000X0.170000X-0.140000X-0.170000X0.140000X-0.170000X0*%
%ADD22RoundRect,0.140000X-0.170000X0.140000X-0.170000X-0.140000X0.170000X-0.140000X0.170000X0.140000X0*%
%ADD23RoundRect,0.250000X-0.262500X-0.450000X0.262500X-0.450000X0.262500X0.450000X-0.262500X0.450000X0*%
%ADD24RoundRect,0.243750X0.456250X-0.243750X0.456250X0.243750X-0.456250X0.243750X-0.456250X-0.243750X0*%
%ADD25RoundRect,0.250000X-0.475000X0.250000X-0.475000X-0.250000X0.475000X-0.250000X0.475000X0.250000X0*%
%ADD26R,1.000000X1.800000*%
%ADD27RoundRect,0.075000X0.075000X-0.700000X0.075000X0.700000X-0.075000X0.700000X-0.075000X-0.700000X0*%
%ADD28RoundRect,0.075000X0.700000X-0.075000X0.700000X0.075000X-0.700000X0.075000X-0.700000X-0.075000X0*%
%ADD29R,1.200000X1.400000*%
%ADD30RoundRect,0.140000X0.170000X-0.140000X0.170000X0.140000X-0.170000X0.140000X-0.170000X-0.140000X0*%
%ADD31R,0.300000X1.000000*%
%ADD32R,1.000000X0.300000*%
%ADD33R,3.400000X3.400000*%
G04 APERTURE END LIST*
D10*
%TO.C,DRV1*%
X65539000Y-94198000D02*
X63989000Y-94198000D01*
X63989000Y-93948000D01*
X65539000Y-93948000D01*
X65539000Y-94198000D01*
G36*
X65539000Y-94198000D02*
G01*
X63989000Y-94198000D01*
X63989000Y-93948000D01*
X65539000Y-93948000D01*
X65539000Y-94198000D01*
G37*
X65539000Y-94848000D02*
X63989000Y-94848000D01*
X63989000Y-94598000D01*
X65539000Y-94598000D01*
X65539000Y-94848000D01*
G36*
X65539000Y-94848000D02*
G01*
X63989000Y-94848000D01*
X63989000Y-94598000D01*
X65539000Y-94598000D01*
X65539000Y-94848000D01*
G37*
X65539000Y-95498000D02*
X63989000Y-95498000D01*
X63989000Y-95248000D01*
X65539000Y-95248000D01*
X65539000Y-95498000D01*
G36*
X65539000Y-95498000D02*
G01*
X63989000Y-95498000D01*
X63989000Y-95248000D01*
X65539000Y-95248000D01*
X65539000Y-95498000D01*
G37*
X65539000Y-96148000D02*
X63989000Y-96148000D01*
X63989000Y-95898000D01*
X65539000Y-95898000D01*
X65539000Y-96148000D01*
G36*
X65539000Y-96148000D02*
G01*
X63989000Y-96148000D01*
X63989000Y-95898000D01*
X65539000Y-95898000D01*
X65539000Y-96148000D01*
G37*
X65539000Y-96798000D02*
X63989000Y-96798000D01*
X63989000Y-96548000D01*
X65539000Y-96548000D01*
X65539000Y-96798000D01*
G36*
X65539000Y-96798000D02*
G01*
X63989000Y-96798000D01*
X63989000Y-96548000D01*
X65539000Y-96548000D01*
X65539000Y-96798000D01*
G37*
X65539000Y-97448000D02*
X63989000Y-97448000D01*
X63989000Y-97198000D01*
X65539000Y-97198000D01*
X65539000Y-97448000D01*
G36*
X65539000Y-97448000D02*
G01*
X63989000Y-97448000D01*
X63989000Y-97198000D01*
X65539000Y-97198000D01*
X65539000Y-97448000D01*
G37*
X65539000Y-98098000D02*
X63989000Y-98098000D01*
X63989000Y-97848000D01*
X65539000Y-97848000D01*
X65539000Y-98098000D01*
G36*
X65539000Y-98098000D02*
G01*
X63989000Y-98098000D01*
X63989000Y-97848000D01*
X65539000Y-97848000D01*
X65539000Y-98098000D01*
G37*
X65539000Y-98748000D02*
X63989000Y-98748000D01*
X63989000Y-98498000D01*
X65539000Y-98498000D01*
X65539000Y-98748000D01*
G36*
X65539000Y-98748000D02*
G01*
X63989000Y-98748000D01*
X63989000Y-98498000D01*
X65539000Y-98498000D01*
X65539000Y-98748000D01*
G37*
X65539000Y-99398000D02*
X63989000Y-99398000D01*
X63989000Y-99148000D01*
X65539000Y-99148000D01*
X65539000Y-99398000D01*
G36*
X65539000Y-99398000D02*
G01*
X63989000Y-99398000D01*
X63989000Y-99148000D01*
X65539000Y-99148000D01*
X65539000Y-99398000D01*
G37*
X65539000Y-100048000D02*
X63989000Y-100048000D01*
X63989000Y-99798000D01*
X65539000Y-99798000D01*
X65539000Y-100048000D01*
G36*
X65539000Y-100048000D02*
G01*
X63989000Y-100048000D01*
X63989000Y-99798000D01*
X65539000Y-99798000D01*
X65539000Y-100048000D01*
G37*
X65539000Y-100698000D02*
X63989000Y-100698000D01*
X63989000Y-100448000D01*
X65539000Y-100448000D01*
X65539000Y-100698000D01*
G36*
X65539000Y-100698000D02*
G01*
X63989000Y-100698000D01*
X63989000Y-100448000D01*
X65539000Y-100448000D01*
X65539000Y-100698000D01*
G37*
X65539000Y-101348000D02*
X63989000Y-101348000D01*
X63989000Y-101098000D01*
X65539000Y-101098000D01*
X65539000Y-101348000D01*
G36*
X65539000Y-101348000D02*
G01*
X63989000Y-101348000D01*
X63989000Y-101098000D01*
X65539000Y-101098000D01*
X65539000Y-101348000D01*
G37*
X65539000Y-101998000D02*
X63989000Y-101998000D01*
X63989000Y-101748000D01*
X65539000Y-101748000D01*
X65539000Y-101998000D01*
G36*
X65539000Y-101998000D02*
G01*
X63989000Y-101998000D01*
X63989000Y-101748000D01*
X65539000Y-101748000D01*
X65539000Y-101998000D01*
G37*
X65539000Y-102648000D02*
X63989000Y-102648000D01*
X63989000Y-102398000D01*
X65539000Y-102398000D01*
X65539000Y-102648000D01*
G36*
X65539000Y-102648000D02*
G01*
X63989000Y-102648000D01*
X63989000Y-102398000D01*
X65539000Y-102398000D01*
X65539000Y-102648000D01*
G37*
X68764000Y-101528000D02*
X66364000Y-101528000D01*
X66364000Y-95068000D01*
X68764000Y-95068000D01*
X68764000Y-101528000D01*
G36*
X68764000Y-101528000D02*
G01*
X66364000Y-101528000D01*
X66364000Y-95068000D01*
X68764000Y-95068000D01*
X68764000Y-101528000D01*
G37*
X71139000Y-94198000D02*
X69589000Y-94198000D01*
X69589000Y-93948000D01*
X71139000Y-93948000D01*
X71139000Y-94198000D01*
G36*
X71139000Y-94198000D02*
G01*
X69589000Y-94198000D01*
X69589000Y-93948000D01*
X71139000Y-93948000D01*
X71139000Y-94198000D01*
G37*
X71139000Y-94848000D02*
X69589000Y-94848000D01*
X69589000Y-94598000D01*
X71139000Y-94598000D01*
X71139000Y-94848000D01*
G36*
X71139000Y-94848000D02*
G01*
X69589000Y-94848000D01*
X69589000Y-94598000D01*
X71139000Y-94598000D01*
X71139000Y-94848000D01*
G37*
X71139000Y-95498000D02*
X69589000Y-95498000D01*
X69589000Y-95248000D01*
X71139000Y-95248000D01*
X71139000Y-95498000D01*
G36*
X71139000Y-95498000D02*
G01*
X69589000Y-95498000D01*
X69589000Y-95248000D01*
X71139000Y-95248000D01*
X71139000Y-95498000D01*
G37*
X71139000Y-96148000D02*
X69589000Y-96148000D01*
X69589000Y-95898000D01*
X71139000Y-95898000D01*
X71139000Y-96148000D01*
G36*
X71139000Y-96148000D02*
G01*
X69589000Y-96148000D01*
X69589000Y-95898000D01*
X71139000Y-95898000D01*
X71139000Y-96148000D01*
G37*
X71139000Y-96798000D02*
X69589000Y-96798000D01*
X69589000Y-96548000D01*
X71139000Y-96548000D01*
X71139000Y-96798000D01*
G36*
X71139000Y-96798000D02*
G01*
X69589000Y-96798000D01*
X69589000Y-96548000D01*
X71139000Y-96548000D01*
X71139000Y-96798000D01*
G37*
X71139000Y-97448000D02*
X69589000Y-97448000D01*
X69589000Y-97198000D01*
X71139000Y-97198000D01*
X71139000Y-97448000D01*
G36*
X71139000Y-97448000D02*
G01*
X69589000Y-97448000D01*
X69589000Y-97198000D01*
X71139000Y-97198000D01*
X71139000Y-97448000D01*
G37*
X71139000Y-98098000D02*
X69589000Y-98098000D01*
X69589000Y-97848000D01*
X71139000Y-97848000D01*
X71139000Y-98098000D01*
G36*
X71139000Y-98098000D02*
G01*
X69589000Y-98098000D01*
X69589000Y-97848000D01*
X71139000Y-97848000D01*
X71139000Y-98098000D01*
G37*
X71139000Y-98748000D02*
X69589000Y-98748000D01*
X69589000Y-98498000D01*
X71139000Y-98498000D01*
X71139000Y-98748000D01*
G36*
X71139000Y-98748000D02*
G01*
X69589000Y-98748000D01*
X69589000Y-98498000D01*
X71139000Y-98498000D01*
X71139000Y-98748000D01*
G37*
X71139000Y-99398000D02*
X69589000Y-99398000D01*
X69589000Y-99148000D01*
X71139000Y-99148000D01*
X71139000Y-99398000D01*
G36*
X71139000Y-99398000D02*
G01*
X69589000Y-99398000D01*
X69589000Y-99148000D01*
X71139000Y-99148000D01*
X71139000Y-99398000D01*
G37*
X71139000Y-100048000D02*
X69589000Y-100048000D01*
X69589000Y-99798000D01*
X71139000Y-99798000D01*
X71139000Y-100048000D01*
G36*
X71139000Y-100048000D02*
G01*
X69589000Y-100048000D01*
X69589000Y-99798000D01*
X71139000Y-99798000D01*
X71139000Y-100048000D01*
G37*
X71139000Y-100698000D02*
X69589000Y-100698000D01*
X69589000Y-100448000D01*
X71139000Y-100448000D01*
X71139000Y-100698000D01*
G36*
X71139000Y-100698000D02*
G01*
X69589000Y-100698000D01*
X69589000Y-100448000D01*
X71139000Y-100448000D01*
X71139000Y-100698000D01*
G37*
X71139000Y-101348000D02*
X69589000Y-101348000D01*
X69589000Y-101098000D01*
X71139000Y-101098000D01*
X71139000Y-101348000D01*
G36*
X71139000Y-101348000D02*
G01*
X69589000Y-101348000D01*
X69589000Y-101098000D01*
X71139000Y-101098000D01*
X71139000Y-101348000D01*
G37*
X71139000Y-101998000D02*
X69589000Y-101998000D01*
X69589000Y-101748000D01*
X71139000Y-101748000D01*
X71139000Y-101998000D01*
G36*
X71139000Y-101998000D02*
G01*
X69589000Y-101998000D01*
X69589000Y-101748000D01*
X71139000Y-101748000D01*
X71139000Y-101998000D01*
G37*
X71139000Y-102648000D02*
X69589000Y-102648000D01*
X69589000Y-102398000D01*
X71139000Y-102398000D01*
X71139000Y-102648000D01*
G36*
X71139000Y-102648000D02*
G01*
X69589000Y-102648000D01*
X69589000Y-102398000D01*
X71139000Y-102398000D01*
X71139000Y-102648000D01*
G37*
%TO.C,DRV2*%
X82049000Y-94198000D02*
X80499000Y-94198000D01*
X80499000Y-93948000D01*
X82049000Y-93948000D01*
X82049000Y-94198000D01*
G36*
X82049000Y-94198000D02*
G01*
X80499000Y-94198000D01*
X80499000Y-93948000D01*
X82049000Y-93948000D01*
X82049000Y-94198000D01*
G37*
X82049000Y-94848000D02*
X80499000Y-94848000D01*
X80499000Y-94598000D01*
X82049000Y-94598000D01*
X82049000Y-94848000D01*
G36*
X82049000Y-94848000D02*
G01*
X80499000Y-94848000D01*
X80499000Y-94598000D01*
X82049000Y-94598000D01*
X82049000Y-94848000D01*
G37*
X82049000Y-95498000D02*
X80499000Y-95498000D01*
X80499000Y-95248000D01*
X82049000Y-95248000D01*
X82049000Y-95498000D01*
G36*
X82049000Y-95498000D02*
G01*
X80499000Y-95498000D01*
X80499000Y-95248000D01*
X82049000Y-95248000D01*
X82049000Y-95498000D01*
G37*
X82049000Y-96148000D02*
X80499000Y-96148000D01*
X80499000Y-95898000D01*
X82049000Y-95898000D01*
X82049000Y-96148000D01*
G36*
X82049000Y-96148000D02*
G01*
X80499000Y-96148000D01*
X80499000Y-95898000D01*
X82049000Y-95898000D01*
X82049000Y-96148000D01*
G37*
X82049000Y-96798000D02*
X80499000Y-96798000D01*
X80499000Y-96548000D01*
X82049000Y-96548000D01*
X82049000Y-96798000D01*
G36*
X82049000Y-96798000D02*
G01*
X80499000Y-96798000D01*
X80499000Y-96548000D01*
X82049000Y-96548000D01*
X82049000Y-96798000D01*
G37*
X82049000Y-97448000D02*
X80499000Y-97448000D01*
X80499000Y-97198000D01*
X82049000Y-97198000D01*
X82049000Y-97448000D01*
G36*
X82049000Y-97448000D02*
G01*
X80499000Y-97448000D01*
X80499000Y-97198000D01*
X82049000Y-97198000D01*
X82049000Y-97448000D01*
G37*
X82049000Y-98098000D02*
X80499000Y-98098000D01*
X80499000Y-97848000D01*
X82049000Y-97848000D01*
X82049000Y-98098000D01*
G36*
X82049000Y-98098000D02*
G01*
X80499000Y-98098000D01*
X80499000Y-97848000D01*
X82049000Y-97848000D01*
X82049000Y-98098000D01*
G37*
X82049000Y-98748000D02*
X80499000Y-98748000D01*
X80499000Y-98498000D01*
X82049000Y-98498000D01*
X82049000Y-98748000D01*
G36*
X82049000Y-98748000D02*
G01*
X80499000Y-98748000D01*
X80499000Y-98498000D01*
X82049000Y-98498000D01*
X82049000Y-98748000D01*
G37*
X82049000Y-99398000D02*
X80499000Y-99398000D01*
X80499000Y-99148000D01*
X82049000Y-99148000D01*
X82049000Y-99398000D01*
G36*
X82049000Y-99398000D02*
G01*
X80499000Y-99398000D01*
X80499000Y-99148000D01*
X82049000Y-99148000D01*
X82049000Y-99398000D01*
G37*
X82049000Y-100048000D02*
X80499000Y-100048000D01*
X80499000Y-99798000D01*
X82049000Y-99798000D01*
X82049000Y-100048000D01*
G36*
X82049000Y-100048000D02*
G01*
X80499000Y-100048000D01*
X80499000Y-99798000D01*
X82049000Y-99798000D01*
X82049000Y-100048000D01*
G37*
X82049000Y-100698000D02*
X80499000Y-100698000D01*
X80499000Y-100448000D01*
X82049000Y-100448000D01*
X82049000Y-100698000D01*
G36*
X82049000Y-100698000D02*
G01*
X80499000Y-100698000D01*
X80499000Y-100448000D01*
X82049000Y-100448000D01*
X82049000Y-100698000D01*
G37*
X82049000Y-101348000D02*
X80499000Y-101348000D01*
X80499000Y-101098000D01*
X82049000Y-101098000D01*
X82049000Y-101348000D01*
G36*
X82049000Y-101348000D02*
G01*
X80499000Y-101348000D01*
X80499000Y-101098000D01*
X82049000Y-101098000D01*
X82049000Y-101348000D01*
G37*
X82049000Y-101998000D02*
X80499000Y-101998000D01*
X80499000Y-101748000D01*
X82049000Y-101748000D01*
X82049000Y-101998000D01*
G36*
X82049000Y-101998000D02*
G01*
X80499000Y-101998000D01*
X80499000Y-101748000D01*
X82049000Y-101748000D01*
X82049000Y-101998000D01*
G37*
X82049000Y-102648000D02*
X80499000Y-102648000D01*
X80499000Y-102398000D01*
X82049000Y-102398000D01*
X82049000Y-102648000D01*
G36*
X82049000Y-102648000D02*
G01*
X80499000Y-102648000D01*
X80499000Y-102398000D01*
X82049000Y-102398000D01*
X82049000Y-102648000D01*
G37*
X85274000Y-101528000D02*
X82874000Y-101528000D01*
X82874000Y-95068000D01*
X85274000Y-95068000D01*
X85274000Y-101528000D01*
G36*
X85274000Y-101528000D02*
G01*
X82874000Y-101528000D01*
X82874000Y-95068000D01*
X85274000Y-95068000D01*
X85274000Y-101528000D01*
G37*
X87649000Y-94198000D02*
X86099000Y-94198000D01*
X86099000Y-93948000D01*
X87649000Y-93948000D01*
X87649000Y-94198000D01*
G36*
X87649000Y-94198000D02*
G01*
X86099000Y-94198000D01*
X86099000Y-93948000D01*
X87649000Y-93948000D01*
X87649000Y-94198000D01*
G37*
X87649000Y-94848000D02*
X86099000Y-94848000D01*
X86099000Y-94598000D01*
X87649000Y-94598000D01*
X87649000Y-94848000D01*
G36*
X87649000Y-94848000D02*
G01*
X86099000Y-94848000D01*
X86099000Y-94598000D01*
X87649000Y-94598000D01*
X87649000Y-94848000D01*
G37*
X87649000Y-95498000D02*
X86099000Y-95498000D01*
X86099000Y-95248000D01*
X87649000Y-95248000D01*
X87649000Y-95498000D01*
G36*
X87649000Y-95498000D02*
G01*
X86099000Y-95498000D01*
X86099000Y-95248000D01*
X87649000Y-95248000D01*
X87649000Y-95498000D01*
G37*
X87649000Y-96148000D02*
X86099000Y-96148000D01*
X86099000Y-95898000D01*
X87649000Y-95898000D01*
X87649000Y-96148000D01*
G36*
X87649000Y-96148000D02*
G01*
X86099000Y-96148000D01*
X86099000Y-95898000D01*
X87649000Y-95898000D01*
X87649000Y-96148000D01*
G37*
X87649000Y-96798000D02*
X86099000Y-96798000D01*
X86099000Y-96548000D01*
X87649000Y-96548000D01*
X87649000Y-96798000D01*
G36*
X87649000Y-96798000D02*
G01*
X86099000Y-96798000D01*
X86099000Y-96548000D01*
X87649000Y-96548000D01*
X87649000Y-96798000D01*
G37*
X87649000Y-97448000D02*
X86099000Y-97448000D01*
X86099000Y-97198000D01*
X87649000Y-97198000D01*
X87649000Y-97448000D01*
G36*
X87649000Y-97448000D02*
G01*
X86099000Y-97448000D01*
X86099000Y-97198000D01*
X87649000Y-97198000D01*
X87649000Y-97448000D01*
G37*
X87649000Y-98098000D02*
X86099000Y-98098000D01*
X86099000Y-97848000D01*
X87649000Y-97848000D01*
X87649000Y-98098000D01*
G36*
X87649000Y-98098000D02*
G01*
X86099000Y-98098000D01*
X86099000Y-97848000D01*
X87649000Y-97848000D01*
X87649000Y-98098000D01*
G37*
X87649000Y-98748000D02*
X86099000Y-98748000D01*
X86099000Y-98498000D01*
X87649000Y-98498000D01*
X87649000Y-98748000D01*
G36*
X87649000Y-98748000D02*
G01*
X86099000Y-98748000D01*
X86099000Y-98498000D01*
X87649000Y-98498000D01*
X87649000Y-98748000D01*
G37*
X87649000Y-99398000D02*
X86099000Y-99398000D01*
X86099000Y-99148000D01*
X87649000Y-99148000D01*
X87649000Y-99398000D01*
G36*
X87649000Y-99398000D02*
G01*
X86099000Y-99398000D01*
X86099000Y-99148000D01*
X87649000Y-99148000D01*
X87649000Y-99398000D01*
G37*
X87649000Y-100048000D02*
X86099000Y-100048000D01*
X86099000Y-99798000D01*
X87649000Y-99798000D01*
X87649000Y-100048000D01*
G36*
X87649000Y-100048000D02*
G01*
X86099000Y-100048000D01*
X86099000Y-99798000D01*
X87649000Y-99798000D01*
X87649000Y-100048000D01*
G37*
X87649000Y-100698000D02*
X86099000Y-100698000D01*
X86099000Y-100448000D01*
X87649000Y-100448000D01*
X87649000Y-100698000D01*
G36*
X87649000Y-100698000D02*
G01*
X86099000Y-100698000D01*
X86099000Y-100448000D01*
X87649000Y-100448000D01*
X87649000Y-100698000D01*
G37*
X87649000Y-101348000D02*
X86099000Y-101348000D01*
X86099000Y-101098000D01*
X87649000Y-101098000D01*
X87649000Y-101348000D01*
G36*
X87649000Y-101348000D02*
G01*
X86099000Y-101348000D01*
X86099000Y-101098000D01*
X87649000Y-101098000D01*
X87649000Y-101348000D01*
G37*
X87649000Y-101998000D02*
X86099000Y-101998000D01*
X86099000Y-101748000D01*
X87649000Y-101748000D01*
X87649000Y-101998000D01*
G36*
X87649000Y-101998000D02*
G01*
X86099000Y-101998000D01*
X86099000Y-101748000D01*
X87649000Y-101748000D01*
X87649000Y-101998000D01*
G37*
X87649000Y-102648000D02*
X86099000Y-102648000D01*
X86099000Y-102398000D01*
X87649000Y-102398000D01*
X87649000Y-102648000D01*
G36*
X87649000Y-102648000D02*
G01*
X86099000Y-102648000D01*
X86099000Y-102398000D01*
X87649000Y-102398000D01*
X87649000Y-102648000D01*
G37*
%TO.C,DRV3*%
X98559000Y-94198000D02*
X97009000Y-94198000D01*
X97009000Y-93948000D01*
X98559000Y-93948000D01*
X98559000Y-94198000D01*
G36*
X98559000Y-94198000D02*
G01*
X97009000Y-94198000D01*
X97009000Y-93948000D01*
X98559000Y-93948000D01*
X98559000Y-94198000D01*
G37*
X98559000Y-94848000D02*
X97009000Y-94848000D01*
X97009000Y-94598000D01*
X98559000Y-94598000D01*
X98559000Y-94848000D01*
G36*
X98559000Y-94848000D02*
G01*
X97009000Y-94848000D01*
X97009000Y-94598000D01*
X98559000Y-94598000D01*
X98559000Y-94848000D01*
G37*
X98559000Y-95498000D02*
X97009000Y-95498000D01*
X97009000Y-95248000D01*
X98559000Y-95248000D01*
X98559000Y-95498000D01*
G36*
X98559000Y-95498000D02*
G01*
X97009000Y-95498000D01*
X97009000Y-95248000D01*
X98559000Y-95248000D01*
X98559000Y-95498000D01*
G37*
X98559000Y-96148000D02*
X97009000Y-96148000D01*
X97009000Y-95898000D01*
X98559000Y-95898000D01*
X98559000Y-96148000D01*
G36*
X98559000Y-96148000D02*
G01*
X97009000Y-96148000D01*
X97009000Y-95898000D01*
X98559000Y-95898000D01*
X98559000Y-96148000D01*
G37*
X98559000Y-96798000D02*
X97009000Y-96798000D01*
X97009000Y-96548000D01*
X98559000Y-96548000D01*
X98559000Y-96798000D01*
G36*
X98559000Y-96798000D02*
G01*
X97009000Y-96798000D01*
X97009000Y-96548000D01*
X98559000Y-96548000D01*
X98559000Y-96798000D01*
G37*
X98559000Y-97448000D02*
X97009000Y-97448000D01*
X97009000Y-97198000D01*
X98559000Y-97198000D01*
X98559000Y-97448000D01*
G36*
X98559000Y-97448000D02*
G01*
X97009000Y-97448000D01*
X97009000Y-97198000D01*
X98559000Y-97198000D01*
X98559000Y-97448000D01*
G37*
X98559000Y-98098000D02*
X97009000Y-98098000D01*
X97009000Y-97848000D01*
X98559000Y-97848000D01*
X98559000Y-98098000D01*
G36*
X98559000Y-98098000D02*
G01*
X97009000Y-98098000D01*
X97009000Y-97848000D01*
X98559000Y-97848000D01*
X98559000Y-98098000D01*
G37*
X98559000Y-98748000D02*
X97009000Y-98748000D01*
X97009000Y-98498000D01*
X98559000Y-98498000D01*
X98559000Y-98748000D01*
G36*
X98559000Y-98748000D02*
G01*
X97009000Y-98748000D01*
X97009000Y-98498000D01*
X98559000Y-98498000D01*
X98559000Y-98748000D01*
G37*
X98559000Y-99398000D02*
X97009000Y-99398000D01*
X97009000Y-99148000D01*
X98559000Y-99148000D01*
X98559000Y-99398000D01*
G36*
X98559000Y-99398000D02*
G01*
X97009000Y-99398000D01*
X97009000Y-99148000D01*
X98559000Y-99148000D01*
X98559000Y-99398000D01*
G37*
X98559000Y-100048000D02*
X97009000Y-100048000D01*
X97009000Y-99798000D01*
X98559000Y-99798000D01*
X98559000Y-100048000D01*
G36*
X98559000Y-100048000D02*
G01*
X97009000Y-100048000D01*
X97009000Y-99798000D01*
X98559000Y-99798000D01*
X98559000Y-100048000D01*
G37*
X98559000Y-100698000D02*
X97009000Y-100698000D01*
X97009000Y-100448000D01*
X98559000Y-100448000D01*
X98559000Y-100698000D01*
G36*
X98559000Y-100698000D02*
G01*
X97009000Y-100698000D01*
X97009000Y-100448000D01*
X98559000Y-100448000D01*
X98559000Y-100698000D01*
G37*
X98559000Y-101348000D02*
X97009000Y-101348000D01*
X97009000Y-101098000D01*
X98559000Y-101098000D01*
X98559000Y-101348000D01*
G36*
X98559000Y-101348000D02*
G01*
X97009000Y-101348000D01*
X97009000Y-101098000D01*
X98559000Y-101098000D01*
X98559000Y-101348000D01*
G37*
X98559000Y-101998000D02*
X97009000Y-101998000D01*
X97009000Y-101748000D01*
X98559000Y-101748000D01*
X98559000Y-101998000D01*
G36*
X98559000Y-101998000D02*
G01*
X97009000Y-101998000D01*
X97009000Y-101748000D01*
X98559000Y-101748000D01*
X98559000Y-101998000D01*
G37*
X98559000Y-102648000D02*
X97009000Y-102648000D01*
X97009000Y-102398000D01*
X98559000Y-102398000D01*
X98559000Y-102648000D01*
G36*
X98559000Y-102648000D02*
G01*
X97009000Y-102648000D01*
X97009000Y-102398000D01*
X98559000Y-102398000D01*
X98559000Y-102648000D01*
G37*
X101784000Y-101528000D02*
X99384000Y-101528000D01*
X99384000Y-95068000D01*
X101784000Y-95068000D01*
X101784000Y-101528000D01*
G36*
X101784000Y-101528000D02*
G01*
X99384000Y-101528000D01*
X99384000Y-95068000D01*
X101784000Y-95068000D01*
X101784000Y-101528000D01*
G37*
X104159000Y-94198000D02*
X102609000Y-94198000D01*
X102609000Y-93948000D01*
X104159000Y-93948000D01*
X104159000Y-94198000D01*
G36*
X104159000Y-94198000D02*
G01*
X102609000Y-94198000D01*
X102609000Y-93948000D01*
X104159000Y-93948000D01*
X104159000Y-94198000D01*
G37*
X104159000Y-94848000D02*
X102609000Y-94848000D01*
X102609000Y-94598000D01*
X104159000Y-94598000D01*
X104159000Y-94848000D01*
G36*
X104159000Y-94848000D02*
G01*
X102609000Y-94848000D01*
X102609000Y-94598000D01*
X104159000Y-94598000D01*
X104159000Y-94848000D01*
G37*
X104159000Y-95498000D02*
X102609000Y-95498000D01*
X102609000Y-95248000D01*
X104159000Y-95248000D01*
X104159000Y-95498000D01*
G36*
X104159000Y-95498000D02*
G01*
X102609000Y-95498000D01*
X102609000Y-95248000D01*
X104159000Y-95248000D01*
X104159000Y-95498000D01*
G37*
X104159000Y-96148000D02*
X102609000Y-96148000D01*
X102609000Y-95898000D01*
X104159000Y-95898000D01*
X104159000Y-96148000D01*
G36*
X104159000Y-96148000D02*
G01*
X102609000Y-96148000D01*
X102609000Y-95898000D01*
X104159000Y-95898000D01*
X104159000Y-96148000D01*
G37*
X104159000Y-96798000D02*
X102609000Y-96798000D01*
X102609000Y-96548000D01*
X104159000Y-96548000D01*
X104159000Y-96798000D01*
G36*
X104159000Y-96798000D02*
G01*
X102609000Y-96798000D01*
X102609000Y-96548000D01*
X104159000Y-96548000D01*
X104159000Y-96798000D01*
G37*
X104159000Y-97448000D02*
X102609000Y-97448000D01*
X102609000Y-97198000D01*
X104159000Y-97198000D01*
X104159000Y-97448000D01*
G36*
X104159000Y-97448000D02*
G01*
X102609000Y-97448000D01*
X102609000Y-97198000D01*
X104159000Y-97198000D01*
X104159000Y-97448000D01*
G37*
X104159000Y-98098000D02*
X102609000Y-98098000D01*
X102609000Y-97848000D01*
X104159000Y-97848000D01*
X104159000Y-98098000D01*
G36*
X104159000Y-98098000D02*
G01*
X102609000Y-98098000D01*
X102609000Y-97848000D01*
X104159000Y-97848000D01*
X104159000Y-98098000D01*
G37*
X104159000Y-98748000D02*
X102609000Y-98748000D01*
X102609000Y-98498000D01*
X104159000Y-98498000D01*
X104159000Y-98748000D01*
G36*
X104159000Y-98748000D02*
G01*
X102609000Y-98748000D01*
X102609000Y-98498000D01*
X104159000Y-98498000D01*
X104159000Y-98748000D01*
G37*
X104159000Y-99398000D02*
X102609000Y-99398000D01*
X102609000Y-99148000D01*
X104159000Y-99148000D01*
X104159000Y-99398000D01*
G36*
X104159000Y-99398000D02*
G01*
X102609000Y-99398000D01*
X102609000Y-99148000D01*
X104159000Y-99148000D01*
X104159000Y-99398000D01*
G37*
X104159000Y-100048000D02*
X102609000Y-100048000D01*
X102609000Y-99798000D01*
X104159000Y-99798000D01*
X104159000Y-100048000D01*
G36*
X104159000Y-100048000D02*
G01*
X102609000Y-100048000D01*
X102609000Y-99798000D01*
X104159000Y-99798000D01*
X104159000Y-100048000D01*
G37*
X104159000Y-100698000D02*
X102609000Y-100698000D01*
X102609000Y-100448000D01*
X104159000Y-100448000D01*
X104159000Y-100698000D01*
G36*
X104159000Y-100698000D02*
G01*
X102609000Y-100698000D01*
X102609000Y-100448000D01*
X104159000Y-100448000D01*
X104159000Y-100698000D01*
G37*
X104159000Y-101348000D02*
X102609000Y-101348000D01*
X102609000Y-101098000D01*
X104159000Y-101098000D01*
X104159000Y-101348000D01*
G36*
X104159000Y-101348000D02*
G01*
X102609000Y-101348000D01*
X102609000Y-101098000D01*
X104159000Y-101098000D01*
X104159000Y-101348000D01*
G37*
X104159000Y-101998000D02*
X102609000Y-101998000D01*
X102609000Y-101748000D01*
X104159000Y-101748000D01*
X104159000Y-101998000D01*
G36*
X104159000Y-101998000D02*
G01*
X102609000Y-101998000D01*
X102609000Y-101748000D01*
X104159000Y-101748000D01*
X104159000Y-101998000D01*
G37*
X104159000Y-102648000D02*
X102609000Y-102648000D01*
X102609000Y-102398000D01*
X104159000Y-102398000D01*
X104159000Y-102648000D01*
G36*
X104159000Y-102648000D02*
G01*
X102609000Y-102648000D01*
X102609000Y-102398000D01*
X104159000Y-102398000D01*
X104159000Y-102648000D01*
G37*
%TO.C,DRV4*%
X115083189Y-94198000D02*
X113533189Y-94198000D01*
X113533189Y-93948000D01*
X115083189Y-93948000D01*
X115083189Y-94198000D01*
G36*
X115083189Y-94198000D02*
G01*
X113533189Y-94198000D01*
X113533189Y-93948000D01*
X115083189Y-93948000D01*
X115083189Y-94198000D01*
G37*
X115083189Y-94848000D02*
X113533189Y-94848000D01*
X113533189Y-94598000D01*
X115083189Y-94598000D01*
X115083189Y-94848000D01*
G36*
X115083189Y-94848000D02*
G01*
X113533189Y-94848000D01*
X113533189Y-94598000D01*
X115083189Y-94598000D01*
X115083189Y-94848000D01*
G37*
X115083189Y-95498000D02*
X113533189Y-95498000D01*
X113533189Y-95248000D01*
X115083189Y-95248000D01*
X115083189Y-95498000D01*
G36*
X115083189Y-95498000D02*
G01*
X113533189Y-95498000D01*
X113533189Y-95248000D01*
X115083189Y-95248000D01*
X115083189Y-95498000D01*
G37*
X115083189Y-96148000D02*
X113533189Y-96148000D01*
X113533189Y-95898000D01*
X115083189Y-95898000D01*
X115083189Y-96148000D01*
G36*
X115083189Y-96148000D02*
G01*
X113533189Y-96148000D01*
X113533189Y-95898000D01*
X115083189Y-95898000D01*
X115083189Y-96148000D01*
G37*
X115083189Y-96798000D02*
X113533189Y-96798000D01*
X113533189Y-96548000D01*
X115083189Y-96548000D01*
X115083189Y-96798000D01*
G36*
X115083189Y-96798000D02*
G01*
X113533189Y-96798000D01*
X113533189Y-96548000D01*
X115083189Y-96548000D01*
X115083189Y-96798000D01*
G37*
X115083189Y-97448000D02*
X113533189Y-97448000D01*
X113533189Y-97198000D01*
X115083189Y-97198000D01*
X115083189Y-97448000D01*
G36*
X115083189Y-97448000D02*
G01*
X113533189Y-97448000D01*
X113533189Y-97198000D01*
X115083189Y-97198000D01*
X115083189Y-97448000D01*
G37*
X115083189Y-98098000D02*
X113533189Y-98098000D01*
X113533189Y-97848000D01*
X115083189Y-97848000D01*
X115083189Y-98098000D01*
G36*
X115083189Y-98098000D02*
G01*
X113533189Y-98098000D01*
X113533189Y-97848000D01*
X115083189Y-97848000D01*
X115083189Y-98098000D01*
G37*
X115083189Y-98748000D02*
X113533189Y-98748000D01*
X113533189Y-98498000D01*
X115083189Y-98498000D01*
X115083189Y-98748000D01*
G36*
X115083189Y-98748000D02*
G01*
X113533189Y-98748000D01*
X113533189Y-98498000D01*
X115083189Y-98498000D01*
X115083189Y-98748000D01*
G37*
X115083189Y-99398000D02*
X113533189Y-99398000D01*
X113533189Y-99148000D01*
X115083189Y-99148000D01*
X115083189Y-99398000D01*
G36*
X115083189Y-99398000D02*
G01*
X113533189Y-99398000D01*
X113533189Y-99148000D01*
X115083189Y-99148000D01*
X115083189Y-99398000D01*
G37*
X115083189Y-100048000D02*
X113533189Y-100048000D01*
X113533189Y-99798000D01*
X115083189Y-99798000D01*
X115083189Y-100048000D01*
G36*
X115083189Y-100048000D02*
G01*
X113533189Y-100048000D01*
X113533189Y-99798000D01*
X115083189Y-99798000D01*
X115083189Y-100048000D01*
G37*
X115083189Y-100698000D02*
X113533189Y-100698000D01*
X113533189Y-100448000D01*
X115083189Y-100448000D01*
X115083189Y-100698000D01*
G36*
X115083189Y-100698000D02*
G01*
X113533189Y-100698000D01*
X113533189Y-100448000D01*
X115083189Y-100448000D01*
X115083189Y-100698000D01*
G37*
X115083189Y-101348000D02*
X113533189Y-101348000D01*
X113533189Y-101098000D01*
X115083189Y-101098000D01*
X115083189Y-101348000D01*
G36*
X115083189Y-101348000D02*
G01*
X113533189Y-101348000D01*
X113533189Y-101098000D01*
X115083189Y-101098000D01*
X115083189Y-101348000D01*
G37*
X115083189Y-101998000D02*
X113533189Y-101998000D01*
X113533189Y-101748000D01*
X115083189Y-101748000D01*
X115083189Y-101998000D01*
G36*
X115083189Y-101998000D02*
G01*
X113533189Y-101998000D01*
X113533189Y-101748000D01*
X115083189Y-101748000D01*
X115083189Y-101998000D01*
G37*
X115083189Y-102648000D02*
X113533189Y-102648000D01*
X113533189Y-102398000D01*
X115083189Y-102398000D01*
X115083189Y-102648000D01*
G36*
X115083189Y-102648000D02*
G01*
X113533189Y-102648000D01*
X113533189Y-102398000D01*
X115083189Y-102398000D01*
X115083189Y-102648000D01*
G37*
X118308189Y-101528000D02*
X115908189Y-101528000D01*
X115908189Y-95068000D01*
X118308189Y-95068000D01*
X118308189Y-101528000D01*
G36*
X118308189Y-101528000D02*
G01*
X115908189Y-101528000D01*
X115908189Y-95068000D01*
X118308189Y-95068000D01*
X118308189Y-101528000D01*
G37*
X120683189Y-94198000D02*
X119133189Y-94198000D01*
X119133189Y-93948000D01*
X120683189Y-93948000D01*
X120683189Y-94198000D01*
G36*
X120683189Y-94198000D02*
G01*
X119133189Y-94198000D01*
X119133189Y-93948000D01*
X120683189Y-93948000D01*
X120683189Y-94198000D01*
G37*
X120683189Y-94848000D02*
X119133189Y-94848000D01*
X119133189Y-94598000D01*
X120683189Y-94598000D01*
X120683189Y-94848000D01*
G36*
X120683189Y-94848000D02*
G01*
X119133189Y-94848000D01*
X119133189Y-94598000D01*
X120683189Y-94598000D01*
X120683189Y-94848000D01*
G37*
X120683189Y-95498000D02*
X119133189Y-95498000D01*
X119133189Y-95248000D01*
X120683189Y-95248000D01*
X120683189Y-95498000D01*
G36*
X120683189Y-95498000D02*
G01*
X119133189Y-95498000D01*
X119133189Y-95248000D01*
X120683189Y-95248000D01*
X120683189Y-95498000D01*
G37*
X120683189Y-96148000D02*
X119133189Y-96148000D01*
X119133189Y-95898000D01*
X120683189Y-95898000D01*
X120683189Y-96148000D01*
G36*
X120683189Y-96148000D02*
G01*
X119133189Y-96148000D01*
X119133189Y-95898000D01*
X120683189Y-95898000D01*
X120683189Y-96148000D01*
G37*
X120683189Y-96798000D02*
X119133189Y-96798000D01*
X119133189Y-96548000D01*
X120683189Y-96548000D01*
X120683189Y-96798000D01*
G36*
X120683189Y-96798000D02*
G01*
X119133189Y-96798000D01*
X119133189Y-96548000D01*
X120683189Y-96548000D01*
X120683189Y-96798000D01*
G37*
X120683189Y-97448000D02*
X119133189Y-97448000D01*
X119133189Y-97198000D01*
X120683189Y-97198000D01*
X120683189Y-97448000D01*
G36*
X120683189Y-97448000D02*
G01*
X119133189Y-97448000D01*
X119133189Y-97198000D01*
X120683189Y-97198000D01*
X120683189Y-97448000D01*
G37*
X120683189Y-98098000D02*
X119133189Y-98098000D01*
X119133189Y-97848000D01*
X120683189Y-97848000D01*
X120683189Y-98098000D01*
G36*
X120683189Y-98098000D02*
G01*
X119133189Y-98098000D01*
X119133189Y-97848000D01*
X120683189Y-97848000D01*
X120683189Y-98098000D01*
G37*
X120683189Y-98748000D02*
X119133189Y-98748000D01*
X119133189Y-98498000D01*
X120683189Y-98498000D01*
X120683189Y-98748000D01*
G36*
X120683189Y-98748000D02*
G01*
X119133189Y-98748000D01*
X119133189Y-98498000D01*
X120683189Y-98498000D01*
X120683189Y-98748000D01*
G37*
X120683189Y-99398000D02*
X119133189Y-99398000D01*
X119133189Y-99148000D01*
X120683189Y-99148000D01*
X120683189Y-99398000D01*
G36*
X120683189Y-99398000D02*
G01*
X119133189Y-99398000D01*
X119133189Y-99148000D01*
X120683189Y-99148000D01*
X120683189Y-99398000D01*
G37*
X120683189Y-100048000D02*
X119133189Y-100048000D01*
X119133189Y-99798000D01*
X120683189Y-99798000D01*
X120683189Y-100048000D01*
G36*
X120683189Y-100048000D02*
G01*
X119133189Y-100048000D01*
X119133189Y-99798000D01*
X120683189Y-99798000D01*
X120683189Y-100048000D01*
G37*
X120683189Y-100698000D02*
X119133189Y-100698000D01*
X119133189Y-100448000D01*
X120683189Y-100448000D01*
X120683189Y-100698000D01*
G36*
X120683189Y-100698000D02*
G01*
X119133189Y-100698000D01*
X119133189Y-100448000D01*
X120683189Y-100448000D01*
X120683189Y-100698000D01*
G37*
X120683189Y-101348000D02*
X119133189Y-101348000D01*
X119133189Y-101098000D01*
X120683189Y-101098000D01*
X120683189Y-101348000D01*
G36*
X120683189Y-101348000D02*
G01*
X119133189Y-101348000D01*
X119133189Y-101098000D01*
X120683189Y-101098000D01*
X120683189Y-101348000D01*
G37*
X120683189Y-101998000D02*
X119133189Y-101998000D01*
X119133189Y-101748000D01*
X120683189Y-101748000D01*
X120683189Y-101998000D01*
G36*
X120683189Y-101998000D02*
G01*
X119133189Y-101998000D01*
X119133189Y-101748000D01*
X120683189Y-101748000D01*
X120683189Y-101998000D01*
G37*
X120683189Y-102648000D02*
X119133189Y-102648000D01*
X119133189Y-102398000D01*
X120683189Y-102398000D01*
X120683189Y-102648000D01*
G36*
X120683189Y-102648000D02*
G01*
X119133189Y-102648000D01*
X119133189Y-102398000D01*
X120683189Y-102398000D01*
X120683189Y-102648000D01*
G37*
%TD*%
D11*
%TO.C,C32*%
X107233468Y-90170000D03*
X109133468Y-90170000D03*
%TD*%
%TO.C,C15*%
X72202000Y-102616000D03*
X74102000Y-102616000D03*
%TD*%
D12*
%TO.C,U6*%
X81450000Y-66825000D03*
X80500000Y-66825000D03*
X79550000Y-66825000D03*
X79550000Y-69175000D03*
X81450000Y-69175000D03*
%TD*%
D13*
%TO.C,R22*%
X105389468Y-94130500D03*
X105389468Y-92305500D03*
%TD*%
D14*
%TO.C,L1*%
X102916500Y-74750000D03*
X100791500Y-74750000D03*
%TD*%
D15*
%TO.C,R21*%
X76096500Y-94234000D03*
X74271500Y-94234000D03*
%TD*%
D16*
%TO.C,D1*%
X89000000Y-77062500D03*
X89000000Y-78937500D03*
%TD*%
D13*
%TO.C,R10*%
X121920000Y-94130500D03*
X121920000Y-92305500D03*
%TD*%
D17*
%TO.C,C12*%
X100584000Y-66228000D03*
X100584000Y-64328000D03*
%TD*%
D18*
%TO.C,C2*%
X81450000Y-71387000D03*
X79550000Y-71387000D03*
%TD*%
D19*
%TO.C,R25*%
X122235500Y-96520000D03*
X125160500Y-96520000D03*
%TD*%
D17*
%TO.C,C8*%
X102616000Y-66228000D03*
X102616000Y-64328000D03*
%TD*%
D20*
%TO.C,R19*%
X78740000Y-97385500D03*
X78740000Y-99210500D03*
%TD*%
D13*
%TO.C,R4*%
X93000000Y-84575000D03*
X93000000Y-82750000D03*
%TD*%
D11*
%TO.C,C20*%
X90744000Y-90170000D03*
X92644000Y-90170000D03*
%TD*%
%TO.C,C23*%
X74234000Y-90170000D03*
X76134000Y-90170000D03*
%TD*%
D20*
%TO.C,R20*%
X62230000Y-97385500D03*
X62230000Y-99210500D03*
%TD*%
D21*
%TO.C,C11*%
X90904000Y-100838000D03*
X89944000Y-100838000D03*
%TD*%
D13*
%TO.C,R17*%
X75946000Y-102766500D03*
X75946000Y-100941500D03*
%TD*%
D11*
%TO.C,C26*%
X105222000Y-102597854D03*
X107122000Y-102597854D03*
%TD*%
D22*
%TO.C,C6*%
X93500000Y-80270000D03*
X93500000Y-81230000D03*
%TD*%
D23*
%TO.C,R6*%
X79587500Y-55110000D03*
X81412500Y-55110000D03*
%TD*%
D13*
%TO.C,R29*%
X108945468Y-102766500D03*
X108945468Y-100941500D03*
%TD*%
D15*
%TO.C,R2*%
X84912500Y-71350000D03*
X83087500Y-71350000D03*
%TD*%
D13*
%TO.C,R3*%
X91000000Y-84575000D03*
X91000000Y-82750000D03*
%TD*%
D24*
%TO.C,D3*%
X78740000Y-102791500D03*
X78740000Y-100916500D03*
%TD*%
D13*
%TO.C,R18*%
X92456000Y-102766500D03*
X92456000Y-100941500D03*
%TD*%
D22*
%TO.C,C9*%
X92500000Y-80270000D03*
X92500000Y-81230000D03*
%TD*%
D11*
%TO.C,C5*%
X88712000Y-102616000D03*
X90612000Y-102616000D03*
%TD*%
D25*
%TO.C,C1*%
X83500000Y-67300000D03*
X83500000Y-69200000D03*
%TD*%
D11*
%TO.C,C3*%
X83050000Y-73500000D03*
X84950000Y-73500000D03*
%TD*%
D15*
%TO.C,R23*%
X109095968Y-94234000D03*
X107270968Y-94234000D03*
%TD*%
D26*
%TO.C,Y1*%
X93250000Y-78500000D03*
X90750000Y-78500000D03*
%TD*%
D11*
%TO.C,C17*%
X79550000Y-73387000D03*
X81450000Y-73387000D03*
%TD*%
D24*
%TO.C,D4*%
X62230000Y-102630500D03*
X62230000Y-100755500D03*
%TD*%
D20*
%TO.C,R30*%
X111760000Y-97385500D03*
X111760000Y-99210500D03*
%TD*%
D15*
%TO.C,R11*%
X125626500Y-94234000D03*
X123801500Y-94234000D03*
%TD*%
D21*
%TO.C,C28*%
X107393468Y-100838000D03*
X106433468Y-100838000D03*
%TD*%
D19*
%TO.C,R14*%
X89215500Y-96520000D03*
X92140500Y-96520000D03*
%TD*%
D20*
%TO.C,R31*%
X95229468Y-97385500D03*
X95229468Y-99210500D03*
%TD*%
D24*
%TO.C,D6*%
X95229468Y-102791500D03*
X95229468Y-100916500D03*
%TD*%
D18*
%TO.C,C13*%
X90131000Y-61637000D03*
X88231000Y-61637000D03*
%TD*%
D24*
%TO.C,D5*%
X111760000Y-102791500D03*
X111760000Y-100916500D03*
%TD*%
D19*
%TO.C,R26*%
X105704968Y-98806000D03*
X108629968Y-98806000D03*
%TD*%
D11*
%TO.C,C34*%
X107233468Y-92202000D03*
X109133468Y-92202000D03*
%TD*%
%TO.C,C21*%
X90744000Y-92202000D03*
X92644000Y-92202000D03*
%TD*%
D21*
%TO.C,C27*%
X123924000Y-100838000D03*
X122964000Y-100838000D03*
%TD*%
D11*
%TO.C,C25*%
X121732000Y-102616000D03*
X123632000Y-102616000D03*
%TD*%
D23*
%TO.C,R9*%
X79636550Y-57116423D03*
X81461550Y-57116423D03*
%TD*%
D22*
%TO.C,C10*%
X91500000Y-80270000D03*
X91500000Y-81230000D03*
%TD*%
D25*
%TO.C,C19*%
X103000000Y-71250000D03*
X103000000Y-73150000D03*
%TD*%
D16*
%TO.C,D2*%
X89000000Y-84062500D03*
X89000000Y-85937500D03*
%TD*%
D19*
%TO.C,R27*%
X105704968Y-96520000D03*
X108629968Y-96520000D03*
%TD*%
D25*
%TO.C,C4*%
X101000000Y-71250000D03*
X101000000Y-73150000D03*
%TD*%
D11*
%TO.C,C24*%
X74234000Y-92202000D03*
X76134000Y-92202000D03*
%TD*%
D20*
%TO.C,R8*%
X89000000Y-80587500D03*
X89000000Y-82412500D03*
%TD*%
D27*
%TO.C,U1*%
X89000000Y-75175000D03*
X89500000Y-75175000D03*
X90000000Y-75175000D03*
X90500000Y-75175000D03*
X91000000Y-75175000D03*
X91500000Y-75175000D03*
X92000000Y-75175000D03*
X92500000Y-75175000D03*
X93000000Y-75175000D03*
X93500000Y-75175000D03*
X94000000Y-75175000D03*
X94500000Y-75175000D03*
X95000000Y-75175000D03*
X95500000Y-75175000D03*
X96000000Y-75175000D03*
X96500000Y-75175000D03*
D28*
X98425000Y-73250000D03*
X98425000Y-72750000D03*
X98425000Y-72250000D03*
X98425000Y-71750000D03*
X98425000Y-71250000D03*
X98425000Y-70750000D03*
X98425000Y-70250000D03*
X98425000Y-69750000D03*
X98425000Y-69250000D03*
X98425000Y-68750000D03*
X98425000Y-68250000D03*
X98425000Y-67750000D03*
X98425000Y-67250000D03*
X98425000Y-66750000D03*
X98425000Y-66250000D03*
X98425000Y-65750000D03*
D27*
X96500000Y-63825000D03*
X96000000Y-63825000D03*
X95500000Y-63825000D03*
X95000000Y-63825000D03*
X94500000Y-63825000D03*
X94000000Y-63825000D03*
X93500000Y-63825000D03*
X93000000Y-63825000D03*
X92500000Y-63825000D03*
X92000000Y-63825000D03*
X91500000Y-63825000D03*
X91000000Y-63825000D03*
X90500000Y-63825000D03*
X90000000Y-63825000D03*
X89500000Y-63825000D03*
X89000000Y-63825000D03*
D28*
X87075000Y-65750000D03*
X87075000Y-66250000D03*
X87075000Y-66750000D03*
X87075000Y-67250000D03*
X87075000Y-67750000D03*
X87075000Y-68250000D03*
X87075000Y-68750000D03*
X87075000Y-69250000D03*
X87075000Y-69750000D03*
X87075000Y-70250000D03*
X87075000Y-70750000D03*
X87075000Y-71250000D03*
X87075000Y-71750000D03*
X87075000Y-72250000D03*
X87075000Y-72750000D03*
X87075000Y-73250000D03*
%TD*%
D19*
%TO.C,R16*%
X72705500Y-96520000D03*
X75630500Y-96520000D03*
%TD*%
D25*
%TO.C,C14*%
X95000000Y-82750000D03*
X95000000Y-84650000D03*
%TD*%
D13*
%TO.C,R7*%
X72390000Y-94130500D03*
X72390000Y-92305500D03*
%TD*%
%TO.C,R5*%
X88900000Y-94130500D03*
X88900000Y-92305500D03*
%TD*%
D11*
%TO.C,C33*%
X123764000Y-92202000D03*
X125664000Y-92202000D03*
%TD*%
D13*
%TO.C,R28*%
X125476000Y-102766500D03*
X125476000Y-100941500D03*
%TD*%
D19*
%TO.C,R13*%
X89215500Y-98806000D03*
X92140500Y-98806000D03*
%TD*%
D29*
%TO.C,Y2*%
X94900000Y-77750000D03*
X94900000Y-79950000D03*
X96600000Y-79950000D03*
X96600000Y-77750000D03*
%TD*%
D30*
%TO.C,C7*%
X90500000Y-81230000D03*
X90500000Y-80270000D03*
%TD*%
D11*
%TO.C,C31*%
X123764000Y-90170000D03*
X125664000Y-90170000D03*
%TD*%
D19*
%TO.C,R15*%
X72705500Y-98806000D03*
X75630500Y-98806000D03*
%TD*%
D15*
%TO.C,R12*%
X92606500Y-94234000D03*
X90781500Y-94234000D03*
%TD*%
D19*
%TO.C,R24*%
X122235500Y-98806000D03*
X125160500Y-98806000D03*
%TD*%
D31*
%TO.C,U7*%
X84242000Y-58850000D03*
X83742000Y-58850000D03*
X83242000Y-58850000D03*
X82742000Y-58850000D03*
X82242000Y-58850000D03*
X81742000Y-58850000D03*
X81242000Y-58850000D03*
D32*
X80242000Y-59850000D03*
X80242000Y-60350000D03*
X80242000Y-60850000D03*
X80242000Y-61350000D03*
X80242000Y-61850000D03*
X80242000Y-62350000D03*
X80242000Y-62850000D03*
D31*
X81242000Y-63850000D03*
X81742000Y-63850000D03*
X82242000Y-63850000D03*
X82742000Y-63850000D03*
X83242000Y-63850000D03*
X83742000Y-63850000D03*
X84242000Y-63850000D03*
D32*
X85242000Y-62850000D03*
X85242000Y-62350000D03*
X85242000Y-61850000D03*
X85242000Y-61350000D03*
X85242000Y-60850000D03*
X85242000Y-60350000D03*
X85242000Y-59850000D03*
D33*
X82742000Y-61350000D03*
%TD*%
D15*
%TO.C,R1*%
X102662500Y-69500000D03*
X100837500Y-69500000D03*
%TD*%
D21*
%TO.C,C16*%
X74394000Y-100838000D03*
X73434000Y-100838000D03*
%TD*%
M02*
