%TF.GenerationSoftware,KiCad,Pcbnew,8.0.2*%
%TF.CreationDate,2024-05-24T16:25:43+02:00*%
%TF.ProjectId,Doodle Drive,446f6f64-6c65-4204-9472-6976652e6b69,1.0V*%
%TF.SameCoordinates,Original*%
%TF.FileFunction,Copper,L1,Top*%
%TF.FilePolarity,Positive*%
%FSLAX46Y46*%
G04 Gerber Fmt 4.6, Leading zero omitted, Abs format (unit mm)*
G04 Created by KiCad (PCBNEW 8.0.2) date 2024-05-24 16:25:43*
%MOMM*%
%LPD*%
G01*
G04 APERTURE LIST*
G04 Aperture macros list*
%AMRoundRect*
0 Rectangle with rounded corners*
0 $1 Rounding radius*
0 $2 $3 $4 $5 $6 $7 $8 $9 X,Y pos of 4 corners*
0 Add a 4 corners polygon primitive as box body*
4,1,4,$2,$3,$4,$5,$6,$7,$8,$9,$2,$3,0*
0 Add four circle primitives for the rounded corners*
1,1,$1+$1,$2,$3*
1,1,$1+$1,$4,$5*
1,1,$1+$1,$6,$7*
1,1,$1+$1,$8,$9*
0 Add four rect primitives between the rounded corners*
20,1,$1+$1,$2,$3,$4,$5,0*
20,1,$1+$1,$4,$5,$6,$7,0*
20,1,$1+$1,$6,$7,$8,$9,0*
20,1,$1+$1,$8,$9,$2,$3,0*%
G04 Aperture macros list end*
%TA.AperFunction,NonConductor*%
%ADD10C,0.000000*%
%TD*%
%ADD11C,0.300000*%
%TA.AperFunction,NonConductor*%
%ADD12C,0.300000*%
%TD*%
%ADD13C,0.150000*%
%TA.AperFunction,NonConductor*%
%ADD14C,0.150000*%
%TD*%
%TA.AperFunction,SMDPad,CuDef*%
%ADD15RoundRect,0.250000X-0.250000X-0.475000X0.250000X-0.475000X0.250000X0.475000X-0.250000X0.475000X0*%
%TD*%
%TA.AperFunction,ComponentPad*%
%ADD16R,3.960000X1.980000*%
%TD*%
%TA.AperFunction,ComponentPad*%
%ADD17O,3.960000X1.980000*%
%TD*%
%TA.AperFunction,SMDPad,CuDef*%
%ADD18RoundRect,0.059000X0.236000X0.626000X-0.236000X0.626000X-0.236000X-0.626000X0.236000X-0.626000X0*%
%TD*%
%TA.AperFunction,SMDPad,CuDef*%
%ADD19RoundRect,0.250000X0.450000X-0.262500X0.450000X0.262500X-0.450000X0.262500X-0.450000X-0.262500X0*%
%TD*%
%TA.AperFunction,SMDPad,CuDef*%
%ADD20RoundRect,0.218750X0.218750X0.381250X-0.218750X0.381250X-0.218750X-0.381250X0.218750X-0.381250X0*%
%TD*%
%TA.AperFunction,SMDPad,CuDef*%
%ADD21RoundRect,0.250000X0.262500X0.450000X-0.262500X0.450000X-0.262500X-0.450000X0.262500X-0.450000X0*%
%TD*%
%TA.AperFunction,SMDPad,CuDef*%
%ADD22RoundRect,0.243750X-0.456250X0.243750X-0.456250X-0.243750X0.456250X-0.243750X0.456250X0.243750X0*%
%TD*%
%TA.AperFunction,SMDPad,CuDef*%
%ADD23RoundRect,0.250000X0.475000X-0.250000X0.475000X0.250000X-0.475000X0.250000X-0.475000X-0.250000X0*%
%TD*%
%TA.AperFunction,SMDPad,CuDef*%
%ADD24RoundRect,0.250000X0.250000X0.475000X-0.250000X0.475000X-0.250000X-0.475000X0.250000X-0.475000X0*%
%TD*%
%TA.AperFunction,SMDPad,CuDef*%
%ADD25RoundRect,0.250000X-0.312500X-0.625000X0.312500X-0.625000X0.312500X0.625000X-0.312500X0.625000X0*%
%TD*%
%TA.AperFunction,ComponentPad*%
%ADD26C,1.200000*%
%TD*%
%TA.AperFunction,ComponentPad*%
%ADD27R,1.600000X1.600000*%
%TD*%
%TA.AperFunction,ComponentPad*%
%ADD28C,1.600000*%
%TD*%
%TA.AperFunction,ComponentPad*%
%ADD29C,4.000000*%
%TD*%
%TA.AperFunction,SMDPad,CuDef*%
%ADD30RoundRect,0.250000X-0.450000X0.262500X-0.450000X-0.262500X0.450000X-0.262500X0.450000X0.262500X0*%
%TD*%
%TA.AperFunction,ComponentPad*%
%ADD31R,1.700000X1.700000*%
%TD*%
%TA.AperFunction,ComponentPad*%
%ADD32O,1.700000X1.700000*%
%TD*%
%TA.AperFunction,SMDPad,CuDef*%
%ADD33RoundRect,0.140000X0.140000X0.170000X-0.140000X0.170000X-0.140000X-0.170000X0.140000X-0.170000X0*%
%TD*%
%TA.AperFunction,SMDPad,CuDef*%
%ADD34RoundRect,0.140000X-0.170000X0.140000X-0.170000X-0.140000X0.170000X-0.140000X0.170000X0.140000X0*%
%TD*%
%TA.AperFunction,SMDPad,CuDef*%
%ADD35RoundRect,0.250000X-0.262500X-0.450000X0.262500X-0.450000X0.262500X0.450000X-0.262500X0.450000X0*%
%TD*%
%TA.AperFunction,SMDPad,CuDef*%
%ADD36RoundRect,0.243750X0.456250X-0.243750X0.456250X0.243750X-0.456250X0.243750X-0.456250X-0.243750X0*%
%TD*%
%TA.AperFunction,SMDPad,CuDef*%
%ADD37R,1.600000X0.300000*%
%TD*%
%TA.AperFunction,SMDPad,CuDef*%
%ADD38R,3.400000X9.700000*%
%TD*%
%TA.AperFunction,ComponentPad*%
%ADD39C,0.500000*%
%TD*%
%TA.AperFunction,SMDPad,CuDef*%
%ADD40RoundRect,0.250000X-0.475000X0.250000X-0.475000X-0.250000X0.475000X-0.250000X0.475000X0.250000X0*%
%TD*%
%TA.AperFunction,SMDPad,CuDef*%
%ADD41R,1.000000X1.800000*%
%TD*%
%TA.AperFunction,SMDPad,CuDef*%
%ADD42RoundRect,0.075000X0.075000X-0.700000X0.075000X0.700000X-0.075000X0.700000X-0.075000X-0.700000X0*%
%TD*%
%TA.AperFunction,SMDPad,CuDef*%
%ADD43RoundRect,0.075000X0.700000X-0.075000X0.700000X0.075000X-0.700000X0.075000X-0.700000X-0.075000X0*%
%TD*%
%TA.AperFunction,SMDPad,CuDef*%
%ADD44R,1.200000X1.400000*%
%TD*%
%TA.AperFunction,SMDPad,CuDef*%
%ADD45RoundRect,0.140000X0.170000X-0.140000X0.170000X0.140000X-0.170000X0.140000X-0.170000X-0.140000X0*%
%TD*%
%TA.AperFunction,SMDPad,CuDef*%
%ADD46R,0.300000X1.000000*%
%TD*%
%TA.AperFunction,SMDPad,CuDef*%
%ADD47R,1.000000X0.300000*%
%TD*%
%TA.AperFunction,SMDPad,CuDef*%
%ADD48R,3.400000X3.400000*%
%TD*%
%TA.AperFunction,ComponentPad*%
%ADD49R,1.217000X1.217000*%
%TD*%
%TA.AperFunction,ComponentPad*%
%ADD50C,1.217000*%
%TD*%
%TA.AperFunction,ViaPad*%
%ADD51C,0.600000*%
%TD*%
%TA.AperFunction,ViaPad*%
%ADD52C,1.000000*%
%TD*%
%TA.AperFunction,Conductor*%
%ADD53C,0.250000*%
%TD*%
%TA.AperFunction,Conductor*%
%ADD54C,0.500000*%
%TD*%
G04 APERTURE END LIST*
D10*
%TA.AperFunction,NonConductor*%
G36*
X110480315Y-59021008D02*
G01*
X110741114Y-59023688D01*
X110832550Y-59025159D01*
X110966297Y-59027310D01*
X111152083Y-59031801D01*
X111294688Y-59037084D01*
X111390331Y-59043085D01*
X111419359Y-59046332D01*
X111435228Y-59049730D01*
X111516667Y-59080686D01*
X111516667Y-59746357D01*
X111516180Y-59918165D01*
X111514641Y-60061639D01*
X111513442Y-60123367D01*
X111511937Y-60178749D01*
X111510113Y-60228032D01*
X111507956Y-60271462D01*
X111505450Y-60309285D01*
X111502583Y-60341747D01*
X111499339Y-60369093D01*
X111495705Y-60391571D01*
X111491666Y-60409426D01*
X111489491Y-60416697D01*
X111487208Y-60422904D01*
X111484818Y-60428078D01*
X111482318Y-60432251D01*
X111479706Y-60435452D01*
X111476980Y-60437713D01*
X111437574Y-60443200D01*
X111340058Y-60448951D01*
X110996607Y-60460565D01*
X110498452Y-60471190D01*
X109897418Y-60479464D01*
X109398027Y-60484855D01*
X109194270Y-60487361D01*
X109018044Y-60489899D01*
X108867027Y-60492587D01*
X108738898Y-60495544D01*
X108631335Y-60498889D01*
X108542018Y-60502741D01*
X108503476Y-60504894D01*
X108468624Y-60507218D01*
X108437174Y-60509729D01*
X108408833Y-60512440D01*
X108383314Y-60515367D01*
X108360324Y-60518524D01*
X108339574Y-60521927D01*
X108320774Y-60525591D01*
X108303633Y-60529529D01*
X108287862Y-60533757D01*
X108273171Y-60538290D01*
X108259268Y-60543143D01*
X108245865Y-60548330D01*
X108232670Y-60553866D01*
X108205746Y-60566047D01*
X108142714Y-60597209D01*
X108081484Y-60631226D01*
X108022121Y-60668031D01*
X107964687Y-60707557D01*
X107909245Y-60749737D01*
X107855859Y-60794505D01*
X107804592Y-60841792D01*
X107755507Y-60891531D01*
X107708667Y-60943657D01*
X107664135Y-60998101D01*
X107621974Y-61054797D01*
X107582248Y-61113677D01*
X107545020Y-61174675D01*
X107510352Y-61237723D01*
X107478309Y-61302754D01*
X107448953Y-61369702D01*
X107432155Y-61415558D01*
X107417395Y-61466265D01*
X107404685Y-61521160D01*
X107394036Y-61579577D01*
X107385461Y-61640851D01*
X107378972Y-61704317D01*
X107374583Y-61769310D01*
X107372304Y-61835165D01*
X107372149Y-61901218D01*
X107374130Y-61966803D01*
X107378258Y-62031255D01*
X107384547Y-62093909D01*
X107393009Y-62154101D01*
X107403656Y-62211164D01*
X107416500Y-62264436D01*
X107431554Y-62313249D01*
X107458693Y-62384159D01*
X107490255Y-62454189D01*
X107525969Y-62523050D01*
X107565565Y-62590454D01*
X107608770Y-62656110D01*
X107655314Y-62719730D01*
X107704925Y-62781024D01*
X107757333Y-62839703D01*
X107812265Y-62895478D01*
X107869451Y-62948059D01*
X107928619Y-62997157D01*
X107989499Y-63042483D01*
X108051818Y-63083747D01*
X108115306Y-63120661D01*
X108179692Y-63152934D01*
X108244703Y-63180278D01*
X108301671Y-63199347D01*
X108369825Y-63214010D01*
X108464527Y-63224846D01*
X108601140Y-63232439D01*
X108795027Y-63237369D01*
X109061550Y-63240218D01*
X109873954Y-63242000D01*
X110259484Y-63242590D01*
X110579669Y-63244188D01*
X110832550Y-63246856D01*
X110839740Y-63246932D01*
X111044926Y-63250957D01*
X111200457Y-63256401D01*
X111261236Y-63259697D01*
X111311563Y-63263400D01*
X111352090Y-63267525D01*
X111383473Y-63272090D01*
X111406364Y-63277112D01*
X111421418Y-63282608D01*
X111500793Y-63322772D01*
X111500793Y-64652526D01*
X111421418Y-64694118D01*
X111383952Y-64705277D01*
X111314030Y-64714059D01*
X111204317Y-64720598D01*
X111047478Y-64725034D01*
X110563082Y-64728140D01*
X109802167Y-64724471D01*
X109313642Y-64720647D01*
X108936757Y-64716658D01*
X108784534Y-64714346D01*
X108653447Y-64711688D01*
X108541238Y-64708582D01*
X108445649Y-64704924D01*
X108364422Y-64700615D01*
X108295298Y-64695552D01*
X108236021Y-64689632D01*
X108184331Y-64682756D01*
X108137972Y-64674819D01*
X108094684Y-64665721D01*
X108052210Y-64655361D01*
X108008292Y-64643635D01*
X107861659Y-64599312D01*
X107718679Y-64547796D01*
X107579534Y-64489239D01*
X107444407Y-64423790D01*
X107313479Y-64351599D01*
X107186932Y-64272816D01*
X107064949Y-64187592D01*
X106947711Y-64096075D01*
X106835565Y-63998558D01*
X110405072Y-63998558D01*
X110408204Y-64153862D01*
X110415718Y-64290599D01*
X110421090Y-64346794D01*
X110427521Y-64392095D01*
X110435002Y-64424416D01*
X110439131Y-64435058D01*
X110443518Y-64441673D01*
X110449730Y-64446329D01*
X110458755Y-64450676D01*
X110470606Y-64454716D01*
X110485298Y-64458449D01*
X110523254Y-64465002D01*
X110572732Y-64470343D01*
X110633840Y-64474482D01*
X110706685Y-64477428D01*
X110791375Y-64479188D01*
X110888018Y-64479773D01*
X111294417Y-64479773D01*
X111294417Y-63991045D01*
X111294324Y-63916905D01*
X111294015Y-63850347D01*
X111293450Y-63790958D01*
X111292588Y-63738323D01*
X111291388Y-63692030D01*
X111289810Y-63651664D01*
X111288866Y-63633575D01*
X111287812Y-63616813D01*
X111286642Y-63601326D01*
X111285353Y-63587063D01*
X111283938Y-63573971D01*
X111282393Y-63561999D01*
X111280712Y-63551095D01*
X111278890Y-63541209D01*
X111276922Y-63532287D01*
X111274804Y-63524278D01*
X111272529Y-63517131D01*
X111270093Y-63510794D01*
X111267491Y-63505215D01*
X111264717Y-63500342D01*
X111261767Y-63496124D01*
X111258635Y-63492509D01*
X111255317Y-63489445D01*
X111251806Y-63486882D01*
X111248099Y-63484766D01*
X111244189Y-63483046D01*
X111237198Y-63481082D01*
X111226724Y-63479173D01*
X111196172Y-63475561D01*
X111154220Y-63472288D01*
X111102556Y-63469433D01*
X111042870Y-63467075D01*
X110976848Y-63465293D01*
X110832550Y-63463773D01*
X110774922Y-63463856D01*
X110723568Y-63464148D01*
X110678087Y-63464711D01*
X110638076Y-63465608D01*
X110619997Y-63466201D01*
X110603134Y-63466900D01*
X110587438Y-63467715D01*
X110572859Y-63468652D01*
X110559345Y-63469720D01*
X110546848Y-63470925D01*
X110535315Y-63472277D01*
X110524698Y-63473782D01*
X110514946Y-63475450D01*
X110506009Y-63477286D01*
X110497836Y-63479300D01*
X110490377Y-63481499D01*
X110483583Y-63483891D01*
X110477401Y-63486484D01*
X110471783Y-63489286D01*
X110466679Y-63492304D01*
X110462037Y-63495546D01*
X110457807Y-63499020D01*
X110453940Y-63502734D01*
X110450385Y-63506696D01*
X110447091Y-63510914D01*
X110444009Y-63515394D01*
X110441088Y-63520146D01*
X110438279Y-63525177D01*
X110430002Y-63549528D01*
X110422927Y-63587997D01*
X110417044Y-63638499D01*
X110412339Y-63698951D01*
X110406419Y-63841363D01*
X110405072Y-63998558D01*
X106835565Y-63998558D01*
X106835401Y-63998415D01*
X106728200Y-63894764D01*
X106626290Y-63785271D01*
X106529853Y-63670085D01*
X106439072Y-63549357D01*
X106354128Y-63423236D01*
X106275203Y-63291873D01*
X106202480Y-63155417D01*
X106137721Y-63017048D01*
X106080962Y-62876947D01*
X106032104Y-62735390D01*
X105991048Y-62592654D01*
X105957693Y-62449014D01*
X105931942Y-62304748D01*
X105913695Y-62160133D01*
X105902852Y-62015444D01*
X105899315Y-61870958D01*
X105902985Y-61726953D01*
X105913762Y-61583704D01*
X105931547Y-61441488D01*
X105956242Y-61300582D01*
X105987746Y-61161262D01*
X106025962Y-61023805D01*
X106070789Y-60888487D01*
X106122128Y-60755585D01*
X106179881Y-60625376D01*
X106243948Y-60498136D01*
X106314230Y-60374141D01*
X106390629Y-60253669D01*
X106473044Y-60136996D01*
X106561376Y-60024397D01*
X106655527Y-59916151D01*
X106699183Y-59870857D01*
X110406152Y-59870857D01*
X110409020Y-60006503D01*
X110415460Y-60116429D01*
X110420082Y-60157322D01*
X110425674Y-60186475D01*
X110433064Y-60210007D01*
X110437849Y-60219526D01*
X110444173Y-60227664D01*
X110452644Y-60234512D01*
X110463872Y-60240156D01*
X110478466Y-60244687D01*
X110497036Y-60248193D01*
X110520190Y-60250762D01*
X110548537Y-60252484D01*
X110623247Y-60253738D01*
X110726041Y-60252665D01*
X110861791Y-60249975D01*
X111278542Y-60241149D01*
X111287274Y-59760676D01*
X111288542Y-59686485D01*
X111289462Y-59620087D01*
X111289999Y-59561039D01*
X111290114Y-59508899D01*
X111289770Y-59463222D01*
X111288930Y-59423566D01*
X111288312Y-59405857D01*
X111287556Y-59389487D01*
X111286657Y-59374401D01*
X111285611Y-59360542D01*
X111284413Y-59347857D01*
X111283058Y-59336288D01*
X111281541Y-59325782D01*
X111279859Y-59316282D01*
X111278005Y-59307732D01*
X111275977Y-59300079D01*
X111273768Y-59293266D01*
X111271374Y-59287237D01*
X111268791Y-59281938D01*
X111266014Y-59277313D01*
X111263039Y-59273307D01*
X111259859Y-59269863D01*
X111256472Y-59266928D01*
X111252872Y-59264445D01*
X111249054Y-59262358D01*
X111245015Y-59260614D01*
X111237941Y-59258620D01*
X111227387Y-59256682D01*
X111196681Y-59253012D01*
X111154589Y-59249685D01*
X111102802Y-59246782D01*
X111043014Y-59244384D01*
X110976914Y-59242571D01*
X110906196Y-59241424D01*
X110832550Y-59241024D01*
X110774922Y-59241107D01*
X110723568Y-59241399D01*
X110678087Y-59241962D01*
X110638076Y-59242858D01*
X110619997Y-59243451D01*
X110603134Y-59244151D01*
X110587438Y-59244966D01*
X110572859Y-59245903D01*
X110559345Y-59246970D01*
X110546848Y-59248176D01*
X110535315Y-59249527D01*
X110524698Y-59251033D01*
X110514946Y-59252700D01*
X110506009Y-59254537D01*
X110497836Y-59256551D01*
X110490377Y-59258750D01*
X110483583Y-59261142D01*
X110477401Y-59263735D01*
X110471783Y-59266536D01*
X110466679Y-59269554D01*
X110462037Y-59272796D01*
X110457807Y-59276271D01*
X110453940Y-59279985D01*
X110450385Y-59283947D01*
X110447091Y-59288164D01*
X110444009Y-59292645D01*
X110441088Y-59297397D01*
X110438279Y-59302428D01*
X110431999Y-59321831D01*
X110426333Y-59354274D01*
X110416945Y-59451200D01*
X110410317Y-59579046D01*
X110406652Y-59723652D01*
X110406152Y-59870857D01*
X106699183Y-59870857D01*
X106755398Y-59812533D01*
X106860888Y-59713821D01*
X106971900Y-59620290D01*
X107088334Y-59532217D01*
X107210091Y-59449879D01*
X107337071Y-59373552D01*
X107469175Y-59303514D01*
X107606305Y-59240039D01*
X107776041Y-59169785D01*
X107931996Y-59116205D01*
X108011996Y-59094965D01*
X108097181Y-59077049D01*
X108190427Y-59062176D01*
X108294610Y-59050063D01*
X108547294Y-59032995D01*
X108878246Y-59023593D01*
X109310477Y-59019603D01*
X109867001Y-59018774D01*
X110480315Y-59021008D01*
G37*
%TD.AperFunction*%
%TA.AperFunction,NonConductor*%
G36*
X114210786Y-59051603D02*
G01*
X114443194Y-59052918D01*
X114646984Y-59055273D01*
X114825068Y-59058943D01*
X114980360Y-59064199D01*
X115115774Y-59071316D01*
X115234223Y-59080567D01*
X115338621Y-59092225D01*
X115431881Y-59106564D01*
X115516918Y-59123857D01*
X115596643Y-59144378D01*
X115673971Y-59168399D01*
X115751816Y-59196194D01*
X115833091Y-59228037D01*
X115920710Y-59264201D01*
X116076039Y-59335108D01*
X116225809Y-59415319D01*
X116369765Y-59504522D01*
X116507656Y-59602403D01*
X116639228Y-59708650D01*
X116764231Y-59822951D01*
X116882410Y-59944992D01*
X116993514Y-60074461D01*
X117097290Y-60211046D01*
X117193486Y-60354433D01*
X117281849Y-60504311D01*
X117362126Y-60660367D01*
X117434066Y-60822287D01*
X117497415Y-60989760D01*
X117551921Y-61162472D01*
X117597332Y-61340111D01*
X117607704Y-61394992D01*
X117616292Y-61459163D01*
X117623128Y-61531297D01*
X117628243Y-61610063D01*
X117633442Y-61782174D01*
X117632146Y-61964864D01*
X117624610Y-62147497D01*
X117611093Y-62319439D01*
X117602171Y-62398078D01*
X117591849Y-62470056D01*
X117580161Y-62534044D01*
X117567138Y-62588712D01*
X117507807Y-62781076D01*
X117438029Y-62966619D01*
X117358101Y-63145033D01*
X117268322Y-63316012D01*
X117168991Y-63479251D01*
X117060406Y-63634442D01*
X116942867Y-63781280D01*
X116816671Y-63919458D01*
X116682118Y-64048669D01*
X116539506Y-64168609D01*
X116389134Y-64278969D01*
X116231301Y-64379444D01*
X116066305Y-64469728D01*
X115894445Y-64549515D01*
X115716020Y-64618497D01*
X115531328Y-64676369D01*
X115445209Y-64698896D01*
X115357165Y-64716026D01*
X115247770Y-64728520D01*
X115097599Y-64737139D01*
X114887227Y-64742644D01*
X114597229Y-64745798D01*
X113700655Y-64748092D01*
X113209345Y-64748314D01*
X113006915Y-64748083D01*
X112830741Y-64747539D01*
X112678902Y-64746615D01*
X112549478Y-64745248D01*
X112440548Y-64743373D01*
X112350192Y-64740925D01*
X112311379Y-64739466D01*
X112276489Y-64737839D01*
X112245282Y-64736036D01*
X112217518Y-64734050D01*
X112192958Y-64731873D01*
X112171360Y-64729495D01*
X112152485Y-64726909D01*
X112136093Y-64724107D01*
X112121944Y-64721081D01*
X112109797Y-64717823D01*
X112099413Y-64714324D01*
X112090551Y-64710577D01*
X112082972Y-64706574D01*
X112076436Y-64702305D01*
X112070702Y-64697764D01*
X112065530Y-64692943D01*
X112056557Y-64683092D01*
X112048570Y-64672051D01*
X112041512Y-64659152D01*
X112035327Y-64643731D01*
X112029959Y-64625120D01*
X112025351Y-64602654D01*
X112021448Y-64575667D01*
X112018194Y-64543492D01*
X112013409Y-64460914D01*
X112010545Y-64349592D01*
X112008856Y-64031400D01*
X112215167Y-64031400D01*
X112215747Y-64203148D01*
X112217616Y-64272324D01*
X112221555Y-64331425D01*
X112224540Y-64357446D01*
X112228328Y-64381244D01*
X112233015Y-64402921D01*
X112238696Y-64422574D01*
X112245467Y-64440302D01*
X112253424Y-64456205D01*
X112262661Y-64470382D01*
X112273273Y-64482932D01*
X112285357Y-64493954D01*
X112299008Y-64503547D01*
X112314321Y-64511810D01*
X112331391Y-64518842D01*
X112350314Y-64524742D01*
X112371185Y-64529609D01*
X112394099Y-64533542D01*
X112419152Y-64536641D01*
X112476057Y-64540732D01*
X112542662Y-64542672D01*
X112708022Y-64543273D01*
X112750226Y-64543120D01*
X112790125Y-64542664D01*
X112827703Y-64541904D01*
X112862944Y-64540843D01*
X112895833Y-64539482D01*
X112926354Y-64537823D01*
X112954491Y-64535868D01*
X112980227Y-64533617D01*
X113003548Y-64531073D01*
X113024437Y-64528237D01*
X113042879Y-64525110D01*
X113058857Y-64521695D01*
X113072355Y-64517992D01*
X113083359Y-64514003D01*
X113087920Y-64511902D01*
X113091852Y-64509730D01*
X113095151Y-64507487D01*
X113097817Y-64505173D01*
X113102556Y-64498717D01*
X113106966Y-64489126D01*
X113111048Y-64476358D01*
X113114807Y-64460365D01*
X113121369Y-64418529D01*
X113126678Y-64363256D01*
X113130760Y-64294184D01*
X113133643Y-64210954D01*
X113135353Y-64113204D01*
X113135917Y-64000571D01*
X113135822Y-63930018D01*
X113135508Y-63866641D01*
X113134936Y-63810051D01*
X113134065Y-63759858D01*
X113132856Y-63715673D01*
X113131268Y-63677107D01*
X113130319Y-63659809D01*
X113129260Y-63643770D01*
X113128087Y-63628941D01*
X113126793Y-63615273D01*
X113125375Y-63602717D01*
X113123827Y-63591226D01*
X113122143Y-63580750D01*
X113120320Y-63571240D01*
X113118352Y-63562648D01*
X113116233Y-63554925D01*
X113113960Y-63548023D01*
X113111526Y-63541893D01*
X113108927Y-63536486D01*
X113106158Y-63531753D01*
X113103214Y-63527646D01*
X113100090Y-63524117D01*
X113096780Y-63521115D01*
X113093280Y-63518594D01*
X113089585Y-63516503D01*
X113085689Y-63514795D01*
X113078616Y-63512832D01*
X113067900Y-63510923D01*
X113036419Y-63507311D01*
X112992999Y-63504038D01*
X112939393Y-63501183D01*
X112808636Y-63497044D01*
X112658175Y-63495524D01*
X112597779Y-63495604D01*
X112544002Y-63495890D01*
X112496418Y-63496442D01*
X112454604Y-63497327D01*
X112435727Y-63497913D01*
X112418132Y-63498606D01*
X112401768Y-63499414D01*
X112386579Y-63500344D01*
X112372514Y-63501404D01*
X112359520Y-63502604D01*
X112347542Y-63503949D01*
X112336528Y-63505449D01*
X112326425Y-63507111D01*
X112317179Y-63508944D01*
X112308738Y-63510955D01*
X112301048Y-63513152D01*
X112294056Y-63515543D01*
X112287710Y-63518136D01*
X112281955Y-63520939D01*
X112276739Y-63523960D01*
X112272009Y-63527207D01*
X112267711Y-63530688D01*
X112263792Y-63534410D01*
X112260200Y-63538382D01*
X112256880Y-63542612D01*
X112253781Y-63547108D01*
X112250848Y-63551877D01*
X112248029Y-63556928D01*
X112244683Y-63565328D01*
X112241430Y-63577697D01*
X112235273Y-63613370D01*
X112229692Y-63662001D01*
X112224823Y-63721643D01*
X112220801Y-63790350D01*
X112217761Y-63866176D01*
X112215838Y-63947175D01*
X112215167Y-64031400D01*
X112008856Y-64031400D01*
X112008792Y-64019398D01*
X112009156Y-63834708D01*
X112009694Y-63757449D01*
X112010544Y-63689361D01*
X112011763Y-63629780D01*
X112013405Y-63578042D01*
X112015528Y-63533482D01*
X112016787Y-63513687D01*
X112018187Y-63495436D01*
X112019734Y-63478649D01*
X112021437Y-63463240D01*
X112023302Y-63449128D01*
X112025336Y-63436229D01*
X112027545Y-63424461D01*
X112029938Y-63413739D01*
X112032521Y-63403982D01*
X112035300Y-63395106D01*
X112038284Y-63387028D01*
X112041478Y-63379665D01*
X112044891Y-63372935D01*
X112048528Y-63366753D01*
X112052397Y-63361037D01*
X112056505Y-63355704D01*
X112060859Y-63350670D01*
X112065466Y-63345854D01*
X112090748Y-63328287D01*
X112137001Y-63314462D01*
X112218773Y-63303721D01*
X112350613Y-63295408D01*
X112547068Y-63288863D01*
X112658175Y-63286674D01*
X112822686Y-63283431D01*
X113669603Y-63273274D01*
X115217066Y-63257399D01*
X115430426Y-63152306D01*
X115457596Y-63138568D01*
X115483981Y-63124494D01*
X115509615Y-63110055D01*
X115534536Y-63095226D01*
X115558779Y-63079978D01*
X115582380Y-63064283D01*
X115605375Y-63048115D01*
X115627800Y-63031446D01*
X115649690Y-63014248D01*
X115671082Y-62996493D01*
X115692012Y-62978155D01*
X115712515Y-62959206D01*
X115732627Y-62939618D01*
X115752385Y-62919364D01*
X115771823Y-62898416D01*
X115790979Y-62876747D01*
X115845875Y-62811216D01*
X115896126Y-62747054D01*
X115941850Y-62683937D01*
X115983165Y-62621540D01*
X116020188Y-62559538D01*
X116053038Y-62497608D01*
X116081833Y-62435423D01*
X116106690Y-62372661D01*
X116127726Y-62308996D01*
X116145061Y-62244104D01*
X116158810Y-62177660D01*
X116169094Y-62109339D01*
X116176028Y-62038818D01*
X116179732Y-61965772D01*
X116180322Y-61889876D01*
X116177917Y-61810805D01*
X116173177Y-61727917D01*
X116170323Y-61691417D01*
X116166996Y-61657613D01*
X116163081Y-61626053D01*
X116158464Y-61596288D01*
X116153034Y-61567866D01*
X116146675Y-61540339D01*
X116139274Y-61513254D01*
X116130718Y-61486162D01*
X116120892Y-61458613D01*
X116109685Y-61430155D01*
X116096981Y-61400339D01*
X116082668Y-61368713D01*
X116048757Y-61298233D01*
X116019666Y-61241845D01*
X115989130Y-61187489D01*
X115957143Y-61135156D01*
X115923698Y-61084839D01*
X115888786Y-61036531D01*
X115852401Y-60990224D01*
X115814535Y-60945909D01*
X115775180Y-60903581D01*
X115734329Y-60863230D01*
X115691974Y-60824849D01*
X115648108Y-60788432D01*
X115602724Y-60753969D01*
X115555814Y-60721453D01*
X115507370Y-60690878D01*
X115457385Y-60662234D01*
X115405852Y-60635515D01*
X115185253Y-60526899D01*
X113692272Y-60519057D01*
X113107366Y-60514794D01*
X112618468Y-60509027D01*
X112276725Y-60502505D01*
X112177020Y-60499194D01*
X112133284Y-60495974D01*
X112112437Y-60489748D01*
X112093680Y-60480815D01*
X112076908Y-60468649D01*
X112062020Y-60452726D01*
X112048913Y-60432519D01*
X112037484Y-60407502D01*
X112027630Y-60377151D01*
X112019250Y-60340939D01*
X112012240Y-60298341D01*
X112006498Y-60248831D01*
X112001920Y-60191883D01*
X111998406Y-60126973D01*
X111994152Y-59971159D01*
X111993715Y-59902599D01*
X112215894Y-59902599D01*
X112218757Y-60038239D01*
X112225189Y-60148157D01*
X112229806Y-60189046D01*
X112235392Y-60218193D01*
X112242799Y-60241762D01*
X112247635Y-60251291D01*
X112254072Y-60259436D01*
X112262746Y-60266286D01*
X112274292Y-60271931D01*
X112289345Y-60276458D01*
X112308540Y-60279959D01*
X112332512Y-60282522D01*
X112361896Y-60284235D01*
X112439440Y-60285474D01*
X112546253Y-60284388D01*
X112687417Y-60281693D01*
X113120042Y-60272899D01*
X113128774Y-59792426D01*
X113130041Y-59718235D01*
X113130962Y-59651837D01*
X113131499Y-59592789D01*
X113131614Y-59540649D01*
X113131270Y-59494972D01*
X113130429Y-59455316D01*
X113129812Y-59437607D01*
X113129056Y-59421237D01*
X113128157Y-59406151D01*
X113127111Y-59392293D01*
X113125912Y-59379607D01*
X113124557Y-59368038D01*
X113123041Y-59357532D01*
X113121358Y-59348032D01*
X113119505Y-59339482D01*
X113117477Y-59331829D01*
X113115268Y-59325016D01*
X113112874Y-59318987D01*
X113110291Y-59313688D01*
X113107514Y-59309063D01*
X113104538Y-59305057D01*
X113101359Y-59301613D01*
X113097972Y-59298678D01*
X113094371Y-59296195D01*
X113090554Y-59294108D01*
X113086514Y-59292364D01*
X113079358Y-59290370D01*
X113068562Y-59288432D01*
X113036928Y-59284762D01*
X112993368Y-59281435D01*
X112939639Y-59278532D01*
X112808703Y-59274321D01*
X112658175Y-59272774D01*
X112597779Y-59272854D01*
X112544002Y-59273140D01*
X112496418Y-59273693D01*
X112454604Y-59274577D01*
X112435727Y-59275163D01*
X112418132Y-59275856D01*
X112401768Y-59276664D01*
X112386579Y-59277594D01*
X112372514Y-59278655D01*
X112359520Y-59279854D01*
X112347542Y-59281200D01*
X112336528Y-59282699D01*
X112326425Y-59284362D01*
X112317179Y-59286194D01*
X112308738Y-59288205D01*
X112301048Y-59290402D01*
X112294056Y-59292793D01*
X112287710Y-59295386D01*
X112281955Y-59298189D01*
X112276739Y-59301210D01*
X112272009Y-59304457D01*
X112267711Y-59307938D01*
X112263792Y-59311661D01*
X112260200Y-59315633D01*
X112256880Y-59319863D01*
X112253781Y-59324359D01*
X112250848Y-59329128D01*
X112248029Y-59334178D01*
X112241749Y-59353581D01*
X112236083Y-59386024D01*
X112226695Y-59482950D01*
X112220065Y-59610794D01*
X112216398Y-59755397D01*
X112215894Y-59902599D01*
X111993715Y-59902599D01*
X111992917Y-59777186D01*
X111993143Y-59683557D01*
X111993873Y-59598938D01*
X111995185Y-59522819D01*
X111997158Y-59454690D01*
X111999870Y-59394042D01*
X112003399Y-59340364D01*
X112005494Y-59315980D01*
X112007823Y-59293148D01*
X112010396Y-59271803D01*
X112013221Y-59251882D01*
X112016310Y-59233322D01*
X112019672Y-59216058D01*
X112023316Y-59200026D01*
X112027253Y-59185164D01*
X112031492Y-59171408D01*
X112036043Y-59158693D01*
X112040916Y-59146956D01*
X112046120Y-59136133D01*
X112051666Y-59126160D01*
X112057563Y-59116974D01*
X112063821Y-59108512D01*
X112070449Y-59100708D01*
X112077459Y-59093500D01*
X112084858Y-59086824D01*
X112092658Y-59080616D01*
X112100867Y-59074812D01*
X112138756Y-59070118D01*
X112233785Y-59065720D01*
X112569874Y-59058203D01*
X112658175Y-59057269D01*
X113058357Y-59053037D01*
X113648458Y-59051000D01*
X114210786Y-59051603D01*
G37*
%TD.AperFunction*%
%TA.AperFunction,NonConductor*%
G36*
X116686482Y-53681061D02*
G01*
X116825907Y-53681552D01*
X116955899Y-53683208D01*
X117064803Y-53686056D01*
X117111723Y-53687949D01*
X117153822Y-53690168D01*
X117191250Y-53692721D01*
X117224159Y-53695617D01*
X117252697Y-53698865D01*
X117277016Y-53702474D01*
X117297265Y-53706454D01*
X117313596Y-53710812D01*
X117326158Y-53715559D01*
X117331073Y-53718081D01*
X117335103Y-53720703D01*
X117343377Y-53727953D01*
X117350806Y-53737159D01*
X117357446Y-53748957D01*
X117363352Y-53763982D01*
X117368582Y-53782869D01*
X117373190Y-53806253D01*
X117380767Y-53869051D01*
X117386532Y-53957459D01*
X117390931Y-54076556D01*
X117397428Y-54427141D01*
X117406779Y-55124893D01*
X117410331Y-55404716D01*
X117413036Y-55643054D01*
X117414820Y-55843318D01*
X117415344Y-55930238D01*
X117415611Y-56008920D01*
X117415610Y-56079790D01*
X117415334Y-56143273D01*
X117414773Y-56199798D01*
X117413918Y-56249789D01*
X117412760Y-56293675D01*
X117411289Y-56331881D01*
X117409496Y-56364833D01*
X117408476Y-56379473D01*
X117407372Y-56392959D01*
X117406184Y-56405345D01*
X117404909Y-56416685D01*
X117403547Y-56427031D01*
X117402096Y-56436437D01*
X117400556Y-56444956D01*
X117398926Y-56452642D01*
X117397203Y-56459547D01*
X117395387Y-56465726D01*
X117393478Y-56471231D01*
X117391473Y-56476116D01*
X117389371Y-56480435D01*
X117387172Y-56484239D01*
X117384874Y-56487584D01*
X117382477Y-56490521D01*
X117379978Y-56493105D01*
X117377377Y-56495388D01*
X117374673Y-56497425D01*
X117371864Y-56499267D01*
X117365929Y-56502585D01*
X117352756Y-56509242D01*
X117028295Y-56525252D01*
X116041640Y-56532519D01*
X111542887Y-56522006D01*
X108501129Y-56507929D01*
X107490195Y-56501291D01*
X106760095Y-56494185D01*
X106266481Y-56486058D01*
X106094499Y-56481439D01*
X105965007Y-56476357D01*
X105872463Y-56470745D01*
X105811324Y-56464532D01*
X105776046Y-56457649D01*
X105766372Y-56453936D01*
X105761085Y-56450029D01*
X105755821Y-56441714D01*
X105750977Y-56429841D01*
X105746541Y-56414230D01*
X105742502Y-56394698D01*
X105735571Y-56343150D01*
X105730098Y-56273749D01*
X105725993Y-56185046D01*
X105723170Y-56075593D01*
X105721541Y-55943942D01*
X105721487Y-55927976D01*
X105927429Y-55927976D01*
X105930116Y-56066289D01*
X105936447Y-56173699D01*
X105941055Y-56210840D01*
X105946664Y-56234287D01*
X105950397Y-56241831D01*
X105955728Y-56248606D01*
X105963004Y-56254651D01*
X105972567Y-56260004D01*
X105984762Y-56264705D01*
X105999935Y-56268793D01*
X106018429Y-56272306D01*
X106040588Y-56275285D01*
X106097282Y-56279791D01*
X106172772Y-56282624D01*
X106269814Y-56284095D01*
X106391164Y-56284516D01*
X106816391Y-56284516D01*
X106816391Y-55874370D01*
X106816698Y-55791115D01*
X106817577Y-55711776D01*
X106818967Y-55638210D01*
X106820805Y-55572272D01*
X106823030Y-55515819D01*
X106825581Y-55470707D01*
X106828394Y-55438793D01*
X106829881Y-55428365D01*
X106831410Y-55421932D01*
X106832770Y-55417333D01*
X106833763Y-55412298D01*
X106834395Y-55406877D01*
X106834677Y-55401119D01*
X106834618Y-55395076D01*
X106834225Y-55388797D01*
X106833509Y-55382332D01*
X106832477Y-55375732D01*
X106831139Y-55369046D01*
X106829504Y-55362326D01*
X106827580Y-55355621D01*
X106825377Y-55348981D01*
X106822903Y-55342456D01*
X106820168Y-55336098D01*
X106817179Y-55329955D01*
X106813947Y-55324078D01*
X106808270Y-55315512D01*
X106801551Y-55307853D01*
X106793413Y-55301054D01*
X106783479Y-55295064D01*
X106771373Y-55289835D01*
X106756720Y-55285318D01*
X106739142Y-55281464D01*
X106718265Y-55278223D01*
X106693710Y-55275548D01*
X106665104Y-55273388D01*
X106594227Y-55270420D01*
X106502626Y-55268927D01*
X106387290Y-55268516D01*
X106323954Y-55268594D01*
X106267601Y-55268872D01*
X106217784Y-55269413D01*
X106174052Y-55270284D01*
X106154327Y-55270862D01*
X106135955Y-55271547D01*
X106118880Y-55272347D01*
X106103045Y-55273269D01*
X106088393Y-55274322D01*
X106074870Y-55275514D01*
X106062419Y-55276853D01*
X106050983Y-55278347D01*
X106040506Y-55280003D01*
X106030932Y-55281831D01*
X106022205Y-55283838D01*
X106014269Y-55286033D01*
X106007068Y-55288423D01*
X106000544Y-55291016D01*
X105994643Y-55293821D01*
X105989308Y-55296845D01*
X105984482Y-55300098D01*
X105980110Y-55303586D01*
X105976135Y-55307318D01*
X105972501Y-55311302D01*
X105969153Y-55315546D01*
X105966032Y-55320059D01*
X105963085Y-55324847D01*
X105960253Y-55329920D01*
X105953997Y-55349885D01*
X105948322Y-55384008D01*
X105938833Y-55486774D01*
X105932028Y-55622302D01*
X105928146Y-55774674D01*
X105927429Y-55927976D01*
X105721487Y-55927976D01*
X105721017Y-55788645D01*
X105721380Y-55604983D01*
X105721919Y-55528164D01*
X105722771Y-55460470D01*
X105723991Y-55401238D01*
X105725636Y-55349807D01*
X105727763Y-55305515D01*
X105729024Y-55285838D01*
X105730427Y-55267698D01*
X105731978Y-55251012D01*
X105733684Y-55235696D01*
X105735553Y-55221668D01*
X105737591Y-55208845D01*
X105739806Y-55197145D01*
X105742204Y-55186484D01*
X105744792Y-55176781D01*
X105747578Y-55167951D01*
X105750569Y-55159912D01*
X105753771Y-55152582D01*
X105757192Y-55145878D01*
X105760838Y-55139717D01*
X105764716Y-55134016D01*
X105768835Y-55128692D01*
X105773200Y-55123663D01*
X105777818Y-55118846D01*
X105815523Y-55100919D01*
X105921930Y-55087211D01*
X106387290Y-55074437D01*
X106543624Y-55070146D01*
X110841942Y-55061284D01*
X114389163Y-55058577D01*
X115886033Y-55053346D01*
X115890753Y-55050295D01*
X115895204Y-55042941D01*
X115899393Y-55031182D01*
X115903328Y-55014913D01*
X115910469Y-54968438D01*
X115916691Y-54902689D01*
X115922058Y-54816840D01*
X115926632Y-54710067D01*
X115933658Y-54430443D01*
X115934759Y-54374396D01*
X116150760Y-54374396D01*
X116153867Y-54506469D01*
X116157061Y-54567513D01*
X116161334Y-54622940D01*
X116166675Y-54671035D01*
X116173073Y-54710082D01*
X116180515Y-54738364D01*
X116184625Y-54747932D01*
X116188991Y-54754166D01*
X116194998Y-54757857D01*
X116205308Y-54761402D01*
X116237740Y-54768033D01*
X116284079Y-54774014D01*
X116342120Y-54779302D01*
X116484485Y-54787629D01*
X116647187Y-54792667D01*
X116812579Y-54794068D01*
X116963012Y-54791488D01*
X117080839Y-54784578D01*
X117122011Y-54779392D01*
X117148413Y-54772994D01*
X117155925Y-54769302D01*
X117162677Y-54764075D01*
X117168705Y-54756989D01*
X117174049Y-54747725D01*
X117178746Y-54735961D01*
X117182834Y-54721375D01*
X117186353Y-54703647D01*
X117189338Y-54682455D01*
X117193866Y-54628394D01*
X117196722Y-54556623D01*
X117198212Y-54464572D01*
X117198641Y-54349671D01*
X117198209Y-54268066D01*
X117196971Y-54191102D01*
X117195013Y-54120522D01*
X117192422Y-54058071D01*
X117189285Y-54005494D01*
X117185689Y-53964534D01*
X117183745Y-53948955D01*
X117181719Y-53936935D01*
X117179622Y-53928692D01*
X117178550Y-53926055D01*
X117177464Y-53924443D01*
X117172874Y-53922285D01*
X117163628Y-53920188D01*
X117132181Y-53916219D01*
X117085136Y-53912622D01*
X117024508Y-53909485D01*
X116870568Y-53904936D01*
X116686482Y-53903266D01*
X116609968Y-53903335D01*
X116542073Y-53903589D01*
X116482240Y-53904095D01*
X116429908Y-53904922D01*
X116406381Y-53905477D01*
X116384520Y-53906138D01*
X116364256Y-53906912D01*
X116345517Y-53907810D01*
X116328236Y-53908839D01*
X116312341Y-53910008D01*
X116297763Y-53911325D01*
X116284432Y-53912799D01*
X116272278Y-53914438D01*
X116261232Y-53916252D01*
X116251223Y-53918247D01*
X116242182Y-53920434D01*
X116234038Y-53922820D01*
X116226723Y-53925414D01*
X116220166Y-53928225D01*
X116214298Y-53931261D01*
X116209048Y-53934530D01*
X116204347Y-53938041D01*
X116200125Y-53941803D01*
X116196311Y-53945824D01*
X116192837Y-53950113D01*
X116189633Y-53954678D01*
X116186628Y-53959528D01*
X116183753Y-53964670D01*
X116175536Y-53987493D01*
X116168511Y-54021860D01*
X116162667Y-54066055D01*
X116157992Y-54118363D01*
X116152105Y-54240452D01*
X116150760Y-54374396D01*
X115934759Y-54374396D01*
X115937298Y-54245071D01*
X115939214Y-54167583D01*
X115941291Y-54099308D01*
X115943601Y-54039558D01*
X115946216Y-53987642D01*
X115949207Y-53942873D01*
X115952648Y-53904560D01*
X115954560Y-53887609D01*
X115956610Y-53872015D01*
X115958809Y-53857690D01*
X115961166Y-53844549D01*
X115963689Y-53832505D01*
X115966387Y-53821472D01*
X115969270Y-53811365D01*
X115972346Y-53802097D01*
X115975624Y-53793581D01*
X115979114Y-53785732D01*
X115982825Y-53778464D01*
X115986765Y-53771691D01*
X115990943Y-53765325D01*
X115995369Y-53759282D01*
X116000052Y-53753475D01*
X116005000Y-53747818D01*
X116026531Y-53726725D01*
X116038531Y-53718085D01*
X116052465Y-53710605D01*
X116069165Y-53704201D01*
X116089465Y-53698790D01*
X116114196Y-53694290D01*
X116144192Y-53690616D01*
X116223309Y-53685418D01*
X116333478Y-53682529D01*
X116673623Y-53681016D01*
X116686482Y-53681061D01*
G37*
%TD.AperFunction*%
%TA.AperFunction,NonConductor*%
G36*
X116879859Y-65686933D02*
G01*
X116927823Y-65687192D01*
X116978377Y-65687466D01*
X117065670Y-65688405D01*
X117142435Y-65689837D01*
X117177088Y-65690764D01*
X117209369Y-65691847D01*
X117239367Y-65693096D01*
X117267169Y-65694522D01*
X117292862Y-65696136D01*
X117316532Y-65697948D01*
X117338268Y-65699970D01*
X117358155Y-65702212D01*
X117376282Y-65704686D01*
X117392735Y-65707401D01*
X117407602Y-65710369D01*
X117420969Y-65713600D01*
X117432925Y-65717105D01*
X117443555Y-65720896D01*
X117452947Y-65724982D01*
X117461188Y-65729375D01*
X117468366Y-65734086D01*
X117471583Y-65736563D01*
X117474567Y-65739124D01*
X117477329Y-65741770D01*
X117479879Y-65744502D01*
X117484388Y-65750230D01*
X117488182Y-65756318D01*
X117491348Y-65762778D01*
X117493973Y-65769620D01*
X117496145Y-65776856D01*
X117501835Y-65901671D01*
X117507047Y-66202850D01*
X117513734Y-67153599D01*
X117514813Y-67590233D01*
X117514986Y-67767098D01*
X117514789Y-67918972D01*
X117514523Y-67986158D01*
X117514130Y-68047841D01*
X117513597Y-68104268D01*
X117512913Y-68155687D01*
X117512067Y-68202347D01*
X117511046Y-68244495D01*
X117509840Y-68282380D01*
X117508436Y-68316249D01*
X117506822Y-68346350D01*
X117504988Y-68372932D01*
X117502920Y-68396241D01*
X117501796Y-68406747D01*
X117500608Y-68416527D01*
X117499357Y-68425614D01*
X117498040Y-68434038D01*
X117496657Y-68441829D01*
X117495204Y-68449020D01*
X117493682Y-68455641D01*
X117492089Y-68461723D01*
X117490423Y-68467297D01*
X117488682Y-68472394D01*
X117486866Y-68477045D01*
X117484972Y-68481281D01*
X117483000Y-68485133D01*
X117480947Y-68488632D01*
X117478813Y-68491809D01*
X117476596Y-68494695D01*
X117474295Y-68497322D01*
X117471907Y-68499719D01*
X117469432Y-68501918D01*
X117466868Y-68503950D01*
X117464214Y-68505847D01*
X117461468Y-68507638D01*
X117455694Y-68511029D01*
X117449536Y-68514373D01*
X115608081Y-68537563D01*
X111651803Y-68530514D01*
X107700514Y-68502599D01*
X105874026Y-68463192D01*
X105865719Y-68456270D01*
X105858208Y-68447998D01*
X105851437Y-68437991D01*
X105845355Y-68425863D01*
X105839908Y-68411230D01*
X105835044Y-68393706D01*
X105830708Y-68372905D01*
X105826849Y-68348443D01*
X105820347Y-68286992D01*
X105815112Y-68206271D01*
X105810721Y-68103196D01*
X105806748Y-67974686D01*
X105804708Y-67880507D01*
X105803768Y-67794580D01*
X106023573Y-67794580D01*
X106027074Y-67945718D01*
X106035049Y-68080230D01*
X106040675Y-68136387D01*
X106047373Y-68182548D01*
X106055128Y-68216768D01*
X106059396Y-68228791D01*
X106063923Y-68237100D01*
X106070803Y-68245569D01*
X106078619Y-68253096D01*
X106087783Y-68259724D01*
X106098705Y-68265493D01*
X106111796Y-68270444D01*
X106127466Y-68274621D01*
X106146125Y-68278063D01*
X106168186Y-68280812D01*
X106194057Y-68282910D01*
X106224150Y-68284399D01*
X106298644Y-68285714D01*
X106394953Y-68285087D01*
X106516361Y-68282852D01*
X106928793Y-68273898D01*
X106937556Y-67787329D01*
X106939127Y-67672913D01*
X106939429Y-67621782D01*
X106939407Y-67574689D01*
X106939062Y-67531625D01*
X106938393Y-67492578D01*
X106937399Y-67457540D01*
X106936079Y-67426499D01*
X106934434Y-67399446D01*
X106932462Y-67376371D01*
X106930163Y-67357263D01*
X106927537Y-67342114D01*
X106926100Y-67336020D01*
X106924582Y-67330912D01*
X106922982Y-67326788D01*
X106921299Y-67323647D01*
X106919534Y-67321488D01*
X106917686Y-67320310D01*
X106915756Y-67320111D01*
X106913744Y-67320891D01*
X106912075Y-67321879D01*
X106910427Y-67322768D01*
X106908802Y-67323558D01*
X106907202Y-67324250D01*
X106905630Y-67324845D01*
X106904088Y-67325343D01*
X106902576Y-67325747D01*
X106901099Y-67326055D01*
X106899657Y-67326270D01*
X106898253Y-67326393D01*
X106896889Y-67326423D01*
X106895567Y-67326363D01*
X106894289Y-67326212D01*
X106893057Y-67325972D01*
X106891873Y-67325644D01*
X106890740Y-67325228D01*
X106889659Y-67324726D01*
X106888633Y-67324138D01*
X106887664Y-67323465D01*
X106886753Y-67322708D01*
X106885903Y-67321868D01*
X106885116Y-67320946D01*
X106884394Y-67319943D01*
X106883739Y-67318859D01*
X106883153Y-67317695D01*
X106882639Y-67316453D01*
X106882198Y-67315133D01*
X106881833Y-67313736D01*
X106881545Y-67312263D01*
X106881336Y-67310715D01*
X106881210Y-67309093D01*
X106881167Y-67307397D01*
X106879550Y-67303414D01*
X106874718Y-67299671D01*
X106866699Y-67296170D01*
X106855521Y-67292914D01*
X106841214Y-67289905D01*
X106823805Y-67287145D01*
X106779798Y-67282381D01*
X106723726Y-67278644D01*
X106655818Y-67275950D01*
X106576301Y-67274321D01*
X106485404Y-67273773D01*
X106421794Y-67273851D01*
X106365202Y-67274129D01*
X106315176Y-67274670D01*
X106271265Y-67275541D01*
X106251462Y-67276119D01*
X106233017Y-67276804D01*
X106215876Y-67277604D01*
X106199980Y-67278526D01*
X106185274Y-67279579D01*
X106171702Y-67280771D01*
X106159206Y-67282110D01*
X106147731Y-67283604D01*
X106137219Y-67285260D01*
X106127614Y-67287088D01*
X106118860Y-67289095D01*
X106110901Y-67291290D01*
X106103679Y-67293680D01*
X106097139Y-67296273D01*
X106091223Y-67299078D01*
X106085876Y-67302102D01*
X106081041Y-67305355D01*
X106076661Y-67308843D01*
X106072680Y-67312575D01*
X106069041Y-67316559D01*
X106065688Y-67320803D01*
X106062564Y-67325316D01*
X106059613Y-67330104D01*
X106056779Y-67335177D01*
X106048334Y-67359467D01*
X106041148Y-67397116D01*
X106035203Y-67446179D01*
X106030486Y-67504709D01*
X106024669Y-67642387D01*
X106023573Y-67794580D01*
X105803768Y-67794580D01*
X105803660Y-67784697D01*
X105803564Y-67689922D01*
X105804383Y-67598845D01*
X105806076Y-67514133D01*
X105808605Y-67438450D01*
X105811933Y-67374459D01*
X105816019Y-67324827D01*
X105819499Y-67293521D01*
X105822940Y-67265408D01*
X105826437Y-67240271D01*
X105830083Y-67217893D01*
X105831992Y-67207672D01*
X105833973Y-67198059D01*
X105836039Y-67189028D01*
X105838201Y-67180552D01*
X105840471Y-67172604D01*
X105842861Y-67165156D01*
X105845382Y-67158182D01*
X105848046Y-67151655D01*
X105850866Y-67145547D01*
X105853852Y-67139831D01*
X105857016Y-67134481D01*
X105860371Y-67129469D01*
X105863928Y-67124769D01*
X105867698Y-67120352D01*
X105871694Y-67116193D01*
X105875928Y-67112265D01*
X105880410Y-67108539D01*
X105885153Y-67104990D01*
X105890169Y-67101589D01*
X105895468Y-67098311D01*
X105901064Y-67095127D01*
X105906968Y-67092012D01*
X105919746Y-67085877D01*
X106207494Y-67068443D01*
X106485404Y-67065106D01*
X107063591Y-67058163D01*
X110998000Y-67056000D01*
X113082008Y-67057076D01*
X114660703Y-67053512D01*
X115664457Y-67045619D01*
X115928973Y-67040148D01*
X116023643Y-67033712D01*
X116026705Y-67027492D01*
X116029779Y-67015198D01*
X116035889Y-66973707D01*
X116041811Y-66911878D01*
X116047384Y-66832353D01*
X116056844Y-66630777D01*
X116062981Y-66390107D01*
X116064280Y-66312162D01*
X116263292Y-66312162D01*
X116263764Y-66388490D01*
X116265118Y-66461921D01*
X116267258Y-66530690D01*
X116270091Y-66593030D01*
X116273519Y-66647175D01*
X116277450Y-66691360D01*
X116279574Y-66709166D01*
X116281788Y-66723819D01*
X116284080Y-66735100D01*
X116286438Y-66742786D01*
X116290768Y-66751832D01*
X116296257Y-66759834D01*
X116303439Y-66766843D01*
X116312851Y-66772909D01*
X116325027Y-66778082D01*
X116340502Y-66782411D01*
X116359811Y-66785949D01*
X116383490Y-66788744D01*
X116446096Y-66792309D01*
X116532603Y-66793507D01*
X116647289Y-66792740D01*
X116794438Y-66790411D01*
X117279292Y-66781649D01*
X117288087Y-66348833D01*
X117289352Y-66282344D01*
X117290268Y-66222776D01*
X117290796Y-66169738D01*
X117290900Y-66122839D01*
X117290545Y-66081687D01*
X117290183Y-66063144D01*
X117289693Y-66045890D01*
X117289069Y-66029878D01*
X117288307Y-66015058D01*
X117287403Y-66001382D01*
X117286353Y-65988800D01*
X117285150Y-65977263D01*
X117283792Y-65966722D01*
X117282272Y-65957130D01*
X117280588Y-65948436D01*
X117278734Y-65940591D01*
X117276705Y-65933548D01*
X117274498Y-65927256D01*
X117272107Y-65921668D01*
X117269528Y-65916733D01*
X117266757Y-65912404D01*
X117263788Y-65908630D01*
X117260618Y-65905364D01*
X117257241Y-65902557D01*
X117253654Y-65900159D01*
X117249851Y-65898121D01*
X117245828Y-65896395D01*
X117222404Y-65890980D01*
X117184285Y-65886506D01*
X117072553Y-65880272D01*
X116927823Y-65877483D01*
X116767288Y-65877928D01*
X116608138Y-65881396D01*
X116467565Y-65887675D01*
X116362761Y-65896555D01*
X116329145Y-65901904D01*
X116310917Y-65907825D01*
X116304130Y-65913040D01*
X116297978Y-65919853D01*
X116292433Y-65928492D01*
X116287469Y-65939190D01*
X116283059Y-65952177D01*
X116279175Y-65967684D01*
X116275790Y-65985942D01*
X116272877Y-66007182D01*
X116268357Y-66059532D01*
X116265398Y-66126580D01*
X116263782Y-66210174D01*
X116263292Y-66312162D01*
X116064280Y-66312162D01*
X116064647Y-66290108D01*
X116066314Y-66201374D01*
X116068063Y-66123172D01*
X116069973Y-66054768D01*
X116072124Y-65995430D01*
X116074596Y-65944424D01*
X116075976Y-65921816D01*
X116077467Y-65901016D01*
X116079077Y-65881933D01*
X116080817Y-65864474D01*
X116082697Y-65848548D01*
X116084726Y-65834064D01*
X116086915Y-65820929D01*
X116089274Y-65809053D01*
X116091812Y-65798342D01*
X116094539Y-65788707D01*
X116097466Y-65780054D01*
X116100602Y-65772293D01*
X116103957Y-65765332D01*
X116107542Y-65759078D01*
X116111366Y-65753441D01*
X116115438Y-65748329D01*
X116119770Y-65743650D01*
X116124371Y-65739312D01*
X116129250Y-65735224D01*
X116134419Y-65731294D01*
X116144544Y-65725029D01*
X116157180Y-65719328D01*
X116172634Y-65714170D01*
X116191213Y-65709533D01*
X116238969Y-65701736D01*
X116302900Y-65695766D01*
X116385459Y-65691452D01*
X116489097Y-65688620D01*
X116616267Y-65687099D01*
X116769419Y-65686718D01*
X116879859Y-65686933D01*
G37*
%TD.AperFunction*%
D11*
D12*
X124081980Y-57193558D02*
X124081980Y-57860225D01*
X123034361Y-58145939D02*
X123034361Y-57193558D01*
X123034361Y-57193558D02*
X125034361Y-57193558D01*
X125034361Y-57193558D02*
X125034361Y-58145939D01*
X123034361Y-59955463D02*
X123034361Y-59003082D01*
X123034361Y-59003082D02*
X125034361Y-59003082D01*
X123034361Y-60622130D02*
X125034361Y-60622130D01*
X123605790Y-61479273D02*
X123605790Y-62431654D01*
X123034361Y-61288797D02*
X125034361Y-61955463D01*
X125034361Y-61955463D02*
X123034361Y-62622130D01*
X125034361Y-64526893D02*
X123034361Y-65193559D01*
X123034361Y-65193559D02*
X125034361Y-65860226D01*
X123605790Y-66431655D02*
X123605790Y-67384036D01*
X123034361Y-66241179D02*
X125034361Y-66907845D01*
X125034361Y-66907845D02*
X123034361Y-67574512D01*
X123034361Y-68241179D02*
X125034361Y-68241179D01*
X125034361Y-68241179D02*
X123034361Y-69384036D01*
X123034361Y-69384036D02*
X125034361Y-69384036D01*
X123034361Y-70336417D02*
X125034361Y-70336417D01*
X125034361Y-70336417D02*
X125034361Y-70812607D01*
X125034361Y-70812607D02*
X124939123Y-71098322D01*
X124939123Y-71098322D02*
X124748647Y-71288798D01*
X124748647Y-71288798D02*
X124558171Y-71384036D01*
X124558171Y-71384036D02*
X124177219Y-71479274D01*
X124177219Y-71479274D02*
X123891504Y-71479274D01*
X123891504Y-71479274D02*
X123510552Y-71384036D01*
X123510552Y-71384036D02*
X123320076Y-71288798D01*
X123320076Y-71288798D02*
X123129600Y-71098322D01*
X123129600Y-71098322D02*
X123034361Y-70812607D01*
X123034361Y-70812607D02*
X123034361Y-70336417D01*
X123034361Y-72336417D02*
X125034361Y-72336417D01*
X123034361Y-73288798D02*
X125034361Y-73288798D01*
X125034361Y-73288798D02*
X123034361Y-74431655D01*
X123034361Y-74431655D02*
X125034361Y-74431655D01*
X123034361Y-75384036D02*
X125034361Y-75384036D01*
D13*
D14*
X120872180Y-57110779D02*
X121872180Y-57110779D01*
X121872180Y-57110779D02*
X121872180Y-57348874D01*
X121872180Y-57348874D02*
X121824561Y-57491731D01*
X121824561Y-57491731D02*
X121729323Y-57586969D01*
X121729323Y-57586969D02*
X121634085Y-57634588D01*
X121634085Y-57634588D02*
X121443609Y-57682207D01*
X121443609Y-57682207D02*
X121300752Y-57682207D01*
X121300752Y-57682207D02*
X121110276Y-57634588D01*
X121110276Y-57634588D02*
X121015038Y-57586969D01*
X121015038Y-57586969D02*
X120919800Y-57491731D01*
X120919800Y-57491731D02*
X120872180Y-57348874D01*
X120872180Y-57348874D02*
X120872180Y-57110779D01*
X120872180Y-58253636D02*
X120919800Y-58158398D01*
X120919800Y-58158398D02*
X120967419Y-58110779D01*
X120967419Y-58110779D02*
X121062657Y-58063160D01*
X121062657Y-58063160D02*
X121348371Y-58063160D01*
X121348371Y-58063160D02*
X121443609Y-58110779D01*
X121443609Y-58110779D02*
X121491228Y-58158398D01*
X121491228Y-58158398D02*
X121538847Y-58253636D01*
X121538847Y-58253636D02*
X121538847Y-58396493D01*
X121538847Y-58396493D02*
X121491228Y-58491731D01*
X121491228Y-58491731D02*
X121443609Y-58539350D01*
X121443609Y-58539350D02*
X121348371Y-58586969D01*
X121348371Y-58586969D02*
X121062657Y-58586969D01*
X121062657Y-58586969D02*
X120967419Y-58539350D01*
X120967419Y-58539350D02*
X120919800Y-58491731D01*
X120919800Y-58491731D02*
X120872180Y-58396493D01*
X120872180Y-58396493D02*
X120872180Y-58253636D01*
X120872180Y-59158398D02*
X120919800Y-59063160D01*
X120919800Y-59063160D02*
X120967419Y-59015541D01*
X120967419Y-59015541D02*
X121062657Y-58967922D01*
X121062657Y-58967922D02*
X121348371Y-58967922D01*
X121348371Y-58967922D02*
X121443609Y-59015541D01*
X121443609Y-59015541D02*
X121491228Y-59063160D01*
X121491228Y-59063160D02*
X121538847Y-59158398D01*
X121538847Y-59158398D02*
X121538847Y-59301255D01*
X121538847Y-59301255D02*
X121491228Y-59396493D01*
X121491228Y-59396493D02*
X121443609Y-59444112D01*
X121443609Y-59444112D02*
X121348371Y-59491731D01*
X121348371Y-59491731D02*
X121062657Y-59491731D01*
X121062657Y-59491731D02*
X120967419Y-59444112D01*
X120967419Y-59444112D02*
X120919800Y-59396493D01*
X120919800Y-59396493D02*
X120872180Y-59301255D01*
X120872180Y-59301255D02*
X120872180Y-59158398D01*
X120872180Y-60348874D02*
X121872180Y-60348874D01*
X120919800Y-60348874D02*
X120872180Y-60253636D01*
X120872180Y-60253636D02*
X120872180Y-60063160D01*
X120872180Y-60063160D02*
X120919800Y-59967922D01*
X120919800Y-59967922D02*
X120967419Y-59920303D01*
X120967419Y-59920303D02*
X121062657Y-59872684D01*
X121062657Y-59872684D02*
X121348371Y-59872684D01*
X121348371Y-59872684D02*
X121443609Y-59920303D01*
X121443609Y-59920303D02*
X121491228Y-59967922D01*
X121491228Y-59967922D02*
X121538847Y-60063160D01*
X121538847Y-60063160D02*
X121538847Y-60253636D01*
X121538847Y-60253636D02*
X121491228Y-60348874D01*
X120872180Y-60967922D02*
X120919800Y-60872684D01*
X120919800Y-60872684D02*
X121015038Y-60825065D01*
X121015038Y-60825065D02*
X121872180Y-60825065D01*
X120919800Y-61729827D02*
X120872180Y-61634589D01*
X120872180Y-61634589D02*
X120872180Y-61444113D01*
X120872180Y-61444113D02*
X120919800Y-61348875D01*
X120919800Y-61348875D02*
X121015038Y-61301256D01*
X121015038Y-61301256D02*
X121395990Y-61301256D01*
X121395990Y-61301256D02*
X121491228Y-61348875D01*
X121491228Y-61348875D02*
X121538847Y-61444113D01*
X121538847Y-61444113D02*
X121538847Y-61634589D01*
X121538847Y-61634589D02*
X121491228Y-61729827D01*
X121491228Y-61729827D02*
X121395990Y-61777446D01*
X121395990Y-61777446D02*
X121300752Y-61777446D01*
X121300752Y-61777446D02*
X121205514Y-61301256D01*
X120872180Y-62967923D02*
X121872180Y-62967923D01*
X121872180Y-62967923D02*
X121872180Y-63206018D01*
X121872180Y-63206018D02*
X121824561Y-63348875D01*
X121824561Y-63348875D02*
X121729323Y-63444113D01*
X121729323Y-63444113D02*
X121634085Y-63491732D01*
X121634085Y-63491732D02*
X121443609Y-63539351D01*
X121443609Y-63539351D02*
X121300752Y-63539351D01*
X121300752Y-63539351D02*
X121110276Y-63491732D01*
X121110276Y-63491732D02*
X121015038Y-63444113D01*
X121015038Y-63444113D02*
X120919800Y-63348875D01*
X120919800Y-63348875D02*
X120872180Y-63206018D01*
X120872180Y-63206018D02*
X120872180Y-62967923D01*
X120872180Y-63967923D02*
X121538847Y-63967923D01*
X121348371Y-63967923D02*
X121443609Y-64015542D01*
X121443609Y-64015542D02*
X121491228Y-64063161D01*
X121491228Y-64063161D02*
X121538847Y-64158399D01*
X121538847Y-64158399D02*
X121538847Y-64253637D01*
X120872180Y-64586971D02*
X121538847Y-64586971D01*
X121872180Y-64586971D02*
X121824561Y-64539352D01*
X121824561Y-64539352D02*
X121776942Y-64586971D01*
X121776942Y-64586971D02*
X121824561Y-64634590D01*
X121824561Y-64634590D02*
X121872180Y-64586971D01*
X121872180Y-64586971D02*
X121776942Y-64586971D01*
X121538847Y-64967923D02*
X120872180Y-65206018D01*
X120872180Y-65206018D02*
X121538847Y-65444113D01*
X120919800Y-66206018D02*
X120872180Y-66110780D01*
X120872180Y-66110780D02*
X120872180Y-65920304D01*
X120872180Y-65920304D02*
X120919800Y-65825066D01*
X120919800Y-65825066D02*
X121015038Y-65777447D01*
X121015038Y-65777447D02*
X121395990Y-65777447D01*
X121395990Y-65777447D02*
X121491228Y-65825066D01*
X121491228Y-65825066D02*
X121538847Y-65920304D01*
X121538847Y-65920304D02*
X121538847Y-66110780D01*
X121538847Y-66110780D02*
X121491228Y-66206018D01*
X121491228Y-66206018D02*
X121395990Y-66253637D01*
X121395990Y-66253637D02*
X121300752Y-66253637D01*
X121300752Y-66253637D02*
X121205514Y-65777447D01*
X121872180Y-67301257D02*
X120872180Y-67634590D01*
X120872180Y-67634590D02*
X121872180Y-67967923D01*
X121776942Y-68253638D02*
X121824561Y-68301257D01*
X121824561Y-68301257D02*
X121872180Y-68396495D01*
X121872180Y-68396495D02*
X121872180Y-68634590D01*
X121872180Y-68634590D02*
X121824561Y-68729828D01*
X121824561Y-68729828D02*
X121776942Y-68777447D01*
X121776942Y-68777447D02*
X121681704Y-68825066D01*
X121681704Y-68825066D02*
X121586466Y-68825066D01*
X121586466Y-68825066D02*
X121443609Y-68777447D01*
X121443609Y-68777447D02*
X120872180Y-68206019D01*
X120872180Y-68206019D02*
X120872180Y-68825066D01*
X120967419Y-69253638D02*
X120919800Y-69301257D01*
X120919800Y-69301257D02*
X120872180Y-69253638D01*
X120872180Y-69253638D02*
X120919800Y-69206019D01*
X120919800Y-69206019D02*
X120967419Y-69253638D01*
X120967419Y-69253638D02*
X120872180Y-69253638D01*
X121872180Y-69920304D02*
X121872180Y-70015542D01*
X121872180Y-70015542D02*
X121824561Y-70110780D01*
X121824561Y-70110780D02*
X121776942Y-70158399D01*
X121776942Y-70158399D02*
X121681704Y-70206018D01*
X121681704Y-70206018D02*
X121491228Y-70253637D01*
X121491228Y-70253637D02*
X121253133Y-70253637D01*
X121253133Y-70253637D02*
X121062657Y-70206018D01*
X121062657Y-70206018D02*
X120967419Y-70158399D01*
X120967419Y-70158399D02*
X120919800Y-70110780D01*
X120919800Y-70110780D02*
X120872180Y-70015542D01*
X120872180Y-70015542D02*
X120872180Y-69920304D01*
X120872180Y-69920304D02*
X120919800Y-69825066D01*
X120919800Y-69825066D02*
X120967419Y-69777447D01*
X120967419Y-69777447D02*
X121062657Y-69729828D01*
X121062657Y-69729828D02*
X121253133Y-69682209D01*
X121253133Y-69682209D02*
X121491228Y-69682209D01*
X121491228Y-69682209D02*
X121681704Y-69729828D01*
X121681704Y-69729828D02*
X121776942Y-69777447D01*
X121776942Y-69777447D02*
X121824561Y-69825066D01*
X121824561Y-69825066D02*
X121872180Y-69920304D01*
D13*
D14*
X119840180Y-57586969D02*
X119840180Y-57110779D01*
X119840180Y-57110779D02*
X119363990Y-57063160D01*
X119363990Y-57063160D02*
X119411609Y-57110779D01*
X119411609Y-57110779D02*
X119459228Y-57206017D01*
X119459228Y-57206017D02*
X119459228Y-57444112D01*
X119459228Y-57444112D02*
X119411609Y-57539350D01*
X119411609Y-57539350D02*
X119363990Y-57586969D01*
X119363990Y-57586969D02*
X119268752Y-57634588D01*
X119268752Y-57634588D02*
X119030657Y-57634588D01*
X119030657Y-57634588D02*
X118935419Y-57586969D01*
X118935419Y-57586969D02*
X118887800Y-57539350D01*
X118887800Y-57539350D02*
X118840180Y-57444112D01*
X118840180Y-57444112D02*
X118840180Y-57206017D01*
X118840180Y-57206017D02*
X118887800Y-57110779D01*
X118887800Y-57110779D02*
X118935419Y-57063160D01*
X119363990Y-58396493D02*
X119316371Y-58539350D01*
X119316371Y-58539350D02*
X119268752Y-58586969D01*
X119268752Y-58586969D02*
X119173514Y-58634588D01*
X119173514Y-58634588D02*
X119030657Y-58634588D01*
X119030657Y-58634588D02*
X118935419Y-58586969D01*
X118935419Y-58586969D02*
X118887800Y-58539350D01*
X118887800Y-58539350D02*
X118840180Y-58444112D01*
X118840180Y-58444112D02*
X118840180Y-58063160D01*
X118840180Y-58063160D02*
X119840180Y-58063160D01*
X119840180Y-58063160D02*
X119840180Y-58396493D01*
X119840180Y-58396493D02*
X119792561Y-58491731D01*
X119792561Y-58491731D02*
X119744942Y-58539350D01*
X119744942Y-58539350D02*
X119649704Y-58586969D01*
X119649704Y-58586969D02*
X119554466Y-58586969D01*
X119554466Y-58586969D02*
X119459228Y-58539350D01*
X119459228Y-58539350D02*
X119411609Y-58491731D01*
X119411609Y-58491731D02*
X119363990Y-58396493D01*
X119363990Y-58396493D02*
X119363990Y-58063160D01*
X119363990Y-59063160D02*
X119363990Y-59396493D01*
X118840180Y-59539350D02*
X118840180Y-59063160D01*
X118840180Y-59063160D02*
X119840180Y-59063160D01*
X119840180Y-59063160D02*
X119840180Y-59539350D01*
X118840180Y-60444112D02*
X118840180Y-59967922D01*
X118840180Y-59967922D02*
X119840180Y-59967922D01*
X119840180Y-61729827D02*
X119840180Y-61825065D01*
X119840180Y-61825065D02*
X119792561Y-61920303D01*
X119792561Y-61920303D02*
X119744942Y-61967922D01*
X119744942Y-61967922D02*
X119649704Y-62015541D01*
X119649704Y-62015541D02*
X119459228Y-62063160D01*
X119459228Y-62063160D02*
X119221133Y-62063160D01*
X119221133Y-62063160D02*
X119030657Y-62015541D01*
X119030657Y-62015541D02*
X118935419Y-61967922D01*
X118935419Y-61967922D02*
X118887800Y-61920303D01*
X118887800Y-61920303D02*
X118840180Y-61825065D01*
X118840180Y-61825065D02*
X118840180Y-61729827D01*
X118840180Y-61729827D02*
X118887800Y-61634589D01*
X118887800Y-61634589D02*
X118935419Y-61586970D01*
X118935419Y-61586970D02*
X119030657Y-61539351D01*
X119030657Y-61539351D02*
X119221133Y-61491732D01*
X119221133Y-61491732D02*
X119459228Y-61491732D01*
X119459228Y-61491732D02*
X119649704Y-61539351D01*
X119649704Y-61539351D02*
X119744942Y-61586970D01*
X119744942Y-61586970D02*
X119792561Y-61634589D01*
X119792561Y-61634589D02*
X119840180Y-61729827D01*
X118840180Y-63015541D02*
X118840180Y-62444113D01*
X118840180Y-62729827D02*
X119840180Y-62729827D01*
X119840180Y-62729827D02*
X119697323Y-62634589D01*
X119697323Y-62634589D02*
X119602085Y-62539351D01*
X119602085Y-62539351D02*
X119554466Y-62444113D01*
X119887800Y-64158398D02*
X118602085Y-63301256D01*
X119744942Y-64444113D02*
X119792561Y-64491732D01*
X119792561Y-64491732D02*
X119840180Y-64586970D01*
X119840180Y-64586970D02*
X119840180Y-64825065D01*
X119840180Y-64825065D02*
X119792561Y-64920303D01*
X119792561Y-64920303D02*
X119744942Y-64967922D01*
X119744942Y-64967922D02*
X119649704Y-65015541D01*
X119649704Y-65015541D02*
X119554466Y-65015541D01*
X119554466Y-65015541D02*
X119411609Y-64967922D01*
X119411609Y-64967922D02*
X118840180Y-64396494D01*
X118840180Y-64396494D02*
X118840180Y-65015541D01*
X119840180Y-65634589D02*
X119840180Y-65729827D01*
X119840180Y-65729827D02*
X119792561Y-65825065D01*
X119792561Y-65825065D02*
X119744942Y-65872684D01*
X119744942Y-65872684D02*
X119649704Y-65920303D01*
X119649704Y-65920303D02*
X119459228Y-65967922D01*
X119459228Y-65967922D02*
X119221133Y-65967922D01*
X119221133Y-65967922D02*
X119030657Y-65920303D01*
X119030657Y-65920303D02*
X118935419Y-65872684D01*
X118935419Y-65872684D02*
X118887800Y-65825065D01*
X118887800Y-65825065D02*
X118840180Y-65729827D01*
X118840180Y-65729827D02*
X118840180Y-65634589D01*
X118840180Y-65634589D02*
X118887800Y-65539351D01*
X118887800Y-65539351D02*
X118935419Y-65491732D01*
X118935419Y-65491732D02*
X119030657Y-65444113D01*
X119030657Y-65444113D02*
X119221133Y-65396494D01*
X119221133Y-65396494D02*
X119459228Y-65396494D01*
X119459228Y-65396494D02*
X119649704Y-65444113D01*
X119649704Y-65444113D02*
X119744942Y-65491732D01*
X119744942Y-65491732D02*
X119792561Y-65539351D01*
X119792561Y-65539351D02*
X119840180Y-65634589D01*
X119744942Y-66348875D02*
X119792561Y-66396494D01*
X119792561Y-66396494D02*
X119840180Y-66491732D01*
X119840180Y-66491732D02*
X119840180Y-66729827D01*
X119840180Y-66729827D02*
X119792561Y-66825065D01*
X119792561Y-66825065D02*
X119744942Y-66872684D01*
X119744942Y-66872684D02*
X119649704Y-66920303D01*
X119649704Y-66920303D02*
X119554466Y-66920303D01*
X119554466Y-66920303D02*
X119411609Y-66872684D01*
X119411609Y-66872684D02*
X118840180Y-66301256D01*
X118840180Y-66301256D02*
X118840180Y-66920303D01*
X119506847Y-67777446D02*
X118840180Y-67777446D01*
X119887800Y-67539351D02*
X119173514Y-67301256D01*
X119173514Y-67301256D02*
X119173514Y-67920303D01*
D15*
%TO.P,C32,1*%
%TO.N,+15V*%
X107233468Y-90170000D03*
%TO.P,C32,2*%
%TO.N,GND*%
X109133468Y-90170000D03*
%TD*%
D16*
%TO.P,J3,1,Pin_1*%
%TO.N,GND*%
X67700000Y-78335000D03*
D17*
%TO.P,J3,2,Pin_2*%
%TO.N,+15V*%
X67700000Y-83335000D03*
%TD*%
D15*
%TO.P,C15,1*%
%TO.N,Net-(DRV1-CP2)*%
X72202000Y-102616000D03*
%TO.P,C15,2*%
%TO.N,Net-(DRV1-CP1)*%
X74102000Y-102616000D03*
%TD*%
D18*
%TO.P,U6,1,VIN*%
%TO.N,+5V*%
X81450000Y-66825000D03*
%TO.P,U6,2,GND*%
%TO.N,GND*%
X80500000Y-66825000D03*
%TO.P,U6,3,EN*%
%TO.N,+5V*%
X79550000Y-66825000D03*
%TO.P,U6,4,NC*%
%TO.N,GND*%
X79550000Y-69175000D03*
%TO.P,U6,5,VOUT*%
%TO.N,+3V3*%
X81450000Y-69175000D03*
%TD*%
D19*
%TO.P,R22,1*%
%TO.N,Net-(DRV3-AVREF)*%
X105389468Y-94130500D03*
%TO.P,R22,2*%
%TO.N,+3V3*%
X105389468Y-92305500D03*
%TD*%
D20*
%TO.P,L1,1,1*%
%TO.N,+3V3*%
X102916500Y-74750000D03*
%TO.P,L1,2,2*%
%TO.N,VREF+*%
X100791500Y-74750000D03*
%TD*%
D21*
%TO.P,R21,1*%
%TO.N,GND*%
X76096500Y-94234000D03*
%TO.P,R21,2*%
%TO.N,Net-(DRV1-AVREF)*%
X74271500Y-94234000D03*
%TD*%
D22*
%TO.P,D1,1,K*%
%TO.N,PC13*%
X89000000Y-77062500D03*
%TO.P,D1,2,A*%
%TO.N,Net-(D1-A)*%
X89000000Y-78937500D03*
%TD*%
D19*
%TO.P,R10,1*%
%TO.N,Net-(DRV4-AVREF)*%
X121920000Y-94130500D03*
%TO.P,R10,2*%
%TO.N,+3V3*%
X121920000Y-92305500D03*
%TD*%
D23*
%TO.P,C12,1*%
%TO.N,GND*%
X100584000Y-66228000D03*
%TO.P,C12,2*%
%TO.N,+3V3*%
X100584000Y-64328000D03*
%TD*%
D24*
%TO.P,C2,1*%
%TO.N,GND*%
X81450000Y-71387000D03*
%TO.P,C2,2*%
%TO.N,+5V*%
X79550000Y-71387000D03*
%TD*%
D25*
%TO.P,R25,1*%
%TO.N,Net-(DRV4-ISENB)*%
X122235500Y-96520000D03*
%TO.P,R25,2*%
%TO.N,GND*%
X125160500Y-96520000D03*
%TD*%
D26*
%TO.P,C22,1*%
%TO.N,GND*%
X67834000Y-90170000D03*
%TO.P,C22,2*%
%TO.N,+15V*%
X69834000Y-90170000D03*
%TD*%
D27*
%TO.P,J1,1,VBUS*%
%TO.N,+5V*%
X76887500Y-66850000D03*
D28*
%TO.P,J1,2,D-*%
%TO.N,Net-(J1-D-)*%
X76887500Y-64350000D03*
%TO.P,J1,3,D+*%
%TO.N,Net-(J1-D+)*%
X74887500Y-64350000D03*
%TO.P,J1,4,GND*%
%TO.N,GND*%
X74887500Y-66850000D03*
D29*
%TO.P,J1,5,Shield*%
X72027500Y-71600000D03*
X72027500Y-59600000D03*
%TD*%
D23*
%TO.P,C8,1*%
%TO.N,GND*%
X102616000Y-66228000D03*
%TO.P,C8,2*%
%TO.N,+3V3*%
X102616000Y-64328000D03*
%TD*%
D30*
%TO.P,R19,1*%
%TO.N,PC0*%
X78740000Y-97385500D03*
%TO.P,R19,2*%
%TO.N,Net-(D3-A)*%
X78740000Y-99210500D03*
%TD*%
D19*
%TO.P,R4,1*%
%TO.N,~{RST}*%
X93000000Y-84575000D03*
%TO.P,R4,2*%
%TO.N,+3V3*%
X93000000Y-82750000D03*
%TD*%
D15*
%TO.P,C20,1*%
%TO.N,+15V*%
X90744000Y-90170000D03*
%TO.P,C20,2*%
%TO.N,GND*%
X92644000Y-90170000D03*
%TD*%
%TO.P,C23,1*%
%TO.N,+15V*%
X74234000Y-90170000D03*
%TO.P,C23,2*%
%TO.N,GND*%
X76134000Y-90170000D03*
%TD*%
D30*
%TO.P,R20,1*%
%TO.N,PB4*%
X62230000Y-97385500D03*
%TO.P,R20,2*%
%TO.N,Net-(D4-A)*%
X62230000Y-99210500D03*
%TD*%
D31*
%TO.P,J4,1*%
%TO.N,PB1*%
X112522000Y-105410000D03*
D32*
%TO.P,J4,2*%
%TO.N,+3V3*%
X115062000Y-105410000D03*
%TO.P,J4,3*%
%TO.N,Net-(DRV4-BOUT2)*%
X117602000Y-105410000D03*
%TO.P,J4,4*%
%TO.N,Net-(DRV4-BOUT1)*%
X120142000Y-105410000D03*
%TO.P,J4,5*%
%TO.N,Net-(DRV4-AOUT2)*%
X122682000Y-105410000D03*
%TO.P,J4,6*%
%TO.N,Net-(DRV4-AOUT1)*%
X125222000Y-105410000D03*
%TD*%
D33*
%TO.P,C11,1*%
%TO.N,+15V*%
X90904000Y-100838000D03*
%TO.P,C11,2*%
%TO.N,Net-(DRV2-VCP)*%
X89944000Y-100838000D03*
%TD*%
D19*
%TO.P,R17,1*%
%TO.N,Net-(DRV1-VCP)*%
X75946000Y-102766500D03*
%TO.P,R17,2*%
%TO.N,+15V*%
X75946000Y-100941500D03*
%TD*%
D31*
%TO.P,J6,1*%
%TO.N,+3V3*%
X93225000Y-54750000D03*
D32*
%TO.P,J6,2*%
%TO.N,PB6*%
X95765000Y-54750000D03*
%TD*%
D15*
%TO.P,C26,1*%
%TO.N,Net-(DRV3-CP2)*%
X105222000Y-102597854D03*
%TO.P,C26,2*%
%TO.N,Net-(DRV3-CP1)*%
X107122000Y-102597854D03*
%TD*%
D34*
%TO.P,C6,1*%
%TO.N,GND*%
X93500000Y-80270000D03*
%TO.P,C6,2*%
%TO.N,PH0*%
X93500000Y-81230000D03*
%TD*%
D35*
%TO.P,R6,1*%
%TO.N,Net-(U7-RST)*%
X79587500Y-55110000D03*
%TO.P,R6,2*%
%TO.N,Net-(U7-VDD)*%
X81412500Y-55110000D03*
%TD*%
D19*
%TO.P,R29,1*%
%TO.N,Net-(DRV3-VCP)*%
X108945468Y-102766500D03*
%TO.P,R29,2*%
%TO.N,+15V*%
X108945468Y-100941500D03*
%TD*%
D31*
%TO.P,J7,1*%
%TO.N,PB5*%
X79502000Y-105410000D03*
D32*
%TO.P,J7,2*%
%TO.N,+3V3*%
X82042000Y-105410000D03*
%TO.P,J7,3*%
%TO.N,Net-(DRV2-BOUT2)*%
X84582000Y-105410000D03*
%TO.P,J7,4*%
%TO.N,Net-(DRV2-BOUT1)*%
X87122000Y-105410000D03*
%TO.P,J7,5*%
%TO.N,Net-(DRV2-AOUT2)*%
X89662000Y-105410000D03*
%TO.P,J7,6*%
%TO.N,Net-(DRV2-AOUT1)*%
X92202000Y-105410000D03*
%TD*%
D26*
%TO.P,C30,1*%
%TO.N,GND*%
X100838000Y-90170000D03*
%TO.P,C30,2*%
%TO.N,+15V*%
X102838000Y-90170000D03*
%TD*%
D21*
%TO.P,R2,1*%
%TO.N,BOOT0*%
X84912500Y-71350000D03*
%TO.P,R2,2*%
%TO.N,GND*%
X83087500Y-71350000D03*
%TD*%
D19*
%TO.P,R3,1*%
%TO.N,Net-(D2-A)*%
X91000000Y-84575000D03*
%TO.P,R3,2*%
%TO.N,+3V3*%
X91000000Y-82750000D03*
%TD*%
D36*
%TO.P,D3,1,K*%
%TO.N,GND*%
X78740000Y-102791500D03*
%TO.P,D3,2,A*%
%TO.N,Net-(D3-A)*%
X78740000Y-100916500D03*
%TD*%
D31*
%TO.P,J2,1*%
%TO.N,+3V3*%
X67880000Y-54750000D03*
D32*
%TO.P,J2,2*%
%TO.N,PA14*%
X70420000Y-54750000D03*
%TO.P,J2,3*%
%TO.N,GND*%
X72960000Y-54750000D03*
%TO.P,J2,4*%
%TO.N,PA13*%
X75500000Y-54750000D03*
%TD*%
D19*
%TO.P,R18,1*%
%TO.N,Net-(DRV2-VCP)*%
X92456000Y-102766500D03*
%TO.P,R18,2*%
%TO.N,+15V*%
X92456000Y-100941500D03*
%TD*%
D34*
%TO.P,C9,1*%
%TO.N,GND*%
X92500000Y-80270000D03*
%TO.P,C9,2*%
%TO.N,PH1*%
X92500000Y-81230000D03*
%TD*%
D15*
%TO.P,C5,1*%
%TO.N,Net-(DRV2-CP2)*%
X88712000Y-102616000D03*
%TO.P,C5,2*%
%TO.N,Net-(DRV2-CP1)*%
X90612000Y-102616000D03*
%TD*%
D31*
%TO.P,J8,1*%
%TO.N,PC3*%
X96012000Y-105390243D03*
D32*
%TO.P,J8,2*%
%TO.N,+3V3*%
X98552000Y-105390243D03*
%TO.P,J8,3*%
%TO.N,Net-(DRV3-BOUT2)*%
X101092000Y-105390243D03*
%TO.P,J8,4*%
%TO.N,Net-(DRV3-BOUT1)*%
X103632000Y-105390243D03*
%TO.P,J8,5*%
%TO.N,Net-(DRV3-AOUT2)*%
X106172000Y-105390243D03*
%TO.P,J8,6*%
%TO.N,Net-(DRV3-AOUT1)*%
X108712000Y-105390243D03*
%TD*%
D37*
%TO.P,DRV1,1,CP1*%
%TO.N,Net-(DRV1-CP1)*%
X70364000Y-102523000D03*
%TO.P,DRV1,2,CP2*%
%TO.N,Net-(DRV1-CP2)*%
X70364000Y-101873000D03*
%TO.P,DRV1,3,VCP*%
%TO.N,Net-(DRV1-VCP)*%
X70364000Y-101223000D03*
%TO.P,DRV1,4,VMA*%
%TO.N,+15V*%
X70364000Y-100573000D03*
%TO.P,DRV1,5,AOUT1*%
%TO.N,Net-(DRV1-AOUT1)*%
X70364000Y-99923000D03*
%TO.P,DRV1,6,ISENA*%
%TO.N,Net-(DRV1-ISENA)*%
X70364000Y-99273000D03*
%TO.P,DRV1,7,AOUT2*%
%TO.N,Net-(DRV1-AOUT2)*%
X70364000Y-98623000D03*
%TO.P,DRV1,8,BOUT2*%
%TO.N,Net-(DRV1-BOUT2)*%
X70364000Y-97973000D03*
%TO.P,DRV1,9,ISENB*%
%TO.N,Net-(DRV1-ISENB)*%
X70364000Y-97323000D03*
%TO.P,DRV1,10,BOUT1*%
%TO.N,Net-(DRV1-BOUT1)*%
X70364000Y-96673000D03*
%TO.P,DRV1,11,VMB*%
%TO.N,+15V*%
X70364000Y-96023000D03*
%TO.P,DRV1,12,AVREF*%
%TO.N,Net-(DRV1-AVREF)*%
X70364000Y-95373000D03*
%TO.P,DRV1,13,BVREF*%
X70364000Y-94723000D03*
%TO.P,DRV1,14,GND*%
%TO.N,GND*%
X70364000Y-94073000D03*
%TO.P,DRV1,15,V3P3OUT*%
%TO.N,unconnected-(DRV1-V3P3OUT-Pad15)*%
X64764000Y-94073000D03*
%TO.P,DRV1,16,~{NRESET}*%
%TO.N,PB3*%
X64764000Y-94723000D03*
%TO.P,DRV1,17,NSLEEP*%
%TO.N,PD2*%
X64764000Y-95373000D03*
%TO.P,DRV1,18,NFAULT*%
%TO.N,PB4*%
X64764000Y-96023000D03*
%TO.P,DRV1,19,DECAY*%
%TO.N,unconnected-(DRV1-DECAY-Pad19)*%
X64764000Y-96673000D03*
%TO.P,DRV1,20,DIR*%
%TO.N,DIR1*%
X64764000Y-97323000D03*
%TO.P,DRV1,21,NENBL*%
%TO.N,PC11*%
X64764000Y-97973000D03*
%TO.P,DRV1,22,STEP*%
%TO.N,PC10*%
X64764000Y-98623000D03*
%TO.P,DRV1,23*%
%TO.N,N/C*%
X64764000Y-99273000D03*
%TO.P,DRV1,24,MODE0*%
%TO.N,+3V3*%
X64764000Y-99923000D03*
%TO.P,DRV1,25,MODE1*%
X64764000Y-100573000D03*
%TO.P,DRV1,26,MODE2*%
X64764000Y-101223000D03*
%TO.P,DRV1,27,NHOME*%
%TO.N,unconnected-(DRV1-NHOME-Pad27)*%
X64764000Y-101873000D03*
%TO.P,DRV1,28,GND*%
%TO.N,GND*%
X64764000Y-102523000D03*
D38*
%TO.P,DRV1,29,EXP*%
X67564000Y-98298000D03*
D39*
%TO.P,DRV1,30,EXP*%
X67564000Y-98298000D03*
%TO.P,DRV1,31,EXP*%
X67564000Y-99598000D03*
%TO.P,DRV1,32,EXP*%
X67564000Y-100898000D03*
%TO.P,DRV1,33,EXP*%
X67564000Y-102198000D03*
%TO.P,DRV1,34,EXP*%
X67564000Y-96998000D03*
%TO.P,DRV1,35,EXP*%
X67564000Y-95698000D03*
%TO.P,DRV1,36,EXP*%
X67564000Y-94398000D03*
%TO.P,DRV1,37,EXP*%
X68864000Y-102198000D03*
%TO.P,DRV1,38,EXP*%
X66264000Y-102198000D03*
%TO.P,DRV1,39,EXP*%
X68864000Y-100898000D03*
%TO.P,DRV1,40,EXP*%
X66264000Y-100898000D03*
%TO.P,DRV1,41,EXP*%
X66264000Y-99598000D03*
%TO.P,DRV1,42,EXP*%
X68864000Y-99598000D03*
%TO.P,DRV1,43,EXP*%
X68864000Y-98298000D03*
%TO.P,DRV1,44,EXP*%
X66264000Y-98298000D03*
%TO.P,DRV1,45,EXP*%
X68864000Y-96998000D03*
%TO.P,DRV1,46,EXP*%
X66264000Y-96998000D03*
%TO.P,DRV1,47,EXP*%
X68864000Y-95698000D03*
%TO.P,DRV1,48,EXP*%
X66264000Y-95698000D03*
%TO.P,DRV1,49,EXP*%
X68864000Y-94398000D03*
%TO.P,DRV1,50,EXP*%
X66264000Y-94398000D03*
%TD*%
D40*
%TO.P,C1,1*%
%TO.N,GND*%
X83500000Y-67300000D03*
%TO.P,C1,2*%
%TO.N,+3V3*%
X83500000Y-69200000D03*
%TD*%
D15*
%TO.P,C3,1*%
%TO.N,GND*%
X83050000Y-73500000D03*
%TO.P,C3,2*%
%TO.N,+3V3*%
X84950000Y-73500000D03*
%TD*%
D21*
%TO.P,R23,1*%
%TO.N,GND*%
X109095968Y-94234000D03*
%TO.P,R23,2*%
%TO.N,Net-(DRV3-AVREF)*%
X107270968Y-94234000D03*
%TD*%
D41*
%TO.P,Y1,1,1*%
%TO.N,PC15*%
X93250000Y-78500000D03*
%TO.P,Y1,2,2*%
%TO.N,PC14*%
X90750000Y-78500000D03*
%TD*%
D15*
%TO.P,C17,1*%
%TO.N,+5V*%
X79550000Y-73387000D03*
%TO.P,C17,2*%
%TO.N,GND*%
X81450000Y-73387000D03*
%TD*%
D36*
%TO.P,D4,1,K*%
%TO.N,GND*%
X62230000Y-102630500D03*
%TO.P,D4,2,A*%
%TO.N,Net-(D4-A)*%
X62230000Y-100755500D03*
%TD*%
D30*
%TO.P,R30,1*%
%TO.N,PC5*%
X111760000Y-97385500D03*
%TO.P,R30,2*%
%TO.N,Net-(D5-A)*%
X111760000Y-99210500D03*
%TD*%
D21*
%TO.P,R11,1*%
%TO.N,GND*%
X125626500Y-94234000D03*
%TO.P,R11,2*%
%TO.N,Net-(DRV4-AVREF)*%
X123801500Y-94234000D03*
%TD*%
D33*
%TO.P,C28,1*%
%TO.N,+15V*%
X107393468Y-100838000D03*
%TO.P,C28,2*%
%TO.N,Net-(DRV3-VCP)*%
X106433468Y-100838000D03*
%TD*%
D25*
%TO.P,R14,1*%
%TO.N,Net-(DRV2-ISENB)*%
X89215500Y-96520000D03*
%TO.P,R14,2*%
%TO.N,GND*%
X92140500Y-96520000D03*
%TD*%
D30*
%TO.P,R31,1*%
%TO.N,PA5*%
X95229468Y-97385500D03*
%TO.P,R31,2*%
%TO.N,Net-(D6-A)*%
X95229468Y-99210500D03*
%TD*%
D36*
%TO.P,D6,1,K*%
%TO.N,GND*%
X95229468Y-102791500D03*
%TO.P,D6,2,A*%
%TO.N,Net-(D6-A)*%
X95229468Y-100916500D03*
%TD*%
D24*
%TO.P,C13,1*%
%TO.N,GND*%
X90131000Y-61637000D03*
%TO.P,C13,2*%
%TO.N,+3V3*%
X88231000Y-61637000D03*
%TD*%
D31*
%TO.P,J9,1*%
%TO.N,+5V*%
X100500000Y-60025000D03*
D32*
%TO.P,J9,2*%
%TO.N,+3V3*%
X100500000Y-57485000D03*
%TO.P,J9,3*%
%TO.N,GND*%
X100500000Y-54945000D03*
%TD*%
D26*
%TO.P,C29,1*%
%TO.N,GND*%
X117348000Y-90170000D03*
%TO.P,C29,2*%
%TO.N,+15V*%
X119348000Y-90170000D03*
%TD*%
D36*
%TO.P,D5,1,K*%
%TO.N,GND*%
X111760000Y-102791500D03*
%TO.P,D5,2,A*%
%TO.N,Net-(D5-A)*%
X111760000Y-100916500D03*
%TD*%
D25*
%TO.P,R26,1*%
%TO.N,Net-(DRV3-ISENA)*%
X105704968Y-98806000D03*
%TO.P,R26,2*%
%TO.N,GND*%
X108629968Y-98806000D03*
%TD*%
D15*
%TO.P,C34,1*%
%TO.N,+15V*%
X107233468Y-92202000D03*
%TO.P,C34,2*%
%TO.N,GND*%
X109133468Y-92202000D03*
%TD*%
%TO.P,C21,1*%
%TO.N,+15V*%
X90744000Y-92202000D03*
%TO.P,C21,2*%
%TO.N,GND*%
X92644000Y-92202000D03*
%TD*%
D37*
%TO.P,DRV2,1,CP1*%
%TO.N,Net-(DRV2-CP1)*%
X86874000Y-102523000D03*
%TO.P,DRV2,2,CP2*%
%TO.N,Net-(DRV2-CP2)*%
X86874000Y-101873000D03*
%TO.P,DRV2,3,VCP*%
%TO.N,Net-(DRV2-VCP)*%
X86874000Y-101223000D03*
%TO.P,DRV2,4,VMA*%
%TO.N,+15V*%
X86874000Y-100573000D03*
%TO.P,DRV2,5,AOUT1*%
%TO.N,Net-(DRV2-AOUT1)*%
X86874000Y-99923000D03*
%TO.P,DRV2,6,ISENA*%
%TO.N,Net-(DRV2-ISENA)*%
X86874000Y-99273000D03*
%TO.P,DRV2,7,AOUT2*%
%TO.N,Net-(DRV2-AOUT2)*%
X86874000Y-98623000D03*
%TO.P,DRV2,8,BOUT2*%
%TO.N,Net-(DRV2-BOUT2)*%
X86874000Y-97973000D03*
%TO.P,DRV2,9,ISENB*%
%TO.N,Net-(DRV2-ISENB)*%
X86874000Y-97323000D03*
%TO.P,DRV2,10,BOUT1*%
%TO.N,Net-(DRV2-BOUT1)*%
X86874000Y-96673000D03*
%TO.P,DRV2,11,VMB*%
%TO.N,+15V*%
X86874000Y-96023000D03*
%TO.P,DRV2,12,AVREF*%
%TO.N,Net-(DRV2-AVREF)*%
X86874000Y-95373000D03*
%TO.P,DRV2,13,BVREF*%
X86874000Y-94723000D03*
%TO.P,DRV2,14,GND*%
%TO.N,GND*%
X86874000Y-94073000D03*
%TO.P,DRV2,15,V3P3OUT*%
%TO.N,unconnected-(DRV2-V3P3OUT-Pad15)*%
X81274000Y-94073000D03*
%TO.P,DRV2,16,~{NRESET}*%
%TO.N,PC2*%
X81274000Y-94723000D03*
%TO.P,DRV2,17,NSLEEP*%
%TO.N,PC1*%
X81274000Y-95373000D03*
%TO.P,DRV2,18,NFAULT*%
%TO.N,PC0*%
X81274000Y-96023000D03*
%TO.P,DRV2,19,DECAY*%
%TO.N,unconnected-(DRV2-DECAY-Pad19)*%
X81274000Y-96673000D03*
%TO.P,DRV2,20,DIR*%
%TO.N,DIR2*%
X81274000Y-97323000D03*
%TO.P,DRV2,21,NENBL*%
%TO.N,PB8*%
X81274000Y-97973000D03*
%TO.P,DRV2,22,STEP*%
%TO.N,PB7*%
X81274000Y-98623000D03*
%TO.P,DRV2,23*%
%TO.N,N/C*%
X81274000Y-99273000D03*
%TO.P,DRV2,24,MODE0*%
%TO.N,+3V3*%
X81274000Y-99923000D03*
%TO.P,DRV2,25,MODE1*%
X81274000Y-100573000D03*
%TO.P,DRV2,26,MODE2*%
X81274000Y-101223000D03*
%TO.P,DRV2,27,NHOME*%
%TO.N,unconnected-(DRV2-NHOME-Pad27)*%
X81274000Y-101873000D03*
%TO.P,DRV2,28,GND*%
%TO.N,GND*%
X81274000Y-102523000D03*
D38*
%TO.P,DRV2,29,EXP*%
X84074000Y-98298000D03*
D39*
%TO.P,DRV2,30,EXP*%
X84074000Y-98298000D03*
%TO.P,DRV2,31,EXP*%
X84074000Y-99598000D03*
%TO.P,DRV2,32,EXP*%
X84074000Y-100898000D03*
%TO.P,DRV2,33,EXP*%
X84074000Y-102198000D03*
%TO.P,DRV2,34,EXP*%
X84074000Y-96998000D03*
%TO.P,DRV2,35,EXP*%
X84074000Y-95698000D03*
%TO.P,DRV2,36,EXP*%
X84074000Y-94398000D03*
%TO.P,DRV2,37,EXP*%
X85374000Y-102198000D03*
%TO.P,DRV2,38,EXP*%
X82774000Y-102198000D03*
%TO.P,DRV2,39,EXP*%
X85374000Y-100898000D03*
%TO.P,DRV2,40,EXP*%
X82774000Y-100898000D03*
%TO.P,DRV2,41,EXP*%
X82774000Y-99598000D03*
%TO.P,DRV2,42,EXP*%
X85374000Y-99598000D03*
%TO.P,DRV2,43,EXP*%
X85374000Y-98298000D03*
%TO.P,DRV2,44,EXP*%
X82774000Y-98298000D03*
%TO.P,DRV2,45,EXP*%
X85374000Y-96998000D03*
%TO.P,DRV2,46,EXP*%
X82774000Y-96998000D03*
%TO.P,DRV2,47,EXP*%
X85374000Y-95698000D03*
%TO.P,DRV2,48,EXP*%
X82774000Y-95698000D03*
%TO.P,DRV2,49,EXP*%
X85374000Y-94398000D03*
%TO.P,DRV2,50,EXP*%
X82774000Y-94398000D03*
%TD*%
D37*
%TO.P,DRV3,1,CP1*%
%TO.N,Net-(DRV3-CP1)*%
X103384000Y-102523000D03*
%TO.P,DRV3,2,CP2*%
%TO.N,Net-(DRV3-CP2)*%
X103384000Y-101873000D03*
%TO.P,DRV3,3,VCP*%
%TO.N,Net-(DRV3-VCP)*%
X103384000Y-101223000D03*
%TO.P,DRV3,4,VMA*%
%TO.N,+15V*%
X103384000Y-100573000D03*
%TO.P,DRV3,5,AOUT1*%
%TO.N,Net-(DRV3-AOUT1)*%
X103384000Y-99923000D03*
%TO.P,DRV3,6,ISENA*%
%TO.N,Net-(DRV3-ISENA)*%
X103384000Y-99273000D03*
%TO.P,DRV3,7,AOUT2*%
%TO.N,Net-(DRV3-AOUT2)*%
X103384000Y-98623000D03*
%TO.P,DRV3,8,BOUT2*%
%TO.N,Net-(DRV3-BOUT2)*%
X103384000Y-97973000D03*
%TO.P,DRV3,9,ISENB*%
%TO.N,Net-(DRV3-ISENB)*%
X103384000Y-97323000D03*
%TO.P,DRV3,10,BOUT1*%
%TO.N,Net-(DRV3-BOUT1)*%
X103384000Y-96673000D03*
%TO.P,DRV3,11,VMB*%
%TO.N,+15V*%
X103384000Y-96023000D03*
%TO.P,DRV3,12,AVREF*%
%TO.N,Net-(DRV3-AVREF)*%
X103384000Y-95373000D03*
%TO.P,DRV3,13,BVREF*%
X103384000Y-94723000D03*
%TO.P,DRV3,14,GND*%
%TO.N,GND*%
X103384000Y-94073000D03*
%TO.P,DRV3,15,V3P3OUT*%
%TO.N,unconnected-(DRV3-V3P3OUT-Pad15)*%
X97784000Y-94073000D03*
%TO.P,DRV3,16,~{NRESET}*%
%TO.N,PA6*%
X97784000Y-94723000D03*
%TO.P,DRV3,17,NSLEEP*%
%TO.N,PA3*%
X97784000Y-95373000D03*
%TO.P,DRV3,18,NFAULT*%
%TO.N,PA5*%
X97784000Y-96023000D03*
%TO.P,DRV3,19,DECAY*%
%TO.N,unconnected-(DRV3-DECAY-Pad19)*%
X97784000Y-96673000D03*
%TO.P,DRV3,20,DIR*%
%TO.N,DIR3*%
X97784000Y-97323000D03*
%TO.P,DRV3,21,NENBL*%
%TO.N,PA1*%
X97784000Y-97973000D03*
%TO.P,DRV3,22,STEP*%
%TO.N,PA2*%
X97784000Y-98623000D03*
%TO.P,DRV3,23*%
%TO.N,N/C*%
X97784000Y-99273000D03*
%TO.P,DRV3,24,MODE0*%
%TO.N,+3V3*%
X97784000Y-99923000D03*
%TO.P,DRV3,25,MODE1*%
X97784000Y-100573000D03*
%TO.P,DRV3,26,MODE2*%
X97784000Y-101223000D03*
%TO.P,DRV3,27,NHOME*%
%TO.N,unconnected-(DRV3-NHOME-Pad27)*%
X97784000Y-101873000D03*
%TO.P,DRV3,28,GND*%
%TO.N,GND*%
X97784000Y-102523000D03*
D38*
%TO.P,DRV3,29,EXP*%
X100584000Y-98298000D03*
D39*
%TO.P,DRV3,30,EXP*%
X100584000Y-98298000D03*
%TO.P,DRV3,31,EXP*%
X100584000Y-99598000D03*
%TO.P,DRV3,32,EXP*%
X100584000Y-100898000D03*
%TO.P,DRV3,33,EXP*%
X100584000Y-102198000D03*
%TO.P,DRV3,34,EXP*%
X100584000Y-96998000D03*
%TO.P,DRV3,35,EXP*%
X100584000Y-95698000D03*
%TO.P,DRV3,36,EXP*%
X100584000Y-94398000D03*
%TO.P,DRV3,37,EXP*%
X101884000Y-102198000D03*
%TO.P,DRV3,38,EXP*%
X99284000Y-102198000D03*
%TO.P,DRV3,39,EXP*%
X101884000Y-100898000D03*
%TO.P,DRV3,40,EXP*%
X99284000Y-100898000D03*
%TO.P,DRV3,41,EXP*%
X99284000Y-99598000D03*
%TO.P,DRV3,42,EXP*%
X101884000Y-99598000D03*
%TO.P,DRV3,43,EXP*%
X101884000Y-98298000D03*
%TO.P,DRV3,44,EXP*%
X99284000Y-98298000D03*
%TO.P,DRV3,45,EXP*%
X101884000Y-96998000D03*
%TO.P,DRV3,46,EXP*%
X99284000Y-96998000D03*
%TO.P,DRV3,47,EXP*%
X101884000Y-95698000D03*
%TO.P,DRV3,48,EXP*%
X99284000Y-95698000D03*
%TO.P,DRV3,49,EXP*%
X101884000Y-94398000D03*
%TO.P,DRV3,50,EXP*%
X99284000Y-94398000D03*
%TD*%
D33*
%TO.P,C27,1*%
%TO.N,+15V*%
X123924000Y-100838000D03*
%TO.P,C27,2*%
%TO.N,Net-(DRV4-VCP)*%
X122964000Y-100838000D03*
%TD*%
D15*
%TO.P,C25,1*%
%TO.N,Net-(DRV4-CP2)*%
X121732000Y-102616000D03*
%TO.P,C25,2*%
%TO.N,Net-(DRV4-CP1)*%
X123632000Y-102616000D03*
%TD*%
D35*
%TO.P,R9,1*%
%TO.N,Net-(U7-RST)*%
X79636550Y-57116423D03*
%TO.P,R9,2*%
%TO.N,Net-(U7-VDD)*%
X81461550Y-57116423D03*
%TD*%
D34*
%TO.P,C10,1*%
%TO.N,PC15*%
X91500000Y-80270000D03*
%TO.P,C10,2*%
%TO.N,GND*%
X91500000Y-81230000D03*
%TD*%
D40*
%TO.P,C19,1*%
%TO.N,Net-(U1-VCAP1)*%
X103000000Y-71250000D03*
%TO.P,C19,2*%
%TO.N,GND*%
X103000000Y-73150000D03*
%TD*%
D22*
%TO.P,D2,1,K*%
%TO.N,GND*%
X89000000Y-84062500D03*
%TO.P,D2,2,A*%
%TO.N,Net-(D2-A)*%
X89000000Y-85937500D03*
%TD*%
D25*
%TO.P,R27,1*%
%TO.N,Net-(DRV3-ISENB)*%
X105704968Y-96520000D03*
%TO.P,R27,2*%
%TO.N,GND*%
X108629968Y-96520000D03*
%TD*%
D40*
%TO.P,C4,1*%
%TO.N,GND*%
X101000000Y-71250000D03*
%TO.P,C4,2*%
%TO.N,VREF+*%
X101000000Y-73150000D03*
%TD*%
D15*
%TO.P,C24,1*%
%TO.N,+15V*%
X74234000Y-92202000D03*
%TO.P,C24,2*%
%TO.N,GND*%
X76134000Y-92202000D03*
%TD*%
D30*
%TO.P,R8,1*%
%TO.N,Net-(D1-A)*%
X89000000Y-80587500D03*
%TO.P,R8,2*%
%TO.N,+3V3*%
X89000000Y-82412500D03*
%TD*%
D42*
%TO.P,U1,1,VBAT*%
%TO.N,unconnected-(U1-VBAT-Pad1)*%
X89000000Y-75175000D03*
%TO.P,U1,2,PC13*%
%TO.N,PC13*%
X89500000Y-75175000D03*
%TO.P,U1,3,PC14*%
%TO.N,PC14*%
X90000000Y-75175000D03*
%TO.P,U1,4,PC15*%
%TO.N,PC15*%
X90500000Y-75175000D03*
%TO.P,U1,5,PH0*%
%TO.N,PH0*%
X91000000Y-75175000D03*
%TO.P,U1,6,PH1*%
%TO.N,PH1*%
X91500000Y-75175000D03*
%TO.P,U1,7,NRST*%
%TO.N,~{RST}*%
X92000000Y-75175000D03*
%TO.P,U1,8,PC0*%
%TO.N,PC0*%
X92500000Y-75175000D03*
%TO.P,U1,9,PC1*%
%TO.N,PC1*%
X93000000Y-75175000D03*
%TO.P,U1,10,PC2*%
%TO.N,PC2*%
X93500000Y-75175000D03*
%TO.P,U1,11,PC3*%
%TO.N,PC3*%
X94000000Y-75175000D03*
%TO.P,U1,12,VSSA*%
%TO.N,GND*%
X94500000Y-75175000D03*
%TO.P,U1,13,VDDA*%
%TO.N,VREF+*%
X95000000Y-75175000D03*
%TO.P,U1,14,PA0*%
%TO.N,PA0*%
X95500000Y-75175000D03*
%TO.P,U1,15,PA1*%
%TO.N,PA1*%
X96000000Y-75175000D03*
%TO.P,U1,16,PA2*%
%TO.N,PA2*%
X96500000Y-75175000D03*
D43*
%TO.P,U1,17,PA3*%
%TO.N,PA3*%
X98425000Y-73250000D03*
%TO.P,U1,18,VSS*%
%TO.N,GND*%
X98425000Y-72750000D03*
%TO.P,U1,19,VDD*%
%TO.N,+3V3*%
X98425000Y-72250000D03*
%TO.P,U1,20,PA4*%
%TO.N,DIR3*%
X98425000Y-71750000D03*
%TO.P,U1,21,PA5*%
%TO.N,PA5*%
X98425000Y-71250000D03*
%TO.P,U1,22,PA6*%
%TO.N,PA6*%
X98425000Y-70750000D03*
%TO.P,U1,23,PA7*%
%TO.N,PA7*%
X98425000Y-70250000D03*
%TO.P,U1,24,PC4*%
%TO.N,PC4*%
X98425000Y-69750000D03*
%TO.P,U1,25,PC5*%
%TO.N,PC5*%
X98425000Y-69250000D03*
%TO.P,U1,26,PB0*%
%TO.N,PB0*%
X98425000Y-68750000D03*
%TO.P,U1,27,PB1*%
%TO.N,PB1*%
X98425000Y-68250000D03*
%TO.P,U1,28,PB2*%
%TO.N,PB2*%
X98425000Y-67750000D03*
%TO.P,U1,29,PB10*%
%TO.N,DIR4*%
X98425000Y-67250000D03*
%TO.P,U1,30,VCAP1*%
%TO.N,Net-(U1-VCAP1)*%
X98425000Y-66750000D03*
%TO.P,U1,31,VSS*%
%TO.N,GND*%
X98425000Y-66250000D03*
%TO.P,U1,32,VDD*%
%TO.N,+3V3*%
X98425000Y-65750000D03*
D42*
%TO.P,U1,33,PB12*%
%TO.N,PB12*%
X96500000Y-63825000D03*
%TO.P,U1,34,PB13*%
%TO.N,PB13*%
X96000000Y-63825000D03*
%TO.P,U1,35,PB14*%
%TO.N,PB14*%
X95500000Y-63825000D03*
%TO.P,U1,36,PB15*%
%TO.N,PB15*%
X95000000Y-63825000D03*
%TO.P,U1,37,PC6*%
%TO.N,PC6*%
X94500000Y-63825000D03*
%TO.P,U1,38,PC7*%
%TO.N,PC7*%
X94000000Y-63825000D03*
%TO.P,U1,39,PC8*%
%TO.N,PC8*%
X93500000Y-63825000D03*
%TO.P,U1,40,PC9*%
%TO.N,PC9*%
X93000000Y-63825000D03*
%TO.P,U1,41,PA8*%
%TO.N,PA8*%
X92500000Y-63825000D03*
%TO.P,U1,42,PA9*%
%TO.N,PA9*%
X92000000Y-63825000D03*
%TO.P,U1,43,PA10*%
%TO.N,PA10*%
X91500000Y-63825000D03*
%TO.P,U1,44,PA11*%
%TO.N,PA11*%
X91000000Y-63825000D03*
%TO.P,U1,45,PA12*%
%TO.N,PA12*%
X90500000Y-63825000D03*
%TO.P,U1,46,PA13*%
%TO.N,PA13*%
X90000000Y-63825000D03*
%TO.P,U1,47,VSS*%
%TO.N,GND*%
X89500000Y-63825000D03*
%TO.P,U1,48,VDD*%
%TO.N,+3V3*%
X89000000Y-63825000D03*
D43*
%TO.P,U1,49,PA14*%
%TO.N,PA14*%
X87075000Y-65750000D03*
%TO.P,U1,50,PA15*%
%TO.N,PA15*%
X87075000Y-66250000D03*
%TO.P,U1,51,PC10*%
%TO.N,PC10*%
X87075000Y-66750000D03*
%TO.P,U1,52,PC11*%
%TO.N,PC11*%
X87075000Y-67250000D03*
%TO.P,U1,53,PC12*%
%TO.N,DIR1*%
X87075000Y-67750000D03*
%TO.P,U1,54,PD2*%
%TO.N,PD2*%
X87075000Y-68250000D03*
%TO.P,U1,55,PB3*%
%TO.N,PB3*%
X87075000Y-68750000D03*
%TO.P,U1,56,PB4*%
%TO.N,PB4*%
X87075000Y-69250000D03*
%TO.P,U1,57,PB5*%
%TO.N,PB5*%
X87075000Y-69750000D03*
%TO.P,U1,58,PB6*%
%TO.N,PB6*%
X87075000Y-70250000D03*
%TO.P,U1,59,PB7*%
%TO.N,PB7*%
X87075000Y-70750000D03*
%TO.P,U1,60,BOOT0*%
%TO.N,BOOT0*%
X87075000Y-71250000D03*
%TO.P,U1,61,PB8*%
%TO.N,PB8*%
X87075000Y-71750000D03*
%TO.P,U1,62,PB9*%
%TO.N,DIR2*%
X87075000Y-72250000D03*
%TO.P,U1,63,VSS*%
%TO.N,GND*%
X87075000Y-72750000D03*
%TO.P,U1,64,VDD*%
%TO.N,+3V3*%
X87075000Y-73250000D03*
%TD*%
D25*
%TO.P,R16,1*%
%TO.N,Net-(DRV1-ISENB)*%
X72705500Y-96520000D03*
%TO.P,R16,2*%
%TO.N,GND*%
X75630500Y-96520000D03*
%TD*%
D40*
%TO.P,C14,1*%
%TO.N,GND*%
X95000000Y-82750000D03*
%TO.P,C14,2*%
%TO.N,~{RST}*%
X95000000Y-84650000D03*
%TD*%
D19*
%TO.P,R7,1*%
%TO.N,Net-(DRV1-AVREF)*%
X72390000Y-94130500D03*
%TO.P,R7,2*%
%TO.N,+3V3*%
X72390000Y-92305500D03*
%TD*%
%TO.P,R5,1*%
%TO.N,Net-(DRV2-AVREF)*%
X88900000Y-94130500D03*
%TO.P,R5,2*%
%TO.N,+3V3*%
X88900000Y-92305500D03*
%TD*%
D15*
%TO.P,C33,1*%
%TO.N,+15V*%
X123764000Y-92202000D03*
%TO.P,C33,2*%
%TO.N,GND*%
X125664000Y-92202000D03*
%TD*%
D19*
%TO.P,R28,1*%
%TO.N,Net-(DRV4-VCP)*%
X125476000Y-102766500D03*
%TO.P,R28,2*%
%TO.N,+15V*%
X125476000Y-100941500D03*
%TD*%
D25*
%TO.P,R13,1*%
%TO.N,Net-(DRV2-ISENA)*%
X89215500Y-98806000D03*
%TO.P,R13,2*%
%TO.N,GND*%
X92140500Y-98806000D03*
%TD*%
D44*
%TO.P,Y2,1,1*%
%TO.N,PH1*%
X94900000Y-77750000D03*
%TO.P,Y2,2,2*%
%TO.N,GND*%
X94900000Y-79950000D03*
%TO.P,Y2,3,3*%
%TO.N,PH0*%
X96600000Y-79950000D03*
%TO.P,Y2,4,4*%
%TO.N,GND*%
X96600000Y-77750000D03*
%TD*%
D45*
%TO.P,C7,1*%
%TO.N,GND*%
X90500000Y-81230000D03*
%TO.P,C7,2*%
%TO.N,PC14*%
X90500000Y-80270000D03*
%TD*%
D15*
%TO.P,C31,1*%
%TO.N,+15V*%
X123764000Y-90170000D03*
%TO.P,C31,2*%
%TO.N,GND*%
X125664000Y-90170000D03*
%TD*%
D25*
%TO.P,R15,1*%
%TO.N,Net-(DRV1-ISENA)*%
X72705500Y-98806000D03*
%TO.P,R15,2*%
%TO.N,GND*%
X75630500Y-98806000D03*
%TD*%
D21*
%TO.P,R12,1*%
%TO.N,GND*%
X92606500Y-94234000D03*
%TO.P,R12,2*%
%TO.N,Net-(DRV2-AVREF)*%
X90781500Y-94234000D03*
%TD*%
D26*
%TO.P,C18,1*%
%TO.N,GND*%
X84360000Y-90170000D03*
%TO.P,C18,2*%
%TO.N,+15V*%
X86360000Y-90170000D03*
%TD*%
D25*
%TO.P,R24,1*%
%TO.N,Net-(DRV4-ISENA)*%
X122235500Y-98806000D03*
%TO.P,R24,2*%
%TO.N,GND*%
X125160500Y-98806000D03*
%TD*%
D46*
%TO.P,U7,1,~{DCD}*%
%TO.N,PB15*%
X84242000Y-58850000D03*
%TO.P,U7,2,~{RI}*%
%TO.N,PB14*%
X83742000Y-58850000D03*
%TO.P,U7,3,GND*%
%TO.N,GND*%
X83242000Y-58850000D03*
%TO.P,U7,4,D+*%
%TO.N,Net-(J1-D+)*%
X82742000Y-58850000D03*
%TO.P,U7,5,D-*%
%TO.N,Net-(J1-D-)*%
X82242000Y-58850000D03*
%TO.P,U7,6,VDD*%
%TO.N,Net-(U7-VDD)*%
X81742000Y-58850000D03*
%TO.P,U7,7,REGIN*%
%TO.N,+5V*%
X81242000Y-58850000D03*
D47*
%TO.P,U7,8,VBUS*%
X80242000Y-59850000D03*
%TO.P,U7,9,RST*%
%TO.N,Net-(U7-RST)*%
X80242000Y-60350000D03*
%TO.P,U7,10,NC*%
%TO.N,unconnected-(U7-NC-Pad10)*%
X80242000Y-60850000D03*
%TO.P,U7,11,~{SUSPEND}*%
%TO.N,PB12*%
X80242000Y-61350000D03*
%TO.P,U7,12,SUSPEND*%
%TO.N,PB13*%
X80242000Y-61850000D03*
%TO.P,U7,13,NC*%
%TO.N,unconnected-(U7-NC-Pad13)*%
X80242000Y-62350000D03*
%TO.P,U7,14,NC*%
%TO.N,unconnected-(U7-NC-Pad14)*%
X80242000Y-62850000D03*
D46*
%TO.P,U7,15,NC*%
%TO.N,unconnected-(U7-NC-Pad15)*%
X81242000Y-63850000D03*
%TO.P,U7,16,NC*%
%TO.N,unconnected-(U7-NC-Pad16)*%
X81742000Y-63850000D03*
%TO.P,U7,17,NC*%
%TO.N,unconnected-(U7-NC-Pad17)*%
X82242000Y-63850000D03*
%TO.P,U7,18,VPP*%
%TO.N,GND*%
X82742000Y-63850000D03*
%TO.P,U7,19,NC*%
%TO.N,unconnected-(U7-NC-Pad19)*%
X83242000Y-63850000D03*
%TO.P,U7,20,NC*%
%TO.N,unconnected-(U7-NC-Pad20)*%
X83742000Y-63850000D03*
%TO.P,U7,21,NC*%
%TO.N,unconnected-(U7-NC-Pad21)*%
X84242000Y-63850000D03*
D47*
%TO.P,U7,22,NC*%
%TO.N,unconnected-(U7-NC-Pad22)*%
X85242000Y-62850000D03*
%TO.P,U7,23,~{CTS}*%
%TO.N,PA9*%
X85242000Y-62350000D03*
%TO.P,U7,24,~{RTS}*%
%TO.N,PA8*%
X85242000Y-61850000D03*
%TO.P,U7,25,RXD*%
%TO.N,PC6*%
X85242000Y-61350000D03*
%TO.P,U7,26,TXD*%
%TO.N,PC7*%
X85242000Y-60850000D03*
%TO.P,U7,27,~{DSR}*%
%TO.N,PC9*%
X85242000Y-60350000D03*
%TO.P,U7,28,~{DTR}*%
%TO.N,PC8*%
X85242000Y-59850000D03*
D48*
%TO.P,U7,29,GND_PAD*%
%TO.N,GND*%
X82742000Y-61350000D03*
%TD*%
D37*
%TO.P,DRV4,1,CP1*%
%TO.N,Net-(DRV4-CP1)*%
X119908189Y-102523000D03*
%TO.P,DRV4,2,CP2*%
%TO.N,Net-(DRV4-CP2)*%
X119908189Y-101873000D03*
%TO.P,DRV4,3,VCP*%
%TO.N,Net-(DRV4-VCP)*%
X119908189Y-101223000D03*
%TO.P,DRV4,4,VMA*%
%TO.N,+15V*%
X119908189Y-100573000D03*
%TO.P,DRV4,5,AOUT1*%
%TO.N,Net-(DRV4-AOUT1)*%
X119908189Y-99923000D03*
%TO.P,DRV4,6,ISENA*%
%TO.N,Net-(DRV4-ISENA)*%
X119908189Y-99273000D03*
%TO.P,DRV4,7,AOUT2*%
%TO.N,Net-(DRV4-AOUT2)*%
X119908189Y-98623000D03*
%TO.P,DRV4,8,BOUT2*%
%TO.N,Net-(DRV4-BOUT2)*%
X119908189Y-97973000D03*
%TO.P,DRV4,9,ISENB*%
%TO.N,Net-(DRV4-ISENB)*%
X119908189Y-97323000D03*
%TO.P,DRV4,10,BOUT1*%
%TO.N,Net-(DRV4-BOUT1)*%
X119908189Y-96673000D03*
%TO.P,DRV4,11,VMB*%
%TO.N,+15V*%
X119908189Y-96023000D03*
%TO.P,DRV4,12,AVREF*%
%TO.N,Net-(DRV4-AVREF)*%
X119908189Y-95373000D03*
%TO.P,DRV4,13,BVREF*%
X119908189Y-94723000D03*
%TO.P,DRV4,14,GND*%
%TO.N,GND*%
X119908189Y-94073000D03*
%TO.P,DRV4,15,V3P3OUT*%
%TO.N,unconnected-(DRV4-V3P3OUT-Pad15)*%
X114308189Y-94073000D03*
%TO.P,DRV4,16,~{NRESET}*%
%TO.N,PA10*%
X114308189Y-94723000D03*
%TO.P,DRV4,17,NSLEEP*%
%TO.N,PB0*%
X114308189Y-95373000D03*
%TO.P,DRV4,18,NFAULT*%
%TO.N,PC5*%
X114308189Y-96023000D03*
%TO.P,DRV4,19,DECAY*%
%TO.N,unconnected-(DRV4-DECAY-Pad19)*%
X114308189Y-96673000D03*
%TO.P,DRV4,20,DIR*%
%TO.N,DIR4*%
X114308189Y-97323000D03*
%TO.P,DRV4,21,NENBL*%
%TO.N,PC4*%
X114308189Y-97973000D03*
%TO.P,DRV4,22,STEP*%
%TO.N,PA7*%
X114308189Y-98623000D03*
%TO.P,DRV4,23*%
%TO.N,N/C*%
X114308189Y-99273000D03*
%TO.P,DRV4,24,MODE0*%
%TO.N,+3V3*%
X114308189Y-99923000D03*
%TO.P,DRV4,25,MODE1*%
X114308189Y-100573000D03*
%TO.P,DRV4,26,MODE2*%
X114308189Y-101223000D03*
%TO.P,DRV4,27,NHOME*%
%TO.N,unconnected-(DRV4-NHOME-Pad27)*%
X114308189Y-101873000D03*
%TO.P,DRV4,28,GND*%
%TO.N,GND*%
X114308189Y-102523000D03*
D38*
%TO.P,DRV4,29,EXP*%
X117108189Y-98298000D03*
D39*
%TO.P,DRV4,30,EXP*%
X117108189Y-98298000D03*
%TO.P,DRV4,31,EXP*%
X117108189Y-99598000D03*
%TO.P,DRV4,32,EXP*%
X117108189Y-100898000D03*
%TO.P,DRV4,33,EXP*%
X117108189Y-102198000D03*
%TO.P,DRV4,34,EXP*%
X117108189Y-96998000D03*
%TO.P,DRV4,35,EXP*%
X117108189Y-95698000D03*
%TO.P,DRV4,36,EXP*%
X117108189Y-94398000D03*
%TO.P,DRV4,37,EXP*%
X118408189Y-102198000D03*
%TO.P,DRV4,38,EXP*%
X115808189Y-102198000D03*
%TO.P,DRV4,39,EXP*%
X118408189Y-100898000D03*
%TO.P,DRV4,40,EXP*%
X115808189Y-100898000D03*
%TO.P,DRV4,41,EXP*%
X115808189Y-99598000D03*
%TO.P,DRV4,42,EXP*%
X118408189Y-99598000D03*
%TO.P,DRV4,43,EXP*%
X118408189Y-98298000D03*
%TO.P,DRV4,44,EXP*%
X115808189Y-98298000D03*
%TO.P,DRV4,45,EXP*%
X118408189Y-96998000D03*
%TO.P,DRV4,46,EXP*%
X115808189Y-96998000D03*
%TO.P,DRV4,47,EXP*%
X118408189Y-95698000D03*
%TO.P,DRV4,48,EXP*%
X115808189Y-95698000D03*
%TO.P,DRV4,49,EXP*%
X118408189Y-94398000D03*
%TO.P,DRV4,50,EXP*%
X115808189Y-94398000D03*
%TD*%
D21*
%TO.P,R1,1*%
%TO.N,GND*%
X102662500Y-69500000D03*
%TO.P,R1,2*%
%TO.N,PB2*%
X100837500Y-69500000D03*
%TD*%
D31*
%TO.P,J5,1*%
%TO.N,PA15*%
X62992000Y-105410000D03*
D32*
%TO.P,J5,2*%
%TO.N,+3V3*%
X65532000Y-105410000D03*
%TO.P,J5,3*%
%TO.N,Net-(DRV1-BOUT2)*%
X68072000Y-105410000D03*
%TO.P,J5,4*%
%TO.N,Net-(DRV1-BOUT1)*%
X70612000Y-105410000D03*
%TO.P,J5,5*%
%TO.N,Net-(DRV1-AOUT2)*%
X73152000Y-105410000D03*
%TO.P,J5,6*%
%TO.N,Net-(DRV1-AOUT1)*%
X75692000Y-105410000D03*
%TD*%
D33*
%TO.P,C16,1*%
%TO.N,+15V*%
X74394000Y-100838000D03*
%TO.P,C16,2*%
%TO.N,Net-(DRV1-VCP)*%
X73434000Y-100838000D03*
%TD*%
D49*
%TO.P,RV4,1,1*%
%TO.N,unconnected-(RV4-Pad1)*%
X82250000Y-83250000D03*
D50*
%TO.P,RV4,2,2*%
%TO.N,GND*%
X84790000Y-80710000D03*
%TO.P,RV4,3,3*%
%TO.N,PB6*%
X82250000Y-78170000D03*
%TD*%
D51*
%TO.N,PH0*%
X95460000Y-81210000D03*
X90999688Y-74207948D03*
%TO.N,~{RST}*%
X94908000Y-83677000D03*
X91964060Y-74156141D03*
%TO.N,GND*%
X90932000Y-66202413D03*
X97329587Y-66250000D03*
X88244852Y-72755448D03*
X84000000Y-73500000D03*
X80518000Y-68000000D03*
X82750000Y-64796000D03*
%TO.N,PB1*%
X97223000Y-68745783D03*
%TO.N,+3V3*%
X99503822Y-72248832D03*
X72390000Y-93191000D03*
X84907000Y-64300000D03*
X121920000Y-93191000D03*
X80024999Y-100584888D03*
X98450000Y-64198000D03*
X103802000Y-74760500D03*
X80813323Y-74717323D03*
X96534999Y-100584888D03*
X80322677Y-69146677D03*
X96250000Y-65650413D03*
X87837500Y-82412500D03*
X96266000Y-72259000D03*
X113044999Y-100584888D03*
X63514999Y-100584888D03*
X88173000Y-63825000D03*
X105410000Y-93191000D03*
X89987398Y-83259250D03*
X88392000Y-74930000D03*
X88900000Y-93191000D03*
%TO.N,PB3*%
X84882778Y-69204000D03*
X64770000Y-93472000D03*
%TO.N,PA13*%
X95390323Y-59109677D03*
%TO.N,PB5*%
X88388000Y-69750000D03*
%TO.N,PB6*%
X87122000Y-75184000D03*
X89492000Y-70343484D03*
X86765323Y-57198000D03*
%TO.N,BOOT0*%
X88334861Y-71055497D03*
X84074000Y-56375000D03*
%TO.N,Net-(J1-D-)*%
X82531573Y-57687779D03*
%TO.N,+5V*%
X81377323Y-64926677D03*
D52*
%TO.N,+15V*%
X86360000Y-87884000D03*
X69850000Y-87884000D03*
X102870000Y-87884000D03*
X88392000Y-87884000D03*
X105664000Y-87884000D03*
X119380000Y-87884000D03*
D51*
%TO.N,DIR1*%
X63515000Y-97282000D03*
X84922887Y-68100000D03*
%TO.N,Net-(J1-D+)*%
X83328677Y-57828677D03*
%TO.N,Net-(U7-RST)*%
X79426500Y-58298000D03*
X79426500Y-60287734D03*
%TO.N,PA7*%
X99848000Y-71122056D03*
X113045000Y-99314000D03*
%TO.N,PC3*%
X93948000Y-74052008D03*
%TO.N,PA15*%
X85090000Y-66325884D03*
%TO.N,PC2*%
X81280000Y-93472000D03*
X93824387Y-76366823D03*
%TO.N,DIR2*%
X88392000Y-71882000D03*
X80025000Y-97282000D03*
%TO.N,PA2*%
X96958000Y-75250000D03*
X96535000Y-99314000D03*
%TO.N,PA6*%
X97790000Y-93472000D03*
X97227592Y-70105156D03*
%TO.N,DIR3*%
X96535000Y-97282000D03*
X97028000Y-71882000D03*
%TO.N,PB13*%
X79294744Y-61878880D03*
X96517040Y-62623000D03*
%TO.N,DIR4*%
X97223000Y-67745783D03*
X113045000Y-97282000D03*
%TO.N,PB14*%
X85484677Y-57765323D03*
X95965040Y-62000000D03*
%TO.N,PC6*%
X86802000Y-61500000D03*
X94354000Y-62504378D03*
%TO.N,PC7*%
X92712290Y-65008758D03*
X86250000Y-60850000D03*
%TO.N,PC5*%
X99898000Y-69121677D03*
X113081750Y-96063750D03*
%TO.N,PC11*%
X63502424Y-98300424D03*
X85598000Y-67564000D03*
%TO.N,PB15*%
X95234677Y-62484677D03*
X85000000Y-58500000D03*
%TO.N,PB12*%
X97181000Y-63750000D03*
X78994000Y-60960000D03*
%TO.N,PA1*%
X96522424Y-98300424D03*
X97072000Y-76200000D03*
%TO.N,PC8*%
X93787474Y-61767313D03*
X85500000Y-59250000D03*
%TO.N,PC9*%
X92964000Y-61722000D03*
X86250000Y-59996000D03*
%TO.N,PA8*%
X87302000Y-62230000D03*
X92238355Y-62648953D03*
%TO.N,PA9*%
X92000000Y-65552000D03*
X86169002Y-62750000D03*
%TO.N,PB4*%
X88388000Y-68834000D03*
X63616250Y-96128250D03*
%TO.N,PB7*%
X85864303Y-70670491D03*
X80025000Y-99314000D03*
%TO.N,PC4*%
X99921072Y-70241000D03*
X113032424Y-98300424D03*
%TO.N,PC0*%
X80056250Y-96069250D03*
X92052000Y-76454000D03*
%TO.N,Net-(DRV1-AOUT1)*%
X71628000Y-99896000D03*
%TO.N,Net-(DRV1-AOUT2)*%
X71628000Y-98721000D03*
%TO.N,Net-(DRV1-BOUT2)*%
X71622781Y-97875000D03*
%TO.N,Net-(DRV1-BOUT1)*%
X71681980Y-96624537D03*
%TO.N,Net-(DRV2-AOUT1)*%
X88138000Y-99896000D03*
%TO.N,Net-(DRV2-AOUT2)*%
X88138000Y-98721000D03*
%TO.N,Net-(DRV2-BOUT2)*%
X88132781Y-97875000D03*
%TO.N,Net-(DRV2-BOUT1)*%
X88191980Y-96624537D03*
%TO.N,Net-(DRV3-AOUT1)*%
X104648000Y-99896000D03*
%TO.N,Net-(DRV3-AOUT2)*%
X104648000Y-98721000D03*
%TO.N,Net-(DRV3-BOUT2)*%
X104642781Y-97875000D03*
%TO.N,Net-(DRV3-BOUT1)*%
X104701980Y-96624537D03*
%TO.N,Net-(DRV4-AOUT1)*%
X121158000Y-99896000D03*
%TO.N,Net-(DRV4-AOUT2)*%
X121158000Y-98721000D03*
%TO.N,Net-(DRV4-BOUT2)*%
X121152781Y-97875000D03*
%TO.N,Net-(DRV4-BOUT1)*%
X121211980Y-96624537D03*
%TO.N,PD2*%
X85556414Y-68748414D03*
X63500000Y-95250000D03*
%TO.N,PC10*%
X85838726Y-66702884D03*
X63515000Y-99314000D03*
%TO.N,PC1*%
X80010000Y-95250000D03*
X93000000Y-76454000D03*
%TO.N,PB8*%
X85873000Y-72698000D03*
X80012424Y-98300424D03*
%TO.N,PA3*%
X98642800Y-73811000D03*
X96520000Y-95250000D03*
%TO.N,PA5*%
X97262766Y-71107939D03*
X96509250Y-96255250D03*
%TO.N,PA10*%
X91357561Y-62710439D03*
X114300000Y-93472000D03*
%TO.N,PB0*%
X113030000Y-95250000D03*
X99681000Y-68302000D03*
%TD*%
D53*
%TO.N,PH1*%
X91500000Y-76716842D02*
X92131158Y-77348000D01*
X93032000Y-81762000D02*
X96488000Y-81762000D01*
X92131158Y-77348000D02*
X94498000Y-77348000D01*
X97452000Y-79081000D02*
X97121000Y-78750000D01*
X92520000Y-81250000D02*
X92520000Y-81210000D01*
X94498000Y-77348000D02*
X94900000Y-77750000D01*
X97452000Y-80798000D02*
X97452000Y-79081000D01*
X92500000Y-81230000D02*
X93032000Y-81762000D01*
X95900000Y-78750000D02*
X94900000Y-77750000D01*
X97121000Y-78750000D02*
X95900000Y-78750000D01*
X91500000Y-75175000D02*
X91500000Y-76716842D01*
X96488000Y-81762000D02*
X97452000Y-80798000D01*
%TO.N,PH0*%
X93500000Y-81230000D02*
X95320000Y-81230000D01*
X91000000Y-74435474D02*
X91000000Y-75175000D01*
X90999688Y-74207948D02*
X90999688Y-74435162D01*
X90999688Y-74435162D02*
X91000000Y-74435474D01*
X96600000Y-80162000D02*
X96600000Y-79950000D01*
X95552000Y-81210000D02*
X96600000Y-80162000D01*
X95460000Y-81210000D02*
X95552000Y-81210000D01*
%TO.N,~{RST}*%
X94908000Y-83677000D02*
X94908000Y-84650000D01*
X93075000Y-84650000D02*
X96050000Y-84650000D01*
X92000000Y-74435474D02*
X92000000Y-75175000D01*
X96050000Y-84650000D02*
X98250000Y-82450000D01*
X98250000Y-82450000D02*
X98250000Y-82375000D01*
X93000000Y-84575000D02*
X93075000Y-84650000D01*
X91964060Y-74399534D02*
X92000000Y-74435474D01*
X91964060Y-74156141D02*
X91964060Y-74399534D01*
D54*
%TO.N,GND*%
X92606500Y-96054000D02*
X92140500Y-96520000D01*
X117380000Y-90170000D02*
X118482000Y-89068000D01*
D53*
X94971002Y-76798000D02*
X95648000Y-76798000D01*
D54*
X109116500Y-96054000D02*
X108650500Y-96520000D01*
D53*
X91540000Y-81230000D02*
X92500000Y-80270000D01*
X88244852Y-72755448D02*
X88300404Y-72811000D01*
X98425000Y-66250000D02*
X97329587Y-66250000D01*
D54*
X85374000Y-94398000D02*
X85699000Y-94073000D01*
X99284000Y-102198000D02*
X100584000Y-100898000D01*
D53*
X93939500Y-83810500D02*
X87429750Y-83810500D01*
D54*
X118719000Y-94073000D02*
X119126000Y-94073000D01*
X117094000Y-95698000D02*
X118394000Y-94398000D01*
D53*
X87429750Y-83810500D02*
X87376000Y-83864250D01*
D54*
X72027500Y-71600000D02*
X72027500Y-66750000D01*
X104394000Y-89068000D02*
X108031468Y-89068000D01*
D53*
X81450000Y-71387000D02*
X83050500Y-71387000D01*
D54*
X66264000Y-102198000D02*
X67564000Y-100898000D01*
X114294000Y-102523000D02*
X115469000Y-102523000D01*
D53*
X104250000Y-80500000D02*
X98250000Y-80500000D01*
X83050000Y-73500000D02*
X83050000Y-71387500D01*
D54*
X75032000Y-89068000D02*
X76134000Y-90170000D01*
D53*
X88244852Y-72755448D02*
X88239404Y-72750000D01*
X83050000Y-73500000D02*
X84000000Y-73500000D01*
D54*
X104250000Y-86125000D02*
X104250000Y-88924000D01*
X124562000Y-89068000D02*
X125664000Y-90170000D01*
D53*
X80500000Y-67178456D02*
X80500000Y-68018000D01*
D54*
X85699000Y-94073000D02*
X86106000Y-94073000D01*
X72027500Y-66750000D02*
X72027500Y-59600000D01*
X76096500Y-96054000D02*
X75630500Y-96520000D01*
D53*
X102662500Y-66274500D02*
X102662500Y-69500000D01*
D54*
X69189000Y-94073000D02*
X69596000Y-94073000D01*
X101884000Y-94398000D02*
X102209000Y-94073000D01*
X65939000Y-102523000D02*
X66264000Y-102198000D01*
D53*
X80322000Y-74364000D02*
X81299000Y-73387000D01*
D54*
X84074000Y-95698000D02*
X85374000Y-94398000D01*
X117364000Y-90170000D02*
X117364000Y-93368000D01*
D53*
X96600000Y-77750000D02*
X96737158Y-77750000D01*
X99906138Y-72802000D02*
X98477000Y-72802000D01*
D54*
X109154000Y-94196500D02*
X109116500Y-94234000D01*
X87376000Y-82978000D02*
X87376000Y-84328000D01*
X115794000Y-102198000D02*
X117094000Y-100898000D01*
D53*
X102638000Y-66250000D02*
X102662500Y-66274500D01*
D54*
X86074000Y-94041000D02*
X86106000Y-94073000D01*
X100838000Y-90170000D02*
X92644000Y-90170000D01*
X87376000Y-84328000D02*
X87376000Y-89068000D01*
D53*
X87376000Y-84074000D02*
X87376000Y-84328000D01*
D54*
X67700000Y-78335000D02*
X65343000Y-80692000D01*
X64764000Y-102523000D02*
X65939000Y-102523000D01*
X95515500Y-102523000D02*
X95408000Y-102630500D01*
X92606500Y-94234000D02*
X92606500Y-96054000D01*
D53*
X101000000Y-71250000D02*
X103000000Y-73250000D01*
D54*
X100854000Y-93368000D02*
X101884000Y-94398000D01*
D53*
X96033158Y-82750000D02*
X98250000Y-80533158D01*
D54*
X104250000Y-88924000D02*
X104394000Y-89068000D01*
X76134000Y-90170000D02*
X76134000Y-92202000D01*
X108650500Y-96520000D02*
X108650500Y-98806000D01*
D53*
X83243050Y-58779923D02*
X83191550Y-58831423D01*
D54*
X91542000Y-89068000D02*
X92644000Y-90170000D01*
D53*
X103000000Y-73250000D02*
X102227000Y-74023000D01*
X81450000Y-71387000D02*
X81450000Y-73387000D01*
X80500000Y-68018000D02*
X79550000Y-68968000D01*
X101000000Y-71250000D02*
X101000000Y-71708138D01*
D54*
X82449000Y-102523000D02*
X82774000Y-102198000D01*
X119094000Y-94041000D02*
X119126000Y-94073000D01*
D53*
X94900000Y-79950000D02*
X94580000Y-80270000D01*
D54*
X85750000Y-81352000D02*
X87376000Y-82978000D01*
D53*
X82742000Y-63850000D02*
X82742000Y-61350000D01*
X98364000Y-72811000D02*
X98425000Y-72750000D01*
X94500000Y-76326998D02*
X94500000Y-75175000D01*
X83050000Y-71387500D02*
X83087500Y-71350000D01*
D54*
X84074000Y-100898000D02*
X84074000Y-95698000D01*
X117348000Y-90170000D02*
X109133468Y-90170000D01*
X92140500Y-96520000D02*
X92140500Y-98806000D01*
D53*
X101000000Y-71708138D02*
X99906138Y-72802000D01*
D54*
X84360000Y-90170000D02*
X76134000Y-90170000D01*
D53*
X89580000Y-64852000D02*
X89580793Y-64851207D01*
X82742000Y-64600000D02*
X82742000Y-63850000D01*
X92192323Y-58557677D02*
X90131000Y-60619000D01*
D54*
X102209000Y-94073000D02*
X102616000Y-94073000D01*
D53*
X95648000Y-76798000D02*
X96600000Y-77750000D01*
D54*
X98959000Y-102523000D02*
X99284000Y-102198000D01*
X65343000Y-80692000D02*
X65343000Y-87679000D01*
X68864000Y-94398000D02*
X69189000Y-94073000D01*
X67700000Y-78335000D02*
X67700000Y-75927500D01*
X67564000Y-95698000D02*
X68864000Y-94398000D01*
D53*
X102227000Y-74023000D02*
X102227000Y-80500000D01*
D54*
X81274000Y-102523000D02*
X79005500Y-102523000D01*
D53*
X83191550Y-58831423D02*
X83191550Y-60831423D01*
X94500000Y-72811000D02*
X94500000Y-75175000D01*
X83191550Y-60831423D02*
X82742000Y-61280973D01*
D54*
X125664000Y-92202000D02*
X125664000Y-94196500D01*
X86106000Y-94073000D02*
X86874000Y-94073000D01*
D53*
X89500000Y-64770413D02*
X89500000Y-63825000D01*
D54*
X72127500Y-66850000D02*
X72027500Y-66750000D01*
X125160500Y-96520000D02*
X125160500Y-98806000D01*
X118394000Y-94398000D02*
X118719000Y-94073000D01*
D53*
X96887323Y-58557677D02*
X92192323Y-58557677D01*
D54*
X92644000Y-94196500D02*
X92606500Y-94234000D01*
X108031468Y-89068000D02*
X109133468Y-90170000D01*
X97784000Y-102523000D02*
X95515500Y-102523000D01*
D53*
X100500000Y-54945000D02*
X96887323Y-58557677D01*
X91500000Y-81230000D02*
X91540000Y-81230000D01*
D54*
X75630500Y-96520000D02*
X75630500Y-98806000D01*
X84360000Y-90170000D02*
X85462000Y-89068000D01*
D53*
X80518000Y-68000000D02*
X80518000Y-67196456D01*
D54*
X85598000Y-89068000D02*
X91542000Y-89068000D01*
X117364000Y-93368000D02*
X118394000Y-94398000D01*
X69596000Y-94073000D02*
X70364000Y-94073000D01*
X68936000Y-89068000D02*
X75032000Y-89068000D01*
X74887500Y-66850000D02*
X72127500Y-66850000D01*
X70075000Y-80710000D02*
X84790000Y-80710000D01*
D53*
X87387500Y-84062500D02*
X87376000Y-84074000D01*
D54*
X100854000Y-90170000D02*
X100854000Y-93368000D01*
X84344000Y-93368000D02*
X85374000Y-94398000D01*
D53*
X90378000Y-81352000D02*
X85750000Y-81352000D01*
X80500000Y-66825000D02*
X80500000Y-67178456D01*
X83050000Y-73500000D02*
X81563000Y-73500000D01*
X82750000Y-64796000D02*
X82806000Y-64852000D01*
X79550000Y-69487000D02*
X81450000Y-71387000D01*
X90131000Y-60619000D02*
X90131000Y-61637000D01*
X98425000Y-66250000D02*
X102638000Y-66250000D01*
D54*
X112025500Y-102523000D02*
X111918000Y-102630500D01*
D53*
X96737158Y-77750000D02*
X98250000Y-79262842D01*
D54*
X92644000Y-90170000D02*
X92644000Y-92202000D01*
X85750000Y-81352000D02*
X85108000Y-80710000D01*
X79005500Y-102523000D02*
X78898000Y-102630500D01*
X67834000Y-90170000D02*
X68936000Y-89068000D01*
X109154000Y-92202000D02*
X109154000Y-94196500D01*
X84344000Y-90170000D02*
X84344000Y-93368000D01*
D53*
X98477000Y-72802000D02*
X98425000Y-72750000D01*
X83050500Y-71387000D02*
X83087500Y-71350000D01*
D54*
X67564000Y-100898000D02*
X67564000Y-95698000D01*
D53*
X72027500Y-71600000D02*
X74791500Y-74364000D01*
D54*
X100584000Y-95698000D02*
X101884000Y-94398000D01*
X100854000Y-90170000D02*
X101956000Y-89068000D01*
X119126000Y-94073000D02*
X119894000Y-94073000D01*
D53*
X103000000Y-69837500D02*
X102662500Y-69500000D01*
D54*
X97784000Y-102523000D02*
X98959000Y-102523000D01*
X115469000Y-102523000D02*
X115794000Y-102198000D01*
D53*
X98250000Y-79262842D02*
X98250000Y-80500000D01*
D54*
X101956000Y-89068000D02*
X104394000Y-89068000D01*
D53*
X88239404Y-72750000D02*
X87075000Y-72750000D01*
D54*
X85108000Y-80710000D02*
X84790000Y-80710000D01*
X109116500Y-94234000D02*
X109116500Y-96054000D01*
X85462000Y-89068000D02*
X85598000Y-89068000D01*
X125626500Y-94234000D02*
X125626500Y-96054000D01*
D53*
X81563000Y-73500000D02*
X81450000Y-73387000D01*
X79550000Y-68968000D02*
X79550000Y-69487000D01*
X82806000Y-64852000D02*
X89580000Y-64852000D01*
X90500000Y-81230000D02*
X90378000Y-81352000D01*
X80518000Y-68000000D02*
X82800000Y-68000000D01*
X102862500Y-69700000D02*
X102662500Y-69500000D01*
D54*
X69564000Y-94041000D02*
X69596000Y-94073000D01*
D53*
X90932000Y-66202413D02*
X89500000Y-64770413D01*
X94796000Y-76622998D02*
X94971002Y-76798000D01*
X95000000Y-82750000D02*
X96033158Y-82750000D01*
D54*
X92644000Y-92202000D02*
X92644000Y-94196500D01*
X114294000Y-102523000D02*
X112025500Y-102523000D01*
D53*
X94580000Y-80270000D02*
X93500000Y-80270000D01*
D54*
X64764000Y-102523000D02*
X62495500Y-102523000D01*
D53*
X82750000Y-64608000D02*
X82742000Y-64600000D01*
D54*
X118482000Y-89068000D02*
X124562000Y-89068000D01*
D53*
X99002000Y-86125000D02*
X98250000Y-86125000D01*
D54*
X76134000Y-94196500D02*
X76096500Y-94234000D01*
D53*
X98250000Y-80500000D02*
X99002000Y-80500000D01*
D54*
X76096500Y-94234000D02*
X76096500Y-96054000D01*
X76134000Y-92202000D02*
X76134000Y-94196500D01*
X125664000Y-90170000D02*
X125664000Y-92202000D01*
X104250000Y-86125000D02*
X98250000Y-86125000D01*
D53*
X82750000Y-64796000D02*
X82750000Y-64608000D01*
X82800000Y-68000000D02*
X83500000Y-67300000D01*
X94796000Y-76622998D02*
X94500000Y-76326998D01*
D54*
X62495500Y-102523000D02*
X62388000Y-102630500D01*
X125664000Y-94196500D02*
X125626500Y-94234000D01*
X109154000Y-90170000D02*
X109154000Y-92202000D01*
D53*
X99002000Y-80500000D02*
X99002000Y-86125000D01*
D54*
X65343000Y-87679000D02*
X67834000Y-90170000D01*
X102616000Y-94073000D02*
X103384000Y-94073000D01*
X67700000Y-75927500D02*
X72027500Y-71600000D01*
X67834000Y-90170000D02*
X67834000Y-93368000D01*
D53*
X81299000Y-73387000D02*
X81450000Y-73387000D01*
X92500000Y-80270000D02*
X93500000Y-80270000D01*
D54*
X67700000Y-78335000D02*
X70075000Y-80710000D01*
D53*
X95000000Y-82750000D02*
X93939500Y-83810500D01*
X88300404Y-72811000D02*
X98364000Y-72811000D01*
D54*
X82774000Y-102198000D02*
X84074000Y-100898000D01*
D53*
X98250000Y-80533158D02*
X98250000Y-80500000D01*
D54*
X81274000Y-102523000D02*
X82449000Y-102523000D01*
D53*
X74791500Y-74364000D02*
X80322000Y-74364000D01*
X90500000Y-81230000D02*
X91500000Y-81230000D01*
D54*
X100584000Y-100898000D02*
X100584000Y-95698000D01*
D53*
X89500000Y-62268000D02*
X89500000Y-63825000D01*
D54*
X125626500Y-96054000D02*
X125160500Y-96520000D01*
X102584000Y-94041000D02*
X102616000Y-94073000D01*
X67834000Y-93368000D02*
X68864000Y-94398000D01*
D53*
X80518000Y-67196456D02*
X80500000Y-67178456D01*
X90131000Y-61637000D02*
X89500000Y-62268000D01*
D54*
X117094000Y-100898000D02*
X117094000Y-95698000D01*
D53*
%TO.N,VREF+*%
X100791500Y-74750000D02*
X97350902Y-74750000D01*
X95000000Y-74402315D02*
X95000000Y-75175000D01*
X95254315Y-74148000D02*
X95000000Y-74402315D01*
X100791500Y-73358500D02*
X101000000Y-73150000D01*
X100791500Y-74750000D02*
X100791500Y-73358500D01*
X97350902Y-74750000D02*
X96748902Y-74148000D01*
X96748902Y-74148000D02*
X95254315Y-74148000D01*
%TO.N,PA0*%
X98248000Y-76752000D02*
X96304316Y-76752000D01*
X95500000Y-75947684D02*
X95500000Y-75175000D01*
X96304316Y-76752000D02*
X95500000Y-75947684D01*
X98250000Y-76750000D02*
X98248000Y-76752000D01*
%TO.N,PB1*%
X97685474Y-68250000D02*
X98425000Y-68250000D01*
X97223000Y-68745783D02*
X97398000Y-68570783D01*
X97398000Y-68570783D02*
X97398000Y-68537474D01*
X97398000Y-68537474D02*
X97685474Y-68250000D01*
%TO.N,PB2*%
X99909646Y-67750000D02*
X100837500Y-68677854D01*
X98425000Y-67750000D02*
X99909646Y-67750000D01*
X100837500Y-68677854D02*
X100837500Y-69500000D01*
%TO.N,Net-(U1-VCAP1)*%
X101898000Y-70164862D02*
X101898000Y-69131138D01*
X103000000Y-71250000D02*
X102983138Y-71250000D01*
X102983138Y-71250000D02*
X101898000Y-70164862D01*
X99516862Y-66750000D02*
X98425000Y-66750000D01*
X101898000Y-69131138D02*
X99516862Y-66750000D01*
%TO.N,+3V3*%
X88392000Y-74930000D02*
X88392000Y-74621500D01*
X104140000Y-65852000D02*
X104140000Y-74422500D01*
X83500000Y-69200000D02*
X83852000Y-69552000D01*
X88231000Y-61637000D02*
X88231000Y-59731000D01*
X80351000Y-69175000D02*
X81450000Y-69175000D01*
X83774000Y-74676000D02*
X84950000Y-73500000D01*
X98450000Y-64198000D02*
X102486000Y-64198000D01*
X96266000Y-72259000D02*
X96441000Y-72434000D01*
X84950000Y-73500000D02*
X85200000Y-73250000D01*
X98425000Y-72250000D02*
X99502654Y-72250000D01*
X80322677Y-69146677D02*
X80351000Y-69175000D01*
X81475000Y-69200000D02*
X81450000Y-69175000D01*
X88231000Y-59731000D02*
X85698000Y-57198000D01*
X96250000Y-65650413D02*
X98325413Y-65650413D01*
X82498000Y-53377000D02*
X83250000Y-52625000D01*
X104140000Y-74422500D02*
X103812500Y-74750000D01*
X114294000Y-100573000D02*
X113056887Y-100573000D01*
X80813323Y-74717323D02*
X80854646Y-74676000D01*
X85200000Y-73250000D02*
X87075000Y-73250000D01*
X89000000Y-82412500D02*
X90662500Y-82412500D01*
X67880000Y-54750000D02*
X69253000Y-53377000D01*
X97256646Y-72434000D02*
X97440646Y-72250000D01*
X98450000Y-64450000D02*
X98425000Y-64475000D01*
X81274000Y-99923000D02*
X81274000Y-101223000D01*
X83500000Y-69200000D02*
X81475000Y-69200000D01*
X64764000Y-99923000D02*
X64764000Y-101223000D01*
X88900000Y-93191000D02*
X88900000Y-92305500D01*
X96250000Y-72243000D02*
X96250000Y-65750000D01*
X96546887Y-100573000D02*
X96534999Y-100584888D01*
X105410000Y-93191000D02*
X105410000Y-92305500D01*
X114294000Y-99923000D02*
X114294000Y-101223000D01*
X103802000Y-74760500D02*
X103812500Y-74750000D01*
X97784000Y-100573000D02*
X96546887Y-100573000D01*
X97784000Y-99923000D02*
X97784000Y-101223000D01*
X98425000Y-72250000D02*
X98448944Y-72226056D01*
X91100000Y-52625000D02*
X93225000Y-54750000D01*
X88173000Y-63825000D02*
X88173000Y-61645000D01*
X113056887Y-100573000D02*
X113044999Y-100584888D01*
X87837500Y-82412500D02*
X89000000Y-82412500D01*
X121920000Y-93191000D02*
X121920000Y-92305500D01*
X80036887Y-100573000D02*
X80024999Y-100584888D01*
X92662500Y-82412500D02*
X93000000Y-82750000D01*
X80854646Y-74676000D02*
X83774000Y-74676000D01*
X83852000Y-69552000D02*
X83852000Y-72402000D01*
X85382000Y-63825000D02*
X88173000Y-63825000D01*
X72390000Y-93191000D02*
X72390000Y-92305500D01*
X84907000Y-64300000D02*
X85382000Y-63825000D01*
X89987398Y-82483898D02*
X89916000Y-82412500D01*
X102486000Y-64198000D02*
X104140000Y-65852000D01*
X97440646Y-72250000D02*
X98425000Y-72250000D01*
X103812500Y-74750000D02*
X102916500Y-74750000D01*
X89000000Y-63825000D02*
X88173000Y-63825000D01*
X84950000Y-73500000D02*
X83852000Y-72402000D01*
X96266000Y-72259000D02*
X96250000Y-72243000D01*
X82498000Y-56873560D02*
X82498000Y-53377000D01*
X98425000Y-64475000D02*
X98425000Y-65750000D01*
X63526887Y-100573000D02*
X63514999Y-100584888D01*
X85698000Y-57198000D02*
X82822440Y-57198000D01*
X87075000Y-73304500D02*
X87075000Y-73250000D01*
X83250000Y-52625000D02*
X91100000Y-52625000D01*
X81274000Y-100573000D02*
X80036887Y-100573000D01*
X82822440Y-57198000D02*
X82498000Y-56873560D01*
X69253000Y-53377000D02*
X82498000Y-53377000D01*
X88392000Y-74621500D02*
X87075000Y-73304500D01*
X98325413Y-65650413D02*
X98425000Y-65750000D01*
X64764000Y-100573000D02*
X63526887Y-100573000D01*
X89916000Y-82412500D02*
X92662500Y-82412500D01*
X89987398Y-83259250D02*
X89987398Y-82483898D01*
X99502654Y-72250000D02*
X99503822Y-72248832D01*
X98450000Y-64198000D02*
X98450000Y-64450000D01*
X96441000Y-72434000D02*
X97256646Y-72434000D01*
%TO.N,PB3*%
X64770000Y-93472000D02*
X63911000Y-93472000D01*
X84882778Y-69204000D02*
X85020778Y-69342000D01*
X63712000Y-93671000D02*
X63712000Y-94475000D01*
X63712000Y-94475000D02*
X63960000Y-94723000D01*
X85743474Y-69342000D02*
X86335474Y-68750000D01*
X63960000Y-94723000D02*
X64764000Y-94723000D01*
X85020778Y-69342000D02*
X85743474Y-69342000D01*
X86335474Y-68750000D02*
X87075000Y-68750000D01*
X63911000Y-93472000D02*
X63712000Y-93671000D01*
%TO.N,PA13*%
X95390323Y-59109677D02*
X92640323Y-59109677D01*
X90000000Y-63085474D02*
X90000000Y-63825000D01*
X90489354Y-62798000D02*
X90287474Y-62798000D01*
X92640323Y-59109677D02*
X91202354Y-60547646D01*
X90287474Y-62798000D02*
X90000000Y-63085474D01*
X91202354Y-62085000D02*
X90489354Y-62798000D01*
X91202354Y-60547646D02*
X91202354Y-62085000D01*
%TO.N,PA14*%
X87075000Y-65750000D02*
X86368633Y-65750000D01*
X86344749Y-65773884D02*
X81443884Y-65773884D01*
X81443884Y-65773884D02*
X70420000Y-54750000D01*
X86368633Y-65750000D02*
X86344749Y-65773884D01*
%TO.N,PB5*%
X88388000Y-69750000D02*
X87075000Y-69750000D01*
%TO.N,PB6*%
X86765323Y-57198000D02*
X93817000Y-57198000D01*
X82250000Y-78170000D02*
X84136000Y-78170000D01*
X89492000Y-70343484D02*
X89450516Y-70302000D01*
X87127000Y-70302000D02*
X87075000Y-70250000D01*
X93817000Y-57198000D02*
X96265000Y-54750000D01*
X89450516Y-70302000D02*
X87127000Y-70302000D01*
X84136000Y-78170000D02*
X87122000Y-75184000D01*
%TO.N,BOOT0*%
X84074000Y-56375000D02*
X89250000Y-56375000D01*
X88084141Y-71306217D02*
X87131217Y-71306217D01*
X85012500Y-71250000D02*
X84912500Y-71350000D01*
X83375000Y-56375000D02*
X83250000Y-56250000D01*
X87131217Y-71306217D02*
X87075000Y-71250000D01*
X87075000Y-71250000D02*
X85012500Y-71250000D01*
X88334861Y-71055497D02*
X88084141Y-71306217D01*
X84074000Y-56375000D02*
X83375000Y-56375000D01*
%TO.N,Net-(D1-A)*%
X89000000Y-80587500D02*
X89000000Y-78937500D01*
%TO.N,Net-(D2-A)*%
X89000000Y-85937500D02*
X89637500Y-85937500D01*
X89637500Y-85937500D02*
X91000000Y-84575000D01*
%TO.N,Net-(J1-D-)*%
X82242000Y-57977352D02*
X82242000Y-58850000D01*
X82531573Y-57687779D02*
X82242000Y-57977352D01*
X82226050Y-58796923D02*
X82191550Y-58831423D01*
%TO.N,+5V*%
X81450000Y-66825000D02*
X81450000Y-66471544D01*
X81377323Y-64926677D02*
X81388291Y-64926677D01*
X95000000Y-65000000D02*
X96750000Y-65000000D01*
X79550000Y-66471544D02*
X79550000Y-66825000D01*
X79525000Y-66850000D02*
X78375000Y-66850000D01*
X81377323Y-64926677D02*
X81173677Y-64926677D01*
X80242000Y-58858000D02*
X80242000Y-59850000D01*
X79550000Y-71387000D02*
X79550000Y-73387000D01*
X81450000Y-66471544D02*
X80866456Y-65888000D01*
X78442000Y-62195000D02*
X78442000Y-59734000D01*
X79000000Y-66850000D02*
X79000000Y-70837000D01*
X80250000Y-58850000D02*
X80242000Y-58858000D01*
X79326000Y-58850000D02*
X80250000Y-58850000D01*
X81388291Y-64926677D02*
X81809614Y-65348000D01*
X90228677Y-66754413D02*
X93245587Y-66754413D01*
X80133544Y-65888000D02*
X79550000Y-66471544D01*
X96750000Y-65000000D02*
X100500000Y-61250000D01*
X81809614Y-65348000D02*
X88822264Y-65348000D01*
X78375000Y-66850000D02*
X79000000Y-66850000D01*
X88822264Y-65348000D02*
X90228677Y-66754413D01*
X78442000Y-59734000D02*
X79326000Y-58850000D01*
X80242000Y-59850000D02*
X80210127Y-59850000D01*
X80250000Y-58850000D02*
X81242000Y-58850000D01*
X93245587Y-66754413D02*
X95000000Y-65000000D01*
X79000000Y-70837000D02*
X79550000Y-71387000D01*
X80866456Y-65888000D02*
X80133544Y-65888000D01*
X79550000Y-66825000D02*
X79525000Y-66850000D01*
X100500000Y-61250000D02*
X100500000Y-60025000D01*
X76887500Y-66850000D02*
X78375000Y-66850000D01*
X81173677Y-64926677D02*
X78442000Y-62195000D01*
D54*
%TO.N,+15V*%
X90747681Y-96081681D02*
X90302030Y-96527332D01*
X67700000Y-83335000D02*
X67700000Y-84535000D01*
X92352500Y-100838000D02*
X90989030Y-100838000D01*
X120901362Y-96023000D02*
X121674362Y-95250000D01*
X90302030Y-100151000D02*
X89587000Y-100151000D01*
X70364000Y-96023000D02*
X71371362Y-96023000D01*
X122936000Y-95250000D02*
X123767681Y-96081681D01*
X107254000Y-90170000D02*
X107254000Y-92202000D01*
X122185000Y-100573000D02*
X119894000Y-100573000D01*
X119364000Y-90170000D02*
X123764000Y-90170000D01*
X108222000Y-93170000D02*
X108222000Y-93501830D01*
X86360000Y-87884000D02*
X69850000Y-87884000D01*
X123322030Y-96527332D02*
X123322030Y-100151000D01*
X72655000Y-100573000D02*
X70364000Y-100573000D01*
X73406000Y-95250000D02*
X74237681Y-96081681D01*
X102854000Y-90170000D02*
X107254000Y-90170000D01*
X86874000Y-96023000D02*
X87881362Y-96023000D01*
X123767681Y-96081681D02*
X123322030Y-96527332D01*
X105675000Y-100573000D02*
X103384000Y-100573000D01*
X73792030Y-96527332D02*
X73792030Y-100151000D01*
X89165000Y-100573000D02*
X86874000Y-100573000D01*
X90744000Y-92202000D02*
X91712000Y-93170000D01*
X107499030Y-100838000D02*
X106812030Y-100151000D01*
X73792030Y-100151000D02*
X73077000Y-100151000D01*
X91712000Y-95117362D02*
X90747681Y-96081681D01*
X107257681Y-96081681D02*
X106812030Y-96527332D01*
X108206468Y-95112362D02*
X107257681Y-96061149D01*
X90744000Y-92202000D02*
X90744000Y-90170000D01*
X87881362Y-96023000D02*
X88654362Y-95250000D01*
X75842500Y-100838000D02*
X74479030Y-100838000D01*
X67700000Y-85734000D02*
X69850000Y-87884000D01*
X108966000Y-100941500D02*
X108862500Y-100838000D01*
X104765468Y-95628362D02*
X105143830Y-95250000D01*
X73077000Y-100151000D02*
X72655000Y-100573000D01*
X105776468Y-100471532D02*
X105675000Y-100573000D01*
X104387181Y-96023000D02*
X104765468Y-95644713D01*
X92456000Y-100941500D02*
X92352500Y-100838000D01*
X123322030Y-100151000D02*
X122607000Y-100151000D01*
X106426000Y-95250000D02*
X107257681Y-96081681D01*
X67700000Y-84535000D02*
X67700000Y-85734000D01*
X90302030Y-96527332D02*
X90302030Y-100151000D01*
X86344000Y-90170000D02*
X90744000Y-90170000D01*
X106812030Y-100151000D02*
X106075438Y-100151000D01*
X107257681Y-96061149D02*
X107257681Y-96081681D01*
X105143830Y-95250000D02*
X106426000Y-95250000D01*
X124732000Y-95117362D02*
X123767681Y-96081681D01*
X75946000Y-100941500D02*
X75842500Y-100838000D01*
X124732000Y-93170000D02*
X124732000Y-95117362D01*
X106812030Y-96527332D02*
X106812030Y-100151000D01*
X72144362Y-95250000D02*
X73406000Y-95250000D01*
X74234000Y-92202000D02*
X75202000Y-93170000D01*
X122607000Y-100151000D02*
X122185000Y-100573000D01*
X90989030Y-100838000D02*
X90302030Y-100151000D01*
X74234000Y-92202000D02*
X74234000Y-90170000D01*
X71371362Y-96023000D02*
X72144362Y-95250000D01*
X121674362Y-95250000D02*
X122936000Y-95250000D01*
X75202000Y-95117362D02*
X74237681Y-96081681D01*
X88654362Y-95250000D02*
X89916000Y-95250000D01*
X104765468Y-95644713D02*
X104765468Y-95628362D01*
X89587000Y-100151000D02*
X89165000Y-100573000D01*
X105776468Y-100449970D02*
X105776468Y-100471532D01*
X125476000Y-100941500D02*
X125372500Y-100838000D01*
X75202000Y-93170000D02*
X75202000Y-95117362D01*
X88392000Y-87884000D02*
X102870000Y-87884000D01*
X108862500Y-100838000D02*
X107499030Y-100838000D01*
X103384000Y-96023000D02*
X104387181Y-96023000D01*
X123764000Y-92202000D02*
X123764000Y-90170000D01*
X89916000Y-95250000D02*
X90747681Y-96081681D01*
X74237681Y-96081681D02*
X73792030Y-96527332D01*
X119894000Y-96023000D02*
X120901362Y-96023000D01*
X91712000Y-93170000D02*
X91712000Y-95117362D01*
X123764000Y-92202000D02*
X124732000Y-93170000D01*
X124009030Y-100838000D02*
X123322030Y-100151000D01*
X108222000Y-93501830D02*
X108206468Y-93517362D01*
X108206468Y-93517362D02*
X108206468Y-95112362D01*
X125372500Y-100838000D02*
X124009030Y-100838000D01*
X74479030Y-100838000D02*
X73792030Y-100151000D01*
X69834000Y-90170000D02*
X74234000Y-90170000D01*
X107254000Y-92202000D02*
X108222000Y-93170000D01*
X106075438Y-100151000D02*
X105776468Y-100449970D01*
X105664000Y-87884000D02*
X119380000Y-87884000D01*
D53*
%TO.N,PC13*%
X89500000Y-75175000D02*
X89500000Y-76562500D01*
X89500000Y-76562500D02*
X89000000Y-77062500D01*
%TO.N,DIR1*%
X86437323Y-67750000D02*
X87075000Y-67750000D01*
X86339323Y-67848000D02*
X86437323Y-67750000D01*
X84922887Y-68100000D02*
X85019301Y-68196414D01*
X64764000Y-97323000D02*
X63556000Y-97323000D01*
X85019301Y-68196414D02*
X85746233Y-68196414D01*
X63556000Y-97323000D02*
X63515000Y-97282000D01*
X86094647Y-67848000D02*
X86339323Y-67848000D01*
X85746233Y-68196414D02*
X86094647Y-67848000D01*
%TO.N,Net-(J1-D+)*%
X83083573Y-57916425D02*
X82742000Y-58258000D01*
X83240929Y-57916425D02*
X83083573Y-57916425D01*
X82742000Y-58258000D02*
X82742000Y-58850000D01*
X83328677Y-57828677D02*
X83240929Y-57916425D01*
%TO.N,Net-(U7-VDD)*%
X81691550Y-58831423D02*
X81691550Y-55389050D01*
X81691550Y-55389050D02*
X81412500Y-55110000D01*
%TO.N,Net-(U7-RST)*%
X79470189Y-60331423D02*
X80191550Y-60331423D01*
X79426500Y-55271000D02*
X79587500Y-55110000D01*
X79426500Y-60287734D02*
X79470189Y-60331423D01*
X79426500Y-58298000D02*
X79426500Y-55271000D01*
%TO.N,PA7*%
X99848000Y-71122056D02*
X99666056Y-71122056D01*
X113045000Y-99068000D02*
X113490000Y-98623000D01*
X99452000Y-70537474D02*
X99164526Y-70250000D01*
X113045000Y-99314000D02*
X113045000Y-99068000D01*
X99164526Y-70250000D02*
X98425000Y-70250000D01*
X113490000Y-98623000D02*
X114294000Y-98623000D01*
X99452000Y-70908000D02*
X99452000Y-70537474D01*
X99666056Y-71122056D02*
X99452000Y-70908000D01*
%TO.N,PC3*%
X93948000Y-75123000D02*
X94000000Y-75175000D01*
X93948000Y-74052008D02*
X93948000Y-75123000D01*
%TO.N,PA15*%
X85265000Y-66150884D02*
X86236358Y-66150884D01*
X85090000Y-66325884D02*
X85265000Y-66150884D01*
X86236358Y-66150884D02*
X86335474Y-66250000D01*
X86335474Y-66250000D02*
X87075000Y-66250000D01*
%TO.N,PC2*%
X80470000Y-94723000D02*
X81274000Y-94723000D01*
X80222000Y-94475000D02*
X80470000Y-94723000D01*
X93824387Y-76366823D02*
X93500000Y-76042436D01*
X81280000Y-93472000D02*
X80421000Y-93472000D01*
X80421000Y-93472000D02*
X80222000Y-93671000D01*
X80222000Y-93671000D02*
X80222000Y-94475000D01*
X93500000Y-76042436D02*
X93500000Y-75175000D01*
%TO.N,DIR2*%
X80066000Y-97323000D02*
X80025000Y-97282000D01*
X81274000Y-97323000D02*
X80066000Y-97323000D01*
X88024000Y-72250000D02*
X87075000Y-72250000D01*
X88392000Y-71882000D02*
X88024000Y-72250000D01*
%TO.N,PA2*%
X96980000Y-98623000D02*
X97784000Y-98623000D01*
X96958000Y-75250000D02*
X96883000Y-75175000D01*
X96535000Y-99314000D02*
X96535000Y-99068000D01*
X96535000Y-99068000D02*
X96980000Y-98623000D01*
X96883000Y-75175000D02*
X96500000Y-75175000D01*
%TO.N,PA6*%
X97398000Y-70462526D02*
X97685474Y-70750000D01*
X96931000Y-93472000D02*
X96732000Y-93671000D01*
X97227592Y-70105156D02*
X97398000Y-70275564D01*
X96732000Y-94475000D02*
X96980000Y-94723000D01*
X96732000Y-93671000D02*
X96732000Y-94475000D01*
X97685474Y-70750000D02*
X98425000Y-70750000D01*
X97398000Y-70275564D02*
X97398000Y-70462526D01*
X96980000Y-94723000D02*
X97784000Y-94723000D01*
X97790000Y-93472000D02*
X96931000Y-93472000D01*
%TO.N,DIR3*%
X96576000Y-97323000D02*
X96535000Y-97282000D01*
X97160000Y-71750000D02*
X98425000Y-71750000D01*
X97028000Y-71882000D02*
X97160000Y-71750000D01*
X97784000Y-97323000D02*
X96576000Y-97323000D01*
%TO.N,PB13*%
X79294744Y-61878880D02*
X79342201Y-61831423D01*
X96000000Y-63085474D02*
X96000000Y-63825000D01*
X79342201Y-61831423D02*
X80191550Y-61831423D01*
X96342040Y-62798000D02*
X96287474Y-62798000D01*
X96287474Y-62798000D02*
X96000000Y-63085474D01*
X96517040Y-62623000D02*
X96342040Y-62798000D01*
%TO.N,DIR4*%
X113086000Y-97323000D02*
X113045000Y-97282000D01*
X114294000Y-97323000D02*
X113086000Y-97323000D01*
X97398000Y-67570783D02*
X97398000Y-67537474D01*
X97685474Y-67250000D02*
X98425000Y-67250000D01*
X97398000Y-67537474D02*
X97685474Y-67250000D01*
X97223000Y-67745783D02*
X97398000Y-67570783D01*
%TO.N,PB14*%
X83691550Y-58246450D02*
X83691550Y-58831423D01*
X95965040Y-62000000D02*
X95965040Y-62534960D01*
X95965040Y-62534960D02*
X95500000Y-63000000D01*
X95500000Y-63000000D02*
X95500000Y-63825000D01*
X84172677Y-57765323D02*
X83691550Y-58246450D01*
X85484677Y-57765323D02*
X84172677Y-57765323D01*
%TO.N,PC15*%
X93250000Y-78500000D02*
X91500000Y-80250000D01*
X92750000Y-78500000D02*
X93250000Y-78500000D01*
X90500000Y-75175000D02*
X90500000Y-76250000D01*
X90500000Y-76250000D02*
X92750000Y-78500000D01*
X91500000Y-80250000D02*
X91500000Y-80270000D01*
%TO.N,PC6*%
X94500000Y-62650378D02*
X94354000Y-62504378D01*
X85294000Y-61402000D02*
X85242000Y-61350000D01*
X85226110Y-61365983D02*
X85191550Y-61331423D01*
X86802000Y-61500000D02*
X86704000Y-61402000D01*
X86704000Y-61402000D02*
X85294000Y-61402000D01*
X94500000Y-63825000D02*
X94500000Y-62650378D01*
X94500000Y-64601158D02*
X94500000Y-63825000D01*
%TO.N,PC7*%
X86250000Y-60850000D02*
X85242000Y-60850000D01*
X92712290Y-65008758D02*
X93591241Y-65008758D01*
X94000000Y-64599999D02*
X94000000Y-63825000D01*
X93591241Y-65008758D02*
X94000000Y-64599999D01*
%TO.N,PC14*%
X90000000Y-75175000D02*
X90000000Y-77750000D01*
X90500000Y-80270000D02*
X90500000Y-78750000D01*
X90000000Y-77750000D02*
X90750000Y-78500000D01*
X90500000Y-78750000D02*
X90750000Y-78500000D01*
%TO.N,PC5*%
X113081750Y-96063750D02*
X113122500Y-96023000D01*
X113122500Y-96023000D02*
X114294000Y-96023000D01*
X99769677Y-69250000D02*
X98425000Y-69250000D01*
X99898000Y-69121677D02*
X99769677Y-69250000D01*
X113081750Y-96063750D02*
X111760000Y-97385500D01*
%TO.N,PC11*%
X85598000Y-67564000D02*
X85912000Y-67250000D01*
X85912000Y-67250000D02*
X87075000Y-67250000D01*
X63502424Y-98300424D02*
X63829848Y-97973000D01*
X63829848Y-97973000D02*
X64764000Y-97973000D01*
%TO.N,PB15*%
X85000000Y-58500000D02*
X84522973Y-58500000D01*
X95234677Y-62484677D02*
X95234677Y-62732164D01*
X95234677Y-62732164D02*
X95000000Y-62966841D01*
X95000000Y-62966841D02*
X95000000Y-63825000D01*
X84522973Y-58500000D02*
X84191550Y-58831423D01*
%TO.N,PB12*%
X97181000Y-63750000D02*
X96575000Y-63750000D01*
X96575000Y-63750000D02*
X96500000Y-63825000D01*
X78994000Y-60960000D02*
X79365423Y-61331423D01*
X79365423Y-61331423D02*
X80191550Y-61331423D01*
%TO.N,PA1*%
X96522424Y-98300424D02*
X96849848Y-97973000D01*
X97070000Y-76202000D02*
X96287474Y-76202000D01*
X97072000Y-76200000D02*
X97070000Y-76202000D01*
X96849848Y-97973000D02*
X97784000Y-97973000D01*
X96000000Y-75914526D02*
X96000000Y-75175000D01*
X96287474Y-76202000D02*
X96000000Y-75914526D01*
%TO.N,PC8*%
X93787474Y-62798000D02*
X93500000Y-63085474D01*
X85191550Y-59558450D02*
X85191550Y-59831423D01*
X93787474Y-61767313D02*
X93787474Y-62798000D01*
X85500000Y-59250000D02*
X85191550Y-59558450D01*
X93500000Y-63085474D02*
X93500000Y-63825000D01*
%TO.N,PC9*%
X85896000Y-60350000D02*
X85242000Y-60350000D01*
X92964000Y-61722000D02*
X93000000Y-61758000D01*
X93000000Y-61758000D02*
X93000000Y-63825000D01*
X86250000Y-59996000D02*
X85896000Y-60350000D01*
%TO.N,PA8*%
X92238355Y-62648953D02*
X92500000Y-62910598D01*
X92500000Y-62910598D02*
X92500000Y-63825000D01*
X86248777Y-61831423D02*
X85191550Y-61831423D01*
X87302000Y-62230000D02*
X86647354Y-62230000D01*
X86647354Y-62230000D02*
X86248777Y-61831423D01*
%TO.N,PA9*%
X86169002Y-62750000D02*
X86187127Y-62731875D01*
X92000000Y-65552000D02*
X92000000Y-63825000D01*
X85941550Y-62331423D02*
X85191550Y-62331423D01*
X86187127Y-62577000D02*
X85941550Y-62331423D01*
X86187127Y-62731875D02*
X86187127Y-62577000D01*
%TO.N,PB4*%
X63616250Y-96128250D02*
X63487250Y-96128250D01*
X88388000Y-68834000D02*
X87972000Y-69250000D01*
X63721500Y-96023000D02*
X64764000Y-96023000D01*
X87972000Y-69250000D02*
X87075000Y-69250000D01*
X63616250Y-96128250D02*
X63721500Y-96023000D01*
X63487250Y-96128250D02*
X62230000Y-97385500D01*
%TO.N,PB7*%
X80470000Y-98623000D02*
X81274000Y-98623000D01*
X85943812Y-70750000D02*
X87075000Y-70750000D01*
X80025000Y-99314000D02*
X80025000Y-99068000D01*
X80025000Y-99068000D02*
X80470000Y-98623000D01*
X85864303Y-70670491D02*
X85943812Y-70750000D01*
%TO.N,PC4*%
X99921072Y-70241000D02*
X99430072Y-69750000D01*
X113359848Y-97973000D02*
X114294000Y-97973000D01*
X99430072Y-69750000D02*
X98425000Y-69750000D01*
X113032424Y-98300424D02*
X113359848Y-97973000D01*
%TO.N,PC0*%
X80056250Y-96069250D02*
X78740000Y-97385500D01*
X80102500Y-96023000D02*
X81274000Y-96023000D01*
X92052000Y-76454000D02*
X92500000Y-76006000D01*
X80056250Y-96069250D02*
X80102500Y-96023000D01*
X92500000Y-76006000D02*
X92500000Y-75175000D01*
%TO.N,Net-(DRV2-CP2)*%
X88712000Y-102616000D02*
X87969000Y-101873000D01*
X87969000Y-101873000D02*
X86874000Y-101873000D01*
%TO.N,Net-(DRV2-CP1)*%
X89635000Y-103593000D02*
X87944000Y-103593000D01*
X87944000Y-103593000D02*
X86874000Y-102523000D01*
X90612000Y-102616000D02*
X89635000Y-103593000D01*
%TO.N,Net-(DRV2-VCP)*%
X89944000Y-100838000D02*
X89559000Y-101223000D01*
X89559000Y-101223000D02*
X86874000Y-101223000D01*
X90506000Y-101400000D02*
X89944000Y-100838000D01*
X92456000Y-102766500D02*
X92204362Y-102766500D01*
X92204362Y-102766500D02*
X90837862Y-101400000D01*
X90837862Y-101400000D02*
X90506000Y-101400000D01*
%TO.N,Net-(DRV1-CP2)*%
X71459000Y-101873000D02*
X70364000Y-101873000D01*
X72202000Y-102616000D02*
X71459000Y-101873000D01*
%TO.N,Net-(DRV1-CP1)*%
X73125000Y-103593000D02*
X71434000Y-103593000D01*
X74102000Y-102616000D02*
X73125000Y-103593000D01*
X71434000Y-103593000D02*
X70364000Y-102523000D01*
%TO.N,Net-(DRV1-VCP)*%
X73049000Y-101223000D02*
X70364000Y-101223000D01*
X73434000Y-100838000D02*
X73049000Y-101223000D01*
X74327862Y-101400000D02*
X73996000Y-101400000D01*
X75694362Y-102766500D02*
X74327862Y-101400000D01*
X73996000Y-101400000D02*
X73434000Y-100838000D01*
X75946000Y-102766500D02*
X75694362Y-102766500D01*
%TO.N,Net-(DRV3-CP1)*%
X104454000Y-103593000D02*
X103384000Y-102523000D01*
X106145000Y-103593000D02*
X104454000Y-103593000D01*
X107122000Y-102616000D02*
X106145000Y-103593000D01*
%TO.N,Net-(DRV3-CP2)*%
X105222000Y-102616000D02*
X104479000Y-101873000D01*
X104479000Y-101873000D02*
X103384000Y-101873000D01*
%TO.N,Net-(DRV3-VCP)*%
X107016000Y-101400000D02*
X106454000Y-100838000D01*
X108862500Y-102766500D02*
X107496000Y-101400000D01*
X106454000Y-100838000D02*
X106069000Y-101223000D01*
X107496000Y-101400000D02*
X107016000Y-101400000D01*
X106069000Y-101223000D02*
X103384000Y-101223000D01*
X108966000Y-102766500D02*
X108862500Y-102766500D01*
%TO.N,Net-(DRV4-CP2)*%
X121732000Y-102616000D02*
X120989000Y-101873000D01*
X120989000Y-101873000D02*
X119894000Y-101873000D01*
%TO.N,Net-(DRV4-CP1)*%
X122655000Y-103593000D02*
X120964000Y-103593000D01*
X123632000Y-102616000D02*
X122655000Y-103593000D01*
X120964000Y-103593000D02*
X119894000Y-102523000D01*
%TO.N,Net-(DRV4-VCP)*%
X125224362Y-102766500D02*
X123857862Y-101400000D01*
X125476000Y-102766500D02*
X125224362Y-102766500D01*
X123526000Y-101400000D02*
X122964000Y-100838000D01*
X123857862Y-101400000D02*
X123526000Y-101400000D01*
X122964000Y-100838000D02*
X122579000Y-101223000D01*
X122579000Y-101223000D02*
X119894000Y-101223000D01*
%TO.N,Net-(DRV1-AOUT1)*%
X71601000Y-99923000D02*
X71628000Y-99896000D01*
X70364000Y-99923000D02*
X71601000Y-99923000D01*
%TO.N,Net-(DRV1-ISENA)*%
X72238500Y-99273000D02*
X70364000Y-99273000D01*
X72705500Y-98806000D02*
X72238500Y-99273000D01*
%TO.N,Net-(DRV1-AOUT2)*%
X71530000Y-98623000D02*
X71628000Y-98721000D01*
X70364000Y-98623000D02*
X71530000Y-98623000D01*
%TO.N,Net-(DRV1-BOUT2)*%
X71524781Y-97973000D02*
X71622781Y-97875000D01*
X70364000Y-97973000D02*
X71524781Y-97973000D01*
%TO.N,Net-(DRV1-ISENB)*%
X72705500Y-96520000D02*
X71902500Y-97323000D01*
X71902500Y-97323000D02*
X70364000Y-97323000D01*
%TO.N,Net-(DRV1-BOUT1)*%
X70364000Y-96673000D02*
X71633517Y-96673000D01*
X71633517Y-96673000D02*
X71681980Y-96624537D01*
%TO.N,Net-(DRV1-AVREF)*%
X71374000Y-94996000D02*
X71101000Y-94723000D01*
X74121000Y-94384500D02*
X74271500Y-94234000D01*
X71374000Y-94996000D02*
X71985500Y-94384500D01*
X71101000Y-94723000D02*
X70364000Y-94723000D01*
X71985500Y-94384500D02*
X72390000Y-94384500D01*
X72390000Y-94384500D02*
X74121000Y-94384500D01*
X70997000Y-95373000D02*
X71374000Y-94996000D01*
X70364000Y-95373000D02*
X70997000Y-95373000D01*
X72362000Y-94384500D02*
X72390000Y-94384500D01*
%TO.N,Net-(DRV2-AOUT1)*%
X86874000Y-99923000D02*
X88111000Y-99923000D01*
X88111000Y-99923000D02*
X88138000Y-99896000D01*
%TO.N,Net-(DRV2-ISENA)*%
X89215500Y-98806000D02*
X88748500Y-99273000D01*
X88748500Y-99273000D02*
X86874000Y-99273000D01*
%TO.N,Net-(DRV2-AOUT2)*%
X88040000Y-98623000D02*
X88138000Y-98721000D01*
X86874000Y-98623000D02*
X88040000Y-98623000D01*
%TO.N,Net-(DRV2-BOUT2)*%
X86874000Y-97973000D02*
X88034781Y-97973000D01*
X88034781Y-97973000D02*
X88132781Y-97875000D01*
%TO.N,Net-(DRV2-ISENB)*%
X88412500Y-97323000D02*
X86874000Y-97323000D01*
X89215500Y-96520000D02*
X88412500Y-97323000D01*
%TO.N,Net-(DRV2-BOUT1)*%
X86874000Y-96673000D02*
X88143517Y-96673000D01*
X88143517Y-96673000D02*
X88191980Y-96624537D01*
%TO.N,Net-(DRV2-AVREF)*%
X87884000Y-94996000D02*
X87611000Y-94723000D01*
X88495500Y-94384500D02*
X88900000Y-94384500D01*
X87884000Y-94996000D02*
X88495500Y-94384500D01*
X88900000Y-94384500D02*
X90631000Y-94384500D01*
X86874000Y-95373000D02*
X87507000Y-95373000D01*
X90631000Y-94384500D02*
X90781500Y-94234000D01*
X87507000Y-95373000D02*
X87884000Y-94996000D01*
X87611000Y-94723000D02*
X86874000Y-94723000D01*
X88872000Y-94384500D02*
X88900000Y-94384500D01*
%TO.N,Net-(DRV3-AOUT1)*%
X103384000Y-99923000D02*
X104621000Y-99923000D01*
X104621000Y-99923000D02*
X104648000Y-99896000D01*
%TO.N,Net-(DRV3-ISENA)*%
X105258500Y-99273000D02*
X103384000Y-99273000D01*
X105725500Y-98806000D02*
X105258500Y-99273000D01*
%TO.N,Net-(DRV3-AOUT2)*%
X104550000Y-98623000D02*
X104648000Y-98721000D01*
X103384000Y-98623000D02*
X104550000Y-98623000D01*
%TO.N,Net-(DRV3-BOUT2)*%
X103384000Y-97973000D02*
X104544781Y-97973000D01*
X104544781Y-97973000D02*
X104642781Y-97875000D01*
%TO.N,Net-(DRV3-ISENB)*%
X105725500Y-96520000D02*
X104922500Y-97323000D01*
X104922500Y-97323000D02*
X103384000Y-97323000D01*
%TO.N,Net-(DRV3-BOUT1)*%
X104653517Y-96673000D02*
X104701980Y-96624537D01*
X103384000Y-96673000D02*
X104653517Y-96673000D01*
%TO.N,Net-(DRV3-AVREF)*%
X105382000Y-94384500D02*
X105410000Y-94384500D01*
X105005500Y-94384500D02*
X105410000Y-94384500D01*
X105410000Y-94384500D02*
X107141000Y-94384500D01*
X103384000Y-95373000D02*
X104017000Y-95373000D01*
X104394000Y-94996000D02*
X105005500Y-94384500D01*
X104121000Y-94723000D02*
X103384000Y-94723000D01*
X104394000Y-94996000D02*
X104121000Y-94723000D01*
X107141000Y-94384500D02*
X107291500Y-94234000D01*
X104017000Y-95373000D02*
X104394000Y-94996000D01*
%TO.N,Net-(DRV4-AOUT1)*%
X121131000Y-99923000D02*
X121158000Y-99896000D01*
X119894000Y-99923000D02*
X121131000Y-99923000D01*
%TO.N,Net-(DRV4-ISENA)*%
X121768500Y-99273000D02*
X119894000Y-99273000D01*
X122235500Y-98806000D02*
X121768500Y-99273000D01*
%TO.N,Net-(DRV4-AOUT2)*%
X119894000Y-98623000D02*
X121060000Y-98623000D01*
X121060000Y-98623000D02*
X121158000Y-98721000D01*
%TO.N,Net-(DRV4-BOUT2)*%
X121054781Y-97973000D02*
X121152781Y-97875000D01*
X119894000Y-97973000D02*
X121054781Y-97973000D01*
%TO.N,Net-(DRV4-ISENB)*%
X121432500Y-97323000D02*
X119894000Y-97323000D01*
X122235500Y-96520000D02*
X121432500Y-97323000D01*
%TO.N,Net-(DRV4-BOUT1)*%
X119894000Y-96673000D02*
X121163517Y-96673000D01*
X121163517Y-96673000D02*
X121211980Y-96624537D01*
%TO.N,Net-(DRV4-AVREF)*%
X121920000Y-94384500D02*
X123651000Y-94384500D01*
X120904000Y-94996000D02*
X120631000Y-94723000D01*
X120527000Y-95373000D02*
X120904000Y-94996000D01*
X120631000Y-94723000D02*
X119894000Y-94723000D01*
X120904000Y-94996000D02*
X121515500Y-94384500D01*
X119894000Y-95373000D02*
X120527000Y-95373000D01*
X121515500Y-94384500D02*
X121920000Y-94384500D01*
X123651000Y-94384500D02*
X123801500Y-94234000D01*
X121892000Y-94384500D02*
X121920000Y-94384500D01*
%TO.N,Net-(D4-A)*%
X62230000Y-100755500D02*
X62230000Y-99210500D01*
%TO.N,Net-(D3-A)*%
X78740000Y-100916500D02*
X78740000Y-99210500D01*
%TO.N,Net-(D5-A)*%
X111760000Y-100916500D02*
X111760000Y-99210500D01*
%TO.N,Net-(D6-A)*%
X95250000Y-100755500D02*
X95250000Y-99210500D01*
%TO.N,PD2*%
X63623000Y-95373000D02*
X63500000Y-95250000D01*
X85727391Y-68748414D02*
X85556414Y-68748414D01*
X64764000Y-95373000D02*
X63623000Y-95373000D01*
X87075000Y-68250000D02*
X86225805Y-68250000D01*
X86225805Y-68250000D02*
X85727391Y-68748414D01*
%TO.N,PC10*%
X63515000Y-99314000D02*
X63515000Y-99068000D01*
X63960000Y-98623000D02*
X64764000Y-98623000D01*
X85838726Y-66702884D02*
X85885842Y-66750000D01*
X85885842Y-66750000D02*
X87075000Y-66750000D01*
X63515000Y-99068000D02*
X63960000Y-98623000D01*
%TO.N,PC1*%
X80133000Y-95373000D02*
X80010000Y-95250000D01*
X81274000Y-95373000D02*
X80133000Y-95373000D01*
X93000000Y-76454000D02*
X93000000Y-75175000D01*
%TO.N,PB8*%
X85873000Y-72698000D02*
X85873000Y-72212474D01*
X85873000Y-72212474D02*
X86335474Y-71750000D01*
X80012424Y-98300424D02*
X80339848Y-97973000D01*
X80339848Y-97973000D02*
X81274000Y-97973000D01*
X86335474Y-71750000D02*
X87075000Y-71750000D01*
%TO.N,PA3*%
X98425000Y-73593200D02*
X98425000Y-73250000D01*
X97784000Y-95373000D02*
X96643000Y-95373000D01*
X96643000Y-95373000D02*
X96520000Y-95250000D01*
X98642800Y-73811000D02*
X98425000Y-73593200D01*
%TO.N,PA5*%
X97404827Y-71250000D02*
X98425000Y-71250000D01*
X97262766Y-71107939D02*
X97404827Y-71250000D01*
X96380250Y-96255250D02*
X96509250Y-96255250D01*
X96741500Y-96023000D02*
X97784000Y-96023000D01*
X96509250Y-96255250D02*
X96741500Y-96023000D01*
X95250000Y-97385500D02*
X96380250Y-96255250D01*
%TO.N,PA10*%
X113242000Y-94475000D02*
X113490000Y-94723000D01*
X113242000Y-93671000D02*
X113242000Y-94475000D01*
X113441000Y-93472000D02*
X113242000Y-93671000D01*
X114300000Y-93472000D02*
X113441000Y-93472000D01*
X91357561Y-62710439D02*
X91500000Y-62852878D01*
X113490000Y-94723000D02*
X114294000Y-94723000D01*
X91500000Y-62852878D02*
X91500000Y-63825000D01*
%TO.N,PB0*%
X114294000Y-95373000D02*
X113153000Y-95373000D01*
X99164526Y-68750000D02*
X98425000Y-68750000D01*
X99612526Y-68302000D02*
X99164526Y-68750000D01*
X99681000Y-68302000D02*
X99612526Y-68302000D01*
X113153000Y-95373000D02*
X113030000Y-95250000D01*
%TD*%
M02*
