%TF.GenerationSoftware,KiCad,Pcbnew,7.0.10*%
%TF.CreationDate,2024-01-22T08:10:40+01:00*%
%TF.ProjectId,Doodle Drive,446f6f64-6c65-4204-9472-6976652e6b69,1.0V*%
%TF.SameCoordinates,Original*%
%TF.FileFunction,Soldermask,Bot*%
%TF.FilePolarity,Negative*%
%FSLAX46Y46*%
G04 Gerber Fmt 4.6, Leading zero omitted, Abs format (unit mm)*
G04 Created by KiCad (PCBNEW 7.0.10) date 2024-01-22 08:10:40*
%MOMM*%
%LPD*%
G01*
G04 APERTURE LIST*
G04 APERTURE END LIST*
G36*
X73190000Y-113250000D02*
G01*
X71490000Y-113250000D01*
X71490000Y-111550000D01*
X73190000Y-111550000D01*
X73190000Y-113250000D01*
G37*
G36*
X90787500Y-113250000D02*
G01*
X89087500Y-113250000D01*
X89087500Y-111550000D01*
X90787500Y-111550000D01*
X90787500Y-113250000D01*
G37*
G36*
X64982664Y-111591602D02*
G01*
X65145000Y-111663878D01*
X65288761Y-111768327D01*
X65407664Y-111900383D01*
X65496514Y-112054274D01*
X65551425Y-112223275D01*
X65570000Y-112400000D01*
X65551425Y-112576725D01*
X65496514Y-112745726D01*
X65407664Y-112899617D01*
X65288761Y-113031673D01*
X65145000Y-113136122D01*
X64982664Y-113208398D01*
X64808849Y-113245344D01*
X64631151Y-113245344D01*
X64457336Y-113208398D01*
X64295000Y-113136122D01*
X64151239Y-113031673D01*
X64032336Y-112899617D01*
X63943486Y-112745726D01*
X63888575Y-112576725D01*
X63870000Y-112400000D01*
X63888575Y-112223275D01*
X63943486Y-112054274D01*
X64032336Y-111900383D01*
X64151239Y-111768327D01*
X64295000Y-111663878D01*
X64457336Y-111591602D01*
X64631151Y-111554656D01*
X64808849Y-111554656D01*
X64982664Y-111591602D01*
G37*
G36*
X67522664Y-111591602D02*
G01*
X67685000Y-111663878D01*
X67828761Y-111768327D01*
X67947664Y-111900383D01*
X68036514Y-112054274D01*
X68091425Y-112223275D01*
X68110000Y-112400000D01*
X68091425Y-112576725D01*
X68036514Y-112745726D01*
X67947664Y-112899617D01*
X67828761Y-113031673D01*
X67685000Y-113136122D01*
X67522664Y-113208398D01*
X67348849Y-113245344D01*
X67171151Y-113245344D01*
X66997336Y-113208398D01*
X66835000Y-113136122D01*
X66691239Y-113031673D01*
X66572336Y-112899617D01*
X66483486Y-112745726D01*
X66428575Y-112576725D01*
X66410000Y-112400000D01*
X66428575Y-112223275D01*
X66483486Y-112054274D01*
X66572336Y-111900383D01*
X66691239Y-111768327D01*
X66835000Y-111663878D01*
X66997336Y-111591602D01*
X67171151Y-111554656D01*
X67348849Y-111554656D01*
X67522664Y-111591602D01*
G37*
G36*
X70062664Y-111591602D02*
G01*
X70225000Y-111663878D01*
X70368761Y-111768327D01*
X70487664Y-111900383D01*
X70576514Y-112054274D01*
X70631425Y-112223275D01*
X70650000Y-112400000D01*
X70631425Y-112576725D01*
X70576514Y-112745726D01*
X70487664Y-112899617D01*
X70368761Y-113031673D01*
X70225000Y-113136122D01*
X70062664Y-113208398D01*
X69888849Y-113245344D01*
X69711151Y-113245344D01*
X69537336Y-113208398D01*
X69375000Y-113136122D01*
X69231239Y-113031673D01*
X69112336Y-112899617D01*
X69023486Y-112745726D01*
X68968575Y-112576725D01*
X68950000Y-112400000D01*
X68968575Y-112223275D01*
X69023486Y-112054274D01*
X69112336Y-111900383D01*
X69231239Y-111768327D01*
X69375000Y-111663878D01*
X69537336Y-111591602D01*
X69711151Y-111554656D01*
X69888849Y-111554656D01*
X70062664Y-111591602D01*
G37*
G36*
X82580164Y-111591602D02*
G01*
X82742500Y-111663878D01*
X82886261Y-111768327D01*
X83005164Y-111900383D01*
X83094014Y-112054274D01*
X83148925Y-112223275D01*
X83167500Y-112400000D01*
X83148925Y-112576725D01*
X83094014Y-112745726D01*
X83005164Y-112899617D01*
X82886261Y-113031673D01*
X82742500Y-113136122D01*
X82580164Y-113208398D01*
X82406349Y-113245344D01*
X82228651Y-113245344D01*
X82054836Y-113208398D01*
X81892500Y-113136122D01*
X81748739Y-113031673D01*
X81629836Y-112899617D01*
X81540986Y-112745726D01*
X81486075Y-112576725D01*
X81467500Y-112400000D01*
X81486075Y-112223275D01*
X81540986Y-112054274D01*
X81629836Y-111900383D01*
X81748739Y-111768327D01*
X81892500Y-111663878D01*
X82054836Y-111591602D01*
X82228651Y-111554656D01*
X82406349Y-111554656D01*
X82580164Y-111591602D01*
G37*
G36*
X85120164Y-111591602D02*
G01*
X85282500Y-111663878D01*
X85426261Y-111768327D01*
X85545164Y-111900383D01*
X85634014Y-112054274D01*
X85688925Y-112223275D01*
X85707500Y-112400000D01*
X85688925Y-112576725D01*
X85634014Y-112745726D01*
X85545164Y-112899617D01*
X85426261Y-113031673D01*
X85282500Y-113136122D01*
X85120164Y-113208398D01*
X84946349Y-113245344D01*
X84768651Y-113245344D01*
X84594836Y-113208398D01*
X84432500Y-113136122D01*
X84288739Y-113031673D01*
X84169836Y-112899617D01*
X84080986Y-112745726D01*
X84026075Y-112576725D01*
X84007500Y-112400000D01*
X84026075Y-112223275D01*
X84080986Y-112054274D01*
X84169836Y-111900383D01*
X84288739Y-111768327D01*
X84432500Y-111663878D01*
X84594836Y-111591602D01*
X84768651Y-111554656D01*
X84946349Y-111554656D01*
X85120164Y-111591602D01*
G37*
G36*
X87660164Y-111591602D02*
G01*
X87822500Y-111663878D01*
X87966261Y-111768327D01*
X88085164Y-111900383D01*
X88174014Y-112054274D01*
X88228925Y-112223275D01*
X88247500Y-112400000D01*
X88228925Y-112576725D01*
X88174014Y-112745726D01*
X88085164Y-112899617D01*
X87966261Y-113031673D01*
X87822500Y-113136122D01*
X87660164Y-113208398D01*
X87486349Y-113245344D01*
X87308651Y-113245344D01*
X87134836Y-113208398D01*
X86972500Y-113136122D01*
X86828739Y-113031673D01*
X86709836Y-112899617D01*
X86620986Y-112745726D01*
X86566075Y-112576725D01*
X86547500Y-112400000D01*
X86566075Y-112223275D01*
X86620986Y-112054274D01*
X86709836Y-111900383D01*
X86828739Y-111768327D01*
X86972500Y-111663878D01*
X87134836Y-111591602D01*
X87308651Y-111554656D01*
X87486349Y-111554656D01*
X87660164Y-111591602D01*
G37*
G36*
X108267500Y-113155000D02*
G01*
X106567500Y-113155000D01*
X106567500Y-111455000D01*
X108267500Y-111455000D01*
X108267500Y-113155000D01*
G37*
G36*
X100060164Y-111496602D02*
G01*
X100222500Y-111568878D01*
X100366261Y-111673327D01*
X100485164Y-111805383D01*
X100574014Y-111959274D01*
X100628925Y-112128275D01*
X100647500Y-112305000D01*
X100628925Y-112481725D01*
X100574014Y-112650726D01*
X100485164Y-112804617D01*
X100366261Y-112936673D01*
X100222500Y-113041122D01*
X100060164Y-113113398D01*
X99886349Y-113150344D01*
X99708651Y-113150344D01*
X99534836Y-113113398D01*
X99372500Y-113041122D01*
X99228739Y-112936673D01*
X99109836Y-112804617D01*
X99020986Y-112650726D01*
X98966075Y-112481725D01*
X98947500Y-112305000D01*
X98966075Y-112128275D01*
X99020986Y-111959274D01*
X99109836Y-111805383D01*
X99228739Y-111673327D01*
X99372500Y-111568878D01*
X99534836Y-111496602D01*
X99708651Y-111459656D01*
X99886349Y-111459656D01*
X100060164Y-111496602D01*
G37*
G36*
X102600164Y-111496602D02*
G01*
X102762500Y-111568878D01*
X102906261Y-111673327D01*
X103025164Y-111805383D01*
X103114014Y-111959274D01*
X103168925Y-112128275D01*
X103187500Y-112305000D01*
X103168925Y-112481725D01*
X103114014Y-112650726D01*
X103025164Y-112804617D01*
X102906261Y-112936673D01*
X102762500Y-113041122D01*
X102600164Y-113113398D01*
X102426349Y-113150344D01*
X102248651Y-113150344D01*
X102074836Y-113113398D01*
X101912500Y-113041122D01*
X101768739Y-112936673D01*
X101649836Y-112804617D01*
X101560986Y-112650726D01*
X101506075Y-112481725D01*
X101487500Y-112305000D01*
X101506075Y-112128275D01*
X101560986Y-111959274D01*
X101649836Y-111805383D01*
X101768739Y-111673327D01*
X101912500Y-111568878D01*
X102074836Y-111496602D01*
X102248651Y-111459656D01*
X102426349Y-111459656D01*
X102600164Y-111496602D01*
G37*
G36*
X105140164Y-111496602D02*
G01*
X105302500Y-111568878D01*
X105446261Y-111673327D01*
X105565164Y-111805383D01*
X105654014Y-111959274D01*
X105708925Y-112128275D01*
X105727500Y-112305000D01*
X105708925Y-112481725D01*
X105654014Y-112650726D01*
X105565164Y-112804617D01*
X105446261Y-112936673D01*
X105302500Y-113041122D01*
X105140164Y-113113398D01*
X104966349Y-113150344D01*
X104788651Y-113150344D01*
X104614836Y-113113398D01*
X104452500Y-113041122D01*
X104308739Y-112936673D01*
X104189836Y-112804617D01*
X104100986Y-112650726D01*
X104046075Y-112481725D01*
X104027500Y-112305000D01*
X104046075Y-112128275D01*
X104100986Y-111959274D01*
X104189836Y-111805383D01*
X104308739Y-111673327D01*
X104452500Y-111568878D01*
X104614836Y-111496602D01*
X104788651Y-111459656D01*
X104966349Y-111459656D01*
X105140164Y-111496602D01*
G37*
G36*
X125787500Y-113100000D02*
G01*
X124087500Y-113100000D01*
X124087500Y-111400000D01*
X125787500Y-111400000D01*
X125787500Y-113100000D01*
G37*
G36*
X117580164Y-111441602D02*
G01*
X117742500Y-111513878D01*
X117886261Y-111618327D01*
X118005164Y-111750383D01*
X118094014Y-111904274D01*
X118148925Y-112073275D01*
X118167500Y-112250000D01*
X118148925Y-112426725D01*
X118094014Y-112595726D01*
X118005164Y-112749617D01*
X117886261Y-112881673D01*
X117742500Y-112986122D01*
X117580164Y-113058398D01*
X117406349Y-113095344D01*
X117228651Y-113095344D01*
X117054836Y-113058398D01*
X116892500Y-112986122D01*
X116748739Y-112881673D01*
X116629836Y-112749617D01*
X116540986Y-112595726D01*
X116486075Y-112426725D01*
X116467500Y-112250000D01*
X116486075Y-112073275D01*
X116540986Y-111904274D01*
X116629836Y-111750383D01*
X116748739Y-111618327D01*
X116892500Y-111513878D01*
X117054836Y-111441602D01*
X117228651Y-111404656D01*
X117406349Y-111404656D01*
X117580164Y-111441602D01*
G37*
G36*
X120120164Y-111441602D02*
G01*
X120282500Y-111513878D01*
X120426261Y-111618327D01*
X120545164Y-111750383D01*
X120634014Y-111904274D01*
X120688925Y-112073275D01*
X120707500Y-112250000D01*
X120688925Y-112426725D01*
X120634014Y-112595726D01*
X120545164Y-112749617D01*
X120426261Y-112881673D01*
X120282500Y-112986122D01*
X120120164Y-113058398D01*
X119946349Y-113095344D01*
X119768651Y-113095344D01*
X119594836Y-113058398D01*
X119432500Y-112986122D01*
X119288739Y-112881673D01*
X119169836Y-112749617D01*
X119080986Y-112595726D01*
X119026075Y-112426725D01*
X119007500Y-112250000D01*
X119026075Y-112073275D01*
X119080986Y-111904274D01*
X119169836Y-111750383D01*
X119288739Y-111618327D01*
X119432500Y-111513878D01*
X119594836Y-111441602D01*
X119768651Y-111404656D01*
X119946349Y-111404656D01*
X120120164Y-111441602D01*
G37*
G36*
X122660164Y-111441602D02*
G01*
X122822500Y-111513878D01*
X122966261Y-111618327D01*
X123085164Y-111750383D01*
X123174014Y-111904274D01*
X123228925Y-112073275D01*
X123247500Y-112250000D01*
X123228925Y-112426725D01*
X123174014Y-112595726D01*
X123085164Y-112749617D01*
X122966261Y-112881673D01*
X122822500Y-112986122D01*
X122660164Y-113058398D01*
X122486349Y-113095344D01*
X122308651Y-113095344D01*
X122134836Y-113058398D01*
X121972500Y-112986122D01*
X121828739Y-112881673D01*
X121709836Y-112749617D01*
X121620986Y-112595726D01*
X121566075Y-112426725D01*
X121547500Y-112250000D01*
X121566075Y-112073275D01*
X121620986Y-111904274D01*
X121709836Y-111750383D01*
X121828739Y-111618327D01*
X121972500Y-111513878D01*
X122134836Y-111441602D01*
X122308651Y-111404656D01*
X122486349Y-111404656D01*
X122660164Y-111441602D01*
G37*
G36*
X82184522Y-93586374D02*
G01*
X82220796Y-93586374D01*
X82262385Y-93596624D01*
X82304991Y-93602234D01*
X82334156Y-93614314D01*
X82363117Y-93621453D01*
X82407030Y-93644500D01*
X82451750Y-93663024D01*
X82472150Y-93678678D01*
X82492917Y-93689577D01*
X82535379Y-93727195D01*
X82577774Y-93759726D01*
X82589822Y-93775427D01*
X82602640Y-93786783D01*
X82639389Y-93840025D01*
X82674476Y-93885750D01*
X82679765Y-93898520D01*
X82685908Y-93907419D01*
X82712553Y-93977676D01*
X82735266Y-94032509D01*
X82736285Y-94040251D01*
X82737889Y-94044480D01*
X82750313Y-94146803D01*
X82756000Y-94190000D01*
X82750312Y-94233200D01*
X82737889Y-94335519D01*
X82736285Y-94339746D01*
X82735266Y-94347491D01*
X82712548Y-94402334D01*
X82685908Y-94472580D01*
X82679766Y-94481477D01*
X82674476Y-94494250D01*
X82639383Y-94539983D01*
X82602640Y-94593216D01*
X82589824Y-94604569D01*
X82577774Y-94620274D01*
X82535370Y-94652811D01*
X82492917Y-94690422D01*
X82472154Y-94701318D01*
X82451750Y-94716976D01*
X82407021Y-94735503D01*
X82363117Y-94758546D01*
X82334161Y-94765683D01*
X82304991Y-94777766D01*
X82262382Y-94783375D01*
X82220796Y-94793626D01*
X82184522Y-94793626D01*
X82147500Y-94798500D01*
X82110478Y-94793626D01*
X82074204Y-94793626D01*
X82032616Y-94783375D01*
X81990009Y-94777766D01*
X81960839Y-94765683D01*
X81931882Y-94758546D01*
X81887974Y-94735501D01*
X81843250Y-94716976D01*
X81822847Y-94701320D01*
X81802082Y-94690422D01*
X81759621Y-94652805D01*
X81717226Y-94620274D01*
X81705177Y-94604572D01*
X81692359Y-94593216D01*
X81655606Y-94539970D01*
X81620524Y-94494250D01*
X81615234Y-94481481D01*
X81609091Y-94472580D01*
X81582439Y-94402305D01*
X81559734Y-94347491D01*
X81558715Y-94339751D01*
X81557110Y-94335519D01*
X81544674Y-94233102D01*
X81539000Y-94190000D01*
X81544674Y-94146900D01*
X81557110Y-94044480D01*
X81558715Y-94040247D01*
X81559734Y-94032509D01*
X81582434Y-93977705D01*
X81609091Y-93907419D01*
X81615235Y-93898516D01*
X81620524Y-93885750D01*
X81655600Y-93840038D01*
X81692359Y-93786783D01*
X81705179Y-93775424D01*
X81717226Y-93759726D01*
X81759613Y-93727200D01*
X81802082Y-93689577D01*
X81822851Y-93678676D01*
X81843250Y-93663024D01*
X81887965Y-93644502D01*
X81931882Y-93621453D01*
X81960844Y-93614314D01*
X81990009Y-93602234D01*
X82032613Y-93596624D01*
X82074204Y-93586374D01*
X82110478Y-93586374D01*
X82147500Y-93581500D01*
X82184522Y-93586374D01*
G37*
G36*
X87836000Y-94798500D02*
G01*
X86619000Y-94798500D01*
X86619000Y-93581500D01*
X87836000Y-93581500D01*
X87836000Y-94798500D01*
G37*
G36*
X99657022Y-93546374D02*
G01*
X99693296Y-93546374D01*
X99734885Y-93556624D01*
X99777491Y-93562234D01*
X99806656Y-93574314D01*
X99835617Y-93581453D01*
X99879530Y-93604500D01*
X99924250Y-93623024D01*
X99944650Y-93638678D01*
X99965417Y-93649577D01*
X100007879Y-93687195D01*
X100050274Y-93719726D01*
X100062322Y-93735427D01*
X100075140Y-93746783D01*
X100111889Y-93800025D01*
X100146976Y-93845750D01*
X100152265Y-93858520D01*
X100158408Y-93867419D01*
X100185053Y-93937676D01*
X100207766Y-93992509D01*
X100208785Y-94000251D01*
X100210389Y-94004480D01*
X100222813Y-94106803D01*
X100228500Y-94150000D01*
X100222812Y-94193200D01*
X100210389Y-94295519D01*
X100208785Y-94299746D01*
X100207766Y-94307491D01*
X100185048Y-94362334D01*
X100158408Y-94432580D01*
X100152266Y-94441477D01*
X100146976Y-94454250D01*
X100111883Y-94499983D01*
X100075140Y-94553216D01*
X100062324Y-94564569D01*
X100050274Y-94580274D01*
X100007870Y-94612811D01*
X99965417Y-94650422D01*
X99944654Y-94661318D01*
X99924250Y-94676976D01*
X99879521Y-94695503D01*
X99835617Y-94718546D01*
X99806661Y-94725683D01*
X99777491Y-94737766D01*
X99734882Y-94743375D01*
X99693296Y-94753626D01*
X99657022Y-94753626D01*
X99620000Y-94758500D01*
X99582978Y-94753626D01*
X99546704Y-94753626D01*
X99505116Y-94743375D01*
X99462509Y-94737766D01*
X99433339Y-94725683D01*
X99404382Y-94718546D01*
X99360474Y-94695501D01*
X99315750Y-94676976D01*
X99295347Y-94661320D01*
X99274582Y-94650422D01*
X99232121Y-94612805D01*
X99189726Y-94580274D01*
X99177677Y-94564572D01*
X99164859Y-94553216D01*
X99128106Y-94499970D01*
X99093024Y-94454250D01*
X99087734Y-94441481D01*
X99081591Y-94432580D01*
X99054939Y-94362305D01*
X99032234Y-94307491D01*
X99031215Y-94299751D01*
X99029610Y-94295519D01*
X99017174Y-94193102D01*
X99011500Y-94150000D01*
X99017174Y-94106900D01*
X99029610Y-94004480D01*
X99031215Y-94000247D01*
X99032234Y-93992509D01*
X99054934Y-93937705D01*
X99081591Y-93867419D01*
X99087735Y-93858516D01*
X99093024Y-93845750D01*
X99128100Y-93800038D01*
X99164859Y-93746783D01*
X99177679Y-93735424D01*
X99189726Y-93719726D01*
X99232113Y-93687200D01*
X99274582Y-93649577D01*
X99295351Y-93638676D01*
X99315750Y-93623024D01*
X99360465Y-93604502D01*
X99404382Y-93581453D01*
X99433344Y-93574314D01*
X99462509Y-93562234D01*
X99505113Y-93556624D01*
X99546704Y-93546374D01*
X99582978Y-93546374D01*
X99620000Y-93541500D01*
X99657022Y-93546374D01*
G37*
G36*
X105308500Y-94758500D02*
G01*
X104091500Y-94758500D01*
X104091500Y-93541500D01*
X105308500Y-93541500D01*
X105308500Y-94758500D01*
G37*
G36*
X64637022Y-93536374D02*
G01*
X64673296Y-93536374D01*
X64714885Y-93546624D01*
X64757491Y-93552234D01*
X64786656Y-93564314D01*
X64815617Y-93571453D01*
X64859530Y-93594500D01*
X64904250Y-93613024D01*
X64924650Y-93628678D01*
X64945417Y-93639577D01*
X64987879Y-93677195D01*
X65030274Y-93709726D01*
X65042322Y-93725427D01*
X65055140Y-93736783D01*
X65091889Y-93790025D01*
X65126976Y-93835750D01*
X65132265Y-93848520D01*
X65138408Y-93857419D01*
X65165053Y-93927676D01*
X65187766Y-93982509D01*
X65188785Y-93990251D01*
X65190389Y-93994480D01*
X65202813Y-94096803D01*
X65208500Y-94140000D01*
X65202812Y-94183200D01*
X65190389Y-94285519D01*
X65188785Y-94289746D01*
X65187766Y-94297491D01*
X65165048Y-94352334D01*
X65138408Y-94422580D01*
X65132266Y-94431477D01*
X65126976Y-94444250D01*
X65091883Y-94489983D01*
X65055140Y-94543216D01*
X65042324Y-94554569D01*
X65030274Y-94570274D01*
X64987870Y-94602811D01*
X64945417Y-94640422D01*
X64924654Y-94651318D01*
X64904250Y-94666976D01*
X64859521Y-94685503D01*
X64815617Y-94708546D01*
X64786661Y-94715683D01*
X64757491Y-94727766D01*
X64714882Y-94733375D01*
X64673296Y-94743626D01*
X64637022Y-94743626D01*
X64600000Y-94748500D01*
X64562978Y-94743626D01*
X64526704Y-94743626D01*
X64485116Y-94733375D01*
X64442509Y-94727766D01*
X64413339Y-94715683D01*
X64384382Y-94708546D01*
X64340474Y-94685501D01*
X64295750Y-94666976D01*
X64275347Y-94651320D01*
X64254582Y-94640422D01*
X64212121Y-94602805D01*
X64169726Y-94570274D01*
X64157677Y-94554572D01*
X64144859Y-94543216D01*
X64108106Y-94489970D01*
X64073024Y-94444250D01*
X64067734Y-94431481D01*
X64061591Y-94422580D01*
X64034939Y-94352305D01*
X64012234Y-94297491D01*
X64011215Y-94289751D01*
X64009610Y-94285519D01*
X63997174Y-94183102D01*
X63991500Y-94140000D01*
X63997174Y-94096900D01*
X64009610Y-93994480D01*
X64011215Y-93990247D01*
X64012234Y-93982509D01*
X64034934Y-93927705D01*
X64061591Y-93857419D01*
X64067735Y-93848516D01*
X64073024Y-93835750D01*
X64108100Y-93790038D01*
X64144859Y-93736783D01*
X64157679Y-93725424D01*
X64169726Y-93709726D01*
X64212113Y-93677200D01*
X64254582Y-93639577D01*
X64275351Y-93628676D01*
X64295750Y-93613024D01*
X64340465Y-93594502D01*
X64384382Y-93571453D01*
X64413344Y-93564314D01*
X64442509Y-93552234D01*
X64485113Y-93546624D01*
X64526704Y-93536374D01*
X64562978Y-93536374D01*
X64600000Y-93531500D01*
X64637022Y-93536374D01*
G37*
G36*
X70288500Y-94748500D02*
G01*
X69071500Y-94748500D01*
X69071500Y-93531500D01*
X70288500Y-93531500D01*
X70288500Y-94748500D01*
G37*
G36*
X117184522Y-93381374D02*
G01*
X117220796Y-93381374D01*
X117262385Y-93391624D01*
X117304991Y-93397234D01*
X117334156Y-93409314D01*
X117363117Y-93416453D01*
X117407030Y-93439500D01*
X117451750Y-93458024D01*
X117472150Y-93473678D01*
X117492917Y-93484577D01*
X117535379Y-93522195D01*
X117577774Y-93554726D01*
X117589822Y-93570427D01*
X117602640Y-93581783D01*
X117639389Y-93635025D01*
X117674476Y-93680750D01*
X117679765Y-93693520D01*
X117685908Y-93702419D01*
X117712553Y-93772676D01*
X117735266Y-93827509D01*
X117736285Y-93835251D01*
X117737889Y-93839480D01*
X117750313Y-93941803D01*
X117756000Y-93985000D01*
X117750312Y-94028200D01*
X117737889Y-94130519D01*
X117736285Y-94134746D01*
X117735266Y-94142491D01*
X117712548Y-94197334D01*
X117685908Y-94267580D01*
X117679766Y-94276477D01*
X117674476Y-94289250D01*
X117639383Y-94334983D01*
X117602640Y-94388216D01*
X117589824Y-94399569D01*
X117577774Y-94415274D01*
X117535370Y-94447811D01*
X117492917Y-94485422D01*
X117472154Y-94496318D01*
X117451750Y-94511976D01*
X117407021Y-94530503D01*
X117363117Y-94553546D01*
X117334161Y-94560683D01*
X117304991Y-94572766D01*
X117262382Y-94578375D01*
X117220796Y-94588626D01*
X117184522Y-94588626D01*
X117147500Y-94593500D01*
X117110478Y-94588626D01*
X117074204Y-94588626D01*
X117032616Y-94578375D01*
X116990009Y-94572766D01*
X116960839Y-94560683D01*
X116931882Y-94553546D01*
X116887974Y-94530501D01*
X116843250Y-94511976D01*
X116822847Y-94496320D01*
X116802082Y-94485422D01*
X116759621Y-94447805D01*
X116717226Y-94415274D01*
X116705177Y-94399572D01*
X116692359Y-94388216D01*
X116655606Y-94334970D01*
X116620524Y-94289250D01*
X116615234Y-94276481D01*
X116609091Y-94267580D01*
X116582439Y-94197305D01*
X116559734Y-94142491D01*
X116558715Y-94134751D01*
X116557110Y-94130519D01*
X116544674Y-94028102D01*
X116539000Y-93985000D01*
X116544674Y-93941900D01*
X116557110Y-93839480D01*
X116558715Y-93835247D01*
X116559734Y-93827509D01*
X116582434Y-93772705D01*
X116609091Y-93702419D01*
X116615235Y-93693516D01*
X116620524Y-93680750D01*
X116655600Y-93635038D01*
X116692359Y-93581783D01*
X116705179Y-93570424D01*
X116717226Y-93554726D01*
X116759613Y-93522200D01*
X116802082Y-93484577D01*
X116822851Y-93473676D01*
X116843250Y-93458024D01*
X116887965Y-93439502D01*
X116931882Y-93416453D01*
X116960844Y-93409314D01*
X116990009Y-93397234D01*
X117032613Y-93391624D01*
X117074204Y-93381374D01*
X117110478Y-93381374D01*
X117147500Y-93376500D01*
X117184522Y-93381374D01*
G37*
G36*
X122836000Y-94593500D02*
G01*
X121619000Y-94593500D01*
X121619000Y-93376500D01*
X122836000Y-93376500D01*
X122836000Y-94593500D01*
G37*
G36*
X75976550Y-91404812D02*
G01*
X76012267Y-91404812D01*
X76053221Y-91414906D01*
X76095291Y-91420445D01*
X76124088Y-91432373D01*
X76152610Y-91439403D01*
X76195854Y-91462099D01*
X76240000Y-91480385D01*
X76260140Y-91495839D01*
X76280586Y-91506570D01*
X76322388Y-91543603D01*
X76364264Y-91575736D01*
X76376165Y-91591246D01*
X76388778Y-91602420D01*
X76424943Y-91654815D01*
X76459615Y-91700000D01*
X76464841Y-91712617D01*
X76470882Y-91721369D01*
X76497089Y-91790471D01*
X76519555Y-91844709D01*
X76520563Y-91852366D01*
X76522136Y-91856514D01*
X76534315Y-91956821D01*
X76540000Y-92000000D01*
X76534314Y-92043182D01*
X76522136Y-92143485D01*
X76520563Y-92147631D01*
X76519555Y-92155291D01*
X76497084Y-92209539D01*
X76470882Y-92278630D01*
X76464842Y-92287380D01*
X76459615Y-92300000D01*
X76424936Y-92345193D01*
X76388778Y-92397579D01*
X76376167Y-92408750D01*
X76364264Y-92424264D01*
X76322379Y-92456402D01*
X76280586Y-92493429D01*
X76260144Y-92504157D01*
X76240000Y-92519615D01*
X76195845Y-92537904D01*
X76152610Y-92560596D01*
X76124092Y-92567624D01*
X76095291Y-92579555D01*
X76053219Y-92585093D01*
X76012267Y-92595188D01*
X75976550Y-92595188D01*
X75940000Y-92600000D01*
X75903450Y-92595188D01*
X75867733Y-92595188D01*
X75826780Y-92585093D01*
X75784709Y-92579555D01*
X75755908Y-92567625D01*
X75727389Y-92560596D01*
X75684149Y-92537902D01*
X75640000Y-92519615D01*
X75619857Y-92504159D01*
X75599413Y-92493429D01*
X75557612Y-92456397D01*
X75515736Y-92424264D01*
X75503834Y-92408753D01*
X75491221Y-92397579D01*
X75455053Y-92345180D01*
X75420385Y-92300000D01*
X75415159Y-92287383D01*
X75409117Y-92278630D01*
X75382903Y-92209510D01*
X75360445Y-92155291D01*
X75359437Y-92147635D01*
X75357863Y-92143485D01*
X75345672Y-92043084D01*
X75340000Y-92000000D01*
X75345671Y-91956919D01*
X75357863Y-91856514D01*
X75359437Y-91852362D01*
X75360445Y-91844709D01*
X75382898Y-91790500D01*
X75409117Y-91721369D01*
X75415160Y-91712613D01*
X75420385Y-91700000D01*
X75455046Y-91654828D01*
X75491221Y-91602420D01*
X75503836Y-91591243D01*
X75515736Y-91575736D01*
X75557604Y-91543609D01*
X75599413Y-91506570D01*
X75619861Y-91495837D01*
X75640000Y-91480385D01*
X75684140Y-91462101D01*
X75727389Y-91439403D01*
X75755913Y-91432372D01*
X75784709Y-91420445D01*
X75826777Y-91414906D01*
X75867733Y-91404812D01*
X75903450Y-91404812D01*
X75940000Y-91400000D01*
X75976550Y-91404812D01*
G37*
G36*
X93536550Y-91404812D02*
G01*
X93572267Y-91404812D01*
X93613221Y-91414906D01*
X93655291Y-91420445D01*
X93684088Y-91432373D01*
X93712610Y-91439403D01*
X93755854Y-91462099D01*
X93800000Y-91480385D01*
X93820140Y-91495839D01*
X93840586Y-91506570D01*
X93882388Y-91543603D01*
X93924264Y-91575736D01*
X93936165Y-91591246D01*
X93948778Y-91602420D01*
X93984943Y-91654815D01*
X94019615Y-91700000D01*
X94024841Y-91712617D01*
X94030882Y-91721369D01*
X94057089Y-91790471D01*
X94079555Y-91844709D01*
X94080563Y-91852366D01*
X94082136Y-91856514D01*
X94094315Y-91956821D01*
X94100000Y-92000000D01*
X94094314Y-92043182D01*
X94082136Y-92143485D01*
X94080563Y-92147631D01*
X94079555Y-92155291D01*
X94057084Y-92209539D01*
X94030882Y-92278630D01*
X94024842Y-92287380D01*
X94019615Y-92300000D01*
X93984936Y-92345193D01*
X93948778Y-92397579D01*
X93936167Y-92408750D01*
X93924264Y-92424264D01*
X93882379Y-92456402D01*
X93840586Y-92493429D01*
X93820144Y-92504157D01*
X93800000Y-92519615D01*
X93755845Y-92537904D01*
X93712610Y-92560596D01*
X93684092Y-92567624D01*
X93655291Y-92579555D01*
X93613219Y-92585093D01*
X93572267Y-92595188D01*
X93536550Y-92595188D01*
X93500000Y-92600000D01*
X93463450Y-92595188D01*
X93427733Y-92595188D01*
X93386780Y-92585093D01*
X93344709Y-92579555D01*
X93315908Y-92567625D01*
X93287389Y-92560596D01*
X93244149Y-92537902D01*
X93200000Y-92519615D01*
X93179857Y-92504159D01*
X93159413Y-92493429D01*
X93117612Y-92456397D01*
X93075736Y-92424264D01*
X93063834Y-92408753D01*
X93051221Y-92397579D01*
X93015053Y-92345180D01*
X92980385Y-92300000D01*
X92975159Y-92287383D01*
X92969117Y-92278630D01*
X92942903Y-92209510D01*
X92920445Y-92155291D01*
X92919437Y-92147635D01*
X92917863Y-92143485D01*
X92905672Y-92043084D01*
X92900000Y-92000000D01*
X92905671Y-91956919D01*
X92917863Y-91856514D01*
X92919437Y-91852362D01*
X92920445Y-91844709D01*
X92942898Y-91790500D01*
X92969117Y-91721369D01*
X92975160Y-91712613D01*
X92980385Y-91700000D01*
X93015046Y-91654828D01*
X93051221Y-91602420D01*
X93063836Y-91591243D01*
X93075736Y-91575736D01*
X93117604Y-91543609D01*
X93159413Y-91506570D01*
X93179861Y-91495837D01*
X93200000Y-91480385D01*
X93244140Y-91462101D01*
X93287389Y-91439403D01*
X93315913Y-91432372D01*
X93344709Y-91420445D01*
X93386777Y-91414906D01*
X93427733Y-91404812D01*
X93463450Y-91404812D01*
X93500000Y-91400000D01*
X93536550Y-91404812D01*
G37*
G36*
X110954050Y-91404812D02*
G01*
X110989767Y-91404812D01*
X111030721Y-91414906D01*
X111072791Y-91420445D01*
X111101588Y-91432373D01*
X111130110Y-91439403D01*
X111173354Y-91462099D01*
X111217500Y-91480385D01*
X111237640Y-91495839D01*
X111258086Y-91506570D01*
X111299888Y-91543603D01*
X111341764Y-91575736D01*
X111353665Y-91591246D01*
X111366278Y-91602420D01*
X111402443Y-91654815D01*
X111437115Y-91700000D01*
X111442341Y-91712617D01*
X111448382Y-91721369D01*
X111474589Y-91790471D01*
X111497055Y-91844709D01*
X111498063Y-91852366D01*
X111499636Y-91856514D01*
X111511815Y-91956821D01*
X111517500Y-92000000D01*
X111511814Y-92043182D01*
X111499636Y-92143485D01*
X111498063Y-92147631D01*
X111497055Y-92155291D01*
X111474584Y-92209539D01*
X111448382Y-92278630D01*
X111442342Y-92287380D01*
X111437115Y-92300000D01*
X111402436Y-92345193D01*
X111366278Y-92397579D01*
X111353667Y-92408750D01*
X111341764Y-92424264D01*
X111299879Y-92456402D01*
X111258086Y-92493429D01*
X111237644Y-92504157D01*
X111217500Y-92519615D01*
X111173345Y-92537904D01*
X111130110Y-92560596D01*
X111101592Y-92567624D01*
X111072791Y-92579555D01*
X111030719Y-92585093D01*
X110989767Y-92595188D01*
X110954050Y-92595188D01*
X110917500Y-92600000D01*
X110880950Y-92595188D01*
X110845233Y-92595188D01*
X110804280Y-92585093D01*
X110762209Y-92579555D01*
X110733408Y-92567625D01*
X110704889Y-92560596D01*
X110661649Y-92537902D01*
X110617500Y-92519615D01*
X110597357Y-92504159D01*
X110576913Y-92493429D01*
X110535112Y-92456397D01*
X110493236Y-92424264D01*
X110481334Y-92408753D01*
X110468721Y-92397579D01*
X110432553Y-92345180D01*
X110397885Y-92300000D01*
X110392659Y-92287383D01*
X110386617Y-92278630D01*
X110360403Y-92209510D01*
X110337945Y-92155291D01*
X110336937Y-92147635D01*
X110335363Y-92143485D01*
X110323172Y-92043084D01*
X110317500Y-92000000D01*
X110323171Y-91956919D01*
X110335363Y-91856514D01*
X110336937Y-91852362D01*
X110337945Y-91844709D01*
X110360398Y-91790500D01*
X110386617Y-91721369D01*
X110392660Y-91712613D01*
X110397885Y-91700000D01*
X110432546Y-91654828D01*
X110468721Y-91602420D01*
X110481336Y-91591243D01*
X110493236Y-91575736D01*
X110535104Y-91543609D01*
X110576913Y-91506570D01*
X110597361Y-91495837D01*
X110617500Y-91480385D01*
X110661640Y-91462101D01*
X110704889Y-91439403D01*
X110733413Y-91432372D01*
X110762209Y-91420445D01*
X110804277Y-91414906D01*
X110845233Y-91404812D01*
X110880950Y-91404812D01*
X110917500Y-91400000D01*
X110954050Y-91404812D01*
G37*
G36*
X128536550Y-91404812D02*
G01*
X128572267Y-91404812D01*
X128613221Y-91414906D01*
X128655291Y-91420445D01*
X128684088Y-91432373D01*
X128712610Y-91439403D01*
X128755854Y-91462099D01*
X128800000Y-91480385D01*
X128820140Y-91495839D01*
X128840586Y-91506570D01*
X128882388Y-91543603D01*
X128924264Y-91575736D01*
X128936165Y-91591246D01*
X128948778Y-91602420D01*
X128984943Y-91654815D01*
X129019615Y-91700000D01*
X129024841Y-91712617D01*
X129030882Y-91721369D01*
X129057089Y-91790471D01*
X129079555Y-91844709D01*
X129080563Y-91852366D01*
X129082136Y-91856514D01*
X129094315Y-91956821D01*
X129100000Y-92000000D01*
X129094314Y-92043182D01*
X129082136Y-92143485D01*
X129080563Y-92147631D01*
X129079555Y-92155291D01*
X129057084Y-92209539D01*
X129030882Y-92278630D01*
X129024842Y-92287380D01*
X129019615Y-92300000D01*
X128984936Y-92345193D01*
X128948778Y-92397579D01*
X128936167Y-92408750D01*
X128924264Y-92424264D01*
X128882379Y-92456402D01*
X128840586Y-92493429D01*
X128820144Y-92504157D01*
X128800000Y-92519615D01*
X128755845Y-92537904D01*
X128712610Y-92560596D01*
X128684092Y-92567624D01*
X128655291Y-92579555D01*
X128613219Y-92585093D01*
X128572267Y-92595188D01*
X128536550Y-92595188D01*
X128500000Y-92600000D01*
X128463450Y-92595188D01*
X128427733Y-92595188D01*
X128386780Y-92585093D01*
X128344709Y-92579555D01*
X128315908Y-92567625D01*
X128287389Y-92560596D01*
X128244149Y-92537902D01*
X128200000Y-92519615D01*
X128179857Y-92504159D01*
X128159413Y-92493429D01*
X128117612Y-92456397D01*
X128075736Y-92424264D01*
X128063834Y-92408753D01*
X128051221Y-92397579D01*
X128015053Y-92345180D01*
X127980385Y-92300000D01*
X127975159Y-92287383D01*
X127969117Y-92278630D01*
X127942903Y-92209510D01*
X127920445Y-92155291D01*
X127919437Y-92147635D01*
X127917863Y-92143485D01*
X127905672Y-92043084D01*
X127900000Y-92000000D01*
X127905671Y-91956919D01*
X127917863Y-91856514D01*
X127919437Y-91852362D01*
X127920445Y-91844709D01*
X127942898Y-91790500D01*
X127969117Y-91721369D01*
X127975160Y-91712613D01*
X127980385Y-91700000D01*
X128015046Y-91654828D01*
X128051221Y-91602420D01*
X128063836Y-91591243D01*
X128075736Y-91575736D01*
X128117604Y-91543609D01*
X128159413Y-91506570D01*
X128179861Y-91495837D01*
X128200000Y-91480385D01*
X128244140Y-91462101D01*
X128287389Y-91439403D01*
X128315913Y-91432372D01*
X128344709Y-91420445D01*
X128386777Y-91414906D01*
X128427733Y-91404812D01*
X128463450Y-91404812D01*
X128500000Y-91400000D01*
X128536550Y-91404812D01*
G37*
G36*
X84724522Y-91046374D02*
G01*
X84760796Y-91046374D01*
X84802385Y-91056624D01*
X84844991Y-91062234D01*
X84874156Y-91074314D01*
X84903117Y-91081453D01*
X84947030Y-91104500D01*
X84991750Y-91123024D01*
X85012150Y-91138678D01*
X85032917Y-91149577D01*
X85075379Y-91187195D01*
X85117774Y-91219726D01*
X85129822Y-91235427D01*
X85142640Y-91246783D01*
X85179389Y-91300025D01*
X85214476Y-91345750D01*
X85219765Y-91358520D01*
X85225908Y-91367419D01*
X85252553Y-91437676D01*
X85275266Y-91492509D01*
X85276285Y-91500251D01*
X85277889Y-91504480D01*
X85290313Y-91606803D01*
X85296000Y-91650000D01*
X85290312Y-91693200D01*
X85277889Y-91795519D01*
X85276285Y-91799746D01*
X85275266Y-91807491D01*
X85252548Y-91862334D01*
X85225908Y-91932580D01*
X85219766Y-91941477D01*
X85214476Y-91954250D01*
X85179383Y-91999983D01*
X85142640Y-92053216D01*
X85129824Y-92064569D01*
X85117774Y-92080274D01*
X85075370Y-92112811D01*
X85032917Y-92150422D01*
X85012154Y-92161318D01*
X84991750Y-92176976D01*
X84947021Y-92195503D01*
X84903117Y-92218546D01*
X84874161Y-92225683D01*
X84844991Y-92237766D01*
X84802382Y-92243375D01*
X84760796Y-92253626D01*
X84724522Y-92253626D01*
X84687500Y-92258500D01*
X84650478Y-92253626D01*
X84614204Y-92253626D01*
X84572616Y-92243375D01*
X84530009Y-92237766D01*
X84500839Y-92225683D01*
X84471882Y-92218546D01*
X84427974Y-92195501D01*
X84383250Y-92176976D01*
X84362847Y-92161320D01*
X84342082Y-92150422D01*
X84299621Y-92112805D01*
X84257226Y-92080274D01*
X84245177Y-92064572D01*
X84232359Y-92053216D01*
X84195606Y-91999970D01*
X84160524Y-91954250D01*
X84155234Y-91941481D01*
X84149091Y-91932580D01*
X84122439Y-91862305D01*
X84099734Y-91807491D01*
X84098715Y-91799751D01*
X84097110Y-91795519D01*
X84084674Y-91693102D01*
X84079000Y-91650000D01*
X84084674Y-91606900D01*
X84097110Y-91504480D01*
X84098715Y-91500247D01*
X84099734Y-91492509D01*
X84122434Y-91437705D01*
X84149091Y-91367419D01*
X84155235Y-91358516D01*
X84160524Y-91345750D01*
X84195600Y-91300038D01*
X84232359Y-91246783D01*
X84245179Y-91235424D01*
X84257226Y-91219726D01*
X84299613Y-91187200D01*
X84342082Y-91149577D01*
X84362851Y-91138676D01*
X84383250Y-91123024D01*
X84427965Y-91104502D01*
X84471882Y-91081453D01*
X84500844Y-91074314D01*
X84530009Y-91062234D01*
X84572613Y-91056624D01*
X84614204Y-91046374D01*
X84650478Y-91046374D01*
X84687500Y-91041500D01*
X84724522Y-91046374D01*
G37*
G36*
X102197022Y-91006374D02*
G01*
X102233296Y-91006374D01*
X102274885Y-91016624D01*
X102317491Y-91022234D01*
X102346656Y-91034314D01*
X102375617Y-91041453D01*
X102419530Y-91064500D01*
X102464250Y-91083024D01*
X102484650Y-91098678D01*
X102505417Y-91109577D01*
X102547879Y-91147195D01*
X102590274Y-91179726D01*
X102602322Y-91195427D01*
X102615140Y-91206783D01*
X102651889Y-91260025D01*
X102686976Y-91305750D01*
X102692265Y-91318520D01*
X102698408Y-91327419D01*
X102725053Y-91397676D01*
X102747766Y-91452509D01*
X102748785Y-91460251D01*
X102750389Y-91464480D01*
X102762813Y-91566803D01*
X102768500Y-91610000D01*
X102762812Y-91653200D01*
X102750389Y-91755519D01*
X102748785Y-91759746D01*
X102747766Y-91767491D01*
X102725048Y-91822334D01*
X102698408Y-91892580D01*
X102692266Y-91901477D01*
X102686976Y-91914250D01*
X102651883Y-91959983D01*
X102615140Y-92013216D01*
X102602324Y-92024569D01*
X102590274Y-92040274D01*
X102547870Y-92072811D01*
X102505417Y-92110422D01*
X102484654Y-92121318D01*
X102464250Y-92136976D01*
X102419521Y-92155503D01*
X102375617Y-92178546D01*
X102346661Y-92185683D01*
X102317491Y-92197766D01*
X102274882Y-92203375D01*
X102233296Y-92213626D01*
X102197022Y-92213626D01*
X102160000Y-92218500D01*
X102122978Y-92213626D01*
X102086704Y-92213626D01*
X102045116Y-92203375D01*
X102002509Y-92197766D01*
X101973339Y-92185683D01*
X101944382Y-92178546D01*
X101900474Y-92155501D01*
X101855750Y-92136976D01*
X101835347Y-92121320D01*
X101814582Y-92110422D01*
X101772121Y-92072805D01*
X101729726Y-92040274D01*
X101717677Y-92024572D01*
X101704859Y-92013216D01*
X101668106Y-91959970D01*
X101633024Y-91914250D01*
X101627734Y-91901481D01*
X101621591Y-91892580D01*
X101594939Y-91822305D01*
X101572234Y-91767491D01*
X101571215Y-91759751D01*
X101569610Y-91755519D01*
X101557174Y-91653102D01*
X101551500Y-91610000D01*
X101557174Y-91566900D01*
X101569610Y-91464480D01*
X101571215Y-91460247D01*
X101572234Y-91452509D01*
X101594934Y-91397705D01*
X101621591Y-91327419D01*
X101627735Y-91318516D01*
X101633024Y-91305750D01*
X101668100Y-91260038D01*
X101704859Y-91206783D01*
X101717679Y-91195424D01*
X101729726Y-91179726D01*
X101772113Y-91147200D01*
X101814582Y-91109577D01*
X101835351Y-91098676D01*
X101855750Y-91083024D01*
X101900465Y-91064502D01*
X101944382Y-91041453D01*
X101973344Y-91034314D01*
X102002509Y-91022234D01*
X102045113Y-91016624D01*
X102086704Y-91006374D01*
X102122978Y-91006374D01*
X102160000Y-91001500D01*
X102197022Y-91006374D01*
G37*
G36*
X67177022Y-90996374D02*
G01*
X67213296Y-90996374D01*
X67254885Y-91006624D01*
X67297491Y-91012234D01*
X67326656Y-91024314D01*
X67355617Y-91031453D01*
X67399530Y-91054500D01*
X67444250Y-91073024D01*
X67464650Y-91088678D01*
X67485417Y-91099577D01*
X67527879Y-91137195D01*
X67570274Y-91169726D01*
X67582322Y-91185427D01*
X67595140Y-91196783D01*
X67631889Y-91250025D01*
X67666976Y-91295750D01*
X67672265Y-91308520D01*
X67678408Y-91317419D01*
X67705053Y-91387676D01*
X67727766Y-91442509D01*
X67728785Y-91450251D01*
X67730389Y-91454480D01*
X67742813Y-91556803D01*
X67748500Y-91600000D01*
X67742812Y-91643200D01*
X67730389Y-91745519D01*
X67728785Y-91749746D01*
X67727766Y-91757491D01*
X67705048Y-91812334D01*
X67678408Y-91882580D01*
X67672266Y-91891477D01*
X67666976Y-91904250D01*
X67631883Y-91949983D01*
X67595140Y-92003216D01*
X67582324Y-92014569D01*
X67570274Y-92030274D01*
X67527870Y-92062811D01*
X67485417Y-92100422D01*
X67464654Y-92111318D01*
X67444250Y-92126976D01*
X67399521Y-92145503D01*
X67355617Y-92168546D01*
X67326661Y-92175683D01*
X67297491Y-92187766D01*
X67254882Y-92193375D01*
X67213296Y-92203626D01*
X67177022Y-92203626D01*
X67140000Y-92208500D01*
X67102978Y-92203626D01*
X67066704Y-92203626D01*
X67025116Y-92193375D01*
X66982509Y-92187766D01*
X66953339Y-92175683D01*
X66924382Y-92168546D01*
X66880474Y-92145501D01*
X66835750Y-92126976D01*
X66815347Y-92111320D01*
X66794582Y-92100422D01*
X66752121Y-92062805D01*
X66709726Y-92030274D01*
X66697677Y-92014572D01*
X66684859Y-92003216D01*
X66648106Y-91949970D01*
X66613024Y-91904250D01*
X66607734Y-91891481D01*
X66601591Y-91882580D01*
X66574939Y-91812305D01*
X66552234Y-91757491D01*
X66551215Y-91749751D01*
X66549610Y-91745519D01*
X66537174Y-91643102D01*
X66531500Y-91600000D01*
X66537174Y-91556900D01*
X66549610Y-91454480D01*
X66551215Y-91450247D01*
X66552234Y-91442509D01*
X66574934Y-91387705D01*
X66601591Y-91317419D01*
X66607735Y-91308516D01*
X66613024Y-91295750D01*
X66648100Y-91250038D01*
X66684859Y-91196783D01*
X66697679Y-91185424D01*
X66709726Y-91169726D01*
X66752113Y-91137200D01*
X66794582Y-91099577D01*
X66815351Y-91088676D01*
X66835750Y-91073024D01*
X66880465Y-91054502D01*
X66924382Y-91031453D01*
X66953344Y-91024314D01*
X66982509Y-91012234D01*
X67025113Y-91006624D01*
X67066704Y-90996374D01*
X67102978Y-90996374D01*
X67140000Y-90991500D01*
X67177022Y-90996374D01*
G37*
G36*
X119724522Y-90841374D02*
G01*
X119760796Y-90841374D01*
X119802385Y-90851624D01*
X119844991Y-90857234D01*
X119874156Y-90869314D01*
X119903117Y-90876453D01*
X119947030Y-90899500D01*
X119991750Y-90918024D01*
X120012150Y-90933678D01*
X120032917Y-90944577D01*
X120075379Y-90982195D01*
X120117774Y-91014726D01*
X120129822Y-91030427D01*
X120142640Y-91041783D01*
X120179389Y-91095025D01*
X120214476Y-91140750D01*
X120219765Y-91153520D01*
X120225908Y-91162419D01*
X120252553Y-91232676D01*
X120275266Y-91287509D01*
X120276285Y-91295251D01*
X120277889Y-91299480D01*
X120290313Y-91401803D01*
X120296000Y-91445000D01*
X120290312Y-91488200D01*
X120277889Y-91590519D01*
X120276285Y-91594746D01*
X120275266Y-91602491D01*
X120252548Y-91657334D01*
X120225908Y-91727580D01*
X120219766Y-91736477D01*
X120214476Y-91749250D01*
X120179383Y-91794983D01*
X120142640Y-91848216D01*
X120129824Y-91859569D01*
X120117774Y-91875274D01*
X120075370Y-91907811D01*
X120032917Y-91945422D01*
X120012154Y-91956318D01*
X119991750Y-91971976D01*
X119947021Y-91990503D01*
X119903117Y-92013546D01*
X119874161Y-92020683D01*
X119844991Y-92032766D01*
X119802382Y-92038375D01*
X119760796Y-92048626D01*
X119724522Y-92048626D01*
X119687500Y-92053500D01*
X119650478Y-92048626D01*
X119614204Y-92048626D01*
X119572616Y-92038375D01*
X119530009Y-92032766D01*
X119500839Y-92020683D01*
X119471882Y-92013546D01*
X119427974Y-91990501D01*
X119383250Y-91971976D01*
X119362847Y-91956320D01*
X119342082Y-91945422D01*
X119299621Y-91907805D01*
X119257226Y-91875274D01*
X119245177Y-91859572D01*
X119232359Y-91848216D01*
X119195606Y-91794970D01*
X119160524Y-91749250D01*
X119155234Y-91736481D01*
X119149091Y-91727580D01*
X119122439Y-91657305D01*
X119099734Y-91602491D01*
X119098715Y-91594751D01*
X119097110Y-91590519D01*
X119084674Y-91488102D01*
X119079000Y-91445000D01*
X119084674Y-91401900D01*
X119097110Y-91299480D01*
X119098715Y-91295247D01*
X119099734Y-91287509D01*
X119122434Y-91232705D01*
X119149091Y-91162419D01*
X119155235Y-91153516D01*
X119160524Y-91140750D01*
X119195600Y-91095038D01*
X119232359Y-91041783D01*
X119245179Y-91030424D01*
X119257226Y-91014726D01*
X119299613Y-90982200D01*
X119342082Y-90944577D01*
X119362851Y-90933676D01*
X119383250Y-90918024D01*
X119427965Y-90899502D01*
X119471882Y-90876453D01*
X119500844Y-90869314D01*
X119530009Y-90857234D01*
X119572613Y-90851624D01*
X119614204Y-90841374D01*
X119650478Y-90841374D01*
X119687500Y-90836500D01*
X119724522Y-90841374D01*
G37*
G36*
X75976550Y-89404812D02*
G01*
X76012267Y-89404812D01*
X76053221Y-89414906D01*
X76095291Y-89420445D01*
X76124088Y-89432373D01*
X76152610Y-89439403D01*
X76195854Y-89462099D01*
X76240000Y-89480385D01*
X76260140Y-89495839D01*
X76280586Y-89506570D01*
X76322388Y-89543603D01*
X76364264Y-89575736D01*
X76376165Y-89591246D01*
X76388778Y-89602420D01*
X76424943Y-89654815D01*
X76459615Y-89700000D01*
X76464841Y-89712617D01*
X76470882Y-89721369D01*
X76497089Y-89790471D01*
X76519555Y-89844709D01*
X76520563Y-89852366D01*
X76522136Y-89856514D01*
X76534315Y-89956821D01*
X76540000Y-90000000D01*
X76534314Y-90043182D01*
X76522136Y-90143485D01*
X76520563Y-90147631D01*
X76519555Y-90155291D01*
X76497084Y-90209539D01*
X76470882Y-90278630D01*
X76464842Y-90287380D01*
X76459615Y-90300000D01*
X76424936Y-90345193D01*
X76388778Y-90397579D01*
X76376167Y-90408750D01*
X76364264Y-90424264D01*
X76322379Y-90456402D01*
X76280586Y-90493429D01*
X76260144Y-90504157D01*
X76240000Y-90519615D01*
X76195845Y-90537904D01*
X76152610Y-90560596D01*
X76124092Y-90567624D01*
X76095291Y-90579555D01*
X76053219Y-90585093D01*
X76012267Y-90595188D01*
X75976550Y-90595188D01*
X75940000Y-90600000D01*
X75903450Y-90595188D01*
X75867733Y-90595188D01*
X75826780Y-90585093D01*
X75784709Y-90579555D01*
X75755908Y-90567625D01*
X75727389Y-90560596D01*
X75684149Y-90537902D01*
X75640000Y-90519615D01*
X75619857Y-90504159D01*
X75599413Y-90493429D01*
X75557612Y-90456397D01*
X75515736Y-90424264D01*
X75503834Y-90408753D01*
X75491221Y-90397579D01*
X75455053Y-90345180D01*
X75420385Y-90300000D01*
X75415159Y-90287383D01*
X75409117Y-90278630D01*
X75382903Y-90209510D01*
X75360445Y-90155291D01*
X75359437Y-90147635D01*
X75357863Y-90143485D01*
X75345672Y-90043084D01*
X75340000Y-90000000D01*
X75345671Y-89956919D01*
X75357863Y-89856514D01*
X75359437Y-89852362D01*
X75360445Y-89844709D01*
X75382898Y-89790500D01*
X75409117Y-89721369D01*
X75415160Y-89712613D01*
X75420385Y-89700000D01*
X75455046Y-89654828D01*
X75491221Y-89602420D01*
X75503836Y-89591243D01*
X75515736Y-89575736D01*
X75557604Y-89543609D01*
X75599413Y-89506570D01*
X75619861Y-89495837D01*
X75640000Y-89480385D01*
X75684140Y-89462101D01*
X75727389Y-89439403D01*
X75755913Y-89432372D01*
X75784709Y-89420445D01*
X75826777Y-89414906D01*
X75867733Y-89404812D01*
X75903450Y-89404812D01*
X75940000Y-89400000D01*
X75976550Y-89404812D01*
G37*
G36*
X93536550Y-89404812D02*
G01*
X93572267Y-89404812D01*
X93613221Y-89414906D01*
X93655291Y-89420445D01*
X93684088Y-89432373D01*
X93712610Y-89439403D01*
X93755854Y-89462099D01*
X93800000Y-89480385D01*
X93820140Y-89495839D01*
X93840586Y-89506570D01*
X93882388Y-89543603D01*
X93924264Y-89575736D01*
X93936165Y-89591246D01*
X93948778Y-89602420D01*
X93984943Y-89654815D01*
X94019615Y-89700000D01*
X94024841Y-89712617D01*
X94030882Y-89721369D01*
X94057089Y-89790471D01*
X94079555Y-89844709D01*
X94080563Y-89852366D01*
X94082136Y-89856514D01*
X94094315Y-89956821D01*
X94100000Y-90000000D01*
X94094314Y-90043182D01*
X94082136Y-90143485D01*
X94080563Y-90147631D01*
X94079555Y-90155291D01*
X94057084Y-90209539D01*
X94030882Y-90278630D01*
X94024842Y-90287380D01*
X94019615Y-90300000D01*
X93984936Y-90345193D01*
X93948778Y-90397579D01*
X93936167Y-90408750D01*
X93924264Y-90424264D01*
X93882379Y-90456402D01*
X93840586Y-90493429D01*
X93820144Y-90504157D01*
X93800000Y-90519615D01*
X93755845Y-90537904D01*
X93712610Y-90560596D01*
X93684092Y-90567624D01*
X93655291Y-90579555D01*
X93613219Y-90585093D01*
X93572267Y-90595188D01*
X93536550Y-90595188D01*
X93500000Y-90600000D01*
X93463450Y-90595188D01*
X93427733Y-90595188D01*
X93386780Y-90585093D01*
X93344709Y-90579555D01*
X93315908Y-90567625D01*
X93287389Y-90560596D01*
X93244149Y-90537902D01*
X93200000Y-90519615D01*
X93179857Y-90504159D01*
X93159413Y-90493429D01*
X93117612Y-90456397D01*
X93075736Y-90424264D01*
X93063834Y-90408753D01*
X93051221Y-90397579D01*
X93015053Y-90345180D01*
X92980385Y-90300000D01*
X92975159Y-90287383D01*
X92969117Y-90278630D01*
X92942903Y-90209510D01*
X92920445Y-90155291D01*
X92919437Y-90147635D01*
X92917863Y-90143485D01*
X92905672Y-90043084D01*
X92900000Y-90000000D01*
X92905671Y-89956919D01*
X92917863Y-89856514D01*
X92919437Y-89852362D01*
X92920445Y-89844709D01*
X92942898Y-89790500D01*
X92969117Y-89721369D01*
X92975160Y-89712613D01*
X92980385Y-89700000D01*
X93015046Y-89654828D01*
X93051221Y-89602420D01*
X93063836Y-89591243D01*
X93075736Y-89575736D01*
X93117604Y-89543609D01*
X93159413Y-89506570D01*
X93179861Y-89495837D01*
X93200000Y-89480385D01*
X93244140Y-89462101D01*
X93287389Y-89439403D01*
X93315913Y-89432372D01*
X93344709Y-89420445D01*
X93386777Y-89414906D01*
X93427733Y-89404812D01*
X93463450Y-89404812D01*
X93500000Y-89400000D01*
X93536550Y-89404812D01*
G37*
G36*
X110954050Y-89404812D02*
G01*
X110989767Y-89404812D01*
X111030721Y-89414906D01*
X111072791Y-89420445D01*
X111101588Y-89432373D01*
X111130110Y-89439403D01*
X111173354Y-89462099D01*
X111217500Y-89480385D01*
X111237640Y-89495839D01*
X111258086Y-89506570D01*
X111299888Y-89543603D01*
X111341764Y-89575736D01*
X111353665Y-89591246D01*
X111366278Y-89602420D01*
X111402443Y-89654815D01*
X111437115Y-89700000D01*
X111442341Y-89712617D01*
X111448382Y-89721369D01*
X111474589Y-89790471D01*
X111497055Y-89844709D01*
X111498063Y-89852366D01*
X111499636Y-89856514D01*
X111511815Y-89956821D01*
X111517500Y-90000000D01*
X111511814Y-90043182D01*
X111499636Y-90143485D01*
X111498063Y-90147631D01*
X111497055Y-90155291D01*
X111474584Y-90209539D01*
X111448382Y-90278630D01*
X111442342Y-90287380D01*
X111437115Y-90300000D01*
X111402436Y-90345193D01*
X111366278Y-90397579D01*
X111353667Y-90408750D01*
X111341764Y-90424264D01*
X111299879Y-90456402D01*
X111258086Y-90493429D01*
X111237644Y-90504157D01*
X111217500Y-90519615D01*
X111173345Y-90537904D01*
X111130110Y-90560596D01*
X111101592Y-90567624D01*
X111072791Y-90579555D01*
X111030719Y-90585093D01*
X110989767Y-90595188D01*
X110954050Y-90595188D01*
X110917500Y-90600000D01*
X110880950Y-90595188D01*
X110845233Y-90595188D01*
X110804280Y-90585093D01*
X110762209Y-90579555D01*
X110733408Y-90567625D01*
X110704889Y-90560596D01*
X110661649Y-90537902D01*
X110617500Y-90519615D01*
X110597357Y-90504159D01*
X110576913Y-90493429D01*
X110535112Y-90456397D01*
X110493236Y-90424264D01*
X110481334Y-90408753D01*
X110468721Y-90397579D01*
X110432553Y-90345180D01*
X110397885Y-90300000D01*
X110392659Y-90287383D01*
X110386617Y-90278630D01*
X110360403Y-90209510D01*
X110337945Y-90155291D01*
X110336937Y-90147635D01*
X110335363Y-90143485D01*
X110323172Y-90043084D01*
X110317500Y-90000000D01*
X110323171Y-89956919D01*
X110335363Y-89856514D01*
X110336937Y-89852362D01*
X110337945Y-89844709D01*
X110360398Y-89790500D01*
X110386617Y-89721369D01*
X110392660Y-89712613D01*
X110397885Y-89700000D01*
X110432546Y-89654828D01*
X110468721Y-89602420D01*
X110481336Y-89591243D01*
X110493236Y-89575736D01*
X110535104Y-89543609D01*
X110576913Y-89506570D01*
X110597361Y-89495837D01*
X110617500Y-89480385D01*
X110661640Y-89462101D01*
X110704889Y-89439403D01*
X110733413Y-89432372D01*
X110762209Y-89420445D01*
X110804277Y-89414906D01*
X110845233Y-89404812D01*
X110880950Y-89404812D01*
X110917500Y-89400000D01*
X110954050Y-89404812D01*
G37*
G36*
X128536550Y-89404812D02*
G01*
X128572267Y-89404812D01*
X128613221Y-89414906D01*
X128655291Y-89420445D01*
X128684088Y-89432373D01*
X128712610Y-89439403D01*
X128755854Y-89462099D01*
X128800000Y-89480385D01*
X128820140Y-89495839D01*
X128840586Y-89506570D01*
X128882388Y-89543603D01*
X128924264Y-89575736D01*
X128936165Y-89591246D01*
X128948778Y-89602420D01*
X128984943Y-89654815D01*
X129019615Y-89700000D01*
X129024841Y-89712617D01*
X129030882Y-89721369D01*
X129057089Y-89790471D01*
X129079555Y-89844709D01*
X129080563Y-89852366D01*
X129082136Y-89856514D01*
X129094315Y-89956821D01*
X129100000Y-90000000D01*
X129094314Y-90043182D01*
X129082136Y-90143485D01*
X129080563Y-90147631D01*
X129079555Y-90155291D01*
X129057084Y-90209539D01*
X129030882Y-90278630D01*
X129024842Y-90287380D01*
X129019615Y-90300000D01*
X128984936Y-90345193D01*
X128948778Y-90397579D01*
X128936167Y-90408750D01*
X128924264Y-90424264D01*
X128882379Y-90456402D01*
X128840586Y-90493429D01*
X128820144Y-90504157D01*
X128800000Y-90519615D01*
X128755845Y-90537904D01*
X128712610Y-90560596D01*
X128684092Y-90567624D01*
X128655291Y-90579555D01*
X128613219Y-90585093D01*
X128572267Y-90595188D01*
X128536550Y-90595188D01*
X128500000Y-90600000D01*
X128463450Y-90595188D01*
X128427733Y-90595188D01*
X128386780Y-90585093D01*
X128344709Y-90579555D01*
X128315908Y-90567625D01*
X128287389Y-90560596D01*
X128244149Y-90537902D01*
X128200000Y-90519615D01*
X128179857Y-90504159D01*
X128159413Y-90493429D01*
X128117612Y-90456397D01*
X128075736Y-90424264D01*
X128063834Y-90408753D01*
X128051221Y-90397579D01*
X128015053Y-90345180D01*
X127980385Y-90300000D01*
X127975159Y-90287383D01*
X127969117Y-90278630D01*
X127942903Y-90209510D01*
X127920445Y-90155291D01*
X127919437Y-90147635D01*
X127917863Y-90143485D01*
X127905672Y-90043084D01*
X127900000Y-90000000D01*
X127905671Y-89956919D01*
X127917863Y-89856514D01*
X127919437Y-89852362D01*
X127920445Y-89844709D01*
X127942898Y-89790500D01*
X127969117Y-89721369D01*
X127975160Y-89712613D01*
X127980385Y-89700000D01*
X128015046Y-89654828D01*
X128051221Y-89602420D01*
X128063836Y-89591243D01*
X128075736Y-89575736D01*
X128117604Y-89543609D01*
X128159413Y-89506570D01*
X128179861Y-89495837D01*
X128200000Y-89480385D01*
X128244140Y-89462101D01*
X128287389Y-89439403D01*
X128315913Y-89432372D01*
X128344709Y-89420445D01*
X128386777Y-89414906D01*
X128427733Y-89404812D01*
X128463450Y-89404812D01*
X128500000Y-89400000D01*
X128536550Y-89404812D01*
G37*
G36*
X68790157Y-82350079D02*
G01*
X68837578Y-82359824D01*
X68883084Y-82364306D01*
X68932860Y-82379405D01*
X68986369Y-82390402D01*
X69027990Y-82408263D01*
X69068745Y-82420626D01*
X69117391Y-82446628D01*
X69170449Y-82469397D01*
X69205068Y-82493493D01*
X69239850Y-82512084D01*
X69284905Y-82549060D01*
X69334859Y-82583829D01*
X69361782Y-82612152D01*
X69389829Y-82635170D01*
X69428797Y-82682652D01*
X69472868Y-82729015D01*
X69491882Y-82759521D01*
X69512915Y-82785149D01*
X69543369Y-82842124D01*
X69578826Y-82899010D01*
X69590221Y-82929778D01*
X69604373Y-82956254D01*
X69624046Y-83021109D01*
X69648396Y-83086854D01*
X69652890Y-83116195D01*
X69660693Y-83141915D01*
X69667645Y-83212505D01*
X69678729Y-83284857D01*
X69677383Y-83311388D01*
X69679709Y-83335000D01*
X69672446Y-83408737D01*
X69668584Y-83484913D01*
X69662710Y-83507597D01*
X69660693Y-83528084D01*
X69638253Y-83602057D01*
X69618375Y-83678832D01*
X69609435Y-83697056D01*
X69604373Y-83713745D01*
X69566416Y-83784756D01*
X69530158Y-83858674D01*
X69519650Y-83872248D01*
X69512915Y-83884850D01*
X69459786Y-83949586D01*
X69407545Y-84017077D01*
X69396893Y-84026221D01*
X69389829Y-84034829D01*
X69322527Y-84090062D01*
X69255556Y-84147556D01*
X69246029Y-84152843D01*
X69239850Y-84157915D01*
X69159878Y-84200660D01*
X69080412Y-84244768D01*
X69073023Y-84247086D01*
X69068745Y-84249373D01*
X68978004Y-84276898D01*
X68889286Y-84304735D01*
X68884707Y-84305200D01*
X68883084Y-84305693D01*
X68780745Y-84315772D01*
X68690000Y-84325000D01*
X68687053Y-84325000D01*
X66712947Y-84325000D01*
X66710000Y-84325000D01*
X66609843Y-84319921D01*
X66562415Y-84310174D01*
X66516915Y-84305693D01*
X66467146Y-84290595D01*
X66413631Y-84279598D01*
X66372004Y-84261734D01*
X66331254Y-84249373D01*
X66282613Y-84223373D01*
X66229551Y-84200603D01*
X66194928Y-84176504D01*
X66160149Y-84157915D01*
X66115095Y-84120940D01*
X66065141Y-84086171D01*
X66038216Y-84057846D01*
X66010170Y-84034829D01*
X65971201Y-83987346D01*
X65927132Y-83940985D01*
X65908118Y-83910479D01*
X65887084Y-83884850D01*
X65856627Y-83827870D01*
X65821174Y-83770990D01*
X65809779Y-83740224D01*
X65795626Y-83713745D01*
X65775949Y-83648880D01*
X65751604Y-83583146D01*
X65747109Y-83553809D01*
X65739306Y-83528084D01*
X65732352Y-83457477D01*
X65721271Y-83385143D01*
X65722616Y-83358618D01*
X65720290Y-83335000D01*
X65727554Y-83261240D01*
X65731416Y-83185087D01*
X65737287Y-83162409D01*
X65739306Y-83141915D01*
X65761754Y-83067913D01*
X65781625Y-82991168D01*
X65790561Y-82972950D01*
X65795626Y-82956254D01*
X65833600Y-82885208D01*
X65869842Y-82811326D01*
X65880344Y-82797758D01*
X65887084Y-82785149D01*
X65940243Y-82720374D01*
X65992455Y-82652923D01*
X66003100Y-82643784D01*
X66010170Y-82635170D01*
X66077521Y-82579895D01*
X66144444Y-82522444D01*
X66153963Y-82517160D01*
X66160149Y-82512084D01*
X66240196Y-82469297D01*
X66319588Y-82425232D01*
X66326970Y-82422915D01*
X66331254Y-82420626D01*
X66422120Y-82393061D01*
X66510714Y-82365265D01*
X66515286Y-82364800D01*
X66516915Y-82364306D01*
X66619418Y-82354211D01*
X66710000Y-82345000D01*
X68690000Y-82345000D01*
X68790157Y-82350079D01*
G37*
G36*
X82858500Y-83858500D02*
G01*
X81641500Y-83858500D01*
X81641500Y-82641500D01*
X82858500Y-82641500D01*
X82858500Y-83858500D01*
G37*
G36*
X84827022Y-80106374D02*
G01*
X84863296Y-80106374D01*
X84904885Y-80116624D01*
X84947491Y-80122234D01*
X84976656Y-80134314D01*
X85005617Y-80141453D01*
X85049530Y-80164500D01*
X85094250Y-80183024D01*
X85114650Y-80198678D01*
X85135417Y-80209577D01*
X85177879Y-80247195D01*
X85220274Y-80279726D01*
X85232322Y-80295427D01*
X85245140Y-80306783D01*
X85281889Y-80360025D01*
X85316976Y-80405750D01*
X85322265Y-80418520D01*
X85328408Y-80427419D01*
X85355053Y-80497676D01*
X85377766Y-80552509D01*
X85378785Y-80560251D01*
X85380389Y-80564480D01*
X85392813Y-80666803D01*
X85398500Y-80710000D01*
X85392812Y-80753200D01*
X85380389Y-80855519D01*
X85378785Y-80859746D01*
X85377766Y-80867491D01*
X85355048Y-80922334D01*
X85328408Y-80992580D01*
X85322266Y-81001477D01*
X85316976Y-81014250D01*
X85281883Y-81059983D01*
X85245140Y-81113216D01*
X85232324Y-81124569D01*
X85220274Y-81140274D01*
X85177870Y-81172811D01*
X85135417Y-81210422D01*
X85114654Y-81221318D01*
X85094250Y-81236976D01*
X85049521Y-81255503D01*
X85005617Y-81278546D01*
X84976661Y-81285683D01*
X84947491Y-81297766D01*
X84904882Y-81303375D01*
X84863296Y-81313626D01*
X84827022Y-81313626D01*
X84790000Y-81318500D01*
X84752978Y-81313626D01*
X84716704Y-81313626D01*
X84675116Y-81303375D01*
X84632509Y-81297766D01*
X84603339Y-81285683D01*
X84574382Y-81278546D01*
X84530474Y-81255501D01*
X84485750Y-81236976D01*
X84465347Y-81221320D01*
X84444582Y-81210422D01*
X84402121Y-81172805D01*
X84359726Y-81140274D01*
X84347677Y-81124572D01*
X84334859Y-81113216D01*
X84298106Y-81059970D01*
X84263024Y-81014250D01*
X84257734Y-81001481D01*
X84251591Y-80992580D01*
X84224939Y-80922305D01*
X84202234Y-80867491D01*
X84201215Y-80859751D01*
X84199610Y-80855519D01*
X84187174Y-80753102D01*
X84181500Y-80710000D01*
X84187174Y-80666900D01*
X84199610Y-80564480D01*
X84201215Y-80560247D01*
X84202234Y-80552509D01*
X84224934Y-80497705D01*
X84251591Y-80427419D01*
X84257735Y-80418516D01*
X84263024Y-80405750D01*
X84298100Y-80360038D01*
X84334859Y-80306783D01*
X84347679Y-80295424D01*
X84359726Y-80279726D01*
X84402113Y-80247200D01*
X84444582Y-80209577D01*
X84465351Y-80198676D01*
X84485750Y-80183024D01*
X84530465Y-80164502D01*
X84574382Y-80141453D01*
X84603344Y-80134314D01*
X84632509Y-80122234D01*
X84675113Y-80116624D01*
X84716704Y-80106374D01*
X84752978Y-80106374D01*
X84790000Y-80101500D01*
X84827022Y-80106374D01*
G37*
G36*
X69680000Y-79325000D02*
G01*
X65720000Y-79325000D01*
X65720000Y-77345000D01*
X69680000Y-77345000D01*
X69680000Y-79325000D01*
G37*
G36*
X82287022Y-77566374D02*
G01*
X82323296Y-77566374D01*
X82364885Y-77576624D01*
X82407491Y-77582234D01*
X82436656Y-77594314D01*
X82465617Y-77601453D01*
X82509530Y-77624500D01*
X82554250Y-77643024D01*
X82574650Y-77658678D01*
X82595417Y-77669577D01*
X82637879Y-77707195D01*
X82680274Y-77739726D01*
X82692322Y-77755427D01*
X82705140Y-77766783D01*
X82741889Y-77820025D01*
X82776976Y-77865750D01*
X82782265Y-77878520D01*
X82788408Y-77887419D01*
X82815053Y-77957676D01*
X82837766Y-78012509D01*
X82838785Y-78020251D01*
X82840389Y-78024480D01*
X82852813Y-78126803D01*
X82858500Y-78170000D01*
X82852812Y-78213200D01*
X82840389Y-78315519D01*
X82838785Y-78319746D01*
X82837766Y-78327491D01*
X82815048Y-78382334D01*
X82788408Y-78452580D01*
X82782266Y-78461477D01*
X82776976Y-78474250D01*
X82741883Y-78519983D01*
X82705140Y-78573216D01*
X82692324Y-78584569D01*
X82680274Y-78600274D01*
X82637870Y-78632811D01*
X82595417Y-78670422D01*
X82574654Y-78681318D01*
X82554250Y-78696976D01*
X82509521Y-78715503D01*
X82465617Y-78738546D01*
X82436661Y-78745683D01*
X82407491Y-78757766D01*
X82364882Y-78763375D01*
X82323296Y-78773626D01*
X82287022Y-78773626D01*
X82250000Y-78778500D01*
X82212978Y-78773626D01*
X82176704Y-78773626D01*
X82135116Y-78763375D01*
X82092509Y-78757766D01*
X82063339Y-78745683D01*
X82034382Y-78738546D01*
X81990474Y-78715501D01*
X81945750Y-78696976D01*
X81925347Y-78681320D01*
X81904582Y-78670422D01*
X81862121Y-78632805D01*
X81819726Y-78600274D01*
X81807677Y-78584572D01*
X81794859Y-78573216D01*
X81758106Y-78519970D01*
X81723024Y-78474250D01*
X81717734Y-78461481D01*
X81711591Y-78452580D01*
X81684939Y-78382305D01*
X81662234Y-78327491D01*
X81661215Y-78319751D01*
X81659610Y-78315519D01*
X81647174Y-78213102D01*
X81641500Y-78170000D01*
X81647174Y-78126900D01*
X81659610Y-78024480D01*
X81661215Y-78020247D01*
X81662234Y-78012509D01*
X81684934Y-77957705D01*
X81711591Y-77887419D01*
X81717735Y-77878516D01*
X81723024Y-77865750D01*
X81758100Y-77820038D01*
X81794859Y-77766783D01*
X81807679Y-77755424D01*
X81819726Y-77739726D01*
X81862113Y-77707200D01*
X81904582Y-77669577D01*
X81925351Y-77658676D01*
X81945750Y-77643024D01*
X81990465Y-77624502D01*
X82034382Y-77601453D01*
X82063344Y-77594314D01*
X82092509Y-77582234D01*
X82135113Y-77576624D01*
X82176704Y-77566374D01*
X82212978Y-77566374D01*
X82250000Y-77561500D01*
X82287022Y-77566374D01*
G37*
G36*
X72094641Y-69604802D02*
G01*
X72163976Y-69604802D01*
X72239193Y-69615140D01*
X72312130Y-69620357D01*
X72372169Y-69633417D01*
X72434383Y-69641969D01*
X72513919Y-69664253D01*
X72590965Y-69681014D01*
X72642976Y-69700413D01*
X72697208Y-69715608D01*
X72779196Y-69751220D01*
X72858330Y-69780736D01*
X72901824Y-69804485D01*
X72947568Y-69824355D01*
X73029865Y-69874401D01*
X73108782Y-69917493D01*
X73143653Y-69943597D01*
X73180777Y-69966173D01*
X73261050Y-70031480D01*
X73337221Y-70088501D01*
X73363762Y-70115042D01*
X73392512Y-70138432D01*
X73468282Y-70219562D01*
X73538999Y-70290279D01*
X73557869Y-70315486D01*
X73578815Y-70337914D01*
X73647507Y-70435228D01*
X73710007Y-70518718D01*
X73722189Y-70541029D01*
X73736219Y-70560904D01*
X73795253Y-70674836D01*
X73846764Y-70769170D01*
X73853521Y-70787287D01*
X73861791Y-70803247D01*
X73908625Y-70935028D01*
X73946486Y-71036535D01*
X73949302Y-71049480D01*
X73953200Y-71060448D01*
X73985480Y-71215787D01*
X74007143Y-71315370D01*
X74007651Y-71322482D01*
X74008733Y-71327686D01*
X74024269Y-71554835D01*
X74027500Y-71600000D01*
X74024269Y-71645167D01*
X74008733Y-71872313D01*
X74007651Y-71877515D01*
X74007143Y-71884630D01*
X73985475Y-71984233D01*
X73953200Y-72139551D01*
X73949302Y-72150517D01*
X73946486Y-72163465D01*
X73908618Y-72264991D01*
X73861791Y-72396752D01*
X73853522Y-72412708D01*
X73846764Y-72430830D01*
X73795243Y-72525182D01*
X73736219Y-72639095D01*
X73722192Y-72658966D01*
X73710007Y-72681282D01*
X73647494Y-72764788D01*
X73578815Y-72862085D01*
X73557872Y-72884508D01*
X73538999Y-72909721D01*
X73468268Y-72980451D01*
X73392512Y-73061567D01*
X73363768Y-73084951D01*
X73337221Y-73111499D01*
X73261034Y-73168531D01*
X73180777Y-73233826D01*
X73143660Y-73256396D01*
X73108782Y-73282507D01*
X73029849Y-73325607D01*
X72947568Y-73375644D01*
X72901833Y-73395509D01*
X72858330Y-73419264D01*
X72779180Y-73448785D01*
X72697208Y-73484391D01*
X72642987Y-73499582D01*
X72590965Y-73518986D01*
X72513903Y-73535749D01*
X72434383Y-73558030D01*
X72372179Y-73566580D01*
X72312130Y-73579643D01*
X72239189Y-73584859D01*
X72163976Y-73595198D01*
X72094641Y-73595198D01*
X72027500Y-73600000D01*
X71960359Y-73595198D01*
X71891024Y-73595198D01*
X71815810Y-73584859D01*
X71742870Y-73579643D01*
X71682821Y-73566580D01*
X71620616Y-73558030D01*
X71541092Y-73535748D01*
X71464035Y-73518986D01*
X71412015Y-73499583D01*
X71357791Y-73484391D01*
X71275812Y-73448782D01*
X71196670Y-73419264D01*
X71153170Y-73395511D01*
X71107431Y-73375644D01*
X71025140Y-73325602D01*
X70946218Y-73282507D01*
X70911343Y-73256400D01*
X70874222Y-73233826D01*
X70793952Y-73168522D01*
X70717779Y-73111499D01*
X70691236Y-73084956D01*
X70662487Y-73061567D01*
X70586716Y-72980436D01*
X70516001Y-72909721D01*
X70497131Y-72884513D01*
X70476184Y-72862085D01*
X70407487Y-72764764D01*
X70344993Y-72681282D01*
X70332811Y-72658972D01*
X70318780Y-72639095D01*
X70259736Y-72525146D01*
X70208236Y-72430830D01*
X70201479Y-72412715D01*
X70193208Y-72396752D01*
X70146360Y-72264935D01*
X70108514Y-72163465D01*
X70105698Y-72150524D01*
X70101799Y-72139551D01*
X70069502Y-71984131D01*
X70047857Y-71884630D01*
X70047348Y-71877523D01*
X70046266Y-71872313D01*
X70030707Y-71644847D01*
X70027500Y-71600000D01*
X70030707Y-71555156D01*
X70046266Y-71327686D01*
X70047348Y-71322475D01*
X70047857Y-71315370D01*
X70069497Y-71215890D01*
X70101799Y-71060448D01*
X70105699Y-71049473D01*
X70108514Y-71036535D01*
X70146352Y-70935085D01*
X70193208Y-70803247D01*
X70201481Y-70787280D01*
X70208236Y-70769170D01*
X70259726Y-70674871D01*
X70318780Y-70560904D01*
X70332813Y-70541023D01*
X70344993Y-70518718D01*
X70407475Y-70435251D01*
X70476184Y-70337914D01*
X70497134Y-70315480D01*
X70516001Y-70290279D01*
X70586702Y-70219577D01*
X70662487Y-70138432D01*
X70691241Y-70115038D01*
X70717779Y-70088501D01*
X70793937Y-70031489D01*
X70874222Y-69966173D01*
X70911350Y-69943594D01*
X70946218Y-69917493D01*
X71025124Y-69874406D01*
X71107431Y-69824355D01*
X71153179Y-69804483D01*
X71196670Y-69780736D01*
X71275796Y-69751223D01*
X71357791Y-69715608D01*
X71412026Y-69700412D01*
X71464035Y-69681014D01*
X71541076Y-69664254D01*
X71620616Y-69641969D01*
X71682831Y-69633417D01*
X71742870Y-69620357D01*
X71815806Y-69615140D01*
X71891024Y-69604802D01*
X71960359Y-69604802D01*
X72027500Y-69600000D01*
X72094641Y-69604802D01*
G37*
G36*
X74929311Y-66054711D02*
G01*
X74971088Y-66054711D01*
X75018218Y-66064728D01*
X75065517Y-66070058D01*
X75099908Y-66082092D01*
X75134610Y-66089468D01*
X75184617Y-66111733D01*
X75234607Y-66129225D01*
X75260628Y-66145575D01*
X75287335Y-66157466D01*
X75337133Y-66193646D01*
X75386292Y-66224535D01*
X75403944Y-66242187D01*
X75422584Y-66255730D01*
X75468665Y-66306908D01*
X75512965Y-66351208D01*
X75523154Y-66367424D01*
X75534446Y-66379965D01*
X75573073Y-66446870D01*
X75608275Y-66502893D01*
X75612670Y-66515453D01*
X75618035Y-66524746D01*
X75645510Y-66609305D01*
X75667442Y-66671983D01*
X75668273Y-66679363D01*
X75669695Y-66683738D01*
X75682576Y-66806306D01*
X75687500Y-66850000D01*
X75682576Y-66893697D01*
X75669695Y-67016261D01*
X75668273Y-67020635D01*
X75667442Y-67028017D01*
X75645505Y-67090707D01*
X75618035Y-67175253D01*
X75612671Y-67184543D01*
X75608275Y-67197107D01*
X75573066Y-67253140D01*
X75534446Y-67320034D01*
X75523156Y-67332572D01*
X75512965Y-67348792D01*
X75468655Y-67393101D01*
X75422584Y-67444269D01*
X75403948Y-67457808D01*
X75386292Y-67475465D01*
X75337123Y-67506359D01*
X75287335Y-67542533D01*
X75260634Y-67554421D01*
X75234607Y-67570775D01*
X75184607Y-67588270D01*
X75134610Y-67610531D01*
X75099914Y-67617905D01*
X75065517Y-67629942D01*
X75018215Y-67635271D01*
X74971088Y-67645289D01*
X74929311Y-67645289D01*
X74887500Y-67650000D01*
X74845689Y-67645289D01*
X74803912Y-67645289D01*
X74756784Y-67635271D01*
X74709483Y-67629942D01*
X74675086Y-67617906D01*
X74640389Y-67610531D01*
X74590387Y-67588268D01*
X74540393Y-67570775D01*
X74514368Y-67554422D01*
X74487664Y-67542533D01*
X74437869Y-67506355D01*
X74388708Y-67475465D01*
X74371054Y-67457811D01*
X74352415Y-67444269D01*
X74306333Y-67393090D01*
X74262035Y-67348792D01*
X74251845Y-67332575D01*
X74240553Y-67320034D01*
X74201920Y-67253120D01*
X74166725Y-67197107D01*
X74162330Y-67184547D01*
X74156964Y-67175253D01*
X74129480Y-67090667D01*
X74107558Y-67028017D01*
X74106726Y-67020639D01*
X74105304Y-67016261D01*
X74092408Y-66893565D01*
X74087500Y-66850000D01*
X74092408Y-66806438D01*
X74105304Y-66683738D01*
X74106726Y-66679358D01*
X74107558Y-66671983D01*
X74129475Y-66609345D01*
X74156964Y-66524746D01*
X74162331Y-66515449D01*
X74166725Y-66502893D01*
X74201913Y-66446890D01*
X74240553Y-66379965D01*
X74251847Y-66367421D01*
X74262035Y-66351208D01*
X74306326Y-66306916D01*
X74352417Y-66255728D01*
X74371059Y-66242183D01*
X74388708Y-66224535D01*
X74437854Y-66193654D01*
X74487662Y-66157467D01*
X74514373Y-66145574D01*
X74540393Y-66129225D01*
X74590377Y-66111734D01*
X74640389Y-66089468D01*
X74675092Y-66082091D01*
X74709483Y-66070058D01*
X74756781Y-66064728D01*
X74803912Y-66054711D01*
X74845689Y-66054711D01*
X74887500Y-66050000D01*
X74929311Y-66054711D01*
G37*
G36*
X77687500Y-67650000D02*
G01*
X76087500Y-67650000D01*
X76087500Y-66050000D01*
X77687500Y-66050000D01*
X77687500Y-67650000D01*
G37*
G36*
X108262500Y-67587500D02*
G01*
X106662500Y-67587500D01*
X106662500Y-65987500D01*
X108262500Y-65987500D01*
X108262500Y-67587500D01*
G37*
G36*
X110004311Y-65992211D02*
G01*
X110046088Y-65992211D01*
X110093218Y-66002228D01*
X110140517Y-66007558D01*
X110174908Y-66019592D01*
X110209610Y-66026968D01*
X110259617Y-66049233D01*
X110309607Y-66066725D01*
X110335628Y-66083075D01*
X110362335Y-66094966D01*
X110412133Y-66131146D01*
X110461292Y-66162035D01*
X110478944Y-66179687D01*
X110497584Y-66193230D01*
X110543665Y-66244408D01*
X110587965Y-66288708D01*
X110598154Y-66304924D01*
X110609446Y-66317465D01*
X110648073Y-66384370D01*
X110683275Y-66440393D01*
X110687670Y-66452953D01*
X110693035Y-66462246D01*
X110720510Y-66546805D01*
X110742442Y-66609483D01*
X110743273Y-66616863D01*
X110744695Y-66621238D01*
X110757576Y-66743806D01*
X110762500Y-66787500D01*
X110757576Y-66831197D01*
X110744695Y-66953761D01*
X110743273Y-66958135D01*
X110742442Y-66965517D01*
X110720505Y-67028207D01*
X110693035Y-67112753D01*
X110687671Y-67122043D01*
X110683275Y-67134607D01*
X110648066Y-67190640D01*
X110609446Y-67257534D01*
X110598156Y-67270072D01*
X110587965Y-67286292D01*
X110543655Y-67330601D01*
X110497584Y-67381769D01*
X110478948Y-67395308D01*
X110461292Y-67412965D01*
X110412123Y-67443859D01*
X110362335Y-67480033D01*
X110335634Y-67491921D01*
X110309607Y-67508275D01*
X110259607Y-67525770D01*
X110209610Y-67548031D01*
X110174914Y-67555405D01*
X110140517Y-67567442D01*
X110093215Y-67572771D01*
X110046088Y-67582789D01*
X110004311Y-67582789D01*
X109962500Y-67587500D01*
X109920689Y-67582789D01*
X109878912Y-67582789D01*
X109831784Y-67572771D01*
X109784483Y-67567442D01*
X109750086Y-67555406D01*
X109715389Y-67548031D01*
X109665387Y-67525768D01*
X109615393Y-67508275D01*
X109589368Y-67491922D01*
X109562664Y-67480033D01*
X109512869Y-67443855D01*
X109463708Y-67412965D01*
X109446054Y-67395311D01*
X109427415Y-67381769D01*
X109381333Y-67330590D01*
X109337035Y-67286292D01*
X109326845Y-67270075D01*
X109315553Y-67257534D01*
X109276920Y-67190620D01*
X109241725Y-67134607D01*
X109237330Y-67122047D01*
X109231964Y-67112753D01*
X109204480Y-67028167D01*
X109182558Y-66965517D01*
X109181726Y-66958139D01*
X109180304Y-66953761D01*
X109167408Y-66831065D01*
X109162500Y-66787500D01*
X109167408Y-66743938D01*
X109180304Y-66621238D01*
X109181726Y-66616858D01*
X109182558Y-66609483D01*
X109204475Y-66546845D01*
X109231964Y-66462246D01*
X109237331Y-66452949D01*
X109241725Y-66440393D01*
X109276913Y-66384390D01*
X109315553Y-66317465D01*
X109326847Y-66304921D01*
X109337035Y-66288708D01*
X109381326Y-66244416D01*
X109427417Y-66193228D01*
X109446059Y-66179683D01*
X109463708Y-66162035D01*
X109512854Y-66131154D01*
X109562662Y-66094967D01*
X109589373Y-66083074D01*
X109615393Y-66066725D01*
X109665377Y-66049234D01*
X109715389Y-66026968D01*
X109750092Y-66019591D01*
X109784483Y-66007558D01*
X109831781Y-66002228D01*
X109878912Y-65992211D01*
X109920689Y-65992211D01*
X109962500Y-65987500D01*
X110004311Y-65992211D01*
G37*
G36*
X107504311Y-63992211D02*
G01*
X107546088Y-63992211D01*
X107593218Y-64002228D01*
X107640517Y-64007558D01*
X107674908Y-64019592D01*
X107709610Y-64026968D01*
X107759617Y-64049233D01*
X107809607Y-64066725D01*
X107835628Y-64083075D01*
X107862335Y-64094966D01*
X107912133Y-64131146D01*
X107961292Y-64162035D01*
X107978944Y-64179687D01*
X107997584Y-64193230D01*
X108043665Y-64244408D01*
X108087965Y-64288708D01*
X108098154Y-64304924D01*
X108109446Y-64317465D01*
X108148073Y-64384370D01*
X108183275Y-64440393D01*
X108187670Y-64452953D01*
X108193035Y-64462246D01*
X108220510Y-64546805D01*
X108242442Y-64609483D01*
X108243273Y-64616863D01*
X108244695Y-64621238D01*
X108257576Y-64743806D01*
X108262500Y-64787500D01*
X108257576Y-64831197D01*
X108244695Y-64953761D01*
X108243273Y-64958135D01*
X108242442Y-64965517D01*
X108220505Y-65028207D01*
X108193035Y-65112753D01*
X108187671Y-65122043D01*
X108183275Y-65134607D01*
X108148066Y-65190640D01*
X108109446Y-65257534D01*
X108098156Y-65270072D01*
X108087965Y-65286292D01*
X108043655Y-65330601D01*
X107997584Y-65381769D01*
X107978948Y-65395308D01*
X107961292Y-65412965D01*
X107912123Y-65443859D01*
X107862335Y-65480033D01*
X107835634Y-65491921D01*
X107809607Y-65508275D01*
X107759607Y-65525770D01*
X107709610Y-65548031D01*
X107674914Y-65555405D01*
X107640517Y-65567442D01*
X107593215Y-65572771D01*
X107546088Y-65582789D01*
X107504311Y-65582789D01*
X107462500Y-65587500D01*
X107420689Y-65582789D01*
X107378912Y-65582789D01*
X107331784Y-65572771D01*
X107284483Y-65567442D01*
X107250086Y-65555406D01*
X107215389Y-65548031D01*
X107165387Y-65525768D01*
X107115393Y-65508275D01*
X107089368Y-65491922D01*
X107062664Y-65480033D01*
X107012869Y-65443855D01*
X106963708Y-65412965D01*
X106946054Y-65395311D01*
X106927415Y-65381769D01*
X106881333Y-65330590D01*
X106837035Y-65286292D01*
X106826845Y-65270075D01*
X106815553Y-65257534D01*
X106776920Y-65190620D01*
X106741725Y-65134607D01*
X106737330Y-65122047D01*
X106731964Y-65112753D01*
X106704480Y-65028167D01*
X106682558Y-64965517D01*
X106681726Y-64958139D01*
X106680304Y-64953761D01*
X106667408Y-64831065D01*
X106662500Y-64787500D01*
X106667408Y-64743938D01*
X106680304Y-64621238D01*
X106681726Y-64616858D01*
X106682558Y-64609483D01*
X106704475Y-64546845D01*
X106731964Y-64462246D01*
X106737331Y-64452949D01*
X106741725Y-64440393D01*
X106776913Y-64384390D01*
X106815553Y-64317465D01*
X106826847Y-64304921D01*
X106837035Y-64288708D01*
X106881326Y-64244416D01*
X106927417Y-64193228D01*
X106946059Y-64179683D01*
X106963708Y-64162035D01*
X107012854Y-64131154D01*
X107062662Y-64094967D01*
X107089373Y-64083074D01*
X107115393Y-64066725D01*
X107165377Y-64049234D01*
X107215389Y-64026968D01*
X107250092Y-64019591D01*
X107284483Y-64007558D01*
X107331781Y-64002228D01*
X107378912Y-63992211D01*
X107420689Y-63992211D01*
X107462500Y-63987500D01*
X107504311Y-63992211D01*
G37*
G36*
X110004311Y-63992211D02*
G01*
X110046088Y-63992211D01*
X110093218Y-64002228D01*
X110140517Y-64007558D01*
X110174908Y-64019592D01*
X110209610Y-64026968D01*
X110259617Y-64049233D01*
X110309607Y-64066725D01*
X110335628Y-64083075D01*
X110362335Y-64094966D01*
X110412133Y-64131146D01*
X110461292Y-64162035D01*
X110478944Y-64179687D01*
X110497584Y-64193230D01*
X110543665Y-64244408D01*
X110587965Y-64288708D01*
X110598154Y-64304924D01*
X110609446Y-64317465D01*
X110648073Y-64384370D01*
X110683275Y-64440393D01*
X110687670Y-64452953D01*
X110693035Y-64462246D01*
X110720510Y-64546805D01*
X110742442Y-64609483D01*
X110743273Y-64616863D01*
X110744695Y-64621238D01*
X110757576Y-64743806D01*
X110762500Y-64787500D01*
X110757576Y-64831197D01*
X110744695Y-64953761D01*
X110743273Y-64958135D01*
X110742442Y-64965517D01*
X110720505Y-65028207D01*
X110693035Y-65112753D01*
X110687671Y-65122043D01*
X110683275Y-65134607D01*
X110648066Y-65190640D01*
X110609446Y-65257534D01*
X110598156Y-65270072D01*
X110587965Y-65286292D01*
X110543655Y-65330601D01*
X110497584Y-65381769D01*
X110478948Y-65395308D01*
X110461292Y-65412965D01*
X110412123Y-65443859D01*
X110362335Y-65480033D01*
X110335634Y-65491921D01*
X110309607Y-65508275D01*
X110259607Y-65525770D01*
X110209610Y-65548031D01*
X110174914Y-65555405D01*
X110140517Y-65567442D01*
X110093215Y-65572771D01*
X110046088Y-65582789D01*
X110004311Y-65582789D01*
X109962500Y-65587500D01*
X109920689Y-65582789D01*
X109878912Y-65582789D01*
X109831784Y-65572771D01*
X109784483Y-65567442D01*
X109750086Y-65555406D01*
X109715389Y-65548031D01*
X109665387Y-65525768D01*
X109615393Y-65508275D01*
X109589368Y-65491922D01*
X109562664Y-65480033D01*
X109512869Y-65443855D01*
X109463708Y-65412965D01*
X109446054Y-65395311D01*
X109427415Y-65381769D01*
X109381333Y-65330590D01*
X109337035Y-65286292D01*
X109326845Y-65270075D01*
X109315553Y-65257534D01*
X109276920Y-65190620D01*
X109241725Y-65134607D01*
X109237330Y-65122047D01*
X109231964Y-65112753D01*
X109204480Y-65028167D01*
X109182558Y-64965517D01*
X109181726Y-64958139D01*
X109180304Y-64953761D01*
X109167408Y-64831065D01*
X109162500Y-64787500D01*
X109167408Y-64743938D01*
X109180304Y-64621238D01*
X109181726Y-64616858D01*
X109182558Y-64609483D01*
X109204475Y-64546845D01*
X109231964Y-64462246D01*
X109237331Y-64452949D01*
X109241725Y-64440393D01*
X109276913Y-64384390D01*
X109315553Y-64317465D01*
X109326847Y-64304921D01*
X109337035Y-64288708D01*
X109381326Y-64244416D01*
X109427417Y-64193228D01*
X109446059Y-64179683D01*
X109463708Y-64162035D01*
X109512854Y-64131154D01*
X109562662Y-64094967D01*
X109589373Y-64083074D01*
X109615393Y-64066725D01*
X109665377Y-64049234D01*
X109715389Y-64026968D01*
X109750092Y-64019591D01*
X109784483Y-64007558D01*
X109831781Y-64002228D01*
X109878912Y-63992211D01*
X109920689Y-63992211D01*
X109962500Y-63987500D01*
X110004311Y-63992211D01*
G37*
G36*
X74929311Y-63554711D02*
G01*
X74971088Y-63554711D01*
X75018218Y-63564728D01*
X75065517Y-63570058D01*
X75099908Y-63582092D01*
X75134610Y-63589468D01*
X75184617Y-63611733D01*
X75234607Y-63629225D01*
X75260628Y-63645575D01*
X75287335Y-63657466D01*
X75337133Y-63693646D01*
X75386292Y-63724535D01*
X75403944Y-63742187D01*
X75422584Y-63755730D01*
X75468665Y-63806908D01*
X75512965Y-63851208D01*
X75523154Y-63867424D01*
X75534446Y-63879965D01*
X75573073Y-63946870D01*
X75608275Y-64002893D01*
X75612670Y-64015453D01*
X75618035Y-64024746D01*
X75645510Y-64109305D01*
X75667442Y-64171983D01*
X75668273Y-64179363D01*
X75669695Y-64183738D01*
X75682576Y-64306306D01*
X75687500Y-64350000D01*
X75682576Y-64393697D01*
X75669695Y-64516261D01*
X75668273Y-64520635D01*
X75667442Y-64528017D01*
X75645505Y-64590707D01*
X75618035Y-64675253D01*
X75612671Y-64684543D01*
X75608275Y-64697107D01*
X75573066Y-64753140D01*
X75534446Y-64820034D01*
X75523156Y-64832572D01*
X75512965Y-64848792D01*
X75468655Y-64893101D01*
X75422584Y-64944269D01*
X75403948Y-64957808D01*
X75386292Y-64975465D01*
X75337123Y-65006359D01*
X75287335Y-65042533D01*
X75260634Y-65054421D01*
X75234607Y-65070775D01*
X75184607Y-65088270D01*
X75134610Y-65110531D01*
X75099914Y-65117905D01*
X75065517Y-65129942D01*
X75018215Y-65135271D01*
X74971088Y-65145289D01*
X74929311Y-65145289D01*
X74887500Y-65150000D01*
X74845689Y-65145289D01*
X74803912Y-65145289D01*
X74756784Y-65135271D01*
X74709483Y-65129942D01*
X74675086Y-65117906D01*
X74640389Y-65110531D01*
X74590387Y-65088268D01*
X74540393Y-65070775D01*
X74514368Y-65054422D01*
X74487664Y-65042533D01*
X74437869Y-65006355D01*
X74388708Y-64975465D01*
X74371054Y-64957811D01*
X74352415Y-64944269D01*
X74306333Y-64893090D01*
X74262035Y-64848792D01*
X74251845Y-64832575D01*
X74240553Y-64820034D01*
X74201920Y-64753120D01*
X74166725Y-64697107D01*
X74162330Y-64684547D01*
X74156964Y-64675253D01*
X74129480Y-64590667D01*
X74107558Y-64528017D01*
X74106726Y-64520639D01*
X74105304Y-64516261D01*
X74092408Y-64393565D01*
X74087500Y-64350000D01*
X74092408Y-64306438D01*
X74105304Y-64183738D01*
X74106726Y-64179358D01*
X74107558Y-64171983D01*
X74129475Y-64109345D01*
X74156964Y-64024746D01*
X74162331Y-64015449D01*
X74166725Y-64002893D01*
X74201913Y-63946890D01*
X74240553Y-63879965D01*
X74251847Y-63867421D01*
X74262035Y-63851208D01*
X74306326Y-63806916D01*
X74352417Y-63755728D01*
X74371059Y-63742183D01*
X74388708Y-63724535D01*
X74437854Y-63693654D01*
X74487662Y-63657467D01*
X74514373Y-63645574D01*
X74540393Y-63629225D01*
X74590377Y-63611734D01*
X74640389Y-63589468D01*
X74675092Y-63582091D01*
X74709483Y-63570058D01*
X74756781Y-63564728D01*
X74803912Y-63554711D01*
X74845689Y-63554711D01*
X74887500Y-63550000D01*
X74929311Y-63554711D01*
G37*
G36*
X76929311Y-63554711D02*
G01*
X76971088Y-63554711D01*
X77018218Y-63564728D01*
X77065517Y-63570058D01*
X77099908Y-63582092D01*
X77134610Y-63589468D01*
X77184617Y-63611733D01*
X77234607Y-63629225D01*
X77260628Y-63645575D01*
X77287335Y-63657466D01*
X77337133Y-63693646D01*
X77386292Y-63724535D01*
X77403944Y-63742187D01*
X77422584Y-63755730D01*
X77468665Y-63806908D01*
X77512965Y-63851208D01*
X77523154Y-63867424D01*
X77534446Y-63879965D01*
X77573073Y-63946870D01*
X77608275Y-64002893D01*
X77612670Y-64015453D01*
X77618035Y-64024746D01*
X77645510Y-64109305D01*
X77667442Y-64171983D01*
X77668273Y-64179363D01*
X77669695Y-64183738D01*
X77682576Y-64306306D01*
X77687500Y-64350000D01*
X77682576Y-64393697D01*
X77669695Y-64516261D01*
X77668273Y-64520635D01*
X77667442Y-64528017D01*
X77645505Y-64590707D01*
X77618035Y-64675253D01*
X77612671Y-64684543D01*
X77608275Y-64697107D01*
X77573066Y-64753140D01*
X77534446Y-64820034D01*
X77523156Y-64832572D01*
X77512965Y-64848792D01*
X77468655Y-64893101D01*
X77422584Y-64944269D01*
X77403948Y-64957808D01*
X77386292Y-64975465D01*
X77337123Y-65006359D01*
X77287335Y-65042533D01*
X77260634Y-65054421D01*
X77234607Y-65070775D01*
X77184607Y-65088270D01*
X77134610Y-65110531D01*
X77099914Y-65117905D01*
X77065517Y-65129942D01*
X77018215Y-65135271D01*
X76971088Y-65145289D01*
X76929311Y-65145289D01*
X76887500Y-65150000D01*
X76845689Y-65145289D01*
X76803912Y-65145289D01*
X76756784Y-65135271D01*
X76709483Y-65129942D01*
X76675086Y-65117906D01*
X76640389Y-65110531D01*
X76590387Y-65088268D01*
X76540393Y-65070775D01*
X76514368Y-65054422D01*
X76487664Y-65042533D01*
X76437869Y-65006355D01*
X76388708Y-64975465D01*
X76371054Y-64957811D01*
X76352415Y-64944269D01*
X76306333Y-64893090D01*
X76262035Y-64848792D01*
X76251845Y-64832575D01*
X76240553Y-64820034D01*
X76201920Y-64753120D01*
X76166725Y-64697107D01*
X76162330Y-64684547D01*
X76156964Y-64675253D01*
X76129480Y-64590667D01*
X76107558Y-64528017D01*
X76106726Y-64520639D01*
X76105304Y-64516261D01*
X76092408Y-64393565D01*
X76087500Y-64350000D01*
X76092408Y-64306438D01*
X76105304Y-64183738D01*
X76106726Y-64179358D01*
X76107558Y-64171983D01*
X76129475Y-64109345D01*
X76156964Y-64024746D01*
X76162331Y-64015449D01*
X76166725Y-64002893D01*
X76201913Y-63946890D01*
X76240553Y-63879965D01*
X76251847Y-63867421D01*
X76262035Y-63851208D01*
X76306326Y-63806916D01*
X76352417Y-63755728D01*
X76371059Y-63742183D01*
X76388708Y-63724535D01*
X76437854Y-63693654D01*
X76487662Y-63657467D01*
X76514373Y-63645574D01*
X76540393Y-63629225D01*
X76590377Y-63611734D01*
X76640389Y-63589468D01*
X76675092Y-63582091D01*
X76709483Y-63570058D01*
X76756781Y-63564728D01*
X76803912Y-63554711D01*
X76845689Y-63554711D01*
X76887500Y-63550000D01*
X76929311Y-63554711D01*
G37*
G36*
X102779641Y-59932302D02*
G01*
X102848976Y-59932302D01*
X102924193Y-59942640D01*
X102997130Y-59947857D01*
X103057169Y-59960917D01*
X103119383Y-59969469D01*
X103198919Y-59991753D01*
X103275965Y-60008514D01*
X103327976Y-60027913D01*
X103382208Y-60043108D01*
X103464196Y-60078720D01*
X103543330Y-60108236D01*
X103586824Y-60131985D01*
X103632568Y-60151855D01*
X103714865Y-60201901D01*
X103793782Y-60244993D01*
X103828653Y-60271097D01*
X103865777Y-60293673D01*
X103946050Y-60358980D01*
X104022221Y-60416001D01*
X104048762Y-60442542D01*
X104077512Y-60465932D01*
X104153282Y-60547062D01*
X104223999Y-60617779D01*
X104242869Y-60642986D01*
X104263815Y-60665414D01*
X104332507Y-60762728D01*
X104395007Y-60846218D01*
X104407189Y-60868529D01*
X104421219Y-60888404D01*
X104480253Y-61002336D01*
X104531764Y-61096670D01*
X104538521Y-61114787D01*
X104546791Y-61130747D01*
X104593625Y-61262528D01*
X104631486Y-61364035D01*
X104634302Y-61376980D01*
X104638200Y-61387948D01*
X104670480Y-61543287D01*
X104692143Y-61642870D01*
X104692651Y-61649982D01*
X104693733Y-61655186D01*
X104709269Y-61882335D01*
X104712500Y-61927500D01*
X104709269Y-61972667D01*
X104693733Y-62199813D01*
X104692651Y-62205015D01*
X104692143Y-62212130D01*
X104670475Y-62311733D01*
X104638200Y-62467051D01*
X104634302Y-62478017D01*
X104631486Y-62490965D01*
X104593618Y-62592491D01*
X104546791Y-62724252D01*
X104538522Y-62740208D01*
X104531764Y-62758330D01*
X104480243Y-62852682D01*
X104421219Y-62966595D01*
X104407192Y-62986466D01*
X104395007Y-63008782D01*
X104332494Y-63092288D01*
X104263815Y-63189585D01*
X104242872Y-63212008D01*
X104223999Y-63237221D01*
X104153268Y-63307951D01*
X104077512Y-63389067D01*
X104048768Y-63412451D01*
X104022221Y-63438999D01*
X103946034Y-63496031D01*
X103865777Y-63561326D01*
X103828660Y-63583896D01*
X103793782Y-63610007D01*
X103714849Y-63653107D01*
X103632568Y-63703144D01*
X103586833Y-63723009D01*
X103543330Y-63746764D01*
X103464180Y-63776285D01*
X103382208Y-63811891D01*
X103327987Y-63827082D01*
X103275965Y-63846486D01*
X103198903Y-63863249D01*
X103119383Y-63885530D01*
X103057179Y-63894080D01*
X102997130Y-63907143D01*
X102924189Y-63912359D01*
X102848976Y-63922698D01*
X102779641Y-63922698D01*
X102712500Y-63927500D01*
X102645359Y-63922698D01*
X102576024Y-63922698D01*
X102500810Y-63912359D01*
X102427870Y-63907143D01*
X102367821Y-63894080D01*
X102305616Y-63885530D01*
X102226092Y-63863248D01*
X102149035Y-63846486D01*
X102097015Y-63827083D01*
X102042791Y-63811891D01*
X101960812Y-63776282D01*
X101881670Y-63746764D01*
X101838170Y-63723011D01*
X101792431Y-63703144D01*
X101710140Y-63653102D01*
X101631218Y-63610007D01*
X101596343Y-63583900D01*
X101559222Y-63561326D01*
X101478952Y-63496022D01*
X101402779Y-63438999D01*
X101376236Y-63412456D01*
X101347487Y-63389067D01*
X101271716Y-63307936D01*
X101201001Y-63237221D01*
X101182131Y-63212013D01*
X101161184Y-63189585D01*
X101092487Y-63092264D01*
X101029993Y-63008782D01*
X101017811Y-62986472D01*
X101003780Y-62966595D01*
X100944736Y-62852646D01*
X100893236Y-62758330D01*
X100886479Y-62740215D01*
X100878208Y-62724252D01*
X100831360Y-62592435D01*
X100793514Y-62490965D01*
X100790698Y-62478024D01*
X100786799Y-62467051D01*
X100754502Y-62311631D01*
X100732857Y-62212130D01*
X100732348Y-62205023D01*
X100731266Y-62199813D01*
X100715707Y-61972347D01*
X100712500Y-61927500D01*
X100715707Y-61882656D01*
X100731266Y-61655186D01*
X100732348Y-61649975D01*
X100732857Y-61642870D01*
X100754497Y-61543390D01*
X100786799Y-61387948D01*
X100790699Y-61376973D01*
X100793514Y-61364035D01*
X100831352Y-61262585D01*
X100878208Y-61130747D01*
X100886481Y-61114780D01*
X100893236Y-61096670D01*
X100944726Y-61002371D01*
X101003780Y-60888404D01*
X101017813Y-60868523D01*
X101029993Y-60846218D01*
X101092475Y-60762751D01*
X101161184Y-60665414D01*
X101182134Y-60642980D01*
X101201001Y-60617779D01*
X101271702Y-60547077D01*
X101347487Y-60465932D01*
X101376241Y-60442538D01*
X101402779Y-60416001D01*
X101478937Y-60358989D01*
X101559222Y-60293673D01*
X101596350Y-60271094D01*
X101631218Y-60244993D01*
X101710124Y-60201906D01*
X101792431Y-60151855D01*
X101838179Y-60131983D01*
X101881670Y-60108236D01*
X101960796Y-60078723D01*
X102042791Y-60043108D01*
X102097026Y-60027912D01*
X102149035Y-60008514D01*
X102226076Y-59991754D01*
X102305616Y-59969469D01*
X102367831Y-59960917D01*
X102427870Y-59947857D01*
X102500806Y-59942640D01*
X102576024Y-59932302D01*
X102645359Y-59932302D01*
X102712500Y-59927500D01*
X102779641Y-59932302D01*
G37*
G36*
X114779641Y-59932302D02*
G01*
X114848976Y-59932302D01*
X114924193Y-59942640D01*
X114997130Y-59947857D01*
X115057169Y-59960917D01*
X115119383Y-59969469D01*
X115198919Y-59991753D01*
X115275965Y-60008514D01*
X115327976Y-60027913D01*
X115382208Y-60043108D01*
X115464196Y-60078720D01*
X115543330Y-60108236D01*
X115586824Y-60131985D01*
X115632568Y-60151855D01*
X115714865Y-60201901D01*
X115793782Y-60244993D01*
X115828653Y-60271097D01*
X115865777Y-60293673D01*
X115946050Y-60358980D01*
X116022221Y-60416001D01*
X116048762Y-60442542D01*
X116077512Y-60465932D01*
X116153282Y-60547062D01*
X116223999Y-60617779D01*
X116242869Y-60642986D01*
X116263815Y-60665414D01*
X116332507Y-60762728D01*
X116395007Y-60846218D01*
X116407189Y-60868529D01*
X116421219Y-60888404D01*
X116480253Y-61002336D01*
X116531764Y-61096670D01*
X116538521Y-61114787D01*
X116546791Y-61130747D01*
X116593625Y-61262528D01*
X116631486Y-61364035D01*
X116634302Y-61376980D01*
X116638200Y-61387948D01*
X116670480Y-61543287D01*
X116692143Y-61642870D01*
X116692651Y-61649982D01*
X116693733Y-61655186D01*
X116709269Y-61882335D01*
X116712500Y-61927500D01*
X116709269Y-61972667D01*
X116693733Y-62199813D01*
X116692651Y-62205015D01*
X116692143Y-62212130D01*
X116670475Y-62311733D01*
X116638200Y-62467051D01*
X116634302Y-62478017D01*
X116631486Y-62490965D01*
X116593618Y-62592491D01*
X116546791Y-62724252D01*
X116538522Y-62740208D01*
X116531764Y-62758330D01*
X116480243Y-62852682D01*
X116421219Y-62966595D01*
X116407192Y-62986466D01*
X116395007Y-63008782D01*
X116332494Y-63092288D01*
X116263815Y-63189585D01*
X116242872Y-63212008D01*
X116223999Y-63237221D01*
X116153268Y-63307951D01*
X116077512Y-63389067D01*
X116048768Y-63412451D01*
X116022221Y-63438999D01*
X115946034Y-63496031D01*
X115865777Y-63561326D01*
X115828660Y-63583896D01*
X115793782Y-63610007D01*
X115714849Y-63653107D01*
X115632568Y-63703144D01*
X115586833Y-63723009D01*
X115543330Y-63746764D01*
X115464180Y-63776285D01*
X115382208Y-63811891D01*
X115327987Y-63827082D01*
X115275965Y-63846486D01*
X115198903Y-63863249D01*
X115119383Y-63885530D01*
X115057179Y-63894080D01*
X114997130Y-63907143D01*
X114924189Y-63912359D01*
X114848976Y-63922698D01*
X114779641Y-63922698D01*
X114712500Y-63927500D01*
X114645359Y-63922698D01*
X114576024Y-63922698D01*
X114500810Y-63912359D01*
X114427870Y-63907143D01*
X114367821Y-63894080D01*
X114305616Y-63885530D01*
X114226092Y-63863248D01*
X114149035Y-63846486D01*
X114097015Y-63827083D01*
X114042791Y-63811891D01*
X113960812Y-63776282D01*
X113881670Y-63746764D01*
X113838170Y-63723011D01*
X113792431Y-63703144D01*
X113710140Y-63653102D01*
X113631218Y-63610007D01*
X113596343Y-63583900D01*
X113559222Y-63561326D01*
X113478952Y-63496022D01*
X113402779Y-63438999D01*
X113376236Y-63412456D01*
X113347487Y-63389067D01*
X113271716Y-63307936D01*
X113201001Y-63237221D01*
X113182131Y-63212013D01*
X113161184Y-63189585D01*
X113092487Y-63092264D01*
X113029993Y-63008782D01*
X113017811Y-62986472D01*
X113003780Y-62966595D01*
X112944736Y-62852646D01*
X112893236Y-62758330D01*
X112886479Y-62740215D01*
X112878208Y-62724252D01*
X112831360Y-62592435D01*
X112793514Y-62490965D01*
X112790698Y-62478024D01*
X112786799Y-62467051D01*
X112754502Y-62311631D01*
X112732857Y-62212130D01*
X112732348Y-62205023D01*
X112731266Y-62199813D01*
X112715707Y-61972347D01*
X112712500Y-61927500D01*
X112715707Y-61882656D01*
X112731266Y-61655186D01*
X112732348Y-61649975D01*
X112732857Y-61642870D01*
X112754497Y-61543390D01*
X112786799Y-61387948D01*
X112790699Y-61376973D01*
X112793514Y-61364035D01*
X112831352Y-61262585D01*
X112878208Y-61130747D01*
X112886481Y-61114780D01*
X112893236Y-61096670D01*
X112944726Y-61002371D01*
X113003780Y-60888404D01*
X113017813Y-60868523D01*
X113029993Y-60846218D01*
X113092475Y-60762751D01*
X113161184Y-60665414D01*
X113182134Y-60642980D01*
X113201001Y-60617779D01*
X113271702Y-60547077D01*
X113347487Y-60465932D01*
X113376241Y-60442538D01*
X113402779Y-60416001D01*
X113478937Y-60358989D01*
X113559222Y-60293673D01*
X113596350Y-60271094D01*
X113631218Y-60244993D01*
X113710124Y-60201906D01*
X113792431Y-60151855D01*
X113838179Y-60131983D01*
X113881670Y-60108236D01*
X113960796Y-60078723D01*
X114042791Y-60043108D01*
X114097026Y-60027912D01*
X114149035Y-60008514D01*
X114226076Y-59991754D01*
X114305616Y-59969469D01*
X114367831Y-59960917D01*
X114427870Y-59947857D01*
X114500806Y-59942640D01*
X114576024Y-59932302D01*
X114645359Y-59932302D01*
X114712500Y-59927500D01*
X114779641Y-59932302D01*
G37*
G36*
X72094641Y-57604802D02*
G01*
X72163976Y-57604802D01*
X72239193Y-57615140D01*
X72312130Y-57620357D01*
X72372169Y-57633417D01*
X72434383Y-57641969D01*
X72513919Y-57664253D01*
X72590965Y-57681014D01*
X72642976Y-57700413D01*
X72697208Y-57715608D01*
X72779196Y-57751220D01*
X72858330Y-57780736D01*
X72901824Y-57804485D01*
X72947568Y-57824355D01*
X73029865Y-57874401D01*
X73108782Y-57917493D01*
X73143653Y-57943597D01*
X73180777Y-57966173D01*
X73261050Y-58031480D01*
X73337221Y-58088501D01*
X73363762Y-58115042D01*
X73392512Y-58138432D01*
X73468282Y-58219562D01*
X73538999Y-58290279D01*
X73557869Y-58315486D01*
X73578815Y-58337914D01*
X73647507Y-58435228D01*
X73710007Y-58518718D01*
X73722189Y-58541029D01*
X73736219Y-58560904D01*
X73795253Y-58674836D01*
X73846764Y-58769170D01*
X73853521Y-58787287D01*
X73861791Y-58803247D01*
X73908625Y-58935028D01*
X73946486Y-59036535D01*
X73949302Y-59049480D01*
X73953200Y-59060448D01*
X73985480Y-59215787D01*
X74007143Y-59315370D01*
X74007651Y-59322482D01*
X74008733Y-59327686D01*
X74024269Y-59554835D01*
X74027500Y-59600000D01*
X74024269Y-59645167D01*
X74008733Y-59872313D01*
X74007651Y-59877515D01*
X74007143Y-59884630D01*
X73985475Y-59984233D01*
X73953200Y-60139551D01*
X73949302Y-60150517D01*
X73946486Y-60163465D01*
X73908618Y-60264991D01*
X73861791Y-60396752D01*
X73853522Y-60412708D01*
X73846764Y-60430830D01*
X73795243Y-60525182D01*
X73736219Y-60639095D01*
X73722192Y-60658966D01*
X73710007Y-60681282D01*
X73647494Y-60764788D01*
X73578815Y-60862085D01*
X73557872Y-60884508D01*
X73538999Y-60909721D01*
X73468268Y-60980451D01*
X73392512Y-61061567D01*
X73363768Y-61084951D01*
X73337221Y-61111499D01*
X73261034Y-61168531D01*
X73180777Y-61233826D01*
X73143660Y-61256396D01*
X73108782Y-61282507D01*
X73029849Y-61325607D01*
X72947568Y-61375644D01*
X72901833Y-61395509D01*
X72858330Y-61419264D01*
X72779180Y-61448785D01*
X72697208Y-61484391D01*
X72642987Y-61499582D01*
X72590965Y-61518986D01*
X72513903Y-61535749D01*
X72434383Y-61558030D01*
X72372179Y-61566580D01*
X72312130Y-61579643D01*
X72239189Y-61584859D01*
X72163976Y-61595198D01*
X72094641Y-61595198D01*
X72027500Y-61600000D01*
X71960359Y-61595198D01*
X71891024Y-61595198D01*
X71815810Y-61584859D01*
X71742870Y-61579643D01*
X71682821Y-61566580D01*
X71620616Y-61558030D01*
X71541092Y-61535748D01*
X71464035Y-61518986D01*
X71412015Y-61499583D01*
X71357791Y-61484391D01*
X71275812Y-61448782D01*
X71196670Y-61419264D01*
X71153170Y-61395511D01*
X71107431Y-61375644D01*
X71025140Y-61325602D01*
X70946218Y-61282507D01*
X70911343Y-61256400D01*
X70874222Y-61233826D01*
X70793952Y-61168522D01*
X70717779Y-61111499D01*
X70691236Y-61084956D01*
X70662487Y-61061567D01*
X70586716Y-60980436D01*
X70516001Y-60909721D01*
X70497131Y-60884513D01*
X70476184Y-60862085D01*
X70407487Y-60764764D01*
X70344993Y-60681282D01*
X70332811Y-60658972D01*
X70318780Y-60639095D01*
X70259736Y-60525146D01*
X70208236Y-60430830D01*
X70201479Y-60412715D01*
X70193208Y-60396752D01*
X70146360Y-60264935D01*
X70108514Y-60163465D01*
X70105698Y-60150524D01*
X70101799Y-60139551D01*
X70069502Y-59984131D01*
X70047857Y-59884630D01*
X70047348Y-59877523D01*
X70046266Y-59872313D01*
X70030707Y-59644847D01*
X70027500Y-59600000D01*
X70030707Y-59555156D01*
X70046266Y-59327686D01*
X70047348Y-59322475D01*
X70047857Y-59315370D01*
X70069497Y-59215890D01*
X70101799Y-59060448D01*
X70105699Y-59049473D01*
X70108514Y-59036535D01*
X70146352Y-58935085D01*
X70193208Y-58803247D01*
X70201481Y-58787280D01*
X70208236Y-58769170D01*
X70259726Y-58674871D01*
X70318780Y-58560904D01*
X70332813Y-58541023D01*
X70344993Y-58518718D01*
X70407475Y-58435251D01*
X70476184Y-58337914D01*
X70497134Y-58315480D01*
X70516001Y-58290279D01*
X70586702Y-58219577D01*
X70662487Y-58138432D01*
X70691241Y-58115038D01*
X70717779Y-58088501D01*
X70793937Y-58031489D01*
X70874222Y-57966173D01*
X70911350Y-57943594D01*
X70946218Y-57917493D01*
X71025124Y-57874406D01*
X71107431Y-57824355D01*
X71153179Y-57804483D01*
X71196670Y-57780736D01*
X71275796Y-57751223D01*
X71357791Y-57715608D01*
X71412026Y-57700412D01*
X71464035Y-57681014D01*
X71541076Y-57664254D01*
X71620616Y-57641969D01*
X71682831Y-57633417D01*
X71742870Y-57620357D01*
X71815806Y-57615140D01*
X71891024Y-57604802D01*
X71960359Y-57604802D01*
X72027500Y-57600000D01*
X72094641Y-57604802D01*
G37*
G36*
X73375000Y-55600000D02*
G01*
X71675000Y-55600000D01*
X71675000Y-53900000D01*
X73375000Y-53900000D01*
X73375000Y-55600000D01*
G37*
G36*
X70247664Y-53941602D02*
G01*
X70410000Y-54013878D01*
X70553761Y-54118327D01*
X70672664Y-54250383D01*
X70761514Y-54404274D01*
X70816425Y-54573275D01*
X70835000Y-54750000D01*
X70816425Y-54926725D01*
X70761514Y-55095726D01*
X70672664Y-55249617D01*
X70553761Y-55381673D01*
X70410000Y-55486122D01*
X70247664Y-55558398D01*
X70073849Y-55595344D01*
X69896151Y-55595344D01*
X69722336Y-55558398D01*
X69560000Y-55486122D01*
X69416239Y-55381673D01*
X69297336Y-55249617D01*
X69208486Y-55095726D01*
X69153575Y-54926725D01*
X69135000Y-54750000D01*
X69153575Y-54573275D01*
X69208486Y-54404274D01*
X69297336Y-54250383D01*
X69416239Y-54118327D01*
X69560000Y-54013878D01*
X69722336Y-53941602D01*
X69896151Y-53904656D01*
X70073849Y-53904656D01*
X70247664Y-53941602D01*
G37*
G36*
X63592744Y-46075123D02*
G01*
X63653869Y-46075123D01*
X63708427Y-46084227D01*
X63764623Y-46088650D01*
X63832304Y-46104899D01*
X63898228Y-46115900D01*
X63944986Y-46131952D01*
X63993465Y-46143591D01*
X64064026Y-46172818D01*
X64132543Y-46196340D01*
X64170813Y-46217050D01*
X64210902Y-46233656D01*
X64281959Y-46277200D01*
X64350422Y-46314250D01*
X64380046Y-46337307D01*
X64411568Y-46356624D01*
X64480449Y-46415454D01*
X64545922Y-46466414D01*
X64567281Y-46489616D01*
X64590528Y-46509471D01*
X64654365Y-46584214D01*
X64713711Y-46648681D01*
X64727659Y-46670030D01*
X64743375Y-46688431D01*
X64799221Y-46779564D01*
X64849211Y-46856079D01*
X64857022Y-46873886D01*
X64866343Y-46889097D01*
X64911261Y-46997540D01*
X64948726Y-47082951D01*
X64952008Y-47095911D01*
X64956408Y-47106534D01*
X64987623Y-47236553D01*
X65009542Y-47323108D01*
X65010141Y-47330348D01*
X65011349Y-47335376D01*
X65026296Y-47525307D01*
X65030000Y-47570000D01*
X65026296Y-47614696D01*
X65011349Y-47804623D01*
X65010142Y-47809650D01*
X65009542Y-47816892D01*
X64987618Y-47903464D01*
X64956408Y-48033465D01*
X64952008Y-48044085D01*
X64948726Y-48057049D01*
X64911254Y-48142476D01*
X64866343Y-48250902D01*
X64857023Y-48266109D01*
X64849211Y-48283921D01*
X64799211Y-48360450D01*
X64743375Y-48451568D01*
X64727661Y-48469965D01*
X64713711Y-48491319D01*
X64654353Y-48555798D01*
X64590528Y-48630528D01*
X64567285Y-48650378D01*
X64545922Y-48673586D01*
X64480436Y-48724555D01*
X64411568Y-48783375D01*
X64380052Y-48802687D01*
X64350422Y-48825750D01*
X64281945Y-48862807D01*
X64210902Y-48906343D01*
X64170820Y-48922945D01*
X64132543Y-48943660D01*
X64064011Y-48967186D01*
X63993465Y-48996408D01*
X63944996Y-49008044D01*
X63898228Y-49024100D01*
X63832290Y-49035103D01*
X63764623Y-49051349D01*
X63708439Y-49055770D01*
X63653869Y-49064877D01*
X63592731Y-49064877D01*
X63530000Y-49069814D01*
X63467268Y-49064877D01*
X63406131Y-49064877D01*
X63351561Y-49055770D01*
X63295376Y-49051349D01*
X63227706Y-49035102D01*
X63161772Y-49024100D01*
X63115005Y-49008045D01*
X63066534Y-48996408D01*
X62995982Y-48967184D01*
X62927457Y-48943660D01*
X62889182Y-48922946D01*
X62849097Y-48906343D01*
X62778045Y-48862802D01*
X62709578Y-48825750D01*
X62679951Y-48802690D01*
X62648431Y-48783375D01*
X62579552Y-48724546D01*
X62514078Y-48673586D01*
X62492717Y-48650382D01*
X62469471Y-48630528D01*
X62405632Y-48555783D01*
X62346289Y-48491319D01*
X62332341Y-48469970D01*
X62316624Y-48451568D01*
X62260771Y-48360425D01*
X62210789Y-48283921D01*
X62202978Y-48266115D01*
X62193656Y-48250902D01*
X62148727Y-48142435D01*
X62111274Y-48057049D01*
X62107992Y-48044092D01*
X62103591Y-48033465D01*
X62072361Y-47903388D01*
X62050458Y-47816892D01*
X62049858Y-47809656D01*
X62048650Y-47804623D01*
X62033683Y-47614456D01*
X62030000Y-47570000D01*
X62033683Y-47525547D01*
X62048650Y-47335376D01*
X62049858Y-47330342D01*
X62050458Y-47323108D01*
X62072357Y-47236629D01*
X62103591Y-47106534D01*
X62107993Y-47095905D01*
X62111274Y-47082951D01*
X62148720Y-46997581D01*
X62193656Y-46889097D01*
X62202980Y-46873881D01*
X62210789Y-46856079D01*
X62260762Y-46779589D01*
X62316624Y-46688431D01*
X62332344Y-46670025D01*
X62346289Y-46648681D01*
X62405620Y-46584229D01*
X62469471Y-46509471D01*
X62492722Y-46489612D01*
X62514078Y-46466414D01*
X62579539Y-46415463D01*
X62648431Y-46356624D01*
X62679957Y-46337304D01*
X62709578Y-46314250D01*
X62778031Y-46277204D01*
X62849097Y-46233656D01*
X62889190Y-46217048D01*
X62927457Y-46196340D01*
X62995968Y-46172820D01*
X63066534Y-46143591D01*
X63115015Y-46131951D01*
X63161772Y-46115900D01*
X63227692Y-46104899D01*
X63295376Y-46088650D01*
X63351573Y-46084227D01*
X63406131Y-46075123D01*
X63467256Y-46075123D01*
X63530000Y-46070185D01*
X63592744Y-46075123D01*
G37*
G36*
X71252664Y-44271602D02*
G01*
X71415000Y-44343878D01*
X71558761Y-44448327D01*
X71677664Y-44580383D01*
X71766514Y-44734274D01*
X71821425Y-44903275D01*
X71840000Y-45080000D01*
X71821425Y-45256725D01*
X71766514Y-45425726D01*
X71677664Y-45579617D01*
X71558761Y-45711673D01*
X71415000Y-45816122D01*
X71252664Y-45888398D01*
X71078849Y-45925344D01*
X70901151Y-45925344D01*
X70727336Y-45888398D01*
X70565000Y-45816122D01*
X70421239Y-45711673D01*
X70302336Y-45579617D01*
X70213486Y-45425726D01*
X70158575Y-45256725D01*
X70140000Y-45080000D01*
X70158575Y-44903275D01*
X70213486Y-44734274D01*
X70302336Y-44580383D01*
X70421239Y-44448327D01*
X70565000Y-44343878D01*
X70727336Y-44271602D01*
X70901151Y-44234656D01*
X71078849Y-44234656D01*
X71252664Y-44271602D01*
G37*
G36*
X66281811Y-43704711D02*
G01*
X66323588Y-43704711D01*
X66370718Y-43714728D01*
X66418017Y-43720058D01*
X66452408Y-43732092D01*
X66487110Y-43739468D01*
X66537117Y-43761733D01*
X66587107Y-43779225D01*
X66613128Y-43795575D01*
X66639835Y-43807466D01*
X66689633Y-43843646D01*
X66738792Y-43874535D01*
X66756444Y-43892187D01*
X66775084Y-43905730D01*
X66821165Y-43956908D01*
X66865465Y-44001208D01*
X66875654Y-44017424D01*
X66886946Y-44029965D01*
X66925573Y-44096870D01*
X66960775Y-44152893D01*
X66965170Y-44165453D01*
X66970535Y-44174746D01*
X66998010Y-44259305D01*
X67019942Y-44321983D01*
X67020773Y-44329363D01*
X67022195Y-44333738D01*
X67035076Y-44456306D01*
X67040000Y-44500000D01*
X67035076Y-44543697D01*
X67022195Y-44666261D01*
X67020773Y-44670635D01*
X67019942Y-44678017D01*
X66998005Y-44740707D01*
X66970535Y-44825253D01*
X66965171Y-44834543D01*
X66960775Y-44847107D01*
X66925566Y-44903140D01*
X66886946Y-44970034D01*
X66875656Y-44982572D01*
X66865465Y-44998792D01*
X66821155Y-45043101D01*
X66775084Y-45094269D01*
X66756448Y-45107808D01*
X66738792Y-45125465D01*
X66689623Y-45156359D01*
X66639835Y-45192533D01*
X66613134Y-45204421D01*
X66587107Y-45220775D01*
X66537107Y-45238270D01*
X66487110Y-45260531D01*
X66452414Y-45267905D01*
X66418017Y-45279942D01*
X66370715Y-45285271D01*
X66323588Y-45295289D01*
X66281811Y-45295289D01*
X66240000Y-45300000D01*
X66198189Y-45295289D01*
X66156412Y-45295289D01*
X66109284Y-45285271D01*
X66061983Y-45279942D01*
X66027586Y-45267906D01*
X65992889Y-45260531D01*
X65942887Y-45238268D01*
X65892893Y-45220775D01*
X65866868Y-45204422D01*
X65840164Y-45192533D01*
X65790369Y-45156355D01*
X65741208Y-45125465D01*
X65723554Y-45107811D01*
X65704915Y-45094269D01*
X65658833Y-45043090D01*
X65614535Y-44998792D01*
X65604345Y-44982575D01*
X65593053Y-44970034D01*
X65554420Y-44903120D01*
X65519225Y-44847107D01*
X65514830Y-44834547D01*
X65509464Y-44825253D01*
X65481980Y-44740667D01*
X65460058Y-44678017D01*
X65459226Y-44670639D01*
X65457804Y-44666261D01*
X65444908Y-44543565D01*
X65440000Y-44500000D01*
X65444908Y-44456438D01*
X65457804Y-44333738D01*
X65459226Y-44329358D01*
X65460058Y-44321983D01*
X65481975Y-44259345D01*
X65509464Y-44174746D01*
X65514831Y-44165449D01*
X65519225Y-44152893D01*
X65554413Y-44096890D01*
X65593053Y-44029965D01*
X65604347Y-44017421D01*
X65614535Y-44001208D01*
X65658826Y-43956916D01*
X65704917Y-43905728D01*
X65723559Y-43892183D01*
X65741208Y-43874535D01*
X65790354Y-43843654D01*
X65840162Y-43807467D01*
X65866873Y-43795574D01*
X65892893Y-43779225D01*
X65942877Y-43761734D01*
X65992889Y-43739468D01*
X66027592Y-43732091D01*
X66061983Y-43720058D01*
X66109281Y-43714728D01*
X66156412Y-43704711D01*
X66198189Y-43704711D01*
X66240000Y-43700000D01*
X66281811Y-43704711D01*
G37*
G36*
X71252664Y-41731602D02*
G01*
X71415000Y-41803878D01*
X71558761Y-41908327D01*
X71677664Y-42040383D01*
X71766514Y-42194274D01*
X71821425Y-42363275D01*
X71840000Y-42540000D01*
X71821425Y-42716725D01*
X71766514Y-42885726D01*
X71677664Y-43039617D01*
X71558761Y-43171673D01*
X71415000Y-43276122D01*
X71252664Y-43348398D01*
X71078849Y-43385344D01*
X70901151Y-43385344D01*
X70727336Y-43348398D01*
X70565000Y-43276122D01*
X70421239Y-43171673D01*
X70302336Y-43039617D01*
X70213486Y-42885726D01*
X70158575Y-42716725D01*
X70140000Y-42540000D01*
X70158575Y-42363275D01*
X70213486Y-42194274D01*
X70302336Y-42040383D01*
X70421239Y-41908327D01*
X70565000Y-41803878D01*
X70727336Y-41731602D01*
X70901151Y-41694656D01*
X71078849Y-41694656D01*
X71252664Y-41731602D01*
G37*
G36*
X66281811Y-41204711D02*
G01*
X66323588Y-41204711D01*
X66370718Y-41214728D01*
X66418017Y-41220058D01*
X66452408Y-41232092D01*
X66487110Y-41239468D01*
X66537117Y-41261733D01*
X66587107Y-41279225D01*
X66613128Y-41295575D01*
X66639835Y-41307466D01*
X66689633Y-41343646D01*
X66738792Y-41374535D01*
X66756444Y-41392187D01*
X66775084Y-41405730D01*
X66821165Y-41456908D01*
X66865465Y-41501208D01*
X66875654Y-41517424D01*
X66886946Y-41529965D01*
X66925573Y-41596870D01*
X66960775Y-41652893D01*
X66965170Y-41665453D01*
X66970535Y-41674746D01*
X66998010Y-41759305D01*
X67019942Y-41821983D01*
X67020773Y-41829363D01*
X67022195Y-41833738D01*
X67035076Y-41956306D01*
X67040000Y-42000000D01*
X67035076Y-42043697D01*
X67022195Y-42166261D01*
X67020773Y-42170635D01*
X67019942Y-42178017D01*
X66998005Y-42240707D01*
X66970535Y-42325253D01*
X66965171Y-42334543D01*
X66960775Y-42347107D01*
X66925566Y-42403140D01*
X66886946Y-42470034D01*
X66875656Y-42482572D01*
X66865465Y-42498792D01*
X66821155Y-42543101D01*
X66775084Y-42594269D01*
X66756448Y-42607808D01*
X66738792Y-42625465D01*
X66689623Y-42656359D01*
X66639835Y-42692533D01*
X66613134Y-42704421D01*
X66587107Y-42720775D01*
X66537107Y-42738270D01*
X66487110Y-42760531D01*
X66452414Y-42767905D01*
X66418017Y-42779942D01*
X66370715Y-42785271D01*
X66323588Y-42795289D01*
X66281811Y-42795289D01*
X66240000Y-42800000D01*
X66198189Y-42795289D01*
X66156412Y-42795289D01*
X66109284Y-42785271D01*
X66061983Y-42779942D01*
X66027586Y-42767906D01*
X65992889Y-42760531D01*
X65942887Y-42738268D01*
X65892893Y-42720775D01*
X65866868Y-42704422D01*
X65840164Y-42692533D01*
X65790369Y-42656355D01*
X65741208Y-42625465D01*
X65723554Y-42607811D01*
X65704915Y-42594269D01*
X65658833Y-42543090D01*
X65614535Y-42498792D01*
X65604345Y-42482575D01*
X65593053Y-42470034D01*
X65554420Y-42403120D01*
X65519225Y-42347107D01*
X65514830Y-42334547D01*
X65509464Y-42325253D01*
X65481980Y-42240667D01*
X65460058Y-42178017D01*
X65459226Y-42170639D01*
X65457804Y-42166261D01*
X65444908Y-42043565D01*
X65440000Y-42000000D01*
X65444908Y-41956438D01*
X65457804Y-41833738D01*
X65459226Y-41829358D01*
X65460058Y-41821983D01*
X65481975Y-41759345D01*
X65509464Y-41674746D01*
X65514831Y-41665449D01*
X65519225Y-41652893D01*
X65554413Y-41596890D01*
X65593053Y-41529965D01*
X65604347Y-41517421D01*
X65614535Y-41501208D01*
X65658826Y-41456916D01*
X65704917Y-41405728D01*
X65723559Y-41392183D01*
X65741208Y-41374535D01*
X65790354Y-41343654D01*
X65840162Y-41307467D01*
X65866873Y-41295574D01*
X65892893Y-41279225D01*
X65942877Y-41261734D01*
X65992889Y-41239468D01*
X66027592Y-41232091D01*
X66061983Y-41220058D01*
X66109281Y-41214728D01*
X66156412Y-41204711D01*
X66198189Y-41204711D01*
X66240000Y-41200000D01*
X66281811Y-41204711D01*
G37*
G36*
X71252664Y-39191602D02*
G01*
X71415000Y-39263878D01*
X71558761Y-39368327D01*
X71677664Y-39500383D01*
X71766514Y-39654274D01*
X71821425Y-39823275D01*
X71840000Y-40000000D01*
X71821425Y-40176725D01*
X71766514Y-40345726D01*
X71677664Y-40499617D01*
X71558761Y-40631673D01*
X71415000Y-40736122D01*
X71252664Y-40808398D01*
X71078849Y-40845344D01*
X70901151Y-40845344D01*
X70727336Y-40808398D01*
X70565000Y-40736122D01*
X70421239Y-40631673D01*
X70302336Y-40499617D01*
X70213486Y-40345726D01*
X70158575Y-40176725D01*
X70140000Y-40000000D01*
X70158575Y-39823275D01*
X70213486Y-39654274D01*
X70302336Y-39500383D01*
X70421239Y-39368327D01*
X70565000Y-39263878D01*
X70727336Y-39191602D01*
X70901151Y-39154656D01*
X71078849Y-39154656D01*
X71252664Y-39191602D01*
G37*
G36*
X66281811Y-39204711D02*
G01*
X66323588Y-39204711D01*
X66370718Y-39214728D01*
X66418017Y-39220058D01*
X66452408Y-39232092D01*
X66487110Y-39239468D01*
X66537117Y-39261733D01*
X66587107Y-39279225D01*
X66613128Y-39295575D01*
X66639835Y-39307466D01*
X66689633Y-39343646D01*
X66738792Y-39374535D01*
X66756444Y-39392187D01*
X66775084Y-39405730D01*
X66821165Y-39456908D01*
X66865465Y-39501208D01*
X66875654Y-39517424D01*
X66886946Y-39529965D01*
X66925573Y-39596870D01*
X66960775Y-39652893D01*
X66965170Y-39665453D01*
X66970535Y-39674746D01*
X66998010Y-39759305D01*
X67019942Y-39821983D01*
X67020773Y-39829363D01*
X67022195Y-39833738D01*
X67035076Y-39956306D01*
X67040000Y-40000000D01*
X67035076Y-40043697D01*
X67022195Y-40166261D01*
X67020773Y-40170635D01*
X67019942Y-40178017D01*
X66998005Y-40240707D01*
X66970535Y-40325253D01*
X66965171Y-40334543D01*
X66960775Y-40347107D01*
X66925566Y-40403140D01*
X66886946Y-40470034D01*
X66875656Y-40482572D01*
X66865465Y-40498792D01*
X66821155Y-40543101D01*
X66775084Y-40594269D01*
X66756448Y-40607808D01*
X66738792Y-40625465D01*
X66689623Y-40656359D01*
X66639835Y-40692533D01*
X66613134Y-40704421D01*
X66587107Y-40720775D01*
X66537107Y-40738270D01*
X66487110Y-40760531D01*
X66452414Y-40767905D01*
X66418017Y-40779942D01*
X66370715Y-40785271D01*
X66323588Y-40795289D01*
X66281811Y-40795289D01*
X66240000Y-40800000D01*
X66198189Y-40795289D01*
X66156412Y-40795289D01*
X66109284Y-40785271D01*
X66061983Y-40779942D01*
X66027586Y-40767906D01*
X65992889Y-40760531D01*
X65942887Y-40738268D01*
X65892893Y-40720775D01*
X65866868Y-40704422D01*
X65840164Y-40692533D01*
X65790369Y-40656355D01*
X65741208Y-40625465D01*
X65723554Y-40607811D01*
X65704915Y-40594269D01*
X65658833Y-40543090D01*
X65614535Y-40498792D01*
X65604345Y-40482575D01*
X65593053Y-40470034D01*
X65554420Y-40403120D01*
X65519225Y-40347107D01*
X65514830Y-40334547D01*
X65509464Y-40325253D01*
X65481980Y-40240667D01*
X65460058Y-40178017D01*
X65459226Y-40170639D01*
X65457804Y-40166261D01*
X65444908Y-40043565D01*
X65440000Y-40000000D01*
X65444908Y-39956438D01*
X65457804Y-39833738D01*
X65459226Y-39829358D01*
X65460058Y-39821983D01*
X65481975Y-39759345D01*
X65509464Y-39674746D01*
X65514831Y-39665449D01*
X65519225Y-39652893D01*
X65554413Y-39596890D01*
X65593053Y-39529965D01*
X65604347Y-39517421D01*
X65614535Y-39501208D01*
X65658826Y-39456916D01*
X65704917Y-39405728D01*
X65723559Y-39392183D01*
X65741208Y-39374535D01*
X65790354Y-39343654D01*
X65840162Y-39307467D01*
X65866873Y-39295574D01*
X65892893Y-39279225D01*
X65942877Y-39261734D01*
X65992889Y-39239468D01*
X66027592Y-39232091D01*
X66061983Y-39220058D01*
X66109281Y-39214728D01*
X66156412Y-39204711D01*
X66198189Y-39204711D01*
X66240000Y-39200000D01*
X66281811Y-39204711D01*
G37*
G36*
X71840000Y-38310000D02*
G01*
X70140000Y-38310000D01*
X70140000Y-36610000D01*
X71840000Y-36610000D01*
X71840000Y-38310000D01*
G37*
G36*
X67040000Y-38300000D02*
G01*
X65440000Y-38300000D01*
X65440000Y-36700000D01*
X67040000Y-36700000D01*
X67040000Y-38300000D01*
G37*
G36*
X63592744Y-32935123D02*
G01*
X63653869Y-32935123D01*
X63708427Y-32944227D01*
X63764623Y-32948650D01*
X63832304Y-32964899D01*
X63898228Y-32975900D01*
X63944986Y-32991952D01*
X63993465Y-33003591D01*
X64064026Y-33032818D01*
X64132543Y-33056340D01*
X64170813Y-33077050D01*
X64210902Y-33093656D01*
X64281959Y-33137200D01*
X64350422Y-33174250D01*
X64380046Y-33197307D01*
X64411568Y-33216624D01*
X64480449Y-33275454D01*
X64545922Y-33326414D01*
X64567281Y-33349616D01*
X64590528Y-33369471D01*
X64654365Y-33444214D01*
X64713711Y-33508681D01*
X64727659Y-33530030D01*
X64743375Y-33548431D01*
X64799221Y-33639564D01*
X64849211Y-33716079D01*
X64857022Y-33733886D01*
X64866343Y-33749097D01*
X64911261Y-33857540D01*
X64948726Y-33942951D01*
X64952008Y-33955911D01*
X64956408Y-33966534D01*
X64987623Y-34096553D01*
X65009542Y-34183108D01*
X65010141Y-34190348D01*
X65011349Y-34195376D01*
X65026296Y-34385307D01*
X65030000Y-34430000D01*
X65026296Y-34474696D01*
X65011349Y-34664623D01*
X65010142Y-34669650D01*
X65009542Y-34676892D01*
X64987618Y-34763464D01*
X64956408Y-34893465D01*
X64952008Y-34904085D01*
X64948726Y-34917049D01*
X64911254Y-35002476D01*
X64866343Y-35110902D01*
X64857023Y-35126109D01*
X64849211Y-35143921D01*
X64799211Y-35220450D01*
X64743375Y-35311568D01*
X64727661Y-35329965D01*
X64713711Y-35351319D01*
X64654353Y-35415798D01*
X64590528Y-35490528D01*
X64567285Y-35510378D01*
X64545922Y-35533586D01*
X64480436Y-35584555D01*
X64411568Y-35643375D01*
X64380052Y-35662687D01*
X64350422Y-35685750D01*
X64281945Y-35722807D01*
X64210902Y-35766343D01*
X64170820Y-35782945D01*
X64132543Y-35803660D01*
X64064011Y-35827186D01*
X63993465Y-35856408D01*
X63944996Y-35868044D01*
X63898228Y-35884100D01*
X63832290Y-35895103D01*
X63764623Y-35911349D01*
X63708439Y-35915770D01*
X63653869Y-35924877D01*
X63592731Y-35924877D01*
X63530000Y-35929814D01*
X63467268Y-35924877D01*
X63406131Y-35924877D01*
X63351561Y-35915770D01*
X63295376Y-35911349D01*
X63227706Y-35895102D01*
X63161772Y-35884100D01*
X63115005Y-35868045D01*
X63066534Y-35856408D01*
X62995982Y-35827184D01*
X62927457Y-35803660D01*
X62889182Y-35782946D01*
X62849097Y-35766343D01*
X62778045Y-35722802D01*
X62709578Y-35685750D01*
X62679951Y-35662690D01*
X62648431Y-35643375D01*
X62579552Y-35584546D01*
X62514078Y-35533586D01*
X62492717Y-35510382D01*
X62469471Y-35490528D01*
X62405632Y-35415783D01*
X62346289Y-35351319D01*
X62332341Y-35329970D01*
X62316624Y-35311568D01*
X62260771Y-35220425D01*
X62210789Y-35143921D01*
X62202978Y-35126115D01*
X62193656Y-35110902D01*
X62148727Y-35002435D01*
X62111274Y-34917049D01*
X62107992Y-34904092D01*
X62103591Y-34893465D01*
X62072361Y-34763388D01*
X62050458Y-34676892D01*
X62049858Y-34669656D01*
X62048650Y-34664623D01*
X62033683Y-34474456D01*
X62030000Y-34430000D01*
X62033683Y-34385547D01*
X62048650Y-34195376D01*
X62049858Y-34190342D01*
X62050458Y-34183108D01*
X62072357Y-34096629D01*
X62103591Y-33966534D01*
X62107993Y-33955905D01*
X62111274Y-33942951D01*
X62148720Y-33857581D01*
X62193656Y-33749097D01*
X62202980Y-33733881D01*
X62210789Y-33716079D01*
X62260762Y-33639589D01*
X62316624Y-33548431D01*
X62332344Y-33530025D01*
X62346289Y-33508681D01*
X62405620Y-33444229D01*
X62469471Y-33369471D01*
X62492722Y-33349612D01*
X62514078Y-33326414D01*
X62579539Y-33275463D01*
X62648431Y-33216624D01*
X62679957Y-33197304D01*
X62709578Y-33174250D01*
X62778031Y-33137204D01*
X62849097Y-33093656D01*
X62889190Y-33077048D01*
X62927457Y-33056340D01*
X62995968Y-33032820D01*
X63066534Y-33003591D01*
X63115015Y-32991951D01*
X63161772Y-32975900D01*
X63227692Y-32964899D01*
X63295376Y-32948650D01*
X63351573Y-32944227D01*
X63406131Y-32935123D01*
X63467256Y-32935123D01*
X63530000Y-32930185D01*
X63592744Y-32935123D01*
G37*
M02*
