M48
; DRILL file {KiCad 8.0.2} date 2024-05-24T16:25:44+0200
; FORMAT={-:-/ absolute / inch / decimal}
; #@! TF.CreationDate,2024-05-24T16:25:44+02:00
; #@! TF.GenerationSoftware,Kicad,Pcbnew,8.0.2
; #@! TF.FileFunction,Plated,1,2,PTH
FMAT,2
INCH
; #@! TA.AperFunction,Plated,PTH,ViaDrill
T1C0.0118
; #@! TA.AperFunction,Plated,PTH,ComponentDrill
T2C0.0118
; #@! TA.AperFunction,Plated,PTH,ViaDrill
T3C0.0197
; #@! TA.AperFunction,Plated,PTH,ComponentDrill
T4C0.0236
; #@! TA.AperFunction,Plated,PTH,ComponentDrill
T5C0.0280
; #@! TA.AperFunction,Plated,PTH,ComponentDrill
T6C0.0374
; #@! TA.AperFunction,Plated,PTH,ComponentDrill
T7C0.0394
; #@! TA.AperFunction,Plated,PTH,ComponentDrill
T8C0.0520
; #@! TA.AperFunction,Plated,PTH,ComponentDrill
T9C0.0906
%
G90
G05
T1
X2.5Y-3.75
X2.5001Y-3.8701
X2.5006Y-3.96
X2.5006Y-3.83
X2.5006Y-3.91
X2.5046Y-3.7846
X2.55Y-3.68
X2.8198Y-3.8533
X2.82Y-3.8867
X2.82Y-3.9329
X2.8221Y-3.8041
X2.85Y-3.6689
X3.11Y-2.4
X3.1218Y-2.4362
X3.127Y-2.2952
X3.127Y-2.3735
X3.15Y-3.75
X3.1501Y-3.8701
X3.1506Y-3.96
X3.1506Y-3.83
X3.1506Y-3.91
X3.1518Y-3.7823
X3.1623Y-2.7223
X3.17Y-2.6772
X3.1816Y-2.9416
X3.2Y-3.68
X3.2038Y-2.5562
X3.2493Y-2.2712
X3.2579Y-2.551
X3.2807Y-2.2767
X3.3071Y-2.8937
X3.31Y-2.2195
X3.3418Y-2.7246
X3.3428Y-2.5315
X3.3434Y-2.6811
X3.3465Y-2.3031
X3.35Y-2.6113
X3.3655Y-2.2742
X3.3661Y-2.3327
X3.3684Y-2.7066
X3.37Y-2.66
X3.3795Y-2.6261
X3.3805Y-2.7823
X3.3808Y-2.8621
X3.3925Y-2.4705
X3.3957Y-2.362
X3.3957Y-2.3957
X3.416Y-2.2519
X3.4174Y-2.4213
X3.43Y-2.96
X3.4371Y-2.45
X3.4582Y-3.2446
X3.4698Y-3.8533
X3.47Y-3.8867
X3.47Y-3.9329
X3.4714Y-2.5128
X3.4721Y-3.8041
X3.4742Y-2.8644
X3.4778Y-2.7975
X3.4798Y-2.71
X3.4798Y-2.7461
X3.48Y-2.83
X3.48Y-2.95
X3.5Y-3.6689
X3.5233Y-2.7694
X3.5428Y-3.2779
X3.58Y-2.6064
X3.5827Y-2.9216
X3.5968Y-2.4689
X3.6206Y-2.9195
X3.622Y-2.5808
X3.6241Y-3.01
X3.6314Y-2.4665
X3.6501Y-2.5594
X3.66Y-2.43
X3.6614Y-3.01
X3.6924Y-2.4318
X3.6939Y-3.0066
X3.6987Y-2.9154
X3.7147Y-2.4608
X3.7365Y-3.2944
X3.7494Y-2.46
X3.7555Y-2.3272
X3.7583Y-3.1972
X3.7782Y-2.4409
X3.7894Y-2.5847
X3.79Y-2.8448
X3.7996Y-3.7896
X3.7999Y-2.4655
X3.8Y-3.75
X3.8001Y-3.8701
X3.8006Y-3.96
X3.8006Y-3.83
X3.8006Y-3.91
X3.8172Y-2.9626
X3.82Y-2.83
X3.8217Y-3.0
X3.826Y-2.5098
X3.8277Y-2.6672
X3.8277Y-2.7065
X3.8279Y-2.76
X3.8292Y-2.7995
X3.8319Y-2.6083
X3.85Y-3.68
X3.876Y-2.5275
X3.8836Y-2.9059
X3.9175Y-2.8444
X3.9244Y-2.6891
X3.931Y-2.8001
X3.933Y-2.7213
X3.9339Y-2.7654
X4.0867Y-2.9433
X4.1198Y-3.8533
X4.12Y-3.8867
X4.12Y-3.9329
X4.1221Y-3.8041
X4.15Y-3.6689
X4.45Y-3.75
X4.4501Y-3.8701
X4.4506Y-3.96
X4.4506Y-3.83
X4.4506Y-3.91
X4.452Y-3.782
X4.5Y-3.68
X4.7698Y-3.8533
X4.77Y-3.8867
X4.77Y-3.9329
X4.7721Y-3.8041
X4.8Y-3.6689
T2
X2.6088Y-3.7165
X2.6088Y-3.7676
X2.6088Y-3.8188
X2.6088Y-3.87
X2.6088Y-3.9212
X2.6088Y-3.9724
X2.6088Y-4.0235
X2.66Y-3.7165
X2.66Y-3.7676
X2.66Y-3.8188
X2.66Y-3.87
X2.66Y-3.9212
X2.66Y-3.9724
X2.66Y-4.0235
X2.7112Y-3.7165
X2.7112Y-3.7676
X2.7112Y-3.8188
X2.7112Y-3.87
X2.7112Y-3.9212
X2.7112Y-3.9724
X2.7112Y-4.0235
X3.2588Y-3.7165
X3.2588Y-3.7676
X3.2588Y-3.8188
X3.2588Y-3.87
X3.2588Y-3.9212
X3.2588Y-3.9724
X3.2588Y-4.0235
X3.31Y-3.7165
X3.31Y-3.7676
X3.31Y-3.8188
X3.31Y-3.87
X3.31Y-3.9212
X3.31Y-3.9724
X3.31Y-4.0235
X3.3612Y-3.7165
X3.3612Y-3.7676
X3.3612Y-3.8188
X3.3612Y-3.87
X3.3612Y-3.9212
X3.3612Y-3.9724
X3.3612Y-4.0235
X3.9088Y-3.7165
X3.9088Y-3.7676
X3.9088Y-3.8188
X3.9088Y-3.87
X3.9088Y-3.9212
X3.9088Y-3.9724
X3.9088Y-4.0235
X3.96Y-3.7165
X3.96Y-3.7676
X3.96Y-3.8188
X3.96Y-3.87
X3.96Y-3.9212
X3.96Y-3.9724
X3.96Y-4.0235
X4.0112Y-3.7165
X4.0112Y-3.7676
X4.0112Y-3.8188
X4.0112Y-3.87
X4.0112Y-3.9212
X4.0112Y-3.9724
X4.0112Y-4.0235
X4.5594Y-3.7165
X4.5594Y-3.7676
X4.5594Y-3.8188
X4.5594Y-3.87
X4.5594Y-3.9212
X4.5594Y-3.9724
X4.5594Y-4.0235
X4.6106Y-3.7165
X4.6106Y-3.7676
X4.6106Y-3.8188
X4.6106Y-3.87
X4.6106Y-3.9212
X4.6106Y-3.9724
X4.6106Y-4.0235
X4.6617Y-3.7165
X4.6617Y-3.7676
X4.6617Y-3.8188
X4.6617Y-3.87
X4.6617Y-3.9212
X4.6617Y-3.9724
X4.6617Y-4.0235
T3
X2.75Y-3.46
X3.4Y-3.46
X3.48Y-3.46
X4.05Y-3.46
X4.16Y-3.46
X4.7Y-3.46
T4
X2.6706Y-3.55
X2.7494Y-3.55
X3.3213Y-3.55
X3.4Y-3.55
X3.97Y-3.55
X4.0487Y-3.55
X4.62Y-3.55
X4.6987Y-3.55
T5
X3.2382Y-3.0776
X3.2382Y-3.2776
X3.3382Y-3.1776
T6
X2.9483Y-2.5335
X2.9483Y-2.6319
X3.0271Y-2.5335
X3.0271Y-2.6319
T7
X2.48Y-4.15
X2.58Y-4.15
X2.6724Y-2.1555
X2.68Y-4.15
X2.7724Y-2.1555
X2.78Y-4.15
X2.8724Y-2.1555
X2.88Y-4.15
X2.9724Y-2.1555
X2.98Y-4.15
X3.13Y-4.15
X3.23Y-4.15
X3.33Y-4.15
X3.43Y-4.15
X3.53Y-4.15
X3.63Y-4.15
X3.6703Y-2.1555
X3.7703Y-2.1555
X3.78Y-4.1492
X3.88Y-4.1492
X3.9567Y-2.1632
X3.9567Y-2.2632
X3.9567Y-2.3632
X3.98Y-4.1492
X4.08Y-4.1492
X4.18Y-4.1492
X4.28Y-4.1492
X4.43Y-4.15
X4.53Y-4.15
X4.63Y-4.15
X4.73Y-4.15
X4.83Y-4.15
X4.93Y-4.15
T8
X2.6654Y-3.0841
X2.6654Y-3.2809
T9
X2.8357Y-2.3465
X2.8357Y-2.8189
M30
