M48
; DRILL file {KiCad 7.0.9} date Tue Dec  5 19:57:25 2023
; FORMAT={-:-/ absolute / inch / decimal}
; #@! TF.CreationDate,2023-12-05T19:57:25+01:00
; #@! TF.GenerationSoftware,Kicad,Pcbnew,7.0.9
; #@! TF.FileFunction,Plated,1,2,PTH
FMAT,2
INCH
; #@! TA.AperFunction,Plated,PTH,ViaDrill
T1C0.0118
; #@! TA.AperFunction,Plated,PTH,ComponentDrill
T2C0.0118
; #@! TA.AperFunction,Plated,PTH,ComponentDrill
T3C0.0236
; #@! TA.AperFunction,Plated,PTH,ComponentDrill
T4C0.0280
; #@! TA.AperFunction,Plated,PTH,ComponentDrill
T5C0.0374
; #@! TA.AperFunction,Plated,PTH,ComponentDrill
T6C0.0394
; #@! TA.AperFunction,Plated,PTH,ComponentDrill
T7C0.0520
; #@! TA.AperFunction,Plated,PTH,ComponentDrill
T8C0.0906
%
G90
G05
T1
X3.2372Y-4.1605
X3.2372Y-4.2805
X3.3372Y-3.0555
X3.3372Y-3.1105
X3.3622Y-2.9305
X3.3622Y-3.0305
X3.3622Y-3.0815
X3.3622Y-3.1355
X3.3622Y-3.1779
X3.3657Y-4.1403
X3.369Y-4.3559
X3.4015Y-4.1235
X3.4372Y-4.0305
X3.4372Y-4.3559
X3.4622Y-3.8105
X3.4632Y-3.4605
X3.4653Y-3.2131
X3.4706Y-3.2586
X3.4774Y-4.3654
X3.4833Y-2.9063
X3.4872Y-3.1855
X3.4905Y-4.0305
X3.4923Y-3.2838
X3.5122Y-3.1605
X3.5122Y-3.4805
X3.5122Y-3.6605
X3.5122Y-3.9805
X3.5372Y-3.9555
X3.5372Y-4.0055
X3.5372Y-4.3455
X3.5373Y-3.5045
X3.5412Y-2.8305
X3.5622Y-3.4805
X3.5622Y-4.0305
X3.5787Y-3.3692
X3.5992Y-3.0355
X3.6082Y-3.4643
X3.6122Y-3.3555
X3.6169Y-2.8555
X3.6257Y-3.5027
X3.6426Y-2.8305
X3.6622Y-3.3555
X3.673Y-2.8163
X3.6886Y-3.0078
X3.6902Y-3.5082
X3.7122Y-2.8127
X3.7122Y-3.0312
X3.7172Y-3.0655
X3.7237Y-3.666
X3.735Y-3.4613
X3.7507Y-3.3586
X3.7527Y-2.9055
X3.7941Y-3.3605
X3.8046Y-3.9329
X3.8122Y-3.0069
X3.8267Y-3.6555
X3.8372Y-3.7855
X3.9122Y-3.0218
X3.9288Y-3.0555
X3.9372Y-3.1208
X3.9372Y-3.1555
X3.9622Y-3.1758
X3.9859Y-3.2042
X3.9944Y-3.5627
X4.1972Y-2.9055
X4.2531Y-3.1657
X4.3972Y-4.7055
X4.5172Y-3.1855
X4.5972Y-4.8855
X4.6347Y-4.983
X4.7172Y-2.1805
X4.7972Y-4.3255
X4.9172Y-3.7855
X4.9572Y-3.7655
X4.9672Y-2.2055
X4.9772Y-3.9055
X4.9972Y-2.5305
X5.0076Y-4.5655
X5.0291Y-2.1855
X5.0372Y-2.3255
X5.0372Y-2.9855
X5.0372Y-5.1072
X5.0472Y-2.9555
X5.0622Y-2.8605
X5.0622Y-3.5329
X5.0622Y-4.2805
X5.0622Y-4.3305
X5.0622Y-5.0855
X5.0672Y-3.1355
X5.0867Y-3.9555
X5.0867Y-4.3055
X5.0869Y-4.7571
X5.0872Y-2.6838
X5.0872Y-3.4829
X5.0872Y-5.1055
X5.1119Y-3.1571
X5.1122Y-2.3555
X5.1122Y-2.3555
X5.1122Y-2.7055
X5.1122Y-3.5055
X5.1617Y-3.9305
X5.1622Y-4.7305
X5.1872Y-2.3305
X5.1872Y-3.1305
X5.1872Y-4.4055
X5.1872Y-5.1305
X5.1896Y-4.3305
X5.2117Y-3.9555
X5.2122Y-4.7555
X5.2122Y-5.2079
X5.2134Y-3.5355
X5.2333Y-5.1373
X5.2367Y-3.9055
X5.2372Y-2.3555
X5.2372Y-2.7338
X5.2372Y-3.1555
X5.2372Y-4.4055
X5.2372Y-4.7055
X5.259Y-3.5387
X5.2622Y-2.3055
X5.2622Y-3.1055
X5.2719Y-5.1459
X5.2824Y-4.332
X5.2867Y-3.9055
X5.2872Y-2.7272
X5.2872Y-4.7055
X5.3117Y-4.2805
X5.3117Y-3.5607
X5.3122Y-2.3055
X5.3122Y-2.7605
X5.3122Y-3.1055
X5.3122Y-5.0805
X5.3367Y-4.3555
X5.3372Y-2.6805
X5.3372Y-2.7855
X5.3372Y-3.4805
X5.3372Y-3.6079
X5.3372Y-5.1805
X5.3622Y-2.7555
X5.3622Y-3.5805
T2
X5.0724Y-4.8641
X5.0724Y-4.9153
X5.0724Y-4.9665
X5.0744Y-4.0646
X5.0744Y-4.1157
X5.0744Y-4.1669
X5.0983Y-3.2691
X5.0983Y-3.3203
X5.0983Y-3.3715
X5.1Y-2.4646
X5.1Y-2.5157
X5.1Y-2.5669
X5.1235Y-4.8641
X5.1235Y-4.9153
X5.1235Y-4.9665
X5.1256Y-4.0646
X5.1256Y-4.1157
X5.1256Y-4.1669
X5.1494Y-3.2691
X5.1494Y-3.3203
X5.1494Y-3.3715
X5.1512Y-2.4646
X5.1512Y-2.5157
X5.1512Y-2.5669
X5.1747Y-4.8641
X5.1747Y-4.9153
X5.1747Y-4.9665
X5.1768Y-4.0646
X5.1768Y-4.1157
X5.1768Y-4.1669
X5.2006Y-3.2691
X5.2006Y-3.3203
X5.2006Y-3.3715
X5.2024Y-2.4646
X5.2024Y-2.5157
X5.2024Y-2.5669
X5.2259Y-4.8641
X5.2259Y-4.9153
X5.2259Y-4.9665
X5.228Y-4.0646
X5.228Y-4.1157
X5.228Y-4.1669
X5.2518Y-3.2691
X5.2518Y-3.3203
X5.2518Y-3.3715
X5.2536Y-2.4646
X5.2536Y-2.5157
X5.2536Y-2.5669
X5.2771Y-4.8641
X5.2771Y-4.9153
X5.2771Y-4.9665
X5.2792Y-4.0646
X5.2792Y-4.1157
X5.2792Y-4.1669
X5.303Y-3.2691
X5.303Y-3.3203
X5.303Y-3.3715
X5.3048Y-2.4646
X5.3048Y-2.5157
X5.3048Y-2.5669
X5.3283Y-4.8641
X5.3283Y-4.9153
X5.3283Y-4.9665
X5.3304Y-4.0646
X5.3304Y-4.1157
X5.3304Y-4.1669
X5.3542Y-3.2691
X5.3542Y-3.3203
X5.3542Y-3.3715
X5.3559Y-2.4646
X5.3559Y-2.5157
X5.3559Y-2.5669
X5.3794Y-4.8641
X5.3794Y-4.9153
X5.3794Y-4.9665
X5.3815Y-4.0646
X5.3815Y-4.1157
X5.3815Y-4.1669
X5.4054Y-3.2691
X5.4054Y-3.3203
X5.4054Y-3.3715
X5.4071Y-2.4646
X5.4071Y-2.5157
X5.4071Y-2.5669
T3
X4.4372Y-2.1855
X4.4372Y-2.2643
X4.5972Y-3.7455
X4.5972Y-3.8243
X4.6972Y-4.5461
X4.6972Y-4.6249
X4.7172Y-2.9468
X4.7172Y-3.0255
T4
X3.9167Y-4.0455
X3.9167Y-4.2455
X4.0167Y-4.1455
X4.6867Y-4.1327
X4.6872Y-4.9305
X4.7122Y-2.5305
X4.7122Y-3.3305
X4.7867Y-4.0327
X4.7867Y-4.2327
X4.7872Y-4.8305
X4.7872Y-5.0305
X4.8122Y-2.4305
X4.8122Y-2.6305
X4.8122Y-3.2305
X4.8122Y-3.4305
T5
X3.6757Y-4.6863
X3.6757Y-4.7847
X3.7545Y-4.6863
X3.7545Y-4.7847
T6
X3.2372Y-2.6851
X3.2372Y-2.7851
X3.2372Y-2.8851
X3.2372Y-2.9851
X3.562Y-3.8105
X3.662Y-3.8105
X5.5117Y-4.0105
X5.5117Y-4.1105
X5.5117Y-4.2105
X5.5117Y-4.3105
X5.5122Y-4.7855
X5.5122Y-4.8855
X5.5122Y-4.9855
X5.5122Y-5.0855
X5.5372Y-2.4105
X5.5372Y-2.5105
X5.5372Y-2.6105
X5.5372Y-2.7105
X5.5372Y-3.1855
X5.5372Y-3.2855
X5.5372Y-3.3855
X5.5372Y-3.4855
T7
X4.1034Y-4.9974
X4.3002Y-4.9974
T8
X3.5631Y-4.4993
X3.5631Y-4.9717
T0
M30
