%TF.GenerationSoftware,KiCad,Pcbnew,8.0.2*%
%TF.CreationDate,2024-05-24T16:25:43+02:00*%
%TF.ProjectId,Doodle Drive,446f6f64-6c65-4204-9472-6976652e6b69,1.0V*%
%TF.SameCoordinates,Original*%
%TF.FileFunction,Legend,Bot*%
%TF.FilePolarity,Positive*%
%FSLAX46Y46*%
G04 Gerber Fmt 4.6, Leading zero omitted, Abs format (unit mm)*
G04 Created by KiCad (PCBNEW 8.0.2) date 2024-05-24 16:25:43*
%MOMM*%
%LPD*%
G01*
G04 APERTURE LIST*
%ADD10R,3.960000X1.980000*%
%ADD11O,3.960000X1.980000*%
%ADD12C,1.200000*%
%ADD13R,1.600000X1.600000*%
%ADD14C,1.600000*%
%ADD15C,4.000000*%
%ADD16R,1.700000X1.700000*%
%ADD17O,1.700000X1.700000*%
%ADD18R,1.217000X1.217000*%
%ADD19C,1.217000*%
G04 APERTURE END LIST*
%LPC*%
D10*
%TO.C,J3*%
X67700000Y-78335000D03*
D11*
X67700000Y-83335000D03*
%TD*%
D12*
%TO.C,C22*%
X67834000Y-90170000D03*
X69834000Y-90170000D03*
%TD*%
D13*
%TO.C,J1*%
X76887500Y-66850000D03*
D14*
X76887500Y-64350000D03*
X74887500Y-64350000D03*
X74887500Y-66850000D03*
D15*
X72027500Y-71600000D03*
X72027500Y-59600000D03*
%TD*%
D16*
%TO.C,J4*%
X112522000Y-105410000D03*
D17*
X115062000Y-105410000D03*
X117602000Y-105410000D03*
X120142000Y-105410000D03*
X122682000Y-105410000D03*
X125222000Y-105410000D03*
%TD*%
D16*
%TO.C,J6*%
X93225000Y-54750000D03*
D17*
X95765000Y-54750000D03*
%TD*%
D16*
%TO.C,J7*%
X79502000Y-105410000D03*
D17*
X82042000Y-105410000D03*
X84582000Y-105410000D03*
X87122000Y-105410000D03*
X89662000Y-105410000D03*
X92202000Y-105410000D03*
%TD*%
D12*
%TO.C,C30*%
X100838000Y-90170000D03*
X102838000Y-90170000D03*
%TD*%
D16*
%TO.C,J2*%
X67880000Y-54750000D03*
D17*
X70420000Y-54750000D03*
X72960000Y-54750000D03*
X75500000Y-54750000D03*
%TD*%
D16*
%TO.C,J8*%
X96012000Y-105390243D03*
D17*
X98552000Y-105390243D03*
X101092000Y-105390243D03*
X103632000Y-105390243D03*
X106172000Y-105390243D03*
X108712000Y-105390243D03*
%TD*%
D16*
%TO.C,J9*%
X100500000Y-60025000D03*
D17*
X100500000Y-57485000D03*
X100500000Y-54945000D03*
%TD*%
D12*
%TO.C,C29*%
X117348000Y-90170000D03*
X119348000Y-90170000D03*
%TD*%
%TO.C,C18*%
X84360000Y-90170000D03*
X86360000Y-90170000D03*
%TD*%
D16*
%TO.C,J5*%
X62992000Y-105410000D03*
D17*
X65532000Y-105410000D03*
X68072000Y-105410000D03*
X70612000Y-105410000D03*
X73152000Y-105410000D03*
X75692000Y-105410000D03*
%TD*%
D18*
%TO.C,RV4*%
X82250000Y-83250000D03*
D19*
X84790000Y-80710000D03*
X82250000Y-78170000D03*
%TD*%
%LPD*%
M02*
