%TF.GenerationSoftware,KiCad,Pcbnew,7.0.10*%
%TF.CreationDate,2024-01-19T17:56:23+01:00*%
%TF.ProjectId,Doodle Drive,446f6f64-6c65-4204-9472-6976652e6b69,1.0V*%
%TF.SameCoordinates,Original*%
%TF.FileFunction,Legend,Bot*%
%TF.FilePolarity,Positive*%
%FSLAX46Y46*%
G04 Gerber Fmt 4.6, Leading zero omitted, Abs format (unit mm)*
G04 Created by KiCad (PCBNEW 7.0.10) date 2024-01-19 17:56:23*
%MOMM*%
%LPD*%
G01*
G04 APERTURE LIST*
%ADD10C,0.150000*%
%ADD11C,0.120000*%
%ADD12O,3.960000X1.980000*%
%ADD13R,3.960000X1.980000*%
%ADD14C,1.200000*%
%ADD15O,1.700000X1.700000*%
%ADD16R,1.700000X1.700000*%
%ADD17C,4.000000*%
%ADD18C,1.600000*%
%ADD19R,1.600000X1.600000*%
%ADD20C,1.217000*%
%ADD21R,1.217000X1.217000*%
%ADD22C,3.000000*%
G04 APERTURE END LIST*
D10*
X71323333Y-34584819D02*
X71323333Y-35299104D01*
X71323333Y-35299104D02*
X71370952Y-35441961D01*
X71370952Y-35441961D02*
X71466190Y-35537200D01*
X71466190Y-35537200D02*
X71609047Y-35584819D01*
X71609047Y-35584819D02*
X71704285Y-35584819D01*
X70418571Y-34918152D02*
X70418571Y-35584819D01*
X70656666Y-34537200D02*
X70894761Y-35251485D01*
X70894761Y-35251485D02*
X70275714Y-35251485D01*
D11*
%TO.C,J4*%
X69660000Y-38730000D02*
X69660000Y-46410000D01*
X72320000Y-46410000D02*
X69660000Y-46410000D01*
X72320000Y-38730000D02*
X69660000Y-38730000D01*
X72320000Y-38730000D02*
X72320000Y-46410000D01*
X72320000Y-37460000D02*
X72320000Y-36130000D01*
X72320000Y-36130000D02*
X70990000Y-36130000D01*
%TD*%
%LPC*%
D12*
%TO.C,J3*%
X67700000Y-83335000D03*
D13*
X67700000Y-78335000D03*
%TD*%
D14*
%TO.C,C22*%
X110917500Y-90000000D03*
X110917500Y-92000000D03*
%TD*%
D15*
%TO.C,J12*%
X82317500Y-112400000D03*
X84857500Y-112400000D03*
X87397500Y-112400000D03*
D16*
X89937500Y-112400000D03*
%TD*%
D17*
%TO.C,J1*%
X72027500Y-59600000D03*
X72027500Y-71600000D03*
D18*
X74887500Y-66850000D03*
X74887500Y-64350000D03*
X76887500Y-64350000D03*
D19*
X76887500Y-66850000D03*
%TD*%
D20*
%TO.C,RV6*%
X99620000Y-94150000D03*
X102160000Y-91610000D03*
D21*
X104700000Y-94150000D03*
%TD*%
D14*
%TO.C,C32*%
X75940000Y-90000000D03*
X75940000Y-92000000D03*
%TD*%
D15*
%TO.C,J6*%
X69985000Y-54750000D03*
D16*
X72525000Y-54750000D03*
%TD*%
D15*
%TO.C,J9*%
X99797500Y-112305000D03*
X102337500Y-112305000D03*
X104877500Y-112305000D03*
D16*
X107417500Y-112305000D03*
%TD*%
D20*
%TO.C,RV3*%
X64600000Y-94140000D03*
X67140000Y-91600000D03*
D21*
X69680000Y-94140000D03*
%TD*%
D14*
%TO.C,C27*%
X93500000Y-90000000D03*
X93500000Y-92000000D03*
%TD*%
D20*
%TO.C,RV2*%
X82147500Y-94190000D03*
X84687500Y-91650000D03*
D21*
X87227500Y-94190000D03*
%TD*%
D15*
%TO.C,J4*%
X70990000Y-45080000D03*
X70990000Y-42540000D03*
X70990000Y-40000000D03*
D16*
X70990000Y-37460000D03*
%TD*%
D15*
%TO.C,J8*%
X117317500Y-112250000D03*
X119857500Y-112250000D03*
X122397500Y-112250000D03*
D16*
X124937500Y-112250000D03*
%TD*%
D20*
%TO.C,RV1*%
X117147500Y-93985000D03*
X119687500Y-91445000D03*
D21*
X122227500Y-93985000D03*
%TD*%
D15*
%TO.C,J15*%
X64720000Y-112400000D03*
X67260000Y-112400000D03*
X69800000Y-112400000D03*
D16*
X72340000Y-112400000D03*
%TD*%
D17*
%TO.C,J2*%
X114712500Y-61927500D03*
X102712500Y-61927500D03*
D18*
X107462500Y-64787500D03*
X109962500Y-64787500D03*
X109962500Y-66787500D03*
D19*
X107462500Y-66787500D03*
%TD*%
D14*
%TO.C,C18*%
X128500000Y-90000000D03*
X128500000Y-92000000D03*
%TD*%
D20*
%TO.C,RV4*%
X82250000Y-78170000D03*
X84790000Y-80710000D03*
D21*
X82250000Y-83250000D03*
%TD*%
D19*
%TO.C,J5*%
X66240000Y-37500000D03*
D18*
X66240000Y-40000000D03*
X66240000Y-42000000D03*
X66240000Y-44500000D03*
D22*
X63530000Y-34430000D03*
X63530000Y-47570000D03*
%TD*%
%LPD*%
M02*
