%TF.GenerationSoftware,KiCad,Pcbnew,7.0.10*%
%TF.CreationDate,2024-01-19T17:56:23+01:00*%
%TF.ProjectId,Doodle Drive,446f6f64-6c65-4204-9472-6976652e6b69,1.0V*%
%TF.SameCoordinates,Original*%
%TF.FileFunction,Copper,L1,Top*%
%TF.FilePolarity,Positive*%
%FSLAX46Y46*%
G04 Gerber Fmt 4.6, Leading zero omitted, Abs format (unit mm)*
G04 Created by KiCad (PCBNEW 7.0.10) date 2024-01-19 17:56:23*
%MOMM*%
%LPD*%
G01*
G04 APERTURE LIST*
G04 Aperture macros list*
%AMRoundRect*
0 Rectangle with rounded corners*
0 $1 Rounding radius*
0 $2 $3 $4 $5 $6 $7 $8 $9 X,Y pos of 4 corners*
0 Add a 4 corners polygon primitive as box body*
4,1,4,$2,$3,$4,$5,$6,$7,$8,$9,$2,$3,0*
0 Add four circle primitives for the rounded corners*
1,1,$1+$1,$2,$3*
1,1,$1+$1,$4,$5*
1,1,$1+$1,$6,$7*
1,1,$1+$1,$8,$9*
0 Add four rect primitives between the rounded corners*
20,1,$1+$1,$2,$3,$4,$5,0*
20,1,$1+$1,$4,$5,$6,$7,0*
20,1,$1+$1,$6,$7,$8,$9,0*
20,1,$1+$1,$8,$9,$2,$3,0*%
G04 Aperture macros list end*
%TA.AperFunction,NonConductor*%
%ADD10C,0.000000*%
%TD*%
%ADD11C,0.300000*%
%TA.AperFunction,NonConductor*%
%ADD12C,0.300000*%
%TD*%
%ADD13C,0.150000*%
%TA.AperFunction,NonConductor*%
%ADD14C,0.150000*%
%TD*%
%TA.AperFunction,SMDPad,CuDef*%
%ADD15RoundRect,0.140000X-0.170000X0.140000X-0.170000X-0.140000X0.170000X-0.140000X0.170000X0.140000X0*%
%TD*%
%TA.AperFunction,SMDPad,CuDef*%
%ADD16RoundRect,0.140000X0.170000X-0.140000X0.170000X0.140000X-0.170000X0.140000X-0.170000X-0.140000X0*%
%TD*%
%TA.AperFunction,SMDPad,CuDef*%
%ADD17RoundRect,0.250000X-0.475000X0.250000X-0.475000X-0.250000X0.475000X-0.250000X0.475000X0.250000X0*%
%TD*%
%TA.AperFunction,SMDPad,CuDef*%
%ADD18RoundRect,0.250000X0.475000X-0.250000X0.475000X0.250000X-0.475000X0.250000X-0.475000X-0.250000X0*%
%TD*%
%TA.AperFunction,SMDPad,CuDef*%
%ADD19RoundRect,0.250000X-0.250000X-0.475000X0.250000X-0.475000X0.250000X0.475000X-0.250000X0.475000X0*%
%TD*%
%TA.AperFunction,SMDPad,CuDef*%
%ADD20RoundRect,0.250000X0.250000X0.475000X-0.250000X0.475000X-0.250000X-0.475000X0.250000X-0.475000X0*%
%TD*%
%TA.AperFunction,ComponentPad*%
%ADD21O,3.960000X1.980000*%
%TD*%
%TA.AperFunction,ComponentPad*%
%ADD22R,3.960000X1.980000*%
%TD*%
%TA.AperFunction,SMDPad,CuDef*%
%ADD23RoundRect,0.243750X0.243750X0.456250X-0.243750X0.456250X-0.243750X-0.456250X0.243750X-0.456250X0*%
%TD*%
%TA.AperFunction,SMDPad,CuDef*%
%ADD24RoundRect,0.059000X0.236000X0.626000X-0.236000X0.626000X-0.236000X-0.626000X0.236000X-0.626000X0*%
%TD*%
%TA.AperFunction,ComponentPad*%
%ADD25C,1.200000*%
%TD*%
%TA.AperFunction,SMDPad,CuDef*%
%ADD26RoundRect,0.250000X0.450000X-0.262500X0.450000X0.262500X-0.450000X0.262500X-0.450000X-0.262500X0*%
%TD*%
%TA.AperFunction,SMDPad,CuDef*%
%ADD27RoundRect,0.218750X0.218750X0.381250X-0.218750X0.381250X-0.218750X-0.381250X0.218750X-0.381250X0*%
%TD*%
%TA.AperFunction,SMDPad,CuDef*%
%ADD28RoundRect,0.250000X0.312500X0.625000X-0.312500X0.625000X-0.312500X-0.625000X0.312500X-0.625000X0*%
%TD*%
%TA.AperFunction,ComponentPad*%
%ADD29O,1.700000X1.700000*%
%TD*%
%TA.AperFunction,ComponentPad*%
%ADD30R,1.700000X1.700000*%
%TD*%
%TA.AperFunction,SMDPad,CuDef*%
%ADD31RoundRect,0.243750X-0.456250X0.243750X-0.456250X-0.243750X0.456250X-0.243750X0.456250X0.243750X0*%
%TD*%
%TA.AperFunction,ComponentPad*%
%ADD32C,4.000000*%
%TD*%
%TA.AperFunction,ComponentPad*%
%ADD33C,1.600000*%
%TD*%
%TA.AperFunction,ComponentPad*%
%ADD34R,1.600000X1.600000*%
%TD*%
%TA.AperFunction,ComponentPad*%
%ADD35C,1.217000*%
%TD*%
%TA.AperFunction,ComponentPad*%
%ADD36R,1.217000X1.217000*%
%TD*%
%TA.AperFunction,SMDPad,CuDef*%
%ADD37RoundRect,0.250000X-0.262500X-0.450000X0.262500X-0.450000X0.262500X0.450000X-0.262500X0.450000X0*%
%TD*%
%TA.AperFunction,SMDPad,CuDef*%
%ADD38RoundRect,0.250000X-0.450000X0.262500X-0.450000X-0.262500X0.450000X-0.262500X0.450000X0.262500X0*%
%TD*%
%TA.AperFunction,SMDPad,CuDef*%
%ADD39RoundRect,0.250000X0.262500X0.450000X-0.262500X0.450000X-0.262500X-0.450000X0.262500X-0.450000X0*%
%TD*%
%TA.AperFunction,SMDPad,CuDef*%
%ADD40RoundRect,0.250000X-0.312500X-0.625000X0.312500X-0.625000X0.312500X0.625000X-0.312500X0.625000X0*%
%TD*%
%TA.AperFunction,ComponentPad*%
%ADD41C,0.500000*%
%TD*%
%TA.AperFunction,SMDPad,CuDef*%
%ADD42R,3.400000X9.700000*%
%TD*%
%TA.AperFunction,SMDPad,CuDef*%
%ADD43R,1.600000X0.300000*%
%TD*%
%TA.AperFunction,SMDPad,CuDef*%
%ADD44R,1.000000X1.800000*%
%TD*%
%TA.AperFunction,SMDPad,CuDef*%
%ADD45R,1.000000X0.750000*%
%TD*%
%TA.AperFunction,SMDPad,CuDef*%
%ADD46RoundRect,0.075000X0.700000X-0.075000X0.700000X0.075000X-0.700000X0.075000X-0.700000X-0.075000X0*%
%TD*%
%TA.AperFunction,SMDPad,CuDef*%
%ADD47RoundRect,0.075000X0.075000X-0.700000X0.075000X0.700000X-0.075000X0.700000X-0.075000X-0.700000X0*%
%TD*%
%TA.AperFunction,SMDPad,CuDef*%
%ADD48R,1.200000X1.400000*%
%TD*%
%TA.AperFunction,SMDPad,CuDef*%
%ADD49R,3.400000X3.400000*%
%TD*%
%TA.AperFunction,SMDPad,CuDef*%
%ADD50R,1.000000X0.300000*%
%TD*%
%TA.AperFunction,SMDPad,CuDef*%
%ADD51R,0.300000X1.000000*%
%TD*%
%TA.AperFunction,ComponentPad*%
%ADD52C,3.000000*%
%TD*%
%TA.AperFunction,ViaPad*%
%ADD53C,0.600000*%
%TD*%
%TA.AperFunction,ViaPad*%
%ADD54C,1.000000*%
%TD*%
%TA.AperFunction,Conductor*%
%ADD55C,0.250000*%
%TD*%
%TA.AperFunction,Conductor*%
%ADD56C,0.500000*%
%TD*%
G04 APERTURE END LIST*
D10*
%TA.AperFunction,NonConductor*%
G36*
X115029741Y-75752845D02*
G01*
X115290540Y-75755525D01*
X115381976Y-75756996D01*
X115515723Y-75759147D01*
X115701509Y-75763638D01*
X115844114Y-75768921D01*
X115939757Y-75774922D01*
X115968785Y-75778169D01*
X115984654Y-75781567D01*
X116066093Y-75812523D01*
X116066093Y-76478194D01*
X116065606Y-76650002D01*
X116064067Y-76793476D01*
X116062868Y-76855204D01*
X116061363Y-76910586D01*
X116059539Y-76959869D01*
X116057382Y-77003299D01*
X116054876Y-77041122D01*
X116052009Y-77073584D01*
X116048765Y-77100930D01*
X116045131Y-77123408D01*
X116041092Y-77141263D01*
X116038917Y-77148534D01*
X116036634Y-77154741D01*
X116034244Y-77159915D01*
X116031744Y-77164088D01*
X116029132Y-77167289D01*
X116026406Y-77169550D01*
X115987000Y-77175037D01*
X115889484Y-77180788D01*
X115546033Y-77192402D01*
X115047878Y-77203027D01*
X114446844Y-77211301D01*
X113947453Y-77216692D01*
X113743696Y-77219198D01*
X113567470Y-77221736D01*
X113416453Y-77224424D01*
X113288324Y-77227381D01*
X113180761Y-77230726D01*
X113091444Y-77234578D01*
X113052902Y-77236731D01*
X113018050Y-77239055D01*
X112986600Y-77241566D01*
X112958259Y-77244277D01*
X112932740Y-77247204D01*
X112909750Y-77250361D01*
X112889000Y-77253764D01*
X112870200Y-77257428D01*
X112853059Y-77261366D01*
X112837288Y-77265594D01*
X112822597Y-77270127D01*
X112808694Y-77274980D01*
X112795291Y-77280167D01*
X112782096Y-77285703D01*
X112755172Y-77297884D01*
X112692140Y-77329046D01*
X112630910Y-77363063D01*
X112571547Y-77399868D01*
X112514113Y-77439394D01*
X112458671Y-77481574D01*
X112405285Y-77526342D01*
X112354018Y-77573629D01*
X112304933Y-77623368D01*
X112258093Y-77675494D01*
X112213561Y-77729938D01*
X112171400Y-77786634D01*
X112131674Y-77845514D01*
X112094446Y-77906512D01*
X112059778Y-77969560D01*
X112027735Y-78034591D01*
X111998379Y-78101539D01*
X111981581Y-78147395D01*
X111966821Y-78198102D01*
X111954111Y-78252997D01*
X111943462Y-78311414D01*
X111934887Y-78372688D01*
X111928398Y-78436154D01*
X111924009Y-78501147D01*
X111921730Y-78567002D01*
X111921575Y-78633055D01*
X111923556Y-78698640D01*
X111927684Y-78763092D01*
X111933973Y-78825746D01*
X111942435Y-78885938D01*
X111953082Y-78943001D01*
X111965926Y-78996273D01*
X111980980Y-79045086D01*
X112008119Y-79115996D01*
X112039681Y-79186026D01*
X112075395Y-79254887D01*
X112114991Y-79322291D01*
X112158196Y-79387947D01*
X112204740Y-79451567D01*
X112254351Y-79512861D01*
X112306759Y-79571540D01*
X112361691Y-79627315D01*
X112418877Y-79679896D01*
X112478045Y-79728994D01*
X112538925Y-79774320D01*
X112601244Y-79815584D01*
X112664732Y-79852498D01*
X112729118Y-79884771D01*
X112794129Y-79912115D01*
X112851097Y-79931184D01*
X112919251Y-79945847D01*
X113013953Y-79956683D01*
X113150566Y-79964276D01*
X113344453Y-79969206D01*
X113610976Y-79972055D01*
X114423380Y-79973837D01*
X114808910Y-79974427D01*
X115129095Y-79976025D01*
X115381976Y-79978693D01*
X115389166Y-79978769D01*
X115594352Y-79982794D01*
X115749883Y-79988238D01*
X115810662Y-79991534D01*
X115860989Y-79995237D01*
X115901516Y-79999362D01*
X115932899Y-80003927D01*
X115955790Y-80008949D01*
X115970844Y-80014445D01*
X116050219Y-80054609D01*
X116050219Y-81384363D01*
X115970844Y-81425955D01*
X115933378Y-81437114D01*
X115863456Y-81445896D01*
X115753743Y-81452435D01*
X115596904Y-81456871D01*
X115112508Y-81459977D01*
X114351593Y-81456308D01*
X113863068Y-81452484D01*
X113486183Y-81448495D01*
X113333960Y-81446183D01*
X113202873Y-81443525D01*
X113090664Y-81440419D01*
X112995075Y-81436761D01*
X112913848Y-81432452D01*
X112844724Y-81427389D01*
X112785447Y-81421469D01*
X112733757Y-81414593D01*
X112687398Y-81406656D01*
X112644110Y-81397558D01*
X112601636Y-81387198D01*
X112557718Y-81375472D01*
X112411085Y-81331149D01*
X112268105Y-81279633D01*
X112128960Y-81221076D01*
X111993833Y-81155627D01*
X111862905Y-81083436D01*
X111736358Y-81004653D01*
X111614375Y-80919429D01*
X111497137Y-80827912D01*
X111384991Y-80730395D01*
X114954498Y-80730395D01*
X114957630Y-80885699D01*
X114965144Y-81022436D01*
X114970516Y-81078631D01*
X114976947Y-81123932D01*
X114984428Y-81156253D01*
X114988557Y-81166895D01*
X114992944Y-81173510D01*
X114999156Y-81178166D01*
X115008181Y-81182513D01*
X115020032Y-81186553D01*
X115034724Y-81190286D01*
X115072680Y-81196839D01*
X115122158Y-81202180D01*
X115183266Y-81206319D01*
X115256111Y-81209265D01*
X115340801Y-81211025D01*
X115437444Y-81211610D01*
X115843843Y-81211610D01*
X115843843Y-80722882D01*
X115843750Y-80648742D01*
X115843441Y-80582184D01*
X115842876Y-80522795D01*
X115842014Y-80470160D01*
X115840814Y-80423867D01*
X115839236Y-80383501D01*
X115838292Y-80365412D01*
X115837238Y-80348650D01*
X115836068Y-80333163D01*
X115834779Y-80318900D01*
X115833364Y-80305808D01*
X115831819Y-80293836D01*
X115830138Y-80282932D01*
X115828316Y-80273046D01*
X115826348Y-80264124D01*
X115824230Y-80256115D01*
X115821955Y-80248968D01*
X115819519Y-80242631D01*
X115816917Y-80237052D01*
X115814143Y-80232179D01*
X115811193Y-80227961D01*
X115808061Y-80224346D01*
X115804743Y-80221282D01*
X115801232Y-80218719D01*
X115797525Y-80216603D01*
X115793615Y-80214883D01*
X115786624Y-80212919D01*
X115776150Y-80211010D01*
X115745598Y-80207398D01*
X115703646Y-80204125D01*
X115651982Y-80201270D01*
X115592296Y-80198912D01*
X115526274Y-80197130D01*
X115381976Y-80195610D01*
X115324348Y-80195693D01*
X115272994Y-80195985D01*
X115227513Y-80196548D01*
X115187502Y-80197445D01*
X115169423Y-80198038D01*
X115152560Y-80198737D01*
X115136864Y-80199552D01*
X115122285Y-80200489D01*
X115108771Y-80201557D01*
X115096274Y-80202762D01*
X115084741Y-80204114D01*
X115074124Y-80205619D01*
X115064372Y-80207287D01*
X115055435Y-80209123D01*
X115047262Y-80211137D01*
X115039803Y-80213336D01*
X115033009Y-80215728D01*
X115026827Y-80218321D01*
X115021209Y-80221123D01*
X115016105Y-80224141D01*
X115011463Y-80227383D01*
X115007233Y-80230857D01*
X115003366Y-80234571D01*
X114999811Y-80238533D01*
X114996517Y-80242751D01*
X114993435Y-80247231D01*
X114990514Y-80251983D01*
X114987705Y-80257014D01*
X114979428Y-80281365D01*
X114972353Y-80319834D01*
X114966470Y-80370336D01*
X114961765Y-80430788D01*
X114955845Y-80573200D01*
X114954498Y-80730395D01*
X111384991Y-80730395D01*
X111384827Y-80730252D01*
X111277626Y-80626601D01*
X111175716Y-80517108D01*
X111079279Y-80401922D01*
X110988498Y-80281194D01*
X110903554Y-80155073D01*
X110824629Y-80023710D01*
X110751906Y-79887254D01*
X110687147Y-79748885D01*
X110630388Y-79608784D01*
X110581530Y-79467227D01*
X110540474Y-79324491D01*
X110507119Y-79180851D01*
X110481368Y-79036585D01*
X110463121Y-78891970D01*
X110452278Y-78747281D01*
X110448741Y-78602795D01*
X110452411Y-78458790D01*
X110463188Y-78315541D01*
X110480973Y-78173325D01*
X110505668Y-78032419D01*
X110537172Y-77893099D01*
X110575388Y-77755642D01*
X110620215Y-77620324D01*
X110671554Y-77487422D01*
X110729307Y-77357213D01*
X110793374Y-77229973D01*
X110863656Y-77105978D01*
X110940055Y-76985506D01*
X111022470Y-76868833D01*
X111110802Y-76756234D01*
X111204953Y-76647988D01*
X111248609Y-76602694D01*
X114955578Y-76602694D01*
X114958446Y-76738340D01*
X114964886Y-76848266D01*
X114969508Y-76889159D01*
X114975100Y-76918312D01*
X114982490Y-76941844D01*
X114987275Y-76951363D01*
X114993599Y-76959501D01*
X115002070Y-76966349D01*
X115013298Y-76971993D01*
X115027892Y-76976524D01*
X115046462Y-76980030D01*
X115069616Y-76982599D01*
X115097963Y-76984321D01*
X115172673Y-76985575D01*
X115275467Y-76984502D01*
X115411217Y-76981812D01*
X115827968Y-76972986D01*
X115836700Y-76492513D01*
X115837968Y-76418322D01*
X115838888Y-76351924D01*
X115839425Y-76292876D01*
X115839540Y-76240736D01*
X115839196Y-76195059D01*
X115838356Y-76155403D01*
X115837738Y-76137694D01*
X115836982Y-76121324D01*
X115836083Y-76106238D01*
X115835037Y-76092379D01*
X115833839Y-76079694D01*
X115832484Y-76068125D01*
X115830967Y-76057619D01*
X115829285Y-76048119D01*
X115827431Y-76039569D01*
X115825403Y-76031916D01*
X115823194Y-76025103D01*
X115820800Y-76019074D01*
X115818217Y-76013775D01*
X115815440Y-76009150D01*
X115812465Y-76005144D01*
X115809285Y-76001700D01*
X115805898Y-75998765D01*
X115802298Y-75996282D01*
X115798480Y-75994195D01*
X115794441Y-75992451D01*
X115787367Y-75990457D01*
X115776813Y-75988519D01*
X115746107Y-75984849D01*
X115704015Y-75981522D01*
X115652228Y-75978619D01*
X115592440Y-75976221D01*
X115526340Y-75974408D01*
X115455622Y-75973261D01*
X115381976Y-75972861D01*
X115324348Y-75972944D01*
X115272994Y-75973236D01*
X115227513Y-75973799D01*
X115187502Y-75974695D01*
X115169423Y-75975288D01*
X115152560Y-75975988D01*
X115136864Y-75976803D01*
X115122285Y-75977740D01*
X115108771Y-75978807D01*
X115096274Y-75980013D01*
X115084741Y-75981364D01*
X115074124Y-75982870D01*
X115064372Y-75984537D01*
X115055435Y-75986374D01*
X115047262Y-75988388D01*
X115039803Y-75990587D01*
X115033009Y-75992979D01*
X115026827Y-75995572D01*
X115021209Y-75998373D01*
X115016105Y-76001391D01*
X115011463Y-76004633D01*
X115007233Y-76008108D01*
X115003366Y-76011822D01*
X114999811Y-76015784D01*
X114996517Y-76020001D01*
X114993435Y-76024482D01*
X114990514Y-76029234D01*
X114987705Y-76034265D01*
X114981425Y-76053668D01*
X114975759Y-76086111D01*
X114966371Y-76183037D01*
X114959743Y-76310883D01*
X114956078Y-76455489D01*
X114955578Y-76602694D01*
X111248609Y-76602694D01*
X111304824Y-76544370D01*
X111410314Y-76445658D01*
X111521326Y-76352127D01*
X111637760Y-76264054D01*
X111759517Y-76181716D01*
X111886497Y-76105389D01*
X112018601Y-76035351D01*
X112155731Y-75971876D01*
X112325467Y-75901622D01*
X112481422Y-75848042D01*
X112561422Y-75826802D01*
X112646607Y-75808886D01*
X112739853Y-75794013D01*
X112844036Y-75781900D01*
X113096720Y-75764832D01*
X113427672Y-75755430D01*
X113859903Y-75751440D01*
X114416427Y-75750611D01*
X115029741Y-75752845D01*
G37*
%TD.AperFunction*%
%TA.AperFunction,NonConductor*%
G36*
X121237184Y-70416656D02*
G01*
X121376609Y-70417147D01*
X121506601Y-70418803D01*
X121615505Y-70421651D01*
X121662425Y-70423544D01*
X121704524Y-70425763D01*
X121741952Y-70428316D01*
X121774861Y-70431212D01*
X121803399Y-70434460D01*
X121827718Y-70438069D01*
X121847967Y-70442049D01*
X121864298Y-70446407D01*
X121876860Y-70451154D01*
X121881775Y-70453676D01*
X121885805Y-70456298D01*
X121894079Y-70463548D01*
X121901508Y-70472754D01*
X121908148Y-70484552D01*
X121914054Y-70499577D01*
X121919284Y-70518464D01*
X121923892Y-70541848D01*
X121931469Y-70604646D01*
X121937234Y-70693054D01*
X121941633Y-70812151D01*
X121948130Y-71162736D01*
X121957481Y-71860488D01*
X121961033Y-72140311D01*
X121963738Y-72378649D01*
X121965522Y-72578913D01*
X121966046Y-72665833D01*
X121966313Y-72744515D01*
X121966312Y-72815385D01*
X121966036Y-72878868D01*
X121965475Y-72935393D01*
X121964620Y-72985384D01*
X121963462Y-73029270D01*
X121961991Y-73067476D01*
X121960198Y-73100428D01*
X121959178Y-73115068D01*
X121958074Y-73128554D01*
X121956886Y-73140940D01*
X121955611Y-73152280D01*
X121954249Y-73162626D01*
X121952798Y-73172032D01*
X121951258Y-73180551D01*
X121949628Y-73188237D01*
X121947905Y-73195142D01*
X121946089Y-73201321D01*
X121944180Y-73206826D01*
X121942175Y-73211711D01*
X121940073Y-73216030D01*
X121937874Y-73219834D01*
X121935576Y-73223179D01*
X121933179Y-73226116D01*
X121930680Y-73228700D01*
X121928079Y-73230983D01*
X121925375Y-73233020D01*
X121922566Y-73234862D01*
X121916631Y-73238180D01*
X121903458Y-73244837D01*
X121578997Y-73260847D01*
X120592342Y-73268114D01*
X116093589Y-73257601D01*
X113051831Y-73243524D01*
X112040897Y-73236886D01*
X111310797Y-73229780D01*
X110817183Y-73221653D01*
X110645201Y-73217034D01*
X110515709Y-73211952D01*
X110423165Y-73206340D01*
X110362026Y-73200127D01*
X110326748Y-73193244D01*
X110317074Y-73189531D01*
X110311787Y-73185624D01*
X110306523Y-73177309D01*
X110301679Y-73165436D01*
X110297243Y-73149825D01*
X110293204Y-73130293D01*
X110286273Y-73078745D01*
X110280800Y-73009344D01*
X110276695Y-72920641D01*
X110273872Y-72811188D01*
X110272243Y-72679537D01*
X110272189Y-72663571D01*
X110478131Y-72663571D01*
X110480818Y-72801884D01*
X110487149Y-72909294D01*
X110491757Y-72946435D01*
X110497366Y-72969882D01*
X110501099Y-72977426D01*
X110506430Y-72984201D01*
X110513706Y-72990246D01*
X110523269Y-72995599D01*
X110535464Y-73000300D01*
X110550637Y-73004388D01*
X110569131Y-73007901D01*
X110591290Y-73010880D01*
X110647984Y-73015386D01*
X110723474Y-73018219D01*
X110820516Y-73019690D01*
X110941866Y-73020111D01*
X111367093Y-73020111D01*
X111367093Y-72609965D01*
X111367400Y-72526710D01*
X111368279Y-72447371D01*
X111369669Y-72373805D01*
X111371507Y-72307867D01*
X111373732Y-72251414D01*
X111376283Y-72206302D01*
X111379096Y-72174388D01*
X111380583Y-72163960D01*
X111382112Y-72157527D01*
X111383472Y-72152928D01*
X111384465Y-72147893D01*
X111385097Y-72142472D01*
X111385379Y-72136714D01*
X111385320Y-72130671D01*
X111384927Y-72124392D01*
X111384211Y-72117927D01*
X111383179Y-72111327D01*
X111381841Y-72104641D01*
X111380206Y-72097921D01*
X111378282Y-72091216D01*
X111376079Y-72084576D01*
X111373605Y-72078051D01*
X111370870Y-72071693D01*
X111367881Y-72065550D01*
X111364649Y-72059673D01*
X111358972Y-72051107D01*
X111352253Y-72043448D01*
X111344115Y-72036649D01*
X111334181Y-72030659D01*
X111322075Y-72025430D01*
X111307422Y-72020913D01*
X111289844Y-72017059D01*
X111268967Y-72013818D01*
X111244412Y-72011143D01*
X111215806Y-72008983D01*
X111144929Y-72006015D01*
X111053328Y-72004522D01*
X110937992Y-72004111D01*
X110874656Y-72004189D01*
X110818303Y-72004467D01*
X110768486Y-72005008D01*
X110724754Y-72005879D01*
X110705029Y-72006457D01*
X110686657Y-72007142D01*
X110669582Y-72007942D01*
X110653747Y-72008864D01*
X110639095Y-72009917D01*
X110625572Y-72011109D01*
X110613121Y-72012448D01*
X110601685Y-72013942D01*
X110591208Y-72015598D01*
X110581634Y-72017426D01*
X110572907Y-72019433D01*
X110564971Y-72021628D01*
X110557770Y-72024018D01*
X110551246Y-72026611D01*
X110545345Y-72029416D01*
X110540010Y-72032440D01*
X110535184Y-72035693D01*
X110530812Y-72039181D01*
X110526837Y-72042913D01*
X110523203Y-72046897D01*
X110519855Y-72051141D01*
X110516734Y-72055654D01*
X110513787Y-72060442D01*
X110510955Y-72065515D01*
X110504699Y-72085480D01*
X110499024Y-72119603D01*
X110489535Y-72222369D01*
X110482730Y-72357897D01*
X110478848Y-72510269D01*
X110478131Y-72663571D01*
X110272189Y-72663571D01*
X110271719Y-72524240D01*
X110272082Y-72340578D01*
X110272621Y-72263759D01*
X110273473Y-72196065D01*
X110274693Y-72136833D01*
X110276338Y-72085402D01*
X110278465Y-72041110D01*
X110279726Y-72021433D01*
X110281129Y-72003293D01*
X110282680Y-71986607D01*
X110284386Y-71971291D01*
X110286255Y-71957263D01*
X110288293Y-71944440D01*
X110290508Y-71932740D01*
X110292906Y-71922079D01*
X110295494Y-71912376D01*
X110298280Y-71903546D01*
X110301271Y-71895507D01*
X110304473Y-71888177D01*
X110307894Y-71881473D01*
X110311540Y-71875312D01*
X110315418Y-71869611D01*
X110319537Y-71864287D01*
X110323902Y-71859258D01*
X110328520Y-71854441D01*
X110366225Y-71836514D01*
X110472632Y-71822806D01*
X110937992Y-71810032D01*
X111094326Y-71805741D01*
X115392644Y-71796879D01*
X118939865Y-71794172D01*
X120436735Y-71788941D01*
X120441455Y-71785890D01*
X120445906Y-71778536D01*
X120450095Y-71766777D01*
X120454030Y-71750508D01*
X120461171Y-71704033D01*
X120467393Y-71638284D01*
X120472760Y-71552435D01*
X120477334Y-71445662D01*
X120484360Y-71166038D01*
X120485461Y-71109991D01*
X120701462Y-71109991D01*
X120704569Y-71242064D01*
X120707763Y-71303108D01*
X120712036Y-71358535D01*
X120717377Y-71406630D01*
X120723775Y-71445677D01*
X120731217Y-71473959D01*
X120735327Y-71483527D01*
X120739693Y-71489761D01*
X120745700Y-71493452D01*
X120756010Y-71496997D01*
X120788442Y-71503628D01*
X120834781Y-71509609D01*
X120892822Y-71514897D01*
X121035187Y-71523224D01*
X121197889Y-71528262D01*
X121363281Y-71529663D01*
X121513714Y-71527083D01*
X121631541Y-71520173D01*
X121672713Y-71514987D01*
X121699115Y-71508589D01*
X121706627Y-71504897D01*
X121713379Y-71499670D01*
X121719407Y-71492584D01*
X121724751Y-71483320D01*
X121729448Y-71471556D01*
X121733536Y-71456970D01*
X121737055Y-71439242D01*
X121740040Y-71418050D01*
X121744568Y-71363989D01*
X121747424Y-71292218D01*
X121748914Y-71200167D01*
X121749343Y-71085266D01*
X121748911Y-71003661D01*
X121747673Y-70926697D01*
X121745715Y-70856117D01*
X121743124Y-70793666D01*
X121739987Y-70741089D01*
X121736391Y-70700129D01*
X121734447Y-70684550D01*
X121732421Y-70672530D01*
X121730324Y-70664287D01*
X121729252Y-70661650D01*
X121728166Y-70660038D01*
X121723576Y-70657880D01*
X121714330Y-70655783D01*
X121682883Y-70651814D01*
X121635838Y-70648217D01*
X121575210Y-70645080D01*
X121421270Y-70640531D01*
X121237184Y-70638861D01*
X121160670Y-70638930D01*
X121092775Y-70639184D01*
X121032942Y-70639690D01*
X120980610Y-70640517D01*
X120957083Y-70641072D01*
X120935222Y-70641733D01*
X120914958Y-70642507D01*
X120896219Y-70643405D01*
X120878938Y-70644434D01*
X120863043Y-70645603D01*
X120848465Y-70646920D01*
X120835134Y-70648394D01*
X120822980Y-70650033D01*
X120811934Y-70651847D01*
X120801925Y-70653842D01*
X120792884Y-70656029D01*
X120784740Y-70658415D01*
X120777425Y-70661009D01*
X120770868Y-70663820D01*
X120765000Y-70666856D01*
X120759750Y-70670125D01*
X120755049Y-70673636D01*
X120750827Y-70677398D01*
X120747013Y-70681419D01*
X120743539Y-70685708D01*
X120740335Y-70690273D01*
X120737330Y-70695123D01*
X120734455Y-70700265D01*
X120726238Y-70723088D01*
X120719213Y-70757455D01*
X120713369Y-70801650D01*
X120708694Y-70853958D01*
X120702807Y-70976047D01*
X120701462Y-71109991D01*
X120485461Y-71109991D01*
X120488000Y-70980666D01*
X120489916Y-70903178D01*
X120491993Y-70834903D01*
X120494303Y-70775153D01*
X120496918Y-70723237D01*
X120499909Y-70678468D01*
X120503350Y-70640155D01*
X120505262Y-70623204D01*
X120507312Y-70607610D01*
X120509511Y-70593285D01*
X120511868Y-70580144D01*
X120514391Y-70568100D01*
X120517089Y-70557067D01*
X120519972Y-70546960D01*
X120523048Y-70537692D01*
X120526326Y-70529176D01*
X120529816Y-70521327D01*
X120533527Y-70514059D01*
X120537467Y-70507286D01*
X120541645Y-70500920D01*
X120546071Y-70494877D01*
X120550754Y-70489070D01*
X120555702Y-70483413D01*
X120577233Y-70462320D01*
X120589233Y-70453680D01*
X120603167Y-70446200D01*
X120619867Y-70439796D01*
X120640167Y-70434385D01*
X120664898Y-70429885D01*
X120694894Y-70426211D01*
X120774011Y-70421013D01*
X120884180Y-70418124D01*
X121224325Y-70416611D01*
X121237184Y-70416656D01*
G37*
%TD.AperFunction*%
%TA.AperFunction,NonConductor*%
G36*
X118760212Y-75783440D02*
G01*
X118992620Y-75784755D01*
X119196410Y-75787110D01*
X119374494Y-75790780D01*
X119529786Y-75796036D01*
X119665200Y-75803153D01*
X119783649Y-75812404D01*
X119888047Y-75824062D01*
X119981307Y-75838401D01*
X120066344Y-75855694D01*
X120146069Y-75876215D01*
X120223397Y-75900236D01*
X120301242Y-75928031D01*
X120382517Y-75959874D01*
X120470136Y-75996038D01*
X120625465Y-76066945D01*
X120775235Y-76147156D01*
X120919191Y-76236359D01*
X121057082Y-76334240D01*
X121188654Y-76440487D01*
X121313657Y-76554788D01*
X121431836Y-76676829D01*
X121542940Y-76806298D01*
X121646716Y-76942883D01*
X121742912Y-77086270D01*
X121831275Y-77236148D01*
X121911552Y-77392204D01*
X121983492Y-77554124D01*
X122046841Y-77721597D01*
X122101347Y-77894309D01*
X122146758Y-78071948D01*
X122157130Y-78126829D01*
X122165718Y-78191000D01*
X122172554Y-78263134D01*
X122177669Y-78341900D01*
X122182868Y-78514011D01*
X122181572Y-78696701D01*
X122174036Y-78879334D01*
X122160519Y-79051276D01*
X122151597Y-79129915D01*
X122141275Y-79201893D01*
X122129587Y-79265881D01*
X122116564Y-79320549D01*
X122057233Y-79512913D01*
X121987455Y-79698456D01*
X121907527Y-79876870D01*
X121817748Y-80047849D01*
X121718417Y-80211088D01*
X121609832Y-80366279D01*
X121492293Y-80513117D01*
X121366097Y-80651295D01*
X121231544Y-80780506D01*
X121088932Y-80900446D01*
X120938560Y-81010806D01*
X120780727Y-81111281D01*
X120615731Y-81201565D01*
X120443871Y-81281352D01*
X120265446Y-81350334D01*
X120080754Y-81408206D01*
X119994635Y-81430733D01*
X119906591Y-81447863D01*
X119797196Y-81460357D01*
X119647025Y-81468976D01*
X119436653Y-81474481D01*
X119146655Y-81477635D01*
X118250081Y-81479929D01*
X117758771Y-81480151D01*
X117556341Y-81479920D01*
X117380167Y-81479376D01*
X117228328Y-81478452D01*
X117098904Y-81477085D01*
X116989974Y-81475210D01*
X116899618Y-81472762D01*
X116860805Y-81471303D01*
X116825915Y-81469676D01*
X116794708Y-81467873D01*
X116766944Y-81465887D01*
X116742384Y-81463710D01*
X116720786Y-81461332D01*
X116701911Y-81458746D01*
X116685519Y-81455944D01*
X116671370Y-81452918D01*
X116659223Y-81449660D01*
X116648839Y-81446161D01*
X116639977Y-81442414D01*
X116632398Y-81438411D01*
X116625862Y-81434142D01*
X116620128Y-81429601D01*
X116614956Y-81424780D01*
X116605983Y-81414929D01*
X116597996Y-81403888D01*
X116590938Y-81390989D01*
X116584753Y-81375568D01*
X116579385Y-81356957D01*
X116574777Y-81334491D01*
X116570874Y-81307504D01*
X116567620Y-81275329D01*
X116562835Y-81192751D01*
X116559971Y-81081429D01*
X116558282Y-80763237D01*
X116764593Y-80763237D01*
X116765173Y-80934985D01*
X116767042Y-81004161D01*
X116770981Y-81063262D01*
X116773966Y-81089283D01*
X116777754Y-81113081D01*
X116782441Y-81134758D01*
X116788122Y-81154411D01*
X116794893Y-81172139D01*
X116802850Y-81188042D01*
X116812087Y-81202219D01*
X116822699Y-81214769D01*
X116834783Y-81225791D01*
X116848434Y-81235384D01*
X116863747Y-81243647D01*
X116880817Y-81250679D01*
X116899740Y-81256579D01*
X116920611Y-81261446D01*
X116943525Y-81265379D01*
X116968578Y-81268478D01*
X117025483Y-81272569D01*
X117092088Y-81274509D01*
X117257448Y-81275110D01*
X117299652Y-81274957D01*
X117339551Y-81274501D01*
X117377129Y-81273741D01*
X117412370Y-81272680D01*
X117445259Y-81271319D01*
X117475780Y-81269660D01*
X117503917Y-81267705D01*
X117529653Y-81265454D01*
X117552974Y-81262910D01*
X117573863Y-81260074D01*
X117592305Y-81256947D01*
X117608283Y-81253532D01*
X117621781Y-81249829D01*
X117632785Y-81245840D01*
X117637346Y-81243739D01*
X117641278Y-81241567D01*
X117644577Y-81239324D01*
X117647243Y-81237010D01*
X117651982Y-81230554D01*
X117656392Y-81220963D01*
X117660474Y-81208195D01*
X117664233Y-81192202D01*
X117670795Y-81150366D01*
X117676104Y-81095093D01*
X117680186Y-81026021D01*
X117683069Y-80942791D01*
X117684779Y-80845041D01*
X117685343Y-80732408D01*
X117685248Y-80661855D01*
X117684934Y-80598478D01*
X117684362Y-80541888D01*
X117683491Y-80491695D01*
X117682282Y-80447510D01*
X117680694Y-80408944D01*
X117679745Y-80391646D01*
X117678686Y-80375607D01*
X117677513Y-80360778D01*
X117676219Y-80347110D01*
X117674801Y-80334554D01*
X117673253Y-80323063D01*
X117671569Y-80312587D01*
X117669746Y-80303077D01*
X117667778Y-80294485D01*
X117665659Y-80286762D01*
X117663386Y-80279860D01*
X117660952Y-80273730D01*
X117658353Y-80268323D01*
X117655584Y-80263590D01*
X117652640Y-80259483D01*
X117649516Y-80255954D01*
X117646206Y-80252952D01*
X117642706Y-80250431D01*
X117639011Y-80248340D01*
X117635115Y-80246632D01*
X117628042Y-80244669D01*
X117617326Y-80242760D01*
X117585845Y-80239148D01*
X117542425Y-80235875D01*
X117488819Y-80233020D01*
X117358062Y-80228881D01*
X117207601Y-80227361D01*
X117147205Y-80227441D01*
X117093428Y-80227727D01*
X117045844Y-80228279D01*
X117004030Y-80229164D01*
X116985153Y-80229750D01*
X116967558Y-80230443D01*
X116951194Y-80231251D01*
X116936005Y-80232181D01*
X116921940Y-80233241D01*
X116908946Y-80234441D01*
X116896968Y-80235786D01*
X116885954Y-80237286D01*
X116875851Y-80238948D01*
X116866605Y-80240781D01*
X116858164Y-80242792D01*
X116850474Y-80244989D01*
X116843482Y-80247380D01*
X116837136Y-80249973D01*
X116831381Y-80252776D01*
X116826165Y-80255797D01*
X116821435Y-80259044D01*
X116817137Y-80262525D01*
X116813218Y-80266247D01*
X116809626Y-80270219D01*
X116806306Y-80274449D01*
X116803207Y-80278945D01*
X116800274Y-80283714D01*
X116797455Y-80288765D01*
X116794109Y-80297165D01*
X116790856Y-80309534D01*
X116784699Y-80345207D01*
X116779118Y-80393838D01*
X116774249Y-80453480D01*
X116770227Y-80522187D01*
X116767187Y-80598013D01*
X116765264Y-80679012D01*
X116764593Y-80763237D01*
X116558282Y-80763237D01*
X116558218Y-80751235D01*
X116558582Y-80566545D01*
X116559120Y-80489286D01*
X116559970Y-80421198D01*
X116561189Y-80361617D01*
X116562831Y-80309879D01*
X116564954Y-80265319D01*
X116566213Y-80245524D01*
X116567613Y-80227273D01*
X116569160Y-80210486D01*
X116570863Y-80195077D01*
X116572728Y-80180965D01*
X116574762Y-80168066D01*
X116576971Y-80156298D01*
X116579364Y-80145576D01*
X116581947Y-80135819D01*
X116584726Y-80126943D01*
X116587710Y-80118865D01*
X116590904Y-80111502D01*
X116594317Y-80104772D01*
X116597954Y-80098590D01*
X116601823Y-80092874D01*
X116605931Y-80087541D01*
X116610285Y-80082507D01*
X116614892Y-80077691D01*
X116640174Y-80060124D01*
X116686427Y-80046299D01*
X116768199Y-80035558D01*
X116900039Y-80027245D01*
X117096494Y-80020700D01*
X117207601Y-80018511D01*
X117372112Y-80015268D01*
X118219029Y-80005111D01*
X119766492Y-79989236D01*
X119979852Y-79884143D01*
X120007022Y-79870405D01*
X120033407Y-79856331D01*
X120059041Y-79841892D01*
X120083962Y-79827063D01*
X120108205Y-79811815D01*
X120131806Y-79796120D01*
X120154801Y-79779952D01*
X120177226Y-79763283D01*
X120199116Y-79746085D01*
X120220508Y-79728330D01*
X120241438Y-79709992D01*
X120261941Y-79691043D01*
X120282053Y-79671455D01*
X120301811Y-79651201D01*
X120321249Y-79630253D01*
X120340405Y-79608584D01*
X120395301Y-79543053D01*
X120445552Y-79478891D01*
X120491276Y-79415774D01*
X120532591Y-79353377D01*
X120569614Y-79291375D01*
X120602464Y-79229445D01*
X120631259Y-79167260D01*
X120656116Y-79104498D01*
X120677152Y-79040833D01*
X120694487Y-78975941D01*
X120708236Y-78909497D01*
X120718520Y-78841176D01*
X120725454Y-78770655D01*
X120729158Y-78697609D01*
X120729748Y-78621713D01*
X120727343Y-78542642D01*
X120722603Y-78459754D01*
X120719749Y-78423254D01*
X120716422Y-78389450D01*
X120712507Y-78357890D01*
X120707890Y-78328125D01*
X120702460Y-78299703D01*
X120696101Y-78272176D01*
X120688700Y-78245091D01*
X120680144Y-78217999D01*
X120670318Y-78190450D01*
X120659111Y-78161992D01*
X120646407Y-78132176D01*
X120632094Y-78100550D01*
X120598183Y-78030070D01*
X120569092Y-77973682D01*
X120538556Y-77919326D01*
X120506569Y-77866993D01*
X120473124Y-77816676D01*
X120438212Y-77768368D01*
X120401827Y-77722061D01*
X120363961Y-77677746D01*
X120324606Y-77635418D01*
X120283755Y-77595067D01*
X120241400Y-77556686D01*
X120197534Y-77520269D01*
X120152150Y-77485806D01*
X120105240Y-77453290D01*
X120056796Y-77422715D01*
X120006811Y-77394071D01*
X119955278Y-77367352D01*
X119734679Y-77258736D01*
X118241698Y-77250894D01*
X117656792Y-77246631D01*
X117167894Y-77240864D01*
X116826151Y-77234342D01*
X116726446Y-77231031D01*
X116682710Y-77227811D01*
X116661863Y-77221585D01*
X116643106Y-77212652D01*
X116626334Y-77200486D01*
X116611446Y-77184563D01*
X116598339Y-77164356D01*
X116586910Y-77139339D01*
X116577056Y-77108988D01*
X116568676Y-77072776D01*
X116561666Y-77030178D01*
X116555924Y-76980668D01*
X116551346Y-76923720D01*
X116547832Y-76858810D01*
X116543578Y-76702996D01*
X116543141Y-76634436D01*
X116765320Y-76634436D01*
X116768183Y-76770076D01*
X116774615Y-76879994D01*
X116779232Y-76920883D01*
X116784818Y-76950030D01*
X116792225Y-76973599D01*
X116797061Y-76983128D01*
X116803498Y-76991273D01*
X116812172Y-76998123D01*
X116823718Y-77003768D01*
X116838771Y-77008295D01*
X116857966Y-77011796D01*
X116881938Y-77014359D01*
X116911322Y-77016072D01*
X116988866Y-77017311D01*
X117095679Y-77016225D01*
X117236843Y-77013530D01*
X117669468Y-77004736D01*
X117678200Y-76524263D01*
X117679467Y-76450072D01*
X117680388Y-76383674D01*
X117680925Y-76324626D01*
X117681040Y-76272486D01*
X117680696Y-76226809D01*
X117679855Y-76187153D01*
X117679238Y-76169444D01*
X117678482Y-76153074D01*
X117677583Y-76137988D01*
X117676537Y-76124130D01*
X117675338Y-76111444D01*
X117673983Y-76099875D01*
X117672467Y-76089369D01*
X117670784Y-76079869D01*
X117668931Y-76071319D01*
X117666903Y-76063666D01*
X117664694Y-76056853D01*
X117662300Y-76050824D01*
X117659717Y-76045525D01*
X117656940Y-76040900D01*
X117653964Y-76036894D01*
X117650785Y-76033450D01*
X117647398Y-76030515D01*
X117643797Y-76028032D01*
X117639980Y-76025945D01*
X117635940Y-76024201D01*
X117628784Y-76022207D01*
X117617988Y-76020269D01*
X117586354Y-76016599D01*
X117542794Y-76013272D01*
X117489065Y-76010369D01*
X117358129Y-76006158D01*
X117207601Y-76004611D01*
X117147205Y-76004691D01*
X117093428Y-76004977D01*
X117045844Y-76005530D01*
X117004030Y-76006414D01*
X116985153Y-76007000D01*
X116967558Y-76007693D01*
X116951194Y-76008501D01*
X116936005Y-76009431D01*
X116921940Y-76010492D01*
X116908946Y-76011691D01*
X116896968Y-76013037D01*
X116885954Y-76014536D01*
X116875851Y-76016199D01*
X116866605Y-76018031D01*
X116858164Y-76020042D01*
X116850474Y-76022239D01*
X116843482Y-76024630D01*
X116837136Y-76027223D01*
X116831381Y-76030026D01*
X116826165Y-76033047D01*
X116821435Y-76036294D01*
X116817137Y-76039775D01*
X116813218Y-76043498D01*
X116809626Y-76047470D01*
X116806306Y-76051700D01*
X116803207Y-76056196D01*
X116800274Y-76060965D01*
X116797455Y-76066015D01*
X116791175Y-76085418D01*
X116785509Y-76117861D01*
X116776121Y-76214787D01*
X116769491Y-76342631D01*
X116765824Y-76487234D01*
X116765320Y-76634436D01*
X116543141Y-76634436D01*
X116542343Y-76509023D01*
X116542569Y-76415394D01*
X116543299Y-76330775D01*
X116544611Y-76254656D01*
X116546584Y-76186527D01*
X116549296Y-76125879D01*
X116552825Y-76072201D01*
X116554920Y-76047817D01*
X116557249Y-76024985D01*
X116559822Y-76003640D01*
X116562647Y-75983719D01*
X116565736Y-75965159D01*
X116569098Y-75947895D01*
X116572742Y-75931863D01*
X116576679Y-75917001D01*
X116580918Y-75903245D01*
X116585469Y-75890530D01*
X116590342Y-75878793D01*
X116595546Y-75867970D01*
X116601092Y-75857997D01*
X116606989Y-75848811D01*
X116613247Y-75840349D01*
X116619875Y-75832545D01*
X116626885Y-75825337D01*
X116634284Y-75818661D01*
X116642084Y-75812453D01*
X116650293Y-75806649D01*
X116688182Y-75801955D01*
X116783211Y-75797557D01*
X117119300Y-75790040D01*
X117207601Y-75789106D01*
X117607783Y-75784874D01*
X118197884Y-75782837D01*
X118760212Y-75783440D01*
G37*
%TD.AperFunction*%
%TA.AperFunction,NonConductor*%
G36*
X121429285Y-82418770D02*
G01*
X121477249Y-82419029D01*
X121527803Y-82419303D01*
X121615096Y-82420242D01*
X121691861Y-82421674D01*
X121726514Y-82422601D01*
X121758795Y-82423684D01*
X121788793Y-82424933D01*
X121816595Y-82426359D01*
X121842288Y-82427973D01*
X121865958Y-82429785D01*
X121887694Y-82431807D01*
X121907581Y-82434049D01*
X121925708Y-82436523D01*
X121942161Y-82439238D01*
X121957028Y-82442206D01*
X121970395Y-82445437D01*
X121982351Y-82448942D01*
X121992981Y-82452733D01*
X122002373Y-82456819D01*
X122010614Y-82461212D01*
X122017792Y-82465923D01*
X122021009Y-82468400D01*
X122023993Y-82470961D01*
X122026755Y-82473607D01*
X122029305Y-82476339D01*
X122033814Y-82482067D01*
X122037608Y-82488155D01*
X122040774Y-82494615D01*
X122043399Y-82501457D01*
X122045571Y-82508693D01*
X122051261Y-82633508D01*
X122056473Y-82934687D01*
X122063160Y-83885436D01*
X122064239Y-84322070D01*
X122064412Y-84498935D01*
X122064215Y-84650809D01*
X122063949Y-84717995D01*
X122063556Y-84779678D01*
X122063023Y-84836105D01*
X122062339Y-84887524D01*
X122061493Y-84934184D01*
X122060472Y-84976332D01*
X122059266Y-85014217D01*
X122057862Y-85048086D01*
X122056248Y-85078187D01*
X122054414Y-85104769D01*
X122052346Y-85128078D01*
X122051222Y-85138584D01*
X122050034Y-85148364D01*
X122048783Y-85157451D01*
X122047466Y-85165875D01*
X122046083Y-85173666D01*
X122044630Y-85180857D01*
X122043108Y-85187478D01*
X122041515Y-85193560D01*
X122039849Y-85199134D01*
X122038108Y-85204231D01*
X122036292Y-85208882D01*
X122034398Y-85213118D01*
X122032426Y-85216970D01*
X122030373Y-85220469D01*
X122028239Y-85223646D01*
X122026022Y-85226532D01*
X122023721Y-85229159D01*
X122021333Y-85231556D01*
X122018858Y-85233755D01*
X122016294Y-85235787D01*
X122013640Y-85237684D01*
X122010894Y-85239475D01*
X122005120Y-85242866D01*
X121998962Y-85246210D01*
X120157507Y-85269400D01*
X116201229Y-85262351D01*
X112249940Y-85234436D01*
X110423452Y-85195029D01*
X110415145Y-85188107D01*
X110407634Y-85179835D01*
X110400863Y-85169828D01*
X110394781Y-85157700D01*
X110389334Y-85143067D01*
X110384470Y-85125543D01*
X110380134Y-85104742D01*
X110376275Y-85080280D01*
X110369773Y-85018829D01*
X110364538Y-84938108D01*
X110360147Y-84835033D01*
X110356174Y-84706523D01*
X110354134Y-84612344D01*
X110353194Y-84526417D01*
X110572999Y-84526417D01*
X110576500Y-84677555D01*
X110584475Y-84812067D01*
X110590101Y-84868224D01*
X110596799Y-84914385D01*
X110604554Y-84948605D01*
X110608822Y-84960628D01*
X110613349Y-84968937D01*
X110620229Y-84977406D01*
X110628045Y-84984933D01*
X110637209Y-84991561D01*
X110648131Y-84997330D01*
X110661222Y-85002281D01*
X110676892Y-85006458D01*
X110695551Y-85009900D01*
X110717612Y-85012649D01*
X110743483Y-85014747D01*
X110773576Y-85016236D01*
X110848070Y-85017551D01*
X110944379Y-85016924D01*
X111065787Y-85014689D01*
X111478219Y-85005735D01*
X111486982Y-84519166D01*
X111488553Y-84404750D01*
X111488855Y-84353619D01*
X111488833Y-84306526D01*
X111488488Y-84263462D01*
X111487819Y-84224415D01*
X111486825Y-84189377D01*
X111485505Y-84158336D01*
X111483860Y-84131283D01*
X111481888Y-84108208D01*
X111479589Y-84089100D01*
X111476963Y-84073951D01*
X111475526Y-84067857D01*
X111474008Y-84062749D01*
X111472408Y-84058625D01*
X111470725Y-84055484D01*
X111468960Y-84053325D01*
X111467112Y-84052147D01*
X111465182Y-84051948D01*
X111463170Y-84052728D01*
X111461501Y-84053716D01*
X111459853Y-84054605D01*
X111458228Y-84055395D01*
X111456628Y-84056087D01*
X111455056Y-84056682D01*
X111453514Y-84057180D01*
X111452002Y-84057584D01*
X111450525Y-84057892D01*
X111449083Y-84058107D01*
X111447679Y-84058230D01*
X111446315Y-84058260D01*
X111444993Y-84058200D01*
X111443715Y-84058049D01*
X111442483Y-84057809D01*
X111441299Y-84057481D01*
X111440166Y-84057065D01*
X111439085Y-84056563D01*
X111438059Y-84055975D01*
X111437090Y-84055302D01*
X111436179Y-84054545D01*
X111435329Y-84053705D01*
X111434542Y-84052783D01*
X111433820Y-84051780D01*
X111433165Y-84050696D01*
X111432579Y-84049532D01*
X111432065Y-84048290D01*
X111431624Y-84046970D01*
X111431259Y-84045573D01*
X111430971Y-84044100D01*
X111430762Y-84042552D01*
X111430636Y-84040930D01*
X111430593Y-84039234D01*
X111428976Y-84035251D01*
X111424144Y-84031508D01*
X111416125Y-84028007D01*
X111404947Y-84024751D01*
X111390640Y-84021742D01*
X111373231Y-84018982D01*
X111329224Y-84014218D01*
X111273152Y-84010481D01*
X111205244Y-84007787D01*
X111125727Y-84006158D01*
X111034830Y-84005610D01*
X110971220Y-84005688D01*
X110914628Y-84005966D01*
X110864602Y-84006507D01*
X110820691Y-84007378D01*
X110800888Y-84007956D01*
X110782443Y-84008641D01*
X110765302Y-84009441D01*
X110749406Y-84010363D01*
X110734700Y-84011416D01*
X110721128Y-84012608D01*
X110708632Y-84013947D01*
X110697157Y-84015441D01*
X110686645Y-84017097D01*
X110677040Y-84018925D01*
X110668286Y-84020932D01*
X110660327Y-84023127D01*
X110653105Y-84025517D01*
X110646565Y-84028110D01*
X110640649Y-84030915D01*
X110635302Y-84033939D01*
X110630467Y-84037192D01*
X110626087Y-84040680D01*
X110622106Y-84044412D01*
X110618467Y-84048396D01*
X110615114Y-84052640D01*
X110611990Y-84057153D01*
X110609039Y-84061941D01*
X110606205Y-84067014D01*
X110597760Y-84091304D01*
X110590574Y-84128953D01*
X110584629Y-84178016D01*
X110579912Y-84236546D01*
X110574095Y-84374224D01*
X110572999Y-84526417D01*
X110353194Y-84526417D01*
X110353086Y-84516534D01*
X110352990Y-84421759D01*
X110353809Y-84330682D01*
X110355502Y-84245970D01*
X110358031Y-84170287D01*
X110361359Y-84106296D01*
X110365445Y-84056664D01*
X110368925Y-84025358D01*
X110372366Y-83997245D01*
X110375863Y-83972108D01*
X110379509Y-83949730D01*
X110381418Y-83939509D01*
X110383399Y-83929896D01*
X110385465Y-83920865D01*
X110387627Y-83912389D01*
X110389897Y-83904441D01*
X110392287Y-83896993D01*
X110394808Y-83890019D01*
X110397472Y-83883492D01*
X110400292Y-83877384D01*
X110403278Y-83871668D01*
X110406442Y-83866318D01*
X110409797Y-83861306D01*
X110413354Y-83856606D01*
X110417124Y-83852189D01*
X110421120Y-83848030D01*
X110425354Y-83844102D01*
X110429836Y-83840376D01*
X110434579Y-83836827D01*
X110439595Y-83833426D01*
X110444894Y-83830148D01*
X110450490Y-83826964D01*
X110456394Y-83823849D01*
X110469172Y-83817714D01*
X110756920Y-83800280D01*
X111034830Y-83796943D01*
X111613017Y-83790000D01*
X115547426Y-83787837D01*
X117631434Y-83788913D01*
X119210129Y-83785349D01*
X120213883Y-83777456D01*
X120478399Y-83771985D01*
X120573069Y-83765549D01*
X120576131Y-83759329D01*
X120579205Y-83747035D01*
X120585315Y-83705544D01*
X120591237Y-83643715D01*
X120596810Y-83564190D01*
X120606270Y-83362614D01*
X120612407Y-83121944D01*
X120613706Y-83043999D01*
X120812718Y-83043999D01*
X120813190Y-83120327D01*
X120814544Y-83193758D01*
X120816684Y-83262527D01*
X120819517Y-83324867D01*
X120822945Y-83379012D01*
X120826876Y-83423197D01*
X120829000Y-83441003D01*
X120831214Y-83455656D01*
X120833506Y-83466937D01*
X120835864Y-83474623D01*
X120840194Y-83483669D01*
X120845683Y-83491671D01*
X120852865Y-83498680D01*
X120862277Y-83504746D01*
X120874453Y-83509919D01*
X120889928Y-83514248D01*
X120909237Y-83517786D01*
X120932916Y-83520581D01*
X120995522Y-83524146D01*
X121082029Y-83525344D01*
X121196715Y-83524577D01*
X121343864Y-83522248D01*
X121828718Y-83513486D01*
X121837513Y-83080670D01*
X121838778Y-83014181D01*
X121839694Y-82954613D01*
X121840222Y-82901575D01*
X121840326Y-82854676D01*
X121839971Y-82813524D01*
X121839609Y-82794981D01*
X121839119Y-82777727D01*
X121838495Y-82761715D01*
X121837733Y-82746895D01*
X121836829Y-82733219D01*
X121835779Y-82720637D01*
X121834576Y-82709100D01*
X121833218Y-82698559D01*
X121831698Y-82688967D01*
X121830014Y-82680273D01*
X121828160Y-82672428D01*
X121826131Y-82665385D01*
X121823924Y-82659093D01*
X121821533Y-82653505D01*
X121818954Y-82648570D01*
X121816183Y-82644241D01*
X121813214Y-82640467D01*
X121810044Y-82637201D01*
X121806667Y-82634394D01*
X121803080Y-82631996D01*
X121799277Y-82629958D01*
X121795254Y-82628232D01*
X121771830Y-82622817D01*
X121733711Y-82618343D01*
X121621979Y-82612109D01*
X121477249Y-82609320D01*
X121316714Y-82609765D01*
X121157564Y-82613233D01*
X121016991Y-82619512D01*
X120912187Y-82628392D01*
X120878571Y-82633741D01*
X120860343Y-82639662D01*
X120853556Y-82644877D01*
X120847404Y-82651690D01*
X120841859Y-82660329D01*
X120836895Y-82671027D01*
X120832485Y-82684014D01*
X120828601Y-82699521D01*
X120825216Y-82717779D01*
X120822303Y-82739019D01*
X120817783Y-82791369D01*
X120814824Y-82858417D01*
X120813208Y-82942011D01*
X120812718Y-83043999D01*
X120613706Y-83043999D01*
X120614073Y-83021945D01*
X120615740Y-82933211D01*
X120617489Y-82855009D01*
X120619399Y-82786605D01*
X120621550Y-82727267D01*
X120624022Y-82676261D01*
X120625402Y-82653653D01*
X120626893Y-82632853D01*
X120628503Y-82613770D01*
X120630243Y-82596311D01*
X120632123Y-82580385D01*
X120634152Y-82565901D01*
X120636341Y-82552766D01*
X120638700Y-82540890D01*
X120641238Y-82530179D01*
X120643965Y-82520544D01*
X120646892Y-82511891D01*
X120650028Y-82504130D01*
X120653383Y-82497169D01*
X120656968Y-82490915D01*
X120660792Y-82485278D01*
X120664864Y-82480166D01*
X120669196Y-82475487D01*
X120673797Y-82471149D01*
X120678676Y-82467061D01*
X120683845Y-82463131D01*
X120693970Y-82456866D01*
X120706606Y-82451165D01*
X120722060Y-82446007D01*
X120740639Y-82441370D01*
X120788395Y-82433573D01*
X120852326Y-82427603D01*
X120934885Y-82423289D01*
X121038523Y-82420457D01*
X121165693Y-82418936D01*
X121318845Y-82418555D01*
X121429285Y-82418770D01*
G37*
%TD.AperFunction*%
D11*
D12*
X126708980Y-57213558D02*
X126708980Y-57880225D01*
X125661361Y-58165939D02*
X125661361Y-57213558D01*
X125661361Y-57213558D02*
X127661361Y-57213558D01*
X127661361Y-57213558D02*
X127661361Y-58165939D01*
X125661361Y-59975463D02*
X125661361Y-59023082D01*
X125661361Y-59023082D02*
X127661361Y-59023082D01*
X125661361Y-60642130D02*
X127661361Y-60642130D01*
X126232790Y-61499273D02*
X126232790Y-62451654D01*
X125661361Y-61308797D02*
X127661361Y-61975463D01*
X127661361Y-61975463D02*
X125661361Y-62642130D01*
X127661361Y-64546893D02*
X125661361Y-65213559D01*
X125661361Y-65213559D02*
X127661361Y-65880226D01*
X126232790Y-66451655D02*
X126232790Y-67404036D01*
X125661361Y-66261179D02*
X127661361Y-66927845D01*
X127661361Y-66927845D02*
X125661361Y-67594512D01*
X125661361Y-68261179D02*
X127661361Y-68261179D01*
X127661361Y-68261179D02*
X125661361Y-69404036D01*
X125661361Y-69404036D02*
X127661361Y-69404036D01*
X125661361Y-70356417D02*
X127661361Y-70356417D01*
X127661361Y-70356417D02*
X127661361Y-70832607D01*
X127661361Y-70832607D02*
X127566123Y-71118322D01*
X127566123Y-71118322D02*
X127375647Y-71308798D01*
X127375647Y-71308798D02*
X127185171Y-71404036D01*
X127185171Y-71404036D02*
X126804219Y-71499274D01*
X126804219Y-71499274D02*
X126518504Y-71499274D01*
X126518504Y-71499274D02*
X126137552Y-71404036D01*
X126137552Y-71404036D02*
X125947076Y-71308798D01*
X125947076Y-71308798D02*
X125756600Y-71118322D01*
X125756600Y-71118322D02*
X125661361Y-70832607D01*
X125661361Y-70832607D02*
X125661361Y-70356417D01*
X125661361Y-72356417D02*
X127661361Y-72356417D01*
X125661361Y-73308798D02*
X127661361Y-73308798D01*
X127661361Y-73308798D02*
X125661361Y-74451655D01*
X125661361Y-74451655D02*
X127661361Y-74451655D01*
X125661361Y-75404036D02*
X127661361Y-75404036D01*
D13*
D14*
X123499180Y-57130779D02*
X124499180Y-57130779D01*
X124499180Y-57130779D02*
X124499180Y-57368874D01*
X124499180Y-57368874D02*
X124451561Y-57511731D01*
X124451561Y-57511731D02*
X124356323Y-57606969D01*
X124356323Y-57606969D02*
X124261085Y-57654588D01*
X124261085Y-57654588D02*
X124070609Y-57702207D01*
X124070609Y-57702207D02*
X123927752Y-57702207D01*
X123927752Y-57702207D02*
X123737276Y-57654588D01*
X123737276Y-57654588D02*
X123642038Y-57606969D01*
X123642038Y-57606969D02*
X123546800Y-57511731D01*
X123546800Y-57511731D02*
X123499180Y-57368874D01*
X123499180Y-57368874D02*
X123499180Y-57130779D01*
X123499180Y-58273636D02*
X123546800Y-58178398D01*
X123546800Y-58178398D02*
X123594419Y-58130779D01*
X123594419Y-58130779D02*
X123689657Y-58083160D01*
X123689657Y-58083160D02*
X123975371Y-58083160D01*
X123975371Y-58083160D02*
X124070609Y-58130779D01*
X124070609Y-58130779D02*
X124118228Y-58178398D01*
X124118228Y-58178398D02*
X124165847Y-58273636D01*
X124165847Y-58273636D02*
X124165847Y-58416493D01*
X124165847Y-58416493D02*
X124118228Y-58511731D01*
X124118228Y-58511731D02*
X124070609Y-58559350D01*
X124070609Y-58559350D02*
X123975371Y-58606969D01*
X123975371Y-58606969D02*
X123689657Y-58606969D01*
X123689657Y-58606969D02*
X123594419Y-58559350D01*
X123594419Y-58559350D02*
X123546800Y-58511731D01*
X123546800Y-58511731D02*
X123499180Y-58416493D01*
X123499180Y-58416493D02*
X123499180Y-58273636D01*
X123499180Y-59178398D02*
X123546800Y-59083160D01*
X123546800Y-59083160D02*
X123594419Y-59035541D01*
X123594419Y-59035541D02*
X123689657Y-58987922D01*
X123689657Y-58987922D02*
X123975371Y-58987922D01*
X123975371Y-58987922D02*
X124070609Y-59035541D01*
X124070609Y-59035541D02*
X124118228Y-59083160D01*
X124118228Y-59083160D02*
X124165847Y-59178398D01*
X124165847Y-59178398D02*
X124165847Y-59321255D01*
X124165847Y-59321255D02*
X124118228Y-59416493D01*
X124118228Y-59416493D02*
X124070609Y-59464112D01*
X124070609Y-59464112D02*
X123975371Y-59511731D01*
X123975371Y-59511731D02*
X123689657Y-59511731D01*
X123689657Y-59511731D02*
X123594419Y-59464112D01*
X123594419Y-59464112D02*
X123546800Y-59416493D01*
X123546800Y-59416493D02*
X123499180Y-59321255D01*
X123499180Y-59321255D02*
X123499180Y-59178398D01*
X123499180Y-60368874D02*
X124499180Y-60368874D01*
X123546800Y-60368874D02*
X123499180Y-60273636D01*
X123499180Y-60273636D02*
X123499180Y-60083160D01*
X123499180Y-60083160D02*
X123546800Y-59987922D01*
X123546800Y-59987922D02*
X123594419Y-59940303D01*
X123594419Y-59940303D02*
X123689657Y-59892684D01*
X123689657Y-59892684D02*
X123975371Y-59892684D01*
X123975371Y-59892684D02*
X124070609Y-59940303D01*
X124070609Y-59940303D02*
X124118228Y-59987922D01*
X124118228Y-59987922D02*
X124165847Y-60083160D01*
X124165847Y-60083160D02*
X124165847Y-60273636D01*
X124165847Y-60273636D02*
X124118228Y-60368874D01*
X123499180Y-60987922D02*
X123546800Y-60892684D01*
X123546800Y-60892684D02*
X123642038Y-60845065D01*
X123642038Y-60845065D02*
X124499180Y-60845065D01*
X123546800Y-61749827D02*
X123499180Y-61654589D01*
X123499180Y-61654589D02*
X123499180Y-61464113D01*
X123499180Y-61464113D02*
X123546800Y-61368875D01*
X123546800Y-61368875D02*
X123642038Y-61321256D01*
X123642038Y-61321256D02*
X124022990Y-61321256D01*
X124022990Y-61321256D02*
X124118228Y-61368875D01*
X124118228Y-61368875D02*
X124165847Y-61464113D01*
X124165847Y-61464113D02*
X124165847Y-61654589D01*
X124165847Y-61654589D02*
X124118228Y-61749827D01*
X124118228Y-61749827D02*
X124022990Y-61797446D01*
X124022990Y-61797446D02*
X123927752Y-61797446D01*
X123927752Y-61797446D02*
X123832514Y-61321256D01*
X123499180Y-62987923D02*
X124499180Y-62987923D01*
X124499180Y-62987923D02*
X124499180Y-63226018D01*
X124499180Y-63226018D02*
X124451561Y-63368875D01*
X124451561Y-63368875D02*
X124356323Y-63464113D01*
X124356323Y-63464113D02*
X124261085Y-63511732D01*
X124261085Y-63511732D02*
X124070609Y-63559351D01*
X124070609Y-63559351D02*
X123927752Y-63559351D01*
X123927752Y-63559351D02*
X123737276Y-63511732D01*
X123737276Y-63511732D02*
X123642038Y-63464113D01*
X123642038Y-63464113D02*
X123546800Y-63368875D01*
X123546800Y-63368875D02*
X123499180Y-63226018D01*
X123499180Y-63226018D02*
X123499180Y-62987923D01*
X123499180Y-63987923D02*
X124165847Y-63987923D01*
X123975371Y-63987923D02*
X124070609Y-64035542D01*
X124070609Y-64035542D02*
X124118228Y-64083161D01*
X124118228Y-64083161D02*
X124165847Y-64178399D01*
X124165847Y-64178399D02*
X124165847Y-64273637D01*
X123499180Y-64606971D02*
X124165847Y-64606971D01*
X124499180Y-64606971D02*
X124451561Y-64559352D01*
X124451561Y-64559352D02*
X124403942Y-64606971D01*
X124403942Y-64606971D02*
X124451561Y-64654590D01*
X124451561Y-64654590D02*
X124499180Y-64606971D01*
X124499180Y-64606971D02*
X124403942Y-64606971D01*
X124165847Y-64987923D02*
X123499180Y-65226018D01*
X123499180Y-65226018D02*
X124165847Y-65464113D01*
X123546800Y-66226018D02*
X123499180Y-66130780D01*
X123499180Y-66130780D02*
X123499180Y-65940304D01*
X123499180Y-65940304D02*
X123546800Y-65845066D01*
X123546800Y-65845066D02*
X123642038Y-65797447D01*
X123642038Y-65797447D02*
X124022990Y-65797447D01*
X124022990Y-65797447D02*
X124118228Y-65845066D01*
X124118228Y-65845066D02*
X124165847Y-65940304D01*
X124165847Y-65940304D02*
X124165847Y-66130780D01*
X124165847Y-66130780D02*
X124118228Y-66226018D01*
X124118228Y-66226018D02*
X124022990Y-66273637D01*
X124022990Y-66273637D02*
X123927752Y-66273637D01*
X123927752Y-66273637D02*
X123832514Y-65797447D01*
X124499180Y-67321257D02*
X123499180Y-67654590D01*
X123499180Y-67654590D02*
X124499180Y-67987923D01*
X124403942Y-68273638D02*
X124451561Y-68321257D01*
X124451561Y-68321257D02*
X124499180Y-68416495D01*
X124499180Y-68416495D02*
X124499180Y-68654590D01*
X124499180Y-68654590D02*
X124451561Y-68749828D01*
X124451561Y-68749828D02*
X124403942Y-68797447D01*
X124403942Y-68797447D02*
X124308704Y-68845066D01*
X124308704Y-68845066D02*
X124213466Y-68845066D01*
X124213466Y-68845066D02*
X124070609Y-68797447D01*
X124070609Y-68797447D02*
X123499180Y-68226019D01*
X123499180Y-68226019D02*
X123499180Y-68845066D01*
X123594419Y-69273638D02*
X123546800Y-69321257D01*
X123546800Y-69321257D02*
X123499180Y-69273638D01*
X123499180Y-69273638D02*
X123546800Y-69226019D01*
X123546800Y-69226019D02*
X123594419Y-69273638D01*
X123594419Y-69273638D02*
X123499180Y-69273638D01*
X124499180Y-69940304D02*
X124499180Y-70035542D01*
X124499180Y-70035542D02*
X124451561Y-70130780D01*
X124451561Y-70130780D02*
X124403942Y-70178399D01*
X124403942Y-70178399D02*
X124308704Y-70226018D01*
X124308704Y-70226018D02*
X124118228Y-70273637D01*
X124118228Y-70273637D02*
X123880133Y-70273637D01*
X123880133Y-70273637D02*
X123689657Y-70226018D01*
X123689657Y-70226018D02*
X123594419Y-70178399D01*
X123594419Y-70178399D02*
X123546800Y-70130780D01*
X123546800Y-70130780D02*
X123499180Y-70035542D01*
X123499180Y-70035542D02*
X123499180Y-69940304D01*
X123499180Y-69940304D02*
X123546800Y-69845066D01*
X123546800Y-69845066D02*
X123594419Y-69797447D01*
X123594419Y-69797447D02*
X123689657Y-69749828D01*
X123689657Y-69749828D02*
X123880133Y-69702209D01*
X123880133Y-69702209D02*
X124118228Y-69702209D01*
X124118228Y-69702209D02*
X124308704Y-69749828D01*
X124308704Y-69749828D02*
X124403942Y-69797447D01*
X124403942Y-69797447D02*
X124451561Y-69845066D01*
X124451561Y-69845066D02*
X124499180Y-69940304D01*
D13*
D14*
X122467180Y-57606969D02*
X122467180Y-57130779D01*
X122467180Y-57130779D02*
X121990990Y-57083160D01*
X121990990Y-57083160D02*
X122038609Y-57130779D01*
X122038609Y-57130779D02*
X122086228Y-57226017D01*
X122086228Y-57226017D02*
X122086228Y-57464112D01*
X122086228Y-57464112D02*
X122038609Y-57559350D01*
X122038609Y-57559350D02*
X121990990Y-57606969D01*
X121990990Y-57606969D02*
X121895752Y-57654588D01*
X121895752Y-57654588D02*
X121657657Y-57654588D01*
X121657657Y-57654588D02*
X121562419Y-57606969D01*
X121562419Y-57606969D02*
X121514800Y-57559350D01*
X121514800Y-57559350D02*
X121467180Y-57464112D01*
X121467180Y-57464112D02*
X121467180Y-57226017D01*
X121467180Y-57226017D02*
X121514800Y-57130779D01*
X121514800Y-57130779D02*
X121562419Y-57083160D01*
X121990990Y-58416493D02*
X121943371Y-58559350D01*
X121943371Y-58559350D02*
X121895752Y-58606969D01*
X121895752Y-58606969D02*
X121800514Y-58654588D01*
X121800514Y-58654588D02*
X121657657Y-58654588D01*
X121657657Y-58654588D02*
X121562419Y-58606969D01*
X121562419Y-58606969D02*
X121514800Y-58559350D01*
X121514800Y-58559350D02*
X121467180Y-58464112D01*
X121467180Y-58464112D02*
X121467180Y-58083160D01*
X121467180Y-58083160D02*
X122467180Y-58083160D01*
X122467180Y-58083160D02*
X122467180Y-58416493D01*
X122467180Y-58416493D02*
X122419561Y-58511731D01*
X122419561Y-58511731D02*
X122371942Y-58559350D01*
X122371942Y-58559350D02*
X122276704Y-58606969D01*
X122276704Y-58606969D02*
X122181466Y-58606969D01*
X122181466Y-58606969D02*
X122086228Y-58559350D01*
X122086228Y-58559350D02*
X122038609Y-58511731D01*
X122038609Y-58511731D02*
X121990990Y-58416493D01*
X121990990Y-58416493D02*
X121990990Y-58083160D01*
X121990990Y-59083160D02*
X121990990Y-59416493D01*
X121467180Y-59559350D02*
X121467180Y-59083160D01*
X121467180Y-59083160D02*
X122467180Y-59083160D01*
X122467180Y-59083160D02*
X122467180Y-59559350D01*
X121467180Y-60464112D02*
X121467180Y-59987922D01*
X121467180Y-59987922D02*
X122467180Y-59987922D01*
X122467180Y-61464113D02*
X121467180Y-62130779D01*
X122467180Y-62130779D02*
X121467180Y-61464113D01*
X122467180Y-62416494D02*
X121467180Y-63083160D01*
X122467180Y-63083160D02*
X121467180Y-62416494D01*
X122514800Y-64178398D02*
X121229085Y-63321256D01*
X122371942Y-64464113D02*
X122419561Y-64511732D01*
X122419561Y-64511732D02*
X122467180Y-64606970D01*
X122467180Y-64606970D02*
X122467180Y-64845065D01*
X122467180Y-64845065D02*
X122419561Y-64940303D01*
X122419561Y-64940303D02*
X122371942Y-64987922D01*
X122371942Y-64987922D02*
X122276704Y-65035541D01*
X122276704Y-65035541D02*
X122181466Y-65035541D01*
X122181466Y-65035541D02*
X122038609Y-64987922D01*
X122038609Y-64987922D02*
X121467180Y-64416494D01*
X121467180Y-64416494D02*
X121467180Y-65035541D01*
X122467180Y-65654589D02*
X122467180Y-65749827D01*
X122467180Y-65749827D02*
X122419561Y-65845065D01*
X122419561Y-65845065D02*
X122371942Y-65892684D01*
X122371942Y-65892684D02*
X122276704Y-65940303D01*
X122276704Y-65940303D02*
X122086228Y-65987922D01*
X122086228Y-65987922D02*
X121848133Y-65987922D01*
X121848133Y-65987922D02*
X121657657Y-65940303D01*
X121657657Y-65940303D02*
X121562419Y-65892684D01*
X121562419Y-65892684D02*
X121514800Y-65845065D01*
X121514800Y-65845065D02*
X121467180Y-65749827D01*
X121467180Y-65749827D02*
X121467180Y-65654589D01*
X121467180Y-65654589D02*
X121514800Y-65559351D01*
X121514800Y-65559351D02*
X121562419Y-65511732D01*
X121562419Y-65511732D02*
X121657657Y-65464113D01*
X121657657Y-65464113D02*
X121848133Y-65416494D01*
X121848133Y-65416494D02*
X122086228Y-65416494D01*
X122086228Y-65416494D02*
X122276704Y-65464113D01*
X122276704Y-65464113D02*
X122371942Y-65511732D01*
X122371942Y-65511732D02*
X122419561Y-65559351D01*
X122419561Y-65559351D02*
X122467180Y-65654589D01*
X122371942Y-66368875D02*
X122419561Y-66416494D01*
X122419561Y-66416494D02*
X122467180Y-66511732D01*
X122467180Y-66511732D02*
X122467180Y-66749827D01*
X122467180Y-66749827D02*
X122419561Y-66845065D01*
X122419561Y-66845065D02*
X122371942Y-66892684D01*
X122371942Y-66892684D02*
X122276704Y-66940303D01*
X122276704Y-66940303D02*
X122181466Y-66940303D01*
X122181466Y-66940303D02*
X122038609Y-66892684D01*
X122038609Y-66892684D02*
X121467180Y-66321256D01*
X121467180Y-66321256D02*
X121467180Y-66940303D01*
X122133847Y-67797446D02*
X121467180Y-67797446D01*
X122514800Y-67559351D02*
X121800514Y-67321256D01*
X121800514Y-67321256D02*
X121800514Y-67940303D01*
D15*
%TO.P,C6,1*%
%TO.N,GND*%
X92500000Y-80270000D03*
%TO.P,C6,2*%
%TO.N,PH1*%
X92500000Y-81230000D03*
%TD*%
%TO.P,C9,1*%
%TO.N,GND*%
X93500000Y-80270000D03*
%TO.P,C9,2*%
%TO.N,PH0*%
X93500000Y-81230000D03*
%TD*%
%TO.P,C31,2*%
%TO.N,Net-(U5-VCP)*%
X74440000Y-109460000D03*
%TO.P,C31,1*%
%TO.N,+15V*%
X74440000Y-108500000D03*
%TD*%
%TO.P,C11,2*%
%TO.N,Net-(U2-VCP)*%
X126937500Y-109230000D03*
%TO.P,C11,1*%
%TO.N,+15V*%
X126937500Y-108270000D03*
%TD*%
D16*
%TO.P,C7,2*%
%TO.N,PC14*%
X90500000Y-80270000D03*
%TO.P,C7,1*%
%TO.N,GND*%
X90500000Y-81230000D03*
%TD*%
D15*
%TO.P,C10,2*%
%TO.N,GND*%
X91500000Y-81230000D03*
%TO.P,C10,1*%
%TO.N,PC15*%
X91500000Y-80270000D03*
%TD*%
%TO.P,C16,2*%
%TO.N,Net-(U3-VCP)*%
X109467500Y-109385000D03*
%TO.P,C16,1*%
%TO.N,+15V*%
X109467500Y-108425000D03*
%TD*%
%TO.P,C26,2*%
%TO.N,Net-(U4-VCP)*%
X91937500Y-109455000D03*
%TO.P,C26,1*%
%TO.N,+15V*%
X91937500Y-108495000D03*
%TD*%
D17*
%TO.P,C25,2*%
%TO.N,Net-(U4-CP1)*%
X92937500Y-113300000D03*
%TO.P,C25,1*%
%TO.N,Net-(U4-CP2)*%
X92937500Y-111400000D03*
%TD*%
%TO.P,C14,2*%
%TO.N,~{RST}*%
X95000000Y-84650000D03*
%TO.P,C14,1*%
%TO.N,GND*%
X95000000Y-82750000D03*
%TD*%
%TO.P,C4,2*%
%TO.N,VREF+*%
X101000000Y-73150000D03*
%TO.P,C4,1*%
%TO.N,GND*%
X101000000Y-71250000D03*
%TD*%
D18*
%TO.P,C19,2*%
%TO.N,GND*%
X103000000Y-71250000D03*
%TO.P,C19,1*%
%TO.N,Net-(U1-VCAP1)*%
X103000000Y-73150000D03*
%TD*%
D19*
%TO.P,C23,2*%
%TO.N,GND*%
X110917500Y-98805000D03*
%TO.P,C23,1*%
%TO.N,+15V*%
X109017500Y-98805000D03*
%TD*%
D20*
%TO.P,C13,2*%
%TO.N,+3V3*%
X88231000Y-61637000D03*
%TO.P,C13,1*%
%TO.N,GND*%
X90131000Y-61637000D03*
%TD*%
D17*
%TO.P,C15,2*%
%TO.N,Net-(U3-CP1)*%
X110467500Y-113305000D03*
%TO.P,C15,1*%
%TO.N,Net-(U3-CP2)*%
X110467500Y-111405000D03*
%TD*%
%TO.P,C5,2*%
%TO.N,Net-(U2-CP1)*%
X127937500Y-113200000D03*
%TO.P,C5,1*%
%TO.N,Net-(U2-CP2)*%
X127937500Y-111300000D03*
%TD*%
D19*
%TO.P,C17,2*%
%TO.N,GND*%
X81450000Y-73387000D03*
%TO.P,C17,1*%
%TO.N,+5V*%
X79550000Y-73387000D03*
%TD*%
%TO.P,C3,2*%
%TO.N,+3V3*%
X84950000Y-73500000D03*
%TO.P,C3,1*%
%TO.N,GND*%
X83050000Y-73500000D03*
%TD*%
%TO.P,C29,2*%
%TO.N,GND*%
X93137500Y-100900000D03*
%TO.P,C29,1*%
%TO.N,+15V*%
X91237500Y-100900000D03*
%TD*%
D17*
%TO.P,C30,2*%
%TO.N,Net-(U5-CP1)*%
X75440000Y-113200000D03*
%TO.P,C30,1*%
%TO.N,Net-(U5-CP2)*%
X75440000Y-111300000D03*
%TD*%
D19*
%TO.P,C21,2*%
%TO.N,GND*%
X128137500Y-100750000D03*
%TO.P,C21,1*%
%TO.N,+15V*%
X126237500Y-100750000D03*
%TD*%
D17*
%TO.P,C1,1*%
%TO.N,GND*%
X83500000Y-67300000D03*
%TO.P,C1,2*%
%TO.N,+3V3*%
X83500000Y-69200000D03*
%TD*%
D19*
%TO.P,C34,2*%
%TO.N,GND*%
X75540000Y-100900000D03*
%TO.P,C34,1*%
%TO.N,+15V*%
X73640000Y-100900000D03*
%TD*%
%TO.P,C28,2*%
%TO.N,GND*%
X93437500Y-98900000D03*
%TO.P,C28,1*%
%TO.N,+15V*%
X91537500Y-98900000D03*
%TD*%
%TO.P,C33,2*%
%TO.N,GND*%
X75940000Y-98900000D03*
%TO.P,C33,1*%
%TO.N,+15V*%
X74040000Y-98900000D03*
%TD*%
D17*
%TO.P,C8,2*%
%TO.N,+3V3*%
X105000000Y-73150000D03*
%TO.P,C8,1*%
%TO.N,GND*%
X105000000Y-71250000D03*
%TD*%
D19*
%TO.P,C24,2*%
%TO.N,GND*%
X110717500Y-100905000D03*
%TO.P,C24,1*%
%TO.N,+15V*%
X108817500Y-100905000D03*
%TD*%
D20*
%TO.P,C2,2*%
%TO.N,+5V*%
X79550000Y-71387000D03*
%TO.P,C2,1*%
%TO.N,GND*%
X81450000Y-71387000D03*
%TD*%
D17*
%TO.P,C12,2*%
%TO.N,+3V3*%
X99212500Y-64450000D03*
%TO.P,C12,1*%
%TO.N,GND*%
X99212500Y-62550000D03*
%TD*%
D19*
%TO.P,C20,2*%
%TO.N,GND*%
X128437500Y-98750000D03*
%TO.P,C20,1*%
%TO.N,+15V*%
X126537500Y-98750000D03*
%TD*%
D21*
%TO.P,J3,2,Pin_2*%
%TO.N,+15V*%
X67700000Y-83335000D03*
D22*
%TO.P,J3,1,Pin_1*%
%TO.N,GND*%
X67700000Y-78335000D03*
%TD*%
D23*
%TO.P,D5,2,A*%
%TO.N,PB7*%
X79500000Y-101200000D03*
%TO.P,D5,1,K*%
%TO.N,GND*%
X81375000Y-101200000D03*
%TD*%
D24*
%TO.P,U6,5,VOUT*%
%TO.N,+3V3*%
X81450000Y-69175000D03*
%TO.P,U6,4,NC*%
%TO.N,GND*%
X79550000Y-69175000D03*
%TO.P,U6,3,EN*%
%TO.N,+5V*%
X79550000Y-66825000D03*
%TO.P,U6,2,GND*%
%TO.N,GND*%
X80500000Y-66825000D03*
%TO.P,U6,1,VIN*%
%TO.N,+5V*%
X81450000Y-66825000D03*
%TD*%
D25*
%TO.P,C22,2*%
%TO.N,+15V*%
X110917500Y-90000000D03*
%TO.P,C22,1*%
%TO.N,GND*%
X110917500Y-92000000D03*
%TD*%
D26*
%TO.P,R14,2*%
%TO.N,+15V*%
X128687500Y-107837500D03*
%TO.P,R14,1*%
%TO.N,Net-(U2-VCP)*%
X128687500Y-109662500D03*
%TD*%
D27*
%TO.P,L1,2,2*%
%TO.N,VREF+*%
X101687500Y-74750000D03*
%TO.P,L1,1,1*%
%TO.N,+3V3*%
X103812500Y-74750000D03*
%TD*%
D28*
%TO.P,R13,2*%
%TO.N,Net-(U2-ISENB)*%
X125975000Y-103250000D03*
%TO.P,R13,1*%
%TO.N,GND*%
X128900000Y-103250000D03*
%TD*%
D29*
%TO.P,J12,4*%
%TO.N,Net-(U4-BOUT2)*%
X82317500Y-112400000D03*
%TO.P,J12,3*%
%TO.N,Net-(U4-BOUT1)*%
X84857500Y-112400000D03*
%TO.P,J12,2*%
%TO.N,Net-(U4-AOUT2)*%
X87397500Y-112400000D03*
D30*
%TO.P,J12,1*%
%TO.N,Net-(U4-AOUT1)*%
X89937500Y-112400000D03*
%TD*%
D31*
%TO.P,D1,2,A*%
%TO.N,Net-(D1-A)*%
X89000000Y-78937500D03*
%TO.P,D1,1,K*%
%TO.N,PC13*%
X89000000Y-77062500D03*
%TD*%
D32*
%TO.P,J1,5,Shield*%
%TO.N,GND*%
X72027500Y-59600000D03*
X72027500Y-71600000D03*
D33*
%TO.P,J1,4,GND*%
X74887500Y-66850000D03*
%TO.P,J1,3,D+*%
%TO.N,Net-(J1-D+)*%
X74887500Y-64350000D03*
%TO.P,J1,2,D-*%
%TO.N,Net-(J1-D-)*%
X76887500Y-64350000D03*
D34*
%TO.P,J1,1,VBUS*%
%TO.N,+5V*%
X76887500Y-66850000D03*
%TD*%
D35*
%TO.P,RV6,3,3*%
%TO.N,unconnected-(RV6-Pad3)*%
X99620000Y-94150000D03*
%TO.P,RV6,2,2*%
%TO.N,GND*%
X102160000Y-91610000D03*
D36*
%TO.P,RV6,1,1*%
%TO.N,Net-(U3-AVREF)*%
X104700000Y-94150000D03*
%TD*%
D26*
%TO.P,R4,2*%
%TO.N,+3V3*%
X93000000Y-82750000D03*
%TO.P,R4,1*%
%TO.N,~{RST}*%
X93000000Y-84575000D03*
%TD*%
D25*
%TO.P,C32,2*%
%TO.N,+15V*%
X75940000Y-90000000D03*
%TO.P,C32,1*%
%TO.N,GND*%
X75940000Y-92000000D03*
%TD*%
D37*
%TO.P,R19,2*%
%TO.N,Net-(U2-NFAULT)*%
X116350000Y-103000000D03*
%TO.P,R19,1*%
%TO.N,PB1*%
X114525000Y-103000000D03*
%TD*%
D23*
%TO.P,D6,2,A*%
%TO.N,PB3*%
X61965000Y-101100000D03*
%TO.P,D6,1,K*%
%TO.N,GND*%
X63840000Y-101100000D03*
%TD*%
D29*
%TO.P,J6,2*%
%TO.N,PB6*%
X69985000Y-54750000D03*
D30*
%TO.P,J6,1*%
%TO.N,+3V3*%
X72525000Y-54750000D03*
%TD*%
D29*
%TO.P,J9,4*%
%TO.N,Net-(U3-BOUT2)*%
X99797500Y-112305000D03*
%TO.P,J9,3*%
%TO.N,Net-(U3-BOUT1)*%
X102337500Y-112305000D03*
%TO.P,J9,2*%
%TO.N,Net-(U3-AOUT2)*%
X104877500Y-112305000D03*
D30*
%TO.P,J9,1*%
%TO.N,Net-(U3-AOUT1)*%
X107417500Y-112305000D03*
%TD*%
D26*
%TO.P,R35,2*%
%TO.N,+15V*%
X76140000Y-107837500D03*
%TO.P,R35,1*%
%TO.N,Net-(U5-VCP)*%
X76140000Y-109662500D03*
%TD*%
D37*
%TO.P,R6,2*%
%TO.N,Net-(U7-VDD)*%
X81412500Y-55110000D03*
%TO.P,R6,1*%
%TO.N,Net-(U7-RST)*%
X79587500Y-55110000D03*
%TD*%
D35*
%TO.P,RV3,3,3*%
%TO.N,unconnected-(RV3-Pad3)*%
X64600000Y-94140000D03*
%TO.P,RV3,2,2*%
%TO.N,GND*%
X67140000Y-91600000D03*
D36*
%TO.P,RV3,1,1*%
%TO.N,Net-(U5-AVREF)*%
X69680000Y-94140000D03*
%TD*%
D38*
%TO.P,R30,2*%
%TO.N,PB5*%
X80237500Y-109695000D03*
%TO.P,R30,1*%
%TO.N,PB8*%
X80237500Y-107870000D03*
%TD*%
D39*
%TO.P,R2,2*%
%TO.N,GND*%
X83087500Y-71350000D03*
%TO.P,R2,1*%
%TO.N,BOOT0*%
X84912500Y-71350000D03*
%TD*%
D40*
%TO.P,R12,2*%
%TO.N,GND*%
X128900000Y-105500000D03*
%TO.P,R12,1*%
%TO.N,Net-(U2-ISENA)*%
X125975000Y-105500000D03*
%TD*%
D26*
%TO.P,R3,2*%
%TO.N,+3V3*%
X91000000Y-82750000D03*
%TO.P,R3,1*%
%TO.N,Net-(D2-A)*%
X91000000Y-84575000D03*
%TD*%
D25*
%TO.P,C27,2*%
%TO.N,+15V*%
X93500000Y-90000000D03*
%TO.P,C27,1*%
%TO.N,GND*%
X93500000Y-92000000D03*
%TD*%
D28*
%TO.P,R25,2*%
%TO.N,Net-(U4-ISENB)*%
X91037500Y-103250000D03*
%TO.P,R25,1*%
%TO.N,GND*%
X93962500Y-103250000D03*
%TD*%
D35*
%TO.P,RV2,3,3*%
%TO.N,unconnected-(RV2-Pad3)*%
X82147500Y-94190000D03*
%TO.P,RV2,2,2*%
%TO.N,GND*%
X84687500Y-91650000D03*
D36*
%TO.P,RV2,1,1*%
%TO.N,Net-(U4-AVREF)*%
X87227500Y-94190000D03*
%TD*%
D26*
%TO.P,R17,2*%
%TO.N,+15V*%
X111167500Y-108005000D03*
%TO.P,R17,1*%
%TO.N,Net-(U3-VCP)*%
X111167500Y-109830000D03*
%TD*%
D28*
%TO.P,R34,2*%
%TO.N,Net-(U5-ISENB)*%
X73515000Y-103400000D03*
%TO.P,R34,1*%
%TO.N,GND*%
X76440000Y-103400000D03*
%TD*%
D41*
%TO.P,U2,50,EXP*%
%TO.N,GND*%
X119687500Y-101250000D03*
%TO.P,U2,49,EXP*%
X122287500Y-101250000D03*
%TO.P,U2,48,EXP*%
X119687500Y-102550000D03*
%TO.P,U2,47,EXP*%
X122287500Y-102550000D03*
%TO.P,U2,46,EXP*%
X119687500Y-103850000D03*
%TO.P,U2,45,EXP*%
X122287500Y-103850000D03*
%TO.P,U2,44,EXP*%
X119687500Y-105150000D03*
%TO.P,U2,43,EXP*%
X122287500Y-105150000D03*
%TO.P,U2,42,EXP*%
X122287500Y-106450000D03*
%TO.P,U2,41,EXP*%
X119687500Y-106450000D03*
%TO.P,U2,40,EXP*%
X119687500Y-107750000D03*
%TO.P,U2,39,EXP*%
X122287500Y-107750000D03*
%TO.P,U2,38,EXP*%
X119687500Y-109050000D03*
%TO.P,U2,37,EXP*%
X122287500Y-109050000D03*
%TO.P,U2,36,EXP*%
X120987500Y-101250000D03*
%TO.P,U2,35,EXP*%
X120987500Y-102550000D03*
%TO.P,U2,34,EXP*%
X120987500Y-103850000D03*
%TO.P,U2,33,EXP*%
X120987500Y-109050000D03*
%TO.P,U2,32,EXP*%
X120987500Y-107750000D03*
%TO.P,U2,31,EXP*%
X120987500Y-106450000D03*
%TO.P,U2,30,EXP*%
X120987500Y-105150000D03*
D42*
%TO.P,U2,29,EXP*%
X120987500Y-105150000D03*
D43*
%TO.P,U2,28,GND*%
X118187500Y-109375000D03*
%TO.P,U2,27,NHOME*%
%TO.N,PA7*%
X118187500Y-108725000D03*
%TO.P,U2,26,MODE2*%
%TO.N,+3V3*%
X118187500Y-108075000D03*
%TO.P,U2,25,MODE1*%
X118187500Y-107425000D03*
%TO.P,U2,24,MODE0*%
X118187500Y-106775000D03*
%TO.P,U2,23*%
%TO.N,N/C*%
X118187500Y-106125000D03*
%TO.P,U2,22,STEP*%
%TO.N,PC4*%
X118187500Y-105475000D03*
%TO.P,U2,21,NENBL*%
%TO.N,PC5*%
X118187500Y-104825000D03*
%TO.P,U2,20,DIR*%
%TO.N,DIR2*%
X118187500Y-104175000D03*
%TO.P,U2,19,DECAY*%
%TO.N,unconnected-(U2-DECAY-Pad19)*%
X118187500Y-103525000D03*
%TO.P,U2,18,NFAULT*%
%TO.N,Net-(U2-NFAULT)*%
X118187500Y-102875000D03*
%TO.P,U2,17,NSLEEP*%
%TO.N,PB10*%
X118187500Y-102225000D03*
%TO.P,U2,16,~{NRESET}*%
%TO.N,PA10*%
X118187500Y-101575000D03*
%TO.P,U2,15,V3P3OUT*%
%TO.N,unconnected-(U2-V3P3OUT-Pad15)*%
X118187500Y-100925000D03*
%TO.P,U2,14,GND*%
%TO.N,GND*%
X123787500Y-100925000D03*
%TO.P,U2,13,BVREF*%
%TO.N,Net-(U2-AVREF)*%
X123787500Y-101575000D03*
%TO.P,U2,12,AVREF*%
X123787500Y-102225000D03*
%TO.P,U2,11,VMB*%
%TO.N,+15V*%
X123787500Y-102875000D03*
%TO.P,U2,10,BOUT1*%
%TO.N,Net-(U2-BOUT1)*%
X123787500Y-103525000D03*
%TO.P,U2,9,ISENB*%
%TO.N,Net-(U2-ISENB)*%
X123787500Y-104175000D03*
%TO.P,U2,8,BOUT2*%
%TO.N,Net-(U2-BOUT2)*%
X123787500Y-104825000D03*
%TO.P,U2,7,AOUT2*%
%TO.N,Net-(U2-AOUT2)*%
X123787500Y-105475000D03*
%TO.P,U2,6,ISENA*%
%TO.N,Net-(U2-ISENA)*%
X123787500Y-106125000D03*
%TO.P,U2,5,AOUT1*%
%TO.N,Net-(U2-AOUT1)*%
X123787500Y-106775000D03*
%TO.P,U2,4,VMA*%
%TO.N,+15V*%
X123787500Y-107425000D03*
%TO.P,U2,3,VCP*%
%TO.N,Net-(U2-VCP)*%
X123787500Y-108075000D03*
%TO.P,U2,2,CP2*%
%TO.N,Net-(U2-CP2)*%
X123787500Y-108725000D03*
%TO.P,U2,1,CP1*%
%TO.N,Net-(U2-CP1)*%
X123787500Y-109375000D03*
%TD*%
D26*
%TO.P,R5,2*%
%TO.N,+3V3*%
X126687500Y-94837500D03*
%TO.P,R5,1*%
%TO.N,Net-(U2-AVREF)*%
X126687500Y-96662500D03*
%TD*%
D38*
%TO.P,R18,2*%
%TO.N,PA7*%
X115187500Y-109412500D03*
%TO.P,R18,1*%
%TO.N,PB10*%
X115187500Y-107587500D03*
%TD*%
D44*
%TO.P,Y1,2,2*%
%TO.N,PC14*%
X90750000Y-78500000D03*
%TO.P,Y1,1,1*%
%TO.N,PC15*%
X93250000Y-78500000D03*
%TD*%
D40*
%TO.P,R33,2*%
%TO.N,GND*%
X76440000Y-105700000D03*
%TO.P,R33,1*%
%TO.N,Net-(U5-ISENA)*%
X73515000Y-105700000D03*
%TD*%
D29*
%TO.P,J4,4*%
%TO.N,Net-(J5-D+)*%
X70990000Y-45080000D03*
%TO.P,J4,3*%
%TO.N,Net-(J5-GND)*%
X70990000Y-42540000D03*
%TO.P,J4,2*%
%TO.N,Net-(J5-D-)*%
X70990000Y-40000000D03*
D30*
%TO.P,J4,1*%
%TO.N,Net-(J5-VBUS)*%
X70990000Y-37460000D03*
%TD*%
D26*
%TO.P,R10,2*%
%TO.N,+3V3*%
X91637500Y-95095000D03*
%TO.P,R10,1*%
%TO.N,Net-(U4-AVREF)*%
X91637500Y-96920000D03*
%TD*%
D38*
%TO.P,R21,2*%
%TO.N,PC3*%
X97767500Y-109505000D03*
%TO.P,R21,1*%
%TO.N,PA5*%
X97767500Y-107680000D03*
%TD*%
D45*
%TO.P,S3,C*%
%TO.N,BOOT0*%
X89250000Y-56375000D03*
X83250000Y-56375000D03*
%TO.P,S3,A*%
%TO.N,+3V3*%
X89250000Y-52625000D03*
X83250000Y-52625000D03*
%TD*%
D28*
%TO.P,R16,2*%
%TO.N,Net-(U3-ISENB)*%
X108455000Y-103405000D03*
%TO.P,R16,1*%
%TO.N,GND*%
X111380000Y-103405000D03*
%TD*%
D38*
%TO.P,R39,2*%
%TO.N,PA15*%
X62640000Y-109625000D03*
%TO.P,R39,1*%
%TO.N,PC10*%
X62640000Y-107800000D03*
%TD*%
D29*
%TO.P,J8,4*%
%TO.N,Net-(U2-BOUT2)*%
X117317500Y-112250000D03*
%TO.P,J8,3*%
%TO.N,Net-(U2-BOUT1)*%
X119857500Y-112250000D03*
%TO.P,J8,2*%
%TO.N,Net-(U2-AOUT2)*%
X122397500Y-112250000D03*
D30*
%TO.P,J8,1*%
%TO.N,Net-(U2-AOUT1)*%
X124937500Y-112250000D03*
%TD*%
D40*
%TO.P,R24,2*%
%TO.N,GND*%
X93937500Y-105695000D03*
%TO.P,R24,1*%
%TO.N,Net-(U4-ISENA)*%
X91012500Y-105695000D03*
%TD*%
D35*
%TO.P,RV1,3,3*%
%TO.N,unconnected-(RV1-Pad3)*%
X117147500Y-93985000D03*
%TO.P,RV1,2,2*%
%TO.N,GND*%
X119687500Y-91445000D03*
D36*
%TO.P,RV1,1,1*%
%TO.N,Net-(U2-AVREF)*%
X122227500Y-93985000D03*
%TD*%
D29*
%TO.P,J15,4*%
%TO.N,Net-(U5-BOUT2)*%
X64720000Y-112400000D03*
%TO.P,J15,3*%
%TO.N,Net-(U5-BOUT1)*%
X67260000Y-112400000D03*
%TO.P,J15,2*%
%TO.N,Net-(U5-AOUT2)*%
X69800000Y-112400000D03*
D30*
%TO.P,J15,1*%
%TO.N,Net-(U5-AOUT1)*%
X72340000Y-112400000D03*
%TD*%
D37*
%TO.P,R40,2*%
%TO.N,Net-(U5-NFAULT)*%
X63840000Y-103200000D03*
%TO.P,R40,1*%
%TO.N,PB3*%
X62015000Y-103200000D03*
%TD*%
D40*
%TO.P,R15,2*%
%TO.N,GND*%
X111392500Y-105655000D03*
%TO.P,R15,1*%
%TO.N,Net-(U3-ISENA)*%
X108467500Y-105655000D03*
%TD*%
D37*
%TO.P,R9,2*%
%TO.N,Net-(U7-VDD)*%
X81461550Y-57116423D03*
%TO.P,R9,1*%
%TO.N,Net-(U7-RST)*%
X79636550Y-57116423D03*
%TD*%
D31*
%TO.P,D2,2,A*%
%TO.N,Net-(D2-A)*%
X89000000Y-85937500D03*
%TO.P,D2,1,K*%
%TO.N,GND*%
X89000000Y-84062500D03*
%TD*%
D45*
%TO.P,S2,D*%
%TO.N,N/C*%
X104250000Y-86125000D03*
%TO.P,S2,C*%
%TO.N,GND*%
X98250000Y-86125000D03*
%TO.P,S2,B*%
%TO.N,N/C*%
X104250000Y-82375000D03*
%TO.P,S2,A*%
%TO.N,~{RST}*%
X98250000Y-82375000D03*
%TD*%
D38*
%TO.P,R8,2*%
%TO.N,+3V3*%
X89000000Y-82412500D03*
%TO.P,R8,1*%
%TO.N,Net-(D1-A)*%
X89000000Y-80587500D03*
%TD*%
D46*
%TO.P,U1,64,VDD*%
%TO.N,+3V3*%
X87075000Y-73250000D03*
%TO.P,U1,63,VSS*%
%TO.N,GND*%
X87075000Y-72750000D03*
%TO.P,U1,62,PB9*%
%TO.N,PB9*%
X87075000Y-72250000D03*
%TO.P,U1,61,PB8*%
%TO.N,PB8*%
X87075000Y-71750000D03*
%TO.P,U1,60,BOOT0*%
%TO.N,BOOT0*%
X87075000Y-71250000D03*
%TO.P,U1,59,PB7*%
%TO.N,PB7*%
X87075000Y-70750000D03*
%TO.P,U1,58,PB6*%
%TO.N,PB6*%
X87075000Y-70250000D03*
%TO.P,U1,57,PB5*%
%TO.N,PB5*%
X87075000Y-69750000D03*
%TO.P,U1,56,PB4*%
%TO.N,PB4*%
X87075000Y-69250000D03*
%TO.P,U1,55,PB3*%
%TO.N,PB3*%
X87075000Y-68750000D03*
%TO.P,U1,54,PD2*%
%TO.N,DIR4*%
X87075000Y-68250000D03*
%TO.P,U1,53,PC12*%
%TO.N,PC12*%
X87075000Y-67750000D03*
%TO.P,U1,52,PC11*%
%TO.N,PC11*%
X87075000Y-67250000D03*
%TO.P,U1,51,PC10*%
%TO.N,PC10*%
X87075000Y-66750000D03*
%TO.P,U1,50,PA15*%
%TO.N,PA15*%
X87075000Y-66250000D03*
%TO.P,U1,49,PA14*%
%TO.N,PA14*%
X87075000Y-65750000D03*
D47*
%TO.P,U1,48,VDD*%
%TO.N,+3V3*%
X89000000Y-63825000D03*
%TO.P,U1,47,VSS*%
%TO.N,GND*%
X89500000Y-63825000D03*
%TO.P,U1,46,PA13*%
%TO.N,PA13*%
X90000000Y-63825000D03*
%TO.P,U1,45,PA12*%
%TO.N,PA12*%
X90500000Y-63825000D03*
%TO.P,U1,44,PA11*%
%TO.N,PA11*%
X91000000Y-63825000D03*
%TO.P,U1,43,PA10*%
%TO.N,PA10*%
X91500000Y-63825000D03*
%TO.P,U1,42,PA9*%
%TO.N,PA9*%
X92000000Y-63825000D03*
%TO.P,U1,41,PA8*%
%TO.N,PA8*%
X92500000Y-63825000D03*
%TO.P,U1,40,PC9*%
%TO.N,PC9*%
X93000000Y-63825000D03*
%TO.P,U1,39,PC8*%
%TO.N,PC8*%
X93500000Y-63825000D03*
%TO.P,U1,38,PC7*%
%TO.N,PC7*%
X94000000Y-63825000D03*
%TO.P,U1,37,PC6*%
%TO.N,PC6*%
X94500000Y-63825000D03*
%TO.P,U1,36,PB15*%
%TO.N,PB15*%
X95000000Y-63825000D03*
%TO.P,U1,35,PB14*%
%TO.N,PB14*%
X95500000Y-63825000D03*
%TO.P,U1,34,PB13*%
%TO.N,PB13*%
X96000000Y-63825000D03*
%TO.P,U1,33,PB12*%
%TO.N,PB12*%
X96500000Y-63825000D03*
D46*
%TO.P,U1,32,VDD*%
%TO.N,+3V3*%
X98425000Y-65750000D03*
%TO.P,U1,31,VSS*%
%TO.N,GND*%
X98425000Y-66250000D03*
%TO.P,U1,30,VCAP1*%
%TO.N,Net-(U1-VCAP1)*%
X98425000Y-66750000D03*
%TO.P,U1,29,PB10*%
%TO.N,PB10*%
X98425000Y-67250000D03*
%TO.P,U1,28,PB2*%
%TO.N,PB2*%
X98425000Y-67750000D03*
%TO.P,U1,27,PB1*%
%TO.N,PB1*%
X98425000Y-68250000D03*
%TO.P,U1,26,PB0*%
%TO.N,DIR2*%
X98425000Y-68750000D03*
%TO.P,U1,25,PC5*%
%TO.N,PC5*%
X98425000Y-69250000D03*
%TO.P,U1,24,PC4*%
%TO.N,PC4*%
X98425000Y-69750000D03*
%TO.P,U1,23,PA7*%
%TO.N,PA7*%
X98425000Y-70250000D03*
%TO.P,U1,22,PA6*%
%TO.N,PA6*%
X98425000Y-70750000D03*
%TO.P,U1,21,PA5*%
%TO.N,PA5*%
X98425000Y-71250000D03*
%TO.P,U1,20,PA4*%
%TO.N,PA4*%
X98425000Y-71750000D03*
%TO.P,U1,19,VDD*%
%TO.N,+3V3*%
X98425000Y-72250000D03*
%TO.P,U1,18,VSS*%
%TO.N,GND*%
X98425000Y-72750000D03*
%TO.P,U1,17,PA3*%
%TO.N,DIR1*%
X98425000Y-73250000D03*
D47*
%TO.P,U1,16,PA2*%
%TO.N,PA2*%
X96500000Y-75175000D03*
%TO.P,U1,15,PA1*%
%TO.N,PA1*%
X96000000Y-75175000D03*
%TO.P,U1,14,PA0*%
%TO.N,PA0*%
X95500000Y-75175000D03*
%TO.P,U1,13,VDDA*%
%TO.N,VREF+*%
X95000000Y-75175000D03*
%TO.P,U1,12,VSSA*%
%TO.N,GND*%
X94500000Y-75175000D03*
%TO.P,U1,11,PC3*%
%TO.N,PC3*%
X94000000Y-75175000D03*
%TO.P,U1,10,PC2*%
%TO.N,PC2*%
X93500000Y-75175000D03*
%TO.P,U1,9,PC1*%
%TO.N,DIR3*%
X93000000Y-75175000D03*
%TO.P,U1,8,PC0*%
%TO.N,PC0*%
X92500000Y-75175000D03*
%TO.P,U1,7,NRST*%
%TO.N,~{RST}*%
X92000000Y-75175000D03*
%TO.P,U1,6,PH1*%
%TO.N,PH1*%
X91500000Y-75175000D03*
%TO.P,U1,5,PH0*%
%TO.N,PH0*%
X91000000Y-75175000D03*
%TO.P,U1,4,PC15*%
%TO.N,PC15*%
X90500000Y-75175000D03*
%TO.P,U1,3,PC14*%
%TO.N,PC14*%
X90000000Y-75175000D03*
%TO.P,U1,2,PC13*%
%TO.N,PC13*%
X89500000Y-75175000D03*
%TO.P,U1,1,VBAT*%
%TO.N,unconnected-(U1-VBAT-Pad1)*%
X89000000Y-75175000D03*
%TD*%
D37*
%TO.P,R22,2*%
%TO.N,Net-(U3-NFAULT)*%
X98767500Y-103205000D03*
%TO.P,R22,1*%
%TO.N,PA4*%
X96942500Y-103205000D03*
%TD*%
D41*
%TO.P,U3,50,EXP*%
%TO.N,GND*%
X102167500Y-101430000D03*
%TO.P,U3,49,EXP*%
X104767500Y-101430000D03*
%TO.P,U3,48,EXP*%
X102167500Y-102730000D03*
%TO.P,U3,47,EXP*%
X104767500Y-102730000D03*
%TO.P,U3,46,EXP*%
X102167500Y-104030000D03*
%TO.P,U3,45,EXP*%
X104767500Y-104030000D03*
%TO.P,U3,44,EXP*%
X102167500Y-105330000D03*
%TO.P,U3,43,EXP*%
X104767500Y-105330000D03*
%TO.P,U3,42,EXP*%
X104767500Y-106630000D03*
%TO.P,U3,41,EXP*%
X102167500Y-106630000D03*
%TO.P,U3,40,EXP*%
X102167500Y-107930000D03*
%TO.P,U3,39,EXP*%
X104767500Y-107930000D03*
%TO.P,U3,38,EXP*%
X102167500Y-109230000D03*
%TO.P,U3,37,EXP*%
X104767500Y-109230000D03*
%TO.P,U3,36,EXP*%
X103467500Y-101430000D03*
%TO.P,U3,35,EXP*%
X103467500Y-102730000D03*
%TO.P,U3,34,EXP*%
X103467500Y-104030000D03*
%TO.P,U3,33,EXP*%
X103467500Y-109230000D03*
%TO.P,U3,32,EXP*%
X103467500Y-107930000D03*
%TO.P,U3,31,EXP*%
X103467500Y-106630000D03*
%TO.P,U3,30,EXP*%
X103467500Y-105330000D03*
D42*
%TO.P,U3,29,EXP*%
X103467500Y-105330000D03*
D43*
%TO.P,U3,28,GND*%
X100667500Y-109555000D03*
%TO.P,U3,27,NHOME*%
%TO.N,PC3*%
X100667500Y-108905000D03*
%TO.P,U3,26,MODE2*%
%TO.N,+3V3*%
X100667500Y-108255000D03*
%TO.P,U3,25,MODE1*%
X100667500Y-107605000D03*
%TO.P,U3,24,MODE0*%
X100667500Y-106955000D03*
%TO.P,U3,23*%
%TO.N,N/C*%
X100667500Y-106305000D03*
%TO.P,U3,22,STEP*%
%TO.N,PA1*%
X100667500Y-105655000D03*
%TO.P,U3,21,NENBL*%
%TO.N,PA2*%
X100667500Y-105005000D03*
%TO.P,U3,20,DIR*%
%TO.N,DIR1*%
X100667500Y-104355000D03*
%TO.P,U3,19,DECAY*%
%TO.N,unconnected-(U3-DECAY-Pad19)*%
X100667500Y-103705000D03*
%TO.P,U3,18,NFAULT*%
%TO.N,Net-(U3-NFAULT)*%
X100667500Y-103055000D03*
%TO.P,U3,17,NSLEEP*%
%TO.N,PA5*%
X100667500Y-102405000D03*
%TO.P,U3,16,~{NRESET}*%
%TO.N,PA6*%
X100667500Y-101755000D03*
%TO.P,U3,15,V3P3OUT*%
%TO.N,unconnected-(U3-V3P3OUT-Pad15)*%
X100667500Y-101105000D03*
%TO.P,U3,14,GND*%
%TO.N,GND*%
X106267500Y-101105000D03*
%TO.P,U3,13,BVREF*%
%TO.N,Net-(U3-AVREF)*%
X106267500Y-101755000D03*
%TO.P,U3,12,AVREF*%
X106267500Y-102405000D03*
%TO.P,U3,11,VMB*%
%TO.N,+15V*%
X106267500Y-103055000D03*
%TO.P,U3,10,BOUT1*%
%TO.N,Net-(U3-BOUT1)*%
X106267500Y-103705000D03*
%TO.P,U3,9,ISENB*%
%TO.N,Net-(U3-ISENB)*%
X106267500Y-104355000D03*
%TO.P,U3,8,BOUT2*%
%TO.N,Net-(U3-BOUT2)*%
X106267500Y-105005000D03*
%TO.P,U3,7,AOUT2*%
%TO.N,Net-(U3-AOUT2)*%
X106267500Y-105655000D03*
%TO.P,U3,6,ISENA*%
%TO.N,Net-(U3-ISENA)*%
X106267500Y-106305000D03*
%TO.P,U3,5,AOUT1*%
%TO.N,Net-(U3-AOUT1)*%
X106267500Y-106955000D03*
%TO.P,U3,4,VMA*%
%TO.N,+15V*%
X106267500Y-107605000D03*
%TO.P,U3,3,VCP*%
%TO.N,Net-(U3-VCP)*%
X106267500Y-108255000D03*
%TO.P,U3,2,CP2*%
%TO.N,Net-(U3-CP2)*%
X106267500Y-108905000D03*
%TO.P,U3,1,CP1*%
%TO.N,Net-(U3-CP1)*%
X106267500Y-109555000D03*
%TD*%
D41*
%TO.P,U5,50,EXP*%
%TO.N,GND*%
X67190000Y-101430000D03*
%TO.P,U5,49,EXP*%
X69790000Y-101430000D03*
%TO.P,U5,48,EXP*%
X67190000Y-102730000D03*
%TO.P,U5,47,EXP*%
X69790000Y-102730000D03*
%TO.P,U5,46,EXP*%
X67190000Y-104030000D03*
%TO.P,U5,45,EXP*%
X69790000Y-104030000D03*
%TO.P,U5,44,EXP*%
X67190000Y-105330000D03*
%TO.P,U5,43,EXP*%
X69790000Y-105330000D03*
%TO.P,U5,42,EXP*%
X69790000Y-106630000D03*
%TO.P,U5,41,EXP*%
X67190000Y-106630000D03*
%TO.P,U5,40,EXP*%
X67190000Y-107930000D03*
%TO.P,U5,39,EXP*%
X69790000Y-107930000D03*
%TO.P,U5,38,EXP*%
X67190000Y-109230000D03*
%TO.P,U5,37,EXP*%
X69790000Y-109230000D03*
%TO.P,U5,36,EXP*%
X68490000Y-101430000D03*
%TO.P,U5,35,EXP*%
X68490000Y-102730000D03*
%TO.P,U5,34,EXP*%
X68490000Y-104030000D03*
%TO.P,U5,33,EXP*%
X68490000Y-109230000D03*
%TO.P,U5,32,EXP*%
X68490000Y-107930000D03*
%TO.P,U5,31,EXP*%
X68490000Y-106630000D03*
%TO.P,U5,30,EXP*%
X68490000Y-105330000D03*
D42*
%TO.P,U5,29,EXP*%
X68490000Y-105330000D03*
D43*
%TO.P,U5,28,GND*%
X65690000Y-109555000D03*
%TO.P,U5,27,NHOME*%
%TO.N,PA15*%
X65690000Y-108905000D03*
%TO.P,U5,26,MODE2*%
%TO.N,+3V3*%
X65690000Y-108255000D03*
%TO.P,U5,25,MODE1*%
X65690000Y-107605000D03*
%TO.P,U5,24,MODE0*%
X65690000Y-106955000D03*
%TO.P,U5,23*%
%TO.N,N/C*%
X65690000Y-106305000D03*
%TO.P,U5,22,STEP*%
%TO.N,PC11*%
X65690000Y-105655000D03*
%TO.P,U5,21,NENBL*%
%TO.N,PC12*%
X65690000Y-105005000D03*
%TO.P,U5,20,DIR*%
%TO.N,DIR4*%
X65690000Y-104355000D03*
%TO.P,U5,19,DECAY*%
%TO.N,unconnected-(U5-DECAY-Pad19)*%
X65690000Y-103705000D03*
%TO.P,U5,18,NFAULT*%
%TO.N,Net-(U5-NFAULT)*%
X65690000Y-103055000D03*
%TO.P,U5,17,NSLEEP*%
%TO.N,PC10*%
X65690000Y-102405000D03*
%TO.P,U5,16,~{NRESET}*%
%TO.N,PB4*%
X65690000Y-101755000D03*
%TO.P,U5,15,V3P3OUT*%
%TO.N,unconnected-(U5-V3P3OUT-Pad15)*%
X65690000Y-101105000D03*
%TO.P,U5,14,GND*%
%TO.N,GND*%
X71290000Y-101105000D03*
%TO.P,U5,13,BVREF*%
%TO.N,Net-(U5-AVREF)*%
X71290000Y-101755000D03*
%TO.P,U5,12,AVREF*%
X71290000Y-102405000D03*
%TO.P,U5,11,VMB*%
%TO.N,+15V*%
X71290000Y-103055000D03*
%TO.P,U5,10,BOUT1*%
%TO.N,Net-(U5-BOUT1)*%
X71290000Y-103705000D03*
%TO.P,U5,9,ISENB*%
%TO.N,Net-(U5-ISENB)*%
X71290000Y-104355000D03*
%TO.P,U5,8,BOUT2*%
%TO.N,Net-(U5-BOUT2)*%
X71290000Y-105005000D03*
%TO.P,U5,7,AOUT2*%
%TO.N,Net-(U5-AOUT2)*%
X71290000Y-105655000D03*
%TO.P,U5,6,ISENA*%
%TO.N,Net-(U5-ISENA)*%
X71290000Y-106305000D03*
%TO.P,U5,5,AOUT1*%
%TO.N,Net-(U5-AOUT1)*%
X71290000Y-106955000D03*
%TO.P,U5,4,VMA*%
%TO.N,+15V*%
X71290000Y-107605000D03*
%TO.P,U5,3,VCP*%
%TO.N,Net-(U5-VCP)*%
X71290000Y-108255000D03*
%TO.P,U5,2,CP2*%
%TO.N,Net-(U5-CP2)*%
X71290000Y-108905000D03*
%TO.P,U5,1,CP1*%
%TO.N,Net-(U5-CP1)*%
X71290000Y-109555000D03*
%TD*%
D32*
%TO.P,J2,5,Shield*%
%TO.N,GND*%
X114712500Y-61927500D03*
X102712500Y-61927500D03*
D33*
%TO.P,J2,4,GND*%
X107462500Y-64787500D03*
%TO.P,J2,3,D+*%
%TO.N,PA13*%
X109962500Y-64787500D03*
%TO.P,J2,2,D-*%
%TO.N,PA14*%
X109962500Y-66787500D03*
D34*
%TO.P,J2,1,VBUS*%
%TO.N,+3V3*%
X107462500Y-66787500D03*
%TD*%
D26*
%TO.P,R26,2*%
%TO.N,+15V*%
X93750000Y-107837500D03*
%TO.P,R26,1*%
%TO.N,Net-(U4-VCP)*%
X93750000Y-109662500D03*
%TD*%
%TO.P,R11,2*%
%TO.N,+3V3*%
X74240000Y-95100000D03*
%TO.P,R11,1*%
%TO.N,Net-(U5-AVREF)*%
X74240000Y-96925000D03*
%TD*%
D48*
%TO.P,Y2,4,4*%
%TO.N,GND*%
X96600000Y-77750000D03*
%TO.P,Y2,3,3*%
%TO.N,PH0*%
X96600000Y-79950000D03*
%TO.P,Y2,2,2*%
%TO.N,GND*%
X94900000Y-79950000D03*
%TO.P,Y2,1,1*%
%TO.N,PH1*%
X94900000Y-77750000D03*
%TD*%
D25*
%TO.P,C18,2*%
%TO.N,+15V*%
X128500000Y-90000000D03*
%TO.P,C18,1*%
%TO.N,GND*%
X128500000Y-92000000D03*
%TD*%
D23*
%TO.P,D3,2,A*%
%TO.N,PB1*%
X114500000Y-101000000D03*
%TO.P,D3,1,K*%
%TO.N,GND*%
X116375000Y-101000000D03*
%TD*%
D41*
%TO.P,U4,50,EXP*%
%TO.N,GND*%
X84687500Y-101525000D03*
%TO.P,U4,49,EXP*%
X87287500Y-101525000D03*
%TO.P,U4,48,EXP*%
X84687500Y-102825000D03*
%TO.P,U4,47,EXP*%
X87287500Y-102825000D03*
%TO.P,U4,46,EXP*%
X84687500Y-104125000D03*
%TO.P,U4,45,EXP*%
X87287500Y-104125000D03*
%TO.P,U4,44,EXP*%
X84687500Y-105425000D03*
%TO.P,U4,43,EXP*%
X87287500Y-105425000D03*
%TO.P,U4,42,EXP*%
X87287500Y-106725000D03*
%TO.P,U4,41,EXP*%
X84687500Y-106725000D03*
%TO.P,U4,40,EXP*%
X84687500Y-108025000D03*
%TO.P,U4,39,EXP*%
X87287500Y-108025000D03*
%TO.P,U4,38,EXP*%
X84687500Y-109325000D03*
%TO.P,U4,37,EXP*%
X87287500Y-109325000D03*
%TO.P,U4,36,EXP*%
X85987500Y-101525000D03*
%TO.P,U4,35,EXP*%
X85987500Y-102825000D03*
%TO.P,U4,34,EXP*%
X85987500Y-104125000D03*
%TO.P,U4,33,EXP*%
X85987500Y-109325000D03*
%TO.P,U4,32,EXP*%
X85987500Y-108025000D03*
%TO.P,U4,31,EXP*%
X85987500Y-106725000D03*
%TO.P,U4,30,EXP*%
X85987500Y-105425000D03*
D42*
%TO.P,U4,29,EXP*%
X85987500Y-105425000D03*
D43*
%TO.P,U4,28,GND*%
X83187500Y-109650000D03*
%TO.P,U4,27,NHOME*%
%TO.N,PB5*%
X83187500Y-109000000D03*
%TO.P,U4,26,MODE2*%
%TO.N,+3V3*%
X83187500Y-108350000D03*
%TO.P,U4,25,MODE1*%
X83187500Y-107700000D03*
%TO.P,U4,24,MODE0*%
X83187500Y-107050000D03*
%TO.P,U4,23*%
%TO.N,N/C*%
X83187500Y-106400000D03*
%TO.P,U4,22,STEP*%
%TO.N,PB9*%
X83187500Y-105750000D03*
%TO.P,U4,21,NENBL*%
%TO.N,PC0*%
X83187500Y-105100000D03*
%TO.P,U4,20,DIR*%
%TO.N,DIR3*%
X83187500Y-104450000D03*
%TO.P,U4,19,DECAY*%
%TO.N,unconnected-(U4-DECAY-Pad19)*%
X83187500Y-103800000D03*
%TO.P,U4,18,NFAULT*%
%TO.N,Net-(U4-NFAULT)*%
X83187500Y-103150000D03*
%TO.P,U4,17,NSLEEP*%
%TO.N,PB8*%
X83187500Y-102500000D03*
%TO.P,U4,16,~{NRESET}*%
%TO.N,PC2*%
X83187500Y-101850000D03*
%TO.P,U4,15,V3P3OUT*%
%TO.N,unconnected-(U4-V3P3OUT-Pad15)*%
X83187500Y-101200000D03*
%TO.P,U4,14,GND*%
%TO.N,GND*%
X88787500Y-101200000D03*
%TO.P,U4,13,BVREF*%
%TO.N,Net-(U4-AVREF)*%
X88787500Y-101850000D03*
%TO.P,U4,12,AVREF*%
X88787500Y-102500000D03*
%TO.P,U4,11,VMB*%
%TO.N,+15V*%
X88787500Y-103150000D03*
%TO.P,U4,10,BOUT1*%
%TO.N,Net-(U4-BOUT1)*%
X88787500Y-103800000D03*
%TO.P,U4,9,ISENB*%
%TO.N,Net-(U4-ISENB)*%
X88787500Y-104450000D03*
%TO.P,U4,8,BOUT2*%
%TO.N,Net-(U4-BOUT2)*%
X88787500Y-105100000D03*
%TO.P,U4,7,AOUT2*%
%TO.N,Net-(U4-AOUT2)*%
X88787500Y-105750000D03*
%TO.P,U4,6,ISENA*%
%TO.N,Net-(U4-ISENA)*%
X88787500Y-106400000D03*
%TO.P,U4,5,AOUT1*%
%TO.N,Net-(U4-AOUT1)*%
X88787500Y-107050000D03*
%TO.P,U4,4,VMA*%
%TO.N,+15V*%
X88787500Y-107700000D03*
%TO.P,U4,3,VCP*%
%TO.N,Net-(U4-VCP)*%
X88787500Y-108350000D03*
%TO.P,U4,2,CP2*%
%TO.N,Net-(U4-CP2)*%
X88787500Y-109000000D03*
%TO.P,U4,1,CP1*%
%TO.N,Net-(U4-CP1)*%
X88787500Y-109650000D03*
%TD*%
D26*
%TO.P,R7,2*%
%TO.N,+3V3*%
X109067500Y-94992500D03*
%TO.P,R7,1*%
%TO.N,Net-(U3-AVREF)*%
X109067500Y-96817500D03*
%TD*%
D23*
%TO.P,D4,2,A*%
%TO.N,PA4*%
X96900000Y-101200000D03*
%TO.P,D4,1,K*%
%TO.N,GND*%
X98775000Y-101200000D03*
%TD*%
D49*
%TO.P,U7,29,GND_PAD*%
%TO.N,GND*%
X82742000Y-61350000D03*
D50*
%TO.P,U7,28,~{DTR}*%
%TO.N,PC8*%
X85242000Y-59850000D03*
%TO.P,U7,27,~{DSR}*%
%TO.N,PC9*%
X85242000Y-60350000D03*
%TO.P,U7,26,TXD*%
%TO.N,PC6*%
X85242000Y-60850000D03*
%TO.P,U7,25,RXD*%
%TO.N,PC7*%
X85242000Y-61350000D03*
%TO.P,U7,24,~{RTS}*%
%TO.N,PA8*%
X85242000Y-61850000D03*
%TO.P,U7,23,~{CTS}*%
%TO.N,PA9*%
X85242000Y-62350000D03*
%TO.P,U7,22,NC*%
%TO.N,unconnected-(U7-NC-Pad22)*%
X85242000Y-62850000D03*
D51*
%TO.P,U7,21,NC*%
%TO.N,unconnected-(U7-NC-Pad21)*%
X84242000Y-63850000D03*
%TO.P,U7,20,NC*%
%TO.N,unconnected-(U7-NC-Pad20)*%
X83742000Y-63850000D03*
%TO.P,U7,19,NC*%
%TO.N,unconnected-(U7-NC-Pad19)*%
X83242000Y-63850000D03*
%TO.P,U7,18,VPP*%
%TO.N,GND*%
X82742000Y-63850000D03*
%TO.P,U7,17,NC*%
%TO.N,unconnected-(U7-NC-Pad17)*%
X82242000Y-63850000D03*
%TO.P,U7,16,NC*%
%TO.N,unconnected-(U7-NC-Pad16)*%
X81742000Y-63850000D03*
%TO.P,U7,15,NC*%
%TO.N,unconnected-(U7-NC-Pad15)*%
X81242000Y-63850000D03*
D50*
%TO.P,U7,14,NC*%
%TO.N,unconnected-(U7-NC-Pad14)*%
X80242000Y-62850000D03*
%TO.P,U7,13,NC*%
%TO.N,unconnected-(U7-NC-Pad13)*%
X80242000Y-62350000D03*
%TO.P,U7,12,SUSPEND*%
%TO.N,PB13*%
X80242000Y-61850000D03*
%TO.P,U7,11,~{SUSPEND}*%
%TO.N,PB12*%
X80242000Y-61350000D03*
%TO.P,U7,10,NC*%
%TO.N,unconnected-(U7-NC-Pad10)*%
X80242000Y-60850000D03*
%TO.P,U7,9,RST*%
%TO.N,Net-(U7-RST)*%
X80242000Y-60350000D03*
%TO.P,U7,8,VBUS*%
%TO.N,+5V*%
X80242000Y-59850000D03*
D51*
%TO.P,U7,7,REGIN*%
X81242000Y-58850000D03*
%TO.P,U7,6,VDD*%
%TO.N,Net-(U7-VDD)*%
X81742000Y-58850000D03*
%TO.P,U7,5,D-*%
%TO.N,Net-(J1-D-)*%
X82242000Y-58850000D03*
%TO.P,U7,4,D+*%
%TO.N,Net-(J1-D+)*%
X82742000Y-58850000D03*
%TO.P,U7,3,GND*%
%TO.N,GND*%
X83242000Y-58850000D03*
%TO.P,U7,2,~{RI}*%
%TO.N,PB14*%
X83742000Y-58850000D03*
%TO.P,U7,1,~{DCD}*%
%TO.N,PB15*%
X84242000Y-58850000D03*
%TD*%
D45*
%TO.P,S1,D*%
%TO.N,N/C*%
X104250000Y-80375000D03*
%TO.P,S1,C*%
%TO.N,GND*%
X98250000Y-80375000D03*
%TO.P,S1,B*%
%TO.N,N/C*%
X104250000Y-76625000D03*
%TO.P,S1,A*%
%TO.N,PA0*%
X98250000Y-76625000D03*
%TD*%
D37*
%TO.P,R31,2*%
%TO.N,Net-(U4-NFAULT)*%
X81347818Y-103200000D03*
%TO.P,R31,1*%
%TO.N,PB7*%
X79522818Y-103200000D03*
%TD*%
D39*
%TO.P,R1,2*%
%TO.N,PB2*%
X100837500Y-69500000D03*
%TO.P,R1,1*%
%TO.N,GND*%
X102662500Y-69500000D03*
%TD*%
D35*
%TO.P,RV4,3,3*%
%TO.N,PB6*%
X82250000Y-78170000D03*
%TO.P,RV4,2,2*%
%TO.N,GND*%
X84790000Y-80710000D03*
D36*
%TO.P,RV4,1,1*%
%TO.N,unconnected-(RV4-Pad1)*%
X82250000Y-83250000D03*
%TD*%
D34*
%TO.P,J5,1,VBUS*%
%TO.N,Net-(J5-VBUS)*%
X66240000Y-37500000D03*
D33*
%TO.P,J5,2,D-*%
%TO.N,Net-(J5-D-)*%
X66240000Y-40000000D03*
%TO.P,J5,3,D+*%
%TO.N,Net-(J5-D+)*%
X66240000Y-42000000D03*
%TO.P,J5,4,GND*%
%TO.N,Net-(J5-GND)*%
X66240000Y-44500000D03*
D52*
%TO.P,J5,5,Shield*%
X63530000Y-34430000D03*
X63530000Y-47570000D03*
%TD*%
D53*
%TO.N,GND*%
X95000000Y-78877002D03*
X95000000Y-83723000D03*
%TO.N,PH0*%
X95552000Y-81210000D03*
X90656461Y-73979474D03*
%TO.N,~{RST}*%
X91646681Y-85488328D03*
X91504217Y-73973000D03*
D54*
%TO.N,GND*%
X94500000Y-98000000D03*
D53*
X100750000Y-66250000D03*
D54*
X102250000Y-88750000D03*
D53*
X89500000Y-66104000D03*
D54*
X129423000Y-97750000D03*
D53*
X85660882Y-64134818D03*
X100954415Y-67925000D03*
D54*
X77000000Y-98000000D03*
X119625000Y-88875000D03*
D53*
X88750000Y-72802000D03*
X84000000Y-73500000D03*
D54*
X112000000Y-97750000D03*
D53*
X94500000Y-76376999D03*
X82750000Y-65000000D03*
X106064925Y-66170573D03*
D54*
X84750000Y-88750000D03*
D53*
%TO.N,PB1*%
X114250000Y-99750000D03*
X97223000Y-68745783D03*
%TO.N,PA4*%
X97510000Y-100045000D03*
X97082834Y-72038834D03*
%TO.N,PB9*%
X81810000Y-106145000D03*
X90000000Y-72698000D03*
%TO.N,+3V3*%
X99167500Y-107642500D03*
X109167500Y-95865500D03*
X99500000Y-72250000D03*
X102948000Y-77750000D03*
X116687500Y-107500000D03*
X101467000Y-77750000D03*
X102948000Y-74750000D03*
X78956000Y-79500000D03*
X74190000Y-95926000D03*
X126687500Y-95723000D03*
X64190000Y-107703000D03*
X94023323Y-65325323D03*
X81687500Y-107737500D03*
X87837500Y-82412500D03*
X96250000Y-72000000D03*
X91687500Y-95960500D03*
X88173000Y-63825000D03*
X93986141Y-83750000D03*
X87851500Y-74950500D03*
%TO.N,PB3*%
X64821224Y-97571224D03*
X85181000Y-69189491D03*
%TO.N,PA14*%
X106250000Y-68014502D03*
X100000000Y-66802000D03*
X90000000Y-66802000D03*
%TO.N,PB5*%
X88488000Y-69952000D03*
X80060000Y-108895000D03*
%TO.N,PB6*%
X88431000Y-70887000D03*
X69750000Y-75250000D03*
%TO.N,BOOT0*%
X88500000Y-71698000D03*
X84230682Y-57546000D03*
%TO.N,Net-(J1-D-)*%
X82531573Y-57687779D03*
%TO.N,Net-(U3-AOUT1)*%
X108249162Y-107041920D03*
%TO.N,Net-(U2-AOUT1)*%
X125769162Y-106899420D03*
%TO.N,Net-(U2-AOUT2)*%
X124985500Y-105672148D03*
%TO.N,Net-(U2-BOUT1)*%
X124970640Y-103539570D03*
%TO.N,Net-(U2-BOUT2)*%
X125001112Y-104729828D03*
%TO.N,Net-(U3-AOUT2)*%
X107465500Y-105814648D03*
%TO.N,Net-(U3-BOUT1)*%
X107450640Y-103682070D03*
%TO.N,Net-(U3-BOUT2)*%
X107481112Y-104872328D03*
%TO.N,DIR1*%
X98662000Y-74000000D03*
X99260000Y-104545000D03*
%TO.N,Net-(J1-D+)*%
X83328677Y-57828677D03*
%TO.N,Net-(U4-AOUT1)*%
X90769162Y-107136920D03*
%TO.N,Net-(U4-AOUT2)*%
X89985500Y-105909648D03*
%TO.N,Net-(U4-BOUT1)*%
X89970640Y-103777070D03*
%TO.N,Net-(U4-BOUT2)*%
X90001112Y-104967328D03*
%TO.N,Net-(U5-AOUT1)*%
X73271662Y-107102420D03*
%TO.N,Net-(U5-AOUT2)*%
X72488000Y-105875148D03*
%TO.N,Net-(U5-BOUT1)*%
X72473140Y-103742570D03*
%TO.N,Net-(U5-BOUT2)*%
X72503612Y-104932828D03*
%TO.N,Net-(U7-RST)*%
X79426500Y-58298000D03*
X79426500Y-60287734D03*
%TO.N,PB10*%
X116468474Y-98218474D03*
X97223000Y-67745783D03*
%TO.N,PA7*%
X99848000Y-71122056D03*
X115250000Y-108527000D03*
%TO.N,PA5*%
X98062000Y-102194487D03*
X97262766Y-71107939D03*
%TO.N,PC3*%
X97510000Y-108795000D03*
X93948000Y-74050828D03*
%TO.N,PB8*%
X80158560Y-102185170D03*
X85873000Y-72215615D03*
%TO.N,PC10*%
X62561226Y-102130232D03*
X85850414Y-66545586D03*
%TO.N,PA15*%
X62500000Y-108750000D03*
X85876153Y-65615818D03*
%TO.N,PC2*%
X83750000Y-100500000D03*
X93681000Y-76637000D03*
%TO.N,DIR2*%
X116854000Y-104250000D03*
X99681000Y-68302000D03*
%TO.N,PA2*%
X98614000Y-77500000D03*
X98708000Y-105243000D03*
%TO.N,PA6*%
X101443724Y-100201613D03*
X97227592Y-70105156D03*
%TO.N,DIR3*%
X81810000Y-104645000D03*
X92750000Y-76581657D03*
%TO.N,PB13*%
X79314998Y-62250000D03*
X96517040Y-62623000D03*
%TO.N,DIR4*%
X85725610Y-68579924D03*
X64250000Y-104500000D03*
%TO.N,PB14*%
X85500000Y-57750000D03*
X95965040Y-62000000D03*
%TO.N,PC6*%
X91754354Y-61250000D03*
X86256480Y-60813983D03*
%TO.N,PC7*%
X92968098Y-65031902D03*
X86750000Y-61552000D03*
%TO.N,PC5*%
X116302000Y-104984677D03*
X99898000Y-69121677D03*
%TO.N,PC11*%
X64250000Y-106000000D03*
X85931000Y-67412000D03*
%TO.N,PB15*%
X95234677Y-62484677D03*
X85000000Y-58500000D03*
%TO.N,PB12*%
X97181000Y-63750000D03*
X79000000Y-61500000D03*
%TO.N,PA1*%
X99260000Y-106045000D03*
X96750000Y-76500000D03*
%TO.N,PC8*%
X94067699Y-62623000D03*
X85500000Y-59250000D03*
%TO.N,PC9*%
X93250000Y-62500000D03*
X86250000Y-59996000D03*
%TO.N,PA8*%
X87302000Y-62250000D03*
X92500000Y-62000000D03*
%TO.N,PA9*%
X92000000Y-65552000D03*
X86169002Y-62750000D03*
%TO.N,PA10*%
X91886558Y-62624132D03*
X118750000Y-100221131D03*
%TO.N,PC12*%
X63750000Y-105250000D03*
X88140448Y-67829469D03*
%TO.N,PB4*%
X88488000Y-68682000D03*
X66250000Y-100424131D03*
%TO.N,PB7*%
X85864303Y-70670491D03*
X80060000Y-100145000D03*
%TO.N,PC4*%
X99921072Y-70241000D03*
X116750000Y-105750000D03*
%TO.N,PC0*%
X81310000Y-105395000D03*
X92500000Y-74000000D03*
%TD*%
D55*
%TO.N,Net-(J5-D-)*%
X66240000Y-40000000D02*
X70990000Y-40000000D01*
%TO.N,Net-(J5-D+)*%
X70990000Y-45080000D02*
X69320000Y-45080000D01*
X69320000Y-45080000D02*
X66240000Y-42000000D01*
%TO.N,Net-(J5-VBUS)*%
X66240000Y-37500000D02*
X70950000Y-37500000D01*
X70950000Y-37500000D02*
X70990000Y-37460000D01*
%TO.N,Net-(J5-GND)*%
X63530000Y-34430000D02*
X63530000Y-44500000D01*
X63530000Y-44500000D02*
X63530000Y-47570000D01*
X66240000Y-44500000D02*
X63530000Y-44500000D01*
%TO.N,Net-(U1-VCAP1)*%
X103000000Y-73150000D02*
X103752000Y-72398000D01*
X105977000Y-71714862D02*
X105977000Y-70785138D01*
X102564862Y-67373000D02*
X99787526Y-67373000D01*
X103752000Y-72398000D02*
X105293862Y-72398000D01*
X105293862Y-72398000D02*
X105977000Y-71714862D01*
X105977000Y-70785138D02*
X102564862Y-67373000D01*
X99787526Y-67373000D02*
X99164526Y-66750000D01*
X99164526Y-66750000D02*
X98425000Y-66750000D01*
%TO.N,GND*%
X85660882Y-64134818D02*
X84795700Y-65000000D01*
X84795700Y-65000000D02*
X82750000Y-65000000D01*
%TO.N,+3V3*%
X89000000Y-63825000D02*
X86738818Y-63825000D01*
X86738818Y-63825000D02*
X86212882Y-64350936D01*
X86212882Y-64350936D02*
X86212882Y-64363464D01*
X86212882Y-64363464D02*
X85889528Y-64686818D01*
X85877000Y-64686818D02*
X85298414Y-65265404D01*
X85889528Y-64686818D02*
X85877000Y-64686818D01*
X85298414Y-67401586D02*
X83500000Y-69200000D01*
X85298414Y-65265404D02*
X85298414Y-67401586D01*
X83500000Y-69200000D02*
X83852000Y-69552000D01*
X83852000Y-69552000D02*
X83852000Y-72402000D01*
X83500000Y-69200000D02*
X81475000Y-69200000D01*
X81475000Y-69200000D02*
X81450000Y-69175000D01*
%TO.N,GND*%
X82750000Y-65000000D02*
X83500000Y-65000000D01*
X83500000Y-65000000D02*
X83500000Y-67300000D01*
X83500000Y-67300000D02*
X82800000Y-68000000D01*
X82800000Y-68000000D02*
X80462500Y-68000000D01*
%TO.N,+3V3*%
X89000000Y-82412500D02*
X90662500Y-82412500D01*
X90662500Y-82412500D02*
X91000000Y-82750000D01*
X87851500Y-74950500D02*
X87851500Y-74026500D01*
X87851500Y-74026500D02*
X87075000Y-73250000D01*
X87851500Y-74950500D02*
X83302000Y-79500000D01*
X83302000Y-79500000D02*
X78956000Y-79500000D01*
X87837500Y-82412500D02*
X89000000Y-82412500D01*
%TO.N,GND*%
X98250000Y-86125000D02*
X98250000Y-88750000D01*
X93500000Y-80270000D02*
X94580000Y-80270000D01*
X94580000Y-80270000D02*
X94900000Y-79950000D01*
X95000000Y-83723000D02*
X95000000Y-82750000D01*
X98250000Y-80375000D02*
X99002000Y-81127000D01*
X99002000Y-81127000D02*
X99002000Y-85373000D01*
X99002000Y-85373000D02*
X98250000Y-86125000D01*
%TO.N,PH1*%
X92500000Y-81230000D02*
X93032000Y-81762000D01*
X93032000Y-81762000D02*
X96488000Y-81762000D01*
X96488000Y-81762000D02*
X97452000Y-80798000D01*
X97452000Y-80798000D02*
X97452000Y-78998000D01*
X97452000Y-78998000D02*
X97204000Y-78750000D01*
X97204000Y-78750000D02*
X95900000Y-78750000D01*
X95900000Y-78750000D02*
X94900000Y-77750000D01*
%TO.N,PC0*%
X92500000Y-74000000D02*
X92500000Y-75175000D01*
%TO.N,PH0*%
X95552000Y-81210000D02*
X96600000Y-80162000D01*
X96600000Y-80162000D02*
X96600000Y-79950000D01*
X95552000Y-81210000D02*
X95650000Y-81112000D01*
%TO.N,~{RST}*%
X91646681Y-85488328D02*
X92485009Y-84650000D01*
X92485009Y-84650000D02*
X96050000Y-84650000D01*
X96050000Y-84650000D02*
X98250000Y-82450000D01*
X98250000Y-82450000D02*
X98250000Y-82375000D01*
%TO.N,Net-(D2-A)*%
X89000000Y-85937500D02*
X89637500Y-85937500D01*
X89637500Y-85937500D02*
X91000000Y-84575000D01*
%TO.N,+3V3*%
X93986141Y-83750000D02*
X93986141Y-83736141D01*
X93986141Y-83736141D02*
X93000000Y-82750000D01*
%TO.N,GND*%
X90500000Y-81230000D02*
X90378000Y-81352000D01*
X90378000Y-81352000D02*
X84938000Y-81352000D01*
X84938000Y-81352000D02*
X84790000Y-81500000D01*
%TO.N,PC14*%
X90500000Y-80270000D02*
X90500000Y-78750000D01*
X90500000Y-78750000D02*
X90750000Y-78500000D01*
%TO.N,PC15*%
X93250000Y-78500000D02*
X91500000Y-80250000D01*
X91500000Y-80250000D02*
X91500000Y-80270000D01*
%TO.N,GND*%
X92500000Y-80270000D02*
X93500000Y-80270000D01*
X91500000Y-81230000D02*
X91540000Y-81230000D01*
X91540000Y-81230000D02*
X92500000Y-80270000D01*
X90500000Y-81230000D02*
X91500000Y-81230000D01*
%TO.N,PH0*%
X93500000Y-81230000D02*
X95320000Y-81230000D01*
%TO.N,GND*%
X95000000Y-78877002D02*
X94900000Y-78977002D01*
X94900000Y-78977002D02*
X94900000Y-79950000D01*
%TO.N,PH1*%
X92520000Y-81250000D02*
X92520000Y-81210000D01*
X94400000Y-77250000D02*
X94900000Y-77750000D01*
X91500000Y-76500000D02*
X92250000Y-77250000D01*
X91500000Y-75175000D02*
X91500000Y-76500000D01*
X92250000Y-77250000D02*
X94400000Y-77250000D01*
%TO.N,PH0*%
X91000000Y-74323013D02*
X91000000Y-75175000D01*
X90656461Y-73979474D02*
X91000000Y-74323013D01*
%TO.N,Net-(U3-CP2)*%
X106267500Y-108867500D02*
X107071500Y-108867500D01*
X107071500Y-108867500D02*
X107319500Y-109115500D01*
X107319500Y-110044500D02*
X107775000Y-110500000D01*
X107775000Y-110500000D02*
X109475000Y-110500000D01*
X109475000Y-110500000D02*
X110417500Y-111442500D01*
X107319500Y-109115500D02*
X107319500Y-110044500D01*
%TO.N,Net-(U3-CP1)*%
X106267500Y-109517500D02*
X106267500Y-109992500D01*
X108489500Y-111000000D02*
X110417500Y-112928000D01*
X107275000Y-111000000D02*
X108489500Y-111000000D01*
X106267500Y-109992500D02*
X107275000Y-111000000D01*
X110417500Y-112928000D02*
X110417500Y-113342500D01*
%TO.N,~{RST}*%
X91712526Y-74148000D02*
X92000000Y-74435474D01*
X92000000Y-74435474D02*
X92000000Y-75175000D01*
X91679217Y-74148000D02*
X91712526Y-74148000D01*
X91504217Y-73973000D02*
X91679217Y-74148000D01*
D56*
%TO.N,GND*%
X128900000Y-101512500D02*
X128137500Y-100750000D01*
D55*
X80473000Y-74364000D02*
X81450000Y-73387000D01*
D56*
X67190000Y-96159872D02*
X63877500Y-99472372D01*
X68490000Y-105353000D02*
X68490000Y-107953000D01*
X77000000Y-98000000D02*
X76893000Y-98000000D01*
X102250000Y-88750000D02*
X97750000Y-88750000D01*
X102167500Y-96099372D02*
X103467500Y-97399372D01*
X76893000Y-98000000D02*
X75640000Y-99253000D01*
D55*
X80412500Y-69175000D02*
X79550000Y-69175000D01*
D56*
X81375000Y-99506872D02*
X81375000Y-101237500D01*
X97750000Y-88750000D02*
X84750000Y-88750000D01*
X84790000Y-84000000D02*
X84790000Y-81500000D01*
X75640000Y-99253000D02*
X75640000Y-100953000D01*
D55*
X100667500Y-109517500D02*
X101842500Y-109517500D01*
X94500000Y-75175000D02*
X94500000Y-73250000D01*
D56*
X72027500Y-71600000D02*
X72027500Y-66750000D01*
X67190000Y-91648000D02*
X67190000Y-96159872D01*
D55*
X103000000Y-71250000D02*
X103000000Y-69837500D01*
D56*
X116375000Y-99269372D02*
X116375000Y-101000000D01*
X65343000Y-80692000D02*
X67700000Y-78335000D01*
D55*
X81450000Y-71387000D02*
X83050500Y-71387000D01*
D56*
X93137500Y-100987500D02*
X93900000Y-101750000D01*
D55*
X100954415Y-67925000D02*
X101087500Y-67925000D01*
X119362500Y-109375000D02*
X119687500Y-109050000D01*
X102000000Y-71250000D02*
X101000000Y-71250000D01*
D56*
X94500000Y-98000000D02*
X94425000Y-98000000D01*
X93500000Y-92000000D02*
X93182500Y-91682500D01*
X120987500Y-107750000D02*
X119687500Y-109050000D01*
D55*
X83050000Y-73500000D02*
X84000000Y-73500000D01*
D56*
X67140000Y-91600000D02*
X65343000Y-89803000D01*
X85987500Y-107987500D02*
X84687500Y-109287500D01*
X85987500Y-105387500D02*
X85987500Y-107987500D01*
X84750000Y-88750000D02*
X84790000Y-88710000D01*
X70115000Y-101128000D02*
X69790000Y-101453000D01*
X72027500Y-66750000D02*
X72027500Y-59600000D01*
X68490000Y-97459872D02*
X68490000Y-105353000D01*
X63877500Y-99472372D02*
X63877500Y-101203000D01*
X67338000Y-91500000D02*
X67190000Y-91648000D01*
X128137500Y-99050000D02*
X128437500Y-98750000D01*
D55*
X96600000Y-77750000D02*
X96737158Y-77750000D01*
D56*
X110917500Y-92000000D02*
X110505000Y-91587500D01*
D55*
X99906138Y-72802000D02*
X98477000Y-72802000D01*
X89000000Y-84062500D02*
X84852500Y-84062500D01*
D56*
X94425000Y-98000000D02*
X93137500Y-99287500D01*
D55*
X100829427Y-66170573D02*
X100750000Y-66250000D01*
D56*
X129423000Y-97750000D02*
X128437500Y-98735500D01*
X119625000Y-88875000D02*
X119500000Y-88750000D01*
X75940000Y-91500000D02*
X67338000Y-91500000D01*
X123787500Y-100925000D02*
X122612500Y-100925000D01*
D55*
X80462500Y-70399500D02*
X81450000Y-71387000D01*
D56*
X119687500Y-95956872D02*
X120987500Y-97256872D01*
D55*
X83243050Y-58779923D02*
X83191550Y-58831423D01*
D56*
X87612500Y-101162500D02*
X87287500Y-101487500D01*
D55*
X94500000Y-76376999D02*
X94921001Y-76798000D01*
D56*
X120987500Y-97256872D02*
X120987500Y-105150000D01*
D55*
X81450000Y-71387000D02*
X81450000Y-73387000D01*
D56*
X84687500Y-91682500D02*
X84687500Y-96194372D01*
D55*
X99164526Y-66250000D02*
X98425000Y-66250000D01*
X97685474Y-72750000D02*
X98425000Y-72750000D01*
X101000000Y-71250000D02*
X101000000Y-71708138D01*
D56*
X120987500Y-105150000D02*
X120987500Y-107750000D01*
D55*
X94921001Y-76798000D02*
X95648000Y-76798000D01*
D56*
X112000000Y-97810000D02*
X110617500Y-99192500D01*
D55*
X72027500Y-71600000D02*
X74791500Y-74364000D01*
X82742000Y-63850000D02*
X82742000Y-61350000D01*
D56*
X127945000Y-91445000D02*
X119687500Y-91445000D01*
D55*
X82742000Y-64600000D02*
X82742000Y-63850000D01*
D56*
X98855000Y-99411872D02*
X98855000Y-101142500D01*
D55*
X83187500Y-109612500D02*
X84362500Y-109612500D01*
X97185474Y-73250000D02*
X97685474Y-72750000D01*
X89771354Y-73250000D02*
X94500000Y-73250000D01*
D56*
X68490000Y-107953000D02*
X67190000Y-109253000D01*
D55*
X101000000Y-71708138D02*
X99906138Y-72802000D01*
X103000000Y-71250000D02*
X102000000Y-71250000D01*
D56*
X67190000Y-96159872D02*
X68490000Y-97459872D01*
D55*
X84852500Y-84062500D02*
X84790000Y-84000000D01*
D56*
X84790000Y-81500000D02*
X84790000Y-80710000D01*
X75640000Y-100953000D02*
X76402500Y-101715500D01*
D55*
X89500000Y-66104000D02*
X89500000Y-63825000D01*
D56*
X122287500Y-101250000D02*
X120987500Y-101250000D01*
D55*
X82750000Y-65000000D02*
X82750000Y-64608000D01*
X102377000Y-73968862D02*
X102000000Y-73591862D01*
D56*
X67700000Y-78335000D02*
X67700000Y-75927500D01*
D55*
X98250000Y-79459302D02*
X98250000Y-80375000D01*
X87075000Y-72750000D02*
X88698000Y-72750000D01*
D56*
X110617500Y-99192500D02*
X110617500Y-100892500D01*
D55*
X83191550Y-58831423D02*
X83191550Y-60831423D01*
D56*
X110505000Y-91587500D02*
X102167500Y-91587500D01*
D55*
X83191550Y-60831423D02*
X82742000Y-61280973D01*
D56*
X72127500Y-66850000D02*
X72027500Y-66750000D01*
X93137500Y-99287500D02*
X93137500Y-100987500D01*
X104767500Y-101392500D02*
X103467500Y-101392500D01*
X102167500Y-91587500D02*
X102167500Y-96099372D01*
X128900000Y-103250000D02*
X128900000Y-101512500D01*
X87287500Y-101487500D02*
X85987500Y-101487500D01*
X85987500Y-97494372D02*
X85987500Y-105387500D01*
D55*
X100750000Y-66250000D02*
X98425000Y-66250000D01*
D56*
X84687500Y-96194372D02*
X85987500Y-97494372D01*
X74887500Y-66850000D02*
X72127500Y-66850000D01*
X69790000Y-101453000D02*
X68490000Y-101453000D01*
X70075000Y-80710000D02*
X84790000Y-80710000D01*
D55*
X88698000Y-72750000D02*
X88750000Y-72802000D01*
X94500000Y-76376999D02*
X94500000Y-75175000D01*
D56*
X103467500Y-97399372D02*
X103467500Y-105292500D01*
D55*
X83050000Y-73500000D02*
X81563000Y-73500000D01*
X65690000Y-109578000D02*
X66865000Y-109578000D01*
X96737158Y-77750000D02*
X98250000Y-79262842D01*
D56*
X88787500Y-101162500D02*
X87612500Y-101162500D01*
X102167500Y-96099372D02*
X98855000Y-99411872D01*
D55*
X80500000Y-66825000D02*
X80462500Y-66862500D01*
X98477000Y-72802000D02*
X98425000Y-72750000D01*
X83050500Y-71387000D02*
X83087500Y-71350000D01*
X99212500Y-62550000D02*
X102090000Y-62550000D01*
D56*
X112000000Y-97750000D02*
X112000000Y-97810000D01*
D55*
X103000000Y-69837500D02*
X102662500Y-69500000D01*
X102377000Y-75332302D02*
X102377000Y-73968862D01*
X105000000Y-71250000D02*
X103000000Y-71250000D01*
D56*
X84790000Y-88710000D02*
X84790000Y-84000000D01*
D55*
X80462500Y-66862500D02*
X80462500Y-70399500D01*
D56*
X119687500Y-95956872D02*
X116375000Y-99269372D01*
D55*
X89323354Y-72802000D02*
X89771354Y-73250000D01*
D56*
X75940000Y-92000000D02*
X75940000Y-91500000D01*
D55*
X81563000Y-73500000D02*
X81450000Y-73387000D01*
D56*
X122612500Y-100925000D02*
X122287500Y-101250000D01*
X128900000Y-105500000D02*
X128900000Y-103250000D01*
X128137500Y-100750000D02*
X128137500Y-99050000D01*
D55*
X84362500Y-109612500D02*
X84687500Y-109287500D01*
D56*
X128437500Y-98735500D02*
X128437500Y-98750000D01*
X93182500Y-91682500D02*
X84687500Y-91682500D01*
D55*
X82750000Y-64608000D02*
X82742000Y-64600000D01*
X94500000Y-73250000D02*
X97185474Y-73250000D01*
D56*
X65343000Y-89803000D02*
X65343000Y-80692000D01*
X76402500Y-101715500D02*
X76402500Y-105703000D01*
X103467500Y-107892500D02*
X102167500Y-109192500D01*
X105092500Y-101067500D02*
X104767500Y-101392500D01*
X93900000Y-101750000D02*
X93900000Y-105737500D01*
X111380000Y-101655000D02*
X111380000Y-105642500D01*
D55*
X102090000Y-62550000D02*
X102712500Y-61927500D01*
X74791500Y-74364000D02*
X80473000Y-74364000D01*
X98250000Y-79459302D02*
X102377000Y-75332302D01*
D56*
X106267500Y-101067500D02*
X105092500Y-101067500D01*
D55*
X106064925Y-66170573D02*
X100829427Y-66170573D01*
D56*
X119500000Y-88750000D02*
X102250000Y-88750000D01*
X84687500Y-96194372D02*
X81375000Y-99506872D01*
D55*
X101087500Y-67925000D02*
X102662500Y-69500000D01*
X101842500Y-109517500D02*
X102167500Y-109192500D01*
D56*
X67700000Y-75927500D02*
X72027500Y-71600000D01*
X71290000Y-101128000D02*
X70115000Y-101128000D01*
X103467500Y-105292500D02*
X103467500Y-107892500D01*
D55*
X88750000Y-72802000D02*
X89323354Y-72802000D01*
D56*
X67700000Y-78335000D02*
X70075000Y-80710000D01*
X128500000Y-92000000D02*
X127945000Y-91445000D01*
D55*
X95648000Y-76798000D02*
X96600000Y-77750000D01*
X89500000Y-62268000D02*
X89500000Y-63825000D01*
X118187500Y-109375000D02*
X119362500Y-109375000D01*
X66865000Y-109578000D02*
X67190000Y-109253000D01*
X102000000Y-73591862D02*
X102000000Y-71250000D01*
D56*
X110617500Y-100892500D02*
X111380000Y-101655000D01*
D55*
X90131000Y-61637000D02*
X89500000Y-62268000D01*
D56*
X119687500Y-91445000D02*
X119687500Y-95956872D01*
D55*
%TO.N,VREF+*%
X101687500Y-74750000D02*
X101687500Y-73837500D01*
X95000000Y-74402315D02*
X95000000Y-75175000D01*
X97909804Y-74552000D02*
X97128804Y-73771000D01*
X99598000Y-74552000D02*
X97909804Y-74552000D01*
X95631315Y-73771000D02*
X95000000Y-74402315D01*
X101687500Y-73837500D02*
X101000000Y-73150000D01*
X97128804Y-73771000D02*
X95631315Y-73771000D01*
X101000000Y-73150000D02*
X99598000Y-74552000D01*
%TO.N,PA0*%
X97733000Y-76108000D02*
X98250000Y-76625000D01*
X95787474Y-74148000D02*
X96972646Y-74148000D01*
X95500000Y-74435474D02*
X95787474Y-74148000D01*
X97733000Y-74908354D02*
X97733000Y-76108000D01*
X96972646Y-74148000D02*
X97733000Y-74908354D01*
X95500000Y-75175000D02*
X95500000Y-74435474D01*
%TO.N,Net-(U4-CP2)*%
X90450000Y-110750000D02*
X92150000Y-110750000D01*
X89839500Y-109210500D02*
X89839500Y-110139500D01*
X92150000Y-110750000D02*
X92937500Y-111537500D01*
X89591500Y-108962500D02*
X89839500Y-109210500D01*
X88787500Y-108962500D02*
X89591500Y-108962500D01*
X89839500Y-110139500D02*
X90450000Y-110750000D01*
%TO.N,Net-(U4-CP1)*%
X88787500Y-109612500D02*
X88787500Y-110087500D01*
X92937500Y-113283500D02*
X92937500Y-113437500D01*
X90781000Y-111127000D02*
X92937500Y-113283500D01*
X88787500Y-110087500D02*
X89827000Y-111127000D01*
X89827000Y-111127000D02*
X90781000Y-111127000D01*
%TO.N,Net-(U5-CP2)*%
X72342000Y-109176000D02*
X72342000Y-110105000D01*
X74687000Y-110750000D02*
X75440000Y-111503000D01*
X72342000Y-110105000D02*
X72987000Y-110750000D01*
X72094000Y-108928000D02*
X72342000Y-109176000D01*
X72987000Y-110750000D02*
X74687000Y-110750000D01*
X71290000Y-108928000D02*
X72094000Y-108928000D01*
%TO.N,Net-(U5-CP1)*%
X71290000Y-110053000D02*
X72364000Y-111127000D01*
X72364000Y-111127000D02*
X73164000Y-111127000D01*
X73164000Y-111127000D02*
X75440000Y-113403000D01*
X71290000Y-109578000D02*
X71290000Y-110053000D01*
%TO.N,PB1*%
X97685474Y-68250000D02*
X98425000Y-68250000D01*
X114250000Y-100750000D02*
X114500000Y-101000000D01*
X114500000Y-101000000D02*
X114500000Y-102975000D01*
X97223000Y-68745783D02*
X97398000Y-68570783D01*
X97398000Y-68570783D02*
X97398000Y-68537474D01*
X97398000Y-68537474D02*
X97685474Y-68250000D01*
X114250000Y-99750000D02*
X114250000Y-100750000D01*
X114500000Y-102975000D02*
X114525000Y-103000000D01*
%TO.N,PB2*%
X99909646Y-67750000D02*
X100837500Y-68677854D01*
X98425000Y-67750000D02*
X99909646Y-67750000D01*
X100837500Y-68677854D02*
X100837500Y-69500000D01*
%TO.N,PA4*%
X96975000Y-100580000D02*
X97510000Y-100045000D01*
X97012500Y-103223000D02*
X97037500Y-103248000D01*
X96980000Y-103117500D02*
X97005000Y-103142500D01*
X96980000Y-101142500D02*
X96980000Y-103117500D01*
X97371668Y-71750000D02*
X98425000Y-71750000D01*
X97012500Y-101248000D02*
X97012500Y-103223000D01*
X96975000Y-101145000D02*
X96975000Y-100580000D01*
X97082834Y-72038834D02*
X97371668Y-71750000D01*
%TO.N,PB9*%
X83250000Y-105800000D02*
X82155000Y-105800000D01*
X82155000Y-105800000D02*
X81810000Y-106145000D01*
X89552000Y-72250000D02*
X87075000Y-72250000D01*
X90000000Y-72698000D02*
X89552000Y-72250000D01*
%TO.N,+3V3*%
X96887000Y-72637000D02*
X96250000Y-72000000D01*
X105000000Y-73562500D02*
X105000000Y-73150000D01*
X99242500Y-107567500D02*
X99167500Y-107642500D01*
X91687500Y-95075000D02*
X91687500Y-95960500D01*
X99275000Y-107673000D02*
X99200000Y-107748000D01*
X105125000Y-64450000D02*
X99212500Y-64450000D01*
X105000000Y-73150000D02*
X106350000Y-73150000D01*
X84950000Y-73500000D02*
X85200000Y-73250000D01*
X98425000Y-65075000D02*
X98425000Y-65750000D01*
X83187500Y-108312500D02*
X83187500Y-107012500D01*
X101467000Y-77750000D02*
X102948000Y-77750000D01*
X83250000Y-52625000D02*
X82625000Y-52625000D01*
X85200000Y-73250000D02*
X87075000Y-73250000D01*
X83250000Y-52625000D02*
X89250000Y-52625000D01*
X90002000Y-53377000D02*
X90002000Y-57000000D01*
X126687500Y-94837500D02*
X126687500Y-95723000D01*
X118187500Y-108075000D02*
X118187500Y-106775000D01*
X97652316Y-72250000D02*
X97265316Y-72637000D01*
X99212500Y-64450000D02*
X99050000Y-64450000D01*
X81500000Y-53750000D02*
X73525000Y-53750000D01*
X94023323Y-65325323D02*
X94448000Y-65750000D01*
X65690000Y-107628000D02*
X64265000Y-107628000D01*
X81762500Y-107662500D02*
X81687500Y-107737500D01*
X65690000Y-108278000D02*
X65690000Y-106978000D01*
X100667500Y-107567500D02*
X99242500Y-107567500D01*
X98425000Y-72250000D02*
X98448944Y-72226056D01*
X116762500Y-107425000D02*
X116687500Y-107500000D01*
X82625000Y-52625000D02*
X81500000Y-53750000D01*
X107462500Y-66787500D02*
X105125000Y-64450000D01*
X88173000Y-63825000D02*
X88173000Y-61645000D01*
X102948000Y-74750000D02*
X103812500Y-74750000D01*
X74190000Y-95040500D02*
X74190000Y-95926000D01*
X81825000Y-107773000D02*
X81750000Y-107848000D01*
X94448000Y-65750000D02*
X98425000Y-65750000D01*
X98425000Y-72250000D02*
X99500000Y-72250000D01*
X100667500Y-108217500D02*
X100667500Y-106917500D01*
X109167500Y-94980000D02*
X109167500Y-95865500D01*
X64265000Y-107628000D02*
X64190000Y-107703000D01*
X89250000Y-52625000D02*
X90002000Y-53377000D01*
X99050000Y-64450000D02*
X98425000Y-65075000D01*
X118187500Y-107425000D02*
X116762500Y-107425000D01*
X89000000Y-63825000D02*
X88173000Y-63825000D01*
X84950000Y-73500000D02*
X83852000Y-72402000D01*
X88231000Y-58769000D02*
X88231000Y-61637000D01*
X103812500Y-74750000D02*
X105000000Y-73562500D01*
X98425000Y-72250000D02*
X97652316Y-72250000D01*
X73525000Y-53750000D02*
X72525000Y-54750000D01*
X91000000Y-82750000D02*
X93000000Y-82750000D01*
X106350000Y-73150000D02*
X107462500Y-72037500D01*
X83187500Y-107662500D02*
X81762500Y-107662500D01*
X90000000Y-57000000D02*
X88231000Y-58769000D01*
X107462500Y-72037500D02*
X107462500Y-66787500D01*
X97265316Y-72637000D02*
X96887000Y-72637000D01*
X96250000Y-72000000D02*
X96250000Y-65750000D01*
%TO.N,PB3*%
X62002500Y-103178000D02*
X62027500Y-103203000D01*
X64821224Y-97571224D02*
X61965000Y-100427448D01*
X85181000Y-69189491D02*
X85233491Y-69137000D01*
X86335474Y-68750000D02*
X87075000Y-68750000D01*
X62002500Y-101203000D02*
X62002500Y-103178000D01*
X61965000Y-100427448D02*
X61965000Y-101100000D01*
X85948474Y-69137000D02*
X86335474Y-68750000D01*
X85233491Y-69137000D02*
X85948474Y-69137000D01*
%TO.N,Net-(U2-AVREF)*%
X125485500Y-100702000D02*
X125485500Y-97864500D01*
X126687500Y-96662500D02*
X124010000Y-93985000D01*
X123787500Y-101575000D02*
X124612500Y-101575000D01*
X124612500Y-101575000D02*
X125485500Y-100702000D01*
X123787500Y-102225000D02*
X123787500Y-101575000D01*
X125485500Y-97864500D02*
X126687500Y-96662500D01*
X124010000Y-93985000D02*
X122227500Y-93985000D01*
%TO.N,PA13*%
X92324500Y-59675500D02*
X91202354Y-60797646D01*
X91202354Y-62085000D02*
X90489354Y-62798000D01*
X90000000Y-63085474D02*
X90000000Y-63825000D01*
X104850500Y-59675500D02*
X92324500Y-59675500D01*
X109962500Y-64787500D02*
X104850500Y-59675500D01*
X90489354Y-62798000D02*
X90287474Y-62798000D01*
X90287474Y-62798000D02*
X90000000Y-63085474D01*
X91202354Y-60797646D02*
X91202354Y-62085000D01*
%TO.N,PA14*%
X88000000Y-65750000D02*
X87075000Y-65750000D01*
X105037498Y-66802000D02*
X100000000Y-66802000D01*
X90000000Y-66802000D02*
X89052000Y-66802000D01*
X89052000Y-66802000D02*
X88000000Y-65750000D01*
X106250000Y-68014502D02*
X105037498Y-66802000D01*
%TO.N,Net-(U4-AVREF)*%
X88787500Y-101812500D02*
X89612500Y-101812500D01*
X89612500Y-101812500D02*
X90485500Y-100939500D01*
X90485500Y-98102000D02*
X91687500Y-96900000D01*
X91687500Y-96900000D02*
X89010000Y-94222500D01*
X90485500Y-100939500D02*
X90485500Y-98102000D01*
X88787500Y-102462500D02*
X88787500Y-101812500D01*
X89010000Y-94222500D02*
X87227500Y-94222500D01*
%TO.N,Net-(U5-AVREF)*%
X74190000Y-96865500D02*
X71512500Y-94188000D01*
X72750000Y-101143000D02*
X72750000Y-98305500D01*
X72750000Y-98305500D02*
X74190000Y-96865500D01*
X71290000Y-102428000D02*
X71290000Y-101778000D01*
X72115000Y-101778000D02*
X72750000Y-101143000D01*
X71512500Y-94188000D02*
X69730000Y-94188000D01*
X71290000Y-101778000D02*
X72115000Y-101778000D01*
%TO.N,PB5*%
X88286000Y-69750000D02*
X88488000Y-69952000D01*
X81712500Y-108962500D02*
X83187500Y-108962500D01*
X87075000Y-69750000D02*
X88286000Y-69750000D01*
X80187500Y-109650000D02*
X81025000Y-109650000D01*
X81025000Y-109650000D02*
X81712500Y-108962500D01*
X80200000Y-109035000D02*
X80060000Y-108895000D01*
%TO.N,PB6*%
X88431000Y-70675646D02*
X88431000Y-70887000D01*
X87075000Y-70250000D02*
X88005354Y-70250000D01*
X69750000Y-75250000D02*
X72670000Y-78170000D01*
X72670000Y-78170000D02*
X82250000Y-78170000D01*
X88005354Y-70250000D02*
X88431000Y-70675646D01*
%TO.N,BOOT0*%
X84230682Y-56375000D02*
X83250000Y-56375000D01*
X85012500Y-71250000D02*
X84912500Y-71350000D01*
X88500000Y-71698000D02*
X88461354Y-71698000D01*
X87075000Y-71250000D02*
X85012500Y-71250000D01*
X88461354Y-71698000D02*
X88013354Y-71250000D01*
X89250000Y-56375000D02*
X83250000Y-56375000D01*
X88013354Y-71250000D02*
X87075000Y-71250000D01*
X84230682Y-57546000D02*
X84230682Y-56375000D01*
%TO.N,Net-(U3-AVREF)*%
X107092500Y-101717500D02*
X107965500Y-100844500D01*
X107965500Y-100844500D02*
X107965500Y-98007000D01*
X106267500Y-102367500D02*
X106267500Y-101717500D01*
X107965500Y-98007000D02*
X109167500Y-96805000D01*
X106490000Y-94127500D02*
X104707500Y-94127500D01*
X109167500Y-96805000D02*
X106490000Y-94127500D01*
X106267500Y-101717500D02*
X107092500Y-101717500D01*
%TO.N,Net-(D1-A)*%
X89000000Y-80587500D02*
X89000000Y-78937500D01*
%TO.N,Net-(J1-D-)*%
X82242000Y-57977352D02*
X82242000Y-58850000D01*
X82531573Y-57687779D02*
X82242000Y-57977352D01*
X82226050Y-58796923D02*
X82191550Y-58831423D01*
%TO.N,Net-(U3-AOUT1)*%
X108249162Y-107041920D02*
X106391920Y-107041920D01*
X106391920Y-107041920D02*
X106267500Y-106917500D01*
%TO.N,+5V*%
X81450000Y-66825000D02*
X81450000Y-66471544D01*
X79550000Y-66471544D02*
X79550000Y-66825000D01*
X76887500Y-66850000D02*
X77939500Y-65798000D01*
X79525000Y-66850000D02*
X78375000Y-66850000D01*
X77939500Y-60060500D02*
X79150000Y-58850000D01*
X80242000Y-58858000D02*
X80242000Y-59850000D01*
X79550000Y-71387000D02*
X79550000Y-73387000D01*
X81450000Y-66471544D02*
X80866456Y-65888000D01*
X79150000Y-58850000D02*
X80250000Y-58850000D01*
X79000000Y-66850000D02*
X79000000Y-70837000D01*
X80250000Y-58850000D02*
X80242000Y-58858000D01*
X80133544Y-65888000D02*
X79550000Y-66471544D01*
X78375000Y-66850000D02*
X79000000Y-66850000D01*
X80242000Y-59850000D02*
X80210127Y-59850000D01*
X80250000Y-58850000D02*
X81242000Y-58850000D01*
X79000000Y-70837000D02*
X79550000Y-71387000D01*
X80866456Y-65888000D02*
X80133544Y-65888000D01*
X79550000Y-66825000D02*
X79525000Y-66850000D01*
X77939500Y-65798000D02*
X77939500Y-60060500D01*
X76887500Y-66850000D02*
X78375000Y-66850000D01*
%TO.N,Net-(U2-CP1)*%
X123787500Y-109375000D02*
X123787500Y-109850000D01*
X127937500Y-113046000D02*
X127937500Y-113200000D01*
X126039500Y-111148000D02*
X127937500Y-113046000D01*
X123787500Y-109850000D02*
X125085500Y-111148000D01*
X125085500Y-111148000D02*
X126039500Y-111148000D01*
%TO.N,Net-(U2-CP2)*%
X127408500Y-110771000D02*
X127937500Y-111300000D01*
X123787500Y-108725000D02*
X124591500Y-108725000D01*
X124839500Y-108973000D02*
X124839500Y-109902000D01*
X124839500Y-109902000D02*
X125708500Y-110771000D01*
X125708500Y-110771000D02*
X127408500Y-110771000D01*
X124591500Y-108725000D02*
X124839500Y-108973000D01*
D56*
%TO.N,+15V*%
X88787500Y-103112500D02*
X89841500Y-103112500D01*
X107321500Y-103017500D02*
X107515500Y-102823500D01*
X112000000Y-91082500D02*
X112000000Y-95910000D01*
X129500000Y-91000000D02*
X129500000Y-95787500D01*
X88787500Y-107662500D02*
X90337319Y-107662500D01*
X125488739Y-107576420D02*
X126490920Y-107576420D01*
X126914500Y-101427000D02*
X126237500Y-100750000D01*
X94500000Y-96025000D02*
X91237500Y-99287500D01*
X91490920Y-107813920D02*
X91937500Y-108260500D01*
X126537500Y-98750000D02*
X126537500Y-100450000D01*
X75940000Y-90000000D02*
X76917000Y-90977000D01*
X90035500Y-102189500D02*
X91237500Y-100987500D01*
X72526000Y-107776000D02*
X72987819Y-107776000D01*
X90488739Y-107813920D02*
X91490920Y-107813920D01*
X89841500Y-103112500D02*
X90035500Y-102918500D01*
X125035500Y-102681000D02*
X125035500Y-101952000D01*
X107515500Y-102823500D02*
X107515500Y-102094500D01*
X71290000Y-103078000D02*
X72344000Y-103078000D01*
X76190000Y-108040500D02*
X75841501Y-108040500D01*
X71290000Y-107628000D02*
X72378000Y-107628000D01*
X74365000Y-90000000D02*
X110917500Y-90000000D01*
X106267500Y-107567500D02*
X107817319Y-107567500D01*
X93500000Y-90000000D02*
X94500000Y-91000000D01*
X126914500Y-106412999D02*
X126914500Y-101427000D01*
X128687500Y-107837500D02*
X128339001Y-107837500D01*
X109417500Y-108412500D02*
X109394500Y-108389500D01*
X128339001Y-107837500D02*
X126914500Y-106412999D01*
X106267500Y-103017500D02*
X107321500Y-103017500D01*
X76917000Y-96076000D02*
X73740000Y-99253000D01*
X126490920Y-107576420D02*
X126937500Y-108023000D01*
X93687500Y-108075000D02*
X93339001Y-108075000D01*
X67700000Y-83335000D02*
X74365000Y-90000000D01*
X91937500Y-108507500D02*
X91914500Y-108484500D01*
X125337319Y-107425000D02*
X125488739Y-107576420D01*
X74500000Y-106532999D02*
X74500000Y-101713000D01*
X91237500Y-99287500D02*
X91237500Y-100987500D01*
X112000000Y-95910000D02*
X108717500Y-99192500D01*
X90035500Y-102918500D02*
X90035500Y-102189500D01*
X109500000Y-101675000D02*
X108717500Y-100892500D01*
X109394500Y-108389500D02*
X109394500Y-106555499D01*
X126937500Y-108023000D02*
X126937500Y-108270000D01*
X72378000Y-107628000D02*
X72526000Y-107776000D01*
X73779420Y-107779420D02*
X74417000Y-108417000D01*
X91937500Y-108260500D02*
X91937500Y-108507500D01*
X126937500Y-108270000D02*
X126914500Y-108247000D01*
X126537500Y-100450000D02*
X126237500Y-100750000D01*
X72991239Y-107779420D02*
X73779420Y-107779420D01*
X128500000Y-90000000D02*
X129500000Y-91000000D01*
X109394500Y-106555499D02*
X109500000Y-106449999D01*
X72987819Y-107776000D02*
X72991239Y-107779420D01*
X92000000Y-101750000D02*
X91237500Y-100987500D01*
X91914500Y-108484500D02*
X91914500Y-106650499D01*
X107968739Y-107718920D02*
X108970920Y-107718920D01*
X111167500Y-107980000D02*
X110819001Y-107980000D01*
X123787500Y-102875000D02*
X124841500Y-102875000D01*
X74417000Y-106615999D02*
X74500000Y-106532999D01*
X72538000Y-102884000D02*
X72538000Y-102155000D01*
X94500000Y-91000000D02*
X94500000Y-96025000D01*
X73740000Y-99253000D02*
X73740000Y-100953000D01*
X72538000Y-102155000D02*
X73740000Y-100953000D01*
X129500000Y-95787500D02*
X126537500Y-98750000D01*
X109417500Y-108165500D02*
X109417500Y-108412500D01*
X108717500Y-99192500D02*
X108717500Y-100892500D01*
X74500000Y-101713000D02*
X73740000Y-100953000D01*
X126914500Y-108247000D02*
X126914500Y-106412999D01*
X92000000Y-106564999D02*
X92000000Y-101750000D01*
X90337319Y-107662500D02*
X90488739Y-107813920D01*
X72344000Y-103078000D02*
X72538000Y-102884000D01*
X74417000Y-108417000D02*
X74417000Y-106615999D01*
X110917500Y-90000000D02*
X112000000Y-91082500D01*
X75841501Y-108040500D02*
X74417000Y-106615999D01*
X110819001Y-107980000D02*
X109394500Y-106555499D01*
X93339001Y-108075000D02*
X91914500Y-106650499D01*
X123787500Y-107425000D02*
X125337319Y-107425000D01*
X107817319Y-107567500D02*
X107968739Y-107718920D01*
X124841500Y-102875000D02*
X125035500Y-102681000D01*
X125035500Y-101952000D02*
X126237500Y-100750000D01*
X91914500Y-106650499D02*
X92000000Y-106564999D01*
X110917500Y-90000000D02*
X128500000Y-90000000D01*
X76917000Y-90977000D02*
X76917000Y-96076000D01*
X107515500Y-102094500D02*
X108717500Y-100892500D01*
X108970920Y-107718920D02*
X109417500Y-108165500D01*
X109500000Y-106449999D02*
X109500000Y-101675000D01*
D55*
%TO.N,Net-(U2-AOUT1)*%
X123911920Y-106899420D02*
X123787500Y-106775000D01*
X125769162Y-106899420D02*
X123911920Y-106899420D01*
%TO.N,Net-(U2-AOUT2)*%
X123984648Y-105672148D02*
X123787500Y-105475000D01*
X124985500Y-105672148D02*
X123984648Y-105672148D01*
%TO.N,Net-(U2-BOUT1)*%
X124970640Y-103539570D02*
X123802070Y-103539570D01*
X123802070Y-103539570D02*
X123787500Y-103525000D01*
%TO.N,Net-(U2-BOUT2)*%
X125001112Y-104729828D02*
X124905940Y-104825000D01*
X124905940Y-104825000D02*
X123787500Y-104825000D01*
%TO.N,Net-(U2-VCP)*%
X125282500Y-108075000D02*
X123787500Y-108075000D01*
X128687500Y-109662500D02*
X127620000Y-109662500D01*
X127187500Y-109230000D02*
X126437500Y-109230000D01*
X127620000Y-109662500D02*
X127187500Y-109230000D01*
X126437500Y-109230000D02*
X125282500Y-108075000D01*
%TO.N,PC13*%
X89500000Y-75175000D02*
X89500000Y-76562500D01*
X89500000Y-76562500D02*
X89000000Y-77062500D01*
%TO.N,Net-(U2-ISENB)*%
X125975000Y-103250000D02*
X125975000Y-103315856D01*
X125975000Y-103315856D02*
X125115856Y-104175000D01*
X125115856Y-104175000D02*
X123787500Y-104175000D01*
%TO.N,Net-(U3-AOUT2)*%
X107465500Y-105814648D02*
X106464648Y-105814648D01*
X106464648Y-105814648D02*
X106267500Y-105617500D01*
%TO.N,Net-(U3-BOUT1)*%
X106282070Y-103682070D02*
X106267500Y-103667500D01*
X107450640Y-103682070D02*
X106282070Y-103682070D01*
%TO.N,Net-(U3-BOUT2)*%
X107385940Y-104967500D02*
X106267500Y-104967500D01*
X107481112Y-104872328D02*
X107385940Y-104967500D01*
%TO.N,DIR1*%
X99405000Y-104400000D02*
X99260000Y-104545000D01*
X98662000Y-74000000D02*
X98662000Y-73487000D01*
X100700000Y-104400000D02*
X99405000Y-104400000D01*
X98662000Y-73487000D02*
X98425000Y-73250000D01*
%TO.N,Net-(J1-D+)*%
X83083573Y-57916425D02*
X82742000Y-58258000D01*
X83240929Y-57916425D02*
X83083573Y-57916425D01*
X82742000Y-58258000D02*
X82742000Y-58850000D01*
X83328677Y-57828677D02*
X83240929Y-57916425D01*
%TO.N,Net-(U7-VDD)*%
X81691550Y-58831423D02*
X81691550Y-57346423D01*
X81691550Y-57346423D02*
X81461550Y-57116423D01*
X81461550Y-57116423D02*
X81461550Y-55159050D01*
X81461550Y-55159050D02*
X81412500Y-55110000D01*
%TO.N,Net-(U2-ISENA)*%
X124035500Y-106373000D02*
X125102000Y-106373000D01*
X125102000Y-106373000D02*
X125975000Y-105500000D01*
X123787500Y-106125000D02*
X124035500Y-106373000D01*
%TO.N,Net-(U2-NFAULT)*%
X116475000Y-102875000D02*
X116350000Y-103000000D01*
X118187500Y-102875000D02*
X116475000Y-102875000D01*
%TO.N,Net-(U4-AOUT1)*%
X90769162Y-107136920D02*
X88911920Y-107136920D01*
X88911920Y-107136920D02*
X88787500Y-107012500D01*
%TO.N,Net-(U4-AOUT2)*%
X89985500Y-105909648D02*
X88984648Y-105909648D01*
X88984648Y-105909648D02*
X88787500Y-105712500D01*
%TO.N,Net-(U4-BOUT1)*%
X89970640Y-103777070D02*
X88802070Y-103777070D01*
X88802070Y-103777070D02*
X88787500Y-103762500D01*
%TO.N,Net-(U4-BOUT2)*%
X89905940Y-105062500D02*
X88787500Y-105062500D01*
X90001112Y-104967328D02*
X89905940Y-105062500D01*
%TO.N,Net-(U5-AOUT1)*%
X73124242Y-106955000D02*
X71313000Y-106955000D01*
X73271662Y-107102420D02*
X73124242Y-106955000D01*
X71313000Y-106955000D02*
X71290000Y-106978000D01*
%TO.N,Net-(U5-AOUT2)*%
X72267852Y-105655000D02*
X71313000Y-105655000D01*
X71313000Y-105655000D02*
X71290000Y-105678000D01*
X72488000Y-105875148D02*
X72267852Y-105655000D01*
%TO.N,Net-(U5-BOUT1)*%
X71304570Y-103742570D02*
X71290000Y-103728000D01*
X72473140Y-103742570D02*
X71304570Y-103742570D01*
%TO.N,Net-(U5-BOUT2)*%
X72503612Y-104932828D02*
X72408440Y-105028000D01*
X72408440Y-105028000D02*
X71290000Y-105028000D01*
%TO.N,Net-(U3-ISENA)*%
X107582000Y-106515500D02*
X108455000Y-105642500D01*
X106515500Y-106515500D02*
X107582000Y-106515500D01*
X106267500Y-106267500D02*
X106515500Y-106515500D01*
%TO.N,Net-(U3-ISENB)*%
X107595856Y-104317500D02*
X106267500Y-104317500D01*
X108455000Y-103458356D02*
X107595856Y-104317500D01*
X108455000Y-103392500D02*
X108455000Y-103458356D01*
%TO.N,Net-(U3-VCP)*%
X107762500Y-108217500D02*
X106267500Y-108217500D01*
X108917500Y-109372500D02*
X107762500Y-108217500D01*
X109667500Y-109372500D02*
X108917500Y-109372500D01*
X110100000Y-109805000D02*
X109667500Y-109372500D01*
X111167500Y-109805000D02*
X110100000Y-109805000D01*
%TO.N,Net-(U7-RST)*%
X79636550Y-57116423D02*
X79636550Y-55159050D01*
X79426500Y-58298000D02*
X79636550Y-58087950D01*
X79636550Y-58087950D02*
X79636550Y-57116423D01*
X79470189Y-60331423D02*
X80191550Y-60331423D01*
X79426500Y-60287734D02*
X79470189Y-60331423D01*
X79636550Y-55159050D02*
X79587500Y-55110000D01*
%TO.N,PB10*%
X115710319Y-102210319D02*
X115289500Y-102631138D01*
X115289500Y-107485500D02*
X115187500Y-107587500D01*
X115635500Y-99051448D02*
X115635500Y-102135500D01*
X117135500Y-101952000D02*
X115968638Y-101952000D01*
X115968638Y-101952000D02*
X115710319Y-102210319D01*
X97398000Y-67570783D02*
X97398000Y-67537474D01*
X116468474Y-98218474D02*
X115635500Y-99051448D01*
X97685474Y-67250000D02*
X98425000Y-67250000D01*
X117408500Y-102225000D02*
X117135500Y-101952000D01*
X97398000Y-67537474D02*
X97685474Y-67250000D01*
X115635500Y-102135500D02*
X115710319Y-102210319D01*
X115289500Y-102631138D02*
X115289500Y-107485500D01*
X97223000Y-67745783D02*
X97398000Y-67570783D01*
X118187500Y-102225000D02*
X117408500Y-102225000D01*
%TO.N,PA7*%
X115250000Y-108527000D02*
X115250000Y-109350000D01*
X99666056Y-71122056D02*
X99452000Y-70908000D01*
X99452000Y-70537474D02*
X99164526Y-70250000D01*
X99452000Y-70908000D02*
X99452000Y-70537474D01*
X115187500Y-109412500D02*
X116025000Y-109412500D01*
X115250000Y-109350000D02*
X115187500Y-109412500D01*
X116025000Y-109412500D02*
X116712500Y-108725000D01*
X116712500Y-108725000D02*
X118187500Y-108725000D01*
X99164526Y-70250000D02*
X98425000Y-70250000D01*
X99848000Y-71122056D02*
X99666056Y-71122056D01*
%TO.N,PA5*%
X97404827Y-71250000D02*
X98425000Y-71250000D01*
X97262766Y-71107939D02*
X97404827Y-71250000D01*
X97769500Y-102486987D02*
X97769500Y-107628000D01*
X99359362Y-102367500D02*
X100667500Y-102367500D01*
X98062000Y-102194487D02*
X97769500Y-102486987D01*
X99186349Y-102194487D02*
X99359362Y-102367500D01*
X98062000Y-102194487D02*
X99186349Y-102194487D01*
X97769500Y-107628000D02*
X97667500Y-107730000D01*
%TO.N,Net-(U3-NFAULT)*%
X98955000Y-103017500D02*
X98830000Y-103142500D01*
X100667500Y-103017500D02*
X98955000Y-103017500D01*
%TO.N,Net-(U4-ISENA)*%
X89035500Y-106610500D02*
X90102000Y-106610500D01*
X90102000Y-106610500D02*
X90975000Y-105737500D01*
X88787500Y-106362500D02*
X89035500Y-106610500D01*
%TO.N,Net-(U4-ISENB)*%
X90115856Y-104412500D02*
X88787500Y-104412500D01*
X90975000Y-103487500D02*
X90975000Y-103553356D01*
X90975000Y-103553356D02*
X90115856Y-104412500D01*
%TO.N,Net-(U4-VCP)*%
X93687500Y-109900000D02*
X92620000Y-109900000D01*
X92620000Y-109900000D02*
X92187500Y-109467500D01*
X91437500Y-109467500D02*
X90282500Y-108312500D01*
X90282500Y-108312500D02*
X88787500Y-108312500D01*
X92187500Y-109467500D02*
X91437500Y-109467500D01*
%TO.N,PC3*%
X99192500Y-108867500D02*
X100667500Y-108867500D01*
X97667500Y-109555000D02*
X98505000Y-109555000D01*
X97650000Y-108935000D02*
X97510000Y-108795000D01*
X93948000Y-75123000D02*
X94000000Y-75175000D01*
X98505000Y-109555000D02*
X99192500Y-108867500D01*
X93948000Y-74050828D02*
X93948000Y-75123000D01*
%TO.N,Net-(U4-NFAULT)*%
X81475000Y-103112500D02*
X81350000Y-103237500D01*
X83187500Y-103112500D02*
X81475000Y-103112500D01*
%TO.N,Net-(U5-ISENA)*%
X72160206Y-106328000D02*
X72259354Y-106427148D01*
X71290000Y-106328000D02*
X72160206Y-106328000D01*
X72259354Y-106427148D02*
X72753352Y-106427148D01*
X72753352Y-106427148D02*
X73477500Y-105703000D01*
%TO.N,Net-(U5-ISENB)*%
X73477500Y-103518856D02*
X72618356Y-104378000D01*
X72618356Y-104378000D02*
X71290000Y-104378000D01*
X73477500Y-103453000D02*
X73477500Y-103518856D01*
%TO.N,Net-(U5-VCP)*%
X76190000Y-109865500D02*
X75122500Y-109865500D01*
X72785000Y-108278000D02*
X71290000Y-108278000D01*
X74690000Y-109433000D02*
X73940000Y-109433000D01*
X75122500Y-109865500D02*
X74690000Y-109433000D01*
X73940000Y-109433000D02*
X72785000Y-108278000D01*
%TO.N,PB8*%
X83187500Y-102462500D02*
X82408500Y-102462500D01*
X80158560Y-102185170D02*
X80289500Y-102316110D01*
X86048000Y-72037474D02*
X86335474Y-71750000D01*
X86048000Y-72040615D02*
X86048000Y-72037474D01*
X86335474Y-71750000D02*
X87075000Y-71750000D01*
X82131170Y-102185170D02*
X80158560Y-102185170D01*
X82408500Y-102462500D02*
X82131170Y-102185170D01*
X80289500Y-102316110D02*
X80289500Y-107723000D01*
X80289500Y-107723000D02*
X80187500Y-107825000D01*
X85873000Y-72215615D02*
X86048000Y-72040615D01*
%TO.N,PC10*%
X64638000Y-102155000D02*
X63471138Y-102155000D01*
X62585994Y-102155000D02*
X62792000Y-102361006D01*
X86054828Y-66750000D02*
X87075000Y-66750000D01*
X64911000Y-102428000D02*
X64638000Y-102155000D01*
X62585994Y-102155000D02*
X63471138Y-102155000D01*
X65690000Y-102428000D02*
X64911000Y-102428000D01*
X85850414Y-66545586D02*
X86054828Y-66750000D01*
X62792000Y-102361006D02*
X62792000Y-107688500D01*
X62792000Y-107688500D02*
X62690000Y-107790500D01*
X62561226Y-102130232D02*
X62585994Y-102155000D01*
%TO.N,Net-(U5-NFAULT)*%
X65690000Y-103078000D02*
X63977500Y-103078000D01*
X63977500Y-103078000D02*
X63852500Y-103203000D01*
%TO.N,PA15*%
X85876153Y-65615818D02*
X86048000Y-65787665D01*
X86048000Y-65787665D02*
X86048000Y-65962526D01*
X62640000Y-108890000D02*
X62500000Y-108750000D01*
X63527500Y-109615500D02*
X64215000Y-108928000D01*
X86335474Y-66250000D02*
X87075000Y-66250000D01*
X64215000Y-108928000D02*
X65690000Y-108928000D01*
X62690000Y-109615500D02*
X63527500Y-109615500D01*
X86048000Y-65962526D02*
X86335474Y-66250000D01*
X62640000Y-109625000D02*
X62640000Y-108890000D01*
%TO.N,PC2*%
X93500000Y-76456000D02*
X93500000Y-75175000D01*
X93681000Y-76637000D02*
X93500000Y-76456000D01*
X83750000Y-100500000D02*
X82433500Y-100500000D01*
X82135500Y-100798000D02*
X82135500Y-101602000D01*
X82346000Y-101812500D02*
X83187500Y-101812500D01*
X82135500Y-101602000D02*
X82346000Y-101812500D01*
X82433500Y-100500000D02*
X82135500Y-100798000D01*
%TO.N,DIR2*%
X116929000Y-104175000D02*
X118187500Y-104175000D01*
X116854000Y-104250000D02*
X116929000Y-104175000D01*
X99164526Y-68750000D02*
X98425000Y-68750000D01*
X99612526Y-68302000D02*
X99164526Y-68750000D01*
X99681000Y-68302000D02*
X99612526Y-68302000D01*
%TO.N,PA2*%
X97452000Y-77075000D02*
X97452000Y-76421354D01*
X99342646Y-105243000D02*
X99585646Y-105000000D01*
X98708000Y-105243000D02*
X99342646Y-105243000D01*
X96500000Y-75469354D02*
X96500000Y-75175000D01*
X98614000Y-77500000D02*
X97877000Y-77500000D01*
X99585646Y-105000000D02*
X100650000Y-105000000D01*
X100650000Y-105000000D02*
X100700000Y-105050000D01*
X97452000Y-76421354D02*
X96500000Y-75469354D01*
X97877000Y-77500000D02*
X97452000Y-77075000D01*
%TO.N,PA6*%
X97398000Y-70462526D02*
X97685474Y-70750000D01*
X100116887Y-100201613D02*
X99615500Y-100703000D01*
X101443724Y-100201613D02*
X100116887Y-100201613D01*
X97227592Y-70105156D02*
X97398000Y-70275564D01*
X99826000Y-101717500D02*
X100667500Y-101717500D01*
X97685474Y-70750000D02*
X98425000Y-70750000D01*
X99615500Y-100703000D02*
X99615500Y-101507000D01*
X97398000Y-70275564D02*
X97398000Y-70462526D01*
X99615500Y-101507000D02*
X99826000Y-101717500D01*
%TO.N,DIR3*%
X81955000Y-104500000D02*
X81810000Y-104645000D01*
X93000000Y-76331657D02*
X93000000Y-75175000D01*
X83250000Y-104500000D02*
X81955000Y-104500000D01*
X92750000Y-76581657D02*
X93000000Y-76331657D01*
%TO.N,PB13*%
X96000000Y-63085474D02*
X96000000Y-63825000D01*
X79733575Y-61831423D02*
X80191550Y-61831423D01*
X96342040Y-62798000D02*
X96287474Y-62798000D01*
X96287474Y-62798000D02*
X96000000Y-63085474D01*
X79314998Y-62250000D02*
X79733575Y-61831423D01*
X96517040Y-62623000D02*
X96342040Y-62798000D01*
%TO.N,DIR4*%
X64395000Y-104355000D02*
X64250000Y-104500000D01*
X86055534Y-68250000D02*
X85725610Y-68579924D01*
X65690000Y-104355000D02*
X64395000Y-104355000D01*
X87075000Y-68250000D02*
X86055534Y-68250000D01*
%TO.N,PB14*%
X85500000Y-57750000D02*
X84969354Y-57750000D01*
X84621354Y-58098000D02*
X83840000Y-58098000D01*
X84969354Y-57750000D02*
X84621354Y-58098000D01*
X83691550Y-58246450D02*
X83691550Y-58831423D01*
X95965040Y-62000000D02*
X95965040Y-62534960D01*
X83840000Y-58098000D02*
X83691550Y-58246450D01*
X95965040Y-62534960D02*
X95500000Y-63000000D01*
X95500000Y-63000000D02*
X95500000Y-63825000D01*
%TO.N,PC15*%
X90500000Y-75175000D02*
X90500000Y-76048000D01*
X90500000Y-76048000D02*
X92952000Y-78500000D01*
X92952000Y-78500000D02*
X93250000Y-78500000D01*
%TO.N,PC6*%
X93500000Y-61250000D02*
X91754354Y-61250000D01*
X86239040Y-60831423D02*
X85191550Y-60831423D01*
X94500000Y-63825000D02*
X94500000Y-63000000D01*
X86256480Y-60813983D02*
X86239040Y-60831423D01*
X94623000Y-62877000D02*
X94623000Y-62373000D01*
X94500000Y-64601158D02*
X94500000Y-63825000D01*
X94500000Y-63000000D02*
X94623000Y-62877000D01*
X94623000Y-62373000D02*
X93500000Y-61250000D01*
%TO.N,PC7*%
X92968098Y-65031902D02*
X93536098Y-65031902D01*
X86485126Y-61365983D02*
X85226110Y-61365983D01*
X85226110Y-61365983D02*
X85191550Y-61331423D01*
X86750000Y-61552000D02*
X86671143Y-61552000D01*
X86671143Y-61552000D02*
X86485126Y-61365983D01*
X94000000Y-64568000D02*
X94000000Y-63825000D01*
X93536098Y-65031902D02*
X94000000Y-64568000D01*
%TO.N,PC14*%
X90000000Y-75175000D02*
X90000000Y-77750000D01*
X90000000Y-77750000D02*
X90750000Y-78500000D01*
%TO.N,PC5*%
X116461677Y-104825000D02*
X118187500Y-104825000D01*
X116302000Y-104984677D02*
X116461677Y-104825000D01*
X99769677Y-69250000D02*
X98425000Y-69250000D01*
X99898000Y-69121677D02*
X99769677Y-69250000D01*
%TO.N,PC11*%
X64595000Y-105655000D02*
X64250000Y-106000000D01*
X85931000Y-67412000D02*
X86093000Y-67250000D01*
X86093000Y-67250000D02*
X87075000Y-67250000D01*
X65690000Y-105655000D02*
X64595000Y-105655000D01*
%TO.N,PB15*%
X85000000Y-58500000D02*
X84522973Y-58500000D01*
X95234677Y-62484677D02*
X95234677Y-62732164D01*
X95234677Y-62732164D02*
X95000000Y-62966841D01*
X95000000Y-62966841D02*
X95000000Y-63825000D01*
X84522973Y-58500000D02*
X84191550Y-58831423D01*
%TO.N,PB12*%
X79569423Y-61331423D02*
X80191550Y-61331423D01*
X97181000Y-63750000D02*
X96575000Y-63750000D01*
X96575000Y-63750000D02*
X96500000Y-63825000D01*
X79400846Y-61500000D02*
X79569423Y-61331423D01*
X79000000Y-61500000D02*
X79400846Y-61500000D01*
%TO.N,PA1*%
X96750000Y-76500000D02*
X96585474Y-76500000D01*
X99605000Y-105700000D02*
X100700000Y-105700000D01*
X99260000Y-106045000D02*
X99605000Y-105700000D01*
X96585474Y-76500000D02*
X96000000Y-75914526D01*
X96000000Y-75914526D02*
X96000000Y-75175000D01*
%TO.N,PC8*%
X94067699Y-62623000D02*
X93892699Y-62798000D01*
X93500000Y-63085474D02*
X93500000Y-63825000D01*
X93892699Y-62798000D02*
X93787474Y-62798000D01*
X85191550Y-59558450D02*
X85191550Y-59831423D01*
X85500000Y-59250000D02*
X85191550Y-59558450D01*
X93787474Y-62798000D02*
X93500000Y-63085474D01*
%TO.N,PC9*%
X93000000Y-62780646D02*
X93000000Y-63825000D01*
X85896000Y-60350000D02*
X85242000Y-60350000D01*
X93250000Y-62530646D02*
X93000000Y-62780646D01*
X93250000Y-62500000D02*
X93250000Y-62530646D01*
X86250000Y-59996000D02*
X85896000Y-60350000D01*
%TO.N,PA8*%
X92500000Y-63825000D02*
X92500000Y-62000000D01*
X87302000Y-62250000D02*
X86667354Y-62250000D01*
X86248777Y-61831423D02*
X85191550Y-61831423D01*
X86667354Y-62250000D02*
X86248777Y-61831423D01*
%TO.N,PA9*%
X86169002Y-62750000D02*
X86187127Y-62731875D01*
X92000000Y-65552000D02*
X92000000Y-63825000D01*
X85941550Y-62331423D02*
X85191550Y-62331423D01*
X86187127Y-62577000D02*
X85941550Y-62331423D01*
X86187127Y-62731875D02*
X86187127Y-62577000D01*
%TO.N,PA10*%
X91886558Y-62624132D02*
X91500000Y-63010690D01*
X117437369Y-100221131D02*
X117135500Y-100523000D01*
X91500000Y-63010690D02*
X91500000Y-63825000D01*
X118750000Y-100221131D02*
X117437369Y-100221131D01*
X117135500Y-100523000D02*
X117135500Y-101327000D01*
X117135500Y-101327000D02*
X117383500Y-101575000D01*
X117383500Y-101575000D02*
X118187500Y-101575000D01*
%TO.N,PC12*%
X65690000Y-105005000D02*
X65445000Y-105250000D01*
X65445000Y-105250000D02*
X63750000Y-105250000D01*
X87075000Y-67750000D02*
X88060979Y-67750000D01*
X88060979Y-67750000D02*
X88140448Y-67829469D01*
%TO.N,PB4*%
X64909000Y-101778000D02*
X65690000Y-101778000D01*
X64916869Y-100424131D02*
X64638000Y-100703000D01*
X64638000Y-100703000D02*
X64638000Y-101507000D01*
X87920000Y-69250000D02*
X88488000Y-68682000D01*
X87075000Y-69250000D02*
X87920000Y-69250000D01*
X66250000Y-100424131D02*
X64916869Y-100424131D01*
X64638000Y-101507000D02*
X64909000Y-101778000D01*
%TO.N,PB7*%
X79562500Y-101348000D02*
X79562500Y-103323000D01*
X85943812Y-70750000D02*
X87075000Y-70750000D01*
X79500000Y-101237500D02*
X79500000Y-103212500D01*
X79525000Y-100680000D02*
X80060000Y-100145000D01*
X85864303Y-70670491D02*
X85943812Y-70750000D01*
X79562500Y-103323000D02*
X79587500Y-103348000D01*
X79500000Y-103212500D02*
X79525000Y-103237500D01*
X79525000Y-101245000D02*
X79525000Y-100680000D01*
%TO.N,PC4*%
X99430072Y-69750000D02*
X98425000Y-69750000D01*
X99921072Y-70241000D02*
X99430072Y-69750000D01*
X117025000Y-105475000D02*
X116750000Y-105750000D01*
X118187500Y-105475000D02*
X117025000Y-105475000D01*
%TO.N,PC0*%
X83250000Y-105150000D02*
X83200000Y-105100000D01*
X81840646Y-105395000D02*
X81310000Y-105395000D01*
X82135646Y-105100000D02*
X81840646Y-105395000D01*
X83200000Y-105100000D02*
X82135646Y-105100000D01*
%TD*%
M02*
