%TF.GenerationSoftware,KiCad,Pcbnew,7.0.10*%
%TF.CreationDate,2024-01-19T17:56:23+01:00*%
%TF.ProjectId,Doodle Drive,446f6f64-6c65-4204-9472-6976652e6b69,1.0V*%
%TF.SameCoordinates,Original*%
%TF.FileFunction,Legend,Top*%
%TF.FilePolarity,Positive*%
%FSLAX46Y46*%
G04 Gerber Fmt 4.6, Leading zero omitted, Abs format (unit mm)*
G04 Created by KiCad (PCBNEW 7.0.10) date 2024-01-19 17:56:23*
%MOMM*%
%LPD*%
G01*
G04 APERTURE LIST*
G04 Aperture macros list*
%AMRoundRect*
0 Rectangle with rounded corners*
0 $1 Rounding radius*
0 $2 $3 $4 $5 $6 $7 $8 $9 X,Y pos of 4 corners*
0 Add a 4 corners polygon primitive as box body*
4,1,4,$2,$3,$4,$5,$6,$7,$8,$9,$2,$3,0*
0 Add four circle primitives for the rounded corners*
1,1,$1+$1,$2,$3*
1,1,$1+$1,$4,$5*
1,1,$1+$1,$6,$7*
1,1,$1+$1,$8,$9*
0 Add four rect primitives between the rounded corners*
20,1,$1+$1,$2,$3,$4,$5,0*
20,1,$1+$1,$4,$5,$6,$7,0*
20,1,$1+$1,$6,$7,$8,$9,0*
20,1,$1+$1,$8,$9,$2,$3,0*%
G04 Aperture macros list end*
%ADD10C,0.150000*%
%ADD11C,0.254000*%
%ADD12C,0.120000*%
%ADD13C,0.200000*%
%ADD14C,0.127000*%
%ADD15C,0.100000*%
%ADD16C,0.000000*%
%ADD17C,0.300000*%
%ADD18C,0.010000*%
%ADD19RoundRect,0.140000X-0.170000X0.140000X-0.170000X-0.140000X0.170000X-0.140000X0.170000X0.140000X0*%
%ADD20RoundRect,0.140000X0.170000X-0.140000X0.170000X0.140000X-0.170000X0.140000X-0.170000X-0.140000X0*%
%ADD21RoundRect,0.250000X-0.475000X0.250000X-0.475000X-0.250000X0.475000X-0.250000X0.475000X0.250000X0*%
%ADD22RoundRect,0.250000X0.475000X-0.250000X0.475000X0.250000X-0.475000X0.250000X-0.475000X-0.250000X0*%
%ADD23RoundRect,0.250000X-0.250000X-0.475000X0.250000X-0.475000X0.250000X0.475000X-0.250000X0.475000X0*%
%ADD24RoundRect,0.250000X0.250000X0.475000X-0.250000X0.475000X-0.250000X-0.475000X0.250000X-0.475000X0*%
%ADD25O,3.960000X1.980000*%
%ADD26R,3.960000X1.980000*%
%ADD27RoundRect,0.243750X0.243750X0.456250X-0.243750X0.456250X-0.243750X-0.456250X0.243750X-0.456250X0*%
%ADD28RoundRect,0.079400X0.317600X0.707600X-0.317600X0.707600X-0.317600X-0.707600X0.317600X-0.707600X0*%
%ADD29C,1.200000*%
%ADD30RoundRect,0.250000X0.450000X-0.262500X0.450000X0.262500X-0.450000X0.262500X-0.450000X-0.262500X0*%
%ADD31RoundRect,0.218750X0.218750X0.381250X-0.218750X0.381250X-0.218750X-0.381250X0.218750X-0.381250X0*%
%ADD32RoundRect,0.250000X0.312500X0.625000X-0.312500X0.625000X-0.312500X-0.625000X0.312500X-0.625000X0*%
%ADD33O,1.700000X1.700000*%
%ADD34R,1.700000X1.700000*%
%ADD35RoundRect,0.243750X-0.456250X0.243750X-0.456250X-0.243750X0.456250X-0.243750X0.456250X0.243750X0*%
%ADD36C,4.000000*%
%ADD37C,1.600000*%
%ADD38R,1.600000X1.600000*%
%ADD39C,1.217000*%
%ADD40R,1.217000X1.217000*%
%ADD41RoundRect,0.250000X-0.262500X-0.450000X0.262500X-0.450000X0.262500X0.450000X-0.262500X0.450000X0*%
%ADD42RoundRect,0.250000X-0.450000X0.262500X-0.450000X-0.262500X0.450000X-0.262500X0.450000X0.262500X0*%
%ADD43RoundRect,0.250000X0.262500X0.450000X-0.262500X0.450000X-0.262500X-0.450000X0.262500X-0.450000X0*%
%ADD44RoundRect,0.250000X-0.312500X-0.625000X0.312500X-0.625000X0.312500X0.625000X-0.312500X0.625000X0*%
%ADD45R,1.000000X1.800000*%
%ADD46RoundRect,0.102000X-0.500000X-0.375000X0.500000X-0.375000X0.500000X0.375000X-0.500000X0.375000X0*%
%ADD47RoundRect,0.075000X0.700000X-0.075000X0.700000X0.075000X-0.700000X0.075000X-0.700000X-0.075000X0*%
%ADD48RoundRect,0.075000X0.075000X-0.700000X0.075000X0.700000X-0.075000X0.700000X-0.075000X-0.700000X0*%
%ADD49R,1.200000X1.400000*%
%ADD50R,3.400000X3.400000*%
%ADD51R,1.000000X0.300000*%
%ADD52R,0.300000X1.000000*%
%ADD53C,3.000000*%
G04 APERTURE END LIST*
D10*
X93609580Y-84342857D02*
X93657200Y-84390476D01*
X93657200Y-84390476D02*
X93704819Y-84533333D01*
X93704819Y-84533333D02*
X93704819Y-84628571D01*
X93704819Y-84628571D02*
X93657200Y-84771428D01*
X93657200Y-84771428D02*
X93561961Y-84866666D01*
X93561961Y-84866666D02*
X93466723Y-84914285D01*
X93466723Y-84914285D02*
X93276247Y-84961904D01*
X93276247Y-84961904D02*
X93133390Y-84961904D01*
X93133390Y-84961904D02*
X92942914Y-84914285D01*
X92942914Y-84914285D02*
X92847676Y-84866666D01*
X92847676Y-84866666D02*
X92752438Y-84771428D01*
X92752438Y-84771428D02*
X92704819Y-84628571D01*
X92704819Y-84628571D02*
X92704819Y-84533333D01*
X92704819Y-84533333D02*
X92752438Y-84390476D01*
X92752438Y-84390476D02*
X92800057Y-84342857D01*
X93704819Y-83390476D02*
X93704819Y-83961904D01*
X93704819Y-83676190D02*
X92704819Y-83676190D01*
X92704819Y-83676190D02*
X92847676Y-83771428D01*
X92847676Y-83771428D02*
X92942914Y-83866666D01*
X92942914Y-83866666D02*
X92990533Y-83961904D01*
X93038152Y-82533333D02*
X93704819Y-82533333D01*
X92657200Y-82771428D02*
X93371485Y-83009523D01*
X93371485Y-83009523D02*
X93371485Y-82390476D01*
X99859580Y-74666666D02*
X99907200Y-74714285D01*
X99907200Y-74714285D02*
X99954819Y-74857142D01*
X99954819Y-74857142D02*
X99954819Y-74952380D01*
X99954819Y-74952380D02*
X99907200Y-75095237D01*
X99907200Y-75095237D02*
X99811961Y-75190475D01*
X99811961Y-75190475D02*
X99716723Y-75238094D01*
X99716723Y-75238094D02*
X99526247Y-75285713D01*
X99526247Y-75285713D02*
X99383390Y-75285713D01*
X99383390Y-75285713D02*
X99192914Y-75238094D01*
X99192914Y-75238094D02*
X99097676Y-75190475D01*
X99097676Y-75190475D02*
X99002438Y-75095237D01*
X99002438Y-75095237D02*
X98954819Y-74952380D01*
X98954819Y-74952380D02*
X98954819Y-74857142D01*
X98954819Y-74857142D02*
X99002438Y-74714285D01*
X99002438Y-74714285D02*
X99050057Y-74666666D01*
X99288152Y-73809523D02*
X99954819Y-73809523D01*
X98907200Y-74047618D02*
X99621485Y-74285713D01*
X99621485Y-74285713D02*
X99621485Y-73666666D01*
X106857142Y-71609580D02*
X106809523Y-71657200D01*
X106809523Y-71657200D02*
X106666666Y-71704819D01*
X106666666Y-71704819D02*
X106571428Y-71704819D01*
X106571428Y-71704819D02*
X106428571Y-71657200D01*
X106428571Y-71657200D02*
X106333333Y-71561961D01*
X106333333Y-71561961D02*
X106285714Y-71466723D01*
X106285714Y-71466723D02*
X106238095Y-71276247D01*
X106238095Y-71276247D02*
X106238095Y-71133390D01*
X106238095Y-71133390D02*
X106285714Y-70942914D01*
X106285714Y-70942914D02*
X106333333Y-70847676D01*
X106333333Y-70847676D02*
X106428571Y-70752438D01*
X106428571Y-70752438D02*
X106571428Y-70704819D01*
X106571428Y-70704819D02*
X106666666Y-70704819D01*
X106666666Y-70704819D02*
X106809523Y-70752438D01*
X106809523Y-70752438D02*
X106857142Y-70800057D01*
X107809523Y-71704819D02*
X107238095Y-71704819D01*
X107523809Y-71704819D02*
X107523809Y-70704819D01*
X107523809Y-70704819D02*
X107428571Y-70847676D01*
X107428571Y-70847676D02*
X107333333Y-70942914D01*
X107333333Y-70942914D02*
X107238095Y-70990533D01*
X108285714Y-71704819D02*
X108476190Y-71704819D01*
X108476190Y-71704819D02*
X108571428Y-71657200D01*
X108571428Y-71657200D02*
X108619047Y-71609580D01*
X108619047Y-71609580D02*
X108714285Y-71466723D01*
X108714285Y-71466723D02*
X108761904Y-71276247D01*
X108761904Y-71276247D02*
X108761904Y-70895295D01*
X108761904Y-70895295D02*
X108714285Y-70800057D01*
X108714285Y-70800057D02*
X108666666Y-70752438D01*
X108666666Y-70752438D02*
X108571428Y-70704819D01*
X108571428Y-70704819D02*
X108380952Y-70704819D01*
X108380952Y-70704819D02*
X108285714Y-70752438D01*
X108285714Y-70752438D02*
X108238095Y-70800057D01*
X108238095Y-70800057D02*
X108190476Y-70895295D01*
X108190476Y-70895295D02*
X108190476Y-71133390D01*
X108190476Y-71133390D02*
X108238095Y-71228628D01*
X108238095Y-71228628D02*
X108285714Y-71276247D01*
X108285714Y-71276247D02*
X108380952Y-71323866D01*
X108380952Y-71323866D02*
X108571428Y-71323866D01*
X108571428Y-71323866D02*
X108666666Y-71276247D01*
X108666666Y-71276247D02*
X108714285Y-71228628D01*
X108714285Y-71228628D02*
X108761904Y-71133390D01*
X89107142Y-60359580D02*
X89059523Y-60407200D01*
X89059523Y-60407200D02*
X88916666Y-60454819D01*
X88916666Y-60454819D02*
X88821428Y-60454819D01*
X88821428Y-60454819D02*
X88678571Y-60407200D01*
X88678571Y-60407200D02*
X88583333Y-60311961D01*
X88583333Y-60311961D02*
X88535714Y-60216723D01*
X88535714Y-60216723D02*
X88488095Y-60026247D01*
X88488095Y-60026247D02*
X88488095Y-59883390D01*
X88488095Y-59883390D02*
X88535714Y-59692914D01*
X88535714Y-59692914D02*
X88583333Y-59597676D01*
X88583333Y-59597676D02*
X88678571Y-59502438D01*
X88678571Y-59502438D02*
X88821428Y-59454819D01*
X88821428Y-59454819D02*
X88916666Y-59454819D01*
X88916666Y-59454819D02*
X89059523Y-59502438D01*
X89059523Y-59502438D02*
X89107142Y-59550057D01*
X90059523Y-60454819D02*
X89488095Y-60454819D01*
X89773809Y-60454819D02*
X89773809Y-59454819D01*
X89773809Y-59454819D02*
X89678571Y-59597676D01*
X89678571Y-59597676D02*
X89583333Y-59692914D01*
X89583333Y-59692914D02*
X89488095Y-59740533D01*
X90392857Y-59454819D02*
X91011904Y-59454819D01*
X91011904Y-59454819D02*
X90678571Y-59835771D01*
X90678571Y-59835771D02*
X90821428Y-59835771D01*
X90821428Y-59835771D02*
X90916666Y-59883390D01*
X90916666Y-59883390D02*
X90964285Y-59931009D01*
X90964285Y-59931009D02*
X91011904Y-60026247D01*
X91011904Y-60026247D02*
X91011904Y-60264342D01*
X91011904Y-60264342D02*
X90964285Y-60359580D01*
X90964285Y-60359580D02*
X90916666Y-60407200D01*
X90916666Y-60407200D02*
X90821428Y-60454819D01*
X90821428Y-60454819D02*
X90535714Y-60454819D01*
X90535714Y-60454819D02*
X90440476Y-60407200D01*
X90440476Y-60407200D02*
X90392857Y-60359580D01*
X79857142Y-75359580D02*
X79809523Y-75407200D01*
X79809523Y-75407200D02*
X79666666Y-75454819D01*
X79666666Y-75454819D02*
X79571428Y-75454819D01*
X79571428Y-75454819D02*
X79428571Y-75407200D01*
X79428571Y-75407200D02*
X79333333Y-75311961D01*
X79333333Y-75311961D02*
X79285714Y-75216723D01*
X79285714Y-75216723D02*
X79238095Y-75026247D01*
X79238095Y-75026247D02*
X79238095Y-74883390D01*
X79238095Y-74883390D02*
X79285714Y-74692914D01*
X79285714Y-74692914D02*
X79333333Y-74597676D01*
X79333333Y-74597676D02*
X79428571Y-74502438D01*
X79428571Y-74502438D02*
X79571428Y-74454819D01*
X79571428Y-74454819D02*
X79666666Y-74454819D01*
X79666666Y-74454819D02*
X79809523Y-74502438D01*
X79809523Y-74502438D02*
X79857142Y-74550057D01*
X80809523Y-75454819D02*
X80238095Y-75454819D01*
X80523809Y-75454819D02*
X80523809Y-74454819D01*
X80523809Y-74454819D02*
X80428571Y-74597676D01*
X80428571Y-74597676D02*
X80333333Y-74692914D01*
X80333333Y-74692914D02*
X80238095Y-74740533D01*
X81142857Y-74454819D02*
X81809523Y-74454819D01*
X81809523Y-74454819D02*
X81380952Y-75454819D01*
X86333333Y-74859580D02*
X86285714Y-74907200D01*
X86285714Y-74907200D02*
X86142857Y-74954819D01*
X86142857Y-74954819D02*
X86047619Y-74954819D01*
X86047619Y-74954819D02*
X85904762Y-74907200D01*
X85904762Y-74907200D02*
X85809524Y-74811961D01*
X85809524Y-74811961D02*
X85761905Y-74716723D01*
X85761905Y-74716723D02*
X85714286Y-74526247D01*
X85714286Y-74526247D02*
X85714286Y-74383390D01*
X85714286Y-74383390D02*
X85761905Y-74192914D01*
X85761905Y-74192914D02*
X85809524Y-74097676D01*
X85809524Y-74097676D02*
X85904762Y-74002438D01*
X85904762Y-74002438D02*
X86047619Y-73954819D01*
X86047619Y-73954819D02*
X86142857Y-73954819D01*
X86142857Y-73954819D02*
X86285714Y-74002438D01*
X86285714Y-74002438D02*
X86333333Y-74050057D01*
X86666667Y-73954819D02*
X87285714Y-73954819D01*
X87285714Y-73954819D02*
X86952381Y-74335771D01*
X86952381Y-74335771D02*
X87095238Y-74335771D01*
X87095238Y-74335771D02*
X87190476Y-74383390D01*
X87190476Y-74383390D02*
X87238095Y-74431009D01*
X87238095Y-74431009D02*
X87285714Y-74526247D01*
X87285714Y-74526247D02*
X87285714Y-74764342D01*
X87285714Y-74764342D02*
X87238095Y-74859580D01*
X87238095Y-74859580D02*
X87190476Y-74907200D01*
X87190476Y-74907200D02*
X87095238Y-74954819D01*
X87095238Y-74954819D02*
X86809524Y-74954819D01*
X86809524Y-74954819D02*
X86714286Y-74907200D01*
X86714286Y-74907200D02*
X86666667Y-74859580D01*
X83333333Y-70881580D02*
X83285714Y-70929200D01*
X83285714Y-70929200D02*
X83142857Y-70976819D01*
X83142857Y-70976819D02*
X83047619Y-70976819D01*
X83047619Y-70976819D02*
X82904762Y-70929200D01*
X82904762Y-70929200D02*
X82809524Y-70833961D01*
X82809524Y-70833961D02*
X82761905Y-70738723D01*
X82761905Y-70738723D02*
X82714286Y-70548247D01*
X82714286Y-70548247D02*
X82714286Y-70405390D01*
X82714286Y-70405390D02*
X82761905Y-70214914D01*
X82761905Y-70214914D02*
X82809524Y-70119676D01*
X82809524Y-70119676D02*
X82904762Y-70024438D01*
X82904762Y-70024438D02*
X83047619Y-69976819D01*
X83047619Y-69976819D02*
X83142857Y-69976819D01*
X83142857Y-69976819D02*
X83285714Y-70024438D01*
X83285714Y-70024438D02*
X83333333Y-70072057D01*
X84285714Y-70976819D02*
X83714286Y-70976819D01*
X84000000Y-70976819D02*
X84000000Y-69976819D01*
X84000000Y-69976819D02*
X83904762Y-70119676D01*
X83904762Y-70119676D02*
X83809524Y-70214914D01*
X83809524Y-70214914D02*
X83714286Y-70262533D01*
X107109580Y-73166666D02*
X107157200Y-73214285D01*
X107157200Y-73214285D02*
X107204819Y-73357142D01*
X107204819Y-73357142D02*
X107204819Y-73452380D01*
X107204819Y-73452380D02*
X107157200Y-73595237D01*
X107157200Y-73595237D02*
X107061961Y-73690475D01*
X107061961Y-73690475D02*
X106966723Y-73738094D01*
X106966723Y-73738094D02*
X106776247Y-73785713D01*
X106776247Y-73785713D02*
X106633390Y-73785713D01*
X106633390Y-73785713D02*
X106442914Y-73738094D01*
X106442914Y-73738094D02*
X106347676Y-73690475D01*
X106347676Y-73690475D02*
X106252438Y-73595237D01*
X106252438Y-73595237D02*
X106204819Y-73452380D01*
X106204819Y-73452380D02*
X106204819Y-73357142D01*
X106204819Y-73357142D02*
X106252438Y-73214285D01*
X106252438Y-73214285D02*
X106300057Y-73166666D01*
X106633390Y-72595237D02*
X106585771Y-72690475D01*
X106585771Y-72690475D02*
X106538152Y-72738094D01*
X106538152Y-72738094D02*
X106442914Y-72785713D01*
X106442914Y-72785713D02*
X106395295Y-72785713D01*
X106395295Y-72785713D02*
X106300057Y-72738094D01*
X106300057Y-72738094D02*
X106252438Y-72690475D01*
X106252438Y-72690475D02*
X106204819Y-72595237D01*
X106204819Y-72595237D02*
X106204819Y-72404761D01*
X106204819Y-72404761D02*
X106252438Y-72309523D01*
X106252438Y-72309523D02*
X106300057Y-72261904D01*
X106300057Y-72261904D02*
X106395295Y-72214285D01*
X106395295Y-72214285D02*
X106442914Y-72214285D01*
X106442914Y-72214285D02*
X106538152Y-72261904D01*
X106538152Y-72261904D02*
X106585771Y-72309523D01*
X106585771Y-72309523D02*
X106633390Y-72404761D01*
X106633390Y-72404761D02*
X106633390Y-72595237D01*
X106633390Y-72595237D02*
X106681009Y-72690475D01*
X106681009Y-72690475D02*
X106728628Y-72738094D01*
X106728628Y-72738094D02*
X106823866Y-72785713D01*
X106823866Y-72785713D02*
X107014342Y-72785713D01*
X107014342Y-72785713D02*
X107109580Y-72738094D01*
X107109580Y-72738094D02*
X107157200Y-72690475D01*
X107157200Y-72690475D02*
X107204819Y-72595237D01*
X107204819Y-72595237D02*
X107204819Y-72404761D01*
X107204819Y-72404761D02*
X107157200Y-72309523D01*
X107157200Y-72309523D02*
X107109580Y-72261904D01*
X107109580Y-72261904D02*
X107014342Y-72214285D01*
X107014342Y-72214285D02*
X106823866Y-72214285D01*
X106823866Y-72214285D02*
X106728628Y-72261904D01*
X106728628Y-72261904D02*
X106681009Y-72309523D01*
X106681009Y-72309523D02*
X106633390Y-72404761D01*
X78609580Y-71416666D02*
X78657200Y-71464285D01*
X78657200Y-71464285D02*
X78704819Y-71607142D01*
X78704819Y-71607142D02*
X78704819Y-71702380D01*
X78704819Y-71702380D02*
X78657200Y-71845237D01*
X78657200Y-71845237D02*
X78561961Y-71940475D01*
X78561961Y-71940475D02*
X78466723Y-71988094D01*
X78466723Y-71988094D02*
X78276247Y-72035713D01*
X78276247Y-72035713D02*
X78133390Y-72035713D01*
X78133390Y-72035713D02*
X77942914Y-71988094D01*
X77942914Y-71988094D02*
X77847676Y-71940475D01*
X77847676Y-71940475D02*
X77752438Y-71845237D01*
X77752438Y-71845237D02*
X77704819Y-71702380D01*
X77704819Y-71702380D02*
X77704819Y-71607142D01*
X77704819Y-71607142D02*
X77752438Y-71464285D01*
X77752438Y-71464285D02*
X77800057Y-71416666D01*
X77800057Y-71035713D02*
X77752438Y-70988094D01*
X77752438Y-70988094D02*
X77704819Y-70892856D01*
X77704819Y-70892856D02*
X77704819Y-70654761D01*
X77704819Y-70654761D02*
X77752438Y-70559523D01*
X77752438Y-70559523D02*
X77800057Y-70511904D01*
X77800057Y-70511904D02*
X77895295Y-70464285D01*
X77895295Y-70464285D02*
X77990533Y-70464285D01*
X77990533Y-70464285D02*
X78133390Y-70511904D01*
X78133390Y-70511904D02*
X78704819Y-71083332D01*
X78704819Y-71083332D02*
X78704819Y-70464285D01*
X99609580Y-60892857D02*
X99657200Y-60940476D01*
X99657200Y-60940476D02*
X99704819Y-61083333D01*
X99704819Y-61083333D02*
X99704819Y-61178571D01*
X99704819Y-61178571D02*
X99657200Y-61321428D01*
X99657200Y-61321428D02*
X99561961Y-61416666D01*
X99561961Y-61416666D02*
X99466723Y-61464285D01*
X99466723Y-61464285D02*
X99276247Y-61511904D01*
X99276247Y-61511904D02*
X99133390Y-61511904D01*
X99133390Y-61511904D02*
X98942914Y-61464285D01*
X98942914Y-61464285D02*
X98847676Y-61416666D01*
X98847676Y-61416666D02*
X98752438Y-61321428D01*
X98752438Y-61321428D02*
X98704819Y-61178571D01*
X98704819Y-61178571D02*
X98704819Y-61083333D01*
X98704819Y-61083333D02*
X98752438Y-60940476D01*
X98752438Y-60940476D02*
X98800057Y-60892857D01*
X99704819Y-59940476D02*
X99704819Y-60511904D01*
X99704819Y-60226190D02*
X98704819Y-60226190D01*
X98704819Y-60226190D02*
X98847676Y-60321428D01*
X98847676Y-60321428D02*
X98942914Y-60416666D01*
X98942914Y-60416666D02*
X98990533Y-60511904D01*
X98800057Y-59559523D02*
X98752438Y-59511904D01*
X98752438Y-59511904D02*
X98704819Y-59416666D01*
X98704819Y-59416666D02*
X98704819Y-59178571D01*
X98704819Y-59178571D02*
X98752438Y-59083333D01*
X98752438Y-59083333D02*
X98800057Y-59035714D01*
X98800057Y-59035714D02*
X98895295Y-58988095D01*
X98895295Y-58988095D02*
X98990533Y-58988095D01*
X98990533Y-58988095D02*
X99133390Y-59035714D01*
X99133390Y-59035714D02*
X99704819Y-59607142D01*
X99704819Y-59607142D02*
X99704819Y-58988095D01*
X74144819Y-76748333D02*
X74859104Y-76748333D01*
X74859104Y-76748333D02*
X75001961Y-76795952D01*
X75001961Y-76795952D02*
X75097200Y-76891190D01*
X75097200Y-76891190D02*
X75144819Y-77034047D01*
X75144819Y-77034047D02*
X75144819Y-77129285D01*
X74144819Y-76367380D02*
X74144819Y-75748333D01*
X74144819Y-75748333D02*
X74525771Y-76081666D01*
X74525771Y-76081666D02*
X74525771Y-75938809D01*
X74525771Y-75938809D02*
X74573390Y-75843571D01*
X74573390Y-75843571D02*
X74621009Y-75795952D01*
X74621009Y-75795952D02*
X74716247Y-75748333D01*
X74716247Y-75748333D02*
X74954342Y-75748333D01*
X74954342Y-75748333D02*
X75049580Y-75795952D01*
X75049580Y-75795952D02*
X75097200Y-75843571D01*
X75097200Y-75843571D02*
X75144819Y-75938809D01*
X75144819Y-75938809D02*
X75144819Y-76224523D01*
X75144819Y-76224523D02*
X75097200Y-76319761D01*
X75097200Y-76319761D02*
X75049580Y-76367380D01*
X79140038Y-64811986D02*
X79140038Y-65460071D01*
X79140038Y-65460071D02*
X79178160Y-65536316D01*
X79178160Y-65536316D02*
X79216283Y-65574439D01*
X79216283Y-65574439D02*
X79292528Y-65612561D01*
X79292528Y-65612561D02*
X79445019Y-65612561D01*
X79445019Y-65612561D02*
X79521264Y-65574439D01*
X79521264Y-65574439D02*
X79559386Y-65536316D01*
X79559386Y-65536316D02*
X79597509Y-65460071D01*
X79597509Y-65460071D02*
X79597509Y-64811986D01*
X80321839Y-64811986D02*
X80169349Y-64811986D01*
X80169349Y-64811986D02*
X80093103Y-64850109D01*
X80093103Y-64850109D02*
X80054981Y-64888231D01*
X80054981Y-64888231D02*
X79978736Y-65002599D01*
X79978736Y-65002599D02*
X79940613Y-65155090D01*
X79940613Y-65155090D02*
X79940613Y-65460071D01*
X79940613Y-65460071D02*
X79978736Y-65536316D01*
X79978736Y-65536316D02*
X80016858Y-65574439D01*
X80016858Y-65574439D02*
X80093103Y-65612561D01*
X80093103Y-65612561D02*
X80245594Y-65612561D01*
X80245594Y-65612561D02*
X80321839Y-65574439D01*
X80321839Y-65574439D02*
X80359962Y-65536316D01*
X80359962Y-65536316D02*
X80398084Y-65460071D01*
X80398084Y-65460071D02*
X80398084Y-65269458D01*
X80398084Y-65269458D02*
X80359962Y-65193212D01*
X80359962Y-65193212D02*
X80321839Y-65155090D01*
X80321839Y-65155090D02*
X80245594Y-65116967D01*
X80245594Y-65116967D02*
X80093103Y-65116967D01*
X80093103Y-65116967D02*
X80016858Y-65155090D01*
X80016858Y-65155090D02*
X79978736Y-65193212D01*
X79978736Y-65193212D02*
X79940613Y-65269458D01*
X105333333Y-75204819D02*
X104857143Y-75204819D01*
X104857143Y-75204819D02*
X104857143Y-74204819D01*
X106190476Y-75204819D02*
X105619048Y-75204819D01*
X105904762Y-75204819D02*
X105904762Y-74204819D01*
X105904762Y-74204819D02*
X105809524Y-74347676D01*
X105809524Y-74347676D02*
X105714286Y-74442914D01*
X105714286Y-74442914D02*
X105619048Y-74490533D01*
X87704819Y-78738094D02*
X86704819Y-78738094D01*
X86704819Y-78738094D02*
X86704819Y-78499999D01*
X86704819Y-78499999D02*
X86752438Y-78357142D01*
X86752438Y-78357142D02*
X86847676Y-78261904D01*
X86847676Y-78261904D02*
X86942914Y-78214285D01*
X86942914Y-78214285D02*
X87133390Y-78166666D01*
X87133390Y-78166666D02*
X87276247Y-78166666D01*
X87276247Y-78166666D02*
X87466723Y-78214285D01*
X87466723Y-78214285D02*
X87561961Y-78261904D01*
X87561961Y-78261904D02*
X87657200Y-78357142D01*
X87657200Y-78357142D02*
X87704819Y-78499999D01*
X87704819Y-78499999D02*
X87704819Y-78738094D01*
X87704819Y-77214285D02*
X87704819Y-77785713D01*
X87704819Y-77499999D02*
X86704819Y-77499999D01*
X86704819Y-77499999D02*
X86847676Y-77595237D01*
X86847676Y-77595237D02*
X86942914Y-77690475D01*
X86942914Y-77690475D02*
X86990533Y-77785713D01*
X69054166Y-73954819D02*
X69054166Y-74669104D01*
X69054166Y-74669104D02*
X69006547Y-74811961D01*
X69006547Y-74811961D02*
X68911309Y-74907200D01*
X68911309Y-74907200D02*
X68768452Y-74954819D01*
X68768452Y-74954819D02*
X68673214Y-74954819D01*
X70054166Y-74954819D02*
X69482738Y-74954819D01*
X69768452Y-74954819D02*
X69768452Y-73954819D01*
X69768452Y-73954819D02*
X69673214Y-74097676D01*
X69673214Y-74097676D02*
X69577976Y-74192914D01*
X69577976Y-74192914D02*
X69482738Y-74240533D01*
D11*
X101404048Y-94739318D02*
X100980714Y-94134556D01*
X100678333Y-94739318D02*
X100678333Y-93469318D01*
X100678333Y-93469318D02*
X101162143Y-93469318D01*
X101162143Y-93469318D02*
X101283095Y-93529794D01*
X101283095Y-93529794D02*
X101343572Y-93590270D01*
X101343572Y-93590270D02*
X101404048Y-93711222D01*
X101404048Y-93711222D02*
X101404048Y-93892651D01*
X101404048Y-93892651D02*
X101343572Y-94013603D01*
X101343572Y-94013603D02*
X101283095Y-94074080D01*
X101283095Y-94074080D02*
X101162143Y-94134556D01*
X101162143Y-94134556D02*
X100678333Y-94134556D01*
X101766905Y-93469318D02*
X102190238Y-94739318D01*
X102190238Y-94739318D02*
X102613572Y-93469318D01*
X103581190Y-93469318D02*
X103339285Y-93469318D01*
X103339285Y-93469318D02*
X103218333Y-93529794D01*
X103218333Y-93529794D02*
X103157857Y-93590270D01*
X103157857Y-93590270D02*
X103036904Y-93771699D01*
X103036904Y-93771699D02*
X102976428Y-94013603D01*
X102976428Y-94013603D02*
X102976428Y-94497413D01*
X102976428Y-94497413D02*
X103036904Y-94618365D01*
X103036904Y-94618365D02*
X103097381Y-94678842D01*
X103097381Y-94678842D02*
X103218333Y-94739318D01*
X103218333Y-94739318D02*
X103460238Y-94739318D01*
X103460238Y-94739318D02*
X103581190Y-94678842D01*
X103581190Y-94678842D02*
X103641666Y-94618365D01*
X103641666Y-94618365D02*
X103702143Y-94497413D01*
X103702143Y-94497413D02*
X103702143Y-94195032D01*
X103702143Y-94195032D02*
X103641666Y-94074080D01*
X103641666Y-94074080D02*
X103581190Y-94013603D01*
X103581190Y-94013603D02*
X103460238Y-93953127D01*
X103460238Y-93953127D02*
X103218333Y-93953127D01*
X103218333Y-93953127D02*
X103097381Y-94013603D01*
X103097381Y-94013603D02*
X103036904Y-94074080D01*
X103036904Y-94074080D02*
X102976428Y-94195032D01*
D10*
X93333333Y-86617319D02*
X93000000Y-86141128D01*
X92761905Y-86617319D02*
X92761905Y-85617319D01*
X92761905Y-85617319D02*
X93142857Y-85617319D01*
X93142857Y-85617319D02*
X93238095Y-85664938D01*
X93238095Y-85664938D02*
X93285714Y-85712557D01*
X93285714Y-85712557D02*
X93333333Y-85807795D01*
X93333333Y-85807795D02*
X93333333Y-85950652D01*
X93333333Y-85950652D02*
X93285714Y-86045890D01*
X93285714Y-86045890D02*
X93238095Y-86093509D01*
X93238095Y-86093509D02*
X93142857Y-86141128D01*
X93142857Y-86141128D02*
X92761905Y-86141128D01*
X94190476Y-85950652D02*
X94190476Y-86617319D01*
X93952381Y-85569700D02*
X93714286Y-86283985D01*
X93714286Y-86283985D02*
X94333333Y-86283985D01*
X70916666Y-51704819D02*
X70916666Y-52419104D01*
X70916666Y-52419104D02*
X70869047Y-52561961D01*
X70869047Y-52561961D02*
X70773809Y-52657200D01*
X70773809Y-52657200D02*
X70630952Y-52704819D01*
X70630952Y-52704819D02*
X70535714Y-52704819D01*
X71821428Y-51704819D02*
X71630952Y-51704819D01*
X71630952Y-51704819D02*
X71535714Y-51752438D01*
X71535714Y-51752438D02*
X71488095Y-51800057D01*
X71488095Y-51800057D02*
X71392857Y-51942914D01*
X71392857Y-51942914D02*
X71345238Y-52133390D01*
X71345238Y-52133390D02*
X71345238Y-52514342D01*
X71345238Y-52514342D02*
X71392857Y-52609580D01*
X71392857Y-52609580D02*
X71440476Y-52657200D01*
X71440476Y-52657200D02*
X71535714Y-52704819D01*
X71535714Y-52704819D02*
X71726190Y-52704819D01*
X71726190Y-52704819D02*
X71821428Y-52657200D01*
X71821428Y-52657200D02*
X71869047Y-52609580D01*
X71869047Y-52609580D02*
X71916666Y-52514342D01*
X71916666Y-52514342D02*
X71916666Y-52276247D01*
X71916666Y-52276247D02*
X71869047Y-52181009D01*
X71869047Y-52181009D02*
X71821428Y-52133390D01*
X71821428Y-52133390D02*
X71726190Y-52085771D01*
X71726190Y-52085771D02*
X71535714Y-52085771D01*
X71535714Y-52085771D02*
X71440476Y-52133390D01*
X71440476Y-52133390D02*
X71392857Y-52181009D01*
X71392857Y-52181009D02*
X71345238Y-52276247D01*
X109202319Y-112638333D02*
X109916604Y-112638333D01*
X109916604Y-112638333D02*
X110059461Y-112685952D01*
X110059461Y-112685952D02*
X110154700Y-112781190D01*
X110154700Y-112781190D02*
X110202319Y-112924047D01*
X110202319Y-112924047D02*
X110202319Y-113019285D01*
X110202319Y-112114523D02*
X110202319Y-111924047D01*
X110202319Y-111924047D02*
X110154700Y-111828809D01*
X110154700Y-111828809D02*
X110107080Y-111781190D01*
X110107080Y-111781190D02*
X109964223Y-111685952D01*
X109964223Y-111685952D02*
X109773747Y-111638333D01*
X109773747Y-111638333D02*
X109392795Y-111638333D01*
X109392795Y-111638333D02*
X109297557Y-111685952D01*
X109297557Y-111685952D02*
X109249938Y-111733571D01*
X109249938Y-111733571D02*
X109202319Y-111828809D01*
X109202319Y-111828809D02*
X109202319Y-112019285D01*
X109202319Y-112019285D02*
X109249938Y-112114523D01*
X109249938Y-112114523D02*
X109297557Y-112162142D01*
X109297557Y-112162142D02*
X109392795Y-112209761D01*
X109392795Y-112209761D02*
X109630890Y-112209761D01*
X109630890Y-112209761D02*
X109726128Y-112162142D01*
X109726128Y-112162142D02*
X109773747Y-112114523D01*
X109773747Y-112114523D02*
X109821366Y-112019285D01*
X109821366Y-112019285D02*
X109821366Y-111828809D01*
X109821366Y-111828809D02*
X109773747Y-111733571D01*
X109773747Y-111733571D02*
X109726128Y-111685952D01*
X109726128Y-111685952D02*
X109630890Y-111638333D01*
X74944819Y-109392857D02*
X74468628Y-109726190D01*
X74944819Y-109964285D02*
X73944819Y-109964285D01*
X73944819Y-109964285D02*
X73944819Y-109583333D01*
X73944819Y-109583333D02*
X73992438Y-109488095D01*
X73992438Y-109488095D02*
X74040057Y-109440476D01*
X74040057Y-109440476D02*
X74135295Y-109392857D01*
X74135295Y-109392857D02*
X74278152Y-109392857D01*
X74278152Y-109392857D02*
X74373390Y-109440476D01*
X74373390Y-109440476D02*
X74421009Y-109488095D01*
X74421009Y-109488095D02*
X74468628Y-109583333D01*
X74468628Y-109583333D02*
X74468628Y-109964285D01*
X73944819Y-109059523D02*
X73944819Y-108440476D01*
X73944819Y-108440476D02*
X74325771Y-108773809D01*
X74325771Y-108773809D02*
X74325771Y-108630952D01*
X74325771Y-108630952D02*
X74373390Y-108535714D01*
X74373390Y-108535714D02*
X74421009Y-108488095D01*
X74421009Y-108488095D02*
X74516247Y-108440476D01*
X74516247Y-108440476D02*
X74754342Y-108440476D01*
X74754342Y-108440476D02*
X74849580Y-108488095D01*
X74849580Y-108488095D02*
X74897200Y-108535714D01*
X74897200Y-108535714D02*
X74944819Y-108630952D01*
X74944819Y-108630952D02*
X74944819Y-108916666D01*
X74944819Y-108916666D02*
X74897200Y-109011904D01*
X74897200Y-109011904D02*
X74849580Y-109059523D01*
X73944819Y-107535714D02*
X73944819Y-108011904D01*
X73944819Y-108011904D02*
X74421009Y-108059523D01*
X74421009Y-108059523D02*
X74373390Y-108011904D01*
X74373390Y-108011904D02*
X74325771Y-107916666D01*
X74325771Y-107916666D02*
X74325771Y-107678571D01*
X74325771Y-107678571D02*
X74373390Y-107583333D01*
X74373390Y-107583333D02*
X74421009Y-107535714D01*
X74421009Y-107535714D02*
X74516247Y-107488095D01*
X74516247Y-107488095D02*
X74754342Y-107488095D01*
X74754342Y-107488095D02*
X74849580Y-107535714D01*
X74849580Y-107535714D02*
X74897200Y-107583333D01*
X74897200Y-107583333D02*
X74944819Y-107678571D01*
X74944819Y-107678571D02*
X74944819Y-107916666D01*
X74944819Y-107916666D02*
X74897200Y-108011904D01*
X74897200Y-108011904D02*
X74849580Y-108059523D01*
X80333333Y-53914819D02*
X80000000Y-53438628D01*
X79761905Y-53914819D02*
X79761905Y-52914819D01*
X79761905Y-52914819D02*
X80142857Y-52914819D01*
X80142857Y-52914819D02*
X80238095Y-52962438D01*
X80238095Y-52962438D02*
X80285714Y-53010057D01*
X80285714Y-53010057D02*
X80333333Y-53105295D01*
X80333333Y-53105295D02*
X80333333Y-53248152D01*
X80333333Y-53248152D02*
X80285714Y-53343390D01*
X80285714Y-53343390D02*
X80238095Y-53391009D01*
X80238095Y-53391009D02*
X80142857Y-53438628D01*
X80142857Y-53438628D02*
X79761905Y-53438628D01*
X81190476Y-52914819D02*
X81000000Y-52914819D01*
X81000000Y-52914819D02*
X80904762Y-52962438D01*
X80904762Y-52962438D02*
X80857143Y-53010057D01*
X80857143Y-53010057D02*
X80761905Y-53152914D01*
X80761905Y-53152914D02*
X80714286Y-53343390D01*
X80714286Y-53343390D02*
X80714286Y-53724342D01*
X80714286Y-53724342D02*
X80761905Y-53819580D01*
X80761905Y-53819580D02*
X80809524Y-53867200D01*
X80809524Y-53867200D02*
X80904762Y-53914819D01*
X80904762Y-53914819D02*
X81095238Y-53914819D01*
X81095238Y-53914819D02*
X81190476Y-53867200D01*
X81190476Y-53867200D02*
X81238095Y-53819580D01*
X81238095Y-53819580D02*
X81285714Y-53724342D01*
X81285714Y-53724342D02*
X81285714Y-53486247D01*
X81285714Y-53486247D02*
X81238095Y-53391009D01*
X81238095Y-53391009D02*
X81190476Y-53343390D01*
X81190476Y-53343390D02*
X81095238Y-53295771D01*
X81095238Y-53295771D02*
X80904762Y-53295771D01*
X80904762Y-53295771D02*
X80809524Y-53343390D01*
X80809524Y-53343390D02*
X80761905Y-53391009D01*
X80761905Y-53391009D02*
X80714286Y-53486247D01*
D11*
X66384048Y-94729318D02*
X65960714Y-94124556D01*
X65658333Y-94729318D02*
X65658333Y-93459318D01*
X65658333Y-93459318D02*
X66142143Y-93459318D01*
X66142143Y-93459318D02*
X66263095Y-93519794D01*
X66263095Y-93519794D02*
X66323572Y-93580270D01*
X66323572Y-93580270D02*
X66384048Y-93701222D01*
X66384048Y-93701222D02*
X66384048Y-93882651D01*
X66384048Y-93882651D02*
X66323572Y-94003603D01*
X66323572Y-94003603D02*
X66263095Y-94064080D01*
X66263095Y-94064080D02*
X66142143Y-94124556D01*
X66142143Y-94124556D02*
X65658333Y-94124556D01*
X66746905Y-93459318D02*
X67170238Y-94729318D01*
X67170238Y-94729318D02*
X67593572Y-93459318D01*
X67895952Y-93459318D02*
X68682143Y-93459318D01*
X68682143Y-93459318D02*
X68258809Y-93943127D01*
X68258809Y-93943127D02*
X68440238Y-93943127D01*
X68440238Y-93943127D02*
X68561190Y-94003603D01*
X68561190Y-94003603D02*
X68621666Y-94064080D01*
X68621666Y-94064080D02*
X68682143Y-94185032D01*
X68682143Y-94185032D02*
X68682143Y-94487413D01*
X68682143Y-94487413D02*
X68621666Y-94608365D01*
X68621666Y-94608365D02*
X68561190Y-94668842D01*
X68561190Y-94668842D02*
X68440238Y-94729318D01*
X68440238Y-94729318D02*
X68077381Y-94729318D01*
X68077381Y-94729318D02*
X67956428Y-94668842D01*
X67956428Y-94668842D02*
X67895952Y-94608365D01*
D10*
X90833333Y-86617319D02*
X90500000Y-86141128D01*
X90261905Y-86617319D02*
X90261905Y-85617319D01*
X90261905Y-85617319D02*
X90642857Y-85617319D01*
X90642857Y-85617319D02*
X90738095Y-85664938D01*
X90738095Y-85664938D02*
X90785714Y-85712557D01*
X90785714Y-85712557D02*
X90833333Y-85807795D01*
X90833333Y-85807795D02*
X90833333Y-85950652D01*
X90833333Y-85950652D02*
X90785714Y-86045890D01*
X90785714Y-86045890D02*
X90738095Y-86093509D01*
X90738095Y-86093509D02*
X90642857Y-86141128D01*
X90642857Y-86141128D02*
X90261905Y-86141128D01*
X91166667Y-85617319D02*
X91785714Y-85617319D01*
X91785714Y-85617319D02*
X91452381Y-85998271D01*
X91452381Y-85998271D02*
X91595238Y-85998271D01*
X91595238Y-85998271D02*
X91690476Y-86045890D01*
X91690476Y-86045890D02*
X91738095Y-86093509D01*
X91738095Y-86093509D02*
X91785714Y-86188747D01*
X91785714Y-86188747D02*
X91785714Y-86426842D01*
X91785714Y-86426842D02*
X91738095Y-86522080D01*
X91738095Y-86522080D02*
X91690476Y-86569700D01*
X91690476Y-86569700D02*
X91595238Y-86617319D01*
X91595238Y-86617319D02*
X91309524Y-86617319D01*
X91309524Y-86617319D02*
X91214286Y-86569700D01*
X91214286Y-86569700D02*
X91166667Y-86522080D01*
D11*
X83931548Y-94779318D02*
X83508214Y-94174556D01*
X83205833Y-94779318D02*
X83205833Y-93509318D01*
X83205833Y-93509318D02*
X83689643Y-93509318D01*
X83689643Y-93509318D02*
X83810595Y-93569794D01*
X83810595Y-93569794D02*
X83871072Y-93630270D01*
X83871072Y-93630270D02*
X83931548Y-93751222D01*
X83931548Y-93751222D02*
X83931548Y-93932651D01*
X83931548Y-93932651D02*
X83871072Y-94053603D01*
X83871072Y-94053603D02*
X83810595Y-94114080D01*
X83810595Y-94114080D02*
X83689643Y-94174556D01*
X83689643Y-94174556D02*
X83205833Y-94174556D01*
X84294405Y-93509318D02*
X84717738Y-94779318D01*
X84717738Y-94779318D02*
X85141072Y-93509318D01*
X85503928Y-93630270D02*
X85564404Y-93569794D01*
X85564404Y-93569794D02*
X85685357Y-93509318D01*
X85685357Y-93509318D02*
X85987738Y-93509318D01*
X85987738Y-93509318D02*
X86108690Y-93569794D01*
X86108690Y-93569794D02*
X86169166Y-93630270D01*
X86169166Y-93630270D02*
X86229643Y-93751222D01*
X86229643Y-93751222D02*
X86229643Y-93872175D01*
X86229643Y-93872175D02*
X86169166Y-94053603D01*
X86169166Y-94053603D02*
X85443452Y-94779318D01*
X85443452Y-94779318D02*
X86229643Y-94779318D01*
D10*
X90773809Y-76978628D02*
X90773809Y-77454819D01*
X90440476Y-76454819D02*
X90773809Y-76978628D01*
X90773809Y-76978628D02*
X91107142Y-76454819D01*
X91964285Y-77454819D02*
X91392857Y-77454819D01*
X91678571Y-77454819D02*
X91678571Y-76454819D01*
X91678571Y-76454819D02*
X91583333Y-76597676D01*
X91583333Y-76597676D02*
X91488095Y-76692914D01*
X91488095Y-76692914D02*
X91392857Y-76740533D01*
X89238095Y-55157200D02*
X89380952Y-55204819D01*
X89380952Y-55204819D02*
X89619047Y-55204819D01*
X89619047Y-55204819D02*
X89714285Y-55157200D01*
X89714285Y-55157200D02*
X89761904Y-55109580D01*
X89761904Y-55109580D02*
X89809523Y-55014342D01*
X89809523Y-55014342D02*
X89809523Y-54919104D01*
X89809523Y-54919104D02*
X89761904Y-54823866D01*
X89761904Y-54823866D02*
X89714285Y-54776247D01*
X89714285Y-54776247D02*
X89619047Y-54728628D01*
X89619047Y-54728628D02*
X89428571Y-54681009D01*
X89428571Y-54681009D02*
X89333333Y-54633390D01*
X89333333Y-54633390D02*
X89285714Y-54585771D01*
X89285714Y-54585771D02*
X89238095Y-54490533D01*
X89238095Y-54490533D02*
X89238095Y-54395295D01*
X89238095Y-54395295D02*
X89285714Y-54300057D01*
X89285714Y-54300057D02*
X89333333Y-54252438D01*
X89333333Y-54252438D02*
X89428571Y-54204819D01*
X89428571Y-54204819D02*
X89666666Y-54204819D01*
X89666666Y-54204819D02*
X89809523Y-54252438D01*
X90142857Y-54204819D02*
X90761904Y-54204819D01*
X90761904Y-54204819D02*
X90428571Y-54585771D01*
X90428571Y-54585771D02*
X90571428Y-54585771D01*
X90571428Y-54585771D02*
X90666666Y-54633390D01*
X90666666Y-54633390D02*
X90714285Y-54681009D01*
X90714285Y-54681009D02*
X90761904Y-54776247D01*
X90761904Y-54776247D02*
X90761904Y-55014342D01*
X90761904Y-55014342D02*
X90714285Y-55109580D01*
X90714285Y-55109580D02*
X90666666Y-55157200D01*
X90666666Y-55157200D02*
X90571428Y-55204819D01*
X90571428Y-55204819D02*
X90285714Y-55204819D01*
X90285714Y-55204819D02*
X90190476Y-55157200D01*
X90190476Y-55157200D02*
X90142857Y-55109580D01*
X126722319Y-112583333D02*
X127436604Y-112583333D01*
X127436604Y-112583333D02*
X127579461Y-112630952D01*
X127579461Y-112630952D02*
X127674700Y-112726190D01*
X127674700Y-112726190D02*
X127722319Y-112869047D01*
X127722319Y-112869047D02*
X127722319Y-112964285D01*
X127150890Y-111964285D02*
X127103271Y-112059523D01*
X127103271Y-112059523D02*
X127055652Y-112107142D01*
X127055652Y-112107142D02*
X126960414Y-112154761D01*
X126960414Y-112154761D02*
X126912795Y-112154761D01*
X126912795Y-112154761D02*
X126817557Y-112107142D01*
X126817557Y-112107142D02*
X126769938Y-112059523D01*
X126769938Y-112059523D02*
X126722319Y-111964285D01*
X126722319Y-111964285D02*
X126722319Y-111773809D01*
X126722319Y-111773809D02*
X126769938Y-111678571D01*
X126769938Y-111678571D02*
X126817557Y-111630952D01*
X126817557Y-111630952D02*
X126912795Y-111583333D01*
X126912795Y-111583333D02*
X126960414Y-111583333D01*
X126960414Y-111583333D02*
X127055652Y-111630952D01*
X127055652Y-111630952D02*
X127103271Y-111678571D01*
X127103271Y-111678571D02*
X127150890Y-111773809D01*
X127150890Y-111773809D02*
X127150890Y-111964285D01*
X127150890Y-111964285D02*
X127198509Y-112059523D01*
X127198509Y-112059523D02*
X127246128Y-112107142D01*
X127246128Y-112107142D02*
X127341366Y-112154761D01*
X127341366Y-112154761D02*
X127531842Y-112154761D01*
X127531842Y-112154761D02*
X127627080Y-112107142D01*
X127627080Y-112107142D02*
X127674700Y-112059523D01*
X127674700Y-112059523D02*
X127722319Y-111964285D01*
X127722319Y-111964285D02*
X127722319Y-111773809D01*
X127722319Y-111773809D02*
X127674700Y-111678571D01*
X127674700Y-111678571D02*
X127627080Y-111630952D01*
X127627080Y-111630952D02*
X127531842Y-111583333D01*
X127531842Y-111583333D02*
X127341366Y-111583333D01*
X127341366Y-111583333D02*
X127246128Y-111630952D01*
X127246128Y-111630952D02*
X127198509Y-111678571D01*
X127198509Y-111678571D02*
X127150890Y-111773809D01*
D11*
X118931548Y-94574318D02*
X118508214Y-93969556D01*
X118205833Y-94574318D02*
X118205833Y-93304318D01*
X118205833Y-93304318D02*
X118689643Y-93304318D01*
X118689643Y-93304318D02*
X118810595Y-93364794D01*
X118810595Y-93364794D02*
X118871072Y-93425270D01*
X118871072Y-93425270D02*
X118931548Y-93546222D01*
X118931548Y-93546222D02*
X118931548Y-93727651D01*
X118931548Y-93727651D02*
X118871072Y-93848603D01*
X118871072Y-93848603D02*
X118810595Y-93909080D01*
X118810595Y-93909080D02*
X118689643Y-93969556D01*
X118689643Y-93969556D02*
X118205833Y-93969556D01*
X119294405Y-93304318D02*
X119717738Y-94574318D01*
X119717738Y-94574318D02*
X120141072Y-93304318D01*
X121229643Y-94574318D02*
X120503928Y-94574318D01*
X120866785Y-94574318D02*
X120866785Y-93304318D01*
X120866785Y-93304318D02*
X120745833Y-93485746D01*
X120745833Y-93485746D02*
X120624881Y-93606699D01*
X120624881Y-93606699D02*
X120503928Y-93667175D01*
D10*
X77583333Y-56704819D02*
X77250000Y-56228628D01*
X77011905Y-56704819D02*
X77011905Y-55704819D01*
X77011905Y-55704819D02*
X77392857Y-55704819D01*
X77392857Y-55704819D02*
X77488095Y-55752438D01*
X77488095Y-55752438D02*
X77535714Y-55800057D01*
X77535714Y-55800057D02*
X77583333Y-55895295D01*
X77583333Y-55895295D02*
X77583333Y-56038152D01*
X77583333Y-56038152D02*
X77535714Y-56133390D01*
X77535714Y-56133390D02*
X77488095Y-56181009D01*
X77488095Y-56181009D02*
X77392857Y-56228628D01*
X77392857Y-56228628D02*
X77011905Y-56228628D01*
X78059524Y-56704819D02*
X78250000Y-56704819D01*
X78250000Y-56704819D02*
X78345238Y-56657200D01*
X78345238Y-56657200D02*
X78392857Y-56609580D01*
X78392857Y-56609580D02*
X78488095Y-56466723D01*
X78488095Y-56466723D02*
X78535714Y-56276247D01*
X78535714Y-56276247D02*
X78535714Y-55895295D01*
X78535714Y-55895295D02*
X78488095Y-55800057D01*
X78488095Y-55800057D02*
X78440476Y-55752438D01*
X78440476Y-55752438D02*
X78345238Y-55704819D01*
X78345238Y-55704819D02*
X78154762Y-55704819D01*
X78154762Y-55704819D02*
X78059524Y-55752438D01*
X78059524Y-55752438D02*
X78011905Y-55800057D01*
X78011905Y-55800057D02*
X77964286Y-55895295D01*
X77964286Y-55895295D02*
X77964286Y-56133390D01*
X77964286Y-56133390D02*
X78011905Y-56228628D01*
X78011905Y-56228628D02*
X78059524Y-56276247D01*
X78059524Y-56276247D02*
X78154762Y-56323866D01*
X78154762Y-56323866D02*
X78345238Y-56323866D01*
X78345238Y-56323866D02*
X78440476Y-56276247D01*
X78440476Y-56276247D02*
X78488095Y-56228628D01*
X78488095Y-56228628D02*
X78535714Y-56133390D01*
X88261905Y-87954819D02*
X88261905Y-86954819D01*
X88261905Y-86954819D02*
X88500000Y-86954819D01*
X88500000Y-86954819D02*
X88642857Y-87002438D01*
X88642857Y-87002438D02*
X88738095Y-87097676D01*
X88738095Y-87097676D02*
X88785714Y-87192914D01*
X88785714Y-87192914D02*
X88833333Y-87383390D01*
X88833333Y-87383390D02*
X88833333Y-87526247D01*
X88833333Y-87526247D02*
X88785714Y-87716723D01*
X88785714Y-87716723D02*
X88738095Y-87811961D01*
X88738095Y-87811961D02*
X88642857Y-87907200D01*
X88642857Y-87907200D02*
X88500000Y-87954819D01*
X88500000Y-87954819D02*
X88261905Y-87954819D01*
X89214286Y-87050057D02*
X89261905Y-87002438D01*
X89261905Y-87002438D02*
X89357143Y-86954819D01*
X89357143Y-86954819D02*
X89595238Y-86954819D01*
X89595238Y-86954819D02*
X89690476Y-87002438D01*
X89690476Y-87002438D02*
X89738095Y-87050057D01*
X89738095Y-87050057D02*
X89785714Y-87145295D01*
X89785714Y-87145295D02*
X89785714Y-87240533D01*
X89785714Y-87240533D02*
X89738095Y-87383390D01*
X89738095Y-87383390D02*
X89166667Y-87954819D01*
X89166667Y-87954819D02*
X89785714Y-87954819D01*
X104238095Y-84907200D02*
X104380952Y-84954819D01*
X104380952Y-84954819D02*
X104619047Y-84954819D01*
X104619047Y-84954819D02*
X104714285Y-84907200D01*
X104714285Y-84907200D02*
X104761904Y-84859580D01*
X104761904Y-84859580D02*
X104809523Y-84764342D01*
X104809523Y-84764342D02*
X104809523Y-84669104D01*
X104809523Y-84669104D02*
X104761904Y-84573866D01*
X104761904Y-84573866D02*
X104714285Y-84526247D01*
X104714285Y-84526247D02*
X104619047Y-84478628D01*
X104619047Y-84478628D02*
X104428571Y-84431009D01*
X104428571Y-84431009D02*
X104333333Y-84383390D01*
X104333333Y-84383390D02*
X104285714Y-84335771D01*
X104285714Y-84335771D02*
X104238095Y-84240533D01*
X104238095Y-84240533D02*
X104238095Y-84145295D01*
X104238095Y-84145295D02*
X104285714Y-84050057D01*
X104285714Y-84050057D02*
X104333333Y-84002438D01*
X104333333Y-84002438D02*
X104428571Y-83954819D01*
X104428571Y-83954819D02*
X104666666Y-83954819D01*
X104666666Y-83954819D02*
X104809523Y-84002438D01*
X105190476Y-84050057D02*
X105238095Y-84002438D01*
X105238095Y-84002438D02*
X105333333Y-83954819D01*
X105333333Y-83954819D02*
X105571428Y-83954819D01*
X105571428Y-83954819D02*
X105666666Y-84002438D01*
X105666666Y-84002438D02*
X105714285Y-84050057D01*
X105714285Y-84050057D02*
X105761904Y-84145295D01*
X105761904Y-84145295D02*
X105761904Y-84240533D01*
X105761904Y-84240533D02*
X105714285Y-84383390D01*
X105714285Y-84383390D02*
X105142857Y-84954819D01*
X105142857Y-84954819D02*
X105761904Y-84954819D01*
X87704819Y-81666666D02*
X87228628Y-81999999D01*
X87704819Y-82238094D02*
X86704819Y-82238094D01*
X86704819Y-82238094D02*
X86704819Y-81857142D01*
X86704819Y-81857142D02*
X86752438Y-81761904D01*
X86752438Y-81761904D02*
X86800057Y-81714285D01*
X86800057Y-81714285D02*
X86895295Y-81666666D01*
X86895295Y-81666666D02*
X87038152Y-81666666D01*
X87038152Y-81666666D02*
X87133390Y-81714285D01*
X87133390Y-81714285D02*
X87181009Y-81761904D01*
X87181009Y-81761904D02*
X87228628Y-81857142D01*
X87228628Y-81857142D02*
X87228628Y-82238094D01*
X87133390Y-81095237D02*
X87085771Y-81190475D01*
X87085771Y-81190475D02*
X87038152Y-81238094D01*
X87038152Y-81238094D02*
X86942914Y-81285713D01*
X86942914Y-81285713D02*
X86895295Y-81285713D01*
X86895295Y-81285713D02*
X86800057Y-81238094D01*
X86800057Y-81238094D02*
X86752438Y-81190475D01*
X86752438Y-81190475D02*
X86704819Y-81095237D01*
X86704819Y-81095237D02*
X86704819Y-80904761D01*
X86704819Y-80904761D02*
X86752438Y-80809523D01*
X86752438Y-80809523D02*
X86800057Y-80761904D01*
X86800057Y-80761904D02*
X86895295Y-80714285D01*
X86895295Y-80714285D02*
X86942914Y-80714285D01*
X86942914Y-80714285D02*
X87038152Y-80761904D01*
X87038152Y-80761904D02*
X87085771Y-80809523D01*
X87085771Y-80809523D02*
X87133390Y-80904761D01*
X87133390Y-80904761D02*
X87133390Y-81095237D01*
X87133390Y-81095237D02*
X87181009Y-81190475D01*
X87181009Y-81190475D02*
X87228628Y-81238094D01*
X87228628Y-81238094D02*
X87323866Y-81285713D01*
X87323866Y-81285713D02*
X87514342Y-81285713D01*
X87514342Y-81285713D02*
X87609580Y-81238094D01*
X87609580Y-81238094D02*
X87657200Y-81190475D01*
X87657200Y-81190475D02*
X87704819Y-81095237D01*
X87704819Y-81095237D02*
X87704819Y-80904761D01*
X87704819Y-80904761D02*
X87657200Y-80809523D01*
X87657200Y-80809523D02*
X87609580Y-80761904D01*
X87609580Y-80761904D02*
X87514342Y-80714285D01*
X87514342Y-80714285D02*
X87323866Y-80714285D01*
X87323866Y-80714285D02*
X87228628Y-80761904D01*
X87228628Y-80761904D02*
X87181009Y-80809523D01*
X87181009Y-80809523D02*
X87133390Y-80904761D01*
X84804819Y-70261904D02*
X85614342Y-70261904D01*
X85614342Y-70261904D02*
X85709580Y-70214285D01*
X85709580Y-70214285D02*
X85757200Y-70166666D01*
X85757200Y-70166666D02*
X85804819Y-70071428D01*
X85804819Y-70071428D02*
X85804819Y-69880952D01*
X85804819Y-69880952D02*
X85757200Y-69785714D01*
X85757200Y-69785714D02*
X85709580Y-69738095D01*
X85709580Y-69738095D02*
X85614342Y-69690476D01*
X85614342Y-69690476D02*
X84804819Y-69690476D01*
X85804819Y-68690476D02*
X85804819Y-69261904D01*
X85804819Y-68976190D02*
X84804819Y-68976190D01*
X84804819Y-68976190D02*
X84947676Y-69071428D01*
X84947676Y-69071428D02*
X85042914Y-69166666D01*
X85042914Y-69166666D02*
X85090533Y-69261904D01*
X99204819Y-57333333D02*
X99919104Y-57333333D01*
X99919104Y-57333333D02*
X100061961Y-57380952D01*
X100061961Y-57380952D02*
X100157200Y-57476190D01*
X100157200Y-57476190D02*
X100204819Y-57619047D01*
X100204819Y-57619047D02*
X100204819Y-57714285D01*
X99300057Y-56904761D02*
X99252438Y-56857142D01*
X99252438Y-56857142D02*
X99204819Y-56761904D01*
X99204819Y-56761904D02*
X99204819Y-56523809D01*
X99204819Y-56523809D02*
X99252438Y-56428571D01*
X99252438Y-56428571D02*
X99300057Y-56380952D01*
X99300057Y-56380952D02*
X99395295Y-56333333D01*
X99395295Y-56333333D02*
X99490533Y-56333333D01*
X99490533Y-56333333D02*
X99633390Y-56380952D01*
X99633390Y-56380952D02*
X100204819Y-56952380D01*
X100204819Y-56952380D02*
X100204819Y-56333333D01*
X97773809Y-78228628D02*
X97773809Y-78704819D01*
X97440476Y-77704819D02*
X97773809Y-78228628D01*
X97773809Y-78228628D02*
X98107142Y-77704819D01*
X98392857Y-77800057D02*
X98440476Y-77752438D01*
X98440476Y-77752438D02*
X98535714Y-77704819D01*
X98535714Y-77704819D02*
X98773809Y-77704819D01*
X98773809Y-77704819D02*
X98869047Y-77752438D01*
X98869047Y-77752438D02*
X98916666Y-77800057D01*
X98916666Y-77800057D02*
X98964285Y-77895295D01*
X98964285Y-77895295D02*
X98964285Y-77990533D01*
X98964285Y-77990533D02*
X98916666Y-78133390D01*
X98916666Y-78133390D02*
X98345238Y-78704819D01*
X98345238Y-78704819D02*
X98964285Y-78704819D01*
X86019819Y-64761904D02*
X86829342Y-64761904D01*
X86829342Y-64761904D02*
X86924580Y-64714285D01*
X86924580Y-64714285D02*
X86972200Y-64666666D01*
X86972200Y-64666666D02*
X87019819Y-64571428D01*
X87019819Y-64571428D02*
X87019819Y-64380952D01*
X87019819Y-64380952D02*
X86972200Y-64285714D01*
X86972200Y-64285714D02*
X86924580Y-64238095D01*
X86924580Y-64238095D02*
X86829342Y-64190476D01*
X86829342Y-64190476D02*
X86019819Y-64190476D01*
X86019819Y-63809523D02*
X86019819Y-63142857D01*
X86019819Y-63142857D02*
X87019819Y-63571428D01*
X104238095Y-78907200D02*
X104380952Y-78954819D01*
X104380952Y-78954819D02*
X104619047Y-78954819D01*
X104619047Y-78954819D02*
X104714285Y-78907200D01*
X104714285Y-78907200D02*
X104761904Y-78859580D01*
X104761904Y-78859580D02*
X104809523Y-78764342D01*
X104809523Y-78764342D02*
X104809523Y-78669104D01*
X104809523Y-78669104D02*
X104761904Y-78573866D01*
X104761904Y-78573866D02*
X104714285Y-78526247D01*
X104714285Y-78526247D02*
X104619047Y-78478628D01*
X104619047Y-78478628D02*
X104428571Y-78431009D01*
X104428571Y-78431009D02*
X104333333Y-78383390D01*
X104333333Y-78383390D02*
X104285714Y-78335771D01*
X104285714Y-78335771D02*
X104238095Y-78240533D01*
X104238095Y-78240533D02*
X104238095Y-78145295D01*
X104238095Y-78145295D02*
X104285714Y-78050057D01*
X104285714Y-78050057D02*
X104333333Y-78002438D01*
X104333333Y-78002438D02*
X104428571Y-77954819D01*
X104428571Y-77954819D02*
X104666666Y-77954819D01*
X104666666Y-77954819D02*
X104809523Y-78002438D01*
X105761904Y-78954819D02*
X105190476Y-78954819D01*
X105476190Y-78954819D02*
X105476190Y-77954819D01*
X105476190Y-77954819D02*
X105380952Y-78097676D01*
X105380952Y-78097676D02*
X105285714Y-78192914D01*
X105285714Y-78192914D02*
X105190476Y-78240533D01*
X104083333Y-70204819D02*
X103750000Y-69728628D01*
X103511905Y-70204819D02*
X103511905Y-69204819D01*
X103511905Y-69204819D02*
X103892857Y-69204819D01*
X103892857Y-69204819D02*
X103988095Y-69252438D01*
X103988095Y-69252438D02*
X104035714Y-69300057D01*
X104035714Y-69300057D02*
X104083333Y-69395295D01*
X104083333Y-69395295D02*
X104083333Y-69538152D01*
X104083333Y-69538152D02*
X104035714Y-69633390D01*
X104035714Y-69633390D02*
X103988095Y-69681009D01*
X103988095Y-69681009D02*
X103892857Y-69728628D01*
X103892857Y-69728628D02*
X103511905Y-69728628D01*
X105035714Y-70204819D02*
X104464286Y-70204819D01*
X104750000Y-70204819D02*
X104750000Y-69204819D01*
X104750000Y-69204819D02*
X104654762Y-69347676D01*
X104654762Y-69347676D02*
X104559524Y-69442914D01*
X104559524Y-69442914D02*
X104464286Y-69490533D01*
D11*
X82809318Y-81465951D02*
X82204556Y-81889285D01*
X82809318Y-82191666D02*
X81539318Y-82191666D01*
X81539318Y-82191666D02*
X81539318Y-81707856D01*
X81539318Y-81707856D02*
X81599794Y-81586904D01*
X81599794Y-81586904D02*
X81660270Y-81526427D01*
X81660270Y-81526427D02*
X81781222Y-81465951D01*
X81781222Y-81465951D02*
X81962651Y-81465951D01*
X81962651Y-81465951D02*
X82083603Y-81526427D01*
X82083603Y-81526427D02*
X82144080Y-81586904D01*
X82144080Y-81586904D02*
X82204556Y-81707856D01*
X82204556Y-81707856D02*
X82204556Y-82191666D01*
X81539318Y-81103094D02*
X82809318Y-80679761D01*
X82809318Y-80679761D02*
X81539318Y-80256427D01*
X81962651Y-79288809D02*
X82809318Y-79288809D01*
X81478842Y-79591190D02*
X82385984Y-79893571D01*
X82385984Y-79893571D02*
X82385984Y-79107380D01*
D10*
X67954819Y-41333333D02*
X68669104Y-41333333D01*
X68669104Y-41333333D02*
X68811961Y-41380952D01*
X68811961Y-41380952D02*
X68907200Y-41476190D01*
X68907200Y-41476190D02*
X68954819Y-41619047D01*
X68954819Y-41619047D02*
X68954819Y-41714285D01*
X67954819Y-40380952D02*
X67954819Y-40857142D01*
X67954819Y-40857142D02*
X68431009Y-40904761D01*
X68431009Y-40904761D02*
X68383390Y-40857142D01*
X68383390Y-40857142D02*
X68335771Y-40761904D01*
X68335771Y-40761904D02*
X68335771Y-40523809D01*
X68335771Y-40523809D02*
X68383390Y-40428571D01*
X68383390Y-40428571D02*
X68431009Y-40380952D01*
X68431009Y-40380952D02*
X68526247Y-40333333D01*
X68526247Y-40333333D02*
X68764342Y-40333333D01*
X68764342Y-40333333D02*
X68859580Y-40380952D01*
X68859580Y-40380952D02*
X68907200Y-40428571D01*
X68907200Y-40428571D02*
X68954819Y-40523809D01*
X68954819Y-40523809D02*
X68954819Y-40761904D01*
X68954819Y-40761904D02*
X68907200Y-40857142D01*
X68907200Y-40857142D02*
X68859580Y-40904761D01*
D12*
%TO.C,C6*%
X92140000Y-80642164D02*
X92140000Y-80857836D01*
X92860000Y-80642164D02*
X92860000Y-80857836D01*
%TO.C,C9*%
X93140000Y-80642164D02*
X93140000Y-80857836D01*
X93860000Y-80642164D02*
X93860000Y-80857836D01*
%TO.C,C31*%
X74080000Y-108872164D02*
X74080000Y-109087836D01*
X74800000Y-108872164D02*
X74800000Y-109087836D01*
%TO.C,C11*%
X126577500Y-108642164D02*
X126577500Y-108857836D01*
X127297500Y-108642164D02*
X127297500Y-108857836D01*
%TO.C,C7*%
X90860000Y-80857836D02*
X90860000Y-80642164D01*
X90140000Y-80857836D02*
X90140000Y-80642164D01*
%TO.C,C10*%
X91140000Y-80642164D02*
X91140000Y-80857836D01*
X91860000Y-80642164D02*
X91860000Y-80857836D01*
%TO.C,C16*%
X109107500Y-108797164D02*
X109107500Y-109012836D01*
X109827500Y-108797164D02*
X109827500Y-109012836D01*
%TO.C,C26*%
X91577500Y-108867164D02*
X91577500Y-109082836D01*
X92297500Y-108867164D02*
X92297500Y-109082836D01*
%TO.C,C25*%
X92202500Y-112088748D02*
X92202500Y-112611252D01*
X93672500Y-112088748D02*
X93672500Y-112611252D01*
%TO.C,C14*%
X94265000Y-83438748D02*
X94265000Y-83961252D01*
X95735000Y-83438748D02*
X95735000Y-83961252D01*
%TO.C,C4*%
X100265000Y-71938748D02*
X100265000Y-72461252D01*
X101735000Y-71938748D02*
X101735000Y-72461252D01*
%TO.C,C19*%
X103735000Y-72461252D02*
X103735000Y-71938748D01*
X102265000Y-72461252D02*
X102265000Y-71938748D01*
%TO.C,C23*%
X109706248Y-99540000D02*
X110228752Y-99540000D01*
X109706248Y-98070000D02*
X110228752Y-98070000D01*
%TO.C,C13*%
X89442252Y-60902000D02*
X88919748Y-60902000D01*
X89442252Y-62372000D02*
X88919748Y-62372000D01*
%TO.C,C15*%
X109732500Y-112093748D02*
X109732500Y-112616252D01*
X111202500Y-112093748D02*
X111202500Y-112616252D01*
%TO.C,C5*%
X127202500Y-111988748D02*
X127202500Y-112511252D01*
X128672500Y-111988748D02*
X128672500Y-112511252D01*
%TO.C,C17*%
X80238748Y-74122000D02*
X80761252Y-74122000D01*
X80238748Y-72652000D02*
X80761252Y-72652000D01*
%TO.C,C3*%
X83738748Y-74235000D02*
X84261252Y-74235000D01*
X83738748Y-72765000D02*
X84261252Y-72765000D01*
%TO.C,C29*%
X91926248Y-101635000D02*
X92448752Y-101635000D01*
X91926248Y-100165000D02*
X92448752Y-100165000D01*
%TO.C,C30*%
X74705000Y-111988748D02*
X74705000Y-112511252D01*
X76175000Y-111988748D02*
X76175000Y-112511252D01*
%TO.C,C21*%
X126926248Y-101485000D02*
X127448752Y-101485000D01*
X126926248Y-100015000D02*
X127448752Y-100015000D01*
%TO.C,C1*%
X84235000Y-67988748D02*
X84235000Y-68511252D01*
X82765000Y-67988748D02*
X82765000Y-68511252D01*
%TO.C,C34*%
X74328748Y-101635000D02*
X74851252Y-101635000D01*
X74328748Y-100165000D02*
X74851252Y-100165000D01*
%TO.C,C28*%
X92226248Y-99635000D02*
X92748752Y-99635000D01*
X92226248Y-98165000D02*
X92748752Y-98165000D01*
%TO.C,C33*%
X74728748Y-99635000D02*
X75251252Y-99635000D01*
X74728748Y-98165000D02*
X75251252Y-98165000D01*
%TO.C,C8*%
X104265000Y-71938748D02*
X104265000Y-72461252D01*
X105735000Y-71938748D02*
X105735000Y-72461252D01*
%TO.C,C24*%
X109506248Y-101640000D02*
X110028752Y-101640000D01*
X109506248Y-100170000D02*
X110028752Y-100170000D01*
%TO.C,C2*%
X80761252Y-70652000D02*
X80238748Y-70652000D01*
X80761252Y-72122000D02*
X80238748Y-72122000D01*
%TO.C,C12*%
X98477500Y-63238748D02*
X98477500Y-63761252D01*
X99947500Y-63238748D02*
X99947500Y-63761252D01*
%TO.C,C20*%
X127226248Y-99485000D02*
X127748752Y-99485000D01*
X127226248Y-98015000D02*
X127748752Y-98015000D01*
%TO.C,J3*%
X62100000Y-86535000D02*
X64000000Y-86535000D01*
X64000000Y-86535000D02*
X64050000Y-86535000D01*
X64050000Y-86535000D02*
X63800000Y-86035000D01*
X68900000Y-86535000D02*
X74000000Y-86535000D01*
X74000000Y-86535000D02*
X74000000Y-75685000D01*
X61400000Y-86035000D02*
X62350000Y-86035000D01*
X62350000Y-86035000D02*
X62100000Y-86535000D01*
X63800000Y-86035000D02*
X69200000Y-86035000D01*
X69200000Y-86035000D02*
X68900000Y-86535000D01*
X61400000Y-75685000D02*
X61400000Y-86035000D01*
X74000000Y-75685000D02*
X61400000Y-75685000D01*
%TO.C,D5*%
X79437500Y-102160000D02*
X82122500Y-102160000D01*
X82122500Y-100240000D02*
X79437500Y-100240000D01*
X82122500Y-102160000D02*
X82122500Y-100240000D01*
D13*
%TO.C,U6*%
X81511812Y-65831000D02*
G75*
G03*
X81388188Y-65831000I-61812J0D01*
G01*
X81388188Y-65831000D02*
G75*
G03*
X81511812Y-65831000I61812J0D01*
G01*
D14*
X78950000Y-68850000D02*
X79050000Y-68850000D01*
X78950000Y-68850000D02*
X78950000Y-67150000D01*
X82050000Y-68850000D02*
X81950000Y-68850000D01*
X82050000Y-68850000D02*
X82050000Y-67150000D01*
X78950000Y-67150000D02*
X79050000Y-67150000D01*
X82050000Y-67150000D02*
X81950000Y-67150000D01*
D12*
%TO.C,C22*%
X113537500Y-91000000D02*
G75*
G03*
X108297500Y-91000000I-2620000J0D01*
G01*
X108297500Y-91000000D02*
G75*
G03*
X113537500Y-91000000I2620000J0D01*
G01*
%TO.C,R14*%
X129422500Y-108977064D02*
X129422500Y-108522936D01*
X127952500Y-108977064D02*
X127952500Y-108522936D01*
%TO.C,L1*%
X103149622Y-74190000D02*
X102350378Y-74190000D01*
X103149622Y-75310000D02*
X102350378Y-75310000D01*
%TO.C,R13*%
X128164564Y-102340000D02*
X126710436Y-102340000D01*
X128164564Y-104160000D02*
X126710436Y-104160000D01*
%TO.C,J12*%
X88667500Y-113730000D02*
X80987500Y-113730000D01*
X80987500Y-111070000D02*
X80987500Y-113730000D01*
X88667500Y-111070000D02*
X88667500Y-113730000D01*
X88667500Y-111070000D02*
X80987500Y-111070000D01*
X89937500Y-111070000D02*
X91267500Y-111070000D01*
X91267500Y-111070000D02*
X91267500Y-112400000D01*
%TO.C,D1*%
X89960000Y-79000000D02*
X89960000Y-76315000D01*
X88040000Y-76315000D02*
X88040000Y-79000000D01*
X89960000Y-76315000D02*
X88040000Y-76315000D01*
%TO.C,J1*%
X61617500Y-59490000D02*
X61617500Y-71710000D01*
X61617500Y-59490000D02*
X69587500Y-59490000D01*
X61617500Y-71710000D02*
X69587500Y-71710000D01*
X78237500Y-59490000D02*
X74487500Y-59490000D01*
X78237500Y-59490000D02*
X78237500Y-71710000D01*
X78237500Y-71710000D02*
X74487500Y-71710000D01*
X78437500Y-66850000D02*
X78937500Y-67350000D01*
X78937500Y-66350000D02*
X78437500Y-66850000D01*
X78937500Y-67350000D02*
X78937500Y-66350000D01*
D15*
%TO.C,RV6*%
X107400000Y-94150000D02*
G75*
G03*
X107500000Y-94150000I50000J0D01*
G01*
X107500000Y-94150000D02*
G75*
G03*
X107400000Y-94150000I-50000J0D01*
G01*
X107500000Y-94150000D02*
X107500000Y-94150000D01*
X107400000Y-94150000D02*
X107400000Y-94150000D01*
D13*
X106925000Y-98930000D02*
X106925000Y-89400000D01*
X106925000Y-89400000D02*
X97395000Y-89400000D01*
X97395000Y-98930000D02*
X106925000Y-98930000D01*
X97395000Y-89400000D02*
X97395000Y-98930000D01*
D12*
%TO.C,R4*%
X93735000Y-83889564D02*
X93735000Y-83435436D01*
X92265000Y-83889564D02*
X92265000Y-83435436D01*
%TO.C,C32*%
X78560000Y-91000000D02*
G75*
G03*
X73320000Y-91000000I-2620000J0D01*
G01*
X73320000Y-91000000D02*
G75*
G03*
X78560000Y-91000000I2620000J0D01*
G01*
%TO.C,R19*%
X115210436Y-103735000D02*
X115664564Y-103735000D01*
X115210436Y-102265000D02*
X115664564Y-102265000D01*
%TO.C,D6*%
X61902500Y-102060000D02*
X64587500Y-102060000D01*
X64587500Y-100140000D02*
X61902500Y-100140000D01*
X64587500Y-102060000D02*
X64587500Y-100140000D01*
%TO.C,J6*%
X71255000Y-56080000D02*
X68655000Y-56080000D01*
X68655000Y-53420000D02*
X68655000Y-56080000D01*
X71255000Y-53420000D02*
X71255000Y-56080000D01*
X71255000Y-53420000D02*
X68655000Y-53420000D01*
X72525000Y-53420000D02*
X73855000Y-53420000D01*
X73855000Y-53420000D02*
X73855000Y-54750000D01*
%TO.C,J9*%
X106147500Y-113635000D02*
X98467500Y-113635000D01*
X98467500Y-110975000D02*
X98467500Y-113635000D01*
X106147500Y-110975000D02*
X106147500Y-113635000D01*
X106147500Y-110975000D02*
X98467500Y-110975000D01*
X107417500Y-110975000D02*
X108747500Y-110975000D01*
X108747500Y-110975000D02*
X108747500Y-112305000D01*
%TO.C,R35*%
X76875000Y-108977064D02*
X76875000Y-108522936D01*
X75405000Y-108977064D02*
X75405000Y-108522936D01*
%TO.C,R6*%
X80272936Y-55845000D02*
X80727064Y-55845000D01*
X80272936Y-54375000D02*
X80727064Y-54375000D01*
D15*
%TO.C,RV3*%
X72380000Y-94140000D02*
G75*
G03*
X72480000Y-94140000I50000J0D01*
G01*
X72480000Y-94140000D02*
G75*
G03*
X72380000Y-94140000I-50000J0D01*
G01*
X72480000Y-94140000D02*
X72480000Y-94140000D01*
X72380000Y-94140000D02*
X72380000Y-94140000D01*
D13*
X71905000Y-98920000D02*
X71905000Y-89390000D01*
X71905000Y-89390000D02*
X62375000Y-89390000D01*
X62375000Y-98920000D02*
X71905000Y-98920000D01*
X62375000Y-89390000D02*
X62375000Y-98920000D01*
D12*
%TO.C,R30*%
X79502500Y-108555436D02*
X79502500Y-109009564D01*
X80972500Y-108555436D02*
X80972500Y-109009564D01*
%TO.C,R2*%
X84227064Y-70615000D02*
X83772936Y-70615000D01*
X84227064Y-72085000D02*
X83772936Y-72085000D01*
%TO.C,R12*%
X126710436Y-106410000D02*
X128164564Y-106410000D01*
X126710436Y-104590000D02*
X128164564Y-104590000D01*
%TO.C,R3*%
X91735000Y-83889564D02*
X91735000Y-83435436D01*
X90265000Y-83889564D02*
X90265000Y-83435436D01*
%TO.C,C27*%
X96120000Y-91000000D02*
G75*
G03*
X90880000Y-91000000I-2620000J0D01*
G01*
X90880000Y-91000000D02*
G75*
G03*
X96120000Y-91000000I2620000J0D01*
G01*
%TO.C,R25*%
X93227064Y-102340000D02*
X91772936Y-102340000D01*
X93227064Y-104160000D02*
X91772936Y-104160000D01*
D15*
%TO.C,RV2*%
X89927500Y-94190000D02*
G75*
G03*
X90027500Y-94190000I50000J0D01*
G01*
X90027500Y-94190000D02*
G75*
G03*
X89927500Y-94190000I-50000J0D01*
G01*
X90027500Y-94190000D02*
X90027500Y-94190000D01*
X89927500Y-94190000D02*
X89927500Y-94190000D01*
D13*
X89452500Y-98970000D02*
X89452500Y-89440000D01*
X89452500Y-89440000D02*
X79922500Y-89440000D01*
X79922500Y-98970000D02*
X89452500Y-98970000D01*
X79922500Y-89440000D02*
X79922500Y-98970000D01*
D12*
%TO.C,R17*%
X111902500Y-109144564D02*
X111902500Y-108690436D01*
X110432500Y-109144564D02*
X110432500Y-108690436D01*
%TO.C,R34*%
X75704564Y-102490000D02*
X74250436Y-102490000D01*
X75704564Y-104310000D02*
X74250436Y-104310000D01*
D13*
%TO.C,U2*%
X125327500Y-109685000D02*
G75*
G03*
X125127500Y-109685000I-100000J0D01*
G01*
X125127500Y-109685000D02*
G75*
G03*
X125327500Y-109685000I100000J0D01*
G01*
D14*
X123187500Y-99980000D02*
X118787500Y-99980000D01*
X123187500Y-110320000D02*
X118787500Y-110320000D01*
D12*
%TO.C,R5*%
X127422500Y-95977064D02*
X127422500Y-95522936D01*
X125952500Y-95977064D02*
X125952500Y-95522936D01*
%TO.C,R18*%
X114452500Y-108272936D02*
X114452500Y-108727064D01*
X115922500Y-108272936D02*
X115922500Y-108727064D01*
%TO.C,Y1*%
X91325000Y-79375000D02*
X92675000Y-79375000D01*
X91325000Y-77625000D02*
X92675000Y-77625000D01*
%TO.C,R33*%
X74250436Y-106610000D02*
X75704564Y-106610000D01*
X74250436Y-104790000D02*
X75704564Y-104790000D01*
%TO.C,R10*%
X92372500Y-96234564D02*
X92372500Y-95780436D01*
X90902500Y-96234564D02*
X90902500Y-95780436D01*
%TO.C,R21*%
X97032500Y-108365436D02*
X97032500Y-108819564D01*
X98502500Y-108365436D02*
X98502500Y-108819564D01*
D13*
%TO.C,S3*%
X82100000Y-52625000D02*
G75*
G03*
X81900000Y-52625000I-100000J0D01*
G01*
X81900000Y-52625000D02*
G75*
G03*
X82100000Y-52625000I100000J0D01*
G01*
D14*
X88800000Y-55680000D02*
X88800000Y-53320000D01*
X88500000Y-57050000D02*
X84000000Y-57050000D01*
X88500000Y-51950000D02*
X84000000Y-51950000D01*
X83700000Y-53320000D02*
X83700000Y-55680000D01*
D12*
%TO.C,R16*%
X110644564Y-102495000D02*
X109190436Y-102495000D01*
X110644564Y-104315000D02*
X109190436Y-104315000D01*
%TO.C,R39*%
X61905000Y-108485436D02*
X61905000Y-108939564D01*
X63375000Y-108485436D02*
X63375000Y-108939564D01*
%TO.C,J8*%
X123667500Y-113580000D02*
X115987500Y-113580000D01*
X115987500Y-110920000D02*
X115987500Y-113580000D01*
X123667500Y-110920000D02*
X123667500Y-113580000D01*
X123667500Y-110920000D02*
X115987500Y-110920000D01*
X124937500Y-110920000D02*
X126267500Y-110920000D01*
X126267500Y-110920000D02*
X126267500Y-112250000D01*
%TO.C,R24*%
X91747936Y-106605000D02*
X93202064Y-106605000D01*
X91747936Y-104785000D02*
X93202064Y-104785000D01*
D15*
%TO.C,RV1*%
X124927500Y-93985000D02*
G75*
G03*
X125027500Y-93985000I50000J0D01*
G01*
X125027500Y-93985000D02*
G75*
G03*
X124927500Y-93985000I-50000J0D01*
G01*
X125027500Y-93985000D02*
X125027500Y-93985000D01*
X124927500Y-93985000D02*
X124927500Y-93985000D01*
D13*
X124452500Y-98765000D02*
X124452500Y-89235000D01*
X124452500Y-89235000D02*
X114922500Y-89235000D01*
X114922500Y-98765000D02*
X124452500Y-98765000D01*
X114922500Y-89235000D02*
X114922500Y-98765000D01*
D12*
%TO.C,J15*%
X71070000Y-113730000D02*
X63390000Y-113730000D01*
X63390000Y-111070000D02*
X63390000Y-113730000D01*
X71070000Y-111070000D02*
X71070000Y-113730000D01*
X71070000Y-111070000D02*
X63390000Y-111070000D01*
X72340000Y-111070000D02*
X73670000Y-111070000D01*
X73670000Y-111070000D02*
X73670000Y-112400000D01*
%TO.C,R40*%
X62700436Y-103935000D02*
X63154564Y-103935000D01*
X62700436Y-102465000D02*
X63154564Y-102465000D01*
%TO.C,R15*%
X109202936Y-106565000D02*
X110657064Y-106565000D01*
X109202936Y-104745000D02*
X110657064Y-104745000D01*
%TO.C,R9*%
X80321986Y-57851423D02*
X80776114Y-57851423D01*
X80321986Y-56381423D02*
X80776114Y-56381423D01*
%TO.C,D2*%
X89960000Y-86000000D02*
X89960000Y-83315000D01*
X88040000Y-83315000D02*
X88040000Y-86000000D01*
X89960000Y-83315000D02*
X88040000Y-83315000D01*
D13*
%TO.C,S2*%
X97100000Y-82375000D02*
G75*
G03*
X96900000Y-82375000I-100000J0D01*
G01*
X96900000Y-82375000D02*
G75*
G03*
X97100000Y-82375000I100000J0D01*
G01*
D14*
X103800000Y-85430000D02*
X103800000Y-83070000D01*
X103500000Y-86800000D02*
X99000000Y-86800000D01*
X103500000Y-81700000D02*
X99000000Y-81700000D01*
X98700000Y-83070000D02*
X98700000Y-85430000D01*
D12*
%TO.C,R8*%
X88265000Y-81272936D02*
X88265000Y-81727064D01*
X89735000Y-81272936D02*
X89735000Y-81727064D01*
%TO.C,U1*%
X97860000Y-64390000D02*
X96910000Y-64390000D01*
X87640000Y-64390000D02*
X88590000Y-64390000D01*
X97860000Y-65340000D02*
X97860000Y-64390000D01*
X87640000Y-65340000D02*
X87640000Y-64390000D01*
X97860000Y-73660000D02*
X97860000Y-74610000D01*
X87640000Y-73660000D02*
X87640000Y-74610000D01*
X97860000Y-74610000D02*
X96910000Y-74610000D01*
X88590000Y-74610000D02*
X88590000Y-75950000D01*
X87640000Y-74610000D02*
X88590000Y-74610000D01*
%TO.C,R22*%
X97627936Y-103940000D02*
X98082064Y-103940000D01*
X97627936Y-102470000D02*
X98082064Y-102470000D01*
D13*
%TO.C,U3*%
X107807500Y-109865000D02*
G75*
G03*
X107607500Y-109865000I-100000J0D01*
G01*
X107607500Y-109865000D02*
G75*
G03*
X107807500Y-109865000I100000J0D01*
G01*
D14*
X105667500Y-100160000D02*
X101267500Y-100160000D01*
X105667500Y-110500000D02*
X101267500Y-110500000D01*
D13*
%TO.C,U5*%
X72830000Y-109865000D02*
G75*
G03*
X72630000Y-109865000I-100000J0D01*
G01*
X72630000Y-109865000D02*
G75*
G03*
X72830000Y-109865000I100000J0D01*
G01*
D14*
X70690000Y-100160000D02*
X66290000Y-100160000D01*
X70690000Y-110500000D02*
X66290000Y-110500000D01*
D12*
%TO.C,J2*%
X114822500Y-51517500D02*
X102602500Y-51517500D01*
X114822500Y-51517500D02*
X114822500Y-59487500D01*
X102602500Y-51517500D02*
X102602500Y-59487500D01*
X114822500Y-68137500D02*
X114822500Y-64387500D01*
X114822500Y-68137500D02*
X102602500Y-68137500D01*
X102602500Y-68137500D02*
X102602500Y-64387500D01*
X107462500Y-68337500D02*
X106962500Y-68837500D01*
X107962500Y-68837500D02*
X107462500Y-68337500D01*
X106962500Y-68837500D02*
X107962500Y-68837500D01*
%TO.C,R26*%
X94485000Y-108977064D02*
X94485000Y-108522936D01*
X93015000Y-108977064D02*
X93015000Y-108522936D01*
%TO.C,R11*%
X74975000Y-96239564D02*
X74975000Y-95785436D01*
X73505000Y-96239564D02*
X73505000Y-95785436D01*
%TO.C,Y2*%
X94100000Y-76850000D02*
X94100000Y-80850000D01*
X97400000Y-76850000D02*
X94100000Y-76850000D01*
%TO.C,C18*%
X131120000Y-91000000D02*
G75*
G03*
X125880000Y-91000000I-2620000J0D01*
G01*
X125880000Y-91000000D02*
G75*
G03*
X131120000Y-91000000I2620000J0D01*
G01*
%TO.C,D3*%
X114437500Y-101960000D02*
X117122500Y-101960000D01*
X117122500Y-100040000D02*
X114437500Y-100040000D01*
X117122500Y-101960000D02*
X117122500Y-100040000D01*
D13*
%TO.C,U4*%
X90327500Y-109960000D02*
G75*
G03*
X90127500Y-109960000I-100000J0D01*
G01*
X90127500Y-109960000D02*
G75*
G03*
X90327500Y-109960000I100000J0D01*
G01*
D14*
X88187500Y-100255000D02*
X83787500Y-100255000D01*
X88187500Y-110595000D02*
X83787500Y-110595000D01*
D12*
%TO.C,R7*%
X109802500Y-96132064D02*
X109802500Y-95677936D01*
X108332500Y-96132064D02*
X108332500Y-95677936D01*
%TO.C,D4*%
X96837500Y-102160000D02*
X99522500Y-102160000D01*
X99522500Y-100240000D02*
X96837500Y-100240000D01*
X99522500Y-102160000D02*
X99522500Y-100240000D01*
D15*
%TO.C,U7*%
X80142000Y-63950000D02*
X80642000Y-63950000D01*
X80142000Y-63950000D02*
X80142000Y-63450000D01*
X85342000Y-63950000D02*
X84842000Y-63950000D01*
X85342000Y-63950000D02*
X85342000Y-63450000D01*
X80142000Y-58750000D02*
X80142000Y-59250000D01*
X80142000Y-58750000D02*
X80642000Y-58750000D01*
X84542000Y-58750000D02*
X84542000Y-58550000D01*
X85342000Y-58750000D02*
X85342000Y-59250000D01*
X85342000Y-58750000D02*
X84542000Y-58750000D01*
D13*
%TO.C,S1*%
X97100000Y-76625000D02*
G75*
G03*
X96900000Y-76625000I-100000J0D01*
G01*
X96900000Y-76625000D02*
G75*
G03*
X97100000Y-76625000I100000J0D01*
G01*
D14*
X103800000Y-79680000D02*
X103800000Y-77320000D01*
X103500000Y-81050000D02*
X99000000Y-81050000D01*
X103500000Y-75950000D02*
X99000000Y-75950000D01*
X98700000Y-77320000D02*
X98700000Y-79680000D01*
D12*
%TO.C,R31*%
X80208254Y-103935000D02*
X80662382Y-103935000D01*
X80208254Y-102465000D02*
X80662382Y-102465000D01*
%TO.C,R1*%
X101977064Y-68765000D02*
X101522936Y-68765000D01*
X101977064Y-70235000D02*
X101522936Y-70235000D01*
D15*
%TO.C,RV4*%
X82250000Y-85950000D02*
G75*
G03*
X82250000Y-86050000I0J-50000D01*
G01*
X82250000Y-86050000D02*
G75*
G03*
X82250000Y-85950000I0J50000D01*
G01*
X82250000Y-86050000D02*
X82250000Y-86050000D01*
X82250000Y-85950000D02*
X82250000Y-85950000D01*
D13*
X77470000Y-85475000D02*
X87000000Y-85475000D01*
X87000000Y-85475000D02*
X87000000Y-75945000D01*
X77470000Y-75945000D02*
X77470000Y-85475000D01*
X87000000Y-75945000D02*
X77470000Y-75945000D01*
D12*
%TO.C,J5*%
X53250000Y-33750000D02*
X53250000Y-48250000D01*
X53750000Y-33750000D02*
X53250000Y-33750000D01*
X53750000Y-34750000D02*
X53750000Y-33750000D01*
X61750000Y-34750000D02*
X53750000Y-34750000D01*
X67250000Y-34750000D02*
X65250000Y-34750000D01*
X67500000Y-37000000D02*
X67500000Y-38000000D01*
X53750000Y-47250000D02*
X61750000Y-47250000D01*
X65250000Y-47250000D02*
X67250000Y-47250000D01*
X67250000Y-47250000D02*
X67250000Y-34750000D01*
X53250000Y-48250000D02*
X53750000Y-48250000D01*
X53750000Y-48250000D02*
X53750000Y-47250000D01*
%TD*%
%LPC*%
D16*
G36*
X121430323Y-82422560D02*
G01*
X121478287Y-82422819D01*
X121528841Y-82423093D01*
X121616134Y-82424032D01*
X121692899Y-82425464D01*
X121727552Y-82426391D01*
X121759833Y-82427474D01*
X121789831Y-82428723D01*
X121817633Y-82430149D01*
X121843326Y-82431763D01*
X121866996Y-82433575D01*
X121888732Y-82435597D01*
X121908619Y-82437839D01*
X121926746Y-82440313D01*
X121943199Y-82443028D01*
X121958066Y-82445996D01*
X121971433Y-82449227D01*
X121983389Y-82452732D01*
X121994019Y-82456523D01*
X122003411Y-82460609D01*
X122011652Y-82465002D01*
X122018830Y-82469713D01*
X122022047Y-82472190D01*
X122025031Y-82474751D01*
X122027793Y-82477397D01*
X122030343Y-82480129D01*
X122034852Y-82485857D01*
X122038646Y-82491945D01*
X122041812Y-82498405D01*
X122044437Y-82505247D01*
X122046609Y-82512483D01*
X122052299Y-82637298D01*
X122057511Y-82938477D01*
X122064198Y-83889226D01*
X122065277Y-84325860D01*
X122065450Y-84502725D01*
X122065253Y-84654599D01*
X122064987Y-84721785D01*
X122064594Y-84783468D01*
X122064061Y-84839895D01*
X122063377Y-84891314D01*
X122062531Y-84937974D01*
X122061510Y-84980122D01*
X122060304Y-85018007D01*
X122058900Y-85051876D01*
X122057286Y-85081977D01*
X122055452Y-85108559D01*
X122053384Y-85131868D01*
X122052260Y-85142374D01*
X122051072Y-85152154D01*
X122049821Y-85161241D01*
X122048504Y-85169665D01*
X122047121Y-85177456D01*
X122045668Y-85184647D01*
X122044146Y-85191268D01*
X122042553Y-85197350D01*
X122040887Y-85202924D01*
X122039146Y-85208021D01*
X122037330Y-85212672D01*
X122035436Y-85216908D01*
X122033464Y-85220760D01*
X122031411Y-85224259D01*
X122029277Y-85227436D01*
X122027060Y-85230322D01*
X122024759Y-85232949D01*
X122022371Y-85235346D01*
X122019896Y-85237545D01*
X122017332Y-85239577D01*
X122014678Y-85241474D01*
X122011932Y-85243265D01*
X122006158Y-85246656D01*
X122000000Y-85250000D01*
X120158545Y-85273190D01*
X116202267Y-85266141D01*
X112250978Y-85238226D01*
X110424490Y-85198819D01*
X110416183Y-85191897D01*
X110408672Y-85183625D01*
X110401901Y-85173618D01*
X110395819Y-85161490D01*
X110390372Y-85146857D01*
X110385508Y-85129333D01*
X110381172Y-85108532D01*
X110377313Y-85084070D01*
X110370811Y-85022619D01*
X110365576Y-84941898D01*
X110361185Y-84838823D01*
X110357212Y-84710313D01*
X110355172Y-84616134D01*
X110354232Y-84530207D01*
X110574037Y-84530207D01*
X110577538Y-84681345D01*
X110585513Y-84815857D01*
X110591139Y-84872014D01*
X110597837Y-84918175D01*
X110605592Y-84952395D01*
X110609860Y-84964418D01*
X110614387Y-84972727D01*
X110621267Y-84981196D01*
X110629083Y-84988723D01*
X110638247Y-84995351D01*
X110649169Y-85001120D01*
X110662260Y-85006071D01*
X110677930Y-85010248D01*
X110696589Y-85013690D01*
X110718650Y-85016439D01*
X110744521Y-85018537D01*
X110774614Y-85020026D01*
X110849108Y-85021341D01*
X110945417Y-85020714D01*
X111066825Y-85018479D01*
X111479257Y-85009525D01*
X111488020Y-84522956D01*
X111489591Y-84408540D01*
X111489893Y-84357409D01*
X111489871Y-84310316D01*
X111489526Y-84267252D01*
X111488857Y-84228205D01*
X111487863Y-84193167D01*
X111486543Y-84162126D01*
X111484898Y-84135073D01*
X111482926Y-84111998D01*
X111480627Y-84092890D01*
X111478001Y-84077741D01*
X111476564Y-84071647D01*
X111475046Y-84066539D01*
X111473446Y-84062415D01*
X111471763Y-84059274D01*
X111469998Y-84057115D01*
X111468150Y-84055937D01*
X111466220Y-84055738D01*
X111464208Y-84056518D01*
X111462539Y-84057506D01*
X111460891Y-84058395D01*
X111459266Y-84059185D01*
X111457666Y-84059877D01*
X111456094Y-84060472D01*
X111454552Y-84060970D01*
X111453040Y-84061374D01*
X111451563Y-84061682D01*
X111450121Y-84061897D01*
X111448717Y-84062020D01*
X111447353Y-84062050D01*
X111446031Y-84061990D01*
X111444753Y-84061839D01*
X111443521Y-84061599D01*
X111442337Y-84061271D01*
X111441204Y-84060855D01*
X111440123Y-84060353D01*
X111439097Y-84059765D01*
X111438128Y-84059092D01*
X111437217Y-84058335D01*
X111436367Y-84057495D01*
X111435580Y-84056573D01*
X111434858Y-84055570D01*
X111434203Y-84054486D01*
X111433617Y-84053322D01*
X111433103Y-84052080D01*
X111432662Y-84050760D01*
X111432297Y-84049363D01*
X111432009Y-84047890D01*
X111431800Y-84046342D01*
X111431674Y-84044720D01*
X111431631Y-84043024D01*
X111430014Y-84039041D01*
X111425182Y-84035298D01*
X111417163Y-84031797D01*
X111405985Y-84028541D01*
X111391678Y-84025532D01*
X111374269Y-84022772D01*
X111330262Y-84018008D01*
X111274190Y-84014271D01*
X111206282Y-84011577D01*
X111126765Y-84009948D01*
X111035868Y-84009400D01*
X110972258Y-84009478D01*
X110915666Y-84009756D01*
X110865640Y-84010297D01*
X110821729Y-84011168D01*
X110801926Y-84011746D01*
X110783481Y-84012431D01*
X110766340Y-84013231D01*
X110750444Y-84014153D01*
X110735738Y-84015206D01*
X110722166Y-84016398D01*
X110709670Y-84017737D01*
X110698195Y-84019231D01*
X110687683Y-84020887D01*
X110678078Y-84022715D01*
X110669324Y-84024722D01*
X110661365Y-84026917D01*
X110654143Y-84029307D01*
X110647603Y-84031900D01*
X110641687Y-84034705D01*
X110636340Y-84037729D01*
X110631505Y-84040982D01*
X110627125Y-84044470D01*
X110623144Y-84048202D01*
X110619505Y-84052186D01*
X110616152Y-84056430D01*
X110613028Y-84060943D01*
X110610077Y-84065731D01*
X110607243Y-84070804D01*
X110598798Y-84095094D01*
X110591612Y-84132743D01*
X110585667Y-84181806D01*
X110580950Y-84240336D01*
X110575133Y-84378014D01*
X110574037Y-84530207D01*
X110354232Y-84530207D01*
X110354124Y-84520324D01*
X110354028Y-84425549D01*
X110354847Y-84334472D01*
X110356540Y-84249760D01*
X110359069Y-84174077D01*
X110362397Y-84110086D01*
X110366483Y-84060454D01*
X110369963Y-84029148D01*
X110373404Y-84001035D01*
X110376901Y-83975898D01*
X110380547Y-83953520D01*
X110382456Y-83943299D01*
X110384437Y-83933686D01*
X110386503Y-83924655D01*
X110388665Y-83916179D01*
X110390935Y-83908231D01*
X110393325Y-83900783D01*
X110395846Y-83893809D01*
X110398510Y-83887282D01*
X110401330Y-83881174D01*
X110404316Y-83875458D01*
X110407480Y-83870108D01*
X110410835Y-83865096D01*
X110414392Y-83860396D01*
X110418162Y-83855979D01*
X110422158Y-83851820D01*
X110426392Y-83847892D01*
X110430874Y-83844166D01*
X110435617Y-83840617D01*
X110440633Y-83837216D01*
X110445932Y-83833938D01*
X110451528Y-83830754D01*
X110457432Y-83827639D01*
X110470210Y-83821504D01*
X110757958Y-83804070D01*
X111035868Y-83800733D01*
X111614055Y-83793790D01*
X115548464Y-83791627D01*
X117632472Y-83792703D01*
X119211167Y-83789139D01*
X120214921Y-83781246D01*
X120479437Y-83775775D01*
X120574107Y-83769339D01*
X120577169Y-83763119D01*
X120580243Y-83750825D01*
X120586353Y-83709334D01*
X120592275Y-83647505D01*
X120597848Y-83567980D01*
X120607308Y-83366404D01*
X120613445Y-83125734D01*
X120614744Y-83047789D01*
X120813756Y-83047789D01*
X120814228Y-83124117D01*
X120815582Y-83197548D01*
X120817722Y-83266317D01*
X120820555Y-83328657D01*
X120823983Y-83382802D01*
X120827914Y-83426987D01*
X120830038Y-83444793D01*
X120832252Y-83459446D01*
X120834544Y-83470727D01*
X120836902Y-83478413D01*
X120841232Y-83487459D01*
X120846721Y-83495461D01*
X120853903Y-83502470D01*
X120863315Y-83508536D01*
X120875491Y-83513709D01*
X120890966Y-83518038D01*
X120910275Y-83521576D01*
X120933954Y-83524371D01*
X120996560Y-83527936D01*
X121083067Y-83529134D01*
X121197753Y-83528367D01*
X121344902Y-83526038D01*
X121829756Y-83517276D01*
X121838551Y-83084460D01*
X121839816Y-83017971D01*
X121840732Y-82958403D01*
X121841260Y-82905365D01*
X121841364Y-82858466D01*
X121841009Y-82817314D01*
X121840647Y-82798771D01*
X121840157Y-82781517D01*
X121839533Y-82765505D01*
X121838771Y-82750685D01*
X121837867Y-82737009D01*
X121836817Y-82724427D01*
X121835614Y-82712890D01*
X121834256Y-82702349D01*
X121832736Y-82692757D01*
X121831052Y-82684063D01*
X121829198Y-82676218D01*
X121827169Y-82669175D01*
X121824962Y-82662883D01*
X121822571Y-82657295D01*
X121819992Y-82652360D01*
X121817221Y-82648031D01*
X121814252Y-82644257D01*
X121811082Y-82640991D01*
X121807705Y-82638184D01*
X121804118Y-82635786D01*
X121800315Y-82633748D01*
X121796292Y-82632022D01*
X121772868Y-82626607D01*
X121734749Y-82622133D01*
X121623017Y-82615899D01*
X121478287Y-82613110D01*
X121317752Y-82613555D01*
X121158602Y-82617023D01*
X121018029Y-82623302D01*
X120913225Y-82632182D01*
X120879609Y-82637531D01*
X120861381Y-82643452D01*
X120854594Y-82648667D01*
X120848442Y-82655480D01*
X120842897Y-82664119D01*
X120837933Y-82674817D01*
X120833523Y-82687804D01*
X120829639Y-82703311D01*
X120826254Y-82721569D01*
X120823341Y-82742809D01*
X120818821Y-82795159D01*
X120815862Y-82862207D01*
X120814246Y-82945801D01*
X120813756Y-83047789D01*
X120614744Y-83047789D01*
X120615111Y-83025735D01*
X120616778Y-82937001D01*
X120618527Y-82858799D01*
X120620437Y-82790395D01*
X120622588Y-82731057D01*
X120625060Y-82680051D01*
X120626440Y-82657443D01*
X120627931Y-82636643D01*
X120629541Y-82617560D01*
X120631281Y-82600101D01*
X120633161Y-82584175D01*
X120635190Y-82569691D01*
X120637379Y-82556556D01*
X120639738Y-82544680D01*
X120642276Y-82533969D01*
X120645003Y-82524334D01*
X120647930Y-82515681D01*
X120651066Y-82507920D01*
X120654421Y-82500959D01*
X120658006Y-82494705D01*
X120661830Y-82489068D01*
X120665902Y-82483956D01*
X120670234Y-82479277D01*
X120674835Y-82474939D01*
X120679714Y-82470851D01*
X120684883Y-82466921D01*
X120695008Y-82460656D01*
X120707644Y-82454955D01*
X120723098Y-82449797D01*
X120741677Y-82445160D01*
X120789433Y-82437363D01*
X120853364Y-82431393D01*
X120935923Y-82427079D01*
X121039561Y-82424247D01*
X121166731Y-82422726D01*
X121319883Y-82422345D01*
X121430323Y-82422560D01*
G37*
G36*
X121238222Y-70420446D02*
G01*
X121377647Y-70420937D01*
X121507639Y-70422593D01*
X121616543Y-70425441D01*
X121663463Y-70427334D01*
X121705562Y-70429553D01*
X121742990Y-70432106D01*
X121775899Y-70435002D01*
X121804437Y-70438250D01*
X121828756Y-70441859D01*
X121849005Y-70445839D01*
X121865336Y-70450197D01*
X121877898Y-70454944D01*
X121882813Y-70457466D01*
X121886843Y-70460088D01*
X121895117Y-70467338D01*
X121902546Y-70476544D01*
X121909186Y-70488342D01*
X121915092Y-70503367D01*
X121920322Y-70522254D01*
X121924930Y-70545638D01*
X121932507Y-70608436D01*
X121938272Y-70696844D01*
X121942671Y-70815941D01*
X121949168Y-71166526D01*
X121958519Y-71864278D01*
X121962071Y-72144101D01*
X121964776Y-72382439D01*
X121966560Y-72582703D01*
X121967084Y-72669623D01*
X121967351Y-72748305D01*
X121967350Y-72819175D01*
X121967074Y-72882658D01*
X121966513Y-72939183D01*
X121965658Y-72989174D01*
X121964500Y-73033060D01*
X121963029Y-73071266D01*
X121961236Y-73104218D01*
X121960216Y-73118858D01*
X121959112Y-73132344D01*
X121957924Y-73144730D01*
X121956649Y-73156070D01*
X121955287Y-73166416D01*
X121953836Y-73175822D01*
X121952296Y-73184341D01*
X121950666Y-73192027D01*
X121948943Y-73198932D01*
X121947127Y-73205111D01*
X121945218Y-73210616D01*
X121943213Y-73215501D01*
X121941111Y-73219820D01*
X121938912Y-73223624D01*
X121936614Y-73226969D01*
X121934217Y-73229906D01*
X121931718Y-73232490D01*
X121929117Y-73234773D01*
X121926413Y-73236810D01*
X121923604Y-73238652D01*
X121917669Y-73241970D01*
X121904496Y-73248627D01*
X121580035Y-73264637D01*
X120593380Y-73271904D01*
X116094627Y-73261391D01*
X113052869Y-73247314D01*
X112041935Y-73240676D01*
X111311835Y-73233570D01*
X110818221Y-73225443D01*
X110646239Y-73220824D01*
X110516747Y-73215742D01*
X110424203Y-73210130D01*
X110363064Y-73203917D01*
X110327786Y-73197034D01*
X110318112Y-73193321D01*
X110312825Y-73189414D01*
X110307561Y-73181099D01*
X110302717Y-73169226D01*
X110298281Y-73153615D01*
X110294242Y-73134083D01*
X110287311Y-73082535D01*
X110281838Y-73013134D01*
X110277733Y-72924431D01*
X110274910Y-72814978D01*
X110273281Y-72683327D01*
X110273227Y-72667361D01*
X110479169Y-72667361D01*
X110481856Y-72805674D01*
X110488187Y-72913084D01*
X110492795Y-72950225D01*
X110498404Y-72973672D01*
X110502137Y-72981216D01*
X110507468Y-72987991D01*
X110514744Y-72994036D01*
X110524307Y-72999389D01*
X110536502Y-73004090D01*
X110551675Y-73008178D01*
X110570169Y-73011691D01*
X110592328Y-73014670D01*
X110649022Y-73019176D01*
X110724512Y-73022009D01*
X110821554Y-73023480D01*
X110942904Y-73023901D01*
X111368131Y-73023901D01*
X111368131Y-72613755D01*
X111368438Y-72530500D01*
X111369317Y-72451161D01*
X111370707Y-72377595D01*
X111372545Y-72311657D01*
X111374770Y-72255204D01*
X111377321Y-72210092D01*
X111380134Y-72178178D01*
X111381621Y-72167750D01*
X111383150Y-72161317D01*
X111384510Y-72156718D01*
X111385503Y-72151683D01*
X111386135Y-72146262D01*
X111386417Y-72140504D01*
X111386358Y-72134461D01*
X111385965Y-72128182D01*
X111385249Y-72121717D01*
X111384217Y-72115117D01*
X111382879Y-72108431D01*
X111381244Y-72101711D01*
X111379320Y-72095006D01*
X111377117Y-72088366D01*
X111374643Y-72081841D01*
X111371908Y-72075483D01*
X111368919Y-72069340D01*
X111365687Y-72063463D01*
X111360010Y-72054897D01*
X111353291Y-72047238D01*
X111345153Y-72040439D01*
X111335219Y-72034449D01*
X111323113Y-72029220D01*
X111308460Y-72024703D01*
X111290882Y-72020849D01*
X111270005Y-72017608D01*
X111245450Y-72014933D01*
X111216844Y-72012773D01*
X111145967Y-72009805D01*
X111054366Y-72008312D01*
X110939030Y-72007901D01*
X110875694Y-72007979D01*
X110819341Y-72008257D01*
X110769524Y-72008798D01*
X110725792Y-72009669D01*
X110706067Y-72010247D01*
X110687695Y-72010932D01*
X110670620Y-72011732D01*
X110654785Y-72012654D01*
X110640133Y-72013707D01*
X110626610Y-72014899D01*
X110614159Y-72016238D01*
X110602723Y-72017732D01*
X110592246Y-72019388D01*
X110582672Y-72021216D01*
X110573945Y-72023223D01*
X110566009Y-72025418D01*
X110558808Y-72027808D01*
X110552284Y-72030401D01*
X110546383Y-72033206D01*
X110541048Y-72036230D01*
X110536222Y-72039483D01*
X110531850Y-72042971D01*
X110527875Y-72046703D01*
X110524241Y-72050687D01*
X110520893Y-72054931D01*
X110517772Y-72059444D01*
X110514825Y-72064232D01*
X110511993Y-72069305D01*
X110505737Y-72089270D01*
X110500062Y-72123393D01*
X110490573Y-72226159D01*
X110483768Y-72361687D01*
X110479886Y-72514059D01*
X110479169Y-72667361D01*
X110273227Y-72667361D01*
X110272757Y-72528030D01*
X110273120Y-72344368D01*
X110273659Y-72267549D01*
X110274511Y-72199855D01*
X110275731Y-72140623D01*
X110277376Y-72089192D01*
X110279503Y-72044900D01*
X110280764Y-72025223D01*
X110282167Y-72007083D01*
X110283718Y-71990397D01*
X110285424Y-71975081D01*
X110287293Y-71961053D01*
X110289331Y-71948230D01*
X110291546Y-71936530D01*
X110293944Y-71925869D01*
X110296532Y-71916166D01*
X110299318Y-71907336D01*
X110302309Y-71899297D01*
X110305511Y-71891967D01*
X110308932Y-71885263D01*
X110312578Y-71879102D01*
X110316456Y-71873401D01*
X110320575Y-71868077D01*
X110324940Y-71863048D01*
X110329558Y-71858231D01*
X110367263Y-71840304D01*
X110473670Y-71826596D01*
X110939030Y-71813822D01*
X111095364Y-71809531D01*
X115393682Y-71800669D01*
X118940903Y-71797962D01*
X120437773Y-71792731D01*
X120442493Y-71789680D01*
X120446944Y-71782326D01*
X120451133Y-71770567D01*
X120455068Y-71754298D01*
X120462209Y-71707823D01*
X120468431Y-71642074D01*
X120473798Y-71556225D01*
X120478372Y-71449452D01*
X120485398Y-71169828D01*
X120486499Y-71113781D01*
X120702500Y-71113781D01*
X120705607Y-71245854D01*
X120708801Y-71306898D01*
X120713074Y-71362325D01*
X120718415Y-71410420D01*
X120724813Y-71449467D01*
X120732255Y-71477749D01*
X120736365Y-71487317D01*
X120740731Y-71493551D01*
X120746738Y-71497242D01*
X120757048Y-71500787D01*
X120789480Y-71507418D01*
X120835819Y-71513399D01*
X120893860Y-71518687D01*
X121036225Y-71527014D01*
X121198927Y-71532052D01*
X121364319Y-71533453D01*
X121514752Y-71530873D01*
X121632579Y-71523963D01*
X121673751Y-71518777D01*
X121700153Y-71512379D01*
X121707665Y-71508687D01*
X121714417Y-71503460D01*
X121720445Y-71496374D01*
X121725789Y-71487110D01*
X121730486Y-71475346D01*
X121734574Y-71460760D01*
X121738093Y-71443032D01*
X121741078Y-71421840D01*
X121745606Y-71367779D01*
X121748462Y-71296008D01*
X121749952Y-71203957D01*
X121750381Y-71089056D01*
X121749949Y-71007451D01*
X121748711Y-70930487D01*
X121746753Y-70859907D01*
X121744162Y-70797456D01*
X121741025Y-70744879D01*
X121737429Y-70703919D01*
X121735485Y-70688340D01*
X121733459Y-70676320D01*
X121731362Y-70668077D01*
X121730290Y-70665440D01*
X121729204Y-70663828D01*
X121724614Y-70661670D01*
X121715368Y-70659573D01*
X121683921Y-70655604D01*
X121636876Y-70652007D01*
X121576248Y-70648870D01*
X121422308Y-70644321D01*
X121238222Y-70642651D01*
X121161708Y-70642720D01*
X121093813Y-70642974D01*
X121033980Y-70643480D01*
X120981648Y-70644307D01*
X120958121Y-70644862D01*
X120936260Y-70645523D01*
X120915996Y-70646297D01*
X120897257Y-70647195D01*
X120879976Y-70648224D01*
X120864081Y-70649393D01*
X120849503Y-70650710D01*
X120836172Y-70652184D01*
X120824018Y-70653823D01*
X120812972Y-70655637D01*
X120802963Y-70657632D01*
X120793922Y-70659819D01*
X120785778Y-70662205D01*
X120778463Y-70664799D01*
X120771906Y-70667610D01*
X120766038Y-70670646D01*
X120760788Y-70673915D01*
X120756087Y-70677426D01*
X120751865Y-70681188D01*
X120748051Y-70685209D01*
X120744577Y-70689498D01*
X120741373Y-70694063D01*
X120738368Y-70698913D01*
X120735493Y-70704055D01*
X120727276Y-70726878D01*
X120720251Y-70761245D01*
X120714407Y-70805440D01*
X120709732Y-70857748D01*
X120703845Y-70979837D01*
X120702500Y-71113781D01*
X120486499Y-71113781D01*
X120489038Y-70984456D01*
X120490954Y-70906968D01*
X120493031Y-70838693D01*
X120495341Y-70778943D01*
X120497956Y-70727027D01*
X120500947Y-70682258D01*
X120504388Y-70643945D01*
X120506300Y-70626994D01*
X120508350Y-70611400D01*
X120510549Y-70597075D01*
X120512906Y-70583934D01*
X120515429Y-70571890D01*
X120518127Y-70560857D01*
X120521010Y-70550750D01*
X120524086Y-70541482D01*
X120527364Y-70532966D01*
X120530854Y-70525117D01*
X120534565Y-70517849D01*
X120538505Y-70511076D01*
X120542683Y-70504710D01*
X120547109Y-70498667D01*
X120551792Y-70492860D01*
X120556740Y-70487203D01*
X120578271Y-70466110D01*
X120590271Y-70457470D01*
X120604205Y-70449990D01*
X120620905Y-70443586D01*
X120641205Y-70438175D01*
X120665936Y-70433675D01*
X120695932Y-70430001D01*
X120775049Y-70424803D01*
X120885218Y-70421914D01*
X121225363Y-70420401D01*
X121238222Y-70420446D01*
G37*
G36*
X115030779Y-75756635D02*
G01*
X115291578Y-75759315D01*
X115383014Y-75760786D01*
X115516761Y-75762937D01*
X115702547Y-75767428D01*
X115845152Y-75772711D01*
X115940795Y-75778712D01*
X115969823Y-75781959D01*
X115985692Y-75785357D01*
X116067131Y-75816313D01*
X116067131Y-76481984D01*
X116066644Y-76653792D01*
X116065105Y-76797266D01*
X116063906Y-76858994D01*
X116062401Y-76914376D01*
X116060577Y-76963659D01*
X116058420Y-77007089D01*
X116055914Y-77044912D01*
X116053047Y-77077374D01*
X116049803Y-77104720D01*
X116046169Y-77127198D01*
X116042130Y-77145053D01*
X116039955Y-77152324D01*
X116037672Y-77158531D01*
X116035282Y-77163705D01*
X116032782Y-77167878D01*
X116030170Y-77171079D01*
X116027444Y-77173340D01*
X115988038Y-77178827D01*
X115890522Y-77184578D01*
X115547071Y-77196192D01*
X115048916Y-77206817D01*
X114447882Y-77215091D01*
X113948491Y-77220482D01*
X113744734Y-77222988D01*
X113568508Y-77225526D01*
X113417491Y-77228214D01*
X113289362Y-77231171D01*
X113181799Y-77234516D01*
X113092482Y-77238368D01*
X113053940Y-77240521D01*
X113019088Y-77242845D01*
X112987638Y-77245356D01*
X112959297Y-77248067D01*
X112933778Y-77250994D01*
X112910788Y-77254151D01*
X112890038Y-77257554D01*
X112871238Y-77261218D01*
X112854097Y-77265156D01*
X112838326Y-77269384D01*
X112823635Y-77273917D01*
X112809732Y-77278770D01*
X112796329Y-77283957D01*
X112783134Y-77289493D01*
X112756210Y-77301674D01*
X112693178Y-77332836D01*
X112631948Y-77366853D01*
X112572585Y-77403658D01*
X112515151Y-77443184D01*
X112459709Y-77485364D01*
X112406323Y-77530132D01*
X112355056Y-77577419D01*
X112305971Y-77627158D01*
X112259131Y-77679284D01*
X112214599Y-77733728D01*
X112172438Y-77790424D01*
X112132712Y-77849304D01*
X112095484Y-77910302D01*
X112060816Y-77973350D01*
X112028773Y-78038381D01*
X111999417Y-78105329D01*
X111982619Y-78151185D01*
X111967859Y-78201892D01*
X111955149Y-78256787D01*
X111944500Y-78315204D01*
X111935925Y-78376478D01*
X111929436Y-78439944D01*
X111925047Y-78504937D01*
X111922768Y-78570792D01*
X111922613Y-78636845D01*
X111924594Y-78702430D01*
X111928722Y-78766882D01*
X111935011Y-78829536D01*
X111943473Y-78889728D01*
X111954120Y-78946791D01*
X111966964Y-79000063D01*
X111982018Y-79048876D01*
X112009157Y-79119786D01*
X112040719Y-79189816D01*
X112076433Y-79258677D01*
X112116029Y-79326081D01*
X112159234Y-79391737D01*
X112205778Y-79455357D01*
X112255389Y-79516651D01*
X112307797Y-79575330D01*
X112362729Y-79631105D01*
X112419915Y-79683686D01*
X112479083Y-79732784D01*
X112539963Y-79778110D01*
X112602282Y-79819374D01*
X112665770Y-79856288D01*
X112730156Y-79888561D01*
X112795167Y-79915905D01*
X112852135Y-79934974D01*
X112920289Y-79949637D01*
X113014991Y-79960473D01*
X113151604Y-79968066D01*
X113345491Y-79972996D01*
X113612014Y-79975845D01*
X114424418Y-79977627D01*
X114809948Y-79978217D01*
X115130133Y-79979815D01*
X115383014Y-79982483D01*
X115390204Y-79982559D01*
X115595390Y-79986584D01*
X115750921Y-79992028D01*
X115811700Y-79995324D01*
X115862027Y-79999027D01*
X115902554Y-80003152D01*
X115933937Y-80007717D01*
X115956828Y-80012739D01*
X115971882Y-80018235D01*
X116051257Y-80058399D01*
X116051257Y-81388153D01*
X115971882Y-81429745D01*
X115934416Y-81440904D01*
X115864494Y-81449686D01*
X115754781Y-81456225D01*
X115597942Y-81460661D01*
X115113546Y-81463767D01*
X114352631Y-81460098D01*
X113864106Y-81456274D01*
X113487221Y-81452285D01*
X113334998Y-81449973D01*
X113203911Y-81447315D01*
X113091702Y-81444209D01*
X112996113Y-81440551D01*
X112914886Y-81436242D01*
X112845762Y-81431179D01*
X112786485Y-81425259D01*
X112734795Y-81418383D01*
X112688436Y-81410446D01*
X112645148Y-81401348D01*
X112602674Y-81390988D01*
X112558756Y-81379262D01*
X112412123Y-81334939D01*
X112269143Y-81283423D01*
X112129998Y-81224866D01*
X111994871Y-81159417D01*
X111863943Y-81087226D01*
X111737396Y-81008443D01*
X111615413Y-80923219D01*
X111498175Y-80831702D01*
X111386029Y-80734185D01*
X114955536Y-80734185D01*
X114958668Y-80889489D01*
X114966182Y-81026226D01*
X114971554Y-81082421D01*
X114977985Y-81127722D01*
X114985466Y-81160043D01*
X114989595Y-81170685D01*
X114993982Y-81177300D01*
X115000194Y-81181956D01*
X115009219Y-81186303D01*
X115021070Y-81190343D01*
X115035762Y-81194076D01*
X115073718Y-81200629D01*
X115123196Y-81205970D01*
X115184304Y-81210109D01*
X115257149Y-81213055D01*
X115341839Y-81214815D01*
X115438482Y-81215400D01*
X115844881Y-81215400D01*
X115844881Y-80726672D01*
X115844788Y-80652532D01*
X115844479Y-80585974D01*
X115843914Y-80526585D01*
X115843052Y-80473950D01*
X115841852Y-80427657D01*
X115840274Y-80387291D01*
X115839330Y-80369202D01*
X115838276Y-80352440D01*
X115837106Y-80336953D01*
X115835817Y-80322690D01*
X115834402Y-80309598D01*
X115832857Y-80297626D01*
X115831176Y-80286722D01*
X115829354Y-80276836D01*
X115827386Y-80267914D01*
X115825268Y-80259905D01*
X115822993Y-80252758D01*
X115820557Y-80246421D01*
X115817955Y-80240842D01*
X115815181Y-80235969D01*
X115812231Y-80231751D01*
X115809099Y-80228136D01*
X115805781Y-80225072D01*
X115802270Y-80222509D01*
X115798563Y-80220393D01*
X115794653Y-80218673D01*
X115787662Y-80216709D01*
X115777188Y-80214800D01*
X115746636Y-80211188D01*
X115704684Y-80207915D01*
X115653020Y-80205060D01*
X115593334Y-80202702D01*
X115527312Y-80200920D01*
X115383014Y-80199400D01*
X115325386Y-80199483D01*
X115274032Y-80199775D01*
X115228551Y-80200338D01*
X115188540Y-80201235D01*
X115170461Y-80201828D01*
X115153598Y-80202527D01*
X115137902Y-80203342D01*
X115123323Y-80204279D01*
X115109809Y-80205347D01*
X115097312Y-80206552D01*
X115085779Y-80207904D01*
X115075162Y-80209409D01*
X115065410Y-80211077D01*
X115056473Y-80212913D01*
X115048300Y-80214927D01*
X115040841Y-80217126D01*
X115034047Y-80219518D01*
X115027865Y-80222111D01*
X115022247Y-80224913D01*
X115017143Y-80227931D01*
X115012501Y-80231173D01*
X115008271Y-80234647D01*
X115004404Y-80238361D01*
X115000849Y-80242323D01*
X114997555Y-80246541D01*
X114994473Y-80251021D01*
X114991552Y-80255773D01*
X114988743Y-80260804D01*
X114980466Y-80285155D01*
X114973391Y-80323624D01*
X114967508Y-80374126D01*
X114962803Y-80434578D01*
X114956883Y-80576990D01*
X114955536Y-80734185D01*
X111386029Y-80734185D01*
X111385865Y-80734042D01*
X111278664Y-80630391D01*
X111176754Y-80520898D01*
X111080317Y-80405712D01*
X110989536Y-80284984D01*
X110904592Y-80158863D01*
X110825667Y-80027500D01*
X110752944Y-79891044D01*
X110688185Y-79752675D01*
X110631426Y-79612574D01*
X110582568Y-79471017D01*
X110541512Y-79328281D01*
X110508157Y-79184641D01*
X110482406Y-79040375D01*
X110464159Y-78895760D01*
X110453316Y-78751071D01*
X110449779Y-78606585D01*
X110453449Y-78462580D01*
X110464226Y-78319331D01*
X110482011Y-78177115D01*
X110506706Y-78036209D01*
X110538210Y-77896889D01*
X110576426Y-77759432D01*
X110621253Y-77624114D01*
X110672592Y-77491212D01*
X110730345Y-77361003D01*
X110794412Y-77233763D01*
X110864694Y-77109768D01*
X110941093Y-76989296D01*
X111023508Y-76872623D01*
X111111840Y-76760024D01*
X111205991Y-76651778D01*
X111249647Y-76606484D01*
X114956616Y-76606484D01*
X114959484Y-76742130D01*
X114965924Y-76852056D01*
X114970546Y-76892949D01*
X114976138Y-76922102D01*
X114983528Y-76945634D01*
X114988313Y-76955153D01*
X114994637Y-76963291D01*
X115003108Y-76970139D01*
X115014336Y-76975783D01*
X115028930Y-76980314D01*
X115047500Y-76983820D01*
X115070654Y-76986389D01*
X115099001Y-76988111D01*
X115173711Y-76989365D01*
X115276505Y-76988292D01*
X115412255Y-76985602D01*
X115829006Y-76976776D01*
X115837738Y-76496303D01*
X115839006Y-76422112D01*
X115839926Y-76355714D01*
X115840463Y-76296666D01*
X115840578Y-76244526D01*
X115840234Y-76198849D01*
X115839394Y-76159193D01*
X115838776Y-76141484D01*
X115838020Y-76125114D01*
X115837121Y-76110028D01*
X115836075Y-76096169D01*
X115834877Y-76083484D01*
X115833522Y-76071915D01*
X115832005Y-76061409D01*
X115830323Y-76051909D01*
X115828469Y-76043359D01*
X115826441Y-76035706D01*
X115824232Y-76028893D01*
X115821838Y-76022864D01*
X115819255Y-76017565D01*
X115816478Y-76012940D01*
X115813503Y-76008934D01*
X115810323Y-76005490D01*
X115806936Y-76002555D01*
X115803336Y-76000072D01*
X115799518Y-75997985D01*
X115795479Y-75996241D01*
X115788405Y-75994247D01*
X115777851Y-75992309D01*
X115747145Y-75988639D01*
X115705053Y-75985312D01*
X115653266Y-75982409D01*
X115593478Y-75980011D01*
X115527378Y-75978198D01*
X115456660Y-75977051D01*
X115383014Y-75976651D01*
X115325386Y-75976734D01*
X115274032Y-75977026D01*
X115228551Y-75977589D01*
X115188540Y-75978485D01*
X115170461Y-75979078D01*
X115153598Y-75979778D01*
X115137902Y-75980593D01*
X115123323Y-75981530D01*
X115109809Y-75982597D01*
X115097312Y-75983803D01*
X115085779Y-75985154D01*
X115075162Y-75986660D01*
X115065410Y-75988327D01*
X115056473Y-75990164D01*
X115048300Y-75992178D01*
X115040841Y-75994377D01*
X115034047Y-75996769D01*
X115027865Y-75999362D01*
X115022247Y-76002163D01*
X115017143Y-76005181D01*
X115012501Y-76008423D01*
X115008271Y-76011898D01*
X115004404Y-76015612D01*
X115000849Y-76019574D01*
X114997555Y-76023791D01*
X114994473Y-76028272D01*
X114991552Y-76033024D01*
X114988743Y-76038055D01*
X114982463Y-76057458D01*
X114976797Y-76089901D01*
X114967409Y-76186827D01*
X114960781Y-76314673D01*
X114957116Y-76459279D01*
X114956616Y-76606484D01*
X111249647Y-76606484D01*
X111305862Y-76548160D01*
X111411352Y-76449448D01*
X111522364Y-76355917D01*
X111638798Y-76267844D01*
X111760555Y-76185506D01*
X111887535Y-76109179D01*
X112019639Y-76039141D01*
X112156769Y-75975666D01*
X112326505Y-75905412D01*
X112482460Y-75851832D01*
X112562460Y-75830592D01*
X112647645Y-75812676D01*
X112740891Y-75797803D01*
X112845074Y-75785690D01*
X113097758Y-75768622D01*
X113428710Y-75759220D01*
X113860941Y-75755230D01*
X114417465Y-75754401D01*
X115030779Y-75756635D01*
G37*
G36*
X118761250Y-75787230D02*
G01*
X118993658Y-75788545D01*
X119197448Y-75790900D01*
X119375532Y-75794570D01*
X119530824Y-75799826D01*
X119666238Y-75806943D01*
X119784687Y-75816194D01*
X119889085Y-75827852D01*
X119982345Y-75842191D01*
X120067382Y-75859484D01*
X120147107Y-75880005D01*
X120224435Y-75904026D01*
X120302280Y-75931821D01*
X120383555Y-75963664D01*
X120471174Y-75999828D01*
X120626503Y-76070735D01*
X120776273Y-76150946D01*
X120920229Y-76240149D01*
X121058120Y-76338030D01*
X121189692Y-76444277D01*
X121314695Y-76558578D01*
X121432874Y-76680619D01*
X121543978Y-76810088D01*
X121647754Y-76946673D01*
X121743950Y-77090060D01*
X121832313Y-77239938D01*
X121912590Y-77395994D01*
X121984530Y-77557914D01*
X122047879Y-77725387D01*
X122102385Y-77898099D01*
X122147796Y-78075738D01*
X122158168Y-78130619D01*
X122166756Y-78194790D01*
X122173592Y-78266924D01*
X122178707Y-78345690D01*
X122183906Y-78517801D01*
X122182610Y-78700491D01*
X122175074Y-78883124D01*
X122161557Y-79055066D01*
X122152635Y-79133705D01*
X122142313Y-79205683D01*
X122130625Y-79269671D01*
X122117602Y-79324339D01*
X122058271Y-79516703D01*
X121988493Y-79702246D01*
X121908565Y-79880660D01*
X121818786Y-80051639D01*
X121719455Y-80214878D01*
X121610870Y-80370069D01*
X121493331Y-80516907D01*
X121367135Y-80655085D01*
X121232582Y-80784296D01*
X121089970Y-80904236D01*
X120939598Y-81014596D01*
X120781765Y-81115071D01*
X120616769Y-81205355D01*
X120444909Y-81285142D01*
X120266484Y-81354124D01*
X120081792Y-81411996D01*
X119995673Y-81434523D01*
X119907629Y-81451653D01*
X119798234Y-81464147D01*
X119648063Y-81472766D01*
X119437691Y-81478271D01*
X119147693Y-81481425D01*
X118251119Y-81483719D01*
X117759809Y-81483941D01*
X117557379Y-81483710D01*
X117381205Y-81483166D01*
X117229366Y-81482242D01*
X117099942Y-81480875D01*
X116991012Y-81479000D01*
X116900656Y-81476552D01*
X116861843Y-81475093D01*
X116826953Y-81473466D01*
X116795746Y-81471663D01*
X116767982Y-81469677D01*
X116743422Y-81467500D01*
X116721824Y-81465122D01*
X116702949Y-81462536D01*
X116686557Y-81459734D01*
X116672408Y-81456708D01*
X116660261Y-81453450D01*
X116649877Y-81449951D01*
X116641015Y-81446204D01*
X116633436Y-81442201D01*
X116626900Y-81437932D01*
X116621166Y-81433391D01*
X116615994Y-81428570D01*
X116607021Y-81418719D01*
X116599034Y-81407678D01*
X116591976Y-81394779D01*
X116585791Y-81379358D01*
X116580423Y-81360747D01*
X116575815Y-81338281D01*
X116571912Y-81311294D01*
X116568658Y-81279119D01*
X116563873Y-81196541D01*
X116561009Y-81085219D01*
X116559320Y-80767027D01*
X116765631Y-80767027D01*
X116766211Y-80938775D01*
X116768080Y-81007951D01*
X116772019Y-81067052D01*
X116775004Y-81093073D01*
X116778792Y-81116871D01*
X116783479Y-81138548D01*
X116789160Y-81158201D01*
X116795931Y-81175929D01*
X116803888Y-81191832D01*
X116813125Y-81206009D01*
X116823737Y-81218559D01*
X116835821Y-81229581D01*
X116849472Y-81239174D01*
X116864785Y-81247437D01*
X116881855Y-81254469D01*
X116900778Y-81260369D01*
X116921649Y-81265236D01*
X116944563Y-81269169D01*
X116969616Y-81272268D01*
X117026521Y-81276359D01*
X117093126Y-81278299D01*
X117258486Y-81278900D01*
X117300690Y-81278747D01*
X117340589Y-81278291D01*
X117378167Y-81277531D01*
X117413408Y-81276470D01*
X117446297Y-81275109D01*
X117476818Y-81273450D01*
X117504955Y-81271495D01*
X117530691Y-81269244D01*
X117554012Y-81266700D01*
X117574901Y-81263864D01*
X117593343Y-81260737D01*
X117609321Y-81257322D01*
X117622819Y-81253619D01*
X117633823Y-81249630D01*
X117638384Y-81247529D01*
X117642316Y-81245357D01*
X117645615Y-81243114D01*
X117648281Y-81240800D01*
X117653020Y-81234344D01*
X117657430Y-81224753D01*
X117661512Y-81211985D01*
X117665271Y-81195992D01*
X117671833Y-81154156D01*
X117677142Y-81098883D01*
X117681224Y-81029811D01*
X117684107Y-80946581D01*
X117685817Y-80848831D01*
X117686381Y-80736198D01*
X117686286Y-80665645D01*
X117685972Y-80602268D01*
X117685400Y-80545678D01*
X117684529Y-80495485D01*
X117683320Y-80451300D01*
X117681732Y-80412734D01*
X117680783Y-80395436D01*
X117679724Y-80379397D01*
X117678551Y-80364568D01*
X117677257Y-80350900D01*
X117675839Y-80338344D01*
X117674291Y-80326853D01*
X117672607Y-80316377D01*
X117670784Y-80306867D01*
X117668816Y-80298275D01*
X117666697Y-80290552D01*
X117664424Y-80283650D01*
X117661990Y-80277520D01*
X117659391Y-80272113D01*
X117656622Y-80267380D01*
X117653678Y-80263273D01*
X117650554Y-80259744D01*
X117647244Y-80256742D01*
X117643744Y-80254221D01*
X117640049Y-80252130D01*
X117636153Y-80250422D01*
X117629080Y-80248459D01*
X117618364Y-80246550D01*
X117586883Y-80242938D01*
X117543463Y-80239665D01*
X117489857Y-80236810D01*
X117359100Y-80232671D01*
X117208639Y-80231151D01*
X117148243Y-80231231D01*
X117094466Y-80231517D01*
X117046882Y-80232069D01*
X117005068Y-80232954D01*
X116986191Y-80233540D01*
X116968596Y-80234233D01*
X116952232Y-80235041D01*
X116937043Y-80235971D01*
X116922978Y-80237031D01*
X116909984Y-80238231D01*
X116898006Y-80239576D01*
X116886992Y-80241076D01*
X116876889Y-80242738D01*
X116867643Y-80244571D01*
X116859202Y-80246582D01*
X116851512Y-80248779D01*
X116844520Y-80251170D01*
X116838174Y-80253763D01*
X116832419Y-80256566D01*
X116827203Y-80259587D01*
X116822473Y-80262834D01*
X116818175Y-80266315D01*
X116814256Y-80270037D01*
X116810664Y-80274009D01*
X116807344Y-80278239D01*
X116804245Y-80282735D01*
X116801312Y-80287504D01*
X116798493Y-80292555D01*
X116795147Y-80300955D01*
X116791894Y-80313324D01*
X116785737Y-80348997D01*
X116780156Y-80397628D01*
X116775287Y-80457270D01*
X116771265Y-80525977D01*
X116768225Y-80601803D01*
X116766302Y-80682802D01*
X116765631Y-80767027D01*
X116559320Y-80767027D01*
X116559256Y-80755025D01*
X116559620Y-80570335D01*
X116560158Y-80493076D01*
X116561008Y-80424988D01*
X116562227Y-80365407D01*
X116563869Y-80313669D01*
X116565992Y-80269109D01*
X116567251Y-80249314D01*
X116568651Y-80231063D01*
X116570198Y-80214276D01*
X116571901Y-80198867D01*
X116573766Y-80184755D01*
X116575800Y-80171856D01*
X116578009Y-80160088D01*
X116580402Y-80149366D01*
X116582985Y-80139609D01*
X116585764Y-80130733D01*
X116588748Y-80122655D01*
X116591942Y-80115292D01*
X116595355Y-80108562D01*
X116598992Y-80102380D01*
X116602861Y-80096664D01*
X116606969Y-80091331D01*
X116611323Y-80086297D01*
X116615930Y-80081481D01*
X116641212Y-80063914D01*
X116687465Y-80050089D01*
X116769237Y-80039348D01*
X116901077Y-80031035D01*
X117097532Y-80024490D01*
X117208639Y-80022301D01*
X117373150Y-80019058D01*
X118220067Y-80008901D01*
X119767530Y-79993026D01*
X119980890Y-79887933D01*
X120008060Y-79874195D01*
X120034445Y-79860121D01*
X120060079Y-79845682D01*
X120085000Y-79830853D01*
X120109243Y-79815605D01*
X120132844Y-79799910D01*
X120155839Y-79783742D01*
X120178264Y-79767073D01*
X120200154Y-79749875D01*
X120221546Y-79732120D01*
X120242476Y-79713782D01*
X120262979Y-79694833D01*
X120283091Y-79675245D01*
X120302849Y-79654991D01*
X120322287Y-79634043D01*
X120341443Y-79612374D01*
X120396339Y-79546843D01*
X120446590Y-79482681D01*
X120492314Y-79419564D01*
X120533629Y-79357167D01*
X120570652Y-79295165D01*
X120603502Y-79233235D01*
X120632297Y-79171050D01*
X120657154Y-79108288D01*
X120678190Y-79044623D01*
X120695525Y-78979731D01*
X120709274Y-78913287D01*
X120719558Y-78844966D01*
X120726492Y-78774445D01*
X120730196Y-78701399D01*
X120730786Y-78625503D01*
X120728381Y-78546432D01*
X120723641Y-78463544D01*
X120720787Y-78427044D01*
X120717460Y-78393240D01*
X120713545Y-78361680D01*
X120708928Y-78331915D01*
X120703498Y-78303493D01*
X120697139Y-78275966D01*
X120689738Y-78248881D01*
X120681182Y-78221789D01*
X120671356Y-78194240D01*
X120660149Y-78165782D01*
X120647445Y-78135966D01*
X120633132Y-78104340D01*
X120599221Y-78033860D01*
X120570130Y-77977472D01*
X120539594Y-77923116D01*
X120507607Y-77870783D01*
X120474162Y-77820466D01*
X120439250Y-77772158D01*
X120402865Y-77725851D01*
X120364999Y-77681536D01*
X120325644Y-77639208D01*
X120284793Y-77598857D01*
X120242438Y-77560476D01*
X120198572Y-77524059D01*
X120153188Y-77489596D01*
X120106278Y-77457080D01*
X120057834Y-77426505D01*
X120007849Y-77397861D01*
X119956316Y-77371142D01*
X119735717Y-77262526D01*
X118242736Y-77254684D01*
X117657830Y-77250421D01*
X117168932Y-77244654D01*
X116827189Y-77238132D01*
X116727484Y-77234821D01*
X116683748Y-77231601D01*
X116662901Y-77225375D01*
X116644144Y-77216442D01*
X116627372Y-77204276D01*
X116612484Y-77188353D01*
X116599377Y-77168146D01*
X116587948Y-77143129D01*
X116578094Y-77112778D01*
X116569714Y-77076566D01*
X116562704Y-77033968D01*
X116556962Y-76984458D01*
X116552384Y-76927510D01*
X116548870Y-76862600D01*
X116544616Y-76706786D01*
X116544179Y-76638226D01*
X116766358Y-76638226D01*
X116769221Y-76773866D01*
X116775653Y-76883784D01*
X116780270Y-76924673D01*
X116785856Y-76953820D01*
X116793263Y-76977389D01*
X116798099Y-76986918D01*
X116804536Y-76995063D01*
X116813210Y-77001913D01*
X116824756Y-77007558D01*
X116839809Y-77012085D01*
X116859004Y-77015586D01*
X116882976Y-77018149D01*
X116912360Y-77019862D01*
X116989904Y-77021101D01*
X117096717Y-77020015D01*
X117237881Y-77017320D01*
X117670506Y-77008526D01*
X117679238Y-76528053D01*
X117680505Y-76453862D01*
X117681426Y-76387464D01*
X117681963Y-76328416D01*
X117682078Y-76276276D01*
X117681734Y-76230599D01*
X117680893Y-76190943D01*
X117680276Y-76173234D01*
X117679520Y-76156864D01*
X117678621Y-76141778D01*
X117677575Y-76127920D01*
X117676376Y-76115234D01*
X117675021Y-76103665D01*
X117673505Y-76093159D01*
X117671822Y-76083659D01*
X117669969Y-76075109D01*
X117667941Y-76067456D01*
X117665732Y-76060643D01*
X117663338Y-76054614D01*
X117660755Y-76049315D01*
X117657978Y-76044690D01*
X117655002Y-76040684D01*
X117651823Y-76037240D01*
X117648436Y-76034305D01*
X117644835Y-76031822D01*
X117641018Y-76029735D01*
X117636978Y-76027991D01*
X117629822Y-76025997D01*
X117619026Y-76024059D01*
X117587392Y-76020389D01*
X117543832Y-76017062D01*
X117490103Y-76014159D01*
X117359167Y-76009948D01*
X117208639Y-76008401D01*
X117148243Y-76008481D01*
X117094466Y-76008767D01*
X117046882Y-76009320D01*
X117005068Y-76010204D01*
X116986191Y-76010790D01*
X116968596Y-76011483D01*
X116952232Y-76012291D01*
X116937043Y-76013221D01*
X116922978Y-76014282D01*
X116909984Y-76015481D01*
X116898006Y-76016827D01*
X116886992Y-76018326D01*
X116876889Y-76019989D01*
X116867643Y-76021821D01*
X116859202Y-76023832D01*
X116851512Y-76026029D01*
X116844520Y-76028420D01*
X116838174Y-76031013D01*
X116832419Y-76033816D01*
X116827203Y-76036837D01*
X116822473Y-76040084D01*
X116818175Y-76043565D01*
X116814256Y-76047288D01*
X116810664Y-76051260D01*
X116807344Y-76055490D01*
X116804245Y-76059986D01*
X116801312Y-76064755D01*
X116798493Y-76069805D01*
X116792213Y-76089208D01*
X116786547Y-76121651D01*
X116777159Y-76218577D01*
X116770529Y-76346421D01*
X116766862Y-76491024D01*
X116766358Y-76638226D01*
X116544179Y-76638226D01*
X116543381Y-76512813D01*
X116543607Y-76419184D01*
X116544337Y-76334565D01*
X116545649Y-76258446D01*
X116547622Y-76190317D01*
X116550334Y-76129669D01*
X116553863Y-76075991D01*
X116555958Y-76051607D01*
X116558287Y-76028775D01*
X116560860Y-76007430D01*
X116563685Y-75987509D01*
X116566774Y-75968949D01*
X116570136Y-75951685D01*
X116573780Y-75935653D01*
X116577717Y-75920791D01*
X116581956Y-75907035D01*
X116586507Y-75894320D01*
X116591380Y-75882583D01*
X116596584Y-75871760D01*
X116602130Y-75861787D01*
X116608027Y-75852601D01*
X116614285Y-75844139D01*
X116620913Y-75836335D01*
X116627923Y-75829127D01*
X116635322Y-75822451D01*
X116643122Y-75816243D01*
X116651331Y-75810439D01*
X116689220Y-75805745D01*
X116784249Y-75801347D01*
X117120338Y-75793830D01*
X117208639Y-75792896D01*
X117608821Y-75788664D01*
X118198922Y-75786627D01*
X118761250Y-75787230D01*
G37*
D10*
X122467180Y-57606969D02*
X122467180Y-57130779D01*
X122467180Y-57130779D02*
X121990990Y-57083160D01*
X121990990Y-57083160D02*
X122038609Y-57130779D01*
X122038609Y-57130779D02*
X122086228Y-57226017D01*
X122086228Y-57226017D02*
X122086228Y-57464112D01*
X122086228Y-57464112D02*
X122038609Y-57559350D01*
X122038609Y-57559350D02*
X121990990Y-57606969D01*
X121990990Y-57606969D02*
X121895752Y-57654588D01*
X121895752Y-57654588D02*
X121657657Y-57654588D01*
X121657657Y-57654588D02*
X121562419Y-57606969D01*
X121562419Y-57606969D02*
X121514800Y-57559350D01*
X121514800Y-57559350D02*
X121467180Y-57464112D01*
X121467180Y-57464112D02*
X121467180Y-57226017D01*
X121467180Y-57226017D02*
X121514800Y-57130779D01*
X121514800Y-57130779D02*
X121562419Y-57083160D01*
X121990990Y-58416493D02*
X121943371Y-58559350D01*
X121943371Y-58559350D02*
X121895752Y-58606969D01*
X121895752Y-58606969D02*
X121800514Y-58654588D01*
X121800514Y-58654588D02*
X121657657Y-58654588D01*
X121657657Y-58654588D02*
X121562419Y-58606969D01*
X121562419Y-58606969D02*
X121514800Y-58559350D01*
X121514800Y-58559350D02*
X121467180Y-58464112D01*
X121467180Y-58464112D02*
X121467180Y-58083160D01*
X121467180Y-58083160D02*
X122467180Y-58083160D01*
X122467180Y-58083160D02*
X122467180Y-58416493D01*
X122467180Y-58416493D02*
X122419561Y-58511731D01*
X122419561Y-58511731D02*
X122371942Y-58559350D01*
X122371942Y-58559350D02*
X122276704Y-58606969D01*
X122276704Y-58606969D02*
X122181466Y-58606969D01*
X122181466Y-58606969D02*
X122086228Y-58559350D01*
X122086228Y-58559350D02*
X122038609Y-58511731D01*
X122038609Y-58511731D02*
X121990990Y-58416493D01*
X121990990Y-58416493D02*
X121990990Y-58083160D01*
X121990990Y-59083160D02*
X121990990Y-59416493D01*
X121467180Y-59559350D02*
X121467180Y-59083160D01*
X121467180Y-59083160D02*
X122467180Y-59083160D01*
X122467180Y-59083160D02*
X122467180Y-59559350D01*
X121467180Y-60464112D02*
X121467180Y-59987922D01*
X121467180Y-59987922D02*
X122467180Y-59987922D01*
X122467180Y-61464113D02*
X121467180Y-62130779D01*
X122467180Y-62130779D02*
X121467180Y-61464113D01*
X122467180Y-62416494D02*
X121467180Y-63083160D01*
X122467180Y-63083160D02*
X121467180Y-62416494D01*
X122514800Y-64178398D02*
X121229085Y-63321256D01*
X122371942Y-64464113D02*
X122419561Y-64511732D01*
X122419561Y-64511732D02*
X122467180Y-64606970D01*
X122467180Y-64606970D02*
X122467180Y-64845065D01*
X122467180Y-64845065D02*
X122419561Y-64940303D01*
X122419561Y-64940303D02*
X122371942Y-64987922D01*
X122371942Y-64987922D02*
X122276704Y-65035541D01*
X122276704Y-65035541D02*
X122181466Y-65035541D01*
X122181466Y-65035541D02*
X122038609Y-64987922D01*
X122038609Y-64987922D02*
X121467180Y-64416494D01*
X121467180Y-64416494D02*
X121467180Y-65035541D01*
X122467180Y-65654589D02*
X122467180Y-65749827D01*
X122467180Y-65749827D02*
X122419561Y-65845065D01*
X122419561Y-65845065D02*
X122371942Y-65892684D01*
X122371942Y-65892684D02*
X122276704Y-65940303D01*
X122276704Y-65940303D02*
X122086228Y-65987922D01*
X122086228Y-65987922D02*
X121848133Y-65987922D01*
X121848133Y-65987922D02*
X121657657Y-65940303D01*
X121657657Y-65940303D02*
X121562419Y-65892684D01*
X121562419Y-65892684D02*
X121514800Y-65845065D01*
X121514800Y-65845065D02*
X121467180Y-65749827D01*
X121467180Y-65749827D02*
X121467180Y-65654589D01*
X121467180Y-65654589D02*
X121514800Y-65559351D01*
X121514800Y-65559351D02*
X121562419Y-65511732D01*
X121562419Y-65511732D02*
X121657657Y-65464113D01*
X121657657Y-65464113D02*
X121848133Y-65416494D01*
X121848133Y-65416494D02*
X122086228Y-65416494D01*
X122086228Y-65416494D02*
X122276704Y-65464113D01*
X122276704Y-65464113D02*
X122371942Y-65511732D01*
X122371942Y-65511732D02*
X122419561Y-65559351D01*
X122419561Y-65559351D02*
X122467180Y-65654589D01*
X122371942Y-66368875D02*
X122419561Y-66416494D01*
X122419561Y-66416494D02*
X122467180Y-66511732D01*
X122467180Y-66511732D02*
X122467180Y-66749827D01*
X122467180Y-66749827D02*
X122419561Y-66845065D01*
X122419561Y-66845065D02*
X122371942Y-66892684D01*
X122371942Y-66892684D02*
X122276704Y-66940303D01*
X122276704Y-66940303D02*
X122181466Y-66940303D01*
X122181466Y-66940303D02*
X122038609Y-66892684D01*
X122038609Y-66892684D02*
X121467180Y-66321256D01*
X121467180Y-66321256D02*
X121467180Y-66940303D01*
X122133847Y-67797446D02*
X121467180Y-67797446D01*
X122514800Y-67559351D02*
X121800514Y-67321256D01*
X121800514Y-67321256D02*
X121800514Y-67940303D01*
D17*
X126708980Y-57213558D02*
X126708980Y-57880225D01*
X125661361Y-58165939D02*
X125661361Y-57213558D01*
X125661361Y-57213558D02*
X127661361Y-57213558D01*
X127661361Y-57213558D02*
X127661361Y-58165939D01*
X125661361Y-59975463D02*
X125661361Y-59023082D01*
X125661361Y-59023082D02*
X127661361Y-59023082D01*
X125661361Y-60642130D02*
X127661361Y-60642130D01*
X126232790Y-61499273D02*
X126232790Y-62451654D01*
X125661361Y-61308797D02*
X127661361Y-61975463D01*
X127661361Y-61975463D02*
X125661361Y-62642130D01*
X127661361Y-64546893D02*
X125661361Y-65213559D01*
X125661361Y-65213559D02*
X127661361Y-65880226D01*
X126232790Y-66451655D02*
X126232790Y-67404036D01*
X125661361Y-66261179D02*
X127661361Y-66927845D01*
X127661361Y-66927845D02*
X125661361Y-67594512D01*
X125661361Y-68261179D02*
X127661361Y-68261179D01*
X127661361Y-68261179D02*
X125661361Y-69404036D01*
X125661361Y-69404036D02*
X127661361Y-69404036D01*
X125661361Y-70356417D02*
X127661361Y-70356417D01*
X127661361Y-70356417D02*
X127661361Y-70832607D01*
X127661361Y-70832607D02*
X127566123Y-71118322D01*
X127566123Y-71118322D02*
X127375647Y-71308798D01*
X127375647Y-71308798D02*
X127185171Y-71404036D01*
X127185171Y-71404036D02*
X126804219Y-71499274D01*
X126804219Y-71499274D02*
X126518504Y-71499274D01*
X126518504Y-71499274D02*
X126137552Y-71404036D01*
X126137552Y-71404036D02*
X125947076Y-71308798D01*
X125947076Y-71308798D02*
X125756600Y-71118322D01*
X125756600Y-71118322D02*
X125661361Y-70832607D01*
X125661361Y-70832607D02*
X125661361Y-70356417D01*
X125661361Y-72356417D02*
X127661361Y-72356417D01*
X125661361Y-73308798D02*
X127661361Y-73308798D01*
X127661361Y-73308798D02*
X125661361Y-74451655D01*
X125661361Y-74451655D02*
X127661361Y-74451655D01*
X125661361Y-75404036D02*
X127661361Y-75404036D01*
D10*
X123499180Y-57130779D02*
X124499180Y-57130779D01*
X124499180Y-57130779D02*
X124499180Y-57368874D01*
X124499180Y-57368874D02*
X124451561Y-57511731D01*
X124451561Y-57511731D02*
X124356323Y-57606969D01*
X124356323Y-57606969D02*
X124261085Y-57654588D01*
X124261085Y-57654588D02*
X124070609Y-57702207D01*
X124070609Y-57702207D02*
X123927752Y-57702207D01*
X123927752Y-57702207D02*
X123737276Y-57654588D01*
X123737276Y-57654588D02*
X123642038Y-57606969D01*
X123642038Y-57606969D02*
X123546800Y-57511731D01*
X123546800Y-57511731D02*
X123499180Y-57368874D01*
X123499180Y-57368874D02*
X123499180Y-57130779D01*
X123499180Y-58273636D02*
X123546800Y-58178398D01*
X123546800Y-58178398D02*
X123594419Y-58130779D01*
X123594419Y-58130779D02*
X123689657Y-58083160D01*
X123689657Y-58083160D02*
X123975371Y-58083160D01*
X123975371Y-58083160D02*
X124070609Y-58130779D01*
X124070609Y-58130779D02*
X124118228Y-58178398D01*
X124118228Y-58178398D02*
X124165847Y-58273636D01*
X124165847Y-58273636D02*
X124165847Y-58416493D01*
X124165847Y-58416493D02*
X124118228Y-58511731D01*
X124118228Y-58511731D02*
X124070609Y-58559350D01*
X124070609Y-58559350D02*
X123975371Y-58606969D01*
X123975371Y-58606969D02*
X123689657Y-58606969D01*
X123689657Y-58606969D02*
X123594419Y-58559350D01*
X123594419Y-58559350D02*
X123546800Y-58511731D01*
X123546800Y-58511731D02*
X123499180Y-58416493D01*
X123499180Y-58416493D02*
X123499180Y-58273636D01*
X123499180Y-59178398D02*
X123546800Y-59083160D01*
X123546800Y-59083160D02*
X123594419Y-59035541D01*
X123594419Y-59035541D02*
X123689657Y-58987922D01*
X123689657Y-58987922D02*
X123975371Y-58987922D01*
X123975371Y-58987922D02*
X124070609Y-59035541D01*
X124070609Y-59035541D02*
X124118228Y-59083160D01*
X124118228Y-59083160D02*
X124165847Y-59178398D01*
X124165847Y-59178398D02*
X124165847Y-59321255D01*
X124165847Y-59321255D02*
X124118228Y-59416493D01*
X124118228Y-59416493D02*
X124070609Y-59464112D01*
X124070609Y-59464112D02*
X123975371Y-59511731D01*
X123975371Y-59511731D02*
X123689657Y-59511731D01*
X123689657Y-59511731D02*
X123594419Y-59464112D01*
X123594419Y-59464112D02*
X123546800Y-59416493D01*
X123546800Y-59416493D02*
X123499180Y-59321255D01*
X123499180Y-59321255D02*
X123499180Y-59178398D01*
X123499180Y-60368874D02*
X124499180Y-60368874D01*
X123546800Y-60368874D02*
X123499180Y-60273636D01*
X123499180Y-60273636D02*
X123499180Y-60083160D01*
X123499180Y-60083160D02*
X123546800Y-59987922D01*
X123546800Y-59987922D02*
X123594419Y-59940303D01*
X123594419Y-59940303D02*
X123689657Y-59892684D01*
X123689657Y-59892684D02*
X123975371Y-59892684D01*
X123975371Y-59892684D02*
X124070609Y-59940303D01*
X124070609Y-59940303D02*
X124118228Y-59987922D01*
X124118228Y-59987922D02*
X124165847Y-60083160D01*
X124165847Y-60083160D02*
X124165847Y-60273636D01*
X124165847Y-60273636D02*
X124118228Y-60368874D01*
X123499180Y-60987922D02*
X123546800Y-60892684D01*
X123546800Y-60892684D02*
X123642038Y-60845065D01*
X123642038Y-60845065D02*
X124499180Y-60845065D01*
X123546800Y-61749827D02*
X123499180Y-61654589D01*
X123499180Y-61654589D02*
X123499180Y-61464113D01*
X123499180Y-61464113D02*
X123546800Y-61368875D01*
X123546800Y-61368875D02*
X123642038Y-61321256D01*
X123642038Y-61321256D02*
X124022990Y-61321256D01*
X124022990Y-61321256D02*
X124118228Y-61368875D01*
X124118228Y-61368875D02*
X124165847Y-61464113D01*
X124165847Y-61464113D02*
X124165847Y-61654589D01*
X124165847Y-61654589D02*
X124118228Y-61749827D01*
X124118228Y-61749827D02*
X124022990Y-61797446D01*
X124022990Y-61797446D02*
X123927752Y-61797446D01*
X123927752Y-61797446D02*
X123832514Y-61321256D01*
X123499180Y-62987923D02*
X124499180Y-62987923D01*
X124499180Y-62987923D02*
X124499180Y-63226018D01*
X124499180Y-63226018D02*
X124451561Y-63368875D01*
X124451561Y-63368875D02*
X124356323Y-63464113D01*
X124356323Y-63464113D02*
X124261085Y-63511732D01*
X124261085Y-63511732D02*
X124070609Y-63559351D01*
X124070609Y-63559351D02*
X123927752Y-63559351D01*
X123927752Y-63559351D02*
X123737276Y-63511732D01*
X123737276Y-63511732D02*
X123642038Y-63464113D01*
X123642038Y-63464113D02*
X123546800Y-63368875D01*
X123546800Y-63368875D02*
X123499180Y-63226018D01*
X123499180Y-63226018D02*
X123499180Y-62987923D01*
X123499180Y-63987923D02*
X124165847Y-63987923D01*
X123975371Y-63987923D02*
X124070609Y-64035542D01*
X124070609Y-64035542D02*
X124118228Y-64083161D01*
X124118228Y-64083161D02*
X124165847Y-64178399D01*
X124165847Y-64178399D02*
X124165847Y-64273637D01*
X123499180Y-64606971D02*
X124165847Y-64606971D01*
X124499180Y-64606971D02*
X124451561Y-64559352D01*
X124451561Y-64559352D02*
X124403942Y-64606971D01*
X124403942Y-64606971D02*
X124451561Y-64654590D01*
X124451561Y-64654590D02*
X124499180Y-64606971D01*
X124499180Y-64606971D02*
X124403942Y-64606971D01*
X124165847Y-64987923D02*
X123499180Y-65226018D01*
X123499180Y-65226018D02*
X124165847Y-65464113D01*
X123546800Y-66226018D02*
X123499180Y-66130780D01*
X123499180Y-66130780D02*
X123499180Y-65940304D01*
X123499180Y-65940304D02*
X123546800Y-65845066D01*
X123546800Y-65845066D02*
X123642038Y-65797447D01*
X123642038Y-65797447D02*
X124022990Y-65797447D01*
X124022990Y-65797447D02*
X124118228Y-65845066D01*
X124118228Y-65845066D02*
X124165847Y-65940304D01*
X124165847Y-65940304D02*
X124165847Y-66130780D01*
X124165847Y-66130780D02*
X124118228Y-66226018D01*
X124118228Y-66226018D02*
X124022990Y-66273637D01*
X124022990Y-66273637D02*
X123927752Y-66273637D01*
X123927752Y-66273637D02*
X123832514Y-65797447D01*
X124499180Y-67321257D02*
X123499180Y-67654590D01*
X123499180Y-67654590D02*
X124499180Y-67987923D01*
X124403942Y-68273638D02*
X124451561Y-68321257D01*
X124451561Y-68321257D02*
X124499180Y-68416495D01*
X124499180Y-68416495D02*
X124499180Y-68654590D01*
X124499180Y-68654590D02*
X124451561Y-68749828D01*
X124451561Y-68749828D02*
X124403942Y-68797447D01*
X124403942Y-68797447D02*
X124308704Y-68845066D01*
X124308704Y-68845066D02*
X124213466Y-68845066D01*
X124213466Y-68845066D02*
X124070609Y-68797447D01*
X124070609Y-68797447D02*
X123499180Y-68226019D01*
X123499180Y-68226019D02*
X123499180Y-68845066D01*
X123594419Y-69273638D02*
X123546800Y-69321257D01*
X123546800Y-69321257D02*
X123499180Y-69273638D01*
X123499180Y-69273638D02*
X123546800Y-69226019D01*
X123546800Y-69226019D02*
X123594419Y-69273638D01*
X123594419Y-69273638D02*
X123499180Y-69273638D01*
X124499180Y-69940304D02*
X124499180Y-70035542D01*
X124499180Y-70035542D02*
X124451561Y-70130780D01*
X124451561Y-70130780D02*
X124403942Y-70178399D01*
X124403942Y-70178399D02*
X124308704Y-70226018D01*
X124308704Y-70226018D02*
X124118228Y-70273637D01*
X124118228Y-70273637D02*
X123880133Y-70273637D01*
X123880133Y-70273637D02*
X123689657Y-70226018D01*
X123689657Y-70226018D02*
X123594419Y-70178399D01*
X123594419Y-70178399D02*
X123546800Y-70130780D01*
X123546800Y-70130780D02*
X123499180Y-70035542D01*
X123499180Y-70035542D02*
X123499180Y-69940304D01*
X123499180Y-69940304D02*
X123546800Y-69845066D01*
X123546800Y-69845066D02*
X123594419Y-69797447D01*
X123594419Y-69797447D02*
X123689657Y-69749828D01*
X123689657Y-69749828D02*
X123880133Y-69702209D01*
X123880133Y-69702209D02*
X124118228Y-69702209D01*
X124118228Y-69702209D02*
X124308704Y-69749828D01*
X124308704Y-69749828D02*
X124403942Y-69797447D01*
X124403942Y-69797447D02*
X124451561Y-69845066D01*
X124451561Y-69845066D02*
X124499180Y-69940304D01*
%TO.C,U2*%
D18*
X119057500Y-101145000D02*
X117317500Y-101145000D01*
X117317500Y-100705000D01*
X119057500Y-100705000D01*
X119057500Y-101145000D01*
G36*
X119057500Y-101145000D02*
G01*
X117317500Y-101145000D01*
X117317500Y-100705000D01*
X119057500Y-100705000D01*
X119057500Y-101145000D01*
G37*
X119057500Y-101795000D02*
X117317500Y-101795000D01*
X117317500Y-101355000D01*
X119057500Y-101355000D01*
X119057500Y-101795000D01*
G36*
X119057500Y-101795000D02*
G01*
X117317500Y-101795000D01*
X117317500Y-101355000D01*
X119057500Y-101355000D01*
X119057500Y-101795000D01*
G37*
X119057500Y-102445000D02*
X117317500Y-102445000D01*
X117317500Y-102005000D01*
X119057500Y-102005000D01*
X119057500Y-102445000D01*
G36*
X119057500Y-102445000D02*
G01*
X117317500Y-102445000D01*
X117317500Y-102005000D01*
X119057500Y-102005000D01*
X119057500Y-102445000D01*
G37*
X119057500Y-103095000D02*
X117317500Y-103095000D01*
X117317500Y-102655000D01*
X119057500Y-102655000D01*
X119057500Y-103095000D01*
G36*
X119057500Y-103095000D02*
G01*
X117317500Y-103095000D01*
X117317500Y-102655000D01*
X119057500Y-102655000D01*
X119057500Y-103095000D01*
G37*
X119057500Y-103745000D02*
X117317500Y-103745000D01*
X117317500Y-103305000D01*
X119057500Y-103305000D01*
X119057500Y-103745000D01*
G36*
X119057500Y-103745000D02*
G01*
X117317500Y-103745000D01*
X117317500Y-103305000D01*
X119057500Y-103305000D01*
X119057500Y-103745000D01*
G37*
X119057500Y-104395000D02*
X117317500Y-104395000D01*
X117317500Y-103955000D01*
X119057500Y-103955000D01*
X119057500Y-104395000D01*
G36*
X119057500Y-104395000D02*
G01*
X117317500Y-104395000D01*
X117317500Y-103955000D01*
X119057500Y-103955000D01*
X119057500Y-104395000D01*
G37*
X119057500Y-105045000D02*
X117317500Y-105045000D01*
X117317500Y-104605000D01*
X119057500Y-104605000D01*
X119057500Y-105045000D01*
G36*
X119057500Y-105045000D02*
G01*
X117317500Y-105045000D01*
X117317500Y-104605000D01*
X119057500Y-104605000D01*
X119057500Y-105045000D01*
G37*
X119057500Y-105695000D02*
X117317500Y-105695000D01*
X117317500Y-105255000D01*
X119057500Y-105255000D01*
X119057500Y-105695000D01*
G36*
X119057500Y-105695000D02*
G01*
X117317500Y-105695000D01*
X117317500Y-105255000D01*
X119057500Y-105255000D01*
X119057500Y-105695000D01*
G37*
X119057500Y-106345000D02*
X117317500Y-106345000D01*
X117317500Y-105905000D01*
X119057500Y-105905000D01*
X119057500Y-106345000D01*
G36*
X119057500Y-106345000D02*
G01*
X117317500Y-106345000D01*
X117317500Y-105905000D01*
X119057500Y-105905000D01*
X119057500Y-106345000D01*
G37*
X119057500Y-106995000D02*
X117317500Y-106995000D01*
X117317500Y-106555000D01*
X119057500Y-106555000D01*
X119057500Y-106995000D01*
G36*
X119057500Y-106995000D02*
G01*
X117317500Y-106995000D01*
X117317500Y-106555000D01*
X119057500Y-106555000D01*
X119057500Y-106995000D01*
G37*
X119057500Y-107645000D02*
X117317500Y-107645000D01*
X117317500Y-107205000D01*
X119057500Y-107205000D01*
X119057500Y-107645000D01*
G36*
X119057500Y-107645000D02*
G01*
X117317500Y-107645000D01*
X117317500Y-107205000D01*
X119057500Y-107205000D01*
X119057500Y-107645000D01*
G37*
X119057500Y-108295000D02*
X117317500Y-108295000D01*
X117317500Y-107855000D01*
X119057500Y-107855000D01*
X119057500Y-108295000D01*
G36*
X119057500Y-108295000D02*
G01*
X117317500Y-108295000D01*
X117317500Y-107855000D01*
X119057500Y-107855000D01*
X119057500Y-108295000D01*
G37*
X119057500Y-108945000D02*
X117317500Y-108945000D01*
X117317500Y-108505000D01*
X119057500Y-108505000D01*
X119057500Y-108945000D01*
G36*
X119057500Y-108945000D02*
G01*
X117317500Y-108945000D01*
X117317500Y-108505000D01*
X119057500Y-108505000D01*
X119057500Y-108945000D01*
G37*
X119057500Y-109595000D02*
X117317500Y-109595000D01*
X117317500Y-109155000D01*
X119057500Y-109155000D01*
X119057500Y-109595000D01*
G36*
X119057500Y-109595000D02*
G01*
X117317500Y-109595000D01*
X117317500Y-109155000D01*
X119057500Y-109155000D01*
X119057500Y-109595000D01*
G37*
X122187500Y-108380000D02*
X119787500Y-108380000D01*
X119787500Y-101920000D01*
X122187500Y-101920000D01*
X122187500Y-108380000D01*
G36*
X122187500Y-108380000D02*
G01*
X119787500Y-108380000D01*
X119787500Y-101920000D01*
X122187500Y-101920000D01*
X122187500Y-108380000D01*
G37*
X124657500Y-101145000D02*
X122917500Y-101145000D01*
X122917500Y-100705000D01*
X124657500Y-100705000D01*
X124657500Y-101145000D01*
G36*
X124657500Y-101145000D02*
G01*
X122917500Y-101145000D01*
X122917500Y-100705000D01*
X124657500Y-100705000D01*
X124657500Y-101145000D01*
G37*
X124657500Y-101795000D02*
X122917500Y-101795000D01*
X122917500Y-101355000D01*
X124657500Y-101355000D01*
X124657500Y-101795000D01*
G36*
X124657500Y-101795000D02*
G01*
X122917500Y-101795000D01*
X122917500Y-101355000D01*
X124657500Y-101355000D01*
X124657500Y-101795000D01*
G37*
X124657500Y-102445000D02*
X122917500Y-102445000D01*
X122917500Y-102005000D01*
X124657500Y-102005000D01*
X124657500Y-102445000D01*
G36*
X124657500Y-102445000D02*
G01*
X122917500Y-102445000D01*
X122917500Y-102005000D01*
X124657500Y-102005000D01*
X124657500Y-102445000D01*
G37*
X124657500Y-103095000D02*
X122917500Y-103095000D01*
X122917500Y-102655000D01*
X124657500Y-102655000D01*
X124657500Y-103095000D01*
G36*
X124657500Y-103095000D02*
G01*
X122917500Y-103095000D01*
X122917500Y-102655000D01*
X124657500Y-102655000D01*
X124657500Y-103095000D01*
G37*
X124657500Y-103745000D02*
X122917500Y-103745000D01*
X122917500Y-103305000D01*
X124657500Y-103305000D01*
X124657500Y-103745000D01*
G36*
X124657500Y-103745000D02*
G01*
X122917500Y-103745000D01*
X122917500Y-103305000D01*
X124657500Y-103305000D01*
X124657500Y-103745000D01*
G37*
X124657500Y-104395000D02*
X122917500Y-104395000D01*
X122917500Y-103955000D01*
X124657500Y-103955000D01*
X124657500Y-104395000D01*
G36*
X124657500Y-104395000D02*
G01*
X122917500Y-104395000D01*
X122917500Y-103955000D01*
X124657500Y-103955000D01*
X124657500Y-104395000D01*
G37*
X124657500Y-105045000D02*
X122917500Y-105045000D01*
X122917500Y-104605000D01*
X124657500Y-104605000D01*
X124657500Y-105045000D01*
G36*
X124657500Y-105045000D02*
G01*
X122917500Y-105045000D01*
X122917500Y-104605000D01*
X124657500Y-104605000D01*
X124657500Y-105045000D01*
G37*
X124657500Y-105695000D02*
X122917500Y-105695000D01*
X122917500Y-105255000D01*
X124657500Y-105255000D01*
X124657500Y-105695000D01*
G36*
X124657500Y-105695000D02*
G01*
X122917500Y-105695000D01*
X122917500Y-105255000D01*
X124657500Y-105255000D01*
X124657500Y-105695000D01*
G37*
X124657500Y-106345000D02*
X122917500Y-106345000D01*
X122917500Y-105905000D01*
X124657500Y-105905000D01*
X124657500Y-106345000D01*
G36*
X124657500Y-106345000D02*
G01*
X122917500Y-106345000D01*
X122917500Y-105905000D01*
X124657500Y-105905000D01*
X124657500Y-106345000D01*
G37*
X124657500Y-106995000D02*
X122917500Y-106995000D01*
X122917500Y-106555000D01*
X124657500Y-106555000D01*
X124657500Y-106995000D01*
G36*
X124657500Y-106995000D02*
G01*
X122917500Y-106995000D01*
X122917500Y-106555000D01*
X124657500Y-106555000D01*
X124657500Y-106995000D01*
G37*
X124657500Y-107645000D02*
X122917500Y-107645000D01*
X122917500Y-107205000D01*
X124657500Y-107205000D01*
X124657500Y-107645000D01*
G36*
X124657500Y-107645000D02*
G01*
X122917500Y-107645000D01*
X122917500Y-107205000D01*
X124657500Y-107205000D01*
X124657500Y-107645000D01*
G37*
X124657500Y-108295000D02*
X122917500Y-108295000D01*
X122917500Y-107855000D01*
X124657500Y-107855000D01*
X124657500Y-108295000D01*
G36*
X124657500Y-108295000D02*
G01*
X122917500Y-108295000D01*
X122917500Y-107855000D01*
X124657500Y-107855000D01*
X124657500Y-108295000D01*
G37*
X124657500Y-108945000D02*
X122917500Y-108945000D01*
X122917500Y-108505000D01*
X124657500Y-108505000D01*
X124657500Y-108945000D01*
G36*
X124657500Y-108945000D02*
G01*
X122917500Y-108945000D01*
X122917500Y-108505000D01*
X124657500Y-108505000D01*
X124657500Y-108945000D01*
G37*
X124657500Y-109595000D02*
X122917500Y-109595000D01*
X122917500Y-109155000D01*
X124657500Y-109155000D01*
X124657500Y-109595000D01*
G36*
X124657500Y-109595000D02*
G01*
X122917500Y-109595000D01*
X122917500Y-109155000D01*
X124657500Y-109155000D01*
X124657500Y-109595000D01*
G37*
%TO.C,U3*%
X101537500Y-101325000D02*
X99797500Y-101325000D01*
X99797500Y-100885000D01*
X101537500Y-100885000D01*
X101537500Y-101325000D01*
G36*
X101537500Y-101325000D02*
G01*
X99797500Y-101325000D01*
X99797500Y-100885000D01*
X101537500Y-100885000D01*
X101537500Y-101325000D01*
G37*
X101537500Y-101975000D02*
X99797500Y-101975000D01*
X99797500Y-101535000D01*
X101537500Y-101535000D01*
X101537500Y-101975000D01*
G36*
X101537500Y-101975000D02*
G01*
X99797500Y-101975000D01*
X99797500Y-101535000D01*
X101537500Y-101535000D01*
X101537500Y-101975000D01*
G37*
X101537500Y-102625000D02*
X99797500Y-102625000D01*
X99797500Y-102185000D01*
X101537500Y-102185000D01*
X101537500Y-102625000D01*
G36*
X101537500Y-102625000D02*
G01*
X99797500Y-102625000D01*
X99797500Y-102185000D01*
X101537500Y-102185000D01*
X101537500Y-102625000D01*
G37*
X101537500Y-103275000D02*
X99797500Y-103275000D01*
X99797500Y-102835000D01*
X101537500Y-102835000D01*
X101537500Y-103275000D01*
G36*
X101537500Y-103275000D02*
G01*
X99797500Y-103275000D01*
X99797500Y-102835000D01*
X101537500Y-102835000D01*
X101537500Y-103275000D01*
G37*
X101537500Y-103925000D02*
X99797500Y-103925000D01*
X99797500Y-103485000D01*
X101537500Y-103485000D01*
X101537500Y-103925000D01*
G36*
X101537500Y-103925000D02*
G01*
X99797500Y-103925000D01*
X99797500Y-103485000D01*
X101537500Y-103485000D01*
X101537500Y-103925000D01*
G37*
X101537500Y-104575000D02*
X99797500Y-104575000D01*
X99797500Y-104135000D01*
X101537500Y-104135000D01*
X101537500Y-104575000D01*
G36*
X101537500Y-104575000D02*
G01*
X99797500Y-104575000D01*
X99797500Y-104135000D01*
X101537500Y-104135000D01*
X101537500Y-104575000D01*
G37*
X101537500Y-105225000D02*
X99797500Y-105225000D01*
X99797500Y-104785000D01*
X101537500Y-104785000D01*
X101537500Y-105225000D01*
G36*
X101537500Y-105225000D02*
G01*
X99797500Y-105225000D01*
X99797500Y-104785000D01*
X101537500Y-104785000D01*
X101537500Y-105225000D01*
G37*
X101537500Y-105875000D02*
X99797500Y-105875000D01*
X99797500Y-105435000D01*
X101537500Y-105435000D01*
X101537500Y-105875000D01*
G36*
X101537500Y-105875000D02*
G01*
X99797500Y-105875000D01*
X99797500Y-105435000D01*
X101537500Y-105435000D01*
X101537500Y-105875000D01*
G37*
X101537500Y-106525000D02*
X99797500Y-106525000D01*
X99797500Y-106085000D01*
X101537500Y-106085000D01*
X101537500Y-106525000D01*
G36*
X101537500Y-106525000D02*
G01*
X99797500Y-106525000D01*
X99797500Y-106085000D01*
X101537500Y-106085000D01*
X101537500Y-106525000D01*
G37*
X101537500Y-107175000D02*
X99797500Y-107175000D01*
X99797500Y-106735000D01*
X101537500Y-106735000D01*
X101537500Y-107175000D01*
G36*
X101537500Y-107175000D02*
G01*
X99797500Y-107175000D01*
X99797500Y-106735000D01*
X101537500Y-106735000D01*
X101537500Y-107175000D01*
G37*
X101537500Y-107825000D02*
X99797500Y-107825000D01*
X99797500Y-107385000D01*
X101537500Y-107385000D01*
X101537500Y-107825000D01*
G36*
X101537500Y-107825000D02*
G01*
X99797500Y-107825000D01*
X99797500Y-107385000D01*
X101537500Y-107385000D01*
X101537500Y-107825000D01*
G37*
X101537500Y-108475000D02*
X99797500Y-108475000D01*
X99797500Y-108035000D01*
X101537500Y-108035000D01*
X101537500Y-108475000D01*
G36*
X101537500Y-108475000D02*
G01*
X99797500Y-108475000D01*
X99797500Y-108035000D01*
X101537500Y-108035000D01*
X101537500Y-108475000D01*
G37*
X101537500Y-109125000D02*
X99797500Y-109125000D01*
X99797500Y-108685000D01*
X101537500Y-108685000D01*
X101537500Y-109125000D01*
G36*
X101537500Y-109125000D02*
G01*
X99797500Y-109125000D01*
X99797500Y-108685000D01*
X101537500Y-108685000D01*
X101537500Y-109125000D01*
G37*
X101537500Y-109775000D02*
X99797500Y-109775000D01*
X99797500Y-109335000D01*
X101537500Y-109335000D01*
X101537500Y-109775000D01*
G36*
X101537500Y-109775000D02*
G01*
X99797500Y-109775000D01*
X99797500Y-109335000D01*
X101537500Y-109335000D01*
X101537500Y-109775000D01*
G37*
X104667500Y-108560000D02*
X102267500Y-108560000D01*
X102267500Y-102100000D01*
X104667500Y-102100000D01*
X104667500Y-108560000D01*
G36*
X104667500Y-108560000D02*
G01*
X102267500Y-108560000D01*
X102267500Y-102100000D01*
X104667500Y-102100000D01*
X104667500Y-108560000D01*
G37*
X107137500Y-101325000D02*
X105397500Y-101325000D01*
X105397500Y-100885000D01*
X107137500Y-100885000D01*
X107137500Y-101325000D01*
G36*
X107137500Y-101325000D02*
G01*
X105397500Y-101325000D01*
X105397500Y-100885000D01*
X107137500Y-100885000D01*
X107137500Y-101325000D01*
G37*
X107137500Y-101975000D02*
X105397500Y-101975000D01*
X105397500Y-101535000D01*
X107137500Y-101535000D01*
X107137500Y-101975000D01*
G36*
X107137500Y-101975000D02*
G01*
X105397500Y-101975000D01*
X105397500Y-101535000D01*
X107137500Y-101535000D01*
X107137500Y-101975000D01*
G37*
X107137500Y-102625000D02*
X105397500Y-102625000D01*
X105397500Y-102185000D01*
X107137500Y-102185000D01*
X107137500Y-102625000D01*
G36*
X107137500Y-102625000D02*
G01*
X105397500Y-102625000D01*
X105397500Y-102185000D01*
X107137500Y-102185000D01*
X107137500Y-102625000D01*
G37*
X107137500Y-103275000D02*
X105397500Y-103275000D01*
X105397500Y-102835000D01*
X107137500Y-102835000D01*
X107137500Y-103275000D01*
G36*
X107137500Y-103275000D02*
G01*
X105397500Y-103275000D01*
X105397500Y-102835000D01*
X107137500Y-102835000D01*
X107137500Y-103275000D01*
G37*
X107137500Y-103925000D02*
X105397500Y-103925000D01*
X105397500Y-103485000D01*
X107137500Y-103485000D01*
X107137500Y-103925000D01*
G36*
X107137500Y-103925000D02*
G01*
X105397500Y-103925000D01*
X105397500Y-103485000D01*
X107137500Y-103485000D01*
X107137500Y-103925000D01*
G37*
X107137500Y-104575000D02*
X105397500Y-104575000D01*
X105397500Y-104135000D01*
X107137500Y-104135000D01*
X107137500Y-104575000D01*
G36*
X107137500Y-104575000D02*
G01*
X105397500Y-104575000D01*
X105397500Y-104135000D01*
X107137500Y-104135000D01*
X107137500Y-104575000D01*
G37*
X107137500Y-105225000D02*
X105397500Y-105225000D01*
X105397500Y-104785000D01*
X107137500Y-104785000D01*
X107137500Y-105225000D01*
G36*
X107137500Y-105225000D02*
G01*
X105397500Y-105225000D01*
X105397500Y-104785000D01*
X107137500Y-104785000D01*
X107137500Y-105225000D01*
G37*
X107137500Y-105875000D02*
X105397500Y-105875000D01*
X105397500Y-105435000D01*
X107137500Y-105435000D01*
X107137500Y-105875000D01*
G36*
X107137500Y-105875000D02*
G01*
X105397500Y-105875000D01*
X105397500Y-105435000D01*
X107137500Y-105435000D01*
X107137500Y-105875000D01*
G37*
X107137500Y-106525000D02*
X105397500Y-106525000D01*
X105397500Y-106085000D01*
X107137500Y-106085000D01*
X107137500Y-106525000D01*
G36*
X107137500Y-106525000D02*
G01*
X105397500Y-106525000D01*
X105397500Y-106085000D01*
X107137500Y-106085000D01*
X107137500Y-106525000D01*
G37*
X107137500Y-107175000D02*
X105397500Y-107175000D01*
X105397500Y-106735000D01*
X107137500Y-106735000D01*
X107137500Y-107175000D01*
G36*
X107137500Y-107175000D02*
G01*
X105397500Y-107175000D01*
X105397500Y-106735000D01*
X107137500Y-106735000D01*
X107137500Y-107175000D01*
G37*
X107137500Y-107825000D02*
X105397500Y-107825000D01*
X105397500Y-107385000D01*
X107137500Y-107385000D01*
X107137500Y-107825000D01*
G36*
X107137500Y-107825000D02*
G01*
X105397500Y-107825000D01*
X105397500Y-107385000D01*
X107137500Y-107385000D01*
X107137500Y-107825000D01*
G37*
X107137500Y-108475000D02*
X105397500Y-108475000D01*
X105397500Y-108035000D01*
X107137500Y-108035000D01*
X107137500Y-108475000D01*
G36*
X107137500Y-108475000D02*
G01*
X105397500Y-108475000D01*
X105397500Y-108035000D01*
X107137500Y-108035000D01*
X107137500Y-108475000D01*
G37*
X107137500Y-109125000D02*
X105397500Y-109125000D01*
X105397500Y-108685000D01*
X107137500Y-108685000D01*
X107137500Y-109125000D01*
G36*
X107137500Y-109125000D02*
G01*
X105397500Y-109125000D01*
X105397500Y-108685000D01*
X107137500Y-108685000D01*
X107137500Y-109125000D01*
G37*
X107137500Y-109775000D02*
X105397500Y-109775000D01*
X105397500Y-109335000D01*
X107137500Y-109335000D01*
X107137500Y-109775000D01*
G36*
X107137500Y-109775000D02*
G01*
X105397500Y-109775000D01*
X105397500Y-109335000D01*
X107137500Y-109335000D01*
X107137500Y-109775000D01*
G37*
%TO.C,U5*%
X66560000Y-101325000D02*
X64820000Y-101325000D01*
X64820000Y-100885000D01*
X66560000Y-100885000D01*
X66560000Y-101325000D01*
G36*
X66560000Y-101325000D02*
G01*
X64820000Y-101325000D01*
X64820000Y-100885000D01*
X66560000Y-100885000D01*
X66560000Y-101325000D01*
G37*
X66560000Y-101975000D02*
X64820000Y-101975000D01*
X64820000Y-101535000D01*
X66560000Y-101535000D01*
X66560000Y-101975000D01*
G36*
X66560000Y-101975000D02*
G01*
X64820000Y-101975000D01*
X64820000Y-101535000D01*
X66560000Y-101535000D01*
X66560000Y-101975000D01*
G37*
X66560000Y-102625000D02*
X64820000Y-102625000D01*
X64820000Y-102185000D01*
X66560000Y-102185000D01*
X66560000Y-102625000D01*
G36*
X66560000Y-102625000D02*
G01*
X64820000Y-102625000D01*
X64820000Y-102185000D01*
X66560000Y-102185000D01*
X66560000Y-102625000D01*
G37*
X66560000Y-103275000D02*
X64820000Y-103275000D01*
X64820000Y-102835000D01*
X66560000Y-102835000D01*
X66560000Y-103275000D01*
G36*
X66560000Y-103275000D02*
G01*
X64820000Y-103275000D01*
X64820000Y-102835000D01*
X66560000Y-102835000D01*
X66560000Y-103275000D01*
G37*
X66560000Y-103925000D02*
X64820000Y-103925000D01*
X64820000Y-103485000D01*
X66560000Y-103485000D01*
X66560000Y-103925000D01*
G36*
X66560000Y-103925000D02*
G01*
X64820000Y-103925000D01*
X64820000Y-103485000D01*
X66560000Y-103485000D01*
X66560000Y-103925000D01*
G37*
X66560000Y-104575000D02*
X64820000Y-104575000D01*
X64820000Y-104135000D01*
X66560000Y-104135000D01*
X66560000Y-104575000D01*
G36*
X66560000Y-104575000D02*
G01*
X64820000Y-104575000D01*
X64820000Y-104135000D01*
X66560000Y-104135000D01*
X66560000Y-104575000D01*
G37*
X66560000Y-105225000D02*
X64820000Y-105225000D01*
X64820000Y-104785000D01*
X66560000Y-104785000D01*
X66560000Y-105225000D01*
G36*
X66560000Y-105225000D02*
G01*
X64820000Y-105225000D01*
X64820000Y-104785000D01*
X66560000Y-104785000D01*
X66560000Y-105225000D01*
G37*
X66560000Y-105875000D02*
X64820000Y-105875000D01*
X64820000Y-105435000D01*
X66560000Y-105435000D01*
X66560000Y-105875000D01*
G36*
X66560000Y-105875000D02*
G01*
X64820000Y-105875000D01*
X64820000Y-105435000D01*
X66560000Y-105435000D01*
X66560000Y-105875000D01*
G37*
X66560000Y-106525000D02*
X64820000Y-106525000D01*
X64820000Y-106085000D01*
X66560000Y-106085000D01*
X66560000Y-106525000D01*
G36*
X66560000Y-106525000D02*
G01*
X64820000Y-106525000D01*
X64820000Y-106085000D01*
X66560000Y-106085000D01*
X66560000Y-106525000D01*
G37*
X66560000Y-107175000D02*
X64820000Y-107175000D01*
X64820000Y-106735000D01*
X66560000Y-106735000D01*
X66560000Y-107175000D01*
G36*
X66560000Y-107175000D02*
G01*
X64820000Y-107175000D01*
X64820000Y-106735000D01*
X66560000Y-106735000D01*
X66560000Y-107175000D01*
G37*
X66560000Y-107825000D02*
X64820000Y-107825000D01*
X64820000Y-107385000D01*
X66560000Y-107385000D01*
X66560000Y-107825000D01*
G36*
X66560000Y-107825000D02*
G01*
X64820000Y-107825000D01*
X64820000Y-107385000D01*
X66560000Y-107385000D01*
X66560000Y-107825000D01*
G37*
X66560000Y-108475000D02*
X64820000Y-108475000D01*
X64820000Y-108035000D01*
X66560000Y-108035000D01*
X66560000Y-108475000D01*
G36*
X66560000Y-108475000D02*
G01*
X64820000Y-108475000D01*
X64820000Y-108035000D01*
X66560000Y-108035000D01*
X66560000Y-108475000D01*
G37*
X66560000Y-109125000D02*
X64820000Y-109125000D01*
X64820000Y-108685000D01*
X66560000Y-108685000D01*
X66560000Y-109125000D01*
G36*
X66560000Y-109125000D02*
G01*
X64820000Y-109125000D01*
X64820000Y-108685000D01*
X66560000Y-108685000D01*
X66560000Y-109125000D01*
G37*
X66560000Y-109775000D02*
X64820000Y-109775000D01*
X64820000Y-109335000D01*
X66560000Y-109335000D01*
X66560000Y-109775000D01*
G36*
X66560000Y-109775000D02*
G01*
X64820000Y-109775000D01*
X64820000Y-109335000D01*
X66560000Y-109335000D01*
X66560000Y-109775000D01*
G37*
X69690000Y-108560000D02*
X67290000Y-108560000D01*
X67290000Y-102100000D01*
X69690000Y-102100000D01*
X69690000Y-108560000D01*
G36*
X69690000Y-108560000D02*
G01*
X67290000Y-108560000D01*
X67290000Y-102100000D01*
X69690000Y-102100000D01*
X69690000Y-108560000D01*
G37*
X72160000Y-101325000D02*
X70420000Y-101325000D01*
X70420000Y-100885000D01*
X72160000Y-100885000D01*
X72160000Y-101325000D01*
G36*
X72160000Y-101325000D02*
G01*
X70420000Y-101325000D01*
X70420000Y-100885000D01*
X72160000Y-100885000D01*
X72160000Y-101325000D01*
G37*
X72160000Y-101975000D02*
X70420000Y-101975000D01*
X70420000Y-101535000D01*
X72160000Y-101535000D01*
X72160000Y-101975000D01*
G36*
X72160000Y-101975000D02*
G01*
X70420000Y-101975000D01*
X70420000Y-101535000D01*
X72160000Y-101535000D01*
X72160000Y-101975000D01*
G37*
X72160000Y-102625000D02*
X70420000Y-102625000D01*
X70420000Y-102185000D01*
X72160000Y-102185000D01*
X72160000Y-102625000D01*
G36*
X72160000Y-102625000D02*
G01*
X70420000Y-102625000D01*
X70420000Y-102185000D01*
X72160000Y-102185000D01*
X72160000Y-102625000D01*
G37*
X72160000Y-103275000D02*
X70420000Y-103275000D01*
X70420000Y-102835000D01*
X72160000Y-102835000D01*
X72160000Y-103275000D01*
G36*
X72160000Y-103275000D02*
G01*
X70420000Y-103275000D01*
X70420000Y-102835000D01*
X72160000Y-102835000D01*
X72160000Y-103275000D01*
G37*
X72160000Y-103925000D02*
X70420000Y-103925000D01*
X70420000Y-103485000D01*
X72160000Y-103485000D01*
X72160000Y-103925000D01*
G36*
X72160000Y-103925000D02*
G01*
X70420000Y-103925000D01*
X70420000Y-103485000D01*
X72160000Y-103485000D01*
X72160000Y-103925000D01*
G37*
X72160000Y-104575000D02*
X70420000Y-104575000D01*
X70420000Y-104135000D01*
X72160000Y-104135000D01*
X72160000Y-104575000D01*
G36*
X72160000Y-104575000D02*
G01*
X70420000Y-104575000D01*
X70420000Y-104135000D01*
X72160000Y-104135000D01*
X72160000Y-104575000D01*
G37*
X72160000Y-105225000D02*
X70420000Y-105225000D01*
X70420000Y-104785000D01*
X72160000Y-104785000D01*
X72160000Y-105225000D01*
G36*
X72160000Y-105225000D02*
G01*
X70420000Y-105225000D01*
X70420000Y-104785000D01*
X72160000Y-104785000D01*
X72160000Y-105225000D01*
G37*
X72160000Y-105875000D02*
X70420000Y-105875000D01*
X70420000Y-105435000D01*
X72160000Y-105435000D01*
X72160000Y-105875000D01*
G36*
X72160000Y-105875000D02*
G01*
X70420000Y-105875000D01*
X70420000Y-105435000D01*
X72160000Y-105435000D01*
X72160000Y-105875000D01*
G37*
X72160000Y-106525000D02*
X70420000Y-106525000D01*
X70420000Y-106085000D01*
X72160000Y-106085000D01*
X72160000Y-106525000D01*
G36*
X72160000Y-106525000D02*
G01*
X70420000Y-106525000D01*
X70420000Y-106085000D01*
X72160000Y-106085000D01*
X72160000Y-106525000D01*
G37*
X72160000Y-107175000D02*
X70420000Y-107175000D01*
X70420000Y-106735000D01*
X72160000Y-106735000D01*
X72160000Y-107175000D01*
G36*
X72160000Y-107175000D02*
G01*
X70420000Y-107175000D01*
X70420000Y-106735000D01*
X72160000Y-106735000D01*
X72160000Y-107175000D01*
G37*
X72160000Y-107825000D02*
X70420000Y-107825000D01*
X70420000Y-107385000D01*
X72160000Y-107385000D01*
X72160000Y-107825000D01*
G36*
X72160000Y-107825000D02*
G01*
X70420000Y-107825000D01*
X70420000Y-107385000D01*
X72160000Y-107385000D01*
X72160000Y-107825000D01*
G37*
X72160000Y-108475000D02*
X70420000Y-108475000D01*
X70420000Y-108035000D01*
X72160000Y-108035000D01*
X72160000Y-108475000D01*
G36*
X72160000Y-108475000D02*
G01*
X70420000Y-108475000D01*
X70420000Y-108035000D01*
X72160000Y-108035000D01*
X72160000Y-108475000D01*
G37*
X72160000Y-109125000D02*
X70420000Y-109125000D01*
X70420000Y-108685000D01*
X72160000Y-108685000D01*
X72160000Y-109125000D01*
G36*
X72160000Y-109125000D02*
G01*
X70420000Y-109125000D01*
X70420000Y-108685000D01*
X72160000Y-108685000D01*
X72160000Y-109125000D01*
G37*
X72160000Y-109775000D02*
X70420000Y-109775000D01*
X70420000Y-109335000D01*
X72160000Y-109335000D01*
X72160000Y-109775000D01*
G36*
X72160000Y-109775000D02*
G01*
X70420000Y-109775000D01*
X70420000Y-109335000D01*
X72160000Y-109335000D01*
X72160000Y-109775000D01*
G37*
%TO.C,U4*%
X84057500Y-101420000D02*
X82317500Y-101420000D01*
X82317500Y-100980000D01*
X84057500Y-100980000D01*
X84057500Y-101420000D01*
G36*
X84057500Y-101420000D02*
G01*
X82317500Y-101420000D01*
X82317500Y-100980000D01*
X84057500Y-100980000D01*
X84057500Y-101420000D01*
G37*
X84057500Y-102070000D02*
X82317500Y-102070000D01*
X82317500Y-101630000D01*
X84057500Y-101630000D01*
X84057500Y-102070000D01*
G36*
X84057500Y-102070000D02*
G01*
X82317500Y-102070000D01*
X82317500Y-101630000D01*
X84057500Y-101630000D01*
X84057500Y-102070000D01*
G37*
X84057500Y-102720000D02*
X82317500Y-102720000D01*
X82317500Y-102280000D01*
X84057500Y-102280000D01*
X84057500Y-102720000D01*
G36*
X84057500Y-102720000D02*
G01*
X82317500Y-102720000D01*
X82317500Y-102280000D01*
X84057500Y-102280000D01*
X84057500Y-102720000D01*
G37*
X84057500Y-103370000D02*
X82317500Y-103370000D01*
X82317500Y-102930000D01*
X84057500Y-102930000D01*
X84057500Y-103370000D01*
G36*
X84057500Y-103370000D02*
G01*
X82317500Y-103370000D01*
X82317500Y-102930000D01*
X84057500Y-102930000D01*
X84057500Y-103370000D01*
G37*
X84057500Y-104020000D02*
X82317500Y-104020000D01*
X82317500Y-103580000D01*
X84057500Y-103580000D01*
X84057500Y-104020000D01*
G36*
X84057500Y-104020000D02*
G01*
X82317500Y-104020000D01*
X82317500Y-103580000D01*
X84057500Y-103580000D01*
X84057500Y-104020000D01*
G37*
X84057500Y-104670000D02*
X82317500Y-104670000D01*
X82317500Y-104230000D01*
X84057500Y-104230000D01*
X84057500Y-104670000D01*
G36*
X84057500Y-104670000D02*
G01*
X82317500Y-104670000D01*
X82317500Y-104230000D01*
X84057500Y-104230000D01*
X84057500Y-104670000D01*
G37*
X84057500Y-105320000D02*
X82317500Y-105320000D01*
X82317500Y-104880000D01*
X84057500Y-104880000D01*
X84057500Y-105320000D01*
G36*
X84057500Y-105320000D02*
G01*
X82317500Y-105320000D01*
X82317500Y-104880000D01*
X84057500Y-104880000D01*
X84057500Y-105320000D01*
G37*
X84057500Y-105970000D02*
X82317500Y-105970000D01*
X82317500Y-105530000D01*
X84057500Y-105530000D01*
X84057500Y-105970000D01*
G36*
X84057500Y-105970000D02*
G01*
X82317500Y-105970000D01*
X82317500Y-105530000D01*
X84057500Y-105530000D01*
X84057500Y-105970000D01*
G37*
X84057500Y-106620000D02*
X82317500Y-106620000D01*
X82317500Y-106180000D01*
X84057500Y-106180000D01*
X84057500Y-106620000D01*
G36*
X84057500Y-106620000D02*
G01*
X82317500Y-106620000D01*
X82317500Y-106180000D01*
X84057500Y-106180000D01*
X84057500Y-106620000D01*
G37*
X84057500Y-107270000D02*
X82317500Y-107270000D01*
X82317500Y-106830000D01*
X84057500Y-106830000D01*
X84057500Y-107270000D01*
G36*
X84057500Y-107270000D02*
G01*
X82317500Y-107270000D01*
X82317500Y-106830000D01*
X84057500Y-106830000D01*
X84057500Y-107270000D01*
G37*
X84057500Y-107920000D02*
X82317500Y-107920000D01*
X82317500Y-107480000D01*
X84057500Y-107480000D01*
X84057500Y-107920000D01*
G36*
X84057500Y-107920000D02*
G01*
X82317500Y-107920000D01*
X82317500Y-107480000D01*
X84057500Y-107480000D01*
X84057500Y-107920000D01*
G37*
X84057500Y-108570000D02*
X82317500Y-108570000D01*
X82317500Y-108130000D01*
X84057500Y-108130000D01*
X84057500Y-108570000D01*
G36*
X84057500Y-108570000D02*
G01*
X82317500Y-108570000D01*
X82317500Y-108130000D01*
X84057500Y-108130000D01*
X84057500Y-108570000D01*
G37*
X84057500Y-109220000D02*
X82317500Y-109220000D01*
X82317500Y-108780000D01*
X84057500Y-108780000D01*
X84057500Y-109220000D01*
G36*
X84057500Y-109220000D02*
G01*
X82317500Y-109220000D01*
X82317500Y-108780000D01*
X84057500Y-108780000D01*
X84057500Y-109220000D01*
G37*
X84057500Y-109870000D02*
X82317500Y-109870000D01*
X82317500Y-109430000D01*
X84057500Y-109430000D01*
X84057500Y-109870000D01*
G36*
X84057500Y-109870000D02*
G01*
X82317500Y-109870000D01*
X82317500Y-109430000D01*
X84057500Y-109430000D01*
X84057500Y-109870000D01*
G37*
X87187500Y-108655000D02*
X84787500Y-108655000D01*
X84787500Y-102195000D01*
X87187500Y-102195000D01*
X87187500Y-108655000D01*
G36*
X87187500Y-108655000D02*
G01*
X84787500Y-108655000D01*
X84787500Y-102195000D01*
X87187500Y-102195000D01*
X87187500Y-108655000D01*
G37*
X89657500Y-101420000D02*
X87917500Y-101420000D01*
X87917500Y-100980000D01*
X89657500Y-100980000D01*
X89657500Y-101420000D01*
G36*
X89657500Y-101420000D02*
G01*
X87917500Y-101420000D01*
X87917500Y-100980000D01*
X89657500Y-100980000D01*
X89657500Y-101420000D01*
G37*
X89657500Y-102070000D02*
X87917500Y-102070000D01*
X87917500Y-101630000D01*
X89657500Y-101630000D01*
X89657500Y-102070000D01*
G36*
X89657500Y-102070000D02*
G01*
X87917500Y-102070000D01*
X87917500Y-101630000D01*
X89657500Y-101630000D01*
X89657500Y-102070000D01*
G37*
X89657500Y-102720000D02*
X87917500Y-102720000D01*
X87917500Y-102280000D01*
X89657500Y-102280000D01*
X89657500Y-102720000D01*
G36*
X89657500Y-102720000D02*
G01*
X87917500Y-102720000D01*
X87917500Y-102280000D01*
X89657500Y-102280000D01*
X89657500Y-102720000D01*
G37*
X89657500Y-103370000D02*
X87917500Y-103370000D01*
X87917500Y-102930000D01*
X89657500Y-102930000D01*
X89657500Y-103370000D01*
G36*
X89657500Y-103370000D02*
G01*
X87917500Y-103370000D01*
X87917500Y-102930000D01*
X89657500Y-102930000D01*
X89657500Y-103370000D01*
G37*
X89657500Y-104020000D02*
X87917500Y-104020000D01*
X87917500Y-103580000D01*
X89657500Y-103580000D01*
X89657500Y-104020000D01*
G36*
X89657500Y-104020000D02*
G01*
X87917500Y-104020000D01*
X87917500Y-103580000D01*
X89657500Y-103580000D01*
X89657500Y-104020000D01*
G37*
X89657500Y-104670000D02*
X87917500Y-104670000D01*
X87917500Y-104230000D01*
X89657500Y-104230000D01*
X89657500Y-104670000D01*
G36*
X89657500Y-104670000D02*
G01*
X87917500Y-104670000D01*
X87917500Y-104230000D01*
X89657500Y-104230000D01*
X89657500Y-104670000D01*
G37*
X89657500Y-105320000D02*
X87917500Y-105320000D01*
X87917500Y-104880000D01*
X89657500Y-104880000D01*
X89657500Y-105320000D01*
G36*
X89657500Y-105320000D02*
G01*
X87917500Y-105320000D01*
X87917500Y-104880000D01*
X89657500Y-104880000D01*
X89657500Y-105320000D01*
G37*
X89657500Y-105970000D02*
X87917500Y-105970000D01*
X87917500Y-105530000D01*
X89657500Y-105530000D01*
X89657500Y-105970000D01*
G36*
X89657500Y-105970000D02*
G01*
X87917500Y-105970000D01*
X87917500Y-105530000D01*
X89657500Y-105530000D01*
X89657500Y-105970000D01*
G37*
X89657500Y-106620000D02*
X87917500Y-106620000D01*
X87917500Y-106180000D01*
X89657500Y-106180000D01*
X89657500Y-106620000D01*
G36*
X89657500Y-106620000D02*
G01*
X87917500Y-106620000D01*
X87917500Y-106180000D01*
X89657500Y-106180000D01*
X89657500Y-106620000D01*
G37*
X89657500Y-107270000D02*
X87917500Y-107270000D01*
X87917500Y-106830000D01*
X89657500Y-106830000D01*
X89657500Y-107270000D01*
G36*
X89657500Y-107270000D02*
G01*
X87917500Y-107270000D01*
X87917500Y-106830000D01*
X89657500Y-106830000D01*
X89657500Y-107270000D01*
G37*
X89657500Y-107920000D02*
X87917500Y-107920000D01*
X87917500Y-107480000D01*
X89657500Y-107480000D01*
X89657500Y-107920000D01*
G36*
X89657500Y-107920000D02*
G01*
X87917500Y-107920000D01*
X87917500Y-107480000D01*
X89657500Y-107480000D01*
X89657500Y-107920000D01*
G37*
X89657500Y-108570000D02*
X87917500Y-108570000D01*
X87917500Y-108130000D01*
X89657500Y-108130000D01*
X89657500Y-108570000D01*
G36*
X89657500Y-108570000D02*
G01*
X87917500Y-108570000D01*
X87917500Y-108130000D01*
X89657500Y-108130000D01*
X89657500Y-108570000D01*
G37*
X89657500Y-109220000D02*
X87917500Y-109220000D01*
X87917500Y-108780000D01*
X89657500Y-108780000D01*
X89657500Y-109220000D01*
G36*
X89657500Y-109220000D02*
G01*
X87917500Y-109220000D01*
X87917500Y-108780000D01*
X89657500Y-108780000D01*
X89657500Y-109220000D01*
G37*
X89657500Y-109870000D02*
X87917500Y-109870000D01*
X87917500Y-109430000D01*
X89657500Y-109430000D01*
X89657500Y-109870000D01*
G36*
X89657500Y-109870000D02*
G01*
X87917500Y-109870000D01*
X87917500Y-109430000D01*
X89657500Y-109430000D01*
X89657500Y-109870000D01*
G37*
%TD*%
D19*
%TO.C,C6*%
X92500000Y-80270000D03*
X92500000Y-81230000D03*
%TD*%
%TO.C,C9*%
X93500000Y-80270000D03*
X93500000Y-81230000D03*
%TD*%
%TO.C,C31*%
X74440000Y-109460000D03*
X74440000Y-108500000D03*
%TD*%
%TO.C,C11*%
X126937500Y-109230000D03*
X126937500Y-108270000D03*
%TD*%
D20*
%TO.C,C7*%
X90500000Y-80270000D03*
X90500000Y-81230000D03*
%TD*%
D19*
%TO.C,C10*%
X91500000Y-81230000D03*
X91500000Y-80270000D03*
%TD*%
%TO.C,C16*%
X109467500Y-109385000D03*
X109467500Y-108425000D03*
%TD*%
%TO.C,C26*%
X91937500Y-109455000D03*
X91937500Y-108495000D03*
%TD*%
D21*
%TO.C,C25*%
X92937500Y-113300000D03*
X92937500Y-111400000D03*
%TD*%
%TO.C,C14*%
X95000000Y-84650000D03*
X95000000Y-82750000D03*
%TD*%
%TO.C,C4*%
X101000000Y-73150000D03*
X101000000Y-71250000D03*
%TD*%
D22*
%TO.C,C19*%
X103000000Y-71250000D03*
X103000000Y-73150000D03*
%TD*%
D23*
%TO.C,C23*%
X110917500Y-98805000D03*
X109017500Y-98805000D03*
%TD*%
D24*
%TO.C,C13*%
X88231000Y-61637000D03*
X90131000Y-61637000D03*
%TD*%
D21*
%TO.C,C15*%
X110467500Y-113305000D03*
X110467500Y-111405000D03*
%TD*%
%TO.C,C5*%
X127937500Y-113200000D03*
X127937500Y-111300000D03*
%TD*%
D23*
%TO.C,C17*%
X81450000Y-73387000D03*
X79550000Y-73387000D03*
%TD*%
%TO.C,C3*%
X84950000Y-73500000D03*
X83050000Y-73500000D03*
%TD*%
%TO.C,C29*%
X93137500Y-100900000D03*
X91237500Y-100900000D03*
%TD*%
D21*
%TO.C,C30*%
X75440000Y-113200000D03*
X75440000Y-111300000D03*
%TD*%
D23*
%TO.C,C21*%
X128137500Y-100750000D03*
X126237500Y-100750000D03*
%TD*%
D21*
%TO.C,C1*%
X83500000Y-67300000D03*
X83500000Y-69200000D03*
%TD*%
D23*
%TO.C,C34*%
X75540000Y-100900000D03*
X73640000Y-100900000D03*
%TD*%
%TO.C,C28*%
X93437500Y-98900000D03*
X91537500Y-98900000D03*
%TD*%
%TO.C,C33*%
X75940000Y-98900000D03*
X74040000Y-98900000D03*
%TD*%
D21*
%TO.C,C8*%
X105000000Y-73150000D03*
X105000000Y-71250000D03*
%TD*%
D23*
%TO.C,C24*%
X110717500Y-100905000D03*
X108817500Y-100905000D03*
%TD*%
D24*
%TO.C,C2*%
X79550000Y-71387000D03*
X81450000Y-71387000D03*
%TD*%
D21*
%TO.C,C12*%
X99212500Y-64450000D03*
X99212500Y-62550000D03*
%TD*%
D23*
%TO.C,C20*%
X128437500Y-98750000D03*
X126537500Y-98750000D03*
%TD*%
D25*
%TO.C,J3*%
X67700000Y-83335000D03*
D26*
X67700000Y-78335000D03*
%TD*%
D27*
%TO.C,D5*%
X79500000Y-101200000D03*
X81375000Y-101200000D03*
%TD*%
D28*
%TO.C,U6*%
X81450000Y-69175000D03*
X79550000Y-69175000D03*
X79550000Y-66825000D03*
X80500000Y-66825000D03*
X81450000Y-66825000D03*
%TD*%
D29*
%TO.C,C22*%
X110917500Y-90000000D03*
X110917500Y-92000000D03*
%TD*%
D30*
%TO.C,R14*%
X128687500Y-107837500D03*
X128687500Y-109662500D03*
%TD*%
D31*
%TO.C,L1*%
X101687500Y-74750000D03*
X103812500Y-74750000D03*
%TD*%
D32*
%TO.C,R13*%
X125975000Y-103250000D03*
X128900000Y-103250000D03*
%TD*%
D33*
%TO.C,J12*%
X82317500Y-112400000D03*
X84857500Y-112400000D03*
X87397500Y-112400000D03*
D34*
X89937500Y-112400000D03*
%TD*%
D35*
%TO.C,D1*%
X89000000Y-78937500D03*
X89000000Y-77062500D03*
%TD*%
D36*
%TO.C,J1*%
X72027500Y-59600000D03*
X72027500Y-71600000D03*
D37*
X74887500Y-66850000D03*
X74887500Y-64350000D03*
X76887500Y-64350000D03*
D38*
X76887500Y-66850000D03*
%TD*%
D39*
%TO.C,RV6*%
X99620000Y-94150000D03*
X102160000Y-91610000D03*
D40*
X104700000Y-94150000D03*
%TD*%
D30*
%TO.C,R4*%
X93000000Y-82750000D03*
X93000000Y-84575000D03*
%TD*%
D29*
%TO.C,C32*%
X75940000Y-90000000D03*
X75940000Y-92000000D03*
%TD*%
D41*
%TO.C,R19*%
X116350000Y-103000000D03*
X114525000Y-103000000D03*
%TD*%
D27*
%TO.C,D6*%
X61965000Y-101100000D03*
X63840000Y-101100000D03*
%TD*%
D33*
%TO.C,J6*%
X69985000Y-54750000D03*
D34*
X72525000Y-54750000D03*
%TD*%
D33*
%TO.C,J9*%
X99797500Y-112305000D03*
X102337500Y-112305000D03*
X104877500Y-112305000D03*
D34*
X107417500Y-112305000D03*
%TD*%
D30*
%TO.C,R35*%
X76140000Y-107837500D03*
X76140000Y-109662500D03*
%TD*%
D41*
%TO.C,R6*%
X81412500Y-55110000D03*
X79587500Y-55110000D03*
%TD*%
D39*
%TO.C,RV3*%
X64600000Y-94140000D03*
X67140000Y-91600000D03*
D40*
X69680000Y-94140000D03*
%TD*%
D42*
%TO.C,R30*%
X80237500Y-109695000D03*
X80237500Y-107870000D03*
%TD*%
D43*
%TO.C,R2*%
X83087500Y-71350000D03*
X84912500Y-71350000D03*
%TD*%
D44*
%TO.C,R12*%
X128900000Y-105500000D03*
X125975000Y-105500000D03*
%TD*%
D30*
%TO.C,R3*%
X91000000Y-82750000D03*
X91000000Y-84575000D03*
%TD*%
D29*
%TO.C,C27*%
X93500000Y-90000000D03*
X93500000Y-92000000D03*
%TD*%
D32*
%TO.C,R25*%
X91037500Y-103250000D03*
X93962500Y-103250000D03*
%TD*%
D39*
%TO.C,RV2*%
X82147500Y-94190000D03*
X84687500Y-91650000D03*
D40*
X87227500Y-94190000D03*
%TD*%
D30*
%TO.C,R17*%
X111167500Y-108005000D03*
X111167500Y-109830000D03*
%TD*%
D32*
%TO.C,R34*%
X73515000Y-103400000D03*
X76440000Y-103400000D03*
%TD*%
D30*
%TO.C,R5*%
X126687500Y-94837500D03*
X126687500Y-96662500D03*
%TD*%
D42*
%TO.C,R18*%
X115187500Y-109412500D03*
X115187500Y-107587500D03*
%TD*%
D45*
%TO.C,Y1*%
X90750000Y-78500000D03*
X93250000Y-78500000D03*
%TD*%
D44*
%TO.C,R33*%
X76440000Y-105700000D03*
X73515000Y-105700000D03*
%TD*%
D33*
%TO.C,J4*%
X70990000Y-45080000D03*
X70990000Y-42540000D03*
X70990000Y-40000000D03*
D34*
X70990000Y-37460000D03*
%TD*%
D30*
%TO.C,R10*%
X91637500Y-95095000D03*
X91637500Y-96920000D03*
%TD*%
D42*
%TO.C,R21*%
X97767500Y-109505000D03*
X97767500Y-107680000D03*
%TD*%
D46*
%TO.C,S3*%
X89250000Y-56375000D03*
X83250000Y-56375000D03*
X89250000Y-52625000D03*
X83250000Y-52625000D03*
%TD*%
D32*
%TO.C,R16*%
X108455000Y-103405000D03*
X111380000Y-103405000D03*
%TD*%
D42*
%TO.C,R39*%
X62640000Y-109625000D03*
X62640000Y-107800000D03*
%TD*%
D33*
%TO.C,J8*%
X117317500Y-112250000D03*
X119857500Y-112250000D03*
X122397500Y-112250000D03*
D34*
X124937500Y-112250000D03*
%TD*%
D44*
%TO.C,R24*%
X93937500Y-105695000D03*
X91012500Y-105695000D03*
%TD*%
D39*
%TO.C,RV1*%
X117147500Y-93985000D03*
X119687500Y-91445000D03*
D40*
X122227500Y-93985000D03*
%TD*%
D33*
%TO.C,J15*%
X64720000Y-112400000D03*
X67260000Y-112400000D03*
X69800000Y-112400000D03*
D34*
X72340000Y-112400000D03*
%TD*%
D41*
%TO.C,R40*%
X63840000Y-103200000D03*
X62015000Y-103200000D03*
%TD*%
D44*
%TO.C,R15*%
X111392500Y-105655000D03*
X108467500Y-105655000D03*
%TD*%
D41*
%TO.C,R9*%
X81461550Y-57116423D03*
X79636550Y-57116423D03*
%TD*%
D35*
%TO.C,D2*%
X89000000Y-85937500D03*
X89000000Y-84062500D03*
%TD*%
D46*
%TO.C,S2*%
X104250000Y-86125000D03*
X98250000Y-86125000D03*
X104250000Y-82375000D03*
X98250000Y-82375000D03*
%TD*%
D42*
%TO.C,R8*%
X89000000Y-82412500D03*
X89000000Y-80587500D03*
%TD*%
D47*
%TO.C,U1*%
X87075000Y-73250000D03*
X87075000Y-72750000D03*
X87075000Y-72250000D03*
X87075000Y-71750000D03*
X87075000Y-71250000D03*
X87075000Y-70750000D03*
X87075000Y-70250000D03*
X87075000Y-69750000D03*
X87075000Y-69250000D03*
X87075000Y-68750000D03*
X87075000Y-68250000D03*
X87075000Y-67750000D03*
X87075000Y-67250000D03*
X87075000Y-66750000D03*
X87075000Y-66250000D03*
X87075000Y-65750000D03*
D48*
X89000000Y-63825000D03*
X89500000Y-63825000D03*
X90000000Y-63825000D03*
X90500000Y-63825000D03*
X91000000Y-63825000D03*
X91500000Y-63825000D03*
X92000000Y-63825000D03*
X92500000Y-63825000D03*
X93000000Y-63825000D03*
X93500000Y-63825000D03*
X94000000Y-63825000D03*
X94500000Y-63825000D03*
X95000000Y-63825000D03*
X95500000Y-63825000D03*
X96000000Y-63825000D03*
X96500000Y-63825000D03*
D47*
X98425000Y-65750000D03*
X98425000Y-66250000D03*
X98425000Y-66750000D03*
X98425000Y-67250000D03*
X98425000Y-67750000D03*
X98425000Y-68250000D03*
X98425000Y-68750000D03*
X98425000Y-69250000D03*
X98425000Y-69750000D03*
X98425000Y-70250000D03*
X98425000Y-70750000D03*
X98425000Y-71250000D03*
X98425000Y-71750000D03*
X98425000Y-72250000D03*
X98425000Y-72750000D03*
X98425000Y-73250000D03*
D48*
X96500000Y-75175000D03*
X96000000Y-75175000D03*
X95500000Y-75175000D03*
X95000000Y-75175000D03*
X94500000Y-75175000D03*
X94000000Y-75175000D03*
X93500000Y-75175000D03*
X93000000Y-75175000D03*
X92500000Y-75175000D03*
X92000000Y-75175000D03*
X91500000Y-75175000D03*
X91000000Y-75175000D03*
X90500000Y-75175000D03*
X90000000Y-75175000D03*
X89500000Y-75175000D03*
X89000000Y-75175000D03*
%TD*%
D41*
%TO.C,R22*%
X98767500Y-103205000D03*
X96942500Y-103205000D03*
%TD*%
D36*
%TO.C,J2*%
X114712500Y-61927500D03*
X102712500Y-61927500D03*
D37*
X107462500Y-64787500D03*
X109962500Y-64787500D03*
X109962500Y-66787500D03*
D38*
X107462500Y-66787500D03*
%TD*%
D30*
%TO.C,R26*%
X93750000Y-107837500D03*
X93750000Y-109662500D03*
%TD*%
%TO.C,R11*%
X74240000Y-95100000D03*
X74240000Y-96925000D03*
%TD*%
D49*
%TO.C,Y2*%
X96600000Y-77750000D03*
X96600000Y-79950000D03*
X94900000Y-79950000D03*
X94900000Y-77750000D03*
%TD*%
D29*
%TO.C,C18*%
X128500000Y-90000000D03*
X128500000Y-92000000D03*
%TD*%
D27*
%TO.C,D3*%
X114500000Y-101000000D03*
X116375000Y-101000000D03*
%TD*%
D30*
%TO.C,R7*%
X109067500Y-94992500D03*
X109067500Y-96817500D03*
%TD*%
D27*
%TO.C,D4*%
X96900000Y-101200000D03*
X98775000Y-101200000D03*
%TD*%
D50*
%TO.C,U7*%
X82742000Y-61350000D03*
D51*
X85242000Y-59850000D03*
X85242000Y-60350000D03*
X85242000Y-60850000D03*
X85242000Y-61350000D03*
X85242000Y-61850000D03*
X85242000Y-62350000D03*
X85242000Y-62850000D03*
D52*
X84242000Y-63850000D03*
X83742000Y-63850000D03*
X83242000Y-63850000D03*
X82742000Y-63850000D03*
X82242000Y-63850000D03*
X81742000Y-63850000D03*
X81242000Y-63850000D03*
D51*
X80242000Y-62850000D03*
X80242000Y-62350000D03*
X80242000Y-61850000D03*
X80242000Y-61350000D03*
X80242000Y-60850000D03*
X80242000Y-60350000D03*
X80242000Y-59850000D03*
D52*
X81242000Y-58850000D03*
X81742000Y-58850000D03*
X82242000Y-58850000D03*
X82742000Y-58850000D03*
X83242000Y-58850000D03*
X83742000Y-58850000D03*
X84242000Y-58850000D03*
%TD*%
D46*
%TO.C,S1*%
X104250000Y-80375000D03*
X98250000Y-80375000D03*
X104250000Y-76625000D03*
X98250000Y-76625000D03*
%TD*%
D41*
%TO.C,R31*%
X81347818Y-103200000D03*
X79522818Y-103200000D03*
%TD*%
D43*
%TO.C,R1*%
X100837500Y-69500000D03*
X102662500Y-69500000D03*
%TD*%
D39*
%TO.C,RV4*%
X82250000Y-78170000D03*
X84790000Y-80710000D03*
D40*
X82250000Y-83250000D03*
%TD*%
D38*
%TO.C,J5*%
X66240000Y-37500000D03*
D37*
X66240000Y-40000000D03*
X66240000Y-42000000D03*
X66240000Y-44500000D03*
D53*
X63530000Y-34430000D03*
X63530000Y-47570000D03*
%TD*%
%LPD*%
M02*
